<?xml version="1.0" encoding="UTF-8" standalone="no"?>
<!DOCTYPE svg PUBLIC "-//W3C//DTD SVG 1.1//EN"
 "http://www.w3.org/Graphics/SVG/1.1/DTD/svg11.dtd">
<!-- Generated by graphviz version 2.38.0 (20140413.2041)
 -->
<!-- Title: include/Arrival.h Pages: 1 -->
<svg width="351pt" height="84pt"
 viewBox="0.00 0.00 351.00 84.00" xmlns="http://www.w3.org/2000/svg" xmlns:xlink="http://www.w3.org/1999/xlink">
<g id="graph0" class="graph" transform="scale(1 1) rotate(0) translate(4 80)">
<title>include/Arrival.h</title>
<polygon fill="white" stroke="none" points="-4,4 -4,-80 347,-80 347,4 -4,4"/>
<!-- Node1 -->
<g id="node1" class="node"><title>Node1</title>
<polygon fill="#bfbfbf" stroke="black" points="110.5,-56.5 110.5,-75.5 216.5,-75.5 216.5,-56.5 110.5,-56.5"/>
<text text-anchor="middle" x="163.5" y="-63.5" font-family="Ubuntu Mono" font-size="10.00">include/Arrival.h</text>
</g>
<!-- Node2 -->
<g id="node2" class="node"><title>Node2</title>
<g id="a_node2"><a xlink:href="_arrival_8cpp.html" target="_top" xlink:title="src/Arrival.cpp">
<polygon fill="white" stroke="black" points="0,-0.5 0,-19.5 95,-19.5 95,-0.5 0,-0.5"/>
<text text-anchor="middle" x="47.5" y="-7.5" font-family="Ubuntu Mono" font-size="10.00">src/Arrival.cpp</text>
</a>
</g>
</g>
<!-- Node1&#45;&gt;Node2 -->
<g id="edge1" class="edge"><title>Node1&#45;&gt;Node2</title>
<path fill="none" stroke="midnightblue" d="M135.78,-52.096C114.108,-42.0073 84.5979,-28.2697 65.7946,-19.5164"/>
<polygon fill="midnightblue" stroke="midnightblue" points="134.577,-55.3962 145.119,-56.4435 137.531,-49.0501 134.577,-55.3962"/>
</g>
<!-- Node3 -->
<g id="node3" class="node"><title>Node3</title>
<g id="a_node3"><a xlink:href="_reporter_8cpp.html" target="_top" xlink:title="src/Reporter.cpp">
<polygon fill="white" stroke="black" points="113,-0.5 113,-19.5 214,-19.5 214,-0.5 113,-0.5"/>
<text text-anchor="middle" x="163.5" y="-7.5" font-family="Ubuntu Mono" font-size="10.00">src/Reporter.cpp</text>
</a>
</g>
</g>
<!-- Node1&#45;&gt;Node3 -->
<g id="edge2" class="edge"><title>Node1&#45;&gt;Node3</title>
<path fill="none" stroke="midnightblue" d="M163.5,-45.8045C163.5,-36.9102 163.5,-26.7798 163.5,-19.7511"/>
<polygon fill="midnightblue" stroke="midnightblue" points="160,-46.083 163.5,-56.083 167,-46.083 160,-46.083"/>
</g>
<!-- Node4 -->
<g id="node4" class="node"><title>Node4</title>
<g id="a_node4"><a xlink:href="_statistics_8cpp.html" target="_top" xlink:title="src/Statistics.cpp">
<polygon fill="white" stroke="black" points="232,-0.5 232,-19.5 343,-19.5 343,-0.5 232,-0.5"/>
<text text-anchor="middle" x="287.5" y="-7.5" font-family="Ubuntu Mono" font-size="10.00">src/Statistics.cpp</text>
</a>
</g>
</g>
<!-- Node1&#45;&gt;Node4 -->
<g id="edge3" class="edge"><title>Node1&#45;&gt;Node4</title>
<path fill="none" stroke="midnightblue" d="M192.507,-52.3678C215.729,-42.2553 247.663,-28.3486 267.944,-19.5164"/>
<polygon fill="midnightblue" stroke="midnightblue" points="190.919,-49.2419 183.148,-56.4435 193.714,-55.6597 190.919,-49.2419"/>
</g>
</g>
</svg>
