<?xml version="1.0" encoding="UTF-8" standalone="no"?>
<!DOCTYPE svg PUBLIC "-//W3C//DTD SVG 1.1//EN"
 "http://www.w3.org/Graphics/SVG/1.1/DTD/svg11.dtd">
<!-- Generated by graphviz version 2.38.0 (20140413.2041)
 -->
<!-- Title: src/BetterNearestNeighbourCostFunction.cpp Pages: 1 -->
<!--zoomable 218 -->
<svg id="main" version="1.1" xmlns="http://www.w3.org/2000/svg" xmlns:xlink="http://www.w3.org/1999/xlink" xml:space="preserve" onload="init(evt)">
<style type="text/css"><![CDATA[
.edge:hover path { stroke: red; }
.edge:hover polygon { stroke: red; fill: red; }
]]></style>
<script type="text/javascript"><![CDATA[
var edges = document.getElementsByTagName('g');
if (edges && edges.length) {
  for (var i=0;i<edges.length;i++) {
    if (edges[i].id.substr(0,4)=='edge') {
      edges[i].setAttribute('class','edge');
    }
  }
}
]]></script>
        <defs>
                <circle id="rim" cx="0" cy="0" r="7"/>
                <circle id="rim2" cx="0" cy="0" r="3.5"/>
                <g id="zoomPlus">
                        <use xlink:href="#rim" fill="#404040">
                                <set attributeName="fill" to="#808080" begin="zoomplus.mouseover" end="zoomplus.mouseout"/>
                        </use>
                        <path d="M-4,0h8M0,-4v8" fill="none" stroke="white" stroke-width="1.5" pointer-events="none"/>
                </g>
                <g id="zoomMin">
                        <use xlink:href="#rim" fill="#404040">
                                <set attributeName="fill" to="#808080" begin="zoomminus.mouseover" end="zoomminus.mouseout"/>
                        </use>
                        <path d="M-4,0h8" fill="none" stroke="white" stroke-width="1.5" pointer-events="none"/>
                </g>
                <g id="dirArrow">
                        <path fill="none" stroke="white" stroke-width="1.5" d="M0,-3.0v7 M-2.5,-0.5L0,-3.0L2.5,-0.5"/>
                </g>
               <g id="resetDef">
                       <use xlink:href="#rim2" fill="#404040">
                               <set attributeName="fill" to="#808080" begin="reset.mouseover" end="reset.mouseout"/>
                       </use>
               </g>
        </defs>

<script type="text/javascript">
var viewWidth = 1029;
var viewHeight = 218;
var sectionId = 'dynsection-0';
</script>
<script xlink:href="svgpan.js"/>
<svg id="graph" class="graph">
<g id="viewport">
<title>src/BetterNearestNeighbourCostFunction.cpp</title>
<polygon fill="white" stroke="none" points="-4,4 -4,-214 1024.96,-214 1024.96,4 -4,4"/>
<!-- Node1 -->
<g id="node1" class="node"><title>Node1</title>
<polygon fill="#bfbfbf" stroke="black" points="448.958,-179.5 448.958,-209.5 586.958,-209.5 586.958,-179.5 448.958,-179.5"/>
<text text-anchor="start" x="456.958" y="-197.5" font-family="Helvetica,sans-Serif" font-size="10.00">src/BetterNearestNeighbour</text>
<text text-anchor="middle" x="517.958" y="-186.5" font-family="Helvetica,sans-Serif" font-size="10.00">CostFunction.cpp</text>
</g>
<!-- Node2 -->
<g id="node2" class="node"><title>Node2</title>
<g id="a_node2"><a xlink:href="_better_nearest_neighbour_cost_function_8h.html" target="_top" xlink:title="BetterNearestNeighbourCost\lFunction.h">
<polygon fill="white" stroke="black" points="561.458,-112.5 561.458,-142.5 704.458,-142.5 704.458,-112.5 561.458,-112.5"/>
<text text-anchor="start" x="569.458" y="-130.5" font-family="Helvetica,sans-Serif" font-size="10.00">BetterNearestNeighbourCost</text>
<text text-anchor="middle" x="632.958" y="-119.5" font-family="Helvetica,sans-Serif" font-size="10.00">Function.h</text>
</a>
</g>
</g>
<!-- Node1&#45;&gt;Node2 -->
<g id="edge1" class="edge"><title>Node1&#45;&gt;Node2</title>
<path fill="none" stroke="midnightblue" d="M542.911,-179.396C559.337,-170.112 581.047,-157.841 599.034,-147.674"/>
<polygon fill="midnightblue" stroke="midnightblue" points="601.07,-150.544 608.053,-142.577 597.626,-144.45 601.07,-150.544"/>
</g>
<!-- Node5 -->
<g id="node5" class="node"><title>Node5</title>
<g id="a_node5"><a xlink:href="_nearest_neighbour_cost_function_8h.html" target="_top" xlink:title="NearestNeighbourCostFunction.h">
<polygon fill="white" stroke="black" points="722.958,-118 722.958,-137 884.958,-137 884.958,-118 722.958,-118"/>
<text text-anchor="middle" x="803.958" y="-125" font-family="Helvetica,sans-Serif" font-size="10.00">NearestNeighbourCostFunction.h</text>
</a>
</g>
</g>
<!-- Node1&#45;&gt;Node5 -->
<g id="edge4" class="edge"><title>Node1&#45;&gt;Node5</title>
<path fill="none" stroke="midnightblue" d="M579.664,-179.476C632.708,-167.421 708.099,-150.286 756.525,-139.28"/>
<polygon fill="midnightblue" stroke="midnightblue" points="757.456,-142.658 766.432,-137.029 755.905,-135.832 757.456,-142.658"/>
</g>
<!-- Node6 -->
<g id="node6" class="node"><title>Node6</title>
<g id="a_node6"><a xlink:href="_building_8h.html" target="_top" xlink:title="Building.h">
<polygon fill="white" stroke="black" points="279.458,-118 279.458,-137 338.458,-137 338.458,-118 279.458,-118"/>
<text text-anchor="middle" x="308.958" y="-125" font-family="Helvetica,sans-Serif" font-size="10.00">Building.h</text>
</a>
</g>
</g>
<!-- Node1&#45;&gt;Node6 -->
<g id="edge6" class="edge"><title>Node1&#45;&gt;Node6</title>
<path fill="none" stroke="midnightblue" d="M466.754,-179.497C432.61,-169.886 386.842,-156.476 346.958,-143 344.7,-142.237 342.377,-141.423 340.046,-140.585"/>
<polygon fill="midnightblue" stroke="midnightblue" points="341.149,-137.262 330.556,-137.073 338.719,-143.827 341.149,-137.262"/>
</g>
<!-- Node12 -->
<g id="node12" class="node"><title>Node12</title>
<g id="a_node12"><a xlink:href="_client_8h.html" target="_top" xlink:title="Client.h">
<polygon fill="white" stroke="black" points="492.958,-118 492.958,-137 542.958,-137 542.958,-118 492.958,-118"/>
<text text-anchor="middle" x="517.958" y="-125" font-family="Helvetica,sans-Serif" font-size="10.00">Client.h</text>
</a>
</g>
</g>
<!-- Node1&#45;&gt;Node12 -->
<g id="edge14" class="edge"><title>Node1&#45;&gt;Node12</title>
<path fill="none" stroke="midnightblue" d="M517.958,-179.396C517.958,-170.064 517.958,-157.714 517.958,-147.517"/>
<polygon fill="midnightblue" stroke="midnightblue" points="521.458,-147.195 517.958,-137.195 514.458,-147.195 521.458,-147.195"/>
</g>
<!-- Node14 -->
<g id="node14" class="node"><title>Node14</title>
<g id="a_node14"><a xlink:href="_elevator_8h.html" target="_top" xlink:title="Elevator.h">
<polygon fill="white" stroke="black" points="60.458,-118 60.458,-137 121.458,-137 121.458,-118 60.458,-118"/>
<text text-anchor="middle" x="90.958" y="-125" font-family="Helvetica,sans-Serif" font-size="10.00">Elevator.h</text>
</a>
</g>
</g>
<!-- Node1&#45;&gt;Node14 -->
<g id="edge17" class="edge"><title>Node1&#45;&gt;Node14</title>
<path fill="none" stroke="midnightblue" d="M448.878,-182.984C359.002,-169.303 204.847,-145.837 131.73,-134.706"/>
<polygon fill="midnightblue" stroke="midnightblue" points="131.96,-131.201 121.547,-133.156 130.907,-138.122 131.96,-131.201"/>
</g>
<!-- Node16 -->
<g id="node16" class="node"><title>Node16</title>
<g id="a_node16"><a xlink:href="_floor_8h.html" target="_top" xlink:title="Floor.h">
<polygon fill="white" stroke="black" points="356.458,-118 356.458,-137 403.458,-137 403.458,-118 356.458,-118"/>
<text text-anchor="middle" x="379.958" y="-125" font-family="Helvetica,sans-Serif" font-size="10.00">Floor.h</text>
</a>
</g>
</g>
<!-- Node1&#45;&gt;Node16 -->
<g id="edge22" class="edge"><title>Node1&#45;&gt;Node16</title>
<path fill="none" stroke="midnightblue" d="M488.014,-179.396C464.015,-168.092 430.616,-152.361 407.325,-141.39"/>
<polygon fill="midnightblue" stroke="midnightblue" points="408.557,-138.102 398.019,-137.007 405.574,-144.435 408.557,-138.102"/>
</g>
<!-- Node17 -->
<g id="node17" class="node"><title>Node17</title>
<g id="a_node17"><a xlink:href="_status_8h.html" target="_top" xlink:title="Status.h">
<polygon fill="white" stroke="black" points="421.458,-118 421.458,-137 474.458,-137 474.458,-118 421.458,-118"/>
<text text-anchor="middle" x="447.958" y="-125" font-family="Helvetica,sans-Serif" font-size="10.00">Status.h</text>
</a>
</g>
</g>
<!-- Node1&#45;&gt;Node17 -->
<g id="edge26" class="edge"><title>Node1&#45;&gt;Node17</title>
<path fill="none" stroke="midnightblue" d="M502.769,-179.396C491.638,-169.06 476.522,-155.024 464.983,-144.309"/>
<polygon fill="midnightblue" stroke="midnightblue" points="467.031,-141.434 457.321,-137.195 462.268,-146.564 467.031,-141.434"/>
</g>
<!-- Node19 -->
<g id="node19" class="node"><title>Node19</title>
<polygon fill="white" stroke="#bfbfbf" points="902.958,-118 902.958,-137 958.958,-137 958.958,-118 902.958,-118"/>
<text text-anchor="middle" x="930.958" y="-125" font-family="Helvetica,sans-Serif" font-size="10.00">algorithm</text>
</g>
<!-- Node1&#45;&gt;Node19 -->
<g id="edge29" class="edge"><title>Node1&#45;&gt;Node19</title>
<path fill="none" stroke="midnightblue" d="M587.18,-189.198C663.349,-183.316 788.915,-170.214 893.958,-143 896.621,-142.31 899.352,-141.483 902.066,-140.579"/>
<polygon fill="midnightblue" stroke="midnightblue" points="903.472,-143.792 911.662,-137.071 901.068,-137.217 903.472,-143.792"/>
</g>
<!-- Node20 -->
<g id="node20" class="node"><title>Node20</title>
<polygon fill="white" stroke="#bfbfbf" points="976.958,-118 976.958,-137 1020.96,-137 1020.96,-118 976.958,-118"/>
<text text-anchor="middle" x="998.958" y="-125" font-family="Helvetica,sans-Serif" font-size="10.00">cmath</text>
</g>
<!-- Node1&#45;&gt;Node20 -->
<g id="edge30" class="edge"><title>Node1&#45;&gt;Node20</title>
<path fill="none" stroke="midnightblue" d="M587.136,-192.671C676.644,-190.037 836.672,-179.99 967.958,-143 969.888,-142.456 971.848,-141.804 973.797,-141.081"/>
<polygon fill="midnightblue" stroke="midnightblue" points="975.422,-144.193 983.251,-137.054 972.679,-137.753 975.422,-144.193"/>
</g>
<!-- Node3 -->
<g id="node3" class="node"><title>Node3</title>
<g id="a_node3"><a xlink:href="_cost_function_8h.html" target="_top" xlink:title="CostFunction.h">
<polygon fill="white" stroke="black" points="695.458,-56.5 695.458,-75.5 778.458,-75.5 778.458,-56.5 695.458,-56.5"/>
<text text-anchor="middle" x="736.958" y="-63.5" font-family="Helvetica,sans-Serif" font-size="10.00">CostFunction.h</text>
</a>
</g>
</g>
<!-- Node2&#45;&gt;Node3 -->
<g id="edge2" class="edge"><title>Node2&#45;&gt;Node3</title>
<path fill="none" stroke="midnightblue" d="M657.605,-112.399C674.275,-102.862 696.189,-90.3248 712.763,-80.8422"/>
<polygon fill="midnightblue" stroke="midnightblue" points="714.883,-83.6617 721.825,-75.6578 711.407,-77.5858 714.883,-83.6617"/>
</g>
<!-- Node4 -->
<g id="node4" class="node"><title>Node4</title>
<polygon fill="white" stroke="#bfbfbf" points="327.958,-0.5 327.958,-19.5 379.958,-19.5 379.958,-0.5 327.958,-0.5"/>
<text text-anchor="middle" x="353.958" y="-7.5" font-family="Helvetica,sans-Serif" font-size="10.00">memory</text>
</g>
<!-- Node3&#45;&gt;Node4 -->
<g id="edge3" class="edge"><title>Node3&#45;&gt;Node4</title>
<path fill="none" stroke="midnightblue" d="M695.232,-57.4967C692.096,-56.9757 688.978,-56.471 685.958,-56 578.881,-39.3022 451.811,-23.0739 390.565,-15.4762"/>
<polygon fill="midnightblue" stroke="midnightblue" points="390.617,-11.9561 380.263,-14.2027 389.758,-18.9032 390.617,-11.9561"/>
</g>
<!-- Node5&#45;&gt;Node3 -->
<g id="edge5" class="edge"><title>Node5&#45;&gt;Node3</title>
<path fill="none" stroke="midnightblue" d="M794.359,-117.975C783.91,-108.697 766.99,-93.6706 754.221,-82.331"/>
<polygon fill="midnightblue" stroke="midnightblue" points="756.341,-79.5323 746.54,-75.5091 751.693,-84.7663 756.341,-79.5323"/>
</g>
<!-- Node6&#45;&gt;Node4 -->
<g id="edge10" class="edge"><title>Node6&#45;&gt;Node4</title>
<path fill="none" stroke="midnightblue" d="M310.994,-117.623C314.238,-104.063 321.127,-77.5003 329.958,-56 333.785,-46.6836 338.949,-36.7619 343.507,-28.6122"/>
<polygon fill="midnightblue" stroke="midnightblue" points="346.676,-30.1221 348.635,-19.7099 340.611,-26.628 346.676,-30.1221"/>
</g>
<!-- Node7 -->
<g id="node7" class="node"><title>Node7</title>
<g id="a_node7"><a xlink:href="_event_observer_8h.html" target="_top" xlink:title="EventObserver.h">
<polygon fill="white" stroke="black" points="130.958,-56.5 130.958,-75.5 220.958,-75.5 220.958,-56.5 130.958,-56.5"/>
<text text-anchor="middle" x="175.958" y="-63.5" font-family="Helvetica,sans-Serif" font-size="10.00">EventObserver.h</text>
</a>
</g>
</g>
<!-- Node6&#45;&gt;Node7 -->
<g id="edge7" class="edge"><title>Node6&#45;&gt;Node7</title>
<path fill="none" stroke="midnightblue" d="M289.902,-117.975C267.483,-107.945 230.053,-91.2002 204.245,-79.6546"/>
<polygon fill="midnightblue" stroke="midnightblue" points="205.536,-76.3979 194.978,-75.5091 202.677,-82.7877 205.536,-76.3979"/>
</g>
<!-- Node8 -->
<g id="node8" class="node"><title>Node8</title>
<polygon fill="white" stroke="#bfbfbf" points="15.458,-56.5 15.458,-75.5 50.458,-75.5 50.458,-56.5 15.458,-56.5"/>
<text text-anchor="middle" x="32.958" y="-63.5" font-family="Helvetica,sans-Serif" font-size="10.00">map</text>
</g>
<!-- Node6&#45;&gt;Node8 -->
<g id="edge9" class="edge"><title>Node6&#45;&gt;Node8</title>
<path fill="none" stroke="midnightblue" d="M279.173,-121.667C233.931,-114.067 145.073,-98.1219 60.357,-75.8234"/>
<polygon fill="midnightblue" stroke="midnightblue" points="61.1477,-72.412 50.5835,-73.2171 59.344,-79.1757 61.1477,-72.412"/>
</g>
<!-- Node9 -->
<g id="node9" class="node"><title>Node9</title>
<polygon fill="white" stroke="#bfbfbf" points="338.958,-56.5 338.958,-75.5 368.958,-75.5 368.958,-56.5 338.958,-56.5"/>
<text text-anchor="middle" x="353.958" y="-63.5" font-family="Helvetica,sans-Serif" font-size="10.00">set</text>
</g>
<!-- Node6&#45;&gt;Node9 -->
<g id="edge11" class="edge"><title>Node6&#45;&gt;Node9</title>
<path fill="none" stroke="midnightblue" d="M315.405,-117.975C322.155,-109.05 332.927,-94.8071 341.371,-83.6425"/>
<polygon fill="midnightblue" stroke="midnightblue" points="344.282,-85.5962 347.523,-75.5091 338.699,-81.3737 344.282,-85.5962"/>
</g>
<!-- Node10 -->
<g id="node10" class="node"><title>Node10</title>
<polygon fill="white" stroke="#bfbfbf" points="425.458,-56.5 425.458,-75.5 466.458,-75.5 466.458,-56.5 425.458,-56.5"/>
<text text-anchor="middle" x="445.958" y="-63.5" font-family="Helvetica,sans-Serif" font-size="10.00">string</text>
</g>
<!-- Node6&#45;&gt;Node10 -->
<g id="edge12" class="edge"><title>Node6&#45;&gt;Node10</title>
<path fill="none" stroke="midnightblue" d="M328.587,-117.975C351.782,-107.901 390.577,-91.0525 417.171,-79.5023"/>
<polygon fill="midnightblue" stroke="midnightblue" points="418.588,-82.703 426.366,-75.5091 415.799,-76.2824 418.588,-82.703"/>
</g>
<!-- Node11 -->
<g id="node11" class="node"><title>Node11</title>
<polygon fill="white" stroke="#bfbfbf" points="68.958,-56.5 68.958,-75.5 112.958,-75.5 112.958,-56.5 68.958,-56.5"/>
<text text-anchor="middle" x="90.958" y="-63.5" font-family="Helvetica,sans-Serif" font-size="10.00">vector</text>
</g>
<!-- Node6&#45;&gt;Node11 -->
<g id="edge13" class="edge"><title>Node6&#45;&gt;Node11</title>
<path fill="none" stroke="midnightblue" d="M279.438,-118.711C244.417,-109.432 184.026,-93.3038 122.79,-76.1959"/>
<polygon fill="midnightblue" stroke="midnightblue" points="123.532,-72.7691 112.959,-73.4427 121.645,-79.5097 123.532,-72.7691"/>
</g>
<!-- Node7&#45;&gt;Node4 -->
<g id="edge8" class="edge"><title>Node7&#45;&gt;Node4</title>
<path fill="none" stroke="midnightblue" d="M204.163,-56.4435C234.99,-47.0914 284.458,-32.0844 318.039,-21.8969"/>
<polygon fill="midnightblue" stroke="midnightblue" points="319.359,-25.1539 327.912,-18.9015 317.327,-18.4554 319.359,-25.1539"/>
</g>
<!-- Node12&#45;&gt;Node4 -->
<g id="edge16" class="edge"><title>Node12&#45;&gt;Node4</title>
<path fill="none" stroke="midnightblue" d="M527.731,-118C542.633,-104.019 567.726,-75.7534 551.958,-56 532.104,-31.1272 441.758,-18.9546 390.234,-13.9404"/>
<polygon fill="midnightblue" stroke="midnightblue" points="390.455,-10.4459 380.174,-13.0041 389.807,-17.4158 390.455,-10.4459"/>
</g>
<!-- Node13 -->
<g id="node13" class="node"><title>Node13</title>
<polygon fill="white" stroke="#bfbfbf" points="600.458,-56.5 600.458,-75.5 677.458,-75.5 677.458,-56.5 600.458,-56.5"/>
<text text-anchor="middle" x="638.958" y="-63.5" font-family="Helvetica,sans-Serif" font-size="10.00">glog/logging.h</text>
</g>
<!-- Node12&#45;&gt;Node13 -->
<g id="edge15" class="edge"><title>Node12&#45;&gt;Node13</title>
<path fill="none" stroke="midnightblue" d="M535.294,-117.975C555.511,-108.034 589.145,-91.4947 612.6,-79.961"/>
<polygon fill="midnightblue" stroke="midnightblue" points="614.225,-83.0627 621.654,-75.5091 611.136,-76.781 614.225,-83.0627"/>
</g>
<!-- Node14&#45;&gt;Node4 -->
<g id="edge19" class="edge"><title>Node14&#45;&gt;Node4</title>
<path fill="none" stroke="midnightblue" d="M65.8188,-117.992C33.3224,-105.703 -16.5728,-81.6318 5.95798,-56 26.3279,-32.8265 232.388,-18.1491 317.49,-13.0331"/>
<polygon fill="midnightblue" stroke="midnightblue" points="317.945,-16.5124 327.722,-12.4292 317.533,-9.5246 317.945,-16.5124"/>
</g>
<!-- Node14&#45;&gt;Node8 -->
<g id="edge18" class="edge"><title>Node14&#45;&gt;Node8</title>
<path fill="none" stroke="midnightblue" d="M82.648,-117.975C73.7757,-108.873 59.5122,-94.241 48.538,-82.983"/>
<polygon fill="midnightblue" stroke="midnightblue" points="50.7391,-80.2268 41.2526,-75.5091 45.7265,-85.113 50.7391,-80.2268"/>
</g>
<!-- Node14&#45;&gt;Node11 -->
<g id="edge21" class="edge"><title>Node14&#45;&gt;Node11</title>
<path fill="none" stroke="midnightblue" d="M90.958,-117.975C90.958,-109.58 90.958,-96.4806 90.958,-85.6631"/>
<polygon fill="midnightblue" stroke="midnightblue" points="94.4581,-85.5091 90.958,-75.5091 87.4581,-85.5091 94.4581,-85.5091"/>
</g>
<!-- Node15 -->
<g id="node15" class="node"><title>Node15</title>
<polygon fill="white" stroke="#bfbfbf" points="239.458,-56.5 239.458,-75.5 282.458,-75.5 282.458,-56.5 239.458,-56.5"/>
<text text-anchor="middle" x="260.958" y="-63.5" font-family="Helvetica,sans-Serif" font-size="10.00">queue</text>
</g>
<!-- Node14&#45;&gt;Node15 -->
<g id="edge20" class="edge"><title>Node14&#45;&gt;Node15</title>
<path fill="none" stroke="midnightblue" d="M115.315,-117.975C145.434,-107.433 196.751,-89.4726 229.734,-77.9283"/>
<polygon fill="midnightblue" stroke="midnightblue" points="231.056,-81.1739 239.338,-74.5669 228.744,-74.5669 231.056,-81.1739"/>
</g>
<!-- Node16&#45;&gt;Node4 -->
<g id="edge23" class="edge"><title>Node16&#45;&gt;Node4</title>
<path fill="none" stroke="midnightblue" d="M380.985,-117.633C382.27,-104.086 383.669,-77.5408 377.958,-56 375.381,-46.2808 370.368,-36.3292 365.587,-28.2641"/>
<polygon fill="midnightblue" stroke="midnightblue" points="368.536,-26.3799 360.24,-19.7897 362.616,-30.1148 368.536,-26.3799"/>
</g>
<!-- Node16&#45;&gt;Node9 -->
<g id="edge25" class="edge"><title>Node16&#45;&gt;Node9</title>
<path fill="none" stroke="midnightblue" d="M376.233,-117.975C372.487,-109.404 366.598,-95.9269 361.816,-84.983"/>
<polygon fill="midnightblue" stroke="midnightblue" points="364.888,-83.271 357.676,-75.5091 358.473,-86.0739 364.888,-83.271"/>
</g>
<!-- Node16&#45;&gt;Node15 -->
<g id="edge24" class="edge"><title>Node16&#45;&gt;Node15</title>
<path fill="none" stroke="midnightblue" d="M362.908,-117.975C343.114,-108.078 310.241,-91.6416 287.188,-80.1151"/>
<polygon fill="midnightblue" stroke="midnightblue" points="288.486,-76.8508 277.976,-75.5091 285.355,-83.1118 288.486,-76.8508"/>
</g>
<!-- Node17&#45;&gt;Node10 -->
<g id="edge28" class="edge"><title>Node17&#45;&gt;Node10</title>
<path fill="none" stroke="midnightblue" d="M447.671,-117.975C447.389,-109.58 446.949,-96.4806 446.585,-85.6631"/>
<polygon fill="midnightblue" stroke="midnightblue" points="450.078,-85.3858 446.244,-75.5091 443.082,-85.6211 450.078,-85.3858"/>
</g>
<!-- Node18 -->
<g id="node18" class="node"><title>Node18</title>
<polygon fill="white" stroke="#bfbfbf" points="484.458,-56.5 484.458,-75.5 543.458,-75.5 543.458,-56.5 484.458,-56.5"/>
<text text-anchor="middle" x="513.958" y="-63.5" font-family="Helvetica,sans-Serif" font-size="10.00">stdexcept</text>
</g>
<!-- Node17&#45;&gt;Node18 -->
<g id="edge27" class="edge"><title>Node17&#45;&gt;Node18</title>
<path fill="none" stroke="midnightblue" d="M457.414,-117.975C467.706,-108.697 484.374,-93.6706 496.952,-82.331"/>
<polygon fill="midnightblue" stroke="midnightblue" points="499.436,-84.8046 504.519,-75.5091 494.748,-79.6054 499.436,-84.8046"/>
</g>
</g>
</svg>
        <g id="navigator" transform="translate(0 0)" fill="#404254">
                <rect fill="#f2f5e9" fill-opacity="0.5" stroke="#606060" stroke-width=".5" x="0" y="0" width="60" height="60"/>
                <use id="zoomplus" xlink:href="#zoomPlus" x="17" y="9" onmousedown="handleZoom(evt,'in')"/>
                <use id="zoomminus" xlink:href="#zoomMin" x="42" y="9" onmousedown="handleZoom(evt,'out')"/>
                <use id="reset" xlink:href="#resetDef" x="30" y="36" onmousedown="handleReset()"/>
                <g id="arrowUp" xlink:href="#dirArrow" transform="translate(30 24)" onmousedown="handlePan(0,-1)">
                  <use xlink:href="#rim" fill="#404040">
                        <set attributeName="fill" to="#808080" begin="arrowUp.mouseover" end="arrowUp.mouseout"/>
                  </use>
                  <path fill="none" stroke="white" stroke-width="1.5" d="M0,-3.0v7 M-2.5,-0.5L0,-3.0L2.5,-0.5"/>
                </g>
                <g id="arrowRight" xlink:href="#dirArrow" transform="rotate(90) translate(36 -43)" onmousedown="handlePan(1,0)">
                  <use xlink:href="#rim" fill="#404040">
                        <set attributeName="fill" to="#808080" begin="arrowRight.mouseover" end="arrowRight.mouseout"/>
                  </use>
                  <path fill="none" stroke="white" stroke-width="1.5" d="M0,-3.0v7 M-2.5,-0.5L0,-3.0L2.5,-0.5"/>
                </g>
                <g id="arrowDown" xlink:href="#dirArrow" transform="rotate(180) translate(-30 -48)" onmousedown="handlePan(0,1)">
                  <use xlink:href="#rim" fill="#404040">
                        <set attributeName="fill" to="#808080" begin="arrowDown.mouseover" end="arrowDown.mouseout"/>
                  </use>
                  <path fill="none" stroke="white" stroke-width="1.5" d="M0,-3.0v7 M-2.5,-0.5L0,-3.0L2.5,-0.5"/>
                </g>
                <g id="arrowLeft" xlink:href="#dirArrow" transform="rotate(270) translate(-36 17)" onmousedown="handlePan(-1,0)">
                  <use xlink:href="#rim" fill="#404040">
                        <set attributeName="fill" to="#808080" begin="arrowLeft.mouseover" end="arrowLeft.mouseout"/>
                  </use>
                  <path fill="none" stroke="white" stroke-width="1.5" d="M0,-3.0v7 M-2.5,-0.5L0,-3.0L2.5,-0.5"/>
                </g>
        </g>
        <svg viewBox="0 0 15 15" width="100%" height="30px" preserveAspectRatio="xMaxYMin meet">
         <g id="arrow_out" transform="scale(0.3 0.3)">
          <a xlink:href="_better_nearest_neighbour_cost_function_8cpp__incl_org.svg" target="_base">
           <rect id="button" ry="5" rx="5" y="6" x="6" height="38" width="38"
                fill="#f2f5e9" fill-opacity="0.5" stroke="#606060" stroke-width="1.0"/>
           <path id="arrow"
             d="M 11.500037,31.436501 C 11.940474,20.09759 22.043105,11.32322 32.158766,21.979434 L 37.068811,17.246167 C 37.068811,17.246167 37.088388,32 37.088388,32 L 22.160133,31.978069 C 22.160133,31.978069 26.997745,27.140456 26.997745,27.140456 C 18.528582,18.264221 13.291696,25.230495 11.500037,31.436501 z"
             style="fill:#404040;"/>
          </a>
         </g>
        </svg>
</svg>
