<?xml version="1.0" encoding="UTF-8" standalone="no"?>
<!DOCTYPE svg PUBLIC "-//W3C//DTD SVG 1.1//EN"
 "http://www.w3.org/Graphics/SVG/1.1/DTD/svg11.dtd">
<!-- Generated by graphviz version 2.38.0 (20140413.2041)
 -->
<!-- Title: src/BetterNearestNeighbourCostFunction.cpp Pages: 1 -->
<svg width="1083pt" height="218pt"
 viewBox="0.00 0.00 1083.42 218.00" xmlns="http://www.w3.org/2000/svg" xmlns:xlink="http://www.w3.org/1999/xlink">
<g id="graph0" class="graph" transform="scale(1 1) rotate(0) translate(4 214)">
<title>src/BetterNearestNeighbourCostFunction.cpp</title>
<polygon fill="white" stroke="none" points="-4,4 -4,-214 1079.42,-214 1079.42,4 -4,4"/>
<!-- Node1 -->
<g id="node1" class="node"><title>Node1</title>
<polygon fill="#bfbfbf" stroke="black" points="462.418,-179.5 462.418,-209.5 615.418,-209.5 615.418,-179.5 462.418,-179.5"/>
<text text-anchor="start" x="470.418" y="-197.5" font-family="Ubuntu Mono" font-size="10.00">src/BetterNearestNeighbour</text>
<text text-anchor="middle" x="538.918" y="-186.5" font-family="Ubuntu Mono" font-size="10.00">CostFunction.cpp</text>
</g>
<!-- Node2 -->
<g id="node2" class="node"><title>Node2</title>
<g id="a_node2"><a xlink:href="_better_nearest_neighbour_cost_function_8h.html" target="_top" xlink:title="BetterNearestNeighbourCost\lFunction.h">
<polygon fill="white" stroke="black" points="586.418,-112.5 586.418,-142.5 739.418,-142.5 739.418,-112.5 586.418,-112.5"/>
<text text-anchor="start" x="594.418" y="-130.5" font-family="Ubuntu Mono" font-size="10.00">BetterNearestNeighbourCost</text>
<text text-anchor="middle" x="662.918" y="-119.5" font-family="Ubuntu Mono" font-size="10.00">Function.h</text>
</a>
</g>
</g>
<!-- Node1&#45;&gt;Node2 -->
<g id="edge1" class="edge"><title>Node1&#45;&gt;Node2</title>
<path fill="none" stroke="midnightblue" d="M565.824,-179.396C583.779,-169.984 607.59,-157.503 627.138,-147.256"/>
<polygon fill="midnightblue" stroke="midnightblue" points="628.832,-150.319 636.064,-142.577 625.582,-144.119 628.832,-150.319"/>
</g>
<!-- Node5 -->
<g id="node5" class="node"><title>Node5</title>
<g id="a_node5"><a xlink:href="_nearest_neighbour_cost_function_8h.html" target="_top" xlink:title="NearestNeighbourCostFunction.h">
<polygon fill="white" stroke="black" points="757.918,-118 757.918,-137 931.918,-137 931.918,-118 757.918,-118"/>
<text text-anchor="middle" x="844.918" y="-125" font-family="Ubuntu Mono" font-size="10.00">NearestNeighbourCostFunction.h</text>
</a>
</g>
</g>
<!-- Node1&#45;&gt;Node5 -->
<g id="edge4" class="edge"><title>Node1&#45;&gt;Node5</title>
<path fill="none" stroke="midnightblue" d="M604.939,-179.476C661.93,-167.37 743.031,-150.143 794.817,-139.142"/>
<polygon fill="midnightblue" stroke="midnightblue" points="795.713,-142.53 804.768,-137.029 794.259,-135.683 795.713,-142.53"/>
</g>
<!-- Node6 -->
<g id="node6" class="node"><title>Node6</title>
<g id="a_node6"><a xlink:href="_building_8h.html" target="_top" xlink:title="Building.h">
<polygon fill="white" stroke="black" points="274.418,-118 274.418,-137 343.418,-137 343.418,-118 274.418,-118"/>
<text text-anchor="middle" x="308.918" y="-125" font-family="Ubuntu Mono" font-size="10.00">Building.h</text>
</a>
</g>
</g>
<!-- Node1&#45;&gt;Node6 -->
<g id="edge6" class="edge"><title>Node1&#45;&gt;Node6</title>
<path fill="none" stroke="midnightblue" d="M483.432,-179.471C446.092,-169.796 395.844,-156.324 351.918,-143 348.997,-142.114 345.974,-141.164 342.949,-140.189"/>
<polygon fill="midnightblue" stroke="midnightblue" points="343.986,-136.846 333.393,-137.043 341.796,-143.495 343.986,-136.846"/>
</g>
<!-- Node12 -->
<g id="node12" class="node"><title>Node12</title>
<g id="a_node12"><a xlink:href="_client_8h.html" target="_top" xlink:title="Client.h">
<polygon fill="white" stroke="black" points="509.418,-118 509.418,-137 568.418,-137 568.418,-118 509.418,-118"/>
<text text-anchor="middle" x="538.918" y="-125" font-family="Ubuntu Mono" font-size="10.00">Client.h</text>
</a>
</g>
</g>
<!-- Node1&#45;&gt;Node12 -->
<g id="edge14" class="edge"><title>Node1&#45;&gt;Node12</title>
<path fill="none" stroke="midnightblue" d="M538.918,-179.396C538.918,-170.064 538.918,-157.714 538.918,-147.517"/>
<polygon fill="midnightblue" stroke="midnightblue" points="542.418,-147.195 538.918,-137.195 535.418,-147.195 542.418,-147.195"/>
</g>
<!-- Node14 -->
<g id="node14" class="node"><title>Node14</title>
<g id="a_node14"><a xlink:href="_elevator_8h.html" target="_top" xlink:title="Elevator.h">
<polygon fill="white" stroke="black" points="54.4179,-118 54.4179,-137 123.418,-137 123.418,-118 54.4179,-118"/>
<text text-anchor="middle" x="88.9179" y="-125" font-family="Ubuntu Mono" font-size="10.00">Elevator.h</text>
</a>
</g>
</g>
<!-- Node1&#45;&gt;Node14 -->
<g id="edge17" class="edge"><title>Node1&#45;&gt;Node14</title>
<path fill="none" stroke="midnightblue" d="M462.327,-182.437C367.916,-168.8 210.578,-146.073 133.809,-134.984"/>
<polygon fill="midnightblue" stroke="midnightblue" points="133.923,-131.465 123.526,-133.499 132.923,-138.393 133.923,-131.465"/>
</g>
<!-- Node16 -->
<g id="node16" class="node"><title>Node16</title>
<g id="a_node16"><a xlink:href="_floor_8h.html" target="_top" xlink:title="Floor.h">
<polygon fill="white" stroke="black" points="361.418,-118 361.418,-137 414.418,-137 414.418,-118 361.418,-118"/>
<text text-anchor="middle" x="387.918" y="-125" font-family="Ubuntu Mono" font-size="10.00">Floor.h</text>
</a>
</g>
</g>
<!-- Node1&#45;&gt;Node16 -->
<g id="edge22" class="edge"><title>Node1&#45;&gt;Node16</title>
<path fill="none" stroke="midnightblue" d="M506.153,-179.396C479.658,-167.991 442.695,-152.079 417.183,-141.098"/>
<polygon fill="midnightblue" stroke="midnightblue" points="418.249,-137.746 407.68,-137.007 415.482,-144.176 418.249,-137.746"/>
</g>
<!-- Node17 -->
<g id="node17" class="node"><title>Node17</title>
<g id="a_node17"><a xlink:href="_status_8h.html" target="_top" xlink:title="Status.h">
<polygon fill="white" stroke="black" points="432.418,-118 432.418,-137 491.418,-137 491.418,-118 432.418,-118"/>
<text text-anchor="middle" x="461.918" y="-125" font-family="Ubuntu Mono" font-size="10.00">Status.h</text>
</a>
</g>
</g>
<!-- Node1&#45;&gt;Node17 -->
<g id="edge26" class="edge"><title>Node1&#45;&gt;Node17</title>
<path fill="none" stroke="midnightblue" d="M522.21,-179.396C509.729,-168.86 492.691,-154.477 479.911,-143.689"/>
<polygon fill="midnightblue" stroke="midnightblue" points="482.117,-140.971 472.218,-137.195 477.601,-146.32 482.117,-140.971"/>
</g>
<!-- Node19 -->
<g id="node19" class="node"><title>Node19</title>
<polygon fill="white" stroke="#bfbfbf" points="949.918,-118 949.918,-137 1013.92,-137 1013.92,-118 949.918,-118"/>
<text text-anchor="middle" x="981.918" y="-125" font-family="Ubuntu Mono" font-size="10.00">algorithm</text>
</g>
<!-- Node1&#45;&gt;Node19 -->
<g id="edge29" class="edge"><title>Node1&#45;&gt;Node19</title>
<path fill="none" stroke="midnightblue" d="M615.733,-188.777C697.286,-182.622 829.518,-169.371 940.918,-143 944.151,-142.235 947.483,-141.304 950.786,-140.288"/>
<polygon fill="midnightblue" stroke="midnightblue" points="952.093,-143.541 960.475,-137.06 949.881,-136.9 952.093,-143.541"/>
</g>
<!-- Node20 -->
<g id="node20" class="node"><title>Node20</title>
<polygon fill="white" stroke="#bfbfbf" points="1032.42,-118 1032.42,-137 1075.42,-137 1075.42,-118 1032.42,-118"/>
<text text-anchor="middle" x="1053.92" y="-125" font-family="Ubuntu Mono" font-size="10.00">cmath</text>
</g>
<!-- Node1&#45;&gt;Node20 -->
<g id="edge30" class="edge"><title>Node1&#45;&gt;Node20</title>
<path fill="none" stroke="midnightblue" d="M615.826,-193.309C712.545,-191.3 882.899,-181.862 1022.92,-143 1024.85,-142.464 1026.81,-141.817 1028.76,-141.098"/>
<polygon fill="midnightblue" stroke="midnightblue" points="1030.38,-144.212 1038.22,-137.08 1027.65,-137.769 1030.38,-144.212"/>
</g>
<!-- Node3 -->
<g id="node3" class="node"><title>Node3</title>
<g id="a_node3"><a xlink:href="_cost_function_8h.html" target="_top" xlink:title="CostFunction.h">
<polygon fill="white" stroke="black" points="725.918,-56.5 725.918,-75.5 815.918,-75.5 815.918,-56.5 725.918,-56.5"/>
<text text-anchor="middle" x="770.918" y="-63.5" font-family="Ubuntu Mono" font-size="10.00">CostFunction.h</text>
</a>
</g>
</g>
<!-- Node2&#45;&gt;Node3 -->
<g id="edge2" class="edge"><title>Node2&#45;&gt;Node3</title>
<path fill="none" stroke="midnightblue" d="M688.512,-112.399C705.986,-102.773 729.006,-90.0902 746.274,-80.5772"/>
<polygon fill="midnightblue" stroke="midnightblue" points="748.133,-83.5488 755.203,-75.6578 744.755,-77.4177 748.133,-83.5488"/>
</g>
<!-- Node4 -->
<g id="node4" class="node"><title>Node4</title>
<polygon fill="white" stroke="#bfbfbf" points="335.918,-0.5 335.918,-19.5 383.918,-19.5 383.918,-0.5 335.918,-0.5"/>
<text text-anchor="middle" x="359.918" y="-7.5" font-family="Ubuntu Mono" font-size="10.00">memory</text>
</g>
<!-- Node3&#45;&gt;Node4 -->
<g id="edge3" class="edge"><title>Node3&#45;&gt;Node4</title>
<path fill="none" stroke="midnightblue" d="M725.858,-57.3524C722.834,-56.8817 719.833,-56.4265 716.918,-56 598.887,-38.7321 458.308,-22.1876 394.49,-14.8949"/>
<polygon fill="midnightblue" stroke="midnightblue" points="394.535,-11.3776 384.204,-13.7237 393.743,-18.3326 394.535,-11.3776"/>
</g>
<!-- Node5&#45;&gt;Node3 -->
<g id="edge5" class="edge"><title>Node5&#45;&gt;Node3</title>
<path fill="none" stroke="midnightblue" d="M834.316,-117.975C822.666,-108.608 803.732,-93.3839 789.583,-82.0081"/>
<polygon fill="midnightblue" stroke="midnightblue" points="791.487,-79.0477 781.501,-75.5091 787.101,-84.503 791.487,-79.0477"/>
</g>
<!-- Node6&#45;&gt;Node4 -->
<g id="edge10" class="edge"><title>Node6&#45;&gt;Node4</title>
<path fill="none" stroke="midnightblue" d="M311.697,-117.643C316.052,-104.108 325.016,-77.5792 334.918,-56 339.204,-46.6588 344.685,-36.6292 349.421,-28.4147"/>
<polygon fill="midnightblue" stroke="midnightblue" points="352.462,-30.1478 354.524,-19.7554 346.432,-26.594 352.462,-30.1478"/>
</g>
<!-- Node7 -->
<g id="node7" class="node"><title>Node7</title>
<g id="a_node7"><a xlink:href="_event_observer_8h.html" target="_top" xlink:title="EventObserver.h">
<polygon fill="white" stroke="black" points="131.418,-56.5 131.418,-75.5 226.418,-75.5 226.418,-56.5 131.418,-56.5"/>
<text text-anchor="middle" x="178.918" y="-63.5" font-family="Ubuntu Mono" font-size="10.00">EventObserver.h</text>
</a>
</g>
</g>
<!-- Node6&#45;&gt;Node7 -->
<g id="edge7" class="edge"><title>Node6&#45;&gt;Node7</title>
<path fill="none" stroke="midnightblue" d="M290.292,-117.975C268.475,-107.99 232.114,-91.3476 206.901,-79.8075"/>
<polygon fill="midnightblue" stroke="midnightblue" points="208.059,-76.4884 197.509,-75.5091 205.145,-82.8534 208.059,-76.4884"/>
</g>
<!-- Node8 -->
<g id="node8" class="node"><title>Node8</title>
<polygon fill="white" stroke="#bfbfbf" points="14.9179,-56.5 14.9179,-75.5 46.9179,-75.5 46.9179,-56.5 14.9179,-56.5"/>
<text text-anchor="middle" x="30.9179" y="-63.5" font-family="Ubuntu Mono" font-size="10.00">map</text>
</g>
<!-- Node6&#45;&gt;Node8 -->
<g id="edge9" class="edge"><title>Node6&#45;&gt;Node8</title>
<path fill="none" stroke="midnightblue" d="M274.161,-121.242C226.91,-113.731 139.697,-98.5763 56.7698,-75.8951"/>
<polygon fill="midnightblue" stroke="midnightblue" points="57.5144,-72.4695 46.9425,-73.1656 55.6411,-79.2142 57.5144,-72.4695"/>
</g>
<!-- Node9 -->
<g id="node9" class="node"><title>Node9</title>
<polygon fill="white" stroke="#bfbfbf" points="343.918,-56.5 343.918,-75.5 375.918,-75.5 375.918,-56.5 343.918,-56.5"/>
<text text-anchor="middle" x="359.918" y="-63.5" font-family="Ubuntu Mono" font-size="10.00">set</text>
</g>
<!-- Node6&#45;&gt;Node9 -->
<g id="edge11" class="edge"><title>Node6&#45;&gt;Node9</title>
<path fill="none" stroke="midnightblue" d="M316.225,-117.975C323.951,-108.962 336.325,-94.5246 345.936,-83.3118"/>
<polygon fill="midnightblue" stroke="midnightblue" points="348.774,-85.3795 352.624,-75.5091 343.459,-80.8239 348.774,-85.3795"/>
</g>
<!-- Node10 -->
<g id="node10" class="node"><title>Node10</title>
<polygon fill="white" stroke="#bfbfbf" points="431.918,-56.5 431.918,-75.5 479.918,-75.5 479.918,-56.5 431.918,-56.5"/>
<text text-anchor="middle" x="455.918" y="-63.5" font-family="Ubuntu Mono" font-size="10.00">string</text>
</g>
<!-- Node6&#45;&gt;Node10 -->
<g id="edge12" class="edge"><title>Node6&#45;&gt;Node10</title>
<path fill="none" stroke="midnightblue" d="M329.979,-117.975C354.977,-107.857 396.859,-90.9046 425.405,-79.3507"/>
<polygon fill="midnightblue" stroke="midnightblue" points="426.939,-82.5054 434.895,-75.5091 424.313,-76.0168 426.939,-82.5054"/>
</g>
<!-- Node11 -->
<g id="node11" class="node"><title>Node11</title>
<polygon fill="white" stroke="#bfbfbf" points="64.9179,-56.5 64.9179,-75.5 112.918,-75.5 112.918,-56.5 64.9179,-56.5"/>
<text text-anchor="middle" x="88.9179" y="-63.5" font-family="Ubuntu Mono" font-size="10.00">vector</text>
</g>
<!-- Node6&#45;&gt;Node11 -->
<g id="edge13" class="edge"><title>Node6&#45;&gt;Node11</title>
<path fill="none" stroke="midnightblue" d="M277.147,-117.946C241.826,-108.431 182.822,-92.518 122.719,-76.2128"/>
<polygon fill="midnightblue" stroke="midnightblue" points="123.634,-72.8347 113.067,-73.5934 121.801,-79.5903 123.634,-72.8347"/>
</g>
<!-- Node7&#45;&gt;Node4 -->
<g id="edge8" class="edge"><title>Node7&#45;&gt;Node4</title>
<path fill="none" stroke="midnightblue" d="M207.598,-56.4435C239.667,-46.8758 291.576,-31.3894 325.729,-21.2001"/>
<polygon fill="midnightblue" stroke="midnightblue" points="327.135,-24.4332 335.716,-18.2203 325.133,-17.7254 327.135,-24.4332"/>
</g>
<!-- Node12&#45;&gt;Node4 -->
<g id="edge16" class="edge"><title>Node12&#45;&gt;Node4</title>
<path fill="none" stroke="midnightblue" d="M548.315,-117.929C562.626,-103.845 586.645,-75.4348 570.918,-56 549.105,-29.0444 448.468,-17.5408 394.439,-13.2382"/>
<polygon fill="midnightblue" stroke="midnightblue" points="394.527,-9.73502 384.292,-12.4713 394,-16.7151 394.527,-9.73502"/>
</g>
<!-- Node13 -->
<g id="node13" class="node"><title>Node13</title>
<polygon fill="white" stroke="#bfbfbf" points="617.918,-56.5 617.918,-75.5 707.918,-75.5 707.918,-56.5 617.918,-56.5"/>
<text text-anchor="middle" x="662.918" y="-63.5" font-family="Ubuntu Mono" font-size="10.00">glog/logging.h</text>
</g>
<!-- Node12&#45;&gt;Node13 -->
<g id="edge15" class="edge"><title>Node12&#45;&gt;Node13</title>
<path fill="none" stroke="midnightblue" d="M556.684,-117.975C577.402,-108.034 611.87,-91.4947 635.907,-79.961"/>
<polygon fill="midnightblue" stroke="midnightblue" points="637.683,-82.9908 645.185,-75.5091 634.655,-76.6797 637.683,-82.9908"/>
</g>
<!-- Node14&#45;&gt;Node4 -->
<g id="edge19" class="edge"><title>Node14&#45;&gt;Node4</title>
<path fill="none" stroke="midnightblue" d="M64.5698,-117.991C32.764,-105.608 -16.39,-81.3232 5.91791,-56 26.8796,-32.205 240.746,-17.6874 325.547,-12.8279"/>
<polygon fill="midnightblue" stroke="midnightblue" points="325.907,-16.3133 335.695,-12.2574 325.514,-9.3243 325.907,-16.3133"/>
</g>
<!-- Node14&#45;&gt;Node8 -->
<g id="edge18" class="edge"><title>Node14&#45;&gt;Node8</title>
<path fill="none" stroke="midnightblue" d="M80.6079,-117.975C71.7356,-108.873 57.4721,-94.241 46.4979,-82.983"/>
<polygon fill="midnightblue" stroke="midnightblue" points="48.699,-80.2268 39.2125,-75.5091 43.6865,-85.113 48.699,-80.2268"/>
</g>
<!-- Node14&#45;&gt;Node11 -->
<g id="edge21" class="edge"><title>Node14&#45;&gt;Node11</title>
<path fill="none" stroke="midnightblue" d="M88.9179,-117.975C88.9179,-109.58 88.9179,-96.4806 88.9179,-85.6631"/>
<polygon fill="midnightblue" stroke="midnightblue" points="92.418,-85.5091 88.9179,-75.5091 85.418,-85.5091 92.418,-85.5091"/>
</g>
<!-- Node15 -->
<g id="node15" class="node"><title>Node15</title>
<polygon fill="white" stroke="#bfbfbf" points="244.418,-56.5 244.418,-75.5 287.418,-75.5 287.418,-56.5 244.418,-56.5"/>
<text text-anchor="middle" x="265.918" y="-63.5" font-family="Ubuntu Mono" font-size="10.00">queue</text>
</g>
<!-- Node14&#45;&gt;Node15 -->
<g id="edge20" class="edge"><title>Node14&#45;&gt;Node15</title>
<path fill="none" stroke="midnightblue" d="M114.278,-117.975C146.033,-107.3 200.42,-89.0176 234.701,-77.4938"/>
<polygon fill="midnightblue" stroke="midnightblue" points="235.86,-80.7966 244.224,-74.2926 233.63,-74.1615 235.86,-80.7966"/>
</g>
<!-- Node16&#45;&gt;Node4 -->
<g id="edge23" class="edge"><title>Node16&#45;&gt;Node4</title>
<path fill="none" stroke="midnightblue" d="M388.827,-117.613C389.932,-104.039 390.968,-77.4596 384.918,-56 382.164,-46.2316 376.933,-36.2745 371.966,-28.2184"/>
<polygon fill="midnightblue" stroke="midnightblue" points="374.83,-26.2028 366.419,-19.7596 368.976,-30.0414 374.83,-26.2028"/>
</g>
<!-- Node16&#45;&gt;Node9 -->
<g id="edge25" class="edge"><title>Node16&#45;&gt;Node9</title>
<path fill="none" stroke="midnightblue" d="M383.906,-117.975C379.831,-109.315 373.4,-95.6486 368.222,-84.6453"/>
<polygon fill="midnightblue" stroke="midnightblue" points="371.347,-83.067 363.922,-75.5091 365.013,-86.0476 371.347,-83.067"/>
</g>
<!-- Node16&#45;&gt;Node15 -->
<g id="edge24" class="edge"><title>Node16&#45;&gt;Node15</title>
<path fill="none" stroke="midnightblue" d="M370.438,-117.975C350.055,-108.034 316.142,-91.4947 292.493,-79.961"/>
<polygon fill="midnightblue" stroke="midnightblue" points="293.887,-76.7468 283.365,-75.5091 290.819,-83.0385 293.887,-76.7468"/>
</g>
<!-- Node17&#45;&gt;Node10 -->
<g id="edge28" class="edge"><title>Node17&#45;&gt;Node10</title>
<path fill="none" stroke="midnightblue" d="M461.058,-117.975C460.212,-109.58 458.891,-96.4806 457.8,-85.6631"/>
<polygon fill="midnightblue" stroke="midnightblue" points="461.262,-85.1074 456.776,-75.5091 454.297,-85.8098 461.262,-85.1074"/>
</g>
<!-- Node18 -->
<g id="node18" class="node"><title>Node18</title>
<polygon fill="white" stroke="#bfbfbf" points="497.918,-56.5 497.918,-75.5 561.918,-75.5 561.918,-56.5 497.918,-56.5"/>
<text text-anchor="middle" x="529.918" y="-63.5" font-family="Ubuntu Mono" font-size="10.00">stdexcept</text>
</g>
<!-- Node17&#45;&gt;Node18 -->
<g id="edge27" class="edge"><title>Node17&#45;&gt;Node18</title>
<path fill="none" stroke="midnightblue" d="M471.661,-117.975C482.265,-108.697 499.437,-93.6706 512.397,-82.331"/>
<polygon fill="midnightblue" stroke="midnightblue" points="514.972,-84.7282 520.193,-75.5091 510.363,-79.4601 514.972,-84.7282"/>
</g>
</g>
</svg>
