<?xml version="1.0" encoding="UTF-8" standalone="no"?>
<!DOCTYPE svg PUBLIC "-//W3C//DTD SVG 1.1//EN"
 "http://www.w3.org/Graphics/SVG/1.1/DTD/svg11.dtd">
<!-- Generated by graphviz version 2.38.0 (20140413.2041)
 -->
<!-- Title: include/BetterNearestNeighbourCostFunction.h Pages: 1 -->
<svg width="314pt" height="162pt"
 viewBox="0.00 0.00 313.50 162.00" xmlns="http://www.w3.org/2000/svg" xmlns:xlink="http://www.w3.org/1999/xlink">
<g id="graph0" class="graph" transform="scale(1 1) rotate(0) translate(4 158)">
<title>include/BetterNearestNeighbourCostFunction.h</title>
<polygon fill="white" stroke="none" points="-4,4 -4,-158 309.5,-158 309.5,4 -4,4"/>
<!-- Node1 -->
<g id="node1" class="node"><title>Node1</title>
<polygon fill="#bfbfbf" stroke="black" points="72.5,-123.5 72.5,-153.5 227.5,-153.5 227.5,-123.5 72.5,-123.5"/>
<text text-anchor="start" x="80.5" y="-141.5" font-family="Helvetica,sans-Serif" font-size="10.00">include/BetterNearestNeighbour</text>
<text text-anchor="middle" x="150" y="-130.5" font-family="Helvetica,sans-Serif" font-size="10.00">CostFunction.h</text>
</g>
<!-- Node2 -->
<g id="node2" class="node"><title>Node2</title>
<g id="a_node2"><a xlink:href="_better_nearest_neighbour_cost_function_8cpp.html" target="_top" xlink:title="src/BetterNearestNeighbour\lCostFunction.cpp">
<polygon fill="white" stroke="black" points="0,-56.5 0,-86.5 138,-86.5 138,-56.5 0,-56.5"/>
<text text-anchor="start" x="8" y="-74.5" font-family="Helvetica,sans-Serif" font-size="10.00">src/BetterNearestNeighbour</text>
<text text-anchor="middle" x="69" y="-63.5" font-family="Helvetica,sans-Serif" font-size="10.00">CostFunction.cpp</text>
</a>
</g>
</g>
<!-- Node1&#45;&gt;Node2 -->
<g id="edge1" class="edge"><title>Node1&#45;&gt;Node2</title>
<path fill="none" stroke="midnightblue" d="M124.308,-116.883C111.999,-107.005 97.5734,-95.4293 86.5415,-86.5765"/>
<polygon fill="midnightblue" stroke="midnightblue" points="122.434,-119.867 132.424,-123.396 126.815,-114.407 122.434,-119.867"/>
</g>
<!-- Node3 -->
<g id="node3" class="node"><title>Node3</title>
<g id="a_node3"><a xlink:href="_cost_function_creator_8h.html" target="_top" xlink:title="include/CostFunctionCreator.h">
<polygon fill="white" stroke="black" points="156.5,-62 156.5,-81 305.5,-81 305.5,-62 156.5,-62"/>
<text text-anchor="middle" x="231" y="-69" font-family="Helvetica,sans-Serif" font-size="10.00">include/CostFunctionCreator.h</text>
</a>
</g>
</g>
<!-- Node1&#45;&gt;Node3 -->
<g id="edge2" class="edge"><title>Node1&#45;&gt;Node3</title>
<path fill="none" stroke="midnightblue" d="M175.536,-117.008C190.573,-104.941 208.813,-90.3046 220.165,-81.1945"/>
<polygon fill="midnightblue" stroke="midnightblue" points="173.185,-114.407 167.576,-123.396 177.566,-119.867 173.185,-114.407"/>
</g>
<!-- Node4 -->
<g id="node4" class="node"><title>Node4</title>
<g id="a_node4"><a xlink:href="_simulator_8cpp.html" target="_top" xlink:title="src/Simulator.cpp">
<polygon fill="white" stroke="black" points="184.5,-0.5 184.5,-19.5 277.5,-19.5 277.5,-0.5 184.5,-0.5"/>
<text text-anchor="middle" x="231" y="-7.5" font-family="Helvetica,sans-Serif" font-size="10.00">src/Simulator.cpp</text>
</a>
</g>
</g>
<!-- Node3&#45;&gt;Node4 -->
<g id="edge3" class="edge"><title>Node3&#45;&gt;Node4</title>
<path fill="none" stroke="midnightblue" d="M231,-51.8165C231,-40.9962 231,-27.898 231,-19.5091"/>
<polygon fill="midnightblue" stroke="midnightblue" points="227.5,-51.9751 231,-61.9751 234.5,-51.9751 227.5,-51.9751"/>
</g>
</g>
</svg>
