<?xml version="1.0" encoding="UTF-8" standalone="no"?>
<!DOCTYPE svg PUBLIC "-//W3C//DTD SVG 1.1//EN"
 "http://www.w3.org/Graphics/SVG/1.1/DTD/svg11.dtd">
<!-- Generated by graphviz version 2.38.0 (20140413.2041)
 -->
<!-- Title: include/BetterNearestNeighbourCostFunction.h Pages: 1 -->
<svg width="348pt" height="162pt"
 viewBox="0.00 0.00 348.00 162.00" xmlns="http://www.w3.org/2000/svg" xmlns:xlink="http://www.w3.org/1999/xlink">
<g id="graph0" class="graph" transform="scale(1 1) rotate(0) translate(4 158)">
<title>include/BetterNearestNeighbourCostFunction.h</title>
<polygon fill="white" stroke="none" points="-4,4 -4,-158 344,-158 344,4 -4,4"/>
<!-- Node1 -->
<g id="node1" class="node"><title>Node1</title>
<polygon fill="#bfbfbf" stroke="black" points="78.5,-123.5 78.5,-153.5 252.5,-153.5 252.5,-123.5 78.5,-123.5"/>
<text text-anchor="start" x="86.5" y="-141.5" font-family="Ubuntu Mono" font-size="10.00">include/BetterNearestNeighbour</text>
<text text-anchor="middle" x="165.5" y="-130.5" font-family="Ubuntu Mono" font-size="10.00">CostFunction.h</text>
</g>
<!-- Node2 -->
<g id="node2" class="node"><title>Node2</title>
<g id="a_node2"><a xlink:href="_better_nearest_neighbour_cost_function_8cpp.html" target="_top" xlink:title="src/BetterNearestNeighbour\lCostFunction.cpp">
<polygon fill="white" stroke="black" points="0,-56.5 0,-86.5 153,-86.5 153,-56.5 0,-56.5"/>
<text text-anchor="start" x="8" y="-74.5" font-family="Ubuntu Mono" font-size="10.00">src/BetterNearestNeighbour</text>
<text text-anchor="middle" x="76.5" y="-63.5" font-family="Ubuntu Mono" font-size="10.00">CostFunction.cpp</text>
</a>
</g>
</g>
<!-- Node1&#45;&gt;Node2 -->
<g id="edge1" class="edge"><title>Node1&#45;&gt;Node2</title>
<path fill="none" stroke="midnightblue" d="M138.048,-117.451C124.357,-107.452 108.129,-95.5995 95.774,-86.5765"/>
<polygon fill="midnightblue" stroke="midnightblue" points="136.048,-120.324 146.188,-123.396 140.177,-114.672 136.048,-120.324"/>
</g>
<!-- Node3 -->
<g id="node3" class="node"><title>Node3</title>
<g id="a_node3"><a xlink:href="_cost_function_creator_8h.html" target="_top" xlink:title="include/CostFunctionCreator.h">
<polygon fill="white" stroke="black" points="171,-62 171,-81 340,-81 340,-62 171,-62"/>
<text text-anchor="middle" x="255.5" y="-69" font-family="Ubuntu Mono" font-size="10.00">include/CostFunctionCreator.h</text>
</a>
</g>
</g>
<!-- Node1&#45;&gt;Node3 -->
<g id="edge2" class="edge"><title>Node1&#45;&gt;Node3</title>
<path fill="none" stroke="midnightblue" d="M193.461,-117.306C210.362,-105.1 231.024,-90.1772 243.721,-81.007"/>
<polygon fill="midnightblue" stroke="midnightblue" points="191.086,-114.704 185.029,-123.396 195.185,-120.378 191.086,-114.704"/>
</g>
<!-- Node4 -->
<g id="node4" class="node"><title>Node4</title>
<g id="a_node4"><a xlink:href="_simulator_8cpp.html" target="_top" xlink:title="src/Simulator.cpp">
<polygon fill="white" stroke="black" points="202.5,-0.5 202.5,-19.5 308.5,-19.5 308.5,-0.5 202.5,-0.5"/>
<text text-anchor="middle" x="255.5" y="-7.5" font-family="Ubuntu Mono" font-size="10.00">src/Simulator.cpp</text>
</a>
</g>
</g>
<!-- Node3&#45;&gt;Node4 -->
<g id="edge3" class="edge"><title>Node3&#45;&gt;Node4</title>
<path fill="none" stroke="midnightblue" d="M255.5,-51.8165C255.5,-40.9962 255.5,-27.898 255.5,-19.5091"/>
<polygon fill="midnightblue" stroke="midnightblue" points="252,-51.9751 255.5,-61.9751 259,-51.9751 252,-51.9751"/>
</g>
</g>
</svg>
