<?xml version="1.0" encoding="UTF-8" standalone="no"?>
<!DOCTYPE svg PUBLIC "-//W3C//DTD SVG 1.1//EN"
 "http://www.w3.org/Graphics/SVG/1.1/DTD/svg11.dtd">
<!-- Generated by graphviz version 2.38.0 (20140413.2041)
 -->
<!-- Title: src/Building.cpp Pages: 1 -->
<svg width="1669pt" height="252pt"
 viewBox="0.00 0.00 1669.00 252.00" xmlns="http://www.w3.org/2000/svg" xmlns:xlink="http://www.w3.org/1999/xlink">
<g id="graph0" class="graph" transform="scale(1 1) rotate(0) translate(4 248)">
<title>src/Building.cpp</title>
<polygon fill="white" stroke="none" points="-4,4 -4,-248 1665,-248 1665,4 -4,4"/>
<!-- Node1 -->
<g id="node1" class="node"><title>Node1</title>
<polygon fill="#bfbfbf" stroke="black" points="941,-224.5 941,-243.5 1042,-243.5 1042,-224.5 941,-224.5"/>
<text text-anchor="middle" x="991.5" y="-231.5" font-family="Ubuntu Mono" font-size="10.00">src/Building.cpp</text>
</g>
<!-- Node2 -->
<g id="node2" class="node"><title>Node2</title>
<g id="a_node2"><a xlink:href="_building_8h.html" target="_top" xlink:title="Building.h">
<polygon fill="white" stroke="black" points="1002,-168.5 1002,-187.5 1071,-187.5 1071,-168.5 1002,-168.5"/>
<text text-anchor="middle" x="1036.5" y="-175.5" font-family="Ubuntu Mono" font-size="10.00">Building.h</text>
</a>
</g>
</g>
<!-- Node1&#45;&gt;Node2 -->
<g id="edge1" class="edge"><title>Node1&#45;&gt;Node2</title>
<path fill="none" stroke="midnightblue" d="M998.931,-224.083C1005.35,-216.377 1014.81,-205.033 1022.62,-195.653"/>
<polygon fill="midnightblue" stroke="midnightblue" points="1025.49,-197.674 1029.21,-187.751 1020.12,-193.193 1025.49,-197.674"/>
</g>
<!-- Node9 -->
<g id="node9" class="node"><title>Node9</title>
<g id="a_node9"><a xlink:href="_client_8h.html" target="_top" xlink:title="Client.h">
<polygon fill="white" stroke="black" points="197,-168.5 197,-187.5 256,-187.5 256,-168.5 197,-168.5"/>
<text text-anchor="middle" x="226.5" y="-175.5" font-family="Ubuntu Mono" font-size="10.00">Client.h</text>
</a>
</g>
</g>
<!-- Node1&#45;&gt;Node9 -->
<g id="edge9" class="edge"><title>Node1&#45;&gt;Node9</title>
<path fill="none" stroke="midnightblue" d="M940.594,-232.722C823.256,-231.464 524.71,-224.733 266.168,-187.828"/>
<polygon fill="midnightblue" stroke="midnightblue" points="266.613,-184.356 256.215,-186.389 265.611,-191.284 266.613,-184.356"/>
</g>
<!-- Node10 -->
<g id="node10" class="node"><title>Node10</title>
<polygon fill="white" stroke="#bfbfbf" points="109.5,-112.5 109.5,-131.5 199.5,-131.5 199.5,-112.5 109.5,-112.5"/>
<text text-anchor="middle" x="154.5" y="-119.5" font-family="Ubuntu Mono" font-size="10.00">glog/logging.h</text>
</g>
<!-- Node1&#45;&gt;Node10 -->
<g id="edge67" class="edge"><title>Node1&#45;&gt;Node10</title>
<path fill="none" stroke="midnightblue" d="M940.789,-233.068C774.135,-232.895 250.381,-229.06 187.5,-188 171.469,-177.532 162.861,-156.737 158.501,-141.476"/>
<polygon fill="midnightblue" stroke="midnightblue" points="161.846,-140.425 156.031,-131.569 155.054,-142.118 161.846,-140.425"/>
</g>
<!-- Node11 -->
<g id="node11" class="node"><title>Node11</title>
<g id="a_node11"><a xlink:href="_client_arrival_8h.html" target="_top" xlink:title="ClientArrival.h">
<polygon fill="white" stroke="black" points="36,-168.5 36,-187.5 131,-187.5 131,-168.5 36,-168.5"/>
<text text-anchor="middle" x="83.5" y="-175.5" font-family="Ubuntu Mono" font-size="10.00">ClientArrival.h</text>
</a>
</g>
</g>
<!-- Node1&#45;&gt;Node11 -->
<g id="edge12" class="edge"><title>Node1&#45;&gt;Node11</title>
<path fill="none" stroke="midnightblue" d="M940.551,-231.776C809.121,-228.295 447.95,-216.672 148.5,-188 146.108,-187.771 143.669,-187.519 141.206,-187.248"/>
<polygon fill="midnightblue" stroke="midnightblue" points="141.355,-183.742 131.015,-186.049 140.538,-190.694 141.355,-183.742"/>
</g>
<!-- Node15 -->
<g id="node15" class="node"><title>Node15</title>
<g id="a_node15"><a xlink:href="_clock_8h.html" target="_top" xlink:title="Clock.h">
<polygon fill="white" stroke="black" points="817,-168.5 817,-187.5 870,-187.5 870,-168.5 817,-168.5"/>
<text text-anchor="middle" x="843.5" y="-175.5" font-family="Ubuntu Mono" font-size="10.00">Clock.h</text>
</a>
</g>
</g>
<!-- Node1&#45;&gt;Node15 -->
<g id="edge20" class="edge"><title>Node1&#45;&gt;Node15</title>
<path fill="none" stroke="midnightblue" d="M968.049,-224.444C943.367,-215.438 904.315,-201.189 876.523,-191.049"/>
<polygon fill="midnightblue" stroke="midnightblue" points="877.435,-187.656 866.841,-187.516 875.036,-194.232 877.435,-187.656"/>
</g>
<!-- Node16 -->
<g id="node16" class="node"><title>Node16</title>
<g id="a_node16"><a xlink:href="_cost_function_8h.html" target="_top" xlink:title="CostFunction.h">
<polygon fill="white" stroke="black" points="397.5,-112.5 397.5,-131.5 487.5,-131.5 487.5,-112.5 397.5,-112.5"/>
<text text-anchor="middle" x="442.5" y="-119.5" font-family="Ubuntu Mono" font-size="10.00">CostFunction.h</text>
</a>
</g>
</g>
<!-- Node1&#45;&gt;Node16 -->
<g id="edge24" class="edge"><title>Node1&#45;&gt;Node16</title>
<path fill="none" stroke="midnightblue" d="M940.683,-233.37C829.931,-233.388 570.623,-228.914 494.5,-188 474.869,-177.449 460.019,-156.021 451.314,-140.65"/>
<polygon fill="midnightblue" stroke="midnightblue" points="454.283,-138.78 446.492,-131.6 448.105,-142.071 454.283,-138.78"/>
</g>
<!-- Node17 -->
<g id="node17" class="node"><title>Node17</title>
<g id="a_node17"><a xlink:href="_direction_8h.html" target="_top" xlink:title="Direction.h">
<polygon fill="white" stroke="black" points="1107.5,-56.5 1107.5,-75.5 1181.5,-75.5 1181.5,-56.5 1107.5,-56.5"/>
<text text-anchor="middle" x="1144.5" y="-63.5" font-family="Ubuntu Mono" font-size="10.00">Direction.h</text>
</a>
</g>
</g>
<!-- Node1&#45;&gt;Node17 -->
<g id="edge26" class="edge"><title>Node1&#45;&gt;Node17</title>
<path fill="none" stroke="midnightblue" d="M1042.32,-233.399C1128.49,-232.977 1298.08,-227.045 1340.5,-188 1365.66,-164.842 1373.97,-138.614 1352.5,-112 1349.94,-108.832 1252.26,-88.6849 1191.68,-76.4476"/>
<polygon fill="midnightblue" stroke="midnightblue" points="1192.06,-72.9538 1181.57,-74.4081 1190.68,-79.8157 1192.06,-72.9538"/>
</g>
<!-- Node18 -->
<g id="node18" class="node"><title>Node18</title>
<g id="a_node18"><a xlink:href="_scheduler_8h.html" target="_top" xlink:title="Scheduler.h">
<polygon fill="white" stroke="black" points="909.5,-168.5 909.5,-187.5 983.5,-187.5 983.5,-168.5 909.5,-168.5"/>
<text text-anchor="middle" x="946.5" y="-175.5" font-family="Ubuntu Mono" font-size="10.00">Scheduler.h</text>
</a>
</g>
</g>
<!-- Node1&#45;&gt;Node18 -->
<g id="edge29" class="edge"><title>Node1&#45;&gt;Node18</title>
<path fill="none" stroke="midnightblue" d="M984.069,-224.083C977.647,-216.377 968.194,-205.033 960.378,-195.653"/>
<polygon fill="midnightblue" stroke="midnightblue" points="962.883,-193.193 953.793,-187.751 957.506,-197.674 962.883,-193.193"/>
</g>
<!-- Node19 -->
<g id="node19" class="node"><title>Node19</title>
<g id="a_node19"><a xlink:href="_elevator_8h.html" target="_top" xlink:title="Elevator.h">
<polygon fill="white" stroke="black" points="1089,-168.5 1089,-187.5 1158,-187.5 1158,-168.5 1089,-168.5"/>
<text text-anchor="middle" x="1123.5" y="-175.5" font-family="Ubuntu Mono" font-size="10.00">Elevator.h</text>
</a>
</g>
</g>
<!-- Node1&#45;&gt;Node19 -->
<g id="edge32" class="edge"><title>Node1&#45;&gt;Node19</title>
<path fill="none" stroke="midnightblue" d="M1012.42,-224.444C1034.24,-215.517 1068.65,-201.439 1093.39,-191.317"/>
<polygon fill="midnightblue" stroke="midnightblue" points="1094.75,-194.542 1102.68,-187.516 1092.1,-188.063 1094.75,-194.542"/>
</g>
<!-- Node21 -->
<g id="node21" class="node"><title>Node21</title>
<g id="a_node21"><a xlink:href="_event_factory_8h.html" target="_top" xlink:title="EventFactory.h">
<polygon fill="white" stroke="black" points="274.5,-168.5 274.5,-187.5 364.5,-187.5 364.5,-168.5 274.5,-168.5"/>
<text text-anchor="middle" x="319.5" y="-175.5" font-family="Ubuntu Mono" font-size="10.00">EventFactory.h</text>
</a>
</g>
</g>
<!-- Node1&#45;&gt;Node21 -->
<g id="edge37" class="edge"><title>Node1&#45;&gt;Node21</title>
<path fill="none" stroke="midnightblue" d="M940.991,-228.941C817.806,-219.042 502.685,-193.72 374.74,-183.439"/>
<polygon fill="midnightblue" stroke="midnightblue" points="375.013,-179.95 364.764,-182.637 374.452,-186.927 375.013,-179.95"/>
</g>
<!-- Node23 -->
<g id="node23" class="node"><title>Node23</title>
<g id="a_node23"><a xlink:href="_floor_8h.html" target="_top" xlink:title="Floor.h">
<polygon fill="white" stroke="black" points="1279,-168.5 1279,-187.5 1332,-187.5 1332,-168.5 1279,-168.5"/>
<text text-anchor="middle" x="1305.5" y="-175.5" font-family="Ubuntu Mono" font-size="10.00">Floor.h</text>
</a>
</g>
</g>
<!-- Node1&#45;&gt;Node23 -->
<g id="edge42" class="edge"><title>Node1&#45;&gt;Node23</title>
<path fill="none" stroke="midnightblue" d="M1042.21,-226.105C1096.04,-218.492 1183.79,-205.247 1268.98,-187.954"/>
<polygon fill="midnightblue" stroke="midnightblue" points="1269.73,-191.374 1278.82,-185.936 1268.32,-184.517 1269.73,-191.374"/>
</g>
<!-- Node24 -->
<g id="node24" class="node"><title>Node24</title>
<g id="a_node24"><a xlink:href="_simulator_8h.html" target="_top" xlink:title="Simulator.h">
<polygon fill="white" stroke="black" points="503.5,-168.5 503.5,-187.5 577.5,-187.5 577.5,-168.5 503.5,-168.5"/>
<text text-anchor="middle" x="540.5" y="-175.5" font-family="Ubuntu Mono" font-size="10.00">Simulator.h</text>
</a>
</g>
</g>
<!-- Node1&#45;&gt;Node24 -->
<g id="edge46" class="edge"><title>Node1&#45;&gt;Node24</title>
<path fill="none" stroke="midnightblue" d="M940.641,-226.91C852.626,-216.372 673.152,-194.883 587.727,-184.655"/>
<polygon fill="midnightblue" stroke="midnightblue" points="587.887,-181.149 577.542,-183.435 587.055,-188.099 587.887,-181.149"/>
</g>
<!-- Node26 -->
<g id="node26" class="node"><title>Node26</title>
<g id="a_node26"><a xlink:href="_statistics_8h.html" target="_top" xlink:title="Statistics.h">
<polygon fill="white" stroke="black" points="669.5,-168.5 669.5,-187.5 749.5,-187.5 749.5,-168.5 669.5,-168.5"/>
<text text-anchor="middle" x="709.5" y="-175.5" font-family="Ubuntu Mono" font-size="10.00">Statistics.h</text>
</a>
</g>
</g>
<!-- Node1&#45;&gt;Node26 -->
<g id="edge50" class="edge"><title>Node1&#45;&gt;Node26</title>
<path fill="none" stroke="midnightblue" d="M946.816,-224.444C895.896,-214.693 812.875,-198.795 759.746,-188.622"/>
<polygon fill="midnightblue" stroke="midnightblue" points="760.343,-185.172 749.863,-186.729 759.026,-192.047 760.343,-185.172"/>
</g>
<!-- Node28 -->
<g id="node28" class="node"><title>Node28</title>
<g id="a_node28"><a xlink:href="_status_8h.html" target="_top" xlink:title="Status.h">
<polygon fill="white" stroke="black" points="1200,-56.5 1200,-75.5 1259,-75.5 1259,-56.5 1200,-56.5"/>
<text text-anchor="middle" x="1229.5" y="-63.5" font-family="Ubuntu Mono" font-size="10.00">Status.h</text>
</a>
</g>
</g>
<!-- Node1&#45;&gt;Node28 -->
<g id="edge57" class="edge"><title>Node1&#45;&gt;Node28</title>
<path fill="none" stroke="midnightblue" d="M1042.02,-230.231C1138.33,-224.474 1340.73,-209.899 1363.5,-188 1388.02,-164.422 1392.62,-139.425 1372.5,-112 1349.09,-80.0938 1303.05,-70.2138 1269.51,-67.4509"/>
<polygon fill="midnightblue" stroke="midnightblue" points="1269.31,-63.931 1259.11,-66.7851 1268.86,-70.9167 1269.31,-63.931"/>
</g>
<!-- Node29 -->
<g id="node29" class="node"><title>Node29</title>
<g id="a_node29"><a xlink:href="_stop_manager_8h.html" target="_top" xlink:title="StopManager.h">
<polygon fill="white" stroke="black" points="1176,-168.5 1176,-187.5 1261,-187.5 1261,-168.5 1176,-168.5"/>
<text text-anchor="middle" x="1218.5" y="-175.5" font-family="Ubuntu Mono" font-size="10.00">StopManager.h</text>
</a>
</g>
</g>
<!-- Node1&#45;&gt;Node29 -->
<g id="edge60" class="edge"><title>Node1&#45;&gt;Node29</title>
<path fill="none" stroke="midnightblue" d="M1027.47,-224.444C1066.82,-215.083 1129.99,-200.056 1172.81,-189.868"/>
<polygon fill="midnightblue" stroke="midnightblue" points="1173.78,-193.236 1182.7,-187.516 1172.16,-186.426 1173.78,-193.236"/>
</g>
<!-- Node30 -->
<g id="node30" class="node"><title>Node30</title>
<g id="a_node30"><a xlink:href="_trip_8h.html" target="_top" xlink:title="Trip.h">
<polygon fill="white" stroke="black" points="1459.5,-168.5 1459.5,-187.5 1507.5,-187.5 1507.5,-168.5 1459.5,-168.5"/>
<text text-anchor="middle" x="1483.5" y="-175.5" font-family="Ubuntu Mono" font-size="10.00">Trip.h</text>
</a>
</g>
</g>
<!-- Node1&#45;&gt;Node30 -->
<g id="edge64" class="edge"><title>Node1&#45;&gt;Node30</title>
<path fill="none" stroke="midnightblue" d="M1042.18,-230.196C1126.37,-225.042 1300.19,-212.296 1445.5,-188 1446.78,-187.786 1448.08,-187.554 1449.39,-187.308"/>
<polygon fill="midnightblue" stroke="midnightblue" points="1450.4,-190.672 1459.48,-185.202 1448.97,-183.819 1450.4,-190.672"/>
</g>
<!-- Node32 -->
<g id="node32" class="node"><title>Node32</title>
<polygon fill="white" stroke="#bfbfbf" points="1525.5,-168.5 1525.5,-187.5 1589.5,-187.5 1589.5,-168.5 1525.5,-168.5"/>
<text text-anchor="middle" x="1557.5" y="-175.5" font-family="Ubuntu Mono" font-size="10.00">algorithm</text>
</g>
<!-- Node1&#45;&gt;Node32 -->
<g id="edge66" class="edge"><title>Node1&#45;&gt;Node32</title>
<path fill="none" stroke="midnightblue" d="M1042.07,-230.864C1134.25,-226.493 1335.87,-214.73 1515.2,-188.006"/>
<polygon fill="midnightblue" stroke="midnightblue" points="1515.98,-191.428 1525.35,-186.474 1514.93,-184.506 1515.98,-191.428"/>
</g>
<!-- Node33 -->
<g id="node33" class="node"><title>Node33</title>
<polygon fill="white" stroke="#bfbfbf" points="1608,-168.5 1608,-187.5 1661,-187.5 1661,-168.5 1608,-168.5"/>
<text text-anchor="middle" x="1634.5" y="-175.5" font-family="Ubuntu Mono" font-size="10.00">sstream</text>
</g>
<!-- Node1&#45;&gt;Node33 -->
<g id="edge68" class="edge"><title>Node1&#45;&gt;Node33</title>
<path fill="none" stroke="midnightblue" d="M1042.2,-232.164C1145.2,-229.834 1386.32,-221.169 1597.82,-187.804"/>
<polygon fill="midnightblue" stroke="midnightblue" points="1598.55,-191.233 1607.87,-186.197 1597.44,-184.321 1598.55,-191.233"/>
</g>
<!-- Node3 -->
<g id="node3" class="node"><title>Node3</title>
<g id="a_node3"><a xlink:href="_event_observer_8h.html" target="_top" xlink:title="EventObserver.h">
<polygon fill="white" stroke="black" points="776,-112.5 776,-131.5 871,-131.5 871,-112.5 776,-112.5"/>
<text text-anchor="middle" x="823.5" y="-119.5" font-family="Ubuntu Mono" font-size="10.00">EventObserver.h</text>
</a>
</g>
</g>
<!-- Node2&#45;&gt;Node3 -->
<g id="edge2" class="edge"><title>Node2&#45;&gt;Node3</title>
<path fill="none" stroke="midnightblue" d="M1002.75,-168.444C965.982,-159.122 907.054,-144.183 866.878,-133.997"/>
<polygon fill="midnightblue" stroke="midnightblue" points="867.646,-130.581 857.093,-131.516 865.926,-137.367 867.646,-130.581"/>
</g>
<!-- Node4 -->
<g id="node4" class="node"><title>Node4</title>
<polygon fill="white" stroke="#bfbfbf" points="723.5,-56.5 723.5,-75.5 771.5,-75.5 771.5,-56.5 723.5,-56.5"/>
<text text-anchor="middle" x="747.5" y="-63.5" font-family="Ubuntu Mono" font-size="10.00">memory</text>
</g>
<!-- Node2&#45;&gt;Node4 -->
<g id="edge5" class="edge"><title>Node2&#45;&gt;Node4</title>
<path fill="none" stroke="midnightblue" d="M1037.42,-168.397C1038.4,-154.406 1038.06,-126.798 1022.5,-112 988.466,-79.6251 847.83,-70.4733 781.901,-67.9412"/>
<polygon fill="midnightblue" stroke="midnightblue" points="781.734,-64.4332 771.616,-67.577 781.486,-71.4288 781.734,-64.4332"/>
</g>
<!-- Node5 -->
<g id="node5" class="node"><title>Node5</title>
<polygon fill="white" stroke="#bfbfbf" points="1107.5,-112.5 1107.5,-131.5 1139.5,-131.5 1139.5,-112.5 1107.5,-112.5"/>
<text text-anchor="middle" x="1123.5" y="-119.5" font-family="Ubuntu Mono" font-size="10.00">map</text>
</g>
<!-- Node2&#45;&gt;Node5 -->
<g id="edge4" class="edge"><title>Node2&#45;&gt;Node5</title>
<path fill="none" stroke="midnightblue" d="M1050.48,-168.324C1064.05,-159.9 1084.88,-146.971 1100.82,-137.074"/>
<polygon fill="midnightblue" stroke="midnightblue" points="1102.91,-139.902 1109.56,-131.655 1099.21,-133.954 1102.91,-139.902"/>
</g>
<!-- Node6 -->
<g id="node6" class="node"><title>Node6</title>
<polygon fill="white" stroke="#bfbfbf" points="1195.5,-112.5 1195.5,-131.5 1227.5,-131.5 1227.5,-112.5 1195.5,-112.5"/>
<text text-anchor="middle" x="1211.5" y="-119.5" font-family="Ubuntu Mono" font-size="10.00">set</text>
</g>
<!-- Node2&#45;&gt;Node6 -->
<g id="edge6" class="edge"><title>Node2&#45;&gt;Node6</title>
<path fill="none" stroke="midnightblue" d="M1064.23,-168.444C1097.62,-158.139 1153.27,-140.969 1185.75,-130.945"/>
<polygon fill="midnightblue" stroke="midnightblue" points="1186.9,-134.252 1195.43,-127.959 1184.84,-127.564 1186.9,-134.252"/>
</g>
<!-- Node7 -->
<g id="node7" class="node"><title>Node7</title>
<polygon fill="white" stroke="#bfbfbf" points="733.5,-0.5 733.5,-19.5 781.5,-19.5 781.5,-0.5 733.5,-0.5"/>
<text text-anchor="middle" x="757.5" y="-7.5" font-family="Ubuntu Mono" font-size="10.00">string</text>
</g>
<!-- Node2&#45;&gt;Node7 -->
<g id="edge7" class="edge"><title>Node2&#45;&gt;Node7</title>
<path fill="none" stroke="midnightblue" d="M1040.7,-168.069C1046.35,-154.592 1054.4,-128.845 1042.5,-112 984.514,-29.9307 853.892,-14.124 791.684,-11.3715"/>
<polygon fill="midnightblue" stroke="midnightblue" points="791.72,-7.87067 781.602,-11.0146 791.472,-14.8663 791.72,-7.87067"/>
</g>
<!-- Node8 -->
<g id="node8" class="node"><title>Node8</title>
<polygon fill="white" stroke="#bfbfbf" points="965.5,-112.5 965.5,-131.5 1013.5,-131.5 1013.5,-112.5 965.5,-112.5"/>
<text text-anchor="middle" x="989.5" y="-119.5" font-family="Ubuntu Mono" font-size="10.00">vector</text>
</g>
<!-- Node2&#45;&gt;Node8 -->
<g id="edge8" class="edge"><title>Node2&#45;&gt;Node8</title>
<path fill="none" stroke="midnightblue" d="M1028.74,-168.083C1021.96,-160.298 1011.96,-148.801 1003.74,-139.367"/>
<polygon fill="midnightblue" stroke="midnightblue" points="1006.32,-136.996 997.117,-131.751 1001.04,-141.592 1006.32,-136.996"/>
</g>
<!-- Node3&#45;&gt;Node4 -->
<g id="edge3" class="edge"><title>Node3&#45;&gt;Node4</title>
<path fill="none" stroke="midnightblue" d="M811.289,-112.324C799.724,-104.107 782.125,-91.6017 768.339,-81.8069"/>
<polygon fill="midnightblue" stroke="midnightblue" points="770.112,-78.7729 759.933,-75.8339 766.057,-84.4791 770.112,-78.7729"/>
</g>
<!-- Node9&#45;&gt;Node4 -->
<g id="edge11" class="edge"><title>Node9&#45;&gt;Node4</title>
<path fill="none" stroke="midnightblue" d="M234.319,-168.404C248.099,-153.896 278.314,-124.877 310.5,-112 347.613,-97.1513 617,-76.4445 713.349,-69.4318"/>
<polygon fill="midnightblue" stroke="midnightblue" points="713.713,-72.9148 723.434,-68.7019 713.207,-65.933 713.713,-72.9148"/>
</g>
<!-- Node9&#45;&gt;Node10 -->
<g id="edge10" class="edge"><title>Node9&#45;&gt;Node10</title>
<path fill="none" stroke="midnightblue" d="M214.932,-168.324C204.08,-160.185 187.619,-147.839 174.617,-138.087"/>
<polygon fill="midnightblue" stroke="midnightblue" points="176.379,-135.034 166.279,-131.834 172.179,-140.634 176.379,-135.034"/>
</g>
<!-- Node11&#45;&gt;Node4 -->
<g id="edge19" class="edge"><title>Node11&#45;&gt;Node4</title>
<path fill="none" stroke="midnightblue" d="M82.8717,-168.184C82.3919,-153.886 83.798,-125.847 100.5,-112 106.46,-107.058 580.179,-77.3657 713.142,-69.1217"/>
<polygon fill="midnightblue" stroke="midnightblue" points="713.415,-72.6116 723.179,-68.5 712.982,-65.625 713.415,-72.6116"/>
</g>
<!-- Node11&#45;&gt;Node10 -->
<g id="edge18" class="edge"><title>Node11&#45;&gt;Node10</title>
<path fill="none" stroke="midnightblue" d="M94.9074,-168.324C105.609,-160.185 121.841,-147.839 134.663,-138.087"/>
<polygon fill="midnightblue" stroke="midnightblue" points="137.044,-140.673 142.885,-131.834 132.807,-135.102 137.044,-140.673"/>
</g>
<!-- Node12 -->
<g id="node12" class="node"><title>Node12</title>
<g id="a_node12"><a xlink:href="_event_8h.html" target="_top" xlink:title="Event.h">
<polygon fill="white" stroke="black" points="0,-112.5 0,-131.5 53,-131.5 53,-112.5 0,-112.5"/>
<text text-anchor="middle" x="26.5" y="-119.5" font-family="Ubuntu Mono" font-size="10.00">Event.h</text>
</a>
</g>
</g>
<!-- Node11&#45;&gt;Node12 -->
<g id="edge13" class="edge"><title>Node11&#45;&gt;Node12</title>
<path fill="none" stroke="midnightblue" d="M74.342,-168.324C65.9985,-160.42 53.4676,-148.548 43.3231,-138.938"/>
<polygon fill="midnightblue" stroke="midnightblue" points="45.4913,-136.171 35.8247,-131.834 40.6771,-141.252 45.4913,-136.171"/>
</g>
<!-- Node12&#45;&gt;Node7 -->
<g id="edge17" class="edge"><title>Node12&#45;&gt;Node7</title>
<path fill="none" stroke="midnightblue" d="M50.4372,-112.427C91.1556,-98.221 176.763,-69.9836 251.5,-56 426.942,-23.1741 641.224,-14.1256 723.293,-11.7753"/>
<polygon fill="midnightblue" stroke="midnightblue" points="723.407,-15.2736 733.308,-11.5034 723.217,-8.27614 723.407,-15.2736"/>
</g>
<!-- Node13 -->
<g id="node13" class="node"><title>Node13</title>
<g id="a_node13"><a xlink:href="_event_type_8h.html" target="_top" xlink:title="EventType.h">
<polygon fill="white" stroke="black" points="513.5,-56.5 513.5,-75.5 587.5,-75.5 587.5,-56.5 513.5,-56.5"/>
<text text-anchor="middle" x="550.5" y="-63.5" font-family="Ubuntu Mono" font-size="10.00">EventType.h</text>
</a>
</g>
</g>
<!-- Node12&#45;&gt;Node13 -->
<g id="edge14" class="edge"><title>Node12&#45;&gt;Node13</title>
<path fill="none" stroke="midnightblue" d="M53.317,-114.617C58.0248,-113.639 62.8915,-112.718 67.5,-112 226.228,-87.2808 416.569,-74.4153 503.292,-69.4626"/>
<polygon fill="midnightblue" stroke="midnightblue" points="503.557,-72.9533 513.345,-68.8976 503.164,-65.9643 503.557,-72.9533"/>
</g>
<!-- Node13&#45;&gt;Node7 -->
<g id="edge16" class="edge"><title>Node13&#45;&gt;Node7</title>
<path fill="none" stroke="midnightblue" d="M583.3,-56.4435C621.601,-46.4518 684.647,-30.0051 723.469,-19.8775"/>
<polygon fill="midnightblue" stroke="midnightblue" points="724.469,-23.2339 733.262,-17.323 722.702,-16.4606 724.469,-23.2339"/>
</g>
<!-- Node14 -->
<g id="node14" class="node"><title>Node14</title>
<polygon fill="white" stroke="#bfbfbf" points="1112.5,-0.5 1112.5,-19.5 1176.5,-19.5 1176.5,-0.5 1112.5,-0.5"/>
<text text-anchor="middle" x="1144.5" y="-7.5" font-family="Ubuntu Mono" font-size="10.00">stdexcept</text>
</g>
<!-- Node13&#45;&gt;Node14 -->
<g id="edge15" class="edge"><title>Node13&#45;&gt;Node14</title>
<path fill="none" stroke="midnightblue" d="M587.657,-61.6221C692.597,-52.0821 990.791,-24.9735 1102,-14.8638"/>
<polygon fill="midnightblue" stroke="midnightblue" points="1102.52,-18.3307 1112.16,-13.9397 1101.89,-11.3595 1102.52,-18.3307"/>
</g>
<!-- Node15&#45;&gt;Node3 -->
<g id="edge21" class="edge"><title>Node15&#45;&gt;Node3</title>
<path fill="none" stroke="midnightblue" d="M840.197,-168.083C837.518,-160.849 833.651,-150.409 830.314,-141.397"/>
<polygon fill="midnightblue" stroke="midnightblue" points="833.496,-139.913 826.741,-131.751 826.932,-142.344 833.496,-139.913"/>
</g>
<!-- Node15&#45;&gt;Node4 -->
<g id="edge22" class="edge"><title>Node15&#45;&gt;Node4</title>
<path fill="none" stroke="midnightblue" d="M819.343,-168.485C802.246,-161.277 780.035,-149.327 766.5,-132 756.106,-118.694 751.394,-99.862 749.261,-85.8908"/>
<polygon fill="midnightblue" stroke="midnightblue" points="752.73,-85.4283 748.043,-75.9268 745.782,-86.2775 752.73,-85.4283"/>
</g>
<!-- Node15&#45;&gt;Node7 -->
<g id="edge23" class="edge"><title>Node15&#45;&gt;Node7</title>
<path fill="none" stroke="midnightblue" d="M854.211,-168.361C868.051,-156.087 889.273,-132.778 879.5,-112 860.069,-70.688 814.526,-40.479 784.914,-24.3481"/>
<polygon fill="midnightblue" stroke="midnightblue" points="786.392,-21.1709 775.913,-19.6093 783.131,-27.3649 786.392,-21.1709"/>
</g>
<!-- Node16&#45;&gt;Node4 -->
<g id="edge25" class="edge"><title>Node16&#45;&gt;Node4</title>
<path fill="none" stroke="midnightblue" d="M487.504,-113.032C548.994,-102.145 657.926,-82.8589 713.231,-73.0673"/>
<polygon fill="midnightblue" stroke="midnightblue" points="713.992,-76.4871 723.228,-71.2973 712.771,-69.5943 713.992,-76.4871"/>
</g>
<!-- Node17&#45;&gt;Node7 -->
<g id="edge28" class="edge"><title>Node17&#45;&gt;Node7</title>
<path fill="none" stroke="midnightblue" d="M1107.48,-58.2815C1102.78,-57.483 1098.03,-56.7029 1093.5,-56 983.497,-38.9351 852.625,-22.5218 791.772,-15.1127"/>
<polygon fill="midnightblue" stroke="midnightblue" points="791.936,-11.6071 781.587,-13.8774 791.093,-18.5562 791.936,-11.6071"/>
</g>
<!-- Node17&#45;&gt;Node14 -->
<g id="edge27" class="edge"><title>Node17&#45;&gt;Node14</title>
<path fill="none" stroke="midnightblue" d="M1144.5,-56.083C1144.5,-49.0059 1144.5,-38.8611 1144.5,-29.9865"/>
<polygon fill="midnightblue" stroke="midnightblue" points="1148,-29.751 1144.5,-19.7511 1141,-29.7511 1148,-29.751"/>
</g>
<!-- Node18&#45;&gt;Node4 -->
<g id="edge30" class="edge"><title>Node18&#45;&gt;Node4</title>
<path fill="none" stroke="midnightblue" d="M939.617,-168.162C928.417,-154.338 904.931,-127.571 879.5,-112 848.923,-93.2783 809.553,-81.1586 781.794,-74.2674"/>
<polygon fill="midnightblue" stroke="midnightblue" points="782.305,-70.7912 771.766,-71.8794 780.683,-77.6008 782.305,-70.7912"/>
</g>
<!-- Node18&#45;&gt;Node8 -->
<g id="edge31" class="edge"><title>Node18&#45;&gt;Node8</title>
<path fill="none" stroke="midnightblue" d="M953.601,-168.083C959.737,-160.377 968.77,-149.033 976.239,-139.653"/>
<polygon fill="midnightblue" stroke="midnightblue" points="979.04,-141.754 982.532,-131.751 973.564,-137.394 979.04,-141.754"/>
</g>
<!-- Node19&#45;&gt;Node4 -->
<g id="edge34" class="edge"><title>Node19&#45;&gt;Node4</title>
<path fill="none" stroke="midnightblue" d="M1131.84,-168.403C1143.93,-154.908 1163.33,-128.585 1148.5,-112 1124.22,-84.8409 874.639,-72.1073 781.927,-68.2878"/>
<polygon fill="midnightblue" stroke="midnightblue" points="781.808,-64.7803 771.676,-67.8757 781.527,-71.7747 781.808,-64.7803"/>
</g>
<!-- Node19&#45;&gt;Node5 -->
<g id="edge33" class="edge"><title>Node19&#45;&gt;Node5</title>
<path fill="none" stroke="midnightblue" d="M1123.5,-168.083C1123.5,-161.006 1123.5,-150.861 1123.5,-141.986"/>
<polygon fill="midnightblue" stroke="midnightblue" points="1127,-141.751 1123.5,-131.751 1120,-141.751 1127,-141.751"/>
</g>
<!-- Node19&#45;&gt;Node8 -->
<g id="edge36" class="edge"><title>Node19&#45;&gt;Node8</title>
<path fill="none" stroke="midnightblue" d="M1102.27,-168.444C1080.12,-159.517 1045.18,-145.439 1020.06,-135.317"/>
<polygon fill="midnightblue" stroke="midnightblue" points="1021.22,-132.008 1010.63,-131.516 1018.6,-138.501 1021.22,-132.008"/>
</g>
<!-- Node20 -->
<g id="node20" class="node"><title>Node20</title>
<polygon fill="white" stroke="#bfbfbf" points="1284,-112.5 1284,-131.5 1327,-131.5 1327,-112.5 1284,-112.5"/>
<text text-anchor="middle" x="1305.5" y="-119.5" font-family="Ubuntu Mono" font-size="10.00">queue</text>
</g>
<!-- Node19&#45;&gt;Node20 -->
<g id="edge35" class="edge"><title>Node19&#45;&gt;Node20</title>
<path fill="none" stroke="midnightblue" d="M1152.34,-168.444C1185.49,-158.606 1239.74,-142.512 1273.98,-132.352"/>
<polygon fill="midnightblue" stroke="midnightblue" points="1275.33,-135.603 1283.92,-129.403 1273.34,-128.892 1275.33,-135.603"/>
</g>
<!-- Node21&#45;&gt;Node4 -->
<g id="edge39" class="edge"><title>Node21&#45;&gt;Node4</title>
<path fill="none" stroke="midnightblue" d="M316.696,-168.057C312.932,-154.088 308.245,-127.128 322.5,-112 335.894,-97.7862 614.815,-76.5083 713.373,-69.4049"/>
<polygon fill="midnightblue" stroke="midnightblue" points="713.682,-72.8918 723.407,-68.6859 713.182,-65.9097 713.682,-72.8918"/>
</g>
<!-- Node21&#45;&gt;Node7 -->
<g id="edge41" class="edge"><title>Node21&#45;&gt;Node7</title>
<path fill="none" stroke="midnightblue" d="M314.775,-168.443C308.062,-155.002 297.9,-128.752 310.5,-112 360.572,-45.4294 627.805,-20.1878 723.435,-13.2041"/>
<polygon fill="midnightblue" stroke="midnightblue" points="723.719,-16.6929 733.446,-12.4944 723.224,-9.7104 723.719,-16.6929"/>
</g>
<!-- Node21&#45;&gt;Node10 -->
<g id="edge38" class="edge"><title>Node21&#45;&gt;Node10</title>
<path fill="none" stroke="midnightblue" d="M293.355,-168.444C265.477,-159.32 221.152,-144.813 190.1,-134.651"/>
<polygon fill="midnightblue" stroke="midnightblue" points="191.115,-131.3 180.522,-131.516 188.938,-137.953 191.115,-131.3"/>
</g>
<!-- Node22 -->
<g id="node22" class="node"><title>Node22</title>
<polygon fill="white" stroke="#bfbfbf" points="331.5,-112.5 331.5,-131.5 379.5,-131.5 379.5,-112.5 331.5,-112.5"/>
<text text-anchor="middle" x="355.5" y="-119.5" font-family="Ubuntu Mono" font-size="10.00">random</text>
</g>
<!-- Node21&#45;&gt;Node22 -->
<g id="edge40" class="edge"><title>Node21&#45;&gt;Node22</title>
<path fill="none" stroke="midnightblue" d="M325.445,-168.083C330.477,-160.534 337.837,-149.495 344.013,-140.23"/>
<polygon fill="midnightblue" stroke="midnightblue" points="347.031,-142.013 349.666,-131.751 341.207,-138.13 347.031,-142.013"/>
</g>
<!-- Node23&#45;&gt;Node4 -->
<g id="edge43" class="edge"><title>Node23&#45;&gt;Node4</title>
<path fill="none" stroke="midnightblue" d="M1314.97,-168.448C1328.74,-155.016 1351.04,-128.776 1335.5,-112 1316.57,-91.5658 904.78,-73.3494 781.848,-68.3509"/>
<polygon fill="midnightblue" stroke="midnightblue" points="781.985,-64.8537 771.852,-67.9478 781.703,-71.848 781.985,-64.8537"/>
</g>
<!-- Node23&#45;&gt;Node6 -->
<g id="edge45" class="edge"><title>Node23&#45;&gt;Node6</title>
<path fill="none" stroke="midnightblue" d="M1290.4,-168.324C1275.6,-159.822 1252.81,-146.729 1235.52,-136.797"/>
<polygon fill="midnightblue" stroke="midnightblue" points="1236.98,-133.601 1226.57,-131.655 1233.49,-139.671 1236.98,-133.601"/>
</g>
<!-- Node23&#45;&gt;Node20 -->
<g id="edge44" class="edge"><title>Node23&#45;&gt;Node20</title>
<path fill="none" stroke="midnightblue" d="M1305.5,-168.083C1305.5,-161.006 1305.5,-150.861 1305.5,-141.986"/>
<polygon fill="midnightblue" stroke="midnightblue" points="1309,-141.751 1305.5,-131.751 1302,-141.751 1309,-141.751"/>
</g>
<!-- Node24&#45;&gt;Node4 -->
<g id="edge48" class="edge"><title>Node24&#45;&gt;Node4</title>
<path fill="none" stroke="midnightblue" d="M536.227,-168.311C530.212,-154.69 521.367,-128.197 534.5,-112 556.593,-84.7522 658.635,-73.3595 713.069,-69.1549"/>
<polygon fill="midnightblue" stroke="midnightblue" points="713.565,-72.6281 723.283,-68.4073 713.054,-65.6467 713.565,-72.6281"/>
</g>
<!-- Node24&#45;&gt;Node22 -->
<g id="edge49" class="edge"><title>Node24&#45;&gt;Node22</title>
<path fill="none" stroke="midnightblue" d="M511.186,-168.444C478.081,-158.78 424.293,-143.08 389.406,-132.897"/>
<polygon fill="midnightblue" stroke="midnightblue" points="390.246,-129.496 379.665,-130.054 388.284,-136.216 390.246,-129.496"/>
</g>
<!-- Node25 -->
<g id="node25" class="node"><title>Node25</title>
<polygon fill="white" stroke="#bfbfbf" points="544,-112.5 544,-131.5 587,-131.5 587,-112.5 544,-112.5"/>
<text text-anchor="middle" x="565.5" y="-119.5" font-family="Ubuntu Mono" font-size="10.00">ctime</text>
</g>
<!-- Node24&#45;&gt;Node25 -->
<g id="edge47" class="edge"><title>Node24&#45;&gt;Node25</title>
<path fill="none" stroke="midnightblue" d="M544.628,-168.083C548.014,-160.77 552.916,-150.181 557.119,-141.103"/>
<polygon fill="midnightblue" stroke="midnightblue" points="560.423,-142.296 561.449,-131.751 554.071,-139.355 560.423,-142.296"/>
</g>
<!-- Node26&#45;&gt;Node3 -->
<g id="edge51" class="edge"><title>Node26&#45;&gt;Node3</title>
<path fill="none" stroke="midnightblue" d="M727.564,-168.444C746.075,-159.675 775.081,-145.935 796.355,-135.858"/>
<polygon fill="midnightblue" stroke="midnightblue" points="797.982,-138.96 805.521,-131.516 794.985,-132.634 797.982,-138.96"/>
</g>
<!-- Node26&#45;&gt;Node4 -->
<g id="edge54" class="edge"><title>Node26&#45;&gt;Node4</title>
<path fill="none" stroke="midnightblue" d="M712.482,-168.368C718.642,-150.537 732.889,-109.295 741.188,-85.2717"/>
<polygon fill="midnightblue" stroke="midnightblue" points="744.575,-86.1862 744.532,-75.5914 737.959,-83.9005 744.575,-86.1862"/>
</g>
<!-- Node26&#45;&gt;Node7 -->
<g id="edge55" class="edge"><title>Node26&#45;&gt;Node7</title>
<path fill="none" stroke="midnightblue" d="M684.149,-168.326C657.865,-157.749 622.201,-138.014 634.5,-112 654.109,-70.526 700.02,-40.3651 729.868,-24.2881"/>
<polygon fill="midnightblue" stroke="midnightblue" points="731.686,-27.2877 738.941,-19.5667 728.455,-21.0782 731.686,-27.2877"/>
</g>
<!-- Node26&#45;&gt;Node8 -->
<g id="edge56" class="edge"><title>Node26&#45;&gt;Node8</title>
<path fill="none" stroke="midnightblue" d="M749.617,-169.263C804.79,-158.623 903.148,-139.654 955.123,-129.63"/>
<polygon fill="midnightblue" stroke="midnightblue" points="956.02,-133.021 965.176,-127.691 954.694,-126.148 956.02,-133.021"/>
</g>
<!-- Node26&#45;&gt;Node25 -->
<g id="edge52" class="edge"><title>Node26&#45;&gt;Node25</title>
<path fill="none" stroke="midnightblue" d="M686.683,-168.444C662.386,-159.332 623.775,-144.853 596.681,-134.693"/>
<polygon fill="midnightblue" stroke="midnightblue" points="597.86,-131.397 587.268,-131.163 595.402,-137.951 597.86,-131.397"/>
</g>
<!-- Node27 -->
<g id="node27" class="node"><title>Node27</title>
<polygon fill="white" stroke="#bfbfbf" points="643.5,-112.5 643.5,-131.5 681.5,-131.5 681.5,-112.5 643.5,-112.5"/>
<text text-anchor="middle" x="662.5" y="-119.5" font-family="Ubuntu Mono" font-size="10.00">list</text>
</g>
<!-- Node26&#45;&gt;Node27 -->
<g id="edge53" class="edge"><title>Node26&#45;&gt;Node27</title>
<path fill="none" stroke="midnightblue" d="M701.739,-168.083C694.963,-160.298 684.957,-148.801 676.745,-139.367"/>
<polygon fill="midnightblue" stroke="midnightblue" points="679.322,-136.996 670.117,-131.751 674.042,-141.592 679.322,-136.996"/>
</g>
<!-- Node28&#45;&gt;Node7 -->
<g id="edge59" class="edge"><title>Node28&#45;&gt;Node7</title>
<path fill="none" stroke="midnightblue" d="M1199.76,-57.7405C1196.65,-57.0985 1193.52,-56.5027 1190.5,-56 1043.06,-31.4225 865,-17.9621 791.628,-13.1105"/>
<polygon fill="midnightblue" stroke="midnightblue" points="791.785,-9.61341 781.579,-12.4569 791.331,-16.5987 791.785,-9.61341"/>
</g>
<!-- Node28&#45;&gt;Node14 -->
<g id="edge58" class="edge"><title>Node28&#45;&gt;Node14</title>
<path fill="none" stroke="midnightblue" d="M1215.84,-56.324C1202.58,-47.9002 1182.23,-34.9709 1166.65,-25.0741"/>
<polygon fill="midnightblue" stroke="midnightblue" points="1168.44,-22.0626 1158.12,-19.6545 1164.69,-27.9711 1168.44,-22.0626"/>
</g>
<!-- Node29&#45;&gt;Node4 -->
<g id="edge62" class="edge"><title>Node29&#45;&gt;Node4</title>
<path fill="none" stroke="midnightblue" d="M1225.42,-168.245C1235.37,-154.533 1251.02,-127.918 1236.5,-112 1205.91,-78.4701 887.887,-69.5855 781.759,-67.5453"/>
<polygon fill="midnightblue" stroke="midnightblue" points="781.657,-64.0429 771.595,-67.3586 781.529,-71.0417 781.657,-64.0429"/>
</g>
<!-- Node29&#45;&gt;Node5 -->
<g id="edge61" class="edge"><title>Node29&#45;&gt;Node5</title>
<path fill="none" stroke="midnightblue" d="M1203.24,-168.324C1188.28,-159.822 1165.25,-146.729 1147.77,-136.797"/>
<polygon fill="midnightblue" stroke="midnightblue" points="1149.15,-133.553 1138.73,-131.655 1145.69,-139.639 1149.15,-133.553"/>
</g>
<!-- Node29&#45;&gt;Node6 -->
<g id="edge63" class="edge"><title>Node29&#45;&gt;Node6</title>
<path fill="none" stroke="midnightblue" d="M1217.34,-168.083C1216.42,-160.927 1215.08,-150.635 1213.92,-141.691"/>
<polygon fill="midnightblue" stroke="midnightblue" points="1217.39,-141.218 1212.63,-131.751 1210.45,-142.118 1217.39,-141.218"/>
</g>
<!-- Node31 -->
<g id="node31" class="node"><title>Node31</title>
<polygon fill="white" stroke="#bfbfbf" points="1460,-112.5 1460,-131.5 1513,-131.5 1513,-112.5 1460,-112.5"/>
<text text-anchor="middle" x="1486.5" y="-119.5" font-family="Ubuntu Mono" font-size="10.00">fstream</text>
</g>
<!-- Node30&#45;&gt;Node31 -->
<g id="edge65" class="edge"><title>Node30&#45;&gt;Node31</title>
<path fill="none" stroke="midnightblue" d="M1484,-168.083C1484.39,-161.006 1484.95,-150.861 1485.45,-141.986"/>
<polygon fill="midnightblue" stroke="midnightblue" points="1488.95,-141.93 1486.01,-131.751 1481.96,-141.542 1488.95,-141.93"/>
</g>
</g>
</svg>
