<?xml version="1.0" encoding="UTF-8" standalone="no"?>
<!DOCTYPE svg PUBLIC "-//W3C//DTD SVG 1.1//EN"
 "http://www.w3.org/Graphics/SVG/1.1/DTD/svg11.dtd">
<!-- Generated by graphviz version 2.38.0 (20140413.2041)
 -->
<!-- Title: include/Building.h Pages: 1 -->
<svg width="1179pt" height="95pt"
 viewBox="0.00 0.00 1178.50 95.00" xmlns="http://www.w3.org/2000/svg" xmlns:xlink="http://www.w3.org/1999/xlink">
<g id="graph0" class="graph" transform="scale(1 1) rotate(0) translate(4 91)">
<title>include/Building.h</title>
<polygon fill="white" stroke="none" points="-4,4 -4,-91 1174.5,-91 1174.5,4 -4,4"/>
<!-- Node1 -->
<g id="node1" class="node"><title>Node1</title>
<polygon fill="#bfbfbf" stroke="black" points="555,-67.5 555,-86.5 666,-86.5 666,-67.5 555,-67.5"/>
<text text-anchor="middle" x="610.5" y="-74.5" font-family="Ubuntu Mono" font-size="10.00">include/Building.h</text>
</g>
<!-- Node2 -->
<g id="node2" class="node"><title>Node2</title>
<g id="a_node2"><a xlink:href="_better_nearest_neighbour_cost_function_8cpp.html" target="_top" xlink:title="src/BetterNearestNeighbour\lCostFunction.cpp">
<polygon fill="white" stroke="black" points="0,-0.5 0,-30.5 153,-30.5 153,-0.5 0,-0.5"/>
<text text-anchor="start" x="8" y="-18.5" font-family="Ubuntu Mono" font-size="10.00">src/BetterNearestNeighbour</text>
<text text-anchor="middle" x="76.5" y="-7.5" font-family="Ubuntu Mono" font-size="10.00">CostFunction.cpp</text>
</a>
</g>
</g>
<!-- Node1&#45;&gt;Node2 -->
<g id="edge1" class="edge"><title>Node1&#45;&gt;Node2</title>
<path fill="none" stroke="midnightblue" d="M544.639,-70.8328C456.978,-63.6278 297.228,-49.356 161.5,-31 158.83,-30.6389 156.115,-30.2568 153.374,-29.8586"/>
<polygon fill="midnightblue" stroke="midnightblue" points="544.455,-74.3293 554.707,-71.6552 545.025,-67.3526 544.455,-74.3293"/>
</g>
<!-- Node3 -->
<g id="node3" class="node"><title>Node3</title>
<g id="a_node3"><a xlink:href="_building_8cpp.html" target="_top" xlink:title="src/Building.cpp">
<polygon fill="white" stroke="black" points="171,-6 171,-25 272,-25 272,-6 171,-6"/>
<text text-anchor="middle" x="221.5" y="-13" font-family="Ubuntu Mono" font-size="10.00">src/Building.cpp</text>
</a>
</g>
</g>
<!-- Node1&#45;&gt;Node3 -->
<g id="edge2" class="edge"><title>Node1&#45;&gt;Node3</title>
<path fill="none" stroke="midnightblue" d="M544.981,-69.0168C478.356,-61.4527 372.294,-48.1348 281.5,-31 272.549,-29.3107 262.927,-27.1447 254.067,-25.0047"/>
<polygon fill="midnightblue" stroke="midnightblue" points="544.594,-72.4952 554.923,-70.136 545.377,-65.5391 544.594,-72.4952"/>
</g>
<!-- Node4 -->
<g id="node4" class="node"><title>Node4</title>
<g id="a_node4"><a xlink:href="_dummy_cost_function_8cpp.html" target="_top" xlink:title="src/DummyCostFunction.cpp">
<polygon fill="white" stroke="black" points="290.5,-6 290.5,-25 438.5,-25 438.5,-6 290.5,-6"/>
<text text-anchor="middle" x="364.5" y="-13" font-family="Ubuntu Mono" font-size="10.00">src/DummyCostFunction.cpp</text>
</a>
</g>
</g>
<!-- Node1&#45;&gt;Node4 -->
<g id="edge3" class="edge"><title>Node1&#45;&gt;Node4</title>
<path fill="none" stroke="midnightblue" d="M565.491,-65.1138C517.745,-53.5653 443.309,-35.5615 399.68,-25.0091"/>
<polygon fill="midnightblue" stroke="midnightblue" points="564.712,-68.526 575.254,-67.4751 566.357,-61.7222 564.712,-68.526"/>
</g>
<!-- Node5 -->
<g id="node5" class="node"><title>Node5</title>
<g id="a_node5"><a xlink:href="_nearest_neighbour_cost_function_8cpp.html" target="_top" xlink:title="src/NearestNeighbourCost\lFunction.cpp">
<polygon fill="white" stroke="black" points="457,-0.5 457,-30.5 600,-30.5 600,-0.5 457,-0.5"/>
<text text-anchor="start" x="465" y="-18.5" font-family="Ubuntu Mono" font-size="10.00">src/NearestNeighbourCost</text>
<text text-anchor="middle" x="528.5" y="-7.5" font-family="Ubuntu Mono" font-size="10.00">Function.cpp</text>
</a>
</g>
</g>
<!-- Node1&#45;&gt;Node5 -->
<g id="edge4" class="edge"><title>Node1&#45;&gt;Node5</title>
<path fill="none" stroke="midnightblue" d="M590.473,-61.468C577.49,-52.0474 560.667,-39.8408 547.826,-30.523"/>
<polygon fill="midnightblue" stroke="midnightblue" points="588.602,-64.435 598.751,-67.4751 592.713,-58.7693 588.602,-64.435"/>
</g>
<!-- Node6 -->
<g id="node6" class="node"><title>Node6</title>
<g id="a_node6"><a xlink:href="_planning_scheduler_8cpp.html" target="_top" xlink:title="src/PlanningScheduler.cpp">
<polygon fill="white" stroke="black" points="618.5,-6 618.5,-25 766.5,-25 766.5,-6 618.5,-6"/>
<text text-anchor="middle" x="692.5" y="-13" font-family="Ubuntu Mono" font-size="10.00">src/PlanningScheduler.cpp</text>
</a>
</g>
</g>
<!-- Node1&#45;&gt;Node6 -->
<g id="edge5" class="edge"><title>Node1&#45;&gt;Node6</title>
<path fill="none" stroke="midnightblue" d="M630.767,-61.2938C646.497,-49.8803 667.752,-34.4577 680.773,-25.0091"/>
<polygon fill="midnightblue" stroke="midnightblue" points="628.287,-58.7693 622.249,-67.4751 632.398,-64.435 628.287,-58.7693"/>
</g>
<!-- Node7 -->
<g id="node7" class="node"><title>Node7</title>
<g id="a_node7"><a xlink:href="_scheduler_8cpp.html" target="_top" xlink:title="src/Scheduler.cpp">
<polygon fill="white" stroke="black" points="784.5,-6 784.5,-25 890.5,-25 890.5,-6 784.5,-6"/>
<text text-anchor="middle" x="837.5" y="-13" font-family="Ubuntu Mono" font-size="10.00">src/Scheduler.cpp</text>
</a>
</g>
</g>
<!-- Node1&#45;&gt;Node7 -->
<g id="edge6" class="edge"><title>Node1&#45;&gt;Node7</title>
<path fill="none" stroke="midnightblue" d="M652.865,-64.8956C696.952,-53.3396 765.031,-35.4952 805.037,-25.0091"/>
<polygon fill="midnightblue" stroke="midnightblue" points="651.809,-61.5539 643.024,-67.4751 653.584,-68.3252 651.809,-61.5539"/>
</g>
<!-- Node8 -->
<g id="node8" class="node"><title>Node8</title>
<g id="a_node8"><a xlink:href="_simple_scheduler_8cpp.html" target="_top" xlink:title="src/SimpleScheduler.cpp">
<polygon fill="white" stroke="black" points="909,-6 909,-25 1046,-25 1046,-6 909,-6"/>
<text text-anchor="middle" x="977.5" y="-13" font-family="Ubuntu Mono" font-size="10.00">src/SimpleScheduler.cpp</text>
</a>
</g>
</g>
<!-- Node1&#45;&gt;Node8 -->
<g id="edge7" class="edge"><title>Node1&#45;&gt;Node8</title>
<path fill="none" stroke="midnightblue" d="M676.487,-66.2882C735.121,-57.5243 823.124,-44.0424 899.5,-31 910.362,-29.1452 922.052,-27.0336 932.992,-25.0069"/>
<polygon fill="midnightblue" stroke="midnightblue" points="675.626,-62.8777 666.252,-67.8146 676.659,-69.8012 675.626,-62.8777"/>
</g>
<!-- Node9 -->
<g id="node9" class="node"><title>Node9</title>
<g id="a_node9"><a xlink:href="_simulator_8cpp.html" target="_top" xlink:title="src/Simulator.cpp">
<polygon fill="white" stroke="black" points="1064.5,-6 1064.5,-25 1170.5,-25 1170.5,-6 1064.5,-6"/>
<text text-anchor="middle" x="1117.5" y="-13" font-family="Ubuntu Mono" font-size="10.00">src/Simulator.cpp</text>
</a>
</g>
</g>
<!-- Node1&#45;&gt;Node9 -->
<g id="edge8" class="edge"><title>Node1&#45;&gt;Node9</title>
<path fill="none" stroke="midnightblue" d="M676.319,-72.0081C763.479,-66.1146 921.778,-53.3024 1055.5,-31 1064.99,-29.4179 1075.19,-27.2364 1084.52,-25.0457"/>
<polygon fill="midnightblue" stroke="midnightblue" points="676.051,-68.5181 666.306,-72.6757 676.517,-75.5025 676.051,-68.5181"/>
</g>
</g>
</svg>
