<?xml version="1.0" encoding="UTF-8" standalone="no"?>
<!DOCTYPE svg PUBLIC "-//W3C//DTD SVG 1.1//EN"
 "http://www.w3.org/Graphics/SVG/1.1/DTD/svg11.dtd">
<!-- Generated by graphviz version 2.38.0 (20140413.2041)
 -->
<!-- Title: include/Building.h Pages: 1 -->
<svg width="360pt" height="140pt"
 viewBox="0.00 0.00 360.00 140.00" xmlns="http://www.w3.org/2000/svg" xmlns:xlink="http://www.w3.org/1999/xlink">
<g id="graph0" class="graph" transform="scale(1 1) rotate(0) translate(4 136)">
<title>include/Building.h</title>
<polygon fill="white" stroke="none" points="-4,4 -4,-136 356,-136 356,4 -4,4"/>
<!-- Node1 -->
<g id="node1" class="node"><title>Node1</title>
<polygon fill="#bfbfbf" stroke="black" points="142.5,-112.5 142.5,-131.5 235.5,-131.5 235.5,-112.5 142.5,-112.5"/>
<text text-anchor="middle" x="189" y="-119.5" font-family="Helvetica,sans-Serif" font-size="10.00">include/Building.h</text>
</g>
<!-- Node2 -->
<g id="node2" class="node"><title>Node2</title>
<g id="a_node2"><a xlink:href="_event_observer_8h.html" target="_top" xlink:title="EventObserver.h">
<polygon fill="white" stroke="black" points="0,-56.5 0,-75.5 90,-75.5 90,-56.5 0,-56.5"/>
<text text-anchor="middle" x="45" y="-63.5" font-family="Helvetica,sans-Serif" font-size="10.00">EventObserver.h</text>
</a>
</g>
</g>
<!-- Node1&#45;&gt;Node2 -->
<g id="edge1" class="edge"><title>Node1&#45;&gt;Node2</title>
<path fill="none" stroke="midnightblue" d="M166.183,-112.444C142.168,-103.438 104.171,-89.1891 77.1308,-79.049"/>
<polygon fill="midnightblue" stroke="midnightblue" points="78.3027,-75.7506 67.7105,-75.5164 75.8448,-82.3049 78.3027,-75.7506"/>
</g>
<!-- Node3 -->
<g id="node3" class="node"><title>Node3</title>
<polygon fill="white" stroke="#bfbfbf" points="55,-0.5 55,-19.5 107,-19.5 107,-0.5 55,-0.5"/>
<text text-anchor="middle" x="81" y="-7.5" font-family="Helvetica,sans-Serif" font-size="10.00">memory</text>
</g>
<!-- Node1&#45;&gt;Node3 -->
<g id="edge4" class="edge"><title>Node1&#45;&gt;Node3</title>
<path fill="none" stroke="midnightblue" d="M178.491,-112.406C167.926,-103.613 151.339,-89.3798 138,-76 122.353,-60.3052 105.793,-41.0913 94.5791,-27.6392"/>
<polygon fill="midnightblue" stroke="midnightblue" points="97.111,-25.2085 88.0449,-19.7261 91.7134,-29.6656 97.111,-25.2085"/>
</g>
<!-- Node4 -->
<g id="node4" class="node"><title>Node4</title>
<polygon fill="white" stroke="#bfbfbf" points="146.5,-56.5 146.5,-75.5 181.5,-75.5 181.5,-56.5 146.5,-56.5"/>
<text text-anchor="middle" x="164" y="-63.5" font-family="Helvetica,sans-Serif" font-size="10.00">map</text>
</g>
<!-- Node1&#45;&gt;Node4 -->
<g id="edge3" class="edge"><title>Node1&#45;&gt;Node4</title>
<path fill="none" stroke="midnightblue" d="M184.872,-112.083C181.486,-104.77 176.584,-94.1814 172.381,-85.1034"/>
<polygon fill="midnightblue" stroke="midnightblue" points="175.429,-83.3553 168.051,-75.7511 169.077,-86.2962 175.429,-83.3553"/>
</g>
<!-- Node5 -->
<g id="node5" class="node"><title>Node5</title>
<polygon fill="white" stroke="#bfbfbf" points="200,-56.5 200,-75.5 230,-75.5 230,-56.5 200,-56.5"/>
<text text-anchor="middle" x="215" y="-63.5" font-family="Helvetica,sans-Serif" font-size="10.00">set</text>
</g>
<!-- Node1&#45;&gt;Node5 -->
<g id="edge5" class="edge"><title>Node1&#45;&gt;Node5</title>
<path fill="none" stroke="midnightblue" d="M193.293,-112.083C196.852,-104.691 202.022,-93.9533 206.424,-84.8111"/>
<polygon fill="midnightblue" stroke="midnightblue" points="209.602,-86.2795 210.787,-75.7511 203.295,-83.2427 209.602,-86.2795"/>
</g>
<!-- Node6 -->
<g id="node6" class="node"><title>Node6</title>
<polygon fill="white" stroke="#bfbfbf" points="248.5,-56.5 248.5,-75.5 289.5,-75.5 289.5,-56.5 248.5,-56.5"/>
<text text-anchor="middle" x="269" y="-63.5" font-family="Helvetica,sans-Serif" font-size="10.00">string</text>
</g>
<!-- Node1&#45;&gt;Node6 -->
<g id="edge6" class="edge"><title>Node1&#45;&gt;Node6</title>
<path fill="none" stroke="midnightblue" d="M201.853,-112.324C214.216,-103.979 233.13,-91.2122 247.737,-81.3524"/>
<polygon fill="midnightblue" stroke="midnightblue" points="249.848,-84.1503 256.179,-75.6545 245.932,-78.3483 249.848,-84.1503"/>
</g>
<!-- Node7 -->
<g id="node7" class="node"><title>Node7</title>
<polygon fill="white" stroke="#bfbfbf" points="308,-56.5 308,-75.5 352,-75.5 352,-56.5 308,-56.5"/>
<text text-anchor="middle" x="330" y="-63.5" font-family="Helvetica,sans-Serif" font-size="10.00">vector</text>
</g>
<!-- Node1&#45;&gt;Node7 -->
<g id="edge7" class="edge"><title>Node1&#45;&gt;Node7</title>
<path fill="none" stroke="midnightblue" d="M211.342,-112.444C234.753,-103.478 271.736,-89.314 298.19,-79.1827"/>
<polygon fill="midnightblue" stroke="midnightblue" points="299.676,-82.3615 307.763,-75.5164 297.172,-75.8245 299.676,-82.3615"/>
</g>
<!-- Node2&#45;&gt;Node3 -->
<g id="edge2" class="edge"><title>Node2&#45;&gt;Node3</title>
<path fill="none" stroke="midnightblue" d="M50.9447,-56.083C55.9773,-48.5341 63.3368,-37.4948 69.5135,-28.2298"/>
<polygon fill="midnightblue" stroke="midnightblue" points="72.5311,-30.0131 75.1659,-19.7511 66.7067,-26.1301 72.5311,-30.0131"/>
</g>
</g>
</svg>
