<?xml version="1.0" encoding="UTF-8" standalone="no"?>
<!DOCTYPE svg PUBLIC "-//W3C//DTD SVG 1.1//EN"
 "http://www.w3.org/Graphics/SVG/1.1/DTD/svg11.dtd">
<!-- Generated by graphviz version 2.38.0 (20140413.2041)
 -->
<!-- Title: include/Building.h Pages: 1 -->
<svg width="920pt" height="95pt"
 viewBox="0.00 0.00 919.50 95.00" xmlns="http://www.w3.org/2000/svg" xmlns:xlink="http://www.w3.org/1999/xlink">
<g id="graph0" class="graph" transform="scale(1 1) rotate(0) translate(4 91)">
<title>include/Building.h</title>
<polygon fill="white" stroke="none" points="-4,4 -4,-91 915.5,-91 915.5,4 -4,4"/>
<!-- Node1 -->
<g id="node1" class="node"><title>Node1</title>
<polygon fill="#bfbfbf" stroke="black" points="431.5,-67.5 431.5,-86.5 524.5,-86.5 524.5,-67.5 431.5,-67.5"/>
<text text-anchor="middle" x="478" y="-74.5" font-family="Helvetica,sans-Serif" font-size="10.00">include/Building.h</text>
</g>
<!-- Node2 -->
<g id="node2" class="node"><title>Node2</title>
<g id="a_node2"><a xlink:href="_better_nearest_neighbour_cost_function_8cpp.html" target="_top" xlink:title="src/BetterNearestNeighbour\lCostFunction.cpp">
<polygon fill="white" stroke="black" points="0,-0.5 0,-30.5 138,-30.5 138,-0.5 0,-0.5"/>
<text text-anchor="start" x="8" y="-18.5" font-family="Helvetica,sans-Serif" font-size="10.00">src/BetterNearestNeighbour</text>
<text text-anchor="middle" x="69" y="-7.5" font-family="Helvetica,sans-Serif" font-size="10.00">CostFunction.cpp</text>
</a>
</g>
</g>
<!-- Node1&#45;&gt;Node2 -->
<g id="edge1" class="edge"><title>Node1&#45;&gt;Node2</title>
<path fill="none" stroke="midnightblue" d="M421.106,-69.12C355.063,-60.9357 242.929,-46.4279 147,-31 144.144,-30.5407 141.232,-30.0592 138.292,-29.5622"/>
<polygon fill="midnightblue" stroke="midnightblue" points="420.947,-72.6269 431.301,-70.3785 421.805,-65.6796 420.947,-72.6269"/>
</g>
<!-- Node3 -->
<g id="node3" class="node"><title>Node3</title>
<g id="a_node3"><a xlink:href="_building_8cpp.html" target="_top" xlink:title="src/Building.cpp">
<polygon fill="white" stroke="black" points="156,-6 156,-25 242,-25 242,-6 156,-6"/>
<text text-anchor="middle" x="199" y="-13" font-family="Helvetica,sans-Serif" font-size="10.00">src/Building.cpp</text>
</a>
</g>
</g>
<!-- Node1&#45;&gt;Node3 -->
<g id="edge2" class="edge"><title>Node1&#45;&gt;Node3</title>
<path fill="none" stroke="midnightblue" d="M421.166,-65.9762C375.093,-57.5523 308.591,-44.7169 251,-31 243.524,-29.2194 235.502,-27.0918 228.051,-25.0221"/>
<polygon fill="midnightblue" stroke="midnightblue" points="420.792,-69.4654 431.257,-67.8103 422.044,-62.5783 420.792,-69.4654"/>
</g>
<!-- Node4 -->
<g id="node4" class="node"><title>Node4</title>
<g id="a_node4"><a xlink:href="_nearest_neighbour_cost_function_8cpp.html" target="_top" xlink:title="src/NearestNeighbourCost\lFunction.cpp">
<polygon fill="white" stroke="black" points="260.5,-0.5 260.5,-30.5 393.5,-30.5 393.5,-0.5 260.5,-0.5"/>
<text text-anchor="start" x="268.5" y="-18.5" font-family="Helvetica,sans-Serif" font-size="10.00">src/NearestNeighbourCost</text>
<text text-anchor="middle" x="327" y="-7.5" font-family="Helvetica,sans-Serif" font-size="10.00">Function.cpp</text>
</a>
</g>
</g>
<!-- Node1&#45;&gt;Node4 -->
<g id="edge3" class="edge"><title>Node1&#45;&gt;Node4</title>
<path fill="none" stroke="midnightblue" d="M446.833,-63.7189C422.325,-54.062 388.167,-40.6023 362.588,-30.523"/>
<polygon fill="midnightblue" stroke="midnightblue" points="445.778,-67.0653 456.365,-67.4751 448.345,-60.5527 445.778,-67.0653"/>
</g>
<!-- Node5 -->
<g id="node5" class="node"><title>Node5</title>
<g id="a_node5"><a xlink:href="_planning_scheduler_8cpp.html" target="_top" xlink:title="src/PlanningScheduler.cpp">
<polygon fill="white" stroke="black" points="411.5,-6 411.5,-25 544.5,-25 544.5,-6 411.5,-6"/>
<text text-anchor="middle" x="478" y="-13" font-family="Helvetica,sans-Serif" font-size="10.00">src/PlanningScheduler.cpp</text>
</a>
</g>
</g>
<!-- Node1&#45;&gt;Node5 -->
<g id="edge4" class="edge"><title>Node1&#45;&gt;Node5</title>
<path fill="none" stroke="midnightblue" d="M478,-57.3165C478,-46.4962 478,-33.398 478,-25.0091"/>
<polygon fill="midnightblue" stroke="midnightblue" points="474.5,-57.4751 478,-67.4751 481.5,-57.4751 474.5,-57.4751"/>
</g>
<!-- Node6 -->
<g id="node6" class="node"><title>Node6</title>
<g id="a_node6"><a xlink:href="_scheduler_8cpp.html" target="_top" xlink:title="src/Scheduler.cpp">
<polygon fill="white" stroke="black" points="562.5,-6 562.5,-25 657.5,-25 657.5,-6 562.5,-6"/>
<text text-anchor="middle" x="610" y="-13" font-family="Helvetica,sans-Serif" font-size="10.00">src/Scheduler.cpp</text>
</a>
</g>
</g>
<!-- Node1&#45;&gt;Node6 -->
<g id="edge5" class="edge"><title>Node1&#45;&gt;Node6</title>
<path fill="none" stroke="midnightblue" d="M506.115,-63.3272C531.74,-51.7761 568.888,-35.0316 591.123,-25.0091"/>
<polygon fill="midnightblue" stroke="midnightblue" points="504.591,-60.1748 496.912,-67.4751 507.467,-66.5565 504.591,-60.1748"/>
</g>
<!-- Node7 -->
<g id="node7" class="node"><title>Node7</title>
<g id="a_node7"><a xlink:href="_simple_scheduler_8cpp.html" target="_top" xlink:title="src/SimpleScheduler.cpp">
<polygon fill="white" stroke="black" points="675.5,-6 675.5,-25 800.5,-25 800.5,-6 675.5,-6"/>
<text text-anchor="middle" x="738" y="-13" font-family="Helvetica,sans-Serif" font-size="10.00">src/SimpleScheduler.cpp</text>
</a>
</g>
</g>
<!-- Node1&#45;&gt;Node7 -->
<g id="edge6" class="edge"><title>Node1&#45;&gt;Node7</title>
<path fill="none" stroke="midnightblue" d="M525.254,-65.1862C575.705,-53.6406 654.61,-35.5835 700.817,-25.0091"/>
<polygon fill="midnightblue" stroke="midnightblue" points="524.219,-61.8324 515.252,-67.4751 525.78,-68.656 524.219,-61.8324"/>
</g>
<!-- Node8 -->
<g id="node8" class="node"><title>Node8</title>
<g id="a_node8"><a xlink:href="_simulator_8cpp.html" target="_top" xlink:title="src/Simulator.cpp">
<polygon fill="white" stroke="black" points="818.5,-6 818.5,-25 911.5,-25 911.5,-6 818.5,-6"/>
<text text-anchor="middle" x="865" y="-13" font-family="Helvetica,sans-Serif" font-size="10.00">src/Simulator.cpp</text>
</a>
</g>
</g>
<!-- Node1&#45;&gt;Node8 -->
<g id="edge7" class="edge"><title>Node1&#45;&gt;Node8</title>
<path fill="none" stroke="midnightblue" d="M535.012,-70.4299C601.431,-63.4435 714.286,-50.0285 810,-31 818.233,-29.3633 827.062,-27.215 835.183,-25.0751"/>
<polygon fill="midnightblue" stroke="midnightblue" points="534.346,-66.9803 524.761,-71.4959 535.07,-73.9428 534.346,-66.9803"/>
</g>
</g>
</svg>
