<?xml version="1.0" encoding="UTF-8" standalone="no"?>
<!DOCTYPE svg PUBLIC "-//W3C//DTD SVG 1.1//EN"
 "http://www.w3.org/Graphics/SVG/1.1/DTD/svg11.dtd">
<!-- Generated by graphviz version 2.38.0 (20140413.2041)
 -->
<!-- Title: src/Building.cpp Pages: 1 -->
<!--zoomable 252 -->
<svg id="main" version="1.1" xmlns="http://www.w3.org/2000/svg" xmlns:xlink="http://www.w3.org/1999/xlink" xml:space="preserve" onload="init(evt)">
<style type="text/css"><![CDATA[
.edge:hover path { stroke: red; }
.edge:hover polygon { stroke: red; fill: red; }
]]></style>
<script type="text/javascript"><![CDATA[
var edges = document.getElementsByTagName('g');
if (edges && edges.length) {
  for (var i=0;i<edges.length;i++) {
    if (edges[i].id.substr(0,4)=='edge') {
      edges[i].setAttribute('class','edge');
    }
  }
}
]]></script>
        <defs>
                <circle id="rim" cx="0" cy="0" r="7"/>
                <circle id="rim2" cx="0" cy="0" r="3.5"/>
                <g id="zoomPlus">
                        <use xlink:href="#rim" fill="#404040">
                                <set attributeName="fill" to="#808080" begin="zoomplus.mouseover" end="zoomplus.mouseout"/>
                        </use>
                        <path d="M-4,0h8M0,-4v8" fill="none" stroke="white" stroke-width="1.5" pointer-events="none"/>
                </g>
                <g id="zoomMin">
                        <use xlink:href="#rim" fill="#404040">
                                <set attributeName="fill" to="#808080" begin="zoomminus.mouseover" end="zoomminus.mouseout"/>
                        </use>
                        <path d="M-4,0h8" fill="none" stroke="white" stroke-width="1.5" pointer-events="none"/>
                </g>
                <g id="dirArrow">
                        <path fill="none" stroke="white" stroke-width="1.5" d="M0,-3.0v7 M-2.5,-0.5L0,-3.0L2.5,-0.5"/>
                </g>
               <g id="resetDef">
                       <use xlink:href="#rim2" fill="#404040">
                               <set attributeName="fill" to="#808080" begin="reset.mouseover" end="reset.mouseout"/>
                       </use>
               </g>
        </defs>

<script type="text/javascript">
var viewWidth = 1599;
var viewHeight = 252;
var sectionId = 'dynsection-0';
</script>
<script xlink:href="svgpan.js"/>
<svg id="graph" class="graph">
<g id="viewport">
<title>src/Building.cpp</title>
<polygon fill="white" stroke="none" points="-4,4 -4,-248 1594.5,-248 1594.5,4 -4,4"/>
<!-- Node1 -->
<g id="node1" class="node"><title>Node1</title>
<polygon fill="#bfbfbf" stroke="black" points="884.5,-224.5 884.5,-243.5 970.5,-243.5 970.5,-224.5 884.5,-224.5"/>
<text text-anchor="middle" x="927.5" y="-231.5" font-family="Helvetica,sans-Serif" font-size="10.00">src/Building.cpp</text>
</g>
<!-- Node2 -->
<g id="node2" class="node"><title>Node2</title>
<g id="a_node2"><a xlink:href="_building_8h.html" target="_top" xlink:title="Building.h">
<polygon fill="white" stroke="black" points="939,-168.5 939,-187.5 998,-187.5 998,-168.5 939,-168.5"/>
<text text-anchor="middle" x="968.5" y="-175.5" font-family="Helvetica,sans-Serif" font-size="10.00">Building.h</text>
</a>
</g>
</g>
<!-- Node1&#45;&gt;Node2 -->
<g id="edge1" class="edge"><title>Node1&#45;&gt;Node2</title>
<path fill="none" stroke="midnightblue" d="M934.27,-224.083C940.062,-216.455 948.558,-205.264 955.638,-195.941"/>
<polygon fill="midnightblue" stroke="midnightblue" points="958.596,-197.832 961.856,-187.751 953.021,-193.599 958.596,-197.832"/>
</g>
<!-- Node9 -->
<g id="node9" class="node"><title>Node9</title>
<g id="a_node9"><a xlink:href="_client_8h.html" target="_top" xlink:title="Client.h">
<polygon fill="white" stroke="black" points="235.5,-168.5 235.5,-187.5 285.5,-187.5 285.5,-168.5 235.5,-168.5"/>
<text text-anchor="middle" x="260.5" y="-175.5" font-family="Helvetica,sans-Serif" font-size="10.00">Client.h</text>
</a>
</g>
</g>
<!-- Node1&#45;&gt;Node9 -->
<g id="edge9" class="edge"><title>Node1&#45;&gt;Node9</title>
<path fill="none" stroke="midnightblue" d="M884.3,-229.771C789.231,-222.624 554.732,-204.77 358.5,-188 337.769,-186.228 314.586,-184.106 295.974,-182.367"/>
<polygon fill="midnightblue" stroke="midnightblue" points="296.157,-178.869 285.874,-181.419 295.503,-185.838 296.157,-178.869"/>
</g>
<!-- Node10 -->
<g id="node10" class="node"><title>Node10</title>
<polygon fill="white" stroke="#bfbfbf" points="27,-112.5 27,-131.5 104,-131.5 104,-112.5 27,-112.5"/>
<text text-anchor="middle" x="65.5" y="-119.5" font-family="Helvetica,sans-Serif" font-size="10.00">glog/logging.h</text>
</g>
<!-- Node1&#45;&gt;Node10 -->
<g id="edge68" class="edge"><title>Node1&#45;&gt;Node10</title>
<path fill="none" stroke="midnightblue" d="M884.32,-232.355C728.311,-229.781 199.399,-218.843 130.5,-188 107.608,-177.753 88.3266,-155.591 76.8496,-140.005"/>
<polygon fill="midnightblue" stroke="midnightblue" points="79.6426,-137.892 71.0257,-131.727 73.9177,-141.92 79.6426,-137.892"/>
</g>
<!-- Node11 -->
<g id="node11" class="node"><title>Node11</title>
<g id="a_node11"><a xlink:href="_client_arrival_8h.html" target="_top" xlink:title="ClientArrival.h">
<polygon fill="white" stroke="black" points="139.5,-168.5 139.5,-187.5 217.5,-187.5 217.5,-168.5 139.5,-168.5"/>
<text text-anchor="middle" x="178.5" y="-175.5" font-family="Helvetica,sans-Serif" font-size="10.00">ClientArrival.h</text>
</a>
</g>
</g>
<!-- Node1&#45;&gt;Node11 -->
<g id="edge12" class="edge"><title>Node1&#45;&gt;Node11</title>
<path fill="none" stroke="midnightblue" d="M884.253,-232.046C775.572,-229.261 482.13,-219.33 227.9,-188.023"/>
<polygon fill="midnightblue" stroke="midnightblue" points="228.088,-184.52 217.732,-186.757 227.223,-191.466 228.088,-184.52"/>
</g>
<!-- Node15 -->
<g id="node15" class="node"><title>Node15</title>
<g id="a_node15"><a xlink:href="_clock_8h.html" target="_top" xlink:title="Clock.h">
<polygon fill="white" stroke="black" points="367.5,-168.5 367.5,-187.5 417.5,-187.5 417.5,-168.5 367.5,-168.5"/>
<text text-anchor="middle" x="392.5" y="-175.5" font-family="Helvetica,sans-Serif" font-size="10.00">Clock.h</text>
</a>
</g>
</g>
<!-- Node1&#45;&gt;Node15 -->
<g id="edge20" class="edge"><title>Node1&#45;&gt;Node15</title>
<path fill="none" stroke="midnightblue" d="M884.212,-230.232C799.26,-224.524 604.843,-210.101 442.5,-188 437.674,-187.343 432.604,-186.551 427.619,-185.712"/>
<polygon fill="midnightblue" stroke="midnightblue" points="428.068,-182.237 417.613,-183.954 426.857,-189.132 428.068,-182.237"/>
</g>
<!-- Node16 -->
<g id="node16" class="node"><title>Node16</title>
<g id="a_node16"><a xlink:href="_cost_function_8h.html" target="_top" xlink:title="CostFunction.h">
<polygon fill="white" stroke="black" points="411,-112.5 411,-131.5 494,-131.5 494,-112.5 411,-112.5"/>
<text text-anchor="middle" x="452.5" y="-119.5" font-family="Helvetica,sans-Serif" font-size="10.00">CostFunction.h</text>
</a>
</g>
</g>
<!-- Node1&#45;&gt;Node16 -->
<g id="edge24" class="edge"><title>Node1&#45;&gt;Node16</title>
<path fill="none" stroke="midnightblue" d="M884.224,-232.562C789.91,-230.947 569.113,-223.384 504.5,-188 484.952,-177.295 470.085,-155.899 461.353,-140.578"/>
<polygon fill="midnightblue" stroke="midnightblue" points="464.327,-138.716 456.514,-131.56 458.159,-142.026 464.327,-138.716"/>
</g>
<!-- Node17 -->
<g id="node17" class="node"><title>Node17</title>
<g id="a_node17"><a xlink:href="_direction_8h.html" target="_top" xlink:title="Direction.h">
<polygon fill="white" stroke="black" points="1323.5,-56.5 1323.5,-75.5 1387.5,-75.5 1387.5,-56.5 1323.5,-56.5"/>
<text text-anchor="middle" x="1355.5" y="-63.5" font-family="Helvetica,sans-Serif" font-size="10.00">Direction.h</text>
</a>
</g>
</g>
<!-- Node1&#45;&gt;Node17 -->
<g id="edge26" class="edge"><title>Node1&#45;&gt;Node17</title>
<path fill="none" stroke="midnightblue" d="M970.618,-231.931C1052.61,-229.182 1227.31,-219.678 1277.5,-188 1316.12,-163.621 1339.35,-112.39 1349.48,-85.0659"/>
<polygon fill="midnightblue" stroke="midnightblue" points="1352.81,-86.1617 1352.83,-75.5669 1346.2,-83.835 1352.81,-86.1617"/>
</g>
<!-- Node18 -->
<g id="node18" class="node"><title>Node18</title>
<g id="a_node18"><a xlink:href="_scheduler_8h.html" target="_top" xlink:title="Scheduler.h">
<polygon fill="white" stroke="black" points="852.5,-168.5 852.5,-187.5 920.5,-187.5 920.5,-168.5 852.5,-168.5"/>
<text text-anchor="middle" x="886.5" y="-175.5" font-family="Helvetica,sans-Serif" font-size="10.00">Scheduler.h</text>
</a>
</g>
</g>
<!-- Node1&#45;&gt;Node18 -->
<g id="edge29" class="edge"><title>Node1&#45;&gt;Node18</title>
<path fill="none" stroke="midnightblue" d="M920.73,-224.083C914.938,-216.455 906.442,-205.264 899.362,-195.941"/>
<polygon fill="midnightblue" stroke="midnightblue" points="901.979,-193.599 893.144,-187.751 896.404,-197.832 901.979,-193.599"/>
</g>
<!-- Node19 -->
<g id="node19" class="node"><title>Node19</title>
<g id="a_node19"><a xlink:href="_elevator_8h.html" target="_top" xlink:title="Elevator.h">
<polygon fill="white" stroke="black" points="1036,-168.5 1036,-187.5 1097,-187.5 1097,-168.5 1036,-168.5"/>
<text text-anchor="middle" x="1066.5" y="-175.5" font-family="Helvetica,sans-Serif" font-size="10.00">Elevator.h</text>
</a>
</g>
</g>
<!-- Node1&#45;&gt;Node19 -->
<g id="edge32" class="edge"><title>Node1&#45;&gt;Node19</title>
<path fill="none" stroke="midnightblue" d="M949.525,-224.444C972.604,-215.478 1009.06,-201.314 1035.14,-191.183"/>
<polygon fill="midnightblue" stroke="midnightblue" points="1036.52,-194.4 1044.58,-187.516 1033.99,-187.875 1036.52,-194.4"/>
</g>
<!-- Node21 -->
<g id="node21" class="node"><title>Node21</title>
<g id="a_node21"><a xlink:href="_event_factory_8h.html" target="_top" xlink:title="EventFactory.h">
<polygon fill="white" stroke="black" points="0,-168.5 0,-187.5 83,-187.5 83,-168.5 0,-168.5"/>
<text text-anchor="middle" x="41.5" y="-175.5" font-family="Helvetica,sans-Serif" font-size="10.00">EventFactory.h</text>
</a>
</g>
</g>
<!-- Node1&#45;&gt;Node21 -->
<g id="edge37" class="edge"><title>Node1&#45;&gt;Node21</title>
<path fill="none" stroke="midnightblue" d="M884.168,-232.256C760.826,-229.794 397.388,-220.138 97.5,-188 96.0314,-187.843 94.5426,-187.673 93.041,-187.492"/>
<polygon fill="midnightblue" stroke="midnightblue" points="93.3962,-184.009 83.0245,-186.172 92.4813,-190.949 93.3962,-184.009"/>
</g>
<!-- Node23 -->
<g id="node23" class="node"><title>Node23</title>
<g id="a_node23"><a xlink:href="_floor_8h.html" target="_top" xlink:title="Floor.h">
<polygon fill="white" stroke="black" points="1225,-112.5 1225,-131.5 1272,-131.5 1272,-112.5 1225,-112.5"/>
<text text-anchor="middle" x="1248.5" y="-119.5" font-family="Helvetica,sans-Serif" font-size="10.00">Floor.h</text>
</a>
</g>
</g>
<!-- Node1&#45;&gt;Node23 -->
<g id="edge42" class="edge"><title>Node1&#45;&gt;Node23</title>
<path fill="none" stroke="midnightblue" d="M970.782,-232.057C1044.62,-229.571 1190.65,-220.56 1228.5,-188 1241.77,-176.588 1246.38,-156.602 1247.9,-141.795"/>
<polygon fill="midnightblue" stroke="midnightblue" points="1251.4,-141.917 1248.57,-131.71 1244.42,-141.459 1251.4,-141.917"/>
</g>
<!-- Node24 -->
<g id="node24" class="node"><title>Node24</title>
<g id="a_node24"><a xlink:href="_simulator_8h.html" target="_top" xlink:title="Simulator.h">
<polygon fill="white" stroke="black" points="513.5,-168.5 513.5,-187.5 579.5,-187.5 579.5,-168.5 513.5,-168.5"/>
<text text-anchor="middle" x="546.5" y="-175.5" font-family="Helvetica,sans-Serif" font-size="10.00">Simulator.h</text>
</a>
</g>
</g>
<!-- Node1&#45;&gt;Node24 -->
<g id="edge46" class="edge"><title>Node1&#45;&gt;Node24</title>
<path fill="none" stroke="midnightblue" d="M884.165,-226.858C810.829,-216.464 663.095,-195.525 589.79,-185.136"/>
<polygon fill="midnightblue" stroke="midnightblue" points="589.924,-181.62 579.532,-183.682 588.942,-188.55 589.924,-181.62"/>
</g>
<!-- Node26 -->
<g id="node26" class="node"><title>Node26</title>
<g id="a_node26"><a xlink:href="_statistics_8h.html" target="_top" xlink:title="Statistics.h">
<polygon fill="white" stroke="black" points="733.5,-168.5 733.5,-187.5 799.5,-187.5 799.5,-168.5 733.5,-168.5"/>
<text text-anchor="middle" x="766.5" y="-175.5" font-family="Helvetica,sans-Serif" font-size="10.00">Statistics.h</text>
</a>
</g>
</g>
<!-- Node1&#45;&gt;Node26 -->
<g id="edge50" class="edge"><title>Node1&#45;&gt;Node26</title>
<path fill="none" stroke="midnightblue" d="M901.989,-224.444C874.904,-215.359 831.91,-200.939 801.631,-190.783"/>
<polygon fill="midnightblue" stroke="midnightblue" points="802.486,-187.378 791.892,-187.516 800.26,-194.015 802.486,-187.378"/>
</g>
<!-- Node28 -->
<g id="node28" class="node"><title>Node28</title>
<g id="a_node28"><a xlink:href="_status_8h.html" target="_top" xlink:title="Status.h">
<polygon fill="white" stroke="black" points="1252,-56.5 1252,-75.5 1305,-75.5 1305,-56.5 1252,-56.5"/>
<text text-anchor="middle" x="1278.5" y="-63.5" font-family="Helvetica,sans-Serif" font-size="10.00">Status.h</text>
</a>
</g>
</g>
<!-- Node1&#45;&gt;Node28 -->
<g id="edge57" class="edge"><title>Node1&#45;&gt;Node28</title>
<path fill="none" stroke="midnightblue" d="M970.714,-230.785C1047.13,-226.246 1202.46,-214.045 1249.5,-188 1277.93,-172.26 1285.39,-162.533 1296.5,-132 1302.25,-116.218 1295.9,-97.7149 1289.21,-84.4951"/>
<polygon fill="midnightblue" stroke="midnightblue" points="1292.15,-82.5779 1284.22,-75.5482 1286.04,-85.9868 1292.15,-82.5779"/>
</g>
<!-- Node29 -->
<g id="node29" class="node"><title>Node29</title>
<g id="a_node29"><a xlink:href="_stop_manager_8h.html" target="_top" xlink:title="StopManager.h">
<polygon fill="white" stroke="black" points="1137,-168.5 1137,-187.5 1220,-187.5 1220,-168.5 1137,-168.5"/>
<text text-anchor="middle" x="1178.5" y="-175.5" font-family="Helvetica,sans-Serif" font-size="10.00">StopManager.h</text>
</a>
</g>
</g>
<!-- Node1&#45;&gt;Node29 -->
<g id="edge60" class="edge"><title>Node1&#45;&gt;Node29</title>
<path fill="none" stroke="midnightblue" d="M967.272,-224.444C1011.06,-215.023 1081.51,-199.866 1128.88,-189.675"/>
<polygon fill="midnightblue" stroke="midnightblue" points="1129.87,-193.041 1138.91,-187.516 1128.4,-186.198 1129.87,-193.041"/>
</g>
<!-- Node30 -->
<g id="node30" class="node"><title>Node30</title>
<g id="a_node30"><a xlink:href="_trip_8h.html" target="_top" xlink:title="Trip.h">
<polygon fill="white" stroke="black" points="1405,-168.5 1405,-187.5 1446,-187.5 1446,-168.5 1405,-168.5"/>
<text text-anchor="middle" x="1425.5" y="-175.5" font-family="Helvetica,sans-Serif" font-size="10.00">Trip.h</text>
</a>
</g>
</g>
<!-- Node1&#45;&gt;Node30 -->
<g id="edge65" class="edge"><title>Node1&#45;&gt;Node30</title>
<path fill="none" stroke="midnightblue" d="M970.568,-231.043C1052.75,-226.819 1237.39,-214.959 1390.5,-188 1391.97,-187.742 1393.46,-187.454 1394.97,-187.144"/>
<polygon fill="midnightblue" stroke="midnightblue" points="1395.93,-190.516 1404.89,-184.865 1394.36,-183.694 1395.93,-190.516"/>
</g>
<!-- Node32 -->
<g id="node32" class="node"><title>Node32</title>
<polygon fill="white" stroke="#bfbfbf" points="1464.5,-168.5 1464.5,-187.5 1520.5,-187.5 1520.5,-168.5 1464.5,-168.5"/>
<text text-anchor="middle" x="1492.5" y="-175.5" font-family="Helvetica,sans-Serif" font-size="10.00">algorithm</text>
</g>
<!-- Node1&#45;&gt;Node32 -->
<g id="edge67" class="edge"><title>Node1&#45;&gt;Node32</title>
<path fill="none" stroke="midnightblue" d="M970.55,-231.571C1059.34,-228.141 1269.3,-217.544 1454.4,-187.937"/>
<polygon fill="midnightblue" stroke="midnightblue" points="1455,-191.386 1464.31,-186.33 1453.88,-184.476 1455,-191.386"/>
</g>
<!-- Node33 -->
<g id="node33" class="node"><title>Node33</title>
<polygon fill="white" stroke="#bfbfbf" points="1538.5,-168.5 1538.5,-187.5 1590.5,-187.5 1590.5,-168.5 1538.5,-168.5"/>
<text text-anchor="middle" x="1564.5" y="-175.5" font-family="Helvetica,sans-Serif" font-size="10.00">sstream</text>
</g>
<!-- Node1&#45;&gt;Node33 -->
<g id="edge69" class="edge"><title>Node1&#45;&gt;Node33</title>
<path fill="none" stroke="midnightblue" d="M970.508,-232.392C1068.15,-230.454 1314.05,-222.431 1528.07,-187.948"/>
<polygon fill="midnightblue" stroke="midnightblue" points="1528.93,-191.354 1538.23,-186.286 1527.8,-184.446 1528.93,-191.354"/>
</g>
<!-- Node3 -->
<g id="node3" class="node"><title>Node3</title>
<g id="a_node3"><a xlink:href="_event_observer_8h.html" target="_top" xlink:title="EventObserver.h">
<polygon fill="white" stroke="black" points="610.5,-112.5 610.5,-131.5 700.5,-131.5 700.5,-112.5 610.5,-112.5"/>
<text text-anchor="middle" x="655.5" y="-119.5" font-family="Helvetica,sans-Serif" font-size="10.00">EventObserver.h</text>
</a>
</g>
</g>
<!-- Node2&#45;&gt;Node3 -->
<g id="edge2" class="edge"><title>Node2&#45;&gt;Node3</title>
<path fill="none" stroke="midnightblue" d="M938.732,-169.924C935.62,-169.246 932.5,-168.592 929.5,-168 854.032,-153.111 766.19,-139.3 710.721,-131.007"/>
<polygon fill="midnightblue" stroke="midnightblue" points="711.156,-127.533 700.75,-129.524 710.126,-134.457 711.156,-127.533"/>
</g>
<!-- Node4 -->
<g id="node4" class="node"><title>Node4</title>
<polygon fill="white" stroke="#bfbfbf" points="629.5,-56.5 629.5,-75.5 681.5,-75.5 681.5,-56.5 629.5,-56.5"/>
<text text-anchor="middle" x="655.5" y="-63.5" font-family="Helvetica,sans-Serif" font-size="10.00">memory</text>
</g>
<!-- Node2&#45;&gt;Node4 -->
<g id="edge5" class="edge"><title>Node2&#45;&gt;Node4</title>
<path fill="none" stroke="midnightblue" d="M966.437,-168.179C962.597,-153.874 952.921,-125.825 933.5,-112 895.299,-84.8046 758.262,-73.0989 691.953,-68.939"/>
<polygon fill="midnightblue" stroke="midnightblue" points="691.758,-65.421 681.566,-68.313 691.337,-72.4083 691.758,-65.421"/>
</g>
<!-- Node5 -->
<g id="node5" class="node"><title>Node5</title>
<polygon fill="white" stroke="#bfbfbf" points="1133,-112.5 1133,-131.5 1168,-131.5 1168,-112.5 1133,-112.5"/>
<text text-anchor="middle" x="1150.5" y="-119.5" font-family="Helvetica,sans-Serif" font-size="10.00">map</text>
</g>
<!-- Node2&#45;&gt;Node5 -->
<g id="edge4" class="edge"><title>Node2&#45;&gt;Node5</title>
<path fill="none" stroke="midnightblue" d="M997.338,-168.444C1031.86,-158.202 1089.23,-141.179 1123.1,-131.13"/>
<polygon fill="midnightblue" stroke="midnightblue" points="1124.21,-134.451 1132.8,-128.251 1122.22,-127.74 1124.21,-134.451"/>
</g>
<!-- Node6 -->
<g id="node6" class="node"><title>Node6</title>
<polygon fill="white" stroke="#bfbfbf" points="1204.5,-56.5 1204.5,-75.5 1234.5,-75.5 1234.5,-56.5 1204.5,-56.5"/>
<text text-anchor="middle" x="1219.5" y="-63.5" font-family="Helvetica,sans-Serif" font-size="10.00">set</text>
</g>
<!-- Node2&#45;&gt;Node6 -->
<g id="edge6" class="edge"><title>Node2&#45;&gt;Node6</title>
<path fill="none" stroke="midnightblue" d="M988.196,-168.368C1033.61,-148.468 1145.55,-99.4097 1195.16,-77.6683"/>
<polygon fill="midnightblue" stroke="midnightblue" points="1196.73,-80.8018 1204.48,-73.5822 1193.92,-74.3905 1196.73,-80.8018"/>
</g>
<!-- Node7 -->
<g id="node7" class="node"><title>Node7</title>
<polygon fill="white" stroke="#bfbfbf" points="535,-0.5 535,-19.5 576,-19.5 576,-0.5 535,-0.5"/>
<text text-anchor="middle" x="555.5" y="-7.5" font-family="Helvetica,sans-Serif" font-size="10.00">string</text>
</g>
<!-- Node2&#45;&gt;Node7 -->
<g id="edge7" class="edge"><title>Node2&#45;&gt;Node7</title>
<path fill="none" stroke="midnightblue" d="M969.614,-168.122C970.824,-154.243 970.944,-127.402 956.5,-112 905.225,-57.3235 670.789,-24.6443 586.117,-14.4559"/>
<polygon fill="midnightblue" stroke="midnightblue" points="586.442,-10.97 576.1,-13.272 585.62,-17.9217 586.442,-10.97"/>
</g>
<!-- Node8 -->
<g id="node8" class="node"><title>Node8</title>
<polygon fill="white" stroke="#bfbfbf" points="880.5,-112.5 880.5,-131.5 924.5,-131.5 924.5,-112.5 880.5,-112.5"/>
<text text-anchor="middle" x="902.5" y="-119.5" font-family="Helvetica,sans-Serif" font-size="10.00">vector</text>
</g>
<!-- Node2&#45;&gt;Node8 -->
<g id="edge8" class="edge"><title>Node2&#45;&gt;Node8</title>
<path fill="none" stroke="midnightblue" d="M957.896,-168.324C948.044,-160.263 933.149,-148.077 921.285,-138.369"/>
<polygon fill="midnightblue" stroke="midnightblue" points="923.253,-135.457 913.297,-131.834 918.82,-140.875 923.253,-135.457"/>
</g>
<!-- Node3&#45;&gt;Node4 -->
<g id="edge3" class="edge"><title>Node3&#45;&gt;Node4</title>
<path fill="none" stroke="midnightblue" d="M655.5,-112.083C655.5,-105.006 655.5,-94.8611 655.5,-85.9865"/>
<polygon fill="midnightblue" stroke="midnightblue" points="659,-85.751 655.5,-75.7511 652,-85.7511 659,-85.751"/>
</g>
<!-- Node9&#45;&gt;Node4 -->
<g id="edge11" class="edge"><title>Node9&#45;&gt;Node4</title>
<path fill="none" stroke="midnightblue" d="M256.635,-168.146C251.26,-154.299 243.652,-127.502 257.5,-112 281.42,-85.2226 525.81,-72.3616 619.35,-68.3915"/>
<polygon fill="midnightblue" stroke="midnightblue" points="619.626,-71.8832 629.472,-67.9719 619.335,-64.8892 619.626,-71.8832"/>
</g>
<!-- Node9&#45;&gt;Node10 -->
<g id="edge10" class="edge"><title>Node9&#45;&gt;Node10</title>
<path fill="none" stroke="midnightblue" d="M235.406,-170.051C202.735,-161.004 145.214,-145.075 106.247,-134.284"/>
<polygon fill="midnightblue" stroke="midnightblue" points="106.847,-130.818 96.2756,-131.522 104.979,-137.564 106.847,-130.818"/>
</g>
<!-- Node11&#45;&gt;Node4 -->
<g id="edge19" class="edge"><title>Node11&#45;&gt;Node4</title>
<path fill="none" stroke="midnightblue" d="M184.454,-168.424C195.044,-153.947 218.672,-124.972 246.5,-112 312.383,-81.2877 531.993,-70.9672 619.278,-68.0262"/>
<polygon fill="midnightblue" stroke="midnightblue" points="619.607,-71.5175 629.489,-67.6957 619.381,-64.5211 619.607,-71.5175"/>
</g>
<!-- Node11&#45;&gt;Node10 -->
<g id="edge18" class="edge"><title>Node11&#45;&gt;Node10</title>
<path fill="none" stroke="midnightblue" d="M160.595,-168.444C142.246,-159.675 113.495,-145.935 92.4064,-135.858"/>
<polygon fill="midnightblue" stroke="midnightblue" points="93.8532,-132.67 83.3214,-131.516 90.835,-138.986 93.8532,-132.67"/>
</g>
<!-- Node12 -->
<g id="node12" class="node"><title>Node12</title>
<g id="a_node12"><a xlink:href="_event_8h.html" target="_top" xlink:title="Event.h">
<polygon fill="white" stroke="black" points="122.5,-112.5 122.5,-131.5 172.5,-131.5 172.5,-112.5 122.5,-112.5"/>
<text text-anchor="middle" x="147.5" y="-119.5" font-family="Helvetica,sans-Serif" font-size="10.00">Event.h</text>
</a>
</g>
</g>
<!-- Node11&#45;&gt;Node12 -->
<g id="edge13" class="edge"><title>Node11&#45;&gt;Node12</title>
<path fill="none" stroke="midnightblue" d="M173.381,-168.083C169.092,-160.613 162.842,-149.724 157.558,-140.52"/>
<polygon fill="midnightblue" stroke="midnightblue" points="160.538,-138.681 152.524,-131.751 154.467,-142.166 160.538,-138.681"/>
</g>
<!-- Node12&#45;&gt;Node7 -->
<g id="edge17" class="edge"><title>Node12&#45;&gt;Node7</title>
<path fill="none" stroke="midnightblue" d="M156.305,-112.076C171.161,-97.6216 202.797,-69.3643 235.5,-56 335.48,-15.1422 466.058,-10.2871 524.67,-10.3917"/>
<polygon fill="midnightblue" stroke="midnightblue" points="524.729,-13.8921 534.753,-10.4614 524.778,-6.8923 524.729,-13.8921"/>
</g>
<!-- Node13 -->
<g id="node13" class="node"><title>Node13</title>
<g id="a_node13"><a xlink:href="_event_type_8h.html" target="_top" xlink:title="EventType.h">
<polygon fill="white" stroke="black" points="244.5,-56.5 244.5,-75.5 316.5,-75.5 316.5,-56.5 244.5,-56.5"/>
<text text-anchor="middle" x="280.5" y="-63.5" font-family="Helvetica,sans-Serif" font-size="10.00">EventType.h</text>
</a>
</g>
</g>
<!-- Node12&#45;&gt;Node13 -->
<g id="edge14" class="edge"><title>Node12&#45;&gt;Node13</title>
<path fill="none" stroke="midnightblue" d="M168.574,-112.444C190.56,-103.517 225.234,-89.4387 250.164,-79.3168"/>
<polygon fill="midnightblue" stroke="midnightblue" points="251.576,-82.5213 259.524,-75.5164 248.942,-76.0355 251.576,-82.5213"/>
</g>
<!-- Node13&#45;&gt;Node7 -->
<g id="edge16" class="edge"><title>Node13&#45;&gt;Node7</title>
<path fill="none" stroke="midnightblue" d="M316.734,-57.8849C371.336,-47.1632 473.743,-27.054 524.854,-17.0178"/>
<polygon fill="midnightblue" stroke="midnightblue" points="525.808,-20.3974 534.946,-15.0361 524.459,-13.5286 525.808,-20.3974"/>
</g>
<!-- Node14 -->
<g id="node14" class="node"><title>Node14</title>
<polygon fill="white" stroke="#bfbfbf" points="1249,-0.5 1249,-19.5 1308,-19.5 1308,-0.5 1249,-0.5"/>
<text text-anchor="middle" x="1278.5" y="-7.5" font-family="Helvetica,sans-Serif" font-size="10.00">stdexcept</text>
</g>
<!-- Node13&#45;&gt;Node14 -->
<g id="edge15" class="edge"><title>Node13&#45;&gt;Node14</title>
<path fill="none" stroke="midnightblue" d="M316.609,-63.0462C471.186,-54.6823 1076.62,-21.9235 1238.51,-13.1638"/>
<polygon fill="midnightblue" stroke="midnightblue" points="1239.16,-16.6339 1248.95,-12.5986 1238.78,-9.64413 1239.16,-16.6339"/>
</g>
<!-- Node15&#45;&gt;Node3 -->
<g id="edge21" class="edge"><title>Node15&#45;&gt;Node3</title>
<path fill="none" stroke="midnightblue" d="M417.718,-171.822C460.443,-163.05 547.877,-145.097 603.984,-133.577"/>
<polygon fill="midnightblue" stroke="midnightblue" points="604.987,-136.945 614.078,-131.505 603.579,-130.088 604.987,-136.945"/>
</g>
<!-- Node15&#45;&gt;Node4 -->
<g id="edge22" class="edge"><title>Node15&#45;&gt;Node4</title>
<path fill="none" stroke="midnightblue" d="M390.785,-168.051C388.672,-154.073 386.96,-127.1 401.5,-112 430.938,-81.4287 556.016,-71.4589 618.979,-68.3427"/>
<polygon fill="midnightblue" stroke="midnightblue" points="619.425,-71.826 629.253,-67.868 619.102,-64.8334 619.425,-71.826"/>
</g>
<!-- Node15&#45;&gt;Node7 -->
<g id="edge23" class="edge"><title>Node15&#45;&gt;Node7</title>
<path fill="none" stroke="midnightblue" d="M388.946,-168.341C384.164,-155.219 377.359,-129.93 387.5,-112 417.015,-59.8168 485.464,-31.6249 525.286,-19.1164"/>
<polygon fill="midnightblue" stroke="midnightblue" points="526.42,-22.4303 534.99,-16.2008 524.406,-15.7263 526.42,-22.4303"/>
</g>
<!-- Node16&#45;&gt;Node4 -->
<g id="edge25" class="edge"><title>Node16&#45;&gt;Node4</title>
<path fill="none" stroke="midnightblue" d="M484.666,-112.444C521.406,-102.67 581.363,-86.721 619.597,-76.5506"/>
<polygon fill="midnightblue" stroke="midnightblue" points="620.53,-79.9241 629.294,-73.971 618.731,-73.1594 620.53,-79.9241"/>
</g>
<!-- Node17&#45;&gt;Node7 -->
<g id="edge28" class="edge"><title>Node17&#45;&gt;Node7</title>
<path fill="none" stroke="midnightblue" d="M1323.48,-57.6161C1320.13,-56.9983 1316.75,-56.4422 1313.5,-56 1032.79,-17.8166 689.231,-12.0289 586.14,-11.1547"/>
<polygon fill="midnightblue" stroke="midnightblue" points="586.138,-7.65464 576.112,-11.0791 586.085,-14.6544 586.138,-7.65464"/>
</g>
<!-- Node17&#45;&gt;Node14 -->
<g id="edge27" class="edge"><title>Node17&#45;&gt;Node14</title>
<path fill="none" stroke="midnightblue" d="M1343.13,-56.324C1331.34,-48.0577 1313.37,-35.4527 1299.36,-25.6322"/>
<polygon fill="midnightblue" stroke="midnightblue" points="1301.04,-22.5307 1290.84,-19.6545 1297.02,-28.2619 1301.04,-22.5307"/>
</g>
<!-- Node18&#45;&gt;Node4 -->
<g id="edge30" class="edge"><title>Node18&#45;&gt;Node4</title>
<path fill="none" stroke="midnightblue" d="M881.771,-168.346C873.624,-154.281 855.572,-126.57 832.5,-112 789.004,-84.5319 729.546,-73.8058 691.829,-69.6335"/>
<polygon fill="midnightblue" stroke="midnightblue" points="692.1,-66.1432 681.799,-68.6221 691.398,-73.1078 692.1,-66.1432"/>
</g>
<!-- Node18&#45;&gt;Node8 -->
<g id="edge31" class="edge"><title>Node18&#45;&gt;Node8</title>
<path fill="none" stroke="midnightblue" d="M889.142,-168.083C891.286,-160.849 894.379,-150.409 897.049,-141.397"/>
<polygon fill="midnightblue" stroke="midnightblue" points="900.422,-142.333 899.907,-131.751 893.71,-140.345 900.422,-142.333"/>
</g>
<!-- Node19&#45;&gt;Node4 -->
<g id="edge34" class="edge"><title>Node19&#45;&gt;Node4</title>
<path fill="none" stroke="midnightblue" d="M1055.35,-168.403C1036.27,-154.162 995.591,-125.875 956.5,-112 864.856,-79.4733 749.409,-70.4567 691.751,-67.9578"/>
<polygon fill="midnightblue" stroke="midnightblue" points="691.806,-64.4573 681.677,-67.5628 691.532,-71.4519 691.806,-64.4573"/>
</g>
<!-- Node19&#45;&gt;Node5 -->
<g id="edge33" class="edge"><title>Node19&#45;&gt;Node5</title>
<path fill="none" stroke="midnightblue" d="M1080,-168.324C1093.1,-159.9 1113.21,-146.971 1128.61,-137.074"/>
<polygon fill="midnightblue" stroke="midnightblue" points="1130.52,-140.006 1137.04,-131.655 1126.73,-134.118 1130.52,-140.006"/>
</g>
<!-- Node19&#45;&gt;Node8 -->
<g id="edge36" class="edge"><title>Node19&#45;&gt;Node8</title>
<path fill="none" stroke="midnightblue" d="M1040.51,-168.444C1011.79,-158.985 965.495,-143.742 934.544,-133.551"/>
<polygon fill="midnightblue" stroke="midnightblue" points="935.276,-130.107 924.683,-130.304 933.087,-136.756 935.276,-130.107"/>
</g>
<!-- Node20 -->
<g id="node20" class="node"><title>Node20</title>
<polygon fill="white" stroke="#bfbfbf" points="1103,-56.5 1103,-75.5 1146,-75.5 1146,-56.5 1103,-56.5"/>
<text text-anchor="middle" x="1124.5" y="-63.5" font-family="Helvetica,sans-Serif" font-size="10.00">queue</text>
</g>
<!-- Node19&#45;&gt;Node20 -->
<g id="edge35" class="edge"><title>Node19&#45;&gt;Node20</title>
<path fill="none" stroke="midnightblue" d="M1071.05,-168.368C1080.54,-150.376 1102.59,-108.55 1115.21,-84.6267"/>
<polygon fill="midnightblue" stroke="midnightblue" points="1118.4,-86.0696 1119.97,-75.5914 1112.21,-82.8047 1118.4,-86.0696"/>
</g>
<!-- Node21&#45;&gt;Node4 -->
<g id="edge39" class="edge"><title>Node21&#45;&gt;Node4</title>
<path fill="none" stroke="midnightblue" d="M33.2915,-168.31C21.41,-154.687 2.40949,-128.192 17.5,-112 38.1612,-89.8301 487.663,-72.7436 619.477,-68.1958"/>
<polygon fill="midnightblue" stroke="midnightblue" points="619.598,-71.6939 629.473,-67.8541 619.359,-64.6979 619.598,-71.6939"/>
</g>
<!-- Node21&#45;&gt;Node7 -->
<g id="edge41" class="edge"><title>Node21&#45;&gt;Node7</title>
<path fill="none" stroke="midnightblue" d="M31.3642,-168.47C17.2046,-155.517 -5.29403,-130.446 8.5,-112 71.0525,-28.3506 418.465,-13.9522 524.659,-11.4983"/>
<polygon fill="midnightblue" stroke="midnightblue" points="524.801,-14.9962 534.725,-11.2854 524.653,-7.99775 524.801,-14.9962"/>
</g>
<!-- Node21&#45;&gt;Node10 -->
<g id="edge38" class="edge"><title>Node21&#45;&gt;Node10</title>
<path fill="none" stroke="midnightblue" d="M45.4631,-168.083C48.7133,-160.77 53.4194,-150.181 57.454,-141.103"/>
<polygon fill="midnightblue" stroke="midnightblue" points="60.7475,-142.311 61.6106,-131.751 54.3508,-139.468 60.7475,-142.311"/>
</g>
<!-- Node22 -->
<g id="node22" class="node"><title>Node22</title>
<polygon fill="white" stroke="#bfbfbf" points="267,-112.5 267,-131.5 316,-131.5 316,-112.5 267,-112.5"/>
<text text-anchor="middle" x="291.5" y="-119.5" font-family="Helvetica,sans-Serif" font-size="10.00">random</text>
</g>
<!-- Node21&#45;&gt;Node22 -->
<g id="edge40" class="edge"><title>Node21&#45;&gt;Node22</title>
<path fill="none" stroke="midnightblue" d="M81.1132,-168.444C129.626,-157.965 211.006,-140.387 257.041,-130.443"/>
<polygon fill="midnightblue" stroke="midnightblue" points="257.814,-133.857 266.849,-128.325 256.336,-127.015 257.814,-133.857"/>
</g>
<!-- Node23&#45;&gt;Node4 -->
<g id="edge43" class="edge"><title>Node23&#45;&gt;Node4</title>
<path fill="none" stroke="midnightblue" d="M1224.89,-114.824C1220.15,-113.749 1215.19,-112.741 1210.5,-112 1016.44,-81.3329 780.704,-70.9965 691.777,-68.0386"/>
<polygon fill="midnightblue" stroke="midnightblue" points="691.781,-64.5369 681.673,-67.7135 691.555,-71.5333 691.781,-64.5369"/>
</g>
<!-- Node23&#45;&gt;Node6 -->
<g id="edge45" class="edge"><title>Node23&#45;&gt;Node6</title>
<path fill="none" stroke="midnightblue" d="M1243.71,-112.083C1239.74,-104.691 1233.97,-93.9533 1229.07,-84.8111"/>
<polygon fill="midnightblue" stroke="midnightblue" points="1232.01,-82.9051 1224.2,-75.7511 1225.85,-86.217 1232.01,-82.9051"/>
</g>
<!-- Node23&#45;&gt;Node20 -->
<g id="edge44" class="edge"><title>Node23&#45;&gt;Node20</title>
<path fill="none" stroke="midnightblue" d="M1228.85,-112.444C1208.54,-103.596 1176.6,-89.6875 1153.4,-79.5865"/>
<polygon fill="midnightblue" stroke="midnightblue" points="1154.62,-76.3002 1144.06,-75.5164 1151.83,-82.7181 1154.62,-76.3002"/>
</g>
<!-- Node24&#45;&gt;Node4 -->
<g id="edge48" class="edge"><title>Node24&#45;&gt;Node4</title>
<path fill="none" stroke="midnightblue" d="M542.584,-168.115C537.328,-154.699 529.913,-129.031 541.5,-112 558.776,-86.6073 592.811,-75.5432 619.215,-70.7224"/>
<polygon fill="midnightblue" stroke="midnightblue" points="619.948,-74.1498 629.27,-69.1138 618.842,-67.2377 619.948,-74.1498"/>
</g>
<!-- Node24&#45;&gt;Node22 -->
<g id="edge49" class="edge"><title>Node24&#45;&gt;Node22</title>
<path fill="none" stroke="midnightblue" d="M513.425,-169.996C464.988,-159.739 375.187,-140.722 325.97,-130.299"/>
<polygon fill="midnightblue" stroke="midnightblue" points="326.621,-126.86 316.113,-128.212 325.171,-133.708 326.621,-126.86"/>
</g>
<!-- Node25 -->
<g id="node25" class="node"><title>Node25</title>
<polygon fill="white" stroke="#bfbfbf" points="551,-112.5 551,-131.5 592,-131.5 592,-112.5 551,-112.5"/>
<text text-anchor="middle" x="571.5" y="-119.5" font-family="Helvetica,sans-Serif" font-size="10.00">ctime</text>
</g>
<!-- Node24&#45;&gt;Node25 -->
<g id="edge47" class="edge"><title>Node24&#45;&gt;Node25</title>
<path fill="none" stroke="midnightblue" d="M550.628,-168.083C554.014,-160.77 558.916,-150.181 563.119,-141.103"/>
<polygon fill="midnightblue" stroke="midnightblue" points="566.423,-142.296 567.449,-131.751 560.071,-139.355 566.423,-142.296"/>
</g>
<!-- Node26&#45;&gt;Node3 -->
<g id="edge51" class="edge"><title>Node26&#45;&gt;Node3</title>
<path fill="none" stroke="midnightblue" d="M748.666,-168.324C730.784,-159.625 703.025,-146.12 682.454,-136.113"/>
<polygon fill="midnightblue" stroke="midnightblue" points="683.813,-132.882 673.29,-131.655 680.751,-139.177 683.813,-132.882"/>
</g>
<!-- Node26&#45;&gt;Node4 -->
<g id="edge54" class="edge"><title>Node26&#45;&gt;Node4</title>
<path fill="none" stroke="midnightblue" d="M759.526,-168.202C749.164,-155.334 728.842,-130.861 709.5,-112 698.715,-101.483 685.776,-90.6461 675.267,-82.2426"/>
<polygon fill="midnightblue" stroke="midnightblue" points="677.133,-79.2569 667.113,-75.8166 672.801,-84.755 677.133,-79.2569"/>
</g>
<!-- Node26&#45;&gt;Node7 -->
<g id="edge55" class="edge"><title>Node26&#45;&gt;Node7</title>
<path fill="none" stroke="midnightblue" d="M763.699,-168.348C755.971,-145.93 732.125,-85.6447 690.5,-56 658.956,-33.5351 615.428,-21.7097 586.417,-15.917"/>
<polygon fill="midnightblue" stroke="midnightblue" points="586.908,-12.4482 576.435,-14.0472 585.62,-19.3286 586.908,-12.4482"/>
</g>
<!-- Node26&#45;&gt;Node8 -->
<g id="edge56" class="edge"><title>Node26&#45;&gt;Node8</title>
<path fill="none" stroke="midnightblue" d="M788.05,-168.444C810.531,-159.517 845.988,-145.439 871.48,-135.317"/>
<polygon fill="midnightblue" stroke="midnightblue" points="873.049,-138.46 881.051,-131.516 870.465,-131.954 873.049,-138.46"/>
</g>
<!-- Node26&#45;&gt;Node25 -->
<g id="edge52" class="edge"><title>Node26&#45;&gt;Node25</title>
<path fill="none" stroke="midnightblue" d="M734.184,-168.445C702.822,-160.085 653.648,-146.828 601.838,-132.043"/>
<polygon fill="midnightblue" stroke="midnightblue" points="602.714,-128.653 592.137,-129.265 600.787,-135.383 602.714,-128.653"/>
</g>
<!-- Node27 -->
<g id="node27" class="node"><title>Node27</title>
<polygon fill="white" stroke="#bfbfbf" points="795,-112.5 795,-131.5 824,-131.5 824,-112.5 795,-112.5"/>
<text text-anchor="middle" x="809.5" y="-119.5" font-family="Helvetica,sans-Serif" font-size="10.00">list</text>
</g>
<!-- Node26&#45;&gt;Node27 -->
<g id="edge53" class="edge"><title>Node26&#45;&gt;Node27</title>
<path fill="none" stroke="midnightblue" d="M773.601,-168.083C779.737,-160.377 788.77,-149.033 796.239,-139.653"/>
<polygon fill="midnightblue" stroke="midnightblue" points="799.04,-141.754 802.532,-131.751 793.564,-137.394 799.04,-141.754"/>
</g>
<!-- Node28&#45;&gt;Node7 -->
<g id="edge59" class="edge"><title>Node28&#45;&gt;Node7</title>
<path fill="none" stroke="midnightblue" d="M1251.85,-57.6027C1249.05,-56.9875 1246.23,-56.4357 1243.5,-56 992.003,-15.8001 683.294,-11.338 586.211,-10.9773"/>
<polygon fill="midnightblue" stroke="midnightblue" points="586.208,-7.47737 576.2,-10.9523 586.191,-14.4773 586.208,-7.47737"/>
</g>
<!-- Node28&#45;&gt;Node14 -->
<g id="edge58" class="edge"><title>Node28&#45;&gt;Node14</title>
<path fill="none" stroke="midnightblue" d="M1278.5,-56.083C1278.5,-49.0059 1278.5,-38.8611 1278.5,-29.9865"/>
<polygon fill="midnightblue" stroke="midnightblue" points="1282,-29.751 1278.5,-19.7511 1275,-29.7511 1282,-29.751"/>
</g>
<!-- Node29&#45;&gt;Node4 -->
<g id="edge62" class="edge"><title>Node29&#45;&gt;Node4</title>
<path fill="none" stroke="midnightblue" d="M1181.37,-168.5C1185.45,-154.655 1190.93,-127.254 1176.5,-112 1143.29,-76.9008 805.035,-69.0586 692.034,-67.4126"/>
<polygon fill="midnightblue" stroke="midnightblue" points="691.867,-63.91 681.819,-67.2719 691.77,-70.9094 691.867,-63.91"/>
</g>
<!-- Node29&#45;&gt;Node5 -->
<g id="edge61" class="edge"><title>Node29&#45;&gt;Node5</title>
<path fill="none" stroke="midnightblue" d="M1173.88,-168.083C1170.04,-160.691 1164.48,-149.953 1159.74,-140.811"/>
<polygon fill="midnightblue" stroke="midnightblue" points="1162.75,-139.018 1155.04,-131.751 1156.53,-142.24 1162.75,-139.018"/>
</g>
<!-- Node29&#45;&gt;Node6 -->
<g id="edge63" class="edge"><title>Node29&#45;&gt;Node6</title>
<path fill="none" stroke="midnightblue" d="M1220.13,-169.851C1242.07,-163.74 1267.13,-152.512 1280.5,-132 1294.18,-111.013 1266.17,-90.5782 1243.72,-78.3883"/>
<polygon fill="midnightblue" stroke="midnightblue" points="1245.08,-75.1483 1234.58,-73.6913 1241.88,-81.3746 1245.08,-75.1483"/>
</g>
<!-- Node29&#45;&gt;Node23 -->
<g id="edge64" class="edge"><title>Node29&#45;&gt;Node23</title>
<path fill="none" stroke="midnightblue" d="M1189.75,-168.324C1200.3,-160.185 1216.3,-147.839 1228.94,-138.087"/>
<polygon fill="midnightblue" stroke="midnightblue" points="1231.27,-140.713 1237.05,-131.834 1226.99,-135.171 1231.27,-140.713"/>
</g>
<!-- Node31 -->
<g id="node31" class="node"><title>Node31</title>
<polygon fill="white" stroke="#bfbfbf" points="1404.5,-112.5 1404.5,-131.5 1454.5,-131.5 1454.5,-112.5 1404.5,-112.5"/>
<text text-anchor="middle" x="1429.5" y="-119.5" font-family="Helvetica,sans-Serif" font-size="10.00">fstream</text>
</g>
<!-- Node30&#45;&gt;Node31 -->
<g id="edge66" class="edge"><title>Node30&#45;&gt;Node31</title>
<path fill="none" stroke="midnightblue" d="M1426.16,-168.083C1426.68,-161.006 1427.44,-150.861 1428.09,-141.986"/>
<polygon fill="midnightblue" stroke="midnightblue" points="1431.6,-141.982 1428.85,-131.751 1424.62,-141.465 1431.6,-141.982"/>
</g>
</g>
</svg>
        <g id="navigator" transform="translate(0 0)" fill="#404254">
                <rect fill="#f2f5e9" fill-opacity="0.5" stroke="#606060" stroke-width=".5" x="0" y="0" width="60" height="60"/>
                <use id="zoomplus" xlink:href="#zoomPlus" x="17" y="9" onmousedown="handleZoom(evt,'in')"/>
                <use id="zoomminus" xlink:href="#zoomMin" x="42" y="9" onmousedown="handleZoom(evt,'out')"/>
                <use id="reset" xlink:href="#resetDef" x="30" y="36" onmousedown="handleReset()"/>
                <g id="arrowUp" xlink:href="#dirArrow" transform="translate(30 24)" onmousedown="handlePan(0,-1)">
                  <use xlink:href="#rim" fill="#404040">
                        <set attributeName="fill" to="#808080" begin="arrowUp.mouseover" end="arrowUp.mouseout"/>
                  </use>
                  <path fill="none" stroke="white" stroke-width="1.5" d="M0,-3.0v7 M-2.5,-0.5L0,-3.0L2.5,-0.5"/>
                </g>
                <g id="arrowRight" xlink:href="#dirArrow" transform="rotate(90) translate(36 -43)" onmousedown="handlePan(1,0)">
                  <use xlink:href="#rim" fill="#404040">
                        <set attributeName="fill" to="#808080" begin="arrowRight.mouseover" end="arrowRight.mouseout"/>
                  </use>
                  <path fill="none" stroke="white" stroke-width="1.5" d="M0,-3.0v7 M-2.5,-0.5L0,-3.0L2.5,-0.5"/>
                </g>
                <g id="arrowDown" xlink:href="#dirArrow" transform="rotate(180) translate(-30 -48)" onmousedown="handlePan(0,1)">
                  <use xlink:href="#rim" fill="#404040">
                        <set attributeName="fill" to="#808080" begin="arrowDown.mouseover" end="arrowDown.mouseout"/>
                  </use>
                  <path fill="none" stroke="white" stroke-width="1.5" d="M0,-3.0v7 M-2.5,-0.5L0,-3.0L2.5,-0.5"/>
                </g>
                <g id="arrowLeft" xlink:href="#dirArrow" transform="rotate(270) translate(-36 17)" onmousedown="handlePan(-1,0)">
                  <use xlink:href="#rim" fill="#404040">
                        <set attributeName="fill" to="#808080" begin="arrowLeft.mouseover" end="arrowLeft.mouseout"/>
                  </use>
                  <path fill="none" stroke="white" stroke-width="1.5" d="M0,-3.0v7 M-2.5,-0.5L0,-3.0L2.5,-0.5"/>
                </g>
        </g>
        <svg viewBox="0 0 15 15" width="100%" height="30px" preserveAspectRatio="xMaxYMin meet">
         <g id="arrow_out" transform="scale(0.3 0.3)">
          <a xlink:href="_building_8cpp__incl_org.svg" target="_base">
           <rect id="button" ry="5" rx="5" y="6" x="6" height="38" width="38"
                fill="#f2f5e9" fill-opacity="0.5" stroke="#606060" stroke-width="1.0"/>
           <path id="arrow"
             d="M 11.500037,31.436501 C 11.940474,20.09759 22.043105,11.32322 32.158766,21.979434 L 37.068811,17.246167 C 37.068811,17.246167 37.088388,32 37.088388,32 L 22.160133,31.978069 C 22.160133,31.978069 26.997745,27.140456 26.997745,27.140456 C 18.528582,18.264221 13.291696,25.230495 11.500037,31.436501 z"
             style="fill:#404040;"/>
          </a>
         </g>
        </svg>
</svg>
