<?xml version="1.0" encoding="UTF-8" standalone="no"?>
<!DOCTYPE svg PUBLIC "-//W3C//DTD SVG 1.1//EN"
 "http://www.w3.org/Graphics/SVG/1.1/DTD/svg11.dtd">
<!-- Generated by graphviz version 2.38.0 (20140413.2041)
 -->
<!-- Title: include/Building.h Pages: 1 -->
<svg width="1083pt" height="95pt"
 viewBox="0.00 0.00 1082.50 95.00" xmlns="http://www.w3.org/2000/svg" xmlns:xlink="http://www.w3.org/1999/xlink">
<g id="graph0" class="graph" transform="scale(1 1) rotate(0) translate(4 91)">
<title>include/Building.h</title>
<polygon fill="white" stroke="none" points="-4,4 -4,-91 1078.5,-91 1078.5,4 -4,4"/>
<!-- Node1 -->
<g id="node1" class="node"><title>Node1</title>
<polygon fill="#bfbfbf" stroke="black" points="518.5,-67.5 518.5,-86.5 611.5,-86.5 611.5,-67.5 518.5,-67.5"/>
<text text-anchor="middle" x="565" y="-74.5" font-family="Helvetica,sans-Serif" font-size="10.00">include/Building.h</text>
</g>
<!-- Node2 -->
<g id="node2" class="node"><title>Node2</title>
<g id="a_node2"><a xlink:href="_better_nearest_neighbour_cost_function_8cpp.html" target="_top" xlink:title="src/BetterNearestNeighbour\lCostFunction.cpp">
<polygon fill="white" stroke="black" points="0,-0.5 0,-30.5 138,-30.5 138,-0.5 0,-0.5"/>
<text text-anchor="start" x="8" y="-18.5" font-family="Helvetica,sans-Serif" font-size="10.00">src/BetterNearestNeighbour</text>
<text text-anchor="middle" x="69" y="-7.5" font-family="Helvetica,sans-Serif" font-size="10.00">CostFunction.cpp</text>
</a>
</g>
</g>
<!-- Node1&#45;&gt;Node2 -->
<g id="edge1" class="edge"><title>Node1&#45;&gt;Node2</title>
<path fill="none" stroke="midnightblue" d="M508.044,-71.2608C427.433,-64.2372 275.552,-49.8402 147,-31 144.138,-30.5806 141.221,-30.1324 138.277,-29.663"/>
<polygon fill="midnightblue" stroke="midnightblue" points="508.197,-74.7871 518.462,-72.162 508.801,-67.8131 508.197,-74.7871"/>
</g>
<!-- Node3 -->
<g id="node3" class="node"><title>Node3</title>
<g id="a_node3"><a xlink:href="_building_8cpp.html" target="_top" xlink:title="src/Building.cpp">
<polygon fill="white" stroke="black" points="156,-6 156,-25 242,-25 242,-6 156,-6"/>
<text text-anchor="middle" x="199" y="-13" font-family="Helvetica,sans-Serif" font-size="10.00">src/Building.cpp</text>
</a>
</g>
</g>
<!-- Node1&#45;&gt;Node3 -->
<g id="edge2" class="edge"><title>Node1&#45;&gt;Node3</title>
<path fill="none" stroke="midnightblue" d="M508.229,-70.1066C445.04,-63.0278 340.085,-49.7217 251,-31 243.204,-29.3616 234.852,-27.2127 227.173,-25.0728"/>
<polygon fill="midnightblue" stroke="midnightblue" points="508.06,-73.6091 518.384,-71.2307 508.83,-66.6516 508.06,-73.6091"/>
</g>
<!-- Node4 -->
<g id="node4" class="node"><title>Node4</title>
<g id="a_node4"><a xlink:href="_dummy_cost_function_8cpp.html" target="_top" xlink:title="src/DummyCostFunction.cpp">
<polygon fill="white" stroke="black" points="260.5,-6 260.5,-25 405.5,-25 405.5,-6 260.5,-6"/>
<text text-anchor="middle" x="333" y="-13" font-family="Helvetica,sans-Serif" font-size="10.00">src/DummyCostFunction.cpp</text>
</a>
</g>
</g>
<!-- Node1&#45;&gt;Node4 -->
<g id="edge3" class="edge"><title>Node1&#45;&gt;Node4</title>
<path fill="none" stroke="midnightblue" d="M521.986,-64.9685C476.936,-53.4147 407.152,-35.5173 366.178,-25.0091"/>
<polygon fill="midnightblue" stroke="midnightblue" points="521.204,-68.381 531.76,-67.4751 522.943,-61.6005 521.204,-68.381"/>
</g>
<!-- Node5 -->
<g id="node5" class="node"><title>Node5</title>
<g id="a_node5"><a xlink:href="_nearest_neighbour_cost_function_8cpp.html" target="_top" xlink:title="src/NearestNeighbourCost\lFunction.cpp">
<polygon fill="white" stroke="black" points="423.5,-0.5 423.5,-30.5 556.5,-30.5 556.5,-0.5 423.5,-0.5"/>
<text text-anchor="start" x="431.5" y="-18.5" font-family="Helvetica,sans-Serif" font-size="10.00">src/NearestNeighbourCost</text>
<text text-anchor="middle" x="490" y="-7.5" font-family="Helvetica,sans-Serif" font-size="10.00">Function.cpp</text>
</a>
</g>
</g>
<!-- Node1&#45;&gt;Node5 -->
<g id="edge4" class="edge"><title>Node1&#45;&gt;Node5</title>
<path fill="none" stroke="midnightblue" d="M546.339,-61.1955C534.512,-51.8129 519.308,-39.7512 507.676,-30.523"/>
<polygon fill="midnightblue" stroke="midnightblue" points="544.245,-64.002 554.254,-67.4751 548.595,-58.5181 544.245,-64.002"/>
</g>
<!-- Node6 -->
<g id="node6" class="node"><title>Node6</title>
<g id="a_node6"><a xlink:href="_planning_scheduler_8cpp.html" target="_top" xlink:title="src/PlanningScheduler.cpp">
<polygon fill="white" stroke="black" points="574.5,-6 574.5,-25 707.5,-25 707.5,-6 574.5,-6"/>
<text text-anchor="middle" x="641" y="-13" font-family="Helvetica,sans-Serif" font-size="10.00">src/PlanningScheduler.cpp</text>
</a>
</g>
</g>
<!-- Node1&#45;&gt;Node6 -->
<g id="edge5" class="edge"><title>Node1&#45;&gt;Node6</title>
<path fill="none" stroke="midnightblue" d="M583.784,-61.2938C598.363,-49.8803 618.062,-34.4577 630.131,-25.0091"/>
<polygon fill="midnightblue" stroke="midnightblue" points="581.605,-58.5547 575.889,-67.4751 585.921,-64.0665 581.605,-58.5547"/>
</g>
<!-- Node7 -->
<g id="node7" class="node"><title>Node7</title>
<g id="a_node7"><a xlink:href="_scheduler_8cpp.html" target="_top" xlink:title="src/Scheduler.cpp">
<polygon fill="white" stroke="black" points="725.5,-6 725.5,-25 820.5,-25 820.5,-6 725.5,-6"/>
<text text-anchor="middle" x="773" y="-13" font-family="Helvetica,sans-Serif" font-size="10.00">src/Scheduler.cpp</text>
</a>
</g>
</g>
<!-- Node1&#45;&gt;Node7 -->
<g id="edge6" class="edge"><title>Node1&#45;&gt;Node7</title>
<path fill="none" stroke="midnightblue" d="M604.587,-64.6759C645.003,-53.1144 706.828,-35.429 743.254,-25.0091"/>
<polygon fill="midnightblue" stroke="midnightblue" points="603.453,-61.3597 594.801,-67.4751 605.378,-68.0898 603.453,-61.3597"/>
</g>
<!-- Node8 -->
<g id="node8" class="node"><title>Node8</title>
<g id="a_node8"><a xlink:href="_simple_scheduler_8cpp.html" target="_top" xlink:title="src/SimpleScheduler.cpp">
<polygon fill="white" stroke="black" points="838.5,-6 838.5,-25 963.5,-25 963.5,-6 838.5,-6"/>
<text text-anchor="middle" x="901" y="-13" font-family="Helvetica,sans-Serif" font-size="10.00">src/SimpleScheduler.cpp</text>
</a>
</g>
</g>
<!-- Node1&#45;&gt;Node8 -->
<g id="edge7" class="edge"><title>Node1&#45;&gt;Node8</title>
<path fill="none" stroke="midnightblue" d="M621.528,-66.9596C675.246,-58.2365 758.25,-44.4148 830,-31 839.893,-29.1503 850.537,-27.0407 860.496,-25.0142"/>
<polygon fill="midnightblue" stroke="midnightblue" points="620.829,-63.5271 611.517,-68.5812 621.948,-70.437 620.829,-63.5271"/>
</g>
<!-- Node9 -->
<g id="node9" class="node"><title>Node9</title>
<g id="a_node9"><a xlink:href="_simulator_8cpp.html" target="_top" xlink:title="src/Simulator.cpp">
<polygon fill="white" stroke="black" points="981.5,-6 981.5,-25 1074.5,-25 1074.5,-6 981.5,-6"/>
<text text-anchor="middle" x="1028" y="-13" font-family="Helvetica,sans-Serif" font-size="10.00">src/Simulator.cpp</text>
</a>
</g>
</g>
<!-- Node1&#45;&gt;Node9 -->
<g id="edge8" class="edge"><title>Node1&#45;&gt;Node9</title>
<path fill="none" stroke="midnightblue" d="M621.764,-72.4029C700.937,-66.7825 848.786,-54.0924 973,-31 981.446,-29.4297 990.504,-27.2521 998.782,-25.0613"/>
<polygon fill="midnightblue" stroke="midnightblue" points="621.255,-68.9298 611.523,-73.1175 621.743,-75.9128 621.255,-68.9298"/>
</g>
</g>
</svg>
