<?xml version="1.0" encoding="UTF-8" standalone="no"?>
<!DOCTYPE svg PUBLIC "-//W3C//DTD SVG 1.1//EN"
 "http://www.w3.org/Graphics/SVG/1.1/DTD/svg11.dtd">
<!-- Generated by graphviz version 2.38.0 (20140413.2041)
 -->
<!-- Title: include/Building.h Pages: 1 -->
<!--zoomable 95 -->
<svg id="main" version="1.1" xmlns="http://www.w3.org/2000/svg" xmlns:xlink="http://www.w3.org/1999/xlink" xml:space="preserve" onload="init(evt)">
<style type="text/css"><![CDATA[
.edge:hover path { stroke: red; }
.edge:hover polygon { stroke: red; fill: red; }
]]></style>
<script type="text/javascript"><![CDATA[
var edges = document.getElementsByTagName('g');
if (edges && edges.length) {
  for (var i=0;i<edges.length;i++) {
    if (edges[i].id.substr(0,4)=='edge') {
      edges[i].setAttribute('class','edge');
    }
  }
}
]]></script>
        <defs>
                <circle id="rim" cx="0" cy="0" r="7"/>
                <circle id="rim2" cx="0" cy="0" r="3.5"/>
                <g id="zoomPlus">
                        <use xlink:href="#rim" fill="#404040">
                                <set attributeName="fill" to="#808080" begin="zoomplus.mouseover" end="zoomplus.mouseout"/>
                        </use>
                        <path d="M-4,0h8M0,-4v8" fill="none" stroke="white" stroke-width="1.5" pointer-events="none"/>
                </g>
                <g id="zoomMin">
                        <use xlink:href="#rim" fill="#404040">
                                <set attributeName="fill" to="#808080" begin="zoomminus.mouseover" end="zoomminus.mouseout"/>
                        </use>
                        <path d="M-4,0h8" fill="none" stroke="white" stroke-width="1.5" pointer-events="none"/>
                </g>
                <g id="dirArrow">
                        <path fill="none" stroke="white" stroke-width="1.5" d="M0,-3.0v7 M-2.5,-0.5L0,-3.0L2.5,-0.5"/>
                </g>
               <g id="resetDef">
                       <use xlink:href="#rim2" fill="#404040">
                               <set attributeName="fill" to="#808080" begin="reset.mouseover" end="reset.mouseout"/>
                       </use>
               </g>
        </defs>

<script type="text/javascript">
var viewWidth = 920;
var viewHeight = 95;
var sectionId = 'dynsection-1';
</script>
<script xlink:href="svgpan.js"/>
<svg id="graph" class="graph">
<g id="viewport">
<title>include/Building.h</title>
<polygon fill="white" stroke="none" points="-4,4 -4,-91 915.5,-91 915.5,4 -4,4"/>
<!-- Node1 -->
<g id="node1" class="node"><title>Node1</title>
<polygon fill="#bfbfbf" stroke="black" points="431.5,-67.5 431.5,-86.5 524.5,-86.5 524.5,-67.5 431.5,-67.5"/>
<text text-anchor="middle" x="478" y="-74.5" font-family="Helvetica,sans-Serif" font-size="10.00">include/Building.h</text>
</g>
<!-- Node2 -->
<g id="node2" class="node"><title>Node2</title>
<g id="a_node2"><a xlink:href="_better_nearest_neighbour_cost_function_8cpp.html" target="_top" xlink:title="src/BetterNearestNeighbour\lCostFunction.cpp">
<polygon fill="white" stroke="black" points="0,-0.5 0,-30.5 138,-30.5 138,-0.5 0,-0.5"/>
<text text-anchor="start" x="8" y="-18.5" font-family="Helvetica,sans-Serif" font-size="10.00">src/BetterNearestNeighbour</text>
<text text-anchor="middle" x="69" y="-7.5" font-family="Helvetica,sans-Serif" font-size="10.00">CostFunction.cpp</text>
</a>
</g>
</g>
<!-- Node1&#45;&gt;Node2 -->
<g id="edge1" class="edge"><title>Node1&#45;&gt;Node2</title>
<path fill="none" stroke="midnightblue" d="M421.106,-69.12C355.063,-60.9357 242.929,-46.4279 147,-31 144.144,-30.5407 141.232,-30.0592 138.292,-29.5622"/>
<polygon fill="midnightblue" stroke="midnightblue" points="420.947,-72.6269 431.301,-70.3785 421.805,-65.6796 420.947,-72.6269"/>
</g>
<!-- Node3 -->
<g id="node3" class="node"><title>Node3</title>
<g id="a_node3"><a xlink:href="_building_8cpp.html" target="_top" xlink:title="src/Building.cpp">
<polygon fill="white" stroke="black" points="156,-6 156,-25 242,-25 242,-6 156,-6"/>
<text text-anchor="middle" x="199" y="-13" font-family="Helvetica,sans-Serif" font-size="10.00">src/Building.cpp</text>
</a>
</g>
</g>
<!-- Node1&#45;&gt;Node3 -->
<g id="edge2" class="edge"><title>Node1&#45;&gt;Node3</title>
<path fill="none" stroke="midnightblue" d="M421.166,-65.9762C375.093,-57.5523 308.591,-44.7169 251,-31 243.524,-29.2194 235.502,-27.0918 228.051,-25.0221"/>
<polygon fill="midnightblue" stroke="midnightblue" points="420.792,-69.4654 431.257,-67.8103 422.044,-62.5783 420.792,-69.4654"/>
</g>
<!-- Node4 -->
<g id="node4" class="node"><title>Node4</title>
<g id="a_node4"><a xlink:href="_nearest_neighbour_cost_function_8cpp.html" target="_top" xlink:title="src/NearestNeighbourCost\lFunction.cpp">
<polygon fill="white" stroke="black" points="260.5,-0.5 260.5,-30.5 393.5,-30.5 393.5,-0.5 260.5,-0.5"/>
<text text-anchor="start" x="268.5" y="-18.5" font-family="Helvetica,sans-Serif" font-size="10.00">src/NearestNeighbourCost</text>
<text text-anchor="middle" x="327" y="-7.5" font-family="Helvetica,sans-Serif" font-size="10.00">Function.cpp</text>
</a>
</g>
</g>
<!-- Node1&#45;&gt;Node4 -->
<g id="edge3" class="edge"><title>Node1&#45;&gt;Node4</title>
<path fill="none" stroke="midnightblue" d="M446.833,-63.7189C422.325,-54.062 388.167,-40.6023 362.588,-30.523"/>
<polygon fill="midnightblue" stroke="midnightblue" points="445.778,-67.0653 456.365,-67.4751 448.345,-60.5527 445.778,-67.0653"/>
</g>
<!-- Node5 -->
<g id="node5" class="node"><title>Node5</title>
<g id="a_node5"><a xlink:href="_planning_scheduler_8cpp.html" target="_top" xlink:title="src/PlanningScheduler.cpp">
<polygon fill="white" stroke="black" points="411.5,-6 411.5,-25 544.5,-25 544.5,-6 411.5,-6"/>
<text text-anchor="middle" x="478" y="-13" font-family="Helvetica,sans-Serif" font-size="10.00">src/PlanningScheduler.cpp</text>
</a>
</g>
</g>
<!-- Node1&#45;&gt;Node5 -->
<g id="edge4" class="edge"><title>Node1&#45;&gt;Node5</title>
<path fill="none" stroke="midnightblue" d="M478,-57.3165C478,-46.4962 478,-33.398 478,-25.0091"/>
<polygon fill="midnightblue" stroke="midnightblue" points="474.5,-57.4751 478,-67.4751 481.5,-57.4751 474.5,-57.4751"/>
</g>
<!-- Node6 -->
<g id="node6" class="node"><title>Node6</title>
<g id="a_node6"><a xlink:href="_scheduler_8cpp.html" target="_top" xlink:title="src/Scheduler.cpp">
<polygon fill="white" stroke="black" points="562.5,-6 562.5,-25 657.5,-25 657.5,-6 562.5,-6"/>
<text text-anchor="middle" x="610" y="-13" font-family="Helvetica,sans-Serif" font-size="10.00">src/Scheduler.cpp</text>
</a>
</g>
</g>
<!-- Node1&#45;&gt;Node6 -->
<g id="edge5" class="edge"><title>Node1&#45;&gt;Node6</title>
<path fill="none" stroke="midnightblue" d="M506.115,-63.3272C531.74,-51.7761 568.888,-35.0316 591.123,-25.0091"/>
<polygon fill="midnightblue" stroke="midnightblue" points="504.591,-60.1748 496.912,-67.4751 507.467,-66.5565 504.591,-60.1748"/>
</g>
<!-- Node7 -->
<g id="node7" class="node"><title>Node7</title>
<g id="a_node7"><a xlink:href="_simple_scheduler_8cpp.html" target="_top" xlink:title="src/SimpleScheduler.cpp">
<polygon fill="white" stroke="black" points="675.5,-6 675.5,-25 800.5,-25 800.5,-6 675.5,-6"/>
<text text-anchor="middle" x="738" y="-13" font-family="Helvetica,sans-Serif" font-size="10.00">src/SimpleScheduler.cpp</text>
</a>
</g>
</g>
<!-- Node1&#45;&gt;Node7 -->
<g id="edge6" class="edge"><title>Node1&#45;&gt;Node7</title>
<path fill="none" stroke="midnightblue" d="M525.254,-65.1862C575.705,-53.6406 654.61,-35.5835 700.817,-25.0091"/>
<polygon fill="midnightblue" stroke="midnightblue" points="524.219,-61.8324 515.252,-67.4751 525.78,-68.656 524.219,-61.8324"/>
</g>
<!-- Node8 -->
<g id="node8" class="node"><title>Node8</title>
<g id="a_node8"><a xlink:href="_simulator_8cpp.html" target="_top" xlink:title="src/Simulator.cpp">
<polygon fill="white" stroke="black" points="818.5,-6 818.5,-25 911.5,-25 911.5,-6 818.5,-6"/>
<text text-anchor="middle" x="865" y="-13" font-family="Helvetica,sans-Serif" font-size="10.00">src/Simulator.cpp</text>
</a>
</g>
</g>
<!-- Node1&#45;&gt;Node8 -->
<g id="edge7" class="edge"><title>Node1&#45;&gt;Node8</title>
<path fill="none" stroke="midnightblue" d="M535.012,-70.4299C601.431,-63.4435 714.286,-50.0285 810,-31 818.233,-29.3633 827.062,-27.215 835.183,-25.0751"/>
<polygon fill="midnightblue" stroke="midnightblue" points="534.346,-66.9803 524.761,-71.4959 535.07,-73.9428 534.346,-66.9803"/>
</g>
</g>
</svg>
        <g id="navigator" transform="translate(0 0)" fill="#404254">
                <rect fill="#f2f5e9" fill-opacity="0.5" stroke="#606060" stroke-width=".5" x="0" y="0" width="60" height="60"/>
                <use id="zoomplus" xlink:href="#zoomPlus" x="17" y="9" onmousedown="handleZoom(evt,'in')"/>
                <use id="zoomminus" xlink:href="#zoomMin" x="42" y="9" onmousedown="handleZoom(evt,'out')"/>
                <use id="reset" xlink:href="#resetDef" x="30" y="36" onmousedown="handleReset()"/>
                <g id="arrowUp" xlink:href="#dirArrow" transform="translate(30 24)" onmousedown="handlePan(0,-1)">
                  <use xlink:href="#rim" fill="#404040">
                        <set attributeName="fill" to="#808080" begin="arrowUp.mouseover" end="arrowUp.mouseout"/>
                  </use>
                  <path fill="none" stroke="white" stroke-width="1.5" d="M0,-3.0v7 M-2.5,-0.5L0,-3.0L2.5,-0.5"/>
                </g>
                <g id="arrowRight" xlink:href="#dirArrow" transform="rotate(90) translate(36 -43)" onmousedown="handlePan(1,0)">
                  <use xlink:href="#rim" fill="#404040">
                        <set attributeName="fill" to="#808080" begin="arrowRight.mouseover" end="arrowRight.mouseout"/>
                  </use>
                  <path fill="none" stroke="white" stroke-width="1.5" d="M0,-3.0v7 M-2.5,-0.5L0,-3.0L2.5,-0.5"/>
                </g>
                <g id="arrowDown" xlink:href="#dirArrow" transform="rotate(180) translate(-30 -48)" onmousedown="handlePan(0,1)">
                  <use xlink:href="#rim" fill="#404040">
                        <set attributeName="fill" to="#808080" begin="arrowDown.mouseover" end="arrowDown.mouseout"/>
                  </use>
                  <path fill="none" stroke="white" stroke-width="1.5" d="M0,-3.0v7 M-2.5,-0.5L0,-3.0L2.5,-0.5"/>
                </g>
                <g id="arrowLeft" xlink:href="#dirArrow" transform="rotate(270) translate(-36 17)" onmousedown="handlePan(-1,0)">
                  <use xlink:href="#rim" fill="#404040">
                        <set attributeName="fill" to="#808080" begin="arrowLeft.mouseover" end="arrowLeft.mouseout"/>
                  </use>
                  <path fill="none" stroke="white" stroke-width="1.5" d="M0,-3.0v7 M-2.5,-0.5L0,-3.0L2.5,-0.5"/>
                </g>
        </g>
        <svg viewBox="0 0 15 15" width="100%" height="30px" preserveAspectRatio="xMaxYMin meet">
         <g id="arrow_out" transform="scale(0.3 0.3)">
          <a xlink:href="_building_8h__dep__incl_org.svg" target="_base">
           <rect id="button" ry="5" rx="5" y="6" x="6" height="38" width="38"
                fill="#f2f5e9" fill-opacity="0.5" stroke="#606060" stroke-width="1.0"/>
           <path id="arrow"
             d="M 11.500037,31.436501 C 11.940474,20.09759 22.043105,11.32322 32.158766,21.979434 L 37.068811,17.246167 C 37.068811,17.246167 37.088388,32 37.088388,32 L 22.160133,31.978069 C 22.160133,31.978069 26.997745,27.140456 26.997745,27.140456 C 18.528582,18.264221 13.291696,25.230495 11.500037,31.436501 z"
             style="fill:#404040;"/>
          </a>
         </g>
        </svg>
</svg>
