<?xml version="1.0" encoding="UTF-8" standalone="no"?>
<!DOCTYPE svg PUBLIC "-//W3C//DTD SVG 1.1//EN"
 "http://www.w3.org/Graphics/SVG/1.1/DTD/svg11.dtd">
<!-- Generated by graphviz version 2.38.0 (20140413.2041)
 -->
<!-- Title: include/Building.h Pages: 1 -->
<svg width="374pt" height="140pt"
 viewBox="0.00 0.00 373.50 140.00" xmlns="http://www.w3.org/2000/svg" xmlns:xlink="http://www.w3.org/1999/xlink">
<g id="graph0" class="graph" transform="scale(1 1) rotate(0) translate(4 136)">
<title>include/Building.h</title>
<polygon fill="white" stroke="none" points="-4,4 -4,-136 369.5,-136 369.5,4 -4,4"/>
<!-- Node1 -->
<g id="node1" class="node"><title>Node1</title>
<polygon fill="#bfbfbf" stroke="black" points="137,-112.5 137,-131.5 248,-131.5 248,-112.5 137,-112.5"/>
<text text-anchor="middle" x="192.5" y="-119.5" font-family="Ubuntu Mono" font-size="10.00">include/Building.h</text>
</g>
<!-- Node2 -->
<g id="node2" class="node"><title>Node2</title>
<g id="a_node2"><a xlink:href="_event_observer_8h.html" target="_top" xlink:title="EventObserver.h">
<polygon fill="white" stroke="black" points="0,-56.5 0,-75.5 95,-75.5 95,-56.5 0,-56.5"/>
<text text-anchor="middle" x="47.5" y="-63.5" font-family="Ubuntu Mono" font-size="10.00">EventObserver.h</text>
</a>
</g>
</g>
<!-- Node1&#45;&gt;Node2 -->
<g id="edge1" class="edge"><title>Node1&#45;&gt;Node2</title>
<path fill="none" stroke="midnightblue" d="M169.524,-112.444C145.343,-103.438 107.082,-89.1891 79.8539,-79.049"/>
<polygon fill="midnightblue" stroke="midnightblue" points="80.9609,-75.7265 70.3682,-75.5164 78.5179,-82.2864 80.9609,-75.7265"/>
</g>
<!-- Node3 -->
<g id="node3" class="node"><title>Node3</title>
<polygon fill="white" stroke="#bfbfbf" points="61.5,-0.5 61.5,-19.5 109.5,-19.5 109.5,-0.5 61.5,-0.5"/>
<text text-anchor="middle" x="85.5" y="-7.5" font-family="Ubuntu Mono" font-size="10.00">memory</text>
</g>
<!-- Node1&#45;&gt;Node3 -->
<g id="edge4" class="edge"><title>Node1&#45;&gt;Node3</title>
<path fill="none" stroke="midnightblue" d="M182.218,-112.372C171.877,-103.551 155.627,-89.2976 142.5,-76 126.931,-60.2285 110.359,-41.0264 99.1207,-27.5979"/>
<polygon fill="midnightblue" stroke="midnightblue" points="101.648,-25.1631 92.5699,-19.7013 96.2609,-29.6325 101.648,-25.1631"/>
</g>
<!-- Node4 -->
<g id="node4" class="node"><title>Node4</title>
<polygon fill="white" stroke="#bfbfbf" points="151.5,-56.5 151.5,-75.5 183.5,-75.5 183.5,-56.5 151.5,-56.5"/>
<text text-anchor="middle" x="167.5" y="-63.5" font-family="Ubuntu Mono" font-size="10.00">map</text>
</g>
<!-- Node1&#45;&gt;Node4 -->
<g id="edge3" class="edge"><title>Node1&#45;&gt;Node4</title>
<path fill="none" stroke="midnightblue" d="M188.372,-112.083C184.986,-104.77 180.084,-94.1814 175.881,-85.1034"/>
<polygon fill="midnightblue" stroke="midnightblue" points="178.929,-83.3553 171.551,-75.7511 172.577,-86.2962 178.929,-83.3553"/>
</g>
<!-- Node5 -->
<g id="node5" class="node"><title>Node5</title>
<polygon fill="white" stroke="#bfbfbf" points="201.5,-56.5 201.5,-75.5 233.5,-75.5 233.5,-56.5 201.5,-56.5"/>
<text text-anchor="middle" x="217.5" y="-63.5" font-family="Ubuntu Mono" font-size="10.00">set</text>
</g>
<!-- Node1&#45;&gt;Node5 -->
<g id="edge5" class="edge"><title>Node1&#45;&gt;Node5</title>
<path fill="none" stroke="midnightblue" d="M196.628,-112.083C200.014,-104.77 204.916,-94.1814 209.119,-85.1034"/>
<polygon fill="midnightblue" stroke="midnightblue" points="212.423,-86.2962 213.449,-75.7511 206.071,-83.3553 212.423,-86.2962"/>
</g>
<!-- Node6 -->
<g id="node6" class="node"><title>Node6</title>
<polygon fill="white" stroke="#bfbfbf" points="251.5,-56.5 251.5,-75.5 299.5,-75.5 299.5,-56.5 251.5,-56.5"/>
<text text-anchor="middle" x="275.5" y="-63.5" font-family="Ubuntu Mono" font-size="10.00">string</text>
</g>
<!-- Node1&#45;&gt;Node6 -->
<g id="edge6" class="edge"><title>Node1&#45;&gt;Node6</title>
<path fill="none" stroke="midnightblue" d="M205.835,-112.324C218.662,-103.979 238.285,-91.2122 253.44,-81.3524"/>
<polygon fill="midnightblue" stroke="midnightblue" points="255.724,-84.0417 262.198,-75.6545 251.907,-78.1742 255.724,-84.0417"/>
</g>
<!-- Node7 -->
<g id="node7" class="node"><title>Node7</title>
<polygon fill="white" stroke="#bfbfbf" points="317.5,-56.5 317.5,-75.5 365.5,-75.5 365.5,-56.5 317.5,-56.5"/>
<text text-anchor="middle" x="341.5" y="-63.5" font-family="Ubuntu Mono" font-size="10.00">vector</text>
</g>
<!-- Node1&#45;&gt;Node7 -->
<g id="edge7" class="edge"><title>Node1&#45;&gt;Node7</title>
<path fill="none" stroke="midnightblue" d="M216.109,-112.444C240.958,-103.438 280.274,-89.1891 308.254,-79.049"/>
<polygon fill="midnightblue" stroke="midnightblue" points="309.792,-82.2144 318.001,-75.5164 307.407,-75.6332 309.792,-82.2144"/>
</g>
<!-- Node2&#45;&gt;Node3 -->
<g id="edge2" class="edge"><title>Node2&#45;&gt;Node3</title>
<path fill="none" stroke="midnightblue" d="M53.7749,-56.083C59.1425,-48.4554 67.0176,-37.2645 73.5787,-27.9408"/>
<polygon fill="midnightblue" stroke="midnightblue" points="76.4492,-29.9434 79.3418,-19.7511 70.7245,-25.9149 76.4492,-29.9434"/>
</g>
</g>
</svg>
