<?xml version="1.0" encoding="UTF-8" standalone="no"?>
<!DOCTYPE svg PUBLIC "-//W3C//DTD SVG 1.1//EN"
 "http://www.w3.org/Graphics/SVG/1.1/DTD/svg11.dtd">
<!-- Generated by graphviz version 2.38.0 (20140413.2041)
 -->
<!-- Title: src/Building.cpp Pages: 1 -->
<svg width="1615pt" height="252pt"
 viewBox="0.00 0.00 1615.00 252.00" xmlns="http://www.w3.org/2000/svg" xmlns:xlink="http://www.w3.org/1999/xlink">
<g id="graph0" class="graph" transform="scale(1 1) rotate(0) translate(4 248)">
<title>src/Building.cpp</title>
<polygon fill="white" stroke="none" points="-4,4 -4,-248 1611,-248 1611,4 -4,4"/>
<!-- Node1 -->
<g id="node1" class="node"><title>Node1</title>
<polygon fill="#bfbfbf" stroke="black" points="919,-224.5 919,-243.5 1005,-243.5 1005,-224.5 919,-224.5"/>
<text text-anchor="middle" x="962" y="-231.5" font-family="Helvetica,sans-Serif" font-size="10.00">src/Building.cpp</text>
</g>
<!-- Node2 -->
<g id="node2" class="node"><title>Node2</title>
<g id="a_node2"><a xlink:href="_building_8h.html" target="_top" xlink:title="Building.h">
<polygon fill="white" stroke="black" points="973.5,-168.5 973.5,-187.5 1032.5,-187.5 1032.5,-168.5 973.5,-168.5"/>
<text text-anchor="middle" x="1003" y="-175.5" font-family="Helvetica,sans-Serif" font-size="10.00">Building.h</text>
</a>
</g>
</g>
<!-- Node1&#45;&gt;Node2 -->
<g id="edge1" class="edge"><title>Node1&#45;&gt;Node2</title>
<path fill="none" stroke="midnightblue" d="M968.77,-224.083C974.562,-216.455 983.058,-205.264 990.138,-195.941"/>
<polygon fill="midnightblue" stroke="midnightblue" points="993.096,-197.832 996.356,-187.751 987.521,-193.599 993.096,-197.832"/>
</g>
<!-- Node9 -->
<g id="node9" class="node"><title>Node9</title>
<g id="a_node9"><a xlink:href="_client_8h.html" target="_top" xlink:title="Client.h">
<polygon fill="white" stroke="black" points="185,-168.5 185,-187.5 235,-187.5 235,-168.5 185,-168.5"/>
<text text-anchor="middle" x="210" y="-175.5" font-family="Helvetica,sans-Serif" font-size="10.00">Client.h</text>
</a>
</g>
</g>
<!-- Node1&#45;&gt;Node9 -->
<g id="edge9" class="edge"><title>Node1&#45;&gt;Node9</title>
<path fill="none" stroke="midnightblue" d="M918.78,-233.231C808.048,-233.199 505.179,-229.168 245.142,-187.853"/>
<polygon fill="midnightblue" stroke="midnightblue" points="245.562,-184.376 235.132,-186.241 244.449,-191.287 245.562,-184.376"/>
</g>
<!-- Node10 -->
<g id="node10" class="node"><title>Node10</title>
<polygon fill="white" stroke="#bfbfbf" points="106.5,-112.5 106.5,-131.5 183.5,-131.5 183.5,-112.5 106.5,-112.5"/>
<text text-anchor="middle" x="145" y="-119.5" font-family="Helvetica,sans-Serif" font-size="10.00">glog/logging.h</text>
</g>
<!-- Node1&#45;&gt;Node10 -->
<g id="edge67" class="edge"><title>Node1&#45;&gt;Node10</title>
<path fill="none" stroke="midnightblue" d="M918.739,-233.065C763.125,-232.955 237.766,-229.488 176,-188 160.299,-177.454 152.329,-156.673 148.436,-141.437"/>
<polygon fill="midnightblue" stroke="midnightblue" points="151.829,-140.567 146.27,-131.548 144.991,-142.065 151.829,-140.567"/>
</g>
<!-- Node11 -->
<g id="node11" class="node"><title>Node11</title>
<g id="a_node11"><a xlink:href="_client_arrival_8h.html" target="_top" xlink:title="ClientArrival.h">
<polygon fill="white" stroke="black" points="41,-168.5 41,-187.5 119,-187.5 119,-168.5 41,-168.5"/>
<text text-anchor="middle" x="80" y="-175.5" font-family="Helvetica,sans-Serif" font-size="10.00">ClientArrival.h</text>
</a>
</g>
</g>
<!-- Node1&#45;&gt;Node11 -->
<g id="edge12" class="edge"><title>Node1&#45;&gt;Node11</title>
<path fill="none" stroke="midnightblue" d="M918.877,-232.245C796.129,-229.752 434.443,-220.022 136,-188 133.773,-187.761 131.499,-187.493 129.205,-187.204"/>
<polygon fill="midnightblue" stroke="midnightblue" points="129.476,-183.709 119.094,-185.819 128.526,-190.644 129.476,-183.709"/>
</g>
<!-- Node15 -->
<g id="node15" class="node"><title>Node15</title>
<g id="a_node15"><a xlink:href="_clock_8h.html" target="_top" xlink:title="Clock.h">
<polygon fill="white" stroke="black" points="791,-168.5 791,-187.5 841,-187.5 841,-168.5 791,-168.5"/>
<text text-anchor="middle" x="816" y="-175.5" font-family="Helvetica,sans-Serif" font-size="10.00">Clock.h</text>
</a>
</g>
</g>
<!-- Node1&#45;&gt;Node15 -->
<g id="edge20" class="edge"><title>Node1&#45;&gt;Node15</title>
<path fill="none" stroke="midnightblue" d="M938.866,-224.444C914.518,-215.438 875.993,-201.189 848.577,-191.049"/>
<polygon fill="midnightblue" stroke="midnightblue" points="849.619,-187.703 839.026,-187.516 847.191,-194.268 849.619,-187.703"/>
</g>
<!-- Node16 -->
<g id="node16" class="node"><title>Node16</title>
<g id="a_node16"><a xlink:href="_cost_function_8h.html" target="_top" xlink:title="CostFunction.h">
<polygon fill="white" stroke="black" points="383.5,-112.5 383.5,-131.5 466.5,-131.5 466.5,-112.5 383.5,-112.5"/>
<text text-anchor="middle" x="425" y="-119.5" font-family="Helvetica,sans-Serif" font-size="10.00">CostFunction.h</text>
</a>
</g>
</g>
<!-- Node1&#45;&gt;Node16 -->
<g id="edge24" class="edge"><title>Node1&#45;&gt;Node16</title>
<path fill="none" stroke="midnightblue" d="M918.73,-233.249C814.539,-233.178 552.744,-228.819 477,-188 457.381,-177.427 442.528,-156.004 433.819,-140.64"/>
<polygon fill="midnightblue" stroke="midnightblue" points="436.789,-138.771 428.995,-131.594 430.612,-142.065 436.789,-138.771"/>
</g>
<!-- Node17 -->
<g id="node17" class="node"><title>Node17</title>
<g id="a_node17"><a xlink:href="_direction_8h.html" target="_top" xlink:title="Direction.h">
<polygon fill="white" stroke="black" points="1067,-56.5 1067,-75.5 1131,-75.5 1131,-56.5 1067,-56.5"/>
<text text-anchor="middle" x="1099" y="-63.5" font-family="Helvetica,sans-Serif" font-size="10.00">Direction.h</text>
</a>
</g>
</g>
<!-- Node1&#45;&gt;Node17 -->
<g id="edge26" class="edge"><title>Node1&#45;&gt;Node17</title>
<path fill="none" stroke="midnightblue" d="M1005.12,-232.575C1084.7,-230.935 1250.51,-223.257 1294,-188 1321.13,-166.004 1336.05,-139.084 1314,-112 1266.08,-53.1549 1220.9,-89.3653 1141.12,-75.9971"/>
<polygon fill="midnightblue" stroke="midnightblue" points="1141.7,-72.5438 1131.22,-74.1114 1140.39,-79.4202 1141.7,-72.5438"/>
</g>
<!-- Node18 -->
<g id="node18" class="node"><title>Node18</title>
<g id="a_node18"><a xlink:href="_scheduler_8h.html" target="_top" xlink:title="Scheduler.h">
<polygon fill="white" stroke="black" points="887,-168.5 887,-187.5 955,-187.5 955,-168.5 887,-168.5"/>
<text text-anchor="middle" x="921" y="-175.5" font-family="Helvetica,sans-Serif" font-size="10.00">Scheduler.h</text>
</a>
</g>
</g>
<!-- Node1&#45;&gt;Node18 -->
<g id="edge29" class="edge"><title>Node1&#45;&gt;Node18</title>
<path fill="none" stroke="midnightblue" d="M955.23,-224.083C949.438,-216.455 940.942,-205.264 933.862,-195.941"/>
<polygon fill="midnightblue" stroke="midnightblue" points="936.479,-193.599 927.644,-187.751 930.904,-197.832 936.479,-193.599"/>
</g>
<!-- Node19 -->
<g id="node19" class="node"><title>Node19</title>
<g id="a_node19"><a xlink:href="_elevator_8h.html" target="_top" xlink:title="Elevator.h">
<polygon fill="white" stroke="black" points="1053.5,-168.5 1053.5,-187.5 1114.5,-187.5 1114.5,-168.5 1053.5,-168.5"/>
<text text-anchor="middle" x="1084" y="-175.5" font-family="Helvetica,sans-Serif" font-size="10.00">Elevator.h</text>
</a>
</g>
</g>
<!-- Node1&#45;&gt;Node19 -->
<g id="edge32" class="edge"><title>Node1&#45;&gt;Node19</title>
<path fill="none" stroke="midnightblue" d="M981.331,-224.444C1001.32,-215.596 1032.74,-201.687 1055.56,-191.586"/>
<polygon fill="midnightblue" stroke="midnightblue" points="1057.03,-194.764 1064.76,-187.516 1054.2,-188.363 1057.03,-194.764"/>
</g>
<!-- Node21 -->
<g id="node21" class="node"><title>Node21</title>
<g id="a_node21"><a xlink:href="_event_factory_8h.html" target="_top" xlink:title="EventFactory.h">
<polygon fill="white" stroke="black" points="253.5,-168.5 253.5,-187.5 336.5,-187.5 336.5,-168.5 253.5,-168.5"/>
<text text-anchor="middle" x="295" y="-175.5" font-family="Helvetica,sans-Serif" font-size="10.00">EventFactory.h</text>
</a>
</g>
</g>
<!-- Node1&#45;&gt;Node21 -->
<g id="edge37" class="edge"><title>Node1&#45;&gt;Node21</title>
<path fill="none" stroke="midnightblue" d="M918.75,-229.499C800.961,-219.962 474.767,-193.554 347.146,-183.222"/>
<polygon fill="midnightblue" stroke="midnightblue" points="347.112,-179.708 336.862,-182.389 346.547,-186.685 347.112,-179.708"/>
</g>
<!-- Node23 -->
<g id="node23" class="node"><title>Node23</title>
<g id="a_node23"><a xlink:href="_floor_8h.html" target="_top" xlink:title="Floor.h">
<polygon fill="white" stroke="black" points="1238.5,-168.5 1238.5,-187.5 1285.5,-187.5 1285.5,-168.5 1238.5,-168.5"/>
<text text-anchor="middle" x="1262" y="-175.5" font-family="Helvetica,sans-Serif" font-size="10.00">Floor.h</text>
</a>
</g>
</g>
<!-- Node1&#45;&gt;Node23 -->
<g id="edge42" class="edge"><title>Node1&#45;&gt;Node23</title>
<path fill="none" stroke="midnightblue" d="M1005.27,-226.417C1057.34,-218.299 1147.35,-203.643 1224,-188 1225.45,-187.703 1226.94,-187.392 1228.43,-187.07"/>
<polygon fill="midnightblue" stroke="midnightblue" points="1229.34,-190.452 1238.33,-184.846 1227.81,-183.622 1229.34,-190.452"/>
</g>
<!-- Node24 -->
<g id="node24" class="node"><title>Node24</title>
<g id="a_node24"><a xlink:href="_simulator_8h.html" target="_top" xlink:title="Simulator.h">
<polygon fill="white" stroke="black" points="486,-168.5 486,-187.5 552,-187.5 552,-168.5 486,-168.5"/>
<text text-anchor="middle" x="519" y="-175.5" font-family="Helvetica,sans-Serif" font-size="10.00">Simulator.h</text>
</a>
</g>
</g>
<!-- Node1&#45;&gt;Node24 -->
<g id="edge46" class="edge"><title>Node1&#45;&gt;Node24</title>
<path fill="none" stroke="midnightblue" d="M918.717,-227.724C833.968,-217.393 647.038,-194.607 562.286,-184.276"/>
<polygon fill="midnightblue" stroke="midnightblue" points="562.58,-180.786 552.23,-183.051 561.733,-187.735 562.58,-180.786"/>
</g>
<!-- Node26 -->
<g id="node26" class="node"><title>Node26</title>
<g id="a_node26"><a xlink:href="_statistics_8h.html" target="_top" xlink:title="Statistics.h">
<polygon fill="white" stroke="black" points="646,-168.5 646,-187.5 712,-187.5 712,-168.5 646,-168.5"/>
<text text-anchor="middle" x="679" y="-175.5" font-family="Helvetica,sans-Serif" font-size="10.00">Statistics.h</text>
</a>
</g>
</g>
<!-- Node1&#45;&gt;Node26 -->
<g id="edge50" class="edge"><title>Node1&#45;&gt;Node26</title>
<path fill="none" stroke="midnightblue" d="M918.71,-224.74C865.437,-214.574 775.514,-197.416 722.256,-187.254"/>
<polygon fill="midnightblue" stroke="midnightblue" points="722.594,-183.755 712.115,-185.319 721.282,-190.631 722.594,-183.755"/>
</g>
<!-- Node28 -->
<g id="node28" class="node"><title>Node28</title>
<g id="a_node28"><a xlink:href="_status_8h.html" target="_top" xlink:title="Status.h">
<polygon fill="white" stroke="black" points="1149.5,-56.5 1149.5,-75.5 1202.5,-75.5 1202.5,-56.5 1149.5,-56.5"/>
<text text-anchor="middle" x="1176" y="-63.5" font-family="Helvetica,sans-Serif" font-size="10.00">Status.h</text>
</a>
</g>
</g>
<!-- Node1&#45;&gt;Node28 -->
<g id="edge57" class="edge"><title>Node1&#45;&gt;Node28</title>
<path fill="none" stroke="midnightblue" d="M1005.21,-233.354C1089.63,-233.14 1272.23,-227.933 1318,-188 1343.94,-165.365 1353.72,-139.495 1333,-112 1318.53,-92.7951 1254.3,-79.2838 1212.62,-72.3527"/>
<polygon fill="midnightblue" stroke="midnightblue" points="1212.97,-68.8656 1202.55,-70.7328 1211.86,-75.7767 1212.97,-68.8656"/>
</g>
<!-- Node29 -->
<g id="node29" class="node"><title>Node29</title>
<g id="a_node29"><a xlink:href="_stop_manager_8h.html" target="_top" xlink:title="StopManager.h">
<polygon fill="white" stroke="black" points="1132.5,-168.5 1132.5,-187.5 1215.5,-187.5 1215.5,-168.5 1132.5,-168.5"/>
<text text-anchor="middle" x="1174" y="-175.5" font-family="Helvetica,sans-Serif" font-size="10.00">StopManager.h</text>
</a>
</g>
</g>
<!-- Node1&#45;&gt;Node29 -->
<g id="edge60" class="edge"><title>Node1&#45;&gt;Node29</title>
<path fill="none" stroke="midnightblue" d="M995.592,-224.444C1032.19,-215.122 1090.84,-200.183 1130.83,-189.997"/>
<polygon fill="midnightblue" stroke="midnightblue" points="1131.74,-193.377 1140.57,-187.516 1130.01,-186.593 1131.74,-193.377"/>
</g>
<!-- Node30 -->
<g id="node30" class="node"><title>Node30</title>
<g id="a_node30"><a xlink:href="_trip_8h.html" target="_top" xlink:title="Trip.h">
<polygon fill="white" stroke="black" points="1421.5,-168.5 1421.5,-187.5 1462.5,-187.5 1462.5,-168.5 1421.5,-168.5"/>
<text text-anchor="middle" x="1442" y="-175.5" font-family="Helvetica,sans-Serif" font-size="10.00">Trip.h</text>
</a>
</g>
</g>
<!-- Node1&#45;&gt;Node30 -->
<g id="edge64" class="edge"><title>Node1&#45;&gt;Node30</title>
<path fill="none" stroke="midnightblue" d="M1005.26,-230.799C1085.14,-226.254 1260.98,-214.003 1407,-188 1408.47,-187.739 1409.96,-187.449 1411.47,-187.137"/>
<polygon fill="midnightblue" stroke="midnightblue" points="1412.43,-190.508 1421.39,-184.851 1410.85,-183.687 1412.43,-190.508"/>
</g>
<!-- Node32 -->
<g id="node32" class="node"><title>Node32</title>
<polygon fill="white" stroke="#bfbfbf" points="1481,-168.5 1481,-187.5 1537,-187.5 1537,-168.5 1481,-168.5"/>
<text text-anchor="middle" x="1509" y="-175.5" font-family="Helvetica,sans-Serif" font-size="10.00">algorithm</text>
</g>
<!-- Node1&#45;&gt;Node32 -->
<g id="edge66" class="edge"><title>Node1&#45;&gt;Node32</title>
<path fill="none" stroke="midnightblue" d="M1005.26,-231.382C1091.89,-227.668 1292.9,-216.671 1470.75,-187.968"/>
<polygon fill="midnightblue" stroke="midnightblue" points="1471.5,-191.39 1480.81,-186.321 1470.37,-184.482 1471.5,-191.39"/>
</g>
<!-- Node33 -->
<g id="node33" class="node"><title>Node33</title>
<polygon fill="white" stroke="#bfbfbf" points="1555,-168.5 1555,-187.5 1607,-187.5 1607,-168.5 1555,-168.5"/>
<text text-anchor="middle" x="1581" y="-175.5" font-family="Helvetica,sans-Serif" font-size="10.00">sstream</text>
</g>
<!-- Node1&#45;&gt;Node33 -->
<g id="edge68" class="edge"><title>Node1&#45;&gt;Node33</title>
<path fill="none" stroke="midnightblue" d="M1005.17,-232.249C1100.82,-230.033 1337.81,-221.504 1544.6,-187.949"/>
<polygon fill="midnightblue" stroke="midnightblue" points="1545.43,-191.358 1554.73,-186.28 1544.3,-184.451 1545.43,-191.358"/>
</g>
<!-- Node3 -->
<g id="node3" class="node"><title>Node3</title>
<g id="a_node3"><a xlink:href="_event_observer_8h.html" target="_top" xlink:title="EventObserver.h">
<polygon fill="white" stroke="black" points="745,-112.5 745,-131.5 835,-131.5 835,-112.5 745,-112.5"/>
<text text-anchor="middle" x="790" y="-119.5" font-family="Helvetica,sans-Serif" font-size="10.00">EventObserver.h</text>
</a>
</g>
</g>
<!-- Node2&#45;&gt;Node3 -->
<g id="edge2" class="edge"><title>Node2&#45;&gt;Node3</title>
<path fill="none" stroke="midnightblue" d="M973.383,-169.492C937.056,-160.282 875.174,-144.593 833.456,-134.017"/>
<polygon fill="midnightblue" stroke="midnightblue" points="834.128,-130.577 823.574,-131.512 832.407,-137.362 834.128,-130.577"/>
</g>
<!-- Node4 -->
<g id="node4" class="node"><title>Node4</title>
<polygon fill="white" stroke="#bfbfbf" points="691,-56.5 691,-75.5 743,-75.5 743,-56.5 691,-56.5"/>
<text text-anchor="middle" x="717" y="-63.5" font-family="Helvetica,sans-Serif" font-size="10.00">memory</text>
</g>
<!-- Node2&#45;&gt;Node4 -->
<g id="edge5" class="edge"><title>Node2&#45;&gt;Node4</title>
<path fill="none" stroke="midnightblue" d="M1002.89,-168.315C1002.21,-154.206 998.681,-126.432 982,-112 948.32,-82.86 817.545,-72.1572 753.186,-68.5975"/>
<polygon fill="midnightblue" stroke="midnightblue" points="753.253,-65.0963 743.083,-68.0675 752.886,-72.0867 753.253,-65.0963"/>
</g>
<!-- Node5 -->
<g id="node5" class="node"><title>Node5</title>
<polygon fill="white" stroke="#bfbfbf" points="1067.5,-112.5 1067.5,-131.5 1102.5,-131.5 1102.5,-112.5 1067.5,-112.5"/>
<text text-anchor="middle" x="1085" y="-119.5" font-family="Helvetica,sans-Serif" font-size="10.00">map</text>
</g>
<!-- Node2&#45;&gt;Node5 -->
<g id="edge4" class="edge"><title>Node2&#45;&gt;Node5</title>
<path fill="none" stroke="midnightblue" d="M1016.17,-168.324C1028.85,-159.979 1048.23,-147.212 1063.21,-137.352"/>
<polygon fill="midnightblue" stroke="midnightblue" points="1065.43,-140.078 1071.86,-131.655 1061.58,-134.231 1065.43,-140.078"/>
</g>
<!-- Node6 -->
<g id="node6" class="node"><title>Node6</title>
<polygon fill="white" stroke="#bfbfbf" points="1159,-112.5 1159,-131.5 1189,-131.5 1189,-112.5 1159,-112.5"/>
<text text-anchor="middle" x="1174" y="-119.5" font-family="Helvetica,sans-Serif" font-size="10.00">set</text>
</g>
<!-- Node2&#45;&gt;Node6 -->
<g id="edge6" class="edge"><title>Node2&#45;&gt;Node6</title>
<path fill="none" stroke="midnightblue" d="M1030.1,-168.444C1062.75,-158.13 1117.19,-140.939 1148.92,-130.919"/>
<polygon fill="midnightblue" stroke="midnightblue" points="1150.27,-134.165 1158.75,-127.816 1148.16,-127.49 1150.27,-134.165"/>
</g>
<!-- Node7 -->
<g id="node7" class="node"><title>Node7</title>
<polygon fill="white" stroke="#bfbfbf" points="707.5,-0.5 707.5,-19.5 748.5,-19.5 748.5,-0.5 707.5,-0.5"/>
<text text-anchor="middle" x="728" y="-7.5" font-family="Helvetica,sans-Serif" font-size="10.00">string</text>
</g>
<!-- Node2&#45;&gt;Node7 -->
<g id="edge7" class="edge"><title>Node2&#45;&gt;Node7</title>
<path fill="none" stroke="midnightblue" d="M1005.95,-168.068C1009.8,-154.589 1014.76,-128.841 1003,-112 946.543,-31.1206 817.81,-14.8194 758.703,-11.6693"/>
<polygon fill="midnightblue" stroke="midnightblue" points="758.654,-8.16382 748.51,-11.2215 758.347,-15.1571 758.654,-8.16382"/>
</g>
<!-- Node8 -->
<g id="node8" class="node"><title>Node8</title>
<polygon fill="white" stroke="#bfbfbf" points="929,-112.5 929,-131.5 973,-131.5 973,-112.5 929,-112.5"/>
<text text-anchor="middle" x="951" y="-119.5" font-family="Helvetica,sans-Serif" font-size="10.00">vector</text>
</g>
<!-- Node2&#45;&gt;Node8 -->
<g id="edge8" class="edge"><title>Node2&#45;&gt;Node8</title>
<path fill="none" stroke="midnightblue" d="M994.413,-168.083C986.841,-160.22 975.622,-148.569 966.486,-139.081"/>
<polygon fill="midnightblue" stroke="midnightblue" points="968.885,-136.527 959.427,-131.751 963.842,-141.382 968.885,-136.527"/>
</g>
<!-- Node3&#45;&gt;Node4 -->
<g id="edge3" class="edge"><title>Node3&#45;&gt;Node4</title>
<path fill="none" stroke="midnightblue" d="M778.271,-112.324C767.163,-104.107 750.258,-91.6017 737.017,-81.8069"/>
<polygon fill="midnightblue" stroke="midnightblue" points="739.063,-78.9671 728.942,-75.8339 734.9,-84.5948 739.063,-78.9671"/>
</g>
<!-- Node9&#45;&gt;Node4 -->
<g id="edge11" class="edge"><title>Node9&#45;&gt;Node4</title>
<path fill="none" stroke="midnightblue" d="M217.591,-168.412C230.981,-153.917 260.385,-124.917 292,-112 327.626,-97.4442 584.651,-76.9251 680.815,-69.6688"/>
<polygon fill="midnightblue" stroke="midnightblue" points="681.222,-73.1483 690.932,-68.9097 680.698,-66.1679 681.222,-73.1483"/>
</g>
<!-- Node9&#45;&gt;Node10 -->
<g id="edge10" class="edge"><title>Node9&#45;&gt;Node10</title>
<path fill="none" stroke="midnightblue" d="M199.557,-168.324C189.854,-160.263 175.185,-148.077 163.5,-138.369"/>
<polygon fill="midnightblue" stroke="midnightblue" points="165.562,-135.532 155.633,-131.834 161.089,-140.916 165.562,-135.532"/>
</g>
<!-- Node11&#45;&gt;Node4 -->
<g id="edge19" class="edge"><title>Node11&#45;&gt;Node4</title>
<path fill="none" stroke="midnightblue" d="M79.3764,-168.19C78.9033,-153.899 80.3189,-125.872 97,-112 102.655,-107.297 548.66,-77.947 680.617,-69.3584"/>
<polygon fill="midnightblue" stroke="midnightblue" points="680.88,-72.8488 690.632,-68.7072 680.426,-65.8635 680.88,-72.8488"/>
</g>
<!-- Node11&#45;&gt;Node10 -->
<g id="edge18" class="edge"><title>Node11&#45;&gt;Node10</title>
<path fill="none" stroke="midnightblue" d="M90.4434,-168.324C100.146,-160.263 114.815,-148.077 126.5,-138.369"/>
<polygon fill="midnightblue" stroke="midnightblue" points="128.911,-140.916 134.367,-131.834 124.438,-135.532 128.911,-140.916"/>
</g>
<!-- Node12 -->
<g id="node12" class="node"><title>Node12</title>
<g id="a_node12"><a xlink:href="_event_8h.html" target="_top" xlink:title="Event.h">
<polygon fill="white" stroke="black" points="0,-112.5 0,-131.5 50,-131.5 50,-112.5 0,-112.5"/>
<text text-anchor="middle" x="25" y="-119.5" font-family="Helvetica,sans-Serif" font-size="10.00">Event.h</text>
</a>
</g>
</g>
<!-- Node11&#45;&gt;Node12 -->
<g id="edge13" class="edge"><title>Node11&#45;&gt;Node12</title>
<path fill="none" stroke="midnightblue" d="M70.9179,-168.083C62.8287,-160.141 50.8046,-148.335 41.0898,-138.797"/>
<polygon fill="midnightblue" stroke="midnightblue" points="43.5009,-136.26 33.9131,-131.751 38.5967,-141.254 43.5009,-136.26"/>
</g>
<!-- Node12&#45;&gt;Node7 -->
<g id="edge17" class="edge"><title>Node12&#45;&gt;Node7</title>
<path fill="none" stroke="midnightblue" d="M47.397,-112.407C85.5069,-98.1708 165.68,-69.8903 236,-56 407.986,-22.0274 618.96,-13.6174 697.04,-11.6072"/>
<polygon fill="midnightblue" stroke="midnightblue" points="697.245,-15.1034 707.158,-11.364 697.076,-8.10537 697.245,-15.1034"/>
</g>
<!-- Node13 -->
<g id="node13" class="node"><title>Node13</title>
<g id="a_node13"><a xlink:href="_event_type_8h.html" target="_top" xlink:title="EventType.h">
<polygon fill="white" stroke="black" points="493,-56.5 493,-75.5 565,-75.5 565,-56.5 493,-56.5"/>
<text text-anchor="middle" x="529" y="-63.5" font-family="Helvetica,sans-Serif" font-size="10.00">EventType.h</text>
</a>
</g>
</g>
<!-- Node12&#45;&gt;Node13 -->
<g id="edge14" class="edge"><title>Node12&#45;&gt;Node13</title>
<path fill="none" stroke="midnightblue" d="M50.0799,-114.706C54.6889,-113.694 59.4736,-112.738 64,-112 216.188,-87.1844 398.793,-74.4086 482.7,-69.4764"/>
<polygon fill="midnightblue" stroke="midnightblue" points="483.132,-72.9573 492.914,-68.8863 482.729,-65.969 483.132,-72.9573"/>
</g>
<!-- Node13&#45;&gt;Node7 -->
<g id="edge16" class="edge"><title>Node13&#45;&gt;Node7</title>
<path fill="none" stroke="midnightblue" d="M560.532,-56.4435C598.098,-46.2497 660.425,-29.3371 697.521,-19.2707"/>
<polygon fill="midnightblue" stroke="midnightblue" points="698.539,-22.6211 707.273,-16.6243 696.706,-15.8654 698.539,-22.6211"/>
</g>
<!-- Node14 -->
<g id="node14" class="node"><title>Node14</title>
<polygon fill="white" stroke="#bfbfbf" points="1069.5,-0.5 1069.5,-19.5 1128.5,-19.5 1128.5,-0.5 1069.5,-0.5"/>
<text text-anchor="middle" x="1099" y="-7.5" font-family="Helvetica,sans-Serif" font-size="10.00">stdexcept</text>
</g>
<!-- Node13&#45;&gt;Node14 -->
<g id="edge15" class="edge"><title>Node13&#45;&gt;Node14</title>
<path fill="none" stroke="midnightblue" d="M565.088,-61.5811C666.47,-51.9765 953.334,-24.7999 1059.15,-14.7752"/>
<polygon fill="midnightblue" stroke="midnightblue" points="1059.77,-18.2321 1069.4,-13.8044 1059.11,-11.2633 1059.77,-18.2321"/>
</g>
<!-- Node15&#45;&gt;Node3 -->
<g id="edge21" class="edge"><title>Node15&#45;&gt;Node3</title>
<path fill="none" stroke="midnightblue" d="M811.707,-168.083C808.148,-160.691 802.978,-149.953 798.576,-140.811"/>
<polygon fill="midnightblue" stroke="midnightblue" points="801.705,-139.243 794.213,-131.751 795.398,-142.279 801.705,-139.243"/>
</g>
<!-- Node15&#45;&gt;Node4 -->
<g id="edge22" class="edge"><title>Node15&#45;&gt;Node4</title>
<path fill="none" stroke="midnightblue" d="M790.911,-168.717C773.151,-161.625 750.077,-149.717 736,-132 725.381,-118.635 720.696,-99.5228 718.629,-85.4809"/>
<polygon fill="midnightblue" stroke="midnightblue" points="722.102,-85.042 717.47,-75.5133 715.149,-85.8507 722.102,-85.042"/>
</g>
<!-- Node15&#45;&gt;Node7 -->
<g id="edge23" class="edge"><title>Node15&#45;&gt;Node7</title>
<path fill="none" stroke="midnightblue" d="M824.738,-168.118C835.985,-155.555 853.062,-131.906 844,-112 825.611,-71.6058 782.202,-41.0888 754.013,-24.651"/>
<polygon fill="midnightblue" stroke="midnightblue" points="755.525,-21.4855 745.096,-19.6223 752.087,-27.5829 755.525,-21.4855"/>
</g>
<!-- Node16&#45;&gt;Node4 -->
<g id="edge25" class="edge"><title>Node16&#45;&gt;Node4</title>
<path fill="none" stroke="midnightblue" d="M466.526,-113.32C523.919,-102.707 626.544,-83.7282 680.907,-73.6747"/>
<polygon fill="midnightblue" stroke="midnightblue" points="681.595,-77.1069 690.792,-71.8467 680.322,-70.2237 681.595,-77.1069"/>
</g>
<!-- Node17&#45;&gt;Node7 -->
<g id="edge28" class="edge"><title>Node17&#45;&gt;Node7</title>
<path fill="none" stroke="midnightblue" d="M1066.87,-58.4774C1062.22,-57.603 1057.49,-56.7503 1053,-56 945.323,-38.0262 816.722,-21.7438 758.872,-14.6937"/>
<polygon fill="midnightblue" stroke="midnightblue" points="758.942,-11.1766 748.594,-13.4476 758.1,-18.1257 758.942,-11.1766"/>
</g>
<!-- Node17&#45;&gt;Node14 -->
<g id="edge27" class="edge"><title>Node17&#45;&gt;Node14</title>
<path fill="none" stroke="midnightblue" d="M1099,-56.083C1099,-49.0059 1099,-38.8611 1099,-29.9865"/>
<polygon fill="midnightblue" stroke="midnightblue" points="1102.5,-29.751 1099,-19.7511 1095.5,-29.7511 1102.5,-29.751"/>
</g>
<!-- Node18&#45;&gt;Node4 -->
<g id="edge30" class="edge"><title>Node18&#45;&gt;Node4</title>
<path fill="none" stroke="midnightblue" d="M912.78,-168.268C899.484,-154.589 871.922,-128.017 844,-112 815.34,-95.5594 779.643,-83.5616 753.4,-76.109"/>
<polygon fill="midnightblue" stroke="midnightblue" points="754.058,-72.66 743.488,-73.3817 752.201,-79.4092 754.058,-72.66"/>
</g>
<!-- Node18&#45;&gt;Node8 -->
<g id="edge31" class="edge"><title>Node18&#45;&gt;Node8</title>
<path fill="none" stroke="midnightblue" d="M925.954,-168.083C930.104,-160.613 936.153,-149.724 941.267,-140.52"/>
<polygon fill="midnightblue" stroke="midnightblue" points="944.341,-142.192 946.138,-131.751 938.222,-138.793 944.341,-142.192"/>
</g>
<!-- Node19&#45;&gt;Node4 -->
<g id="edge34" class="edge"><title>Node19&#45;&gt;Node4</title>
<path fill="none" stroke="midnightblue" d="M1092.76,-168.448C1105.47,-155.016 1125.97,-128.776 1111,-112 1087.36,-85.5058 845.955,-72.4894 753.112,-68.434"/>
<polygon fill="midnightblue" stroke="midnightblue" points="753.201,-64.9347 743.061,-68.0047 752.902,-71.9283 753.201,-64.9347"/>
</g>
<!-- Node19&#45;&gt;Node5 -->
<g id="edge33" class="edge"><title>Node19&#45;&gt;Node5</title>
<path fill="none" stroke="midnightblue" d="M1084.17,-168.083C1084.3,-161.006 1084.48,-150.861 1084.65,-141.986"/>
<polygon fill="midnightblue" stroke="midnightblue" points="1088.15,-141.814 1084.84,-131.751 1081.15,-141.685 1088.15,-141.814"/>
</g>
<!-- Node19&#45;&gt;Node8 -->
<g id="edge36" class="edge"><title>Node19&#45;&gt;Node8</title>
<path fill="none" stroke="midnightblue" d="M1062.93,-168.444C1040.94,-159.517 1006.27,-145.439 981.336,-135.317"/>
<polygon fill="midnightblue" stroke="midnightblue" points="982.558,-132.035 971.976,-131.516 979.924,-138.521 982.558,-132.035"/>
</g>
<!-- Node20 -->
<g id="node20" class="node"><title>Node20</title>
<polygon fill="white" stroke="#bfbfbf" points="1245.5,-112.5 1245.5,-131.5 1288.5,-131.5 1288.5,-112.5 1245.5,-112.5"/>
<text text-anchor="middle" x="1267" y="-119.5" font-family="Helvetica,sans-Serif" font-size="10.00">queue</text>
</g>
<!-- Node19&#45;&gt;Node20 -->
<g id="edge35" class="edge"><title>Node19&#45;&gt;Node20</title>
<path fill="none" stroke="midnightblue" d="M1113,-168.444C1146.33,-158.606 1200.88,-142.512 1235.31,-132.352"/>
<polygon fill="midnightblue" stroke="midnightblue" points="1236.7,-135.59 1245.3,-129.403 1234.72,-128.876 1236.7,-135.59"/>
</g>
<!-- Node21&#45;&gt;Node4 -->
<g id="edge39" class="edge"><title>Node21&#45;&gt;Node4</title>
<path fill="none" stroke="midnightblue" d="M293.694,-168.337C292.115,-154.259 291.365,-126.53 307,-112 320.649,-99.3158 583.195,-77.5056 680.834,-69.7977"/>
<polygon fill="midnightblue" stroke="midnightblue" points="681.135,-73.285 690.83,-69.0125 680.587,-66.3065 681.135,-73.285"/>
</g>
<!-- Node21&#45;&gt;Node7 -->
<g id="edge41" class="edge"><title>Node21&#45;&gt;Node7</title>
<path fill="none" stroke="midnightblue" d="M291.462,-168.413C286.535,-154.933 279.528,-128.629 292,-112 341.222,-46.3706 605.898,-20.2913 697.095,-13.1695"/>
<polygon fill="midnightblue" stroke="midnightblue" points="697.624,-16.6396 707.33,-12.3936 697.094,-9.65963 697.624,-16.6396"/>
</g>
<!-- Node21&#45;&gt;Node10 -->
<g id="edge38" class="edge"><title>Node21&#45;&gt;Node10</title>
<path fill="none" stroke="midnightblue" d="M271.232,-168.444C246.107,-159.399 206.289,-145.064 178.1,-134.916"/>
<polygon fill="midnightblue" stroke="midnightblue" points="179.251,-131.611 168.657,-131.516 176.88,-138.197 179.251,-131.611"/>
</g>
<!-- Node22 -->
<g id="node22" class="node"><title>Node22</title>
<polygon fill="white" stroke="#bfbfbf" points="316.5,-112.5 316.5,-131.5 365.5,-131.5 365.5,-112.5 316.5,-112.5"/>
<text text-anchor="middle" x="341" y="-119.5" font-family="Helvetica,sans-Serif" font-size="10.00">random</text>
</g>
<!-- Node21&#45;&gt;Node22 -->
<g id="edge40" class="edge"><title>Node21&#45;&gt;Node22</title>
<path fill="none" stroke="midnightblue" d="M302.596,-168.083C309.227,-160.298 319.021,-148.801 327.058,-139.367"/>
<polygon fill="midnightblue" stroke="midnightblue" points="329.725,-141.633 333.545,-131.751 324.396,-137.094 329.725,-141.633"/>
</g>
<!-- Node23&#45;&gt;Node4 -->
<g id="edge43" class="edge"><title>Node23&#45;&gt;Node4</title>
<path fill="none" stroke="midnightblue" d="M1272.8,-168.357C1288.2,-155.033 1312.93,-129.214 1297,-112 1278.46,-91.9675 877.565,-73.6758 753.356,-68.4723"/>
<polygon fill="midnightblue" stroke="midnightblue" points="753.353,-64.9693 743.217,-68.051 753.063,-71.9633 753.353,-64.9693"/>
</g>
<!-- Node23&#45;&gt;Node6 -->
<g id="edge45" class="edge"><title>Node23&#45;&gt;Node6</title>
<path fill="none" stroke="midnightblue" d="M1247.86,-168.324C1234.13,-159.9 1213.06,-146.971 1196.94,-137.074"/>
<polygon fill="midnightblue" stroke="midnightblue" points="1198.46,-133.902 1188.1,-131.655 1194.8,-139.868 1198.46,-133.902"/>
</g>
<!-- Node23&#45;&gt;Node20 -->
<g id="edge44" class="edge"><title>Node23&#45;&gt;Node20</title>
<path fill="none" stroke="midnightblue" d="M1262.83,-168.083C1263.48,-161.006 1264.42,-150.861 1265.24,-141.986"/>
<polygon fill="midnightblue" stroke="midnightblue" points="1268.75,-142.031 1266.19,-131.751 1261.78,-141.386 1268.75,-142.031"/>
</g>
<!-- Node24&#45;&gt;Node4 -->
<g id="edge48" class="edge"><title>Node24&#45;&gt;Node4</title>
<path fill="none" stroke="midnightblue" d="M514.943,-168.321C509.251,-154.715 500.965,-128.241 514,-112 534.505,-86.4521 627.97,-74.5109 680.636,-69.7242"/>
<polygon fill="midnightblue" stroke="midnightblue" points="681.243,-73.1849 690.903,-68.8347 680.639,-66.211 681.243,-73.1849"/>
</g>
<!-- Node24&#45;&gt;Node22 -->
<g id="edge49" class="edge"><title>Node24&#45;&gt;Node22</title>
<path fill="none" stroke="midnightblue" d="M490.795,-168.444C459.524,-158.957 409.071,-143.651 375.478,-133.46"/>
<polygon fill="midnightblue" stroke="midnightblue" points="376.219,-130.027 365.633,-130.473 374.187,-136.725 376.219,-130.027"/>
</g>
<!-- Node25 -->
<g id="node25" class="node"><title>Node25</title>
<polygon fill="white" stroke="#bfbfbf" points="523.5,-112.5 523.5,-131.5 564.5,-131.5 564.5,-112.5 523.5,-112.5"/>
<text text-anchor="middle" x="544" y="-119.5" font-family="Helvetica,sans-Serif" font-size="10.00">ctime</text>
</g>
<!-- Node24&#45;&gt;Node25 -->
<g id="edge47" class="edge"><title>Node24&#45;&gt;Node25</title>
<path fill="none" stroke="midnightblue" d="M523.128,-168.083C526.514,-160.77 531.416,-150.181 535.619,-141.103"/>
<polygon fill="midnightblue" stroke="midnightblue" points="538.923,-142.296 539.949,-131.751 532.571,-139.355 538.923,-142.296"/>
</g>
<!-- Node26&#45;&gt;Node3 -->
<g id="edge51" class="edge"><title>Node26&#45;&gt;Node3</title>
<path fill="none" stroke="midnightblue" d="M696.834,-168.324C714.716,-159.625 742.475,-146.12 763.046,-136.113"/>
<polygon fill="midnightblue" stroke="midnightblue" points="764.749,-139.177 772.21,-131.655 761.687,-132.882 764.749,-139.177"/>
</g>
<!-- Node26&#45;&gt;Node4 -->
<g id="edge54" class="edge"><title>Node26&#45;&gt;Node4</title>
<path fill="none" stroke="midnightblue" d="M681.982,-168.368C688.142,-150.537 702.389,-109.295 710.688,-85.2717"/>
<polygon fill="midnightblue" stroke="midnightblue" points="714.075,-86.1862 714.032,-75.5914 707.459,-83.9005 714.075,-86.1862"/>
</g>
<!-- Node26&#45;&gt;Node7 -->
<g id="edge55" class="edge"><title>Node26&#45;&gt;Node7</title>
<path fill="none" stroke="midnightblue" d="M657.532,-168.411C633.876,-157.511 600.585,-137.075 612,-112 630.389,-71.6058 673.798,-41.0888 701.987,-24.651"/>
<polygon fill="midnightblue" stroke="midnightblue" points="703.913,-27.5829 710.904,-19.6223 700.475,-21.4855 703.913,-27.5829"/>
</g>
<!-- Node26&#45;&gt;Node8 -->
<g id="edge56" class="edge"><title>Node26&#45;&gt;Node8</title>
<path fill="none" stroke="midnightblue" d="M712.081,-170.433C764.665,-159.993 866.684,-139.739 918.745,-129.404"/>
<polygon fill="midnightblue" stroke="midnightblue" points="919.634,-132.795 928.761,-127.415 918.271,-125.929 919.634,-132.795"/>
</g>
<!-- Node26&#45;&gt;Node25 -->
<g id="edge52" class="edge"><title>Node26&#45;&gt;Node25</title>
<path fill="none" stroke="midnightblue" d="M657.609,-168.444C635.161,-159.465 599.682,-145.273 574.347,-135.139"/>
<polygon fill="midnightblue" stroke="midnightblue" points="575.432,-131.803 564.847,-131.339 572.832,-138.303 575.432,-131.803"/>
</g>
<!-- Node27 -->
<g id="node27" class="node"><title>Node27</title>
<polygon fill="white" stroke="#bfbfbf" points="621.5,-112.5 621.5,-131.5 650.5,-131.5 650.5,-112.5 621.5,-112.5"/>
<text text-anchor="middle" x="636" y="-119.5" font-family="Helvetica,sans-Serif" font-size="10.00">list</text>
</g>
<!-- Node26&#45;&gt;Node27 -->
<g id="edge53" class="edge"><title>Node26&#45;&gt;Node27</title>
<path fill="none" stroke="midnightblue" d="M671.899,-168.083C665.763,-160.377 656.73,-149.033 649.261,-139.653"/>
<polygon fill="midnightblue" stroke="midnightblue" points="651.936,-137.394 642.968,-131.751 646.46,-141.754 651.936,-137.394"/>
</g>
<!-- Node28&#45;&gt;Node7 -->
<g id="edge59" class="edge"><title>Node28&#45;&gt;Node7</title>
<path fill="none" stroke="midnightblue" d="M1149.35,-57.9082C1146.21,-57.2006 1143.04,-56.5441 1140,-56 998.809,-30.7617 827.699,-17.5436 758.868,-12.9286"/>
<polygon fill="midnightblue" stroke="midnightblue" points="758.927,-9.42502 748.719,-12.2612 758.468,-16.4099 758.927,-9.42502"/>
</g>
<!-- Node28&#45;&gt;Node14 -->
<g id="edge58" class="edge"><title>Node28&#45;&gt;Node14</title>
<path fill="none" stroke="midnightblue" d="M1163.63,-56.324C1151.84,-48.0577 1133.87,-35.4527 1119.86,-25.6322"/>
<polygon fill="midnightblue" stroke="midnightblue" points="1121.54,-22.5307 1111.34,-19.6545 1117.52,-28.2619 1121.54,-22.5307"/>
</g>
<!-- Node29&#45;&gt;Node4 -->
<g id="edge62" class="edge"><title>Node29&#45;&gt;Node4</title>
<path fill="none" stroke="midnightblue" d="M1182.16,-168.351C1193.99,-154.784 1212.9,-128.364 1198,-112 1168.21,-79.2909 860.756,-69.9304 753.595,-67.6504"/>
<polygon fill="midnightblue" stroke="midnightblue" points="753.352,-64.1448 743.283,-67.4399 753.209,-71.1434 753.352,-64.1448"/>
</g>
<!-- Node29&#45;&gt;Node5 -->
<g id="edge61" class="edge"><title>Node29&#45;&gt;Node5</title>
<path fill="none" stroke="midnightblue" d="M1159.7,-168.324C1145.82,-159.9 1124.51,-146.971 1108.2,-137.074"/>
<polygon fill="midnightblue" stroke="midnightblue" points="1109.63,-133.85 1099.26,-131.655 1106,-139.834 1109.63,-133.85"/>
</g>
<!-- Node29&#45;&gt;Node6 -->
<g id="edge63" class="edge"><title>Node29&#45;&gt;Node6</title>
<path fill="none" stroke="midnightblue" d="M1174,-168.083C1174,-161.006 1174,-150.861 1174,-141.986"/>
<polygon fill="midnightblue" stroke="midnightblue" points="1177.5,-141.751 1174,-131.751 1170.5,-141.751 1177.5,-141.751"/>
</g>
<!-- Node31 -->
<g id="node31" class="node"><title>Node31</title>
<polygon fill="white" stroke="#bfbfbf" points="1421,-112.5 1421,-131.5 1471,-131.5 1471,-112.5 1421,-112.5"/>
<text text-anchor="middle" x="1446" y="-119.5" font-family="Helvetica,sans-Serif" font-size="10.00">fstream</text>
</g>
<!-- Node30&#45;&gt;Node31 -->
<g id="edge65" class="edge"><title>Node30&#45;&gt;Node31</title>
<path fill="none" stroke="midnightblue" d="M1442.66,-168.083C1443.18,-161.006 1443.94,-150.861 1444.59,-141.986"/>
<polygon fill="midnightblue" stroke="midnightblue" points="1448.1,-141.982 1445.35,-131.751 1441.12,-141.465 1448.1,-141.982"/>
</g>
</g>
</svg>
