<?xml version="1.0" encoding="UTF-8" standalone="no"?>
<!DOCTYPE svg PUBLIC "-//W3C//DTD SVG 1.1//EN"
 "http://www.w3.org/Graphics/SVG/1.1/DTD/svg11.dtd">
<!-- Generated by graphviz version 2.38.0 (20140413.2041)
 -->
<!-- Title: include/ClientArrival.h Pages: 1 -->
<svg width="569pt" height="84pt"
 viewBox="0.00 0.00 568.50 84.00" xmlns="http://www.w3.org/2000/svg" xmlns:xlink="http://www.w3.org/1999/xlink">
<g id="graph0" class="graph" transform="scale(1 1) rotate(0) translate(4 80)">
<title>include/ClientArrival.h</title>
<polygon fill="white" stroke="none" points="-4,4 -4,-80 564.5,-80 564.5,4 -4,4"/>
<!-- Node1 -->
<g id="node1" class="node"><title>Node1</title>
<polygon fill="#bfbfbf" stroke="black" points="227,-56.5 227,-75.5 339,-75.5 339,-56.5 227,-56.5"/>
<text text-anchor="middle" x="283" y="-63.5" font-family="Helvetica,sans-Serif" font-size="10.00">include/ClientArrival.h</text>
</g>
<!-- Node2 -->
<g id="node2" class="node"><title>Node2</title>
<g id="a_node2"><a xlink:href="_building_8cpp.html" target="_top" xlink:title="src/Building.cpp">
<polygon fill="white" stroke="black" points="0,-0.5 0,-19.5 86,-19.5 86,-0.5 0,-0.5"/>
<text text-anchor="middle" x="43" y="-7.5" font-family="Helvetica,sans-Serif" font-size="10.00">src/Building.cpp</text>
</a>
</g>
</g>
<!-- Node1&#45;&gt;Node2 -->
<g id="edge1" class="edge"><title>Node1&#45;&gt;Node2</title>
<path fill="none" stroke="midnightblue" d="M235.077,-54.2172C189.726,-44.0134 122.558,-28.9006 80.8508,-19.5164"/>
<polygon fill="midnightblue" stroke="midnightblue" points="234.447,-57.663 244.971,-56.4435 235.984,-50.8337 234.447,-57.663"/>
</g>
<!-- Node3 -->
<g id="node3" class="node"><title>Node3</title>
<g id="a_node3"><a xlink:href="_client_arrival_8cpp.html" target="_top" xlink:title="src/ClientArrival.cpp">
<polygon fill="white" stroke="black" points="104.5,-0.5 104.5,-19.5 209.5,-19.5 209.5,-0.5 104.5,-0.5"/>
<text text-anchor="middle" x="157" y="-7.5" font-family="Helvetica,sans-Serif" font-size="10.00">src/ClientArrival.cpp</text>
</a>
</g>
</g>
<!-- Node1&#45;&gt;Node3 -->
<g id="edge2" class="edge"><title>Node1&#45;&gt;Node3</title>
<path fill="none" stroke="midnightblue" d="M253.84,-52.503C230.219,-42.3795 197.572,-28.388 176.872,-19.5164"/>
<polygon fill="midnightblue" stroke="midnightblue" points="252.465,-55.7213 263.035,-56.4435 255.222,-49.2873 252.465,-55.7213"/>
</g>
<!-- Node4 -->
<g id="node4" class="node"><title>Node4</title>
<g id="a_node4"><a xlink:href="_event_factory_8cpp.html" target="_top" xlink:title="src/EventFactory.cpp">
<polygon fill="white" stroke="black" points="228,-0.5 228,-19.5 338,-19.5 338,-0.5 228,-0.5"/>
<text text-anchor="middle" x="283" y="-7.5" font-family="Helvetica,sans-Serif" font-size="10.00">src/EventFactory.cpp</text>
</a>
</g>
</g>
<!-- Node1&#45;&gt;Node4 -->
<g id="edge3" class="edge"><title>Node1&#45;&gt;Node4</title>
<path fill="none" stroke="midnightblue" d="M283,-45.8045C283,-36.9102 283,-26.7798 283,-19.7511"/>
<polygon fill="midnightblue" stroke="midnightblue" points="279.5,-46.083 283,-56.083 286.5,-46.083 279.5,-46.083"/>
</g>
<!-- Node5 -->
<g id="node5" class="node"><title>Node5</title>
<g id="a_node5"><a xlink:href="_simulator_8cpp.html" target="_top" xlink:title="src/Simulator.cpp">
<polygon fill="white" stroke="black" points="356.5,-0.5 356.5,-19.5 449.5,-19.5 449.5,-0.5 356.5,-0.5"/>
<text text-anchor="middle" x="403" y="-7.5" font-family="Helvetica,sans-Serif" font-size="10.00">src/Simulator.cpp</text>
</a>
</g>
</g>
<!-- Node1&#45;&gt;Node5 -->
<g id="edge4" class="edge"><title>Node1&#45;&gt;Node5</title>
<path fill="none" stroke="midnightblue" d="M311.373,-52.2321C333.82,-42.1312 364.535,-28.3091 384.075,-19.5164"/>
<polygon fill="midnightblue" stroke="midnightblue" points="309.697,-49.1481 302.014,-56.4435 312.57,-55.5316 309.697,-49.1481"/>
</g>
<!-- Node6 -->
<g id="node6" class="node"><title>Node6</title>
<g id="a_node6"><a xlink:href="_statistics_8cpp.html" target="_top" xlink:title="src/Statistics.cpp">
<polygon fill="white" stroke="black" points="467.5,-0.5 467.5,-19.5 560.5,-19.5 560.5,-0.5 467.5,-0.5"/>
<text text-anchor="middle" x="514" y="-7.5" font-family="Helvetica,sans-Serif" font-size="10.00">src/Statistics.cpp</text>
</a>
</g>
</g>
<!-- Node1&#45;&gt;Node6 -->
<g id="edge5" class="edge"><title>Node1&#45;&gt;Node6</title>
<path fill="none" stroke="midnightblue" d="M329.402,-54.1529C373.047,-43.95 437.51,-28.8809 477.569,-19.5164"/>
<polygon fill="midnightblue" stroke="midnightblue" points="328.543,-50.7591 319.603,-56.4435 330.137,-57.5753 328.543,-50.7591"/>
</g>
</g>
</svg>
