<?xml version="1.0" encoding="UTF-8" standalone="no"?>
<!DOCTYPE svg PUBLIC "-//W3C//DTD SVG 1.1//EN"
 "http://www.w3.org/Graphics/SVG/1.1/DTD/svg11.dtd">
<!-- Generated by graphviz version 2.38.0 (20140413.2041)
 -->
<!-- Title: include/Client.h Pages: 1 -->
<!--zoomable 95 -->
<svg id="main" version="1.1" xmlns="http://www.w3.org/2000/svg" xmlns:xlink="http://www.w3.org/1999/xlink" xml:space="preserve" onload="init(evt)">
<style type="text/css"><![CDATA[
.edge:hover path { stroke: red; }
.edge:hover polygon { stroke: red; fill: red; }
]]></style>
<script type="text/javascript"><![CDATA[
var edges = document.getElementsByTagName('g');
if (edges && edges.length) {
  for (var i=0;i<edges.length;i++) {
    if (edges[i].id.substr(0,4)=='edge') {
      edges[i].setAttribute('class','edge');
    }
  }
}
]]></script>
        <defs>
                <circle id="rim" cx="0" cy="0" r="7"/>
                <circle id="rim2" cx="0" cy="0" r="3.5"/>
                <g id="zoomPlus">
                        <use xlink:href="#rim" fill="#404040">
                                <set attributeName="fill" to="#808080" begin="zoomplus.mouseover" end="zoomplus.mouseout"/>
                        </use>
                        <path d="M-4,0h8M0,-4v8" fill="none" stroke="white" stroke-width="1.5" pointer-events="none"/>
                </g>
                <g id="zoomMin">
                        <use xlink:href="#rim" fill="#404040">
                                <set attributeName="fill" to="#808080" begin="zoomminus.mouseover" end="zoomminus.mouseout"/>
                        </use>
                        <path d="M-4,0h8" fill="none" stroke="white" stroke-width="1.5" pointer-events="none"/>
                </g>
                <g id="dirArrow">
                        <path fill="none" stroke="white" stroke-width="1.5" d="M0,-3.0v7 M-2.5,-0.5L0,-3.0L2.5,-0.5"/>
                </g>
               <g id="resetDef">
                       <use xlink:href="#rim2" fill="#404040">
                               <set attributeName="fill" to="#808080" begin="reset.mouseover" end="reset.mouseout"/>
                       </use>
               </g>
        </defs>

<script type="text/javascript">
var viewWidth = 1796;
var viewHeight = 95;
var sectionId = 'dynsection-1';
</script>
<script xlink:href="svgpan.js"/>
<svg id="graph" class="graph">
<g id="viewport">
<title>include/Client.h</title>
<polygon fill="white" stroke="none" points="-4,4 -4,-91 1792,-91 1792,4 -4,4"/>
<!-- Node1 -->
<g id="node1" class="node"><title>Node1</title>
<polygon fill="#bfbfbf" stroke="black" points="816,-67.5 816,-86.5 900,-86.5 900,-67.5 816,-67.5"/>
<text text-anchor="middle" x="858" y="-74.5" font-family="Helvetica,sans-Serif" font-size="10.00">include/Client.h</text>
</g>
<!-- Node2 -->
<g id="node2" class="node"><title>Node2</title>
<g id="a_node2"><a xlink:href="_better_nearest_neighbour_cost_function_8cpp.html" target="_top" xlink:title="src/BetterNearestNeighbour\lCostFunction.cpp">
<polygon fill="white" stroke="black" points="0,-0.5 0,-30.5 138,-30.5 138,-0.5 0,-0.5"/>
<text text-anchor="start" x="8" y="-18.5" font-family="Helvetica,sans-Serif" font-size="10.00">src/BetterNearestNeighbour</text>
<text text-anchor="middle" x="69" y="-7.5" font-family="Helvetica,sans-Serif" font-size="10.00">CostFunction.cpp</text>
</a>
</g>
</g>
<!-- Node1&#45;&gt;Node2 -->
<g id="edge1" class="edge"><title>Node1&#45;&gt;Node2</title>
<path fill="none" stroke="midnightblue" d="M805.566,-74.8439C687.538,-71.7691 392.144,-61.4309 147,-31 144.13,-30.6437 141.205,-30.2482 138.255,-29.8225"/>
<polygon fill="midnightblue" stroke="midnightblue" points="805.677,-78.3477 815.762,-75.1028 805.854,-71.35 805.677,-78.3477"/>
</g>
<!-- Node3 -->
<g id="node3" class="node"><title>Node3</title>
<g id="a_node3"><a xlink:href="_building_8cpp.html" target="_top" xlink:title="src/Building.cpp">
<polygon fill="white" stroke="black" points="156,-6 156,-25 242,-25 242,-6 156,-6"/>
<text text-anchor="middle" x="199" y="-13" font-family="Helvetica,sans-Serif" font-size="10.00">src/Building.cpp</text>
</a>
</g>
</g>
<!-- Node1&#45;&gt;Node3 -->
<g id="edge2" class="edge"><title>Node1&#45;&gt;Node3</title>
<path fill="none" stroke="midnightblue" d="M805.617,-75.5935C699.941,-74.0112 453.991,-66.4655 251,-31 242.691,-29.5483 233.797,-27.3252 225.757,-25.0524"/>
<polygon fill="midnightblue" stroke="midnightblue" points="805.653,-79.0943 815.701,-75.7326 805.75,-72.0949 805.653,-79.0943"/>
</g>
<!-- Node4 -->
<g id="node4" class="node"><title>Node4</title>
<g id="a_node4"><a xlink:href="_client_8cpp.html" target="_top" xlink:title="src/Client.cpp">
<polygon fill="white" stroke="black" points="260.5,-6 260.5,-25 337.5,-25 337.5,-6 260.5,-6"/>
<text text-anchor="middle" x="299" y="-13" font-family="Helvetica,sans-Serif" font-size="10.00">src/Client.cpp</text>
</a>
</g>
</g>
<!-- Node1&#45;&gt;Node4 -->
<g id="edge3" class="edge"><title>Node1&#45;&gt;Node4</title>
<path fill="none" stroke="midnightblue" d="M805.747,-75.0449C712.547,-72.5372 511.852,-63.4913 346,-31 338.458,-29.5225 330.41,-27.2917 323.144,-25.0199"/>
<polygon fill="midnightblue" stroke="midnightblue" points="805.682,-78.5443 815.768,-75.3002 805.86,-71.5465 805.682,-78.5443"/>
</g>
<!-- Node5 -->
<g id="node5" class="node"><title>Node5</title>
<g id="a_node5"><a xlink:href="_client_arrival_8cpp.html" target="_top" xlink:title="src/ClientArrival.cpp">
<polygon fill="white" stroke="black" points="355.5,-6 355.5,-25 460.5,-25 460.5,-6 355.5,-6"/>
<text text-anchor="middle" x="408" y="-13" font-family="Helvetica,sans-Serif" font-size="10.00">src/ClientArrival.cpp</text>
</a>
</g>
</g>
<!-- Node1&#45;&gt;Node5 -->
<g id="edge4" class="edge"><title>Node1&#45;&gt;Node5</title>
<path fill="none" stroke="midnightblue" d="M805.618,-71.9203C730.645,-65.6332 588.582,-52.0533 469,-31 459.78,-29.3768 449.871,-27.2078 440.776,-25.0429"/>
<polygon fill="midnightblue" stroke="midnightblue" points="805.487,-75.4214 815.742,-72.7591 806.065,-68.4453 805.487,-75.4214"/>
</g>
<!-- Node6 -->
<g id="node6" class="node"><title>Node6</title>
<g id="a_node6"><a xlink:href="_dummy_cost_function_8cpp.html" target="_top" xlink:title="src/DummyCostFunction.cpp">
<polygon fill="white" stroke="black" points="478.5,-6 478.5,-25 623.5,-25 623.5,-6 478.5,-6"/>
<text text-anchor="middle" x="551" y="-13" font-family="Helvetica,sans-Serif" font-size="10.00">src/DummyCostFunction.cpp</text>
</a>
</g>
</g>
<!-- Node1&#45;&gt;Node6 -->
<g id="edge5" class="edge"><title>Node1&#45;&gt;Node6</title>
<path fill="none" stroke="midnightblue" d="M806.048,-65.9312C746.749,-54.4384 650.78,-35.8386 595.015,-25.0306"/>
<polygon fill="midnightblue" stroke="midnightblue" points="805.473,-69.3848 815.957,-67.8515 806.805,-62.5127 805.473,-69.3848"/>
</g>
<!-- Node7 -->
<g id="node7" class="node"><title>Node7</title>
<g id="a_node7"><a xlink:href="_elevator_8cpp.html" target="_top" xlink:title="src/Elevator.cpp">
<polygon fill="white" stroke="black" points="642,-6 642,-25 730,-25 730,-6 642,-6"/>
<text text-anchor="middle" x="686" y="-13" font-family="Helvetica,sans-Serif" font-size="10.00">src/Elevator.cpp</text>
</a>
</g>
</g>
<!-- Node1&#45;&gt;Node7 -->
<g id="edge6" class="edge"><title>Node1&#45;&gt;Node7</title>
<path fill="none" stroke="midnightblue" d="M823.55,-64.0828C790.116,-52.517 740.209,-35.2524 710.598,-25.0091"/>
<polygon fill="midnightblue" stroke="midnightblue" points="822.762,-67.5135 833.357,-67.4751 825.05,-60.8981 822.762,-67.5135"/>
</g>
<!-- Node8 -->
<g id="node8" class="node"><title>Node8</title>
<g id="a_node8"><a xlink:href="_event_factory_8cpp.html" target="_top" xlink:title="src/EventFactory.cpp">
<polygon fill="white" stroke="black" points="748,-6 748,-25 858,-25 858,-6 748,-6"/>
<text text-anchor="middle" x="803" y="-13" font-family="Helvetica,sans-Serif" font-size="10.00">src/EventFactory.cpp</text>
</a>
</g>
</g>
<!-- Node1&#45;&gt;Node8 -->
<g id="edge7" class="edge"><title>Node1&#45;&gt;Node8</title>
<path fill="none" stroke="midnightblue" d="M843.208,-59.9975C832.798,-48.7356 819.273,-34.1044 810.866,-25.0091"/>
<polygon fill="midnightblue" stroke="midnightblue" points="840.762,-62.5076 850.12,-67.4751 845.902,-57.756 840.762,-62.5076"/>
</g>
<!-- Node9 -->
<g id="node9" class="node"><title>Node9</title>
<g id="a_node9"><a xlink:href="_floor_8cpp.html" target="_top" xlink:title="src/Floor.cpp">
<polygon fill="white" stroke="black" points="876,-6 876,-25 950,-25 950,-6 876,-6"/>
<text text-anchor="middle" x="913" y="-13" font-family="Helvetica,sans-Serif" font-size="10.00">src/Floor.cpp</text>
</a>
</g>
</g>
<!-- Node1&#45;&gt;Node9 -->
<g id="edge8" class="edge"><title>Node1&#45;&gt;Node9</title>
<path fill="none" stroke="midnightblue" d="M872.792,-59.9975C883.202,-48.7356 896.727,-34.1044 905.134,-25.0091"/>
<polygon fill="midnightblue" stroke="midnightblue" points="870.098,-57.756 865.88,-67.4751 875.238,-62.5076 870.098,-57.756"/>
</g>
<!-- Node10 -->
<g id="node10" class="node"><title>Node10</title>
<g id="a_node10"><a xlink:href="_nearest_neighbour_cost_function_8cpp.html" target="_top" xlink:title="src/NearestNeighbourCost\lFunction.cpp">
<polygon fill="white" stroke="black" points="968.5,-0.5 968.5,-30.5 1101.5,-30.5 1101.5,-0.5 968.5,-0.5"/>
<text text-anchor="start" x="976.5" y="-18.5" font-family="Helvetica,sans-Serif" font-size="10.00">src/NearestNeighbourCost</text>
<text text-anchor="middle" x="1035" y="-7.5" font-family="Helvetica,sans-Serif" font-size="10.00">Function.cpp</text>
</a>
</g>
</g>
<!-- Node1&#45;&gt;Node10 -->
<g id="edge9" class="edge"><title>Node1&#45;&gt;Node10</title>
<path fill="none" stroke="midnightblue" d="M893.012,-64.2303C921.834,-54.5417 962.768,-40.7815 993.285,-30.523"/>
<polygon fill="midnightblue" stroke="midnightblue" points="891.723,-60.9711 883.36,-67.4751 893.954,-67.6062 891.723,-60.9711"/>
</g>
<!-- Node11 -->
<g id="node11" class="node"><title>Node11</title>
<g id="a_node11"><a xlink:href="_planning_scheduler_8cpp.html" target="_top" xlink:title="src/PlanningScheduler.cpp">
<polygon fill="white" stroke="black" points="1119.5,-6 1119.5,-25 1252.5,-25 1252.5,-6 1119.5,-6"/>
<text text-anchor="middle" x="1186" y="-13" font-family="Helvetica,sans-Serif" font-size="10.00">src/PlanningScheduler.cpp</text>
</a>
</g>
</g>
<!-- Node1&#45;&gt;Node11 -->
<g id="edge10" class="edge"><title>Node1&#45;&gt;Node11</title>
<path fill="none" stroke="midnightblue" d="M910.268,-66.9382C961.456,-58.0083 1041.65,-43.871 1111,-31 1121.17,-29.1124 1132.11,-27.029 1142.4,-25.0443"/>
<polygon fill="midnightblue" stroke="midnightblue" points="909.365,-63.5428 900.115,-68.7076 910.567,-70.4388 909.365,-63.5428"/>
</g>
<!-- Node12 -->
<g id="node12" class="node"><title>Node12</title>
<g id="a_node12"><a xlink:href="_simple_scheduler_8cpp.html" target="_top" xlink:title="src/SimpleScheduler.cpp">
<polygon fill="white" stroke="black" points="1270.5,-6 1270.5,-25 1395.5,-25 1395.5,-6 1270.5,-6"/>
<text text-anchor="middle" x="1333" y="-13" font-family="Helvetica,sans-Serif" font-size="10.00">src/SimpleScheduler.cpp</text>
</a>
</g>
</g>
<!-- Node1&#45;&gt;Node12 -->
<g id="edge11" class="edge"><title>Node1&#45;&gt;Node12</title>
<path fill="none" stroke="midnightblue" d="M910.458,-71.685C987.709,-64.9853 1136.49,-50.7641 1262,-31 1272.56,-29.3365 1283.94,-27.1791 1294.42,-25.0392"/>
<polygon fill="midnightblue" stroke="midnightblue" points="909.706,-68.2367 900.042,-72.5803 910.305,-75.211 909.706,-68.2367"/>
</g>
<!-- Node13 -->
<g id="node13" class="node"><title>Node13</title>
<g id="a_node13"><a xlink:href="_simulator_8cpp.html" target="_top" xlink:title="src/Simulator.cpp">
<polygon fill="white" stroke="black" points="1413.5,-6 1413.5,-25 1506.5,-25 1506.5,-6 1413.5,-6"/>
<text text-anchor="middle" x="1460" y="-13" font-family="Helvetica,sans-Serif" font-size="10.00">src/Simulator.cpp</text>
</a>
</g>
</g>
<!-- Node1&#45;&gt;Node13 -->
<g id="edge12" class="edge"><title>Node1&#45;&gt;Node13</title>
<path fill="none" stroke="midnightblue" d="M910.391,-74.7473C1008.24,-71.7326 1225.14,-61.8615 1405,-31 1413.66,-29.5138 1422.95,-27.3084 1431.38,-25.0635"/>
<polygon fill="midnightblue" stroke="midnightblue" points="910.069,-71.2552 900.177,-75.0502 910.276,-78.2521 910.069,-71.2552"/>
</g>
<!-- Node14 -->
<g id="node14" class="node"><title>Node14</title>
<g id="a_node14"><a xlink:href="_statistics_8cpp.html" target="_top" xlink:title="src/Statistics.cpp">
<polygon fill="white" stroke="black" points="1524.5,-6 1524.5,-25 1617.5,-25 1617.5,-6 1524.5,-6"/>
<text text-anchor="middle" x="1571" y="-13" font-family="Helvetica,sans-Serif" font-size="10.00">src/Statistics.cpp</text>
</a>
</g>
</g>
<!-- Node1&#45;&gt;Node14 -->
<g id="edge13" class="edge"><title>Node1&#45;&gt;Node14</title>
<path fill="none" stroke="midnightblue" d="M910.281,-75.7759C1022.16,-74.5642 1292.76,-67.7196 1516,-31 1524.77,-29.5575 1534.17,-27.3371 1542.68,-25.0641"/>
<polygon fill="midnightblue" stroke="midnightblue" points="910.239,-72.276 900.273,-75.8736 910.307,-79.2757 910.239,-72.276"/>
</g>
<!-- Node15 -->
<g id="node15" class="node"><title>Node15</title>
<g id="a_node15"><a xlink:href="_weighted_cost_function_8cpp.html" target="_top" xlink:title="src/WeightedCostFunction.cpp">
<polygon fill="white" stroke="black" points="1636,-6 1636,-25 1788,-25 1788,-6 1636,-6"/>
<text text-anchor="middle" x="1712" y="-13" font-family="Helvetica,sans-Serif" font-size="10.00">src/WeightedCostFunction.cpp</text>
</a>
</g>
</g>
<!-- Node1&#45;&gt;Node15 -->
<g id="edge14" class="edge"><title>Node1&#45;&gt;Node15</title>
<path fill="none" stroke="midnightblue" d="M910.259,-74.9324C1034.75,-71.9559 1358.51,-61.6616 1627,-31 1640.24,-29.4883 1654.54,-27.2752 1667.58,-25.031"/>
<polygon fill="midnightblue" stroke="midnightblue" points="910.153,-71.4338 900.237,-75.1664 910.316,-78.4319 910.153,-71.4338"/>
</g>
</g>
</svg>
        <g id="navigator" transform="translate(0 0)" fill="#404254">
                <rect fill="#f2f5e9" fill-opacity="0.5" stroke="#606060" stroke-width=".5" x="0" y="0" width="60" height="60"/>
                <use id="zoomplus" xlink:href="#zoomPlus" x="17" y="9" onmousedown="handleZoom(evt,'in')"/>
                <use id="zoomminus" xlink:href="#zoomMin" x="42" y="9" onmousedown="handleZoom(evt,'out')"/>
                <use id="reset" xlink:href="#resetDef" x="30" y="36" onmousedown="handleReset()"/>
                <g id="arrowUp" xlink:href="#dirArrow" transform="translate(30 24)" onmousedown="handlePan(0,-1)">
                  <use xlink:href="#rim" fill="#404040">
                        <set attributeName="fill" to="#808080" begin="arrowUp.mouseover" end="arrowUp.mouseout"/>
                  </use>
                  <path fill="none" stroke="white" stroke-width="1.5" d="M0,-3.0v7 M-2.5,-0.5L0,-3.0L2.5,-0.5"/>
                </g>
                <g id="arrowRight" xlink:href="#dirArrow" transform="rotate(90) translate(36 -43)" onmousedown="handlePan(1,0)">
                  <use xlink:href="#rim" fill="#404040">
                        <set attributeName="fill" to="#808080" begin="arrowRight.mouseover" end="arrowRight.mouseout"/>
                  </use>
                  <path fill="none" stroke="white" stroke-width="1.5" d="M0,-3.0v7 M-2.5,-0.5L0,-3.0L2.5,-0.5"/>
                </g>
                <g id="arrowDown" xlink:href="#dirArrow" transform="rotate(180) translate(-30 -48)" onmousedown="handlePan(0,1)">
                  <use xlink:href="#rim" fill="#404040">
                        <set attributeName="fill" to="#808080" begin="arrowDown.mouseover" end="arrowDown.mouseout"/>
                  </use>
                  <path fill="none" stroke="white" stroke-width="1.5" d="M0,-3.0v7 M-2.5,-0.5L0,-3.0L2.5,-0.5"/>
                </g>
                <g id="arrowLeft" xlink:href="#dirArrow" transform="rotate(270) translate(-36 17)" onmousedown="handlePan(-1,0)">
                  <use xlink:href="#rim" fill="#404040">
                        <set attributeName="fill" to="#808080" begin="arrowLeft.mouseover" end="arrowLeft.mouseout"/>
                  </use>
                  <path fill="none" stroke="white" stroke-width="1.5" d="M0,-3.0v7 M-2.5,-0.5L0,-3.0L2.5,-0.5"/>
                </g>
        </g>
        <svg viewBox="0 0 15 15" width="100%" height="30px" preserveAspectRatio="xMaxYMin meet">
         <g id="arrow_out" transform="scale(0.3 0.3)">
          <a xlink:href="_client_8h__dep__incl_org.svg" target="_base">
           <rect id="button" ry="5" rx="5" y="6" x="6" height="38" width="38"
                fill="#f2f5e9" fill-opacity="0.5" stroke="#606060" stroke-width="1.0"/>
           <path id="arrow"
             d="M 11.500037,31.436501 C 11.940474,20.09759 22.043105,11.32322 32.158766,21.979434 L 37.068811,17.246167 C 37.068811,17.246167 37.088388,32 37.088388,32 L 22.160133,31.978069 C 22.160133,31.978069 26.997745,27.140456 26.997745,27.140456 C 18.528582,18.264221 13.291696,25.230495 11.500037,31.436501 z"
             style="fill:#404040;"/>
          </a>
         </g>
        </svg>
</svg>
