<?xml version="1.0" encoding="UTF-8" standalone="no"?>
<!DOCTYPE svg PUBLIC "-//W3C//DTD SVG 1.1//EN"
 "http://www.w3.org/Graphics/SVG/1.1/DTD/svg11.dtd">
<!-- Generated by graphviz version 2.38.0 (20140413.2041)
 -->
<!-- Title: src/Client.cpp Pages: 1 -->
<svg width="402pt" height="140pt"
 viewBox="0.00 0.00 401.50 140.00" xmlns="http://www.w3.org/2000/svg" xmlns:xlink="http://www.w3.org/1999/xlink">
<g id="graph0" class="graph" transform="scale(1 1) rotate(0) translate(4 136)">
<title>src/Client.cpp</title>
<polygon fill="white" stroke="none" points="-4,4 -4,-136 397.5,-136 397.5,4 -4,4"/>
<!-- Node1 -->
<g id="node1" class="node"><title>Node1</title>
<polygon fill="#bfbfbf" stroke="black" points="160,-112.5 160,-131.5 237,-131.5 237,-112.5 160,-112.5"/>
<text text-anchor="middle" x="198.5" y="-119.5" font-family="Helvetica,sans-Serif" font-size="10.00">src/Client.cpp</text>
</g>
<!-- Node2 -->
<g id="node2" class="node"><title>Node2</title>
<g id="a_node2"><a xlink:href="_client_8h.html" target="_top" xlink:title="Client.h">
<polygon fill="white" stroke="black" points="173.5,-56.5 173.5,-75.5 223.5,-75.5 223.5,-56.5 173.5,-56.5"/>
<text text-anchor="middle" x="198.5" y="-63.5" font-family="Helvetica,sans-Serif" font-size="10.00">Client.h</text>
</a>
</g>
</g>
<!-- Node1&#45;&gt;Node2 -->
<g id="edge1" class="edge"><title>Node1&#45;&gt;Node2</title>
<path fill="none" stroke="midnightblue" d="M198.5,-112.083C198.5,-105.006 198.5,-94.8611 198.5,-85.9865"/>
<polygon fill="midnightblue" stroke="midnightblue" points="202,-85.751 198.5,-75.7511 195,-85.7511 202,-85.751"/>
</g>
<!-- Node5 -->
<g id="node5" class="node"><title>Node5</title>
<g id="a_node5"><a xlink:href="_direction_8h.html" target="_top" xlink:title="Direction.h">
<polygon fill="white" stroke="black" points="65.5,-56.5 65.5,-75.5 129.5,-75.5 129.5,-56.5 65.5,-56.5"/>
<text text-anchor="middle" x="97.5" y="-63.5" font-family="Helvetica,sans-Serif" font-size="10.00">Direction.h</text>
</a>
</g>
</g>
<!-- Node1&#45;&gt;Node5 -->
<g id="edge4" class="edge"><title>Node1&#45;&gt;Node5</title>
<path fill="none" stroke="midnightblue" d="M182.273,-112.324C166.149,-103.703 141.2,-90.3643 122.536,-80.3855"/>
<polygon fill="midnightblue" stroke="midnightblue" points="124.156,-77.283 113.687,-75.6545 120.856,-83.456 124.156,-77.283"/>
</g>
<!-- Node8 -->
<g id="node8" class="node"><title>Node8</title>
<g id="a_node8"><a xlink:href="_floor_8h.html" target="_top" xlink:title="Floor.h">
<polygon fill="white" stroke="black" points="267,-56.5 267,-75.5 314,-75.5 314,-56.5 267,-56.5"/>
<text text-anchor="middle" x="290.5" y="-63.5" font-family="Helvetica,sans-Serif" font-size="10.00">Floor.h</text>
</a>
</g>
</g>
<!-- Node1&#45;&gt;Node8 -->
<g id="edge7" class="edge"><title>Node1&#45;&gt;Node8</title>
<path fill="none" stroke="midnightblue" d="M213.281,-112.324C227.767,-103.822 250.073,-90.7288 266.993,-80.7975"/>
<polygon fill="midnightblue" stroke="midnightblue" points="268.903,-83.735 275.755,-75.6545 265.359,-77.6981 268.903,-83.735"/>
</g>
<!-- Node3 -->
<g id="node3" class="node"><title>Node3</title>
<polygon fill="white" stroke="#bfbfbf" points="136,-0.5 136,-19.5 213,-19.5 213,-0.5 136,-0.5"/>
<text text-anchor="middle" x="174.5" y="-7.5" font-family="Helvetica,sans-Serif" font-size="10.00">glog/logging.h</text>
</g>
<!-- Node2&#45;&gt;Node3 -->
<g id="edge2" class="edge"><title>Node2&#45;&gt;Node3</title>
<path fill="none" stroke="midnightblue" d="M194.537,-56.083C191.287,-48.77 186.581,-38.1814 182.546,-29.1034"/>
<polygon fill="midnightblue" stroke="midnightblue" points="185.649,-27.4677 178.389,-19.7511 179.252,-30.3107 185.649,-27.4677"/>
</g>
<!-- Node4 -->
<g id="node4" class="node"><title>Node4</title>
<polygon fill="white" stroke="#bfbfbf" points="231.5,-0.5 231.5,-19.5 283.5,-19.5 283.5,-0.5 231.5,-0.5"/>
<text text-anchor="middle" x="257.5" y="-7.5" font-family="Helvetica,sans-Serif" font-size="10.00">memory</text>
</g>
<!-- Node2&#45;&gt;Node4 -->
<g id="edge3" class="edge"><title>Node2&#45;&gt;Node4</title>
<path fill="none" stroke="midnightblue" d="M207.979,-56.324C216.701,-48.3414 229.843,-36.3128 240.398,-26.6529"/>
<polygon fill="midnightblue" stroke="midnightblue" points="242.834,-29.1674 247.848,-19.8339 238.108,-24.0036 242.834,-29.1674"/>
</g>
<!-- Node6 -->
<g id="node6" class="node"><title>Node6</title>
<polygon fill="white" stroke="#bfbfbf" points="0,-0.5 0,-19.5 59,-19.5 59,-0.5 0,-0.5"/>
<text text-anchor="middle" x="29.5" y="-7.5" font-family="Helvetica,sans-Serif" font-size="10.00">stdexcept</text>
</g>
<!-- Node5&#45;&gt;Node6 -->
<g id="edge5" class="edge"><title>Node5&#45;&gt;Node6</title>
<path fill="none" stroke="midnightblue" d="M86.5746,-56.324C76.3254,-48.1849 60.7794,-35.8395 48.499,-26.0874"/>
<polygon fill="midnightblue" stroke="midnightblue" points="50.6319,-23.3119 40.6242,-19.8339 46.2787,-28.7937 50.6319,-23.3119"/>
</g>
<!-- Node7 -->
<g id="node7" class="node"><title>Node7</title>
<polygon fill="white" stroke="#bfbfbf" points="77,-0.5 77,-19.5 118,-19.5 118,-0.5 77,-0.5"/>
<text text-anchor="middle" x="97.5" y="-7.5" font-family="Helvetica,sans-Serif" font-size="10.00">string</text>
</g>
<!-- Node5&#45;&gt;Node7 -->
<g id="edge6" class="edge"><title>Node5&#45;&gt;Node7</title>
<path fill="none" stroke="midnightblue" d="M97.5,-56.083C97.5,-49.0059 97.5,-38.8611 97.5,-29.9865"/>
<polygon fill="midnightblue" stroke="midnightblue" points="101,-29.751 97.5,-19.7511 94.0001,-29.7511 101,-29.751"/>
</g>
<!-- Node8&#45;&gt;Node4 -->
<g id="edge8" class="edge"><title>Node8&#45;&gt;Node4</title>
<path fill="none" stroke="midnightblue" d="M285.051,-56.083C280.486,-48.6127 273.832,-37.7244 268.207,-28.5199"/>
<polygon fill="midnightblue" stroke="midnightblue" points="271.049,-26.4588 262.848,-19.7511 265.076,-30.109 271.049,-26.4588"/>
</g>
<!-- Node9 -->
<g id="node9" class="node"><title>Node9</title>
<polygon fill="white" stroke="#bfbfbf" points="302,-0.5 302,-19.5 345,-19.5 345,-0.5 302,-0.5"/>
<text text-anchor="middle" x="323.5" y="-7.5" font-family="Helvetica,sans-Serif" font-size="10.00">queue</text>
</g>
<!-- Node8&#45;&gt;Node9 -->
<g id="edge9" class="edge"><title>Node8&#45;&gt;Node9</title>
<path fill="none" stroke="midnightblue" d="M295.949,-56.083C300.514,-48.6127 307.168,-37.7244 312.793,-28.5199"/>
<polygon fill="midnightblue" stroke="midnightblue" points="315.924,-30.109 318.152,-19.7511 309.951,-26.4588 315.924,-30.109"/>
</g>
<!-- Node10 -->
<g id="node10" class="node"><title>Node10</title>
<polygon fill="white" stroke="#bfbfbf" points="363.5,-0.5 363.5,-19.5 393.5,-19.5 393.5,-0.5 363.5,-0.5"/>
<text text-anchor="middle" x="378.5" y="-7.5" font-family="Helvetica,sans-Serif" font-size="10.00">set</text>
</g>
<!-- Node8&#45;&gt;Node10 -->
<g id="edge10" class="edge"><title>Node8&#45;&gt;Node10</title>
<path fill="none" stroke="midnightblue" d="M304.639,-56.324C318.366,-47.9002 339.436,-34.9709 355.564,-25.0741"/>
<polygon fill="midnightblue" stroke="midnightblue" points="357.704,-27.8678 364.396,-19.6545 354.043,-21.9016 357.704,-27.8678"/>
</g>
</g>
</svg>
