<?xml version="1.0" encoding="UTF-8" standalone="no"?>
<!DOCTYPE svg PUBLIC "-//W3C//DTD SVG 1.1//EN"
 "http://www.w3.org/Graphics/SVG/1.1/DTD/svg11.dtd">
<!-- Generated by graphviz version 2.38.0 (20140413.2041)
 -->
<!-- Title: include/Client.h Pages: 1 -->
<svg width="164pt" height="84pt"
 viewBox="0.00 0.00 164.00 84.00" xmlns="http://www.w3.org/2000/svg" xmlns:xlink="http://www.w3.org/1999/xlink">
<g id="graph0" class="graph" transform="scale(1 1) rotate(0) translate(4 80)">
<title>include/Client.h</title>
<polygon fill="white" stroke="none" points="-4,4 -4,-80 160,-80 160,4 -4,4"/>
<!-- Node1 -->
<g id="node1" class="node"><title>Node1</title>
<polygon fill="#bfbfbf" stroke="black" points="37.5,-56.5 37.5,-75.5 138.5,-75.5 138.5,-56.5 37.5,-56.5"/>
<text text-anchor="middle" x="88" y="-63.5" font-family="Ubuntu Mono" font-size="10.00">include/Client.h</text>
</g>
<!-- Node2 -->
<g id="node2" class="node"><title>Node2</title>
<polygon fill="white" stroke="#bfbfbf" points="0,-0.5 0,-19.5 90,-19.5 90,-0.5 0,-0.5"/>
<text text-anchor="middle" x="45" y="-7.5" font-family="Ubuntu Mono" font-size="10.00">glog/logging.h</text>
</g>
<!-- Node1&#45;&gt;Node2 -->
<g id="edge1" class="edge"><title>Node1&#45;&gt;Node2</title>
<path fill="none" stroke="midnightblue" d="M80.8994,-56.083C74.763,-48.3768 65.7303,-37.0333 58.2608,-27.6531"/>
<polygon fill="midnightblue" stroke="midnightblue" points="60.9357,-25.3936 51.9685,-19.7511 55.4598,-29.7542 60.9357,-25.3936"/>
</g>
<!-- Node3 -->
<g id="node3" class="node"><title>Node3</title>
<polygon fill="white" stroke="#bfbfbf" points="108,-0.5 108,-19.5 156,-19.5 156,-0.5 108,-0.5"/>
<text text-anchor="middle" x="132" y="-7.5" font-family="Ubuntu Mono" font-size="10.00">memory</text>
</g>
<!-- Node1&#45;&gt;Node3 -->
<g id="edge2" class="edge"><title>Node1&#45;&gt;Node3</title>
<path fill="none" stroke="midnightblue" d="M95.2657,-56.083C101.545,-48.3768 110.788,-37.0333 118.431,-27.6531"/>
<polygon fill="midnightblue" stroke="midnightblue" points="121.266,-29.7143 124.869,-19.7511 115.839,-25.2926 121.266,-29.7143"/>
</g>
</g>
</svg>
