<?xml version="1.0" encoding="UTF-8" standalone="no"?>
<!DOCTYPE svg PUBLIC "-//W3C//DTD SVG 1.1//EN"
 "http://www.w3.org/Graphics/SVG/1.1/DTD/svg11.dtd">
<!-- Generated by graphviz version 2.38.0 (20140413.2041)
 -->
<!-- Title: include/ClientArrival.h Pages: 1 -->
<svg width="267pt" height="196pt"
 viewBox="0.00 0.00 267.00 196.00" xmlns="http://www.w3.org/2000/svg" xmlns:xlink="http://www.w3.org/1999/xlink">
<g id="graph0" class="graph" transform="scale(1 1) rotate(0) translate(4 192)">
<title>include/ClientArrival.h</title>
<polygon fill="white" stroke="none" points="-4,4 -4,-192 263,-192 263,4 -4,4"/>
<!-- Node1 -->
<g id="node1" class="node"><title>Node1</title>
<polygon fill="#bfbfbf" stroke="black" points="94,-168.5 94,-187.5 206,-187.5 206,-168.5 94,-168.5"/>
<text text-anchor="middle" x="150" y="-175.5" font-family="Helvetica,sans-Serif" font-size="10.00">include/ClientArrival.h</text>
</g>
<!-- Node2 -->
<g id="node2" class="node"><title>Node2</title>
<g id="a_node2"><a xlink:href="_event_8h.html" target="_top" xlink:title="Event.h">
<polygon fill="white" stroke="black" points="43,-112.5 43,-131.5 93,-131.5 93,-112.5 43,-112.5"/>
<text text-anchor="middle" x="68" y="-119.5" font-family="Helvetica,sans-Serif" font-size="10.00">Event.h</text>
</a>
</g>
</g>
<!-- Node1&#45;&gt;Node2 -->
<g id="edge1" class="edge"><title>Node1&#45;&gt;Node2</title>
<path fill="none" stroke="midnightblue" d="M136.825,-168.324C124.153,-159.979 104.767,-147.212 89.7944,-137.352"/>
<polygon fill="midnightblue" stroke="midnightblue" points="91.4187,-134.231 81.142,-131.655 87.5688,-140.078 91.4187,-134.231"/>
</g>
<!-- Node6 -->
<g id="node6" class="node"><title>Node6</title>
<polygon fill="white" stroke="#bfbfbf" points="111.5,-112.5 111.5,-131.5 188.5,-131.5 188.5,-112.5 111.5,-112.5"/>
<text text-anchor="middle" x="150" y="-119.5" font-family="Helvetica,sans-Serif" font-size="10.00">glog/logging.h</text>
</g>
<!-- Node1&#45;&gt;Node6 -->
<g id="edge6" class="edge"><title>Node1&#45;&gt;Node6</title>
<path fill="none" stroke="midnightblue" d="M150,-168.083C150,-161.006 150,-150.861 150,-141.986"/>
<polygon fill="midnightblue" stroke="midnightblue" points="153.5,-141.751 150,-131.751 146.5,-141.751 153.5,-141.751"/>
</g>
<!-- Node7 -->
<g id="node7" class="node"><title>Node7</title>
<polygon fill="white" stroke="#bfbfbf" points="207,-112.5 207,-131.5 259,-131.5 259,-112.5 207,-112.5"/>
<text text-anchor="middle" x="233" y="-119.5" font-family="Helvetica,sans-Serif" font-size="10.00">memory</text>
</g>
<!-- Node1&#45;&gt;Node7 -->
<g id="edge7" class="edge"><title>Node1&#45;&gt;Node7</title>
<path fill="none" stroke="midnightblue" d="M163.335,-168.324C176.162,-159.979 195.785,-147.212 210.94,-137.352"/>
<polygon fill="midnightblue" stroke="midnightblue" points="213.224,-140.042 219.698,-131.655 209.407,-134.174 213.224,-140.042"/>
</g>
<!-- Node3 -->
<g id="node3" class="node"><title>Node3</title>
<g id="a_node3"><a xlink:href="_event_type_8h.html" target="_top" xlink:title="EventType.h">
<polygon fill="white" stroke="black" points="0,-56.5 0,-75.5 72,-75.5 72,-56.5 0,-56.5"/>
<text text-anchor="middle" x="36" y="-63.5" font-family="Helvetica,sans-Serif" font-size="10.00">EventType.h</text>
</a>
</g>
</g>
<!-- Node2&#45;&gt;Node3 -->
<g id="edge2" class="edge"><title>Node2&#45;&gt;Node3</title>
<path fill="none" stroke="midnightblue" d="M62.7159,-112.083C58.289,-104.613 51.8367,-93.7244 46.3821,-84.5199"/>
<polygon fill="midnightblue" stroke="midnightblue" points="49.2949,-82.5697 41.1858,-75.7511 43.2729,-86.1383 49.2949,-82.5697"/>
</g>
<!-- Node5 -->
<g id="node5" class="node"><title>Node5</title>
<polygon fill="white" stroke="#bfbfbf" points="79.5,-0.5 79.5,-19.5 120.5,-19.5 120.5,-0.5 79.5,-0.5"/>
<text text-anchor="middle" x="100" y="-7.5" font-family="Helvetica,sans-Serif" font-size="10.00">string</text>
</g>
<!-- Node2&#45;&gt;Node5 -->
<g id="edge5" class="edge"><title>Node2&#45;&gt;Node5</title>
<path fill="none" stroke="midnightblue" d="M70.511,-112.368C75.6984,-94.5366 87.6959,-53.2953 94.6846,-29.2717"/>
<polygon fill="midnightblue" stroke="midnightblue" points="98.068,-30.1711 97.5007,-19.5914 91.3466,-28.2157 98.068,-30.1711"/>
</g>
<!-- Node4 -->
<g id="node4" class="node"><title>Node4</title>
<polygon fill="white" stroke="#bfbfbf" points="2.5,-0.5 2.5,-19.5 61.5,-19.5 61.5,-0.5 2.5,-0.5"/>
<text text-anchor="middle" x="32" y="-7.5" font-family="Helvetica,sans-Serif" font-size="10.00">stdexcept</text>
</g>
<!-- Node3&#45;&gt;Node4 -->
<g id="edge3" class="edge"><title>Node3&#45;&gt;Node4</title>
<path fill="none" stroke="midnightblue" d="M35.3395,-56.083C34.8152,-49.0059 34.0638,-38.8611 33.4064,-29.9865"/>
<polygon fill="midnightblue" stroke="midnightblue" points="36.8775,-29.4652 32.6482,-19.7511 29.8966,-29.9823 36.8775,-29.4652"/>
</g>
<!-- Node3&#45;&gt;Node5 -->
<g id="edge4" class="edge"><title>Node3&#45;&gt;Node5</title>
<path fill="none" stroke="midnightblue" d="M46.2827,-56.324C55.8363,-48.2631 70.2797,-36.0765 81.7843,-26.3695"/>
<polygon fill="midnightblue" stroke="midnightblue" points="84.1443,-28.9577 89.5302,-19.8339 79.6302,-23.6076 84.1443,-28.9577"/>
</g>
</g>
</svg>
