<?xml version="1.0" encoding="UTF-8" standalone="no"?>
<!DOCTYPE svg PUBLIC "-//W3C//DTD SVG 1.1//EN"
 "http://www.w3.org/Graphics/SVG/1.1/DTD/svg11.dtd">
<!-- Generated by graphviz version 2.38.0 (20140413.2041)
 -->
<!-- Title: src/Client.cpp Pages: 1 -->
<svg width="424pt" height="140pt"
 viewBox="0.00 0.00 424.00 140.00" xmlns="http://www.w3.org/2000/svg" xmlns:xlink="http://www.w3.org/1999/xlink">
<g id="graph0" class="graph" transform="scale(1 1) rotate(0) translate(4 136)">
<title>src/Client.cpp</title>
<polygon fill="white" stroke="none" points="-4,4 -4,-136 420,-136 420,4 -4,4"/>
<!-- Node1 -->
<g id="node1" class="node"><title>Node1</title>
<polygon fill="#bfbfbf" stroke="black" points="170,-112.5 170,-131.5 260,-131.5 260,-112.5 170,-112.5"/>
<text text-anchor="middle" x="215" y="-119.5" font-family="Ubuntu Mono" font-size="10.00">src/Client.cpp</text>
</g>
<!-- Node2 -->
<g id="node2" class="node"><title>Node2</title>
<g id="a_node2"><a xlink:href="_client_8h.html" target="_top" xlink:title="Client.h">
<polygon fill="white" stroke="black" points="185.5,-56.5 185.5,-75.5 244.5,-75.5 244.5,-56.5 185.5,-56.5"/>
<text text-anchor="middle" x="215" y="-63.5" font-family="Ubuntu Mono" font-size="10.00">Client.h</text>
</a>
</g>
</g>
<!-- Node1&#45;&gt;Node2 -->
<g id="edge1" class="edge"><title>Node1&#45;&gt;Node2</title>
<path fill="none" stroke="midnightblue" d="M215,-112.083C215,-105.006 215,-94.8611 215,-85.9865"/>
<polygon fill="midnightblue" stroke="midnightblue" points="218.5,-85.751 215,-75.7511 211.5,-85.7511 218.5,-85.751"/>
</g>
<!-- Node5 -->
<g id="node5" class="node"><title>Node5</title>
<g id="a_node5"><a xlink:href="_direction_8h.html" target="_top" xlink:title="Direction.h">
<polygon fill="white" stroke="black" points="69,-56.5 69,-75.5 143,-75.5 143,-56.5 69,-56.5"/>
<text text-anchor="middle" x="106" y="-63.5" font-family="Ubuntu Mono" font-size="10.00">Direction.h</text>
</a>
</g>
</g>
<!-- Node1&#45;&gt;Node5 -->
<g id="edge4" class="edge"><title>Node1&#45;&gt;Node5</title>
<path fill="none" stroke="midnightblue" d="M197.487,-112.324C179.928,-103.625 152.669,-90.1202 132.469,-80.113"/>
<polygon fill="midnightblue" stroke="midnightblue" points="133.984,-76.9575 123.469,-75.6545 130.876,-83.23 133.984,-76.9575"/>
</g>
<!-- Node8 -->
<g id="node8" class="node"><title>Node8</title>
<g id="a_node8"><a xlink:href="_floor_8h.html" target="_top" xlink:title="Floor.h">
<polygon fill="white" stroke="black" points="285.5,-56.5 285.5,-75.5 338.5,-75.5 338.5,-56.5 285.5,-56.5"/>
<text text-anchor="middle" x="312" y="-63.5" font-family="Ubuntu Mono" font-size="10.00">Floor.h</text>
</a>
</g>
</g>
<!-- Node1&#45;&gt;Node8 -->
<g id="edge7" class="edge"><title>Node1&#45;&gt;Node8</title>
<path fill="none" stroke="midnightblue" d="M230.585,-112.324C245.999,-103.743 269.812,-90.486 287.71,-80.5224"/>
<polygon fill="midnightblue" stroke="midnightblue" points="289.419,-83.5767 296.454,-75.6545 286.014,-77.4606 289.419,-83.5767"/>
</g>
<!-- Node3 -->
<g id="node3" class="node"><title>Node3</title>
<polygon fill="white" stroke="#bfbfbf" points="148,-0.5 148,-19.5 238,-19.5 238,-0.5 148,-0.5"/>
<text text-anchor="middle" x="193" y="-7.5" font-family="Ubuntu Mono" font-size="10.00">glog/logging.h</text>
</g>
<!-- Node2&#45;&gt;Node3 -->
<g id="edge2" class="edge"><title>Node2&#45;&gt;Node3</title>
<path fill="none" stroke="midnightblue" d="M211.367,-56.083C208.388,-48.77 204.074,-38.1814 200.375,-29.1034"/>
<polygon fill="midnightblue" stroke="midnightblue" points="203.58,-27.6914 196.565,-19.7511 197.097,-30.3326 203.58,-27.6914"/>
</g>
<!-- Node4 -->
<g id="node4" class="node"><title>Node4</title>
<polygon fill="white" stroke="#bfbfbf" points="256,-0.5 256,-19.5 304,-19.5 304,-0.5 256,-0.5"/>
<text text-anchor="middle" x="280" y="-7.5" font-family="Ubuntu Mono" font-size="10.00">memory</text>
</g>
<!-- Node2&#45;&gt;Node4 -->
<g id="edge3" class="edge"><title>Node2&#45;&gt;Node4</title>
<path fill="none" stroke="midnightblue" d="M225.443,-56.324C235.146,-48.2631 249.815,-36.0765 261.5,-26.3695"/>
<polygon fill="midnightblue" stroke="midnightblue" points="263.911,-28.9163 269.367,-19.8339 259.438,-23.532 263.911,-28.9163"/>
</g>
<!-- Node6 -->
<g id="node6" class="node"><title>Node6</title>
<polygon fill="white" stroke="#bfbfbf" points="0,-0.5 0,-19.5 64,-19.5 64,-0.5 0,-0.5"/>
<text text-anchor="middle" x="32" y="-7.5" font-family="Ubuntu Mono" font-size="10.00">stdexcept</text>
</g>
<!-- Node5&#45;&gt;Node6 -->
<g id="edge5" class="edge"><title>Node5&#45;&gt;Node6</title>
<path fill="none" stroke="midnightblue" d="M94.1106,-56.324C82.8498,-48.1066 65.7134,-35.6017 52.2909,-25.8069"/>
<polygon fill="midnightblue" stroke="midnightblue" points="54.2468,-22.9014 44.1057,-19.8339 50.1205,-28.5559 54.2468,-22.9014"/>
</g>
<!-- Node7 -->
<g id="node7" class="node"><title>Node7</title>
<polygon fill="white" stroke="#bfbfbf" points="82,-0.5 82,-19.5 130,-19.5 130,-0.5 82,-0.5"/>
<text text-anchor="middle" x="106" y="-7.5" font-family="Ubuntu Mono" font-size="10.00">string</text>
</g>
<!-- Node5&#45;&gt;Node7 -->
<g id="edge6" class="edge"><title>Node5&#45;&gt;Node7</title>
<path fill="none" stroke="midnightblue" d="M106,-56.083C106,-49.0059 106,-38.8611 106,-29.9865"/>
<polygon fill="midnightblue" stroke="midnightblue" points="109.5,-29.751 106,-19.7511 102.5,-29.7511 109.5,-29.751"/>
</g>
<!-- Node8&#45;&gt;Node4 -->
<g id="edge8" class="edge"><title>Node8&#45;&gt;Node4</title>
<path fill="none" stroke="midnightblue" d="M306.716,-56.083C302.289,-48.6127 295.837,-37.7244 290.382,-28.5199"/>
<polygon fill="midnightblue" stroke="midnightblue" points="293.295,-26.5697 285.186,-19.7511 287.273,-30.1383 293.295,-26.5697"/>
</g>
<!-- Node9 -->
<g id="node9" class="node"><title>Node9</title>
<polygon fill="white" stroke="#bfbfbf" points="322.5,-0.5 322.5,-19.5 365.5,-19.5 365.5,-0.5 322.5,-0.5"/>
<text text-anchor="middle" x="344" y="-7.5" font-family="Ubuntu Mono" font-size="10.00">queue</text>
</g>
<!-- Node8&#45;&gt;Node9 -->
<g id="edge9" class="edge"><title>Node8&#45;&gt;Node9</title>
<path fill="none" stroke="midnightblue" d="M317.284,-56.083C321.711,-48.6127 328.163,-37.7244 333.618,-28.5199"/>
<polygon fill="midnightblue" stroke="midnightblue" points="336.727,-30.1383 338.814,-19.7511 330.705,-26.5697 336.727,-30.1383"/>
</g>
<!-- Node10 -->
<g id="node10" class="node"><title>Node10</title>
<polygon fill="white" stroke="#bfbfbf" points="384,-0.5 384,-19.5 416,-19.5 416,-0.5 384,-0.5"/>
<text text-anchor="middle" x="400" y="-7.5" font-family="Ubuntu Mono" font-size="10.00">set</text>
</g>
<!-- Node8&#45;&gt;Node10 -->
<g id="edge10" class="edge"><title>Node8&#45;&gt;Node10</title>
<path fill="none" stroke="midnightblue" d="M326.139,-56.324C339.866,-47.9002 360.936,-34.9709 377.064,-25.0741"/>
<polygon fill="midnightblue" stroke="midnightblue" points="379.204,-27.8678 385.896,-19.6545 375.543,-21.9016 379.204,-27.8678"/>
</g>
</g>
</svg>
