<?xml version="1.0" encoding="UTF-8" standalone="no"?>
<!DOCTYPE svg PUBLIC "-//W3C//DTD SVG 1.1//EN"
 "http://www.w3.org/Graphics/SVG/1.1/DTD/svg11.dtd">
<!-- Generated by graphviz version 2.38.0 (20140413.2041)
 -->
<!-- Title: src/ClientArrival.cpp Pages: 1 -->
<svg width="384pt" height="252pt"
 viewBox="0.00 0.00 383.50 252.00" xmlns="http://www.w3.org/2000/svg" xmlns:xlink="http://www.w3.org/1999/xlink">
<g id="graph0" class="graph" transform="scale(1 1) rotate(0) translate(4 248)">
<title>src/ClientArrival.cpp</title>
<polygon fill="white" stroke="none" points="-4,4 -4,-248 379.5,-248 379.5,4 -4,4"/>
<!-- Node1 -->
<g id="node1" class="node"><title>Node1</title>
<polygon fill="#bfbfbf" stroke="black" points="192.5,-224.5 192.5,-243.5 319.5,-243.5 319.5,-224.5 192.5,-224.5"/>
<text text-anchor="middle" x="256" y="-231.5" font-family="Ubuntu Mono" font-size="10.00">src/ClientArrival.cpp</text>
</g>
<!-- Node2 -->
<g id="node2" class="node"><title>Node2</title>
<g id="a_node2"><a xlink:href="_client_8h.html" target="_top" xlink:title="Client.h">
<polygon fill="white" stroke="black" points="55.5,-168.5 55.5,-187.5 114.5,-187.5 114.5,-168.5 55.5,-168.5"/>
<text text-anchor="middle" x="85" y="-175.5" font-family="Ubuntu Mono" font-size="10.00">Client.h</text>
</a>
</g>
</g>
<!-- Node1&#45;&gt;Node2 -->
<g id="edge1" class="edge"><title>Node1&#45;&gt;Node2</title>
<path fill="none" stroke="midnightblue" d="M228.905,-224.444C200.012,-215.32 154.075,-200.813 121.895,-190.651"/>
<polygon fill="midnightblue" stroke="midnightblue" points="122.559,-187.19 111.969,-187.516 120.451,-193.865 122.559,-187.19"/>
</g>
<!-- Node5 -->
<g id="node5" class="node"><title>Node5</title>
<g id="a_node5"><a xlink:href="_client_arrival_8h.html" target="_top" xlink:title="ClientArrival.h">
<polygon fill="white" stroke="black" points="132.5,-168.5 132.5,-187.5 227.5,-187.5 227.5,-168.5 132.5,-168.5"/>
<text text-anchor="middle" x="180" y="-175.5" font-family="Ubuntu Mono" font-size="10.00">ClientArrival.h</text>
</a>
</g>
</g>
<!-- Node1&#45;&gt;Node5 -->
<g id="edge4" class="edge"><title>Node1&#45;&gt;Node5</title>
<path fill="none" stroke="midnightblue" d="M243.789,-224.324C232.224,-216.107 214.625,-203.602 200.839,-193.807"/>
<polygon fill="midnightblue" stroke="midnightblue" points="202.612,-190.773 192.433,-187.834 198.557,-196.479 202.612,-190.773"/>
</g>
<!-- Node7 -->
<g id="node7" class="node"><title>Node7</title>
<g id="a_node7"><a xlink:href="_event_type_8h.html" target="_top" xlink:title="EventType.h">
<polygon fill="white" stroke="black" points="284,-56.5 284,-75.5 358,-75.5 358,-56.5 284,-56.5"/>
<text text-anchor="middle" x="321" y="-63.5" font-family="Ubuntu Mono" font-size="10.00">EventType.h</text>
</a>
</g>
</g>
<!-- Node1&#45;&gt;Node7 -->
<g id="edge12" class="edge"><title>Node1&#45;&gt;Node7</title>
<path fill="none" stroke="midnightblue" d="M259.495,-224.075C269.771,-197.832 300.033,-120.545 313.906,-85.1165"/>
<polygon fill="midnightblue" stroke="midnightblue" points="317.258,-86.1559 317.645,-75.5681 310.74,-83.6036 317.258,-86.1559"/>
</g>
<!-- Node9 -->
<g id="node9" class="node"><title>Node9</title>
<polygon fill="white" stroke="#bfbfbf" points="227,-0.5 227,-19.5 275,-19.5 275,-0.5 227,-0.5"/>
<text text-anchor="middle" x="251" y="-7.5" font-family="Ubuntu Mono" font-size="10.00">string</text>
</g>
<!-- Node1&#45;&gt;Node9 -->
<g id="edge14" class="edge"><title>Node1&#45;&gt;Node9</title>
<path fill="none" stroke="midnightblue" d="M255.804,-224.297C255.068,-191.633 252.461,-75.8661 251.427,-29.9573"/>
<polygon fill="midnightblue" stroke="midnightblue" points="254.924,-29.8024 251.2,-19.8837 247.926,-29.9601 254.924,-29.8024"/>
</g>
<!-- Node10 -->
<g id="node10" class="node"><title>Node10</title>
<polygon fill="white" stroke="#bfbfbf" points="322.5,-168.5 322.5,-187.5 375.5,-187.5 375.5,-168.5 322.5,-168.5"/>
<text text-anchor="middle" x="349" y="-175.5" font-family="Ubuntu Mono" font-size="10.00">sstream</text>
</g>
<!-- Node1&#45;&gt;Node10 -->
<g id="edge13" class="edge"><title>Node1&#45;&gt;Node10</title>
<path fill="none" stroke="midnightblue" d="M270.942,-224.324C285.585,-215.822 308.134,-202.729 325.238,-192.797"/>
<polygon fill="midnightblue" stroke="midnightblue" points="327.205,-195.703 334.095,-187.655 323.69,-189.649 327.205,-195.703"/>
</g>
<!-- Node3 -->
<g id="node3" class="node"><title>Node3</title>
<polygon fill="white" stroke="#bfbfbf" points="66,-112.5 66,-131.5 156,-131.5 156,-112.5 66,-112.5"/>
<text text-anchor="middle" x="111" y="-119.5" font-family="Ubuntu Mono" font-size="10.00">glog/logging.h</text>
</g>
<!-- Node2&#45;&gt;Node3 -->
<g id="edge2" class="edge"><title>Node2&#45;&gt;Node3</title>
<path fill="none" stroke="midnightblue" d="M89.2934,-168.083C92.8523,-160.691 98.0225,-149.953 102.424,-140.811"/>
<polygon fill="midnightblue" stroke="midnightblue" points="105.602,-142.279 106.787,-131.751 99.2948,-139.243 105.602,-142.279"/>
</g>
<!-- Node4 -->
<g id="node4" class="node"><title>Node4</title>
<polygon fill="white" stroke="#bfbfbf" points="0,-112.5 0,-131.5 48,-131.5 48,-112.5 0,-112.5"/>
<text text-anchor="middle" x="24" y="-119.5" font-family="Ubuntu Mono" font-size="10.00">memory</text>
</g>
<!-- Node2&#45;&gt;Node4 -->
<g id="edge3" class="edge"><title>Node2&#45;&gt;Node4</title>
<path fill="none" stroke="midnightblue" d="M75.1993,-168.324C66.1819,-160.341 52.594,-148.313 41.682,-138.653"/>
<polygon fill="midnightblue" stroke="midnightblue" points="43.7866,-135.842 33.979,-131.834 39.1467,-141.083 43.7866,-135.842"/>
</g>
<!-- Node5&#45;&gt;Node3 -->
<g id="edge10" class="edge"><title>Node5&#45;&gt;Node3</title>
<path fill="none" stroke="midnightblue" d="M168.914,-168.324C158.514,-160.185 142.739,-147.839 130.278,-138.087"/>
<polygon fill="midnightblue" stroke="midnightblue" points="132.32,-135.241 122.288,-131.834 128.006,-140.753 132.32,-135.241"/>
</g>
<!-- Node5&#45;&gt;Node4 -->
<g id="edge11" class="edge"><title>Node5&#45;&gt;Node4</title>
<path fill="none" stroke="midnightblue" d="M155.281,-168.444C128.998,-159.345 87.2529,-144.895 57.9075,-134.737"/>
<polygon fill="midnightblue" stroke="midnightblue" points="58.6852,-131.303 48.0904,-131.339 56.3954,-137.918 58.6852,-131.303"/>
</g>
<!-- Node6 -->
<g id="node6" class="node"><title>Node6</title>
<g id="a_node6"><a xlink:href="_event_8h.html" target="_top" xlink:title="Event.h">
<polygon fill="white" stroke="black" points="174.5,-112.5 174.5,-131.5 227.5,-131.5 227.5,-112.5 174.5,-112.5"/>
<text text-anchor="middle" x="201" y="-119.5" font-family="Ubuntu Mono" font-size="10.00">Event.h</text>
</a>
</g>
</g>
<!-- Node5&#45;&gt;Node6 -->
<g id="edge5" class="edge"><title>Node5&#45;&gt;Node6</title>
<path fill="none" stroke="midnightblue" d="M183.468,-168.083C186.312,-160.77 190.429,-150.181 193.96,-141.103"/>
<polygon fill="midnightblue" stroke="midnightblue" points="197.234,-142.34 197.597,-131.751 190.71,-139.803 197.234,-142.34"/>
</g>
<!-- Node6&#45;&gt;Node7 -->
<g id="edge6" class="edge"><title>Node6&#45;&gt;Node7</title>
<path fill="none" stroke="midnightblue" d="M220.014,-112.444C239.588,-103.636 270.308,-89.8116 292.729,-79.722"/>
<polygon fill="midnightblue" stroke="midnightblue" points="294.392,-82.8119 302.075,-75.5164 291.519,-76.4284 294.392,-82.8119"/>
</g>
<!-- Node6&#45;&gt;Node9 -->
<g id="edge9" class="edge"><title>Node6&#45;&gt;Node9</title>
<path fill="none" stroke="midnightblue" d="M204.923,-112.368C213.065,-94.4563 231.944,-52.9233 242.842,-28.9482"/>
<polygon fill="midnightblue" stroke="midnightblue" points="246.143,-30.1434 247.095,-19.5914 239.77,-27.2468 246.143,-30.1434"/>
</g>
<!-- Node8 -->
<g id="node8" class="node"><title>Node8</title>
<polygon fill="white" stroke="#bfbfbf" points="293,-0.5 293,-19.5 357,-19.5 357,-0.5 293,-0.5"/>
<text text-anchor="middle" x="325" y="-7.5" font-family="Ubuntu Mono" font-size="10.00">stdexcept</text>
</g>
<!-- Node7&#45;&gt;Node8 -->
<g id="edge7" class="edge"><title>Node7&#45;&gt;Node8</title>
<path fill="none" stroke="midnightblue" d="M321.661,-56.083C322.185,-49.0059 322.936,-38.8611 323.594,-29.9865"/>
<polygon fill="midnightblue" stroke="midnightblue" points="327.103,-29.9823 324.352,-19.7511 320.123,-29.4652 327.103,-29.9823"/>
</g>
<!-- Node7&#45;&gt;Node9 -->
<g id="edge8" class="edge"><title>Node7&#45;&gt;Node9</title>
<path fill="none" stroke="midnightblue" d="M309.753,-56.324C299.203,-48.1849 283.199,-35.8395 270.558,-26.0874"/>
<polygon fill="midnightblue" stroke="midnightblue" points="272.507,-23.1707 262.451,-19.8339 268.231,-28.7132 272.507,-23.1707"/>
</g>
</g>
</svg>
