<?xml version="1.0" encoding="UTF-8" standalone="no"?>
<!DOCTYPE svg PUBLIC "-//W3C//DTD SVG 1.1//EN"
 "http://www.w3.org/Graphics/SVG/1.1/DTD/svg11.dtd">
<!-- Generated by graphviz version 2.38.0 (20140413.2041)
 -->
<!-- Title: include/ClientArrival.h Pages: 1 -->
<svg width="282pt" height="196pt"
 viewBox="0.00 0.00 282.00 196.00" xmlns="http://www.w3.org/2000/svg" xmlns:xlink="http://www.w3.org/1999/xlink">
<g id="graph0" class="graph" transform="scale(1 1) rotate(0) translate(4 192)">
<title>include/ClientArrival.h</title>
<polygon fill="white" stroke="none" points="-4,4 -4,-192 278,-192 278,4 -4,4"/>
<!-- Node1 -->
<g id="node1" class="node"><title>Node1</title>
<polygon fill="#bfbfbf" stroke="black" points="94.5,-168.5 94.5,-187.5 231.5,-187.5 231.5,-168.5 94.5,-168.5"/>
<text text-anchor="middle" x="163" y="-175.5" font-family="Ubuntu Mono" font-size="10.00">include/ClientArrival.h</text>
</g>
<!-- Node2 -->
<g id="node2" class="node"><title>Node2</title>
<g id="a_node2"><a xlink:href="_event_8h.html" target="_top" xlink:title="Event.h">
<polygon fill="white" stroke="black" points="46.5,-112.5 46.5,-131.5 99.5,-131.5 99.5,-112.5 46.5,-112.5"/>
<text text-anchor="middle" x="73" y="-119.5" font-family="Ubuntu Mono" font-size="10.00">Event.h</text>
</a>
</g>
</g>
<!-- Node1&#45;&gt;Node2 -->
<g id="edge1" class="edge"><title>Node1&#45;&gt;Node2</title>
<path fill="none" stroke="midnightblue" d="M148.54,-168.324C134.5,-159.9 112.952,-146.971 96.4569,-137.074"/>
<polygon fill="midnightblue" stroke="midnightblue" points="97.7999,-133.798 87.4242,-131.655 94.1984,-139.801 97.7999,-133.798"/>
</g>
<!-- Node6 -->
<g id="node6" class="node"><title>Node6</title>
<polygon fill="white" stroke="#bfbfbf" points="118,-112.5 118,-131.5 208,-131.5 208,-112.5 118,-112.5"/>
<text text-anchor="middle" x="163" y="-119.5" font-family="Ubuntu Mono" font-size="10.00">glog/logging.h</text>
</g>
<!-- Node1&#45;&gt;Node6 -->
<g id="edge6" class="edge"><title>Node1&#45;&gt;Node6</title>
<path fill="none" stroke="midnightblue" d="M163,-168.083C163,-161.006 163,-150.861 163,-141.986"/>
<polygon fill="midnightblue" stroke="midnightblue" points="166.5,-141.751 163,-131.751 159.5,-141.751 166.5,-141.751"/>
</g>
<!-- Node7 -->
<g id="node7" class="node"><title>Node7</title>
<polygon fill="white" stroke="#bfbfbf" points="226,-112.5 226,-131.5 274,-131.5 274,-112.5 226,-112.5"/>
<text text-anchor="middle" x="250" y="-119.5" font-family="Ubuntu Mono" font-size="10.00">memory</text>
</g>
<!-- Node1&#45;&gt;Node7 -->
<g id="edge7" class="edge"><title>Node1&#45;&gt;Node7</title>
<path fill="none" stroke="midnightblue" d="M176.978,-168.324C190.55,-159.9 211.38,-146.971 227.325,-137.074"/>
<polygon fill="midnightblue" stroke="midnightblue" points="229.406,-139.902 236.057,-131.655 225.714,-133.954 229.406,-139.902"/>
</g>
<!-- Node3 -->
<g id="node3" class="node"><title>Node3</title>
<g id="a_node3"><a xlink:href="_event_type_8h.html" target="_top" xlink:title="EventType.h">
<polygon fill="white" stroke="black" points="4,-56.5 4,-75.5 78,-75.5 78,-56.5 4,-56.5"/>
<text text-anchor="middle" x="41" y="-63.5" font-family="Ubuntu Mono" font-size="10.00">EventType.h</text>
</a>
</g>
</g>
<!-- Node2&#45;&gt;Node3 -->
<g id="edge2" class="edge"><title>Node2&#45;&gt;Node3</title>
<path fill="none" stroke="midnightblue" d="M67.7159,-112.083C63.289,-104.613 56.8367,-93.7244 51.3821,-84.5199"/>
<polygon fill="midnightblue" stroke="midnightblue" points="54.2949,-82.5697 46.1858,-75.7511 48.2729,-86.1383 54.2949,-82.5697"/>
</g>
<!-- Node5 -->
<g id="node5" class="node"><title>Node5</title>
<polygon fill="white" stroke="#bfbfbf" points="82,-0.5 82,-19.5 130,-19.5 130,-0.5 82,-0.5"/>
<text text-anchor="middle" x="106" y="-7.5" font-family="Ubuntu Mono" font-size="10.00">string</text>
</g>
<!-- Node2&#45;&gt;Node5 -->
<g id="edge5" class="edge"><title>Node2&#45;&gt;Node5</title>
<path fill="none" stroke="midnightblue" d="M75.7281,-112.387C78.5823,-103.339 83.1717,-88.6897 87,-76 91.7222,-60.3473 96.9206,-42.5199 100.684,-29.4992"/>
<polygon fill="midnightblue" stroke="midnightblue" points="104.06,-30.4239 103.467,-19.8457 97.3341,-28.4852 104.06,-30.4239"/>
</g>
<!-- Node4 -->
<g id="node4" class="node"><title>Node4</title>
<polygon fill="white" stroke="#bfbfbf" points="0,-0.5 0,-19.5 64,-19.5 64,-0.5 0,-0.5"/>
<text text-anchor="middle" x="32" y="-7.5" font-family="Ubuntu Mono" font-size="10.00">stdexcept</text>
</g>
<!-- Node3&#45;&gt;Node4 -->
<g id="edge3" class="edge"><title>Node3&#45;&gt;Node4</title>
<path fill="none" stroke="midnightblue" d="M39.5138,-56.083C38.3212,-48.9272 36.6059,-38.6353 35.1152,-29.6911"/>
<polygon fill="midnightblue" stroke="midnightblue" points="38.555,-29.0396 33.4585,-19.7511 31.6502,-30.1904 38.555,-29.0396"/>
</g>
<!-- Node3&#45;&gt;Node5 -->
<g id="edge4" class="edge"><title>Node3&#45;&gt;Node5</title>
<path fill="none" stroke="midnightblue" d="M51.4434,-56.324C61.1462,-48.2631 75.8153,-36.0765 87.4997,-26.3695"/>
<polygon fill="midnightblue" stroke="midnightblue" points="89.9113,-28.9163 95.3666,-19.8339 85.4381,-23.532 89.9113,-28.9163"/>
</g>
</g>
</svg>
