<?xml version="1.0" encoding="UTF-8" standalone="no"?>
<!DOCTYPE svg PUBLIC "-//W3C//DTD SVG 1.1//EN"
 "http://www.w3.org/Graphics/SVG/1.1/DTD/svg11.dtd">
<!-- Generated by graphviz version 2.38.0 (20140413.2041)
 -->
<!-- Title: include/Client.h Pages: 1 -->
<!--zoomable 207 -->
<svg id="main" version="1.1" xmlns="http://www.w3.org/2000/svg" xmlns:xlink="http://www.w3.org/1999/xlink" xml:space="preserve" onload="init(evt)">
<style type="text/css"><![CDATA[
.edge:hover path { stroke: red; }
.edge:hover polygon { stroke: red; fill: red; }
]]></style>
<script type="text/javascript"><![CDATA[
var edges = document.getElementsByTagName('g');
if (edges && edges.length) {
  for (var i=0;i<edges.length;i++) {
    if (edges[i].id.substr(0,4)=='edge') {
      edges[i].setAttribute('class','edge');
    }
  }
}
]]></script>
        <defs>
                <circle id="rim" cx="0" cy="0" r="7"/>
                <circle id="rim2" cx="0" cy="0" r="3.5"/>
                <g id="zoomPlus">
                        <use xlink:href="#rim" fill="#404040">
                                <set attributeName="fill" to="#808080" begin="zoomplus.mouseover" end="zoomplus.mouseout"/>
                        </use>
                        <path d="M-4,0h8M0,-4v8" fill="none" stroke="white" stroke-width="1.5" pointer-events="none"/>
                </g>
                <g id="zoomMin">
                        <use xlink:href="#rim" fill="#404040">
                                <set attributeName="fill" to="#808080" begin="zoomminus.mouseover" end="zoomminus.mouseout"/>
                        </use>
                        <path d="M-4,0h8" fill="none" stroke="white" stroke-width="1.5" pointer-events="none"/>
                </g>
                <g id="dirArrow">
                        <path fill="none" stroke="white" stroke-width="1.5" d="M0,-3.0v7 M-2.5,-0.5L0,-3.0L2.5,-0.5"/>
                </g>
               <g id="resetDef">
                       <use xlink:href="#rim2" fill="#404040">
                               <set attributeName="fill" to="#808080" begin="reset.mouseover" end="reset.mouseout"/>
                       </use>
               </g>
        </defs>

<script type="text/javascript">
var viewWidth = 1731;
var viewHeight = 207;
var sectionId = 'dynsection-1';
</script>
<script xlink:href="svgpan.js"/>
<svg id="graph" class="graph">
<g id="viewport">
<title>include/Client.h</title>
<polygon fill="white" stroke="none" points="-4,4 -4,-203 1727,-203 1727,4 -4,4"/>
<!-- Node1 -->
<g id="node1" class="node"><title>Node1</title>
<polygon fill="#bfbfbf" stroke="black" points="816,-179.5 816,-198.5 900,-198.5 900,-179.5 816,-179.5"/>
<text text-anchor="middle" x="858" y="-186.5" font-family="Helvetica,sans-Serif" font-size="10.00">include/Client.h</text>
</g>
<!-- Node2 -->
<g id="node2" class="node"><title>Node2</title>
<g id="a_node2"><a xlink:href="_better_nearest_neighbour_cost_function_8cpp.html" target="_top" xlink:title="src/BetterNearestNeighbour\lCostFunction.cpp">
<polygon fill="white" stroke="black" points="0,-112.5 0,-142.5 138,-142.5 138,-112.5 0,-112.5"/>
<text text-anchor="start" x="8" y="-130.5" font-family="Helvetica,sans-Serif" font-size="10.00">src/BetterNearestNeighbour</text>
<text text-anchor="middle" x="69" y="-119.5" font-family="Helvetica,sans-Serif" font-size="10.00">CostFunction.cpp</text>
</a>
</g>
</g>
<!-- Node1&#45;&gt;Node2 -->
<g id="edge1" class="edge"><title>Node1&#45;&gt;Node2</title>
<path fill="none" stroke="midnightblue" d="M805.566,-186.844C687.538,-183.769 392.144,-173.431 147,-143 144.13,-142.644 141.205,-142.248 138.255,-141.823"/>
<polygon fill="midnightblue" stroke="midnightblue" points="805.677,-190.348 815.762,-187.103 805.854,-183.35 805.677,-190.348"/>
</g>
<!-- Node3 -->
<g id="node3" class="node"><title>Node3</title>
<g id="a_node3"><a xlink:href="_building_8cpp.html" target="_top" xlink:title="src/Building.cpp">
<polygon fill="white" stroke="black" points="156,-118 156,-137 242,-137 242,-118 156,-118"/>
<text text-anchor="middle" x="199" y="-125" font-family="Helvetica,sans-Serif" font-size="10.00">src/Building.cpp</text>
</a>
</g>
</g>
<!-- Node1&#45;&gt;Node3 -->
<g id="edge2" class="edge"><title>Node1&#45;&gt;Node3</title>
<path fill="none" stroke="midnightblue" d="M805.718,-187.501C700.243,-185.753 454.742,-177.924 252,-143 243.539,-141.543 234.477,-139.318 226.281,-137.045"/>
<polygon fill="midnightblue" stroke="midnightblue" points="805.729,-191.002 815.782,-187.657 805.837,-184.003 805.729,-191.002"/>
</g>
<!-- Node4 -->
<g id="node4" class="node"><title>Node4</title>
<g id="a_node4"><a xlink:href="_client_8cpp.html" target="_top" xlink:title="src/Client.cpp">
<polygon fill="white" stroke="black" points="260.5,-118 260.5,-137 337.5,-137 337.5,-118 260.5,-118"/>
<text text-anchor="middle" x="299" y="-125" font-family="Helvetica,sans-Serif" font-size="10.00">src/Client.cpp</text>
</a>
</g>
</g>
<!-- Node1&#45;&gt;Node4 -->
<g id="edge3" class="edge"><title>Node1&#45;&gt;Node4</title>
<path fill="none" stroke="midnightblue" d="M805.868,-186.936C712.881,-184.259 512.622,-174.956 347,-143 339.307,-141.516 331.091,-139.283 323.67,-137.011"/>
<polygon fill="midnightblue" stroke="midnightblue" points="805.774,-190.435 815.866,-187.21 805.966,-183.437 805.774,-190.435"/>
</g>
<!-- Node5 -->
<g id="node5" class="node"><title>Node5</title>
<g id="a_node5"><a xlink:href="_client_arrival_8cpp.html" target="_top" xlink:title="src/ClientArrival.cpp">
<polygon fill="white" stroke="black" points="355.5,-118 355.5,-137 460.5,-137 460.5,-118 355.5,-118"/>
<text text-anchor="middle" x="408" y="-125" font-family="Helvetica,sans-Serif" font-size="10.00">src/ClientArrival.cpp</text>
</a>
</g>
</g>
<!-- Node1&#45;&gt;Node5 -->
<g id="edge4" class="edge"><title>Node1&#45;&gt;Node5</title>
<path fill="none" stroke="midnightblue" d="M805.763,-183.851C730.996,-177.481 589.314,-163.801 470,-143 460.635,-141.367 450.565,-139.195 441.32,-137.03"/>
<polygon fill="midnightblue" stroke="midnightblue" points="805.601,-187.35 815.86,-184.701 806.189,-180.374 805.601,-187.35"/>
</g>
<!-- Node6 -->
<g id="node6" class="node"><title>Node6</title>
<g id="a_node6"><a xlink:href="_dummy_cost_function_8cpp.html" target="_top" xlink:title="src/DummyCostFunction.cpp">
<polygon fill="white" stroke="black" points="478.5,-118 478.5,-137 623.5,-137 623.5,-118 478.5,-118"/>
<text text-anchor="middle" x="551" y="-125" font-family="Helvetica,sans-Serif" font-size="10.00">src/DummyCostFunction.cpp</text>
</a>
</g>
</g>
<!-- Node1&#45;&gt;Node6 -->
<g id="edge5" class="edge"><title>Node1&#45;&gt;Node6</title>
<path fill="none" stroke="midnightblue" d="M806.048,-177.931C746.749,-166.438 650.78,-147.839 595.015,-137.031"/>
<polygon fill="midnightblue" stroke="midnightblue" points="805.473,-181.385 815.957,-179.852 806.805,-174.513 805.473,-181.385"/>
</g>
<!-- Node7 -->
<g id="node7" class="node"><title>Node7</title>
<g id="a_node7"><a xlink:href="_elevator_8cpp.html" target="_top" xlink:title="src/Elevator.cpp">
<polygon fill="white" stroke="black" points="642,-118 642,-137 730,-137 730,-118 642,-118"/>
<text text-anchor="middle" x="686" y="-125" font-family="Helvetica,sans-Serif" font-size="10.00">src/Elevator.cpp</text>
</a>
</g>
</g>
<!-- Node1&#45;&gt;Node7 -->
<g id="edge6" class="edge"><title>Node1&#45;&gt;Node7</title>
<path fill="none" stroke="midnightblue" d="M823.55,-176.083C790.116,-164.517 740.209,-147.252 710.598,-137.009"/>
<polygon fill="midnightblue" stroke="midnightblue" points="822.762,-179.513 833.357,-179.475 825.05,-172.898 822.762,-179.513"/>
</g>
<!-- Node8 -->
<g id="node8" class="node"><title>Node8</title>
<g id="a_node8"><a xlink:href="_event_factory_8cpp.html" target="_top" xlink:title="src/EventFactory.cpp">
<polygon fill="white" stroke="black" points="748,-118 748,-137 858,-137 858,-118 748,-118"/>
<text text-anchor="middle" x="803" y="-125" font-family="Helvetica,sans-Serif" font-size="10.00">src/EventFactory.cpp</text>
</a>
</g>
</g>
<!-- Node1&#45;&gt;Node8 -->
<g id="edge7" class="edge"><title>Node1&#45;&gt;Node8</title>
<path fill="none" stroke="midnightblue" d="M843.208,-171.997C832.798,-160.736 819.273,-146.104 810.866,-137.009"/>
<polygon fill="midnightblue" stroke="midnightblue" points="840.762,-174.508 850.12,-179.475 845.902,-169.756 840.762,-174.508"/>
</g>
<!-- Node9 -->
<g id="node9" class="node"><title>Node9</title>
<g id="a_node9"><a xlink:href="_floor_8cpp.html" target="_top" xlink:title="src/Floor.cpp">
<polygon fill="white" stroke="black" points="876,-118 876,-137 950,-137 950,-118 876,-118"/>
<text text-anchor="middle" x="913" y="-125" font-family="Helvetica,sans-Serif" font-size="10.00">src/Floor.cpp</text>
</a>
</g>
</g>
<!-- Node1&#45;&gt;Node9 -->
<g id="edge8" class="edge"><title>Node1&#45;&gt;Node9</title>
<path fill="none" stroke="midnightblue" d="M872.792,-171.997C883.202,-160.736 896.727,-146.104 905.134,-137.009"/>
<polygon fill="midnightblue" stroke="midnightblue" points="870.098,-169.756 865.88,-179.475 875.238,-174.508 870.098,-169.756"/>
</g>
<!-- Node10 -->
<g id="node10" class="node"><title>Node10</title>
<g id="a_node10"><a xlink:href="_nearest_neighbour_cost_function_8cpp.html" target="_top" xlink:title="src/NearestNeighbourCost\lFunction.cpp">
<polygon fill="white" stroke="black" points="968.5,-112.5 968.5,-142.5 1101.5,-142.5 1101.5,-112.5 968.5,-112.5"/>
<text text-anchor="start" x="976.5" y="-130.5" font-family="Helvetica,sans-Serif" font-size="10.00">src/NearestNeighbourCost</text>
<text text-anchor="middle" x="1035" y="-119.5" font-family="Helvetica,sans-Serif" font-size="10.00">Function.cpp</text>
</a>
</g>
</g>
<!-- Node1&#45;&gt;Node10 -->
<g id="edge9" class="edge"><title>Node1&#45;&gt;Node10</title>
<path fill="none" stroke="midnightblue" d="M893.012,-176.23C921.834,-166.542 962.768,-152.782 993.285,-142.523"/>
<polygon fill="midnightblue" stroke="midnightblue" points="891.723,-172.971 883.36,-179.475 893.954,-179.606 891.723,-172.971"/>
</g>
<!-- Node11 -->
<g id="node11" class="node"><title>Node11</title>
<g id="a_node11"><a xlink:href="_simple_scheduler_8cpp.html" target="_top" xlink:title="src/SimpleScheduler.cpp">
<polygon fill="white" stroke="black" points="1119.5,-118 1119.5,-137 1244.5,-137 1244.5,-118 1119.5,-118"/>
<text text-anchor="middle" x="1182" y="-125" font-family="Helvetica,sans-Serif" font-size="10.00">src/SimpleScheduler.cpp</text>
</a>
</g>
</g>
<!-- Node1&#45;&gt;Node11 -->
<g id="edge10" class="edge"><title>Node1&#45;&gt;Node11</title>
<path fill="none" stroke="midnightblue" d="M910.298,-179.098C961.509,-170.286 1041.72,-156.234 1111,-143 1120.76,-141.135 1131.26,-139.041 1141.11,-137.035"/>
<polygon fill="midnightblue" stroke="midnightblue" points="909.403,-175.7 900.14,-180.842 910.588,-182.599 909.403,-175.7"/>
</g>
<!-- Node12 -->
<g id="node12" class="node"><title>Node12</title>
<g id="a_node12"><a xlink:href="_simulator_8cpp.html" target="_top" xlink:title="src/Simulator.cpp">
<polygon fill="white" stroke="black" points="1416.5,-0.5 1416.5,-19.5 1509.5,-19.5 1509.5,-0.5 1416.5,-0.5"/>
<text text-anchor="middle" x="1463" y="-7.5" font-family="Helvetica,sans-Serif" font-size="10.00">src/Simulator.cpp</text>
</a>
</g>
</g>
<!-- Node1&#45;&gt;Node12 -->
<g id="edge11" class="edge"><title>Node1&#45;&gt;Node12</title>
<path fill="none" stroke="midnightblue" d="M910.04,-185.645C1002.87,-180.86 1192.99,-168.247 1254,-143 1274.46,-134.533 1274.77,-124.573 1293,-112 1347.54,-74.3788 1416.47,-36.0775 1447.09,-19.5045"/>
<polygon fill="midnightblue" stroke="midnightblue" points="909.834,-182.151 900.023,-186.151 910.187,-189.142 909.834,-182.151"/>
</g>
<!-- Node13 -->
<g id="node13" class="node"><title>Node13</title>
<g id="a_node13"><a xlink:href="_statistics_8cpp.html" target="_top" xlink:title="src/Statistics.cpp">
<polygon fill="white" stroke="black" points="1301.5,-118 1301.5,-137 1394.5,-137 1394.5,-118 1301.5,-118"/>
<text text-anchor="middle" x="1348" y="-125" font-family="Helvetica,sans-Serif" font-size="10.00">src/Statistics.cpp</text>
</a>
</g>
</g>
<!-- Node1&#45;&gt;Node13 -->
<g id="edge12" class="edge"><title>Node1&#45;&gt;Node13</title>
<path fill="none" stroke="midnightblue" d="M910.715,-184.667C991.942,-179.038 1152.41,-165.956 1287,-143 1296.34,-141.408 1306.37,-139.223 1315.55,-137.032"/>
<polygon fill="midnightblue" stroke="midnightblue" points="910.001,-181.208 900.262,-185.381 910.478,-188.192 910.001,-181.208"/>
</g>
<!-- Node14 -->
<g id="node14" class="node"><title>Node14</title>
<g id="a_node14"><a xlink:href="_weighted_cost_function_8cpp.html" target="_top" xlink:title="src/WeightedCostFunction.cpp">
<polygon fill="white" stroke="black" points="1413,-118 1413,-137 1565,-137 1565,-118 1413,-118"/>
<text text-anchor="middle" x="1489" y="-125" font-family="Helvetica,sans-Serif" font-size="10.00">src/WeightedCostFunction.cpp</text>
</a>
</g>
</g>
<!-- Node1&#45;&gt;Node14 -->
<g id="edge13" class="edge"><title>Node1&#45;&gt;Node14</title>
<path fill="none" stroke="midnightblue" d="M910.437,-185.196C1007.91,-179.646 1223.5,-165.79 1404,-143 1416.77,-141.387 1430.56,-139.222 1443.23,-137.057"/>
<polygon fill="midnightblue" stroke="midnightblue" points="910.047,-181.712 900.26,-185.769 910.441,-188.701 910.047,-181.712"/>
</g>
<!-- Node15 -->
<g id="node15" class="node"><title>Node15</title>
<g id="a_node15"><a xlink:href="_planning_scheduler_8h.html" target="_top" xlink:title="include/PlanningScheduler.h">
<polygon fill="white" stroke="black" points="1583,-118 1583,-137 1723,-137 1723,-118 1583,-118"/>
<text text-anchor="middle" x="1653" y="-125" font-family="Helvetica,sans-Serif" font-size="10.00">include/PlanningScheduler.h</text>
</a>
</g>
</g>
<!-- Node1&#45;&gt;Node15 -->
<g id="edge14" class="edge"><title>Node1&#45;&gt;Node15</title>
<path fill="none" stroke="midnightblue" d="M910.365,-186.838C1028.92,-183.741 1326.8,-173.346 1574,-143 1586.32,-141.488 1599.62,-139.275 1611.73,-137.03"/>
<polygon fill="midnightblue" stroke="midnightblue" points="910.034,-183.345 900.127,-187.098 910.213,-190.342 910.034,-183.345"/>
</g>
<!-- Node16 -->
<g id="node16" class="node"><title>Node16</title>
<g id="a_node16"><a xlink:href="_planning_scheduler_8cpp.html" target="_top" xlink:title="src/PlanningScheduler.cpp">
<polygon fill="white" stroke="black" points="1434.5,-56.5 1434.5,-75.5 1567.5,-75.5 1567.5,-56.5 1434.5,-56.5"/>
<text text-anchor="middle" x="1501" y="-63.5" font-family="Helvetica,sans-Serif" font-size="10.00">src/PlanningScheduler.cpp</text>
</a>
</g>
</g>
<!-- Node15&#45;&gt;Node16 -->
<g id="edge15" class="edge"><title>Node15&#45;&gt;Node16</title>
<path fill="none" stroke="midnightblue" d="M1621.79,-114.282C1592.25,-102.72 1548.68,-85.6641 1522.74,-75.5091"/>
<polygon fill="midnightblue" stroke="midnightblue" points="1620.63,-117.589 1631.22,-117.975 1623.19,-111.071 1620.63,-117.589"/>
</g>
<!-- Node17 -->
<g id="node17" class="node"><title>Node17</title>
<g id="a_node17"><a xlink:href="_scheduler_creator_8h.html" target="_top" xlink:title="include/SchedulerCreator.h">
<polygon fill="white" stroke="black" points="1586,-56.5 1586,-75.5 1720,-75.5 1720,-56.5 1586,-56.5"/>
<text text-anchor="middle" x="1653" y="-63.5" font-family="Helvetica,sans-Serif" font-size="10.00">include/SchedulerCreator.h</text>
</a>
</g>
</g>
<!-- Node15&#45;&gt;Node17 -->
<g id="edge16" class="edge"><title>Node15&#45;&gt;Node17</title>
<path fill="none" stroke="midnightblue" d="M1653,-107.817C1653,-96.9962 1653,-83.898 1653,-75.5091"/>
<polygon fill="midnightblue" stroke="midnightblue" points="1649.5,-107.975 1653,-117.975 1656.5,-107.975 1649.5,-107.975"/>
</g>
<!-- Node17&#45;&gt;Node12 -->
<g id="edge17" class="edge"><title>Node17&#45;&gt;Node12</title>
<path fill="none" stroke="midnightblue" d="M1613.24,-53.6986C1577.38,-43.507 1525.43,-28.7429 1492.97,-19.5164"/>
<polygon fill="midnightblue" stroke="midnightblue" points="1612.32,-57.0763 1622.89,-56.4435 1614.23,-50.343 1612.32,-57.0763"/>
</g>
</g>
</svg>
        <g id="navigator" transform="translate(0 0)" fill="#404254">
                <rect fill="#f2f5e9" fill-opacity="0.5" stroke="#606060" stroke-width=".5" x="0" y="0" width="60" height="60"/>
                <use id="zoomplus" xlink:href="#zoomPlus" x="17" y="9" onmousedown="handleZoom(evt,'in')"/>
                <use id="zoomminus" xlink:href="#zoomMin" x="42" y="9" onmousedown="handleZoom(evt,'out')"/>
                <use id="reset" xlink:href="#resetDef" x="30" y="36" onmousedown="handleReset()"/>
                <g id="arrowUp" xlink:href="#dirArrow" transform="translate(30 24)" onmousedown="handlePan(0,-1)">
                  <use xlink:href="#rim" fill="#404040">
                        <set attributeName="fill" to="#808080" begin="arrowUp.mouseover" end="arrowUp.mouseout"/>
                  </use>
                  <path fill="none" stroke="white" stroke-width="1.5" d="M0,-3.0v7 M-2.5,-0.5L0,-3.0L2.5,-0.5"/>
                </g>
                <g id="arrowRight" xlink:href="#dirArrow" transform="rotate(90) translate(36 -43)" onmousedown="handlePan(1,0)">
                  <use xlink:href="#rim" fill="#404040">
                        <set attributeName="fill" to="#808080" begin="arrowRight.mouseover" end="arrowRight.mouseout"/>
                  </use>
                  <path fill="none" stroke="white" stroke-width="1.5" d="M0,-3.0v7 M-2.5,-0.5L0,-3.0L2.5,-0.5"/>
                </g>
                <g id="arrowDown" xlink:href="#dirArrow" transform="rotate(180) translate(-30 -48)" onmousedown="handlePan(0,1)">
                  <use xlink:href="#rim" fill="#404040">
                        <set attributeName="fill" to="#808080" begin="arrowDown.mouseover" end="arrowDown.mouseout"/>
                  </use>
                  <path fill="none" stroke="white" stroke-width="1.5" d="M0,-3.0v7 M-2.5,-0.5L0,-3.0L2.5,-0.5"/>
                </g>
                <g id="arrowLeft" xlink:href="#dirArrow" transform="rotate(270) translate(-36 17)" onmousedown="handlePan(-1,0)">
                  <use xlink:href="#rim" fill="#404040">
                        <set attributeName="fill" to="#808080" begin="arrowLeft.mouseover" end="arrowLeft.mouseout"/>
                  </use>
                  <path fill="none" stroke="white" stroke-width="1.5" d="M0,-3.0v7 M-2.5,-0.5L0,-3.0L2.5,-0.5"/>
                </g>
        </g>
        <svg viewBox="0 0 15 15" width="100%" height="30px" preserveAspectRatio="xMaxYMin meet">
         <g id="arrow_out" transform="scale(0.3 0.3)">
          <a xlink:href="_client_8h__dep__incl_org.svg" target="_base">
           <rect id="button" ry="5" rx="5" y="6" x="6" height="38" width="38"
                fill="#f2f5e9" fill-opacity="0.5" stroke="#606060" stroke-width="1.0"/>
           <path id="arrow"
             d="M 11.500037,31.436501 C 11.940474,20.09759 22.043105,11.32322 32.158766,21.979434 L 37.068811,17.246167 C 37.068811,17.246167 37.088388,32 37.088388,32 L 22.160133,31.978069 C 22.160133,31.978069 26.997745,27.140456 26.997745,27.140456 C 18.528582,18.264221 13.291696,25.230495 11.500037,31.436501 z"
             style="fill:#404040;"/>
          </a>
         </g>
        </svg>
</svg>
