<?xml version="1.0" encoding="UTF-8" standalone="no"?>
<!DOCTYPE svg PUBLIC "-//W3C//DTD SVG 1.1//EN"
 "http://www.w3.org/Graphics/SVG/1.1/DTD/svg11.dtd">
<!-- Generated by graphviz version 2.38.0 (20140413.2041)
 -->
<!-- Title: src/ClientArrival.cpp Pages: 1 -->
<svg width="370pt" height="252pt"
 viewBox="0.00 0.00 370.00 252.00" xmlns="http://www.w3.org/2000/svg" xmlns:xlink="http://www.w3.org/1999/xlink">
<g id="graph0" class="graph" transform="scale(1 1) rotate(0) translate(4 248)">
<title>src/ClientArrival.cpp</title>
<polygon fill="white" stroke="none" points="-4,4 -4,-248 366,-248 366,4 -4,4"/>
<!-- Node1 -->
<g id="node1" class="node"><title>Node1</title>
<polygon fill="#bfbfbf" stroke="black" points="191.5,-224.5 191.5,-243.5 296.5,-243.5 296.5,-224.5 191.5,-224.5"/>
<text text-anchor="middle" x="244" y="-231.5" font-family="Helvetica,sans-Serif" font-size="10.00">src/ClientArrival.cpp</text>
</g>
<!-- Node2 -->
<g id="node2" class="node"><title>Node2</title>
<g id="a_node2"><a xlink:href="_client_8h.html" target="_top" xlink:title="Client.h">
<polygon fill="white" stroke="black" points="70,-168.5 70,-187.5 120,-187.5 120,-168.5 70,-168.5"/>
<text text-anchor="middle" x="95" y="-175.5" font-family="Helvetica,sans-Serif" font-size="10.00">Client.h</text>
</a>
</g>
</g>
<!-- Node1&#45;&gt;Node2 -->
<g id="edge1" class="edge"><title>Node1&#45;&gt;Node2</title>
<path fill="none" stroke="midnightblue" d="M220.391,-224.444C195.542,-215.438 156.226,-201.189 128.246,-191.049"/>
<polygon fill="midnightblue" stroke="midnightblue" points="129.093,-187.633 118.499,-187.516 126.708,-194.214 129.093,-187.633"/>
</g>
<!-- Node5 -->
<g id="node5" class="node"><title>Node5</title>
<g id="a_node5"><a xlink:href="_client_arrival_8h.html" target="_top" xlink:title="ClientArrival.h">
<polygon fill="white" stroke="black" points="138,-168.5 138,-187.5 216,-187.5 216,-168.5 138,-168.5"/>
<text text-anchor="middle" x="177" y="-175.5" font-family="Helvetica,sans-Serif" font-size="10.00">ClientArrival.h</text>
</a>
</g>
</g>
<!-- Node1&#45;&gt;Node5 -->
<g id="edge4" class="edge"><title>Node1&#45;&gt;Node5</title>
<path fill="none" stroke="midnightblue" d="M233.235,-224.324C223.234,-216.263 208.113,-204.077 196.07,-194.369"/>
<polygon fill="midnightblue" stroke="midnightblue" points="197.943,-191.384 187.961,-187.834 193.55,-196.834 197.943,-191.384"/>
</g>
<!-- Node7 -->
<g id="node7" class="node"><title>Node7</title>
<g id="a_node7"><a xlink:href="_event_type_8h.html" target="_top" xlink:title="EventType.h">
<polygon fill="white" stroke="black" points="272,-56.5 272,-75.5 344,-75.5 344,-56.5 272,-56.5"/>
<text text-anchor="middle" x="308" y="-63.5" font-family="Helvetica,sans-Serif" font-size="10.00">EventType.h</text>
</a>
</g>
</g>
<!-- Node1&#45;&gt;Node7 -->
<g id="edge12" class="edge"><title>Node1&#45;&gt;Node7</title>
<path fill="none" stroke="midnightblue" d="M247.441,-224.075C257.559,-197.832 287.356,-120.545 301.015,-85.1165"/>
<polygon fill="midnightblue" stroke="midnightblue" points="304.365,-86.1578 304.697,-75.5681 297.834,-83.6396 304.365,-86.1578"/>
</g>
<!-- Node9 -->
<g id="node9" class="node"><title>Node9</title>
<polygon fill="white" stroke="#bfbfbf" points="221.5,-0.5 221.5,-19.5 262.5,-19.5 262.5,-0.5 221.5,-0.5"/>
<text text-anchor="middle" x="242" y="-7.5" font-family="Helvetica,sans-Serif" font-size="10.00">string</text>
</g>
<!-- Node1&#45;&gt;Node9 -->
<g id="edge14" class="edge"><title>Node1&#45;&gt;Node9</title>
<path fill="none" stroke="midnightblue" d="M243.922,-224.297C243.627,-191.633 242.584,-75.8661 242.171,-29.9573"/>
<polygon fill="midnightblue" stroke="midnightblue" points="245.67,-29.8518 242.08,-19.8837 238.67,-29.9149 245.67,-29.8518"/>
</g>
<!-- Node10 -->
<g id="node10" class="node"><title>Node10</title>
<polygon fill="white" stroke="#bfbfbf" points="310,-168.5 310,-187.5 362,-187.5 362,-168.5 310,-168.5"/>
<text text-anchor="middle" x="336" y="-175.5" font-family="Helvetica,sans-Serif" font-size="10.00">sstream</text>
</g>
<!-- Node1&#45;&gt;Node10 -->
<g id="edge13" class="edge"><title>Node1&#45;&gt;Node10</title>
<path fill="none" stroke="midnightblue" d="M258.781,-224.324C273.267,-215.822 295.573,-202.729 312.493,-192.797"/>
<polygon fill="midnightblue" stroke="midnightblue" points="314.403,-195.735 321.255,-187.655 310.859,-189.698 314.403,-195.735"/>
</g>
<!-- Node3 -->
<g id="node3" class="node"><title>Node3</title>
<polygon fill="white" stroke="#bfbfbf" points="70.5,-112.5 70.5,-131.5 147.5,-131.5 147.5,-112.5 70.5,-112.5"/>
<text text-anchor="middle" x="109" y="-119.5" font-family="Helvetica,sans-Serif" font-size="10.00">glog/logging.h</text>
</g>
<!-- Node2&#45;&gt;Node3 -->
<g id="edge2" class="edge"><title>Node2&#45;&gt;Node3</title>
<path fill="none" stroke="midnightblue" d="M97.3118,-168.083C99.167,-160.927 101.835,-150.635 104.154,-141.691"/>
<polygon fill="midnightblue" stroke="midnightblue" points="107.609,-142.309 106.731,-131.751 100.834,-140.553 107.609,-142.309"/>
</g>
<!-- Node4 -->
<g id="node4" class="node"><title>Node4</title>
<polygon fill="white" stroke="#bfbfbf" points="0,-112.5 0,-131.5 52,-131.5 52,-112.5 0,-112.5"/>
<text text-anchor="middle" x="26" y="-119.5" font-family="Helvetica,sans-Serif" font-size="10.00">memory</text>
</g>
<!-- Node2&#45;&gt;Node4 -->
<g id="edge3" class="edge"><title>Node2&#45;&gt;Node4</title>
<path fill="none" stroke="midnightblue" d="M83.914,-168.324C73.514,-160.185 57.7394,-147.839 45.2784,-138.087"/>
<polygon fill="midnightblue" stroke="midnightblue" points="47.3199,-135.241 37.2878,-131.834 43.0057,-140.753 47.3199,-135.241"/>
</g>
<!-- Node5&#45;&gt;Node3 -->
<g id="edge10" class="edge"><title>Node5&#45;&gt;Node3</title>
<path fill="none" stroke="midnightblue" d="M166.075,-168.324C155.825,-160.185 140.279,-147.839 127.999,-138.087"/>
<polygon fill="midnightblue" stroke="midnightblue" points="130.132,-135.312 120.124,-131.834 125.779,-140.794 130.132,-135.312"/>
</g>
<!-- Node5&#45;&gt;Node4 -->
<g id="edge11" class="edge"><title>Node5&#45;&gt;Node4</title>
<path fill="none" stroke="midnightblue" d="M153.074,-168.444C127.781,-159.399 87.6976,-145.064 59.3202,-134.916"/>
<polygon fill="midnightblue" stroke="midnightblue" points="60.4091,-131.588 49.8145,-131.516 58.0519,-138.179 60.4091,-131.588"/>
</g>
<!-- Node6 -->
<g id="node6" class="node"><title>Node6</title>
<g id="a_node6"><a xlink:href="_event_8h.html" target="_top" xlink:title="Event.h">
<polygon fill="white" stroke="black" points="166,-112.5 166,-131.5 216,-131.5 216,-112.5 166,-112.5"/>
<text text-anchor="middle" x="191" y="-119.5" font-family="Helvetica,sans-Serif" font-size="10.00">Event.h</text>
</a>
</g>
</g>
<!-- Node5&#45;&gt;Node6 -->
<g id="edge5" class="edge"><title>Node5&#45;&gt;Node6</title>
<path fill="none" stroke="midnightblue" d="M179.312,-168.083C181.167,-160.927 183.835,-150.635 186.154,-141.691"/>
<polygon fill="midnightblue" stroke="midnightblue" points="189.609,-142.309 188.731,-131.751 182.834,-140.553 189.609,-142.309"/>
</g>
<!-- Node6&#45;&gt;Node7 -->
<g id="edge6" class="edge"><title>Node6&#45;&gt;Node7</title>
<path fill="none" stroke="midnightblue" d="M209.539,-112.444C228.623,-103.636 258.575,-89.8116 280.436,-79.722"/>
<polygon fill="midnightblue" stroke="midnightblue" points="281.935,-82.8849 289.548,-75.5164 279.001,-76.5292 281.935,-82.8849"/>
</g>
<!-- Node6&#45;&gt;Node9 -->
<g id="edge9" class="edge"><title>Node6&#45;&gt;Node9</title>
<path fill="none" stroke="midnightblue" d="M195.002,-112.368C203.307,-94.4563 222.563,-52.9233 233.679,-28.9482"/>
<polygon fill="midnightblue" stroke="midnightblue" points="236.986,-30.136 238.017,-19.5914 230.635,-27.1916 236.986,-30.136"/>
</g>
<!-- Node8 -->
<g id="node8" class="node"><title>Node8</title>
<polygon fill="white" stroke="#bfbfbf" points="280.5,-0.5 280.5,-19.5 339.5,-19.5 339.5,-0.5 280.5,-0.5"/>
<text text-anchor="middle" x="310" y="-7.5" font-family="Helvetica,sans-Serif" font-size="10.00">stdexcept</text>
</g>
<!-- Node7&#45;&gt;Node8 -->
<g id="edge7" class="edge"><title>Node7&#45;&gt;Node8</title>
<path fill="none" stroke="midnightblue" d="M308.33,-56.083C308.592,-49.0059 308.968,-38.8611 309.297,-29.9865"/>
<polygon fill="midnightblue" stroke="midnightblue" points="312.803,-29.8738 309.676,-19.7511 305.808,-29.6147 312.803,-29.8738"/>
</g>
<!-- Node7&#45;&gt;Node9 -->
<g id="edge8" class="edge"><title>Node7&#45;&gt;Node9</title>
<path fill="none" stroke="midnightblue" d="M297.396,-56.324C287.544,-48.2631 272.649,-36.0765 260.785,-26.3695"/>
<polygon fill="midnightblue" stroke="midnightblue" points="262.753,-23.4575 252.797,-19.8339 258.32,-28.8752 262.753,-23.4575"/>
</g>
</g>
</svg>
