<?xml version="1.0" encoding="UTF-8" standalone="no"?>
<!DOCTYPE svg PUBLIC "-//W3C//DTD SVG 1.1//EN"
 "http://www.w3.org/Graphics/SVG/1.1/DTD/svg11.dtd">
<!-- Generated by graphviz version 2.38.0 (20140413.2041)
 -->
<!-- Title: include/Client.h Pages: 1 -->
<svg width="1983pt" height="95pt"
 viewBox="0.00 0.00 1982.50 95.00" xmlns="http://www.w3.org/2000/svg" xmlns:xlink="http://www.w3.org/1999/xlink">
<g id="graph0" class="graph" transform="scale(1 1) rotate(0) translate(4 91)">
<title>include/Client.h</title>
<polygon fill="white" stroke="none" points="-4,4 -4,-91 1978.5,-91 1978.5,4 -4,4"/>
<!-- Node1 -->
<g id="node1" class="node"><title>Node1</title>
<polygon fill="#bfbfbf" stroke="black" points="902,-67.5 902,-86.5 1003,-86.5 1003,-67.5 902,-67.5"/>
<text text-anchor="middle" x="952.5" y="-74.5" font-family="Ubuntu Mono" font-size="10.00">include/Client.h</text>
</g>
<!-- Node2 -->
<g id="node2" class="node"><title>Node2</title>
<g id="a_node2"><a xlink:href="_better_nearest_neighbour_cost_function_8cpp.html" target="_top" xlink:title="src/BetterNearestNeighbour\lCostFunction.cpp">
<polygon fill="white" stroke="black" points="0,-0.5 0,-30.5 153,-30.5 153,-0.5 0,-0.5"/>
<text text-anchor="start" x="8" y="-18.5" font-family="Ubuntu Mono" font-size="10.00">src/BetterNearestNeighbour</text>
<text text-anchor="middle" x="76.5" y="-7.5" font-family="Ubuntu Mono" font-size="10.00">CostFunction.cpp</text>
</a>
</g>
</g>
<!-- Node1&#45;&gt;Node2 -->
<g id="edge1" class="edge"><title>Node1&#45;&gt;Node2</title>
<path fill="none" stroke="midnightblue" d="M891.524,-74.8589C758.543,-71.8603 432.628,-61.7398 161.5,-31 158.823,-30.6964 156.101,-30.3639 153.356,-30.0079"/>
<polygon fill="midnightblue" stroke="midnightblue" points="891.824,-78.3663 901.899,-75.0871 891.978,-71.3679 891.824,-78.3663"/>
</g>
<!-- Node3 -->
<g id="node3" class="node"><title>Node3</title>
<g id="a_node3"><a xlink:href="_building_8cpp.html" target="_top" xlink:title="src/Building.cpp">
<polygon fill="white" stroke="black" points="171,-6 171,-25 272,-25 272,-6 171,-6"/>
<text text-anchor="middle" x="221.5" y="-13" font-family="Ubuntu Mono" font-size="10.00">src/Building.cpp</text>
</a>
</g>
</g>
<!-- Node1&#45;&gt;Node3 -->
<g id="edge2" class="edge"><title>Node1&#45;&gt;Node3</title>
<path fill="none" stroke="midnightblue" d="M891.371,-75.3715C772.98,-73.3891 504.433,-65.1588 281.5,-31 271.966,-29.5392 261.72,-27.3134 252.441,-25.041"/>
<polygon fill="midnightblue" stroke="midnightblue" points="891.62,-78.8757 901.674,-75.5344 891.731,-71.8766 891.62,-78.8757"/>
</g>
<!-- Node4 -->
<g id="node4" class="node"><title>Node4</title>
<g id="a_node4"><a xlink:href="_client_8cpp.html" target="_top" xlink:title="src/Client.cpp">
<polygon fill="white" stroke="black" points="290.5,-6 290.5,-25 380.5,-25 380.5,-6 290.5,-6"/>
<text text-anchor="middle" x="335.5" y="-13" font-family="Ubuntu Mono" font-size="10.00">src/Client.cpp</text>
</a>
</g>
</g>
<!-- Node1&#45;&gt;Node4 -->
<g id="edge3" class="edge"><title>Node1&#45;&gt;Node4</title>
<path fill="none" stroke="midnightblue" d="M891.351,-74.7605C787.484,-71.8435 570.259,-62.2231 389.5,-31 380.891,-29.513 371.661,-27.2794 363.311,-25.0079"/>
<polygon fill="midnightblue" stroke="midnightblue" points="891.555,-78.2671 901.646,-75.0379 891.744,-71.2697 891.555,-78.2671"/>
</g>
<!-- Node5 -->
<g id="node5" class="node"><title>Node5</title>
<g id="a_node5"><a xlink:href="_client_arrival_8cpp.html" target="_top" xlink:title="src/ClientArrival.cpp">
<polygon fill="white" stroke="black" points="399,-6 399,-25 526,-25 526,-6 399,-6"/>
<text text-anchor="middle" x="462.5" y="-13" font-family="Ubuntu Mono" font-size="10.00">src/ClientArrival.cpp</text>
</a>
</g>
</g>
<!-- Node1&#45;&gt;Node5 -->
<g id="edge4" class="edge"><title>Node1&#45;&gt;Node5</title>
<path fill="none" stroke="midnightblue" d="M891.863,-71.1526C810.507,-64.262 661.646,-50.2959 535.5,-31 524.643,-29.3393 512.948,-27.1829 502.168,-25.043"/>
<polygon fill="midnightblue" stroke="midnightblue" points="891.666,-74.6483 901.924,-71.9977 892.252,-67.6729 891.666,-74.6483"/>
</g>
<!-- Node6 -->
<g id="node6" class="node"><title>Node6</title>
<g id="a_node6"><a xlink:href="_dummy_cost_function_8cpp.html" target="_top" xlink:title="src/DummyCostFunction.cpp">
<polygon fill="white" stroke="black" points="544.5,-6 544.5,-25 692.5,-25 692.5,-6 544.5,-6"/>
<text text-anchor="middle" x="618.5" y="-13" font-family="Ubuntu Mono" font-size="10.00">src/DummyCostFunction.cpp</text>
</a>
</g>
</g>
<!-- Node1&#45;&gt;Node6 -->
<g id="edge5" class="edge"><title>Node1&#45;&gt;Node6</title>
<path fill="none" stroke="midnightblue" d="M894.615,-65.6881C829.958,-54.17 726.492,-35.7381 666.265,-25.0091"/>
<polygon fill="midnightblue" stroke="midnightblue" points="894.187,-69.1669 904.646,-67.4751 895.415,-62.2754 894.187,-69.1669"/>
</g>
<!-- Node7 -->
<g id="node7" class="node"><title>Node7</title>
<g id="a_node7"><a xlink:href="_elevator_8cpp.html" target="_top" xlink:title="src/Elevator.cpp">
<polygon fill="white" stroke="black" points="711,-6 711,-25 812,-25 812,-6 711,-6"/>
<text text-anchor="middle" x="761.5" y="-13" font-family="Ubuntu Mono" font-size="10.00">src/Elevator.cpp</text>
</a>
</g>
</g>
<!-- Node1&#45;&gt;Node7 -->
<g id="edge6" class="edge"><title>Node1&#45;&gt;Node7</title>
<path fill="none" stroke="midnightblue" d="M915.201,-64.3806C878.075,-52.8152 821.98,-35.3407 788.815,-25.0091"/>
<polygon fill="midnightblue" stroke="midnightblue" points="914.546,-67.8424 925.134,-67.4751 916.628,-61.1592 914.546,-67.8424"/>
</g>
<!-- Node8 -->
<g id="node8" class="node"><title>Node8</title>
<g id="a_node8"><a xlink:href="_event_factory_8cpp.html" target="_top" xlink:title="src/EventFactory.cpp">
<polygon fill="white" stroke="black" points="830.5,-6 830.5,-25 952.5,-25 952.5,-6 830.5,-6"/>
<text text-anchor="middle" x="891.5" y="-13" font-family="Ubuntu Mono" font-size="10.00">src/EventFactory.cpp</text>
</a>
</g>
</g>
<!-- Node1&#45;&gt;Node8 -->
<g id="edge7" class="edge"><title>Node1&#45;&gt;Node8</title>
<path fill="none" stroke="midnightblue" d="M936.429,-60.3245C924.84,-49.0202 909.639,-34.1928 900.224,-25.0091"/>
<polygon fill="midnightblue" stroke="midnightblue" points="934.158,-62.9981 943.76,-67.4751 939.046,-57.9871 934.158,-62.9981"/>
</g>
<!-- Node9 -->
<g id="node9" class="node"><title>Node9</title>
<g id="a_node9"><a xlink:href="_floor_8cpp.html" target="_top" xlink:title="src/Floor.cpp">
<polygon fill="white" stroke="black" points="971,-6 971,-25 1056,-25 1056,-6 971,-6"/>
<text text-anchor="middle" x="1013.5" y="-13" font-family="Ubuntu Mono" font-size="10.00">src/Floor.cpp</text>
</a>
</g>
</g>
<!-- Node1&#45;&gt;Node9 -->
<g id="edge8" class="edge"><title>Node1&#45;&gt;Node9</title>
<path fill="none" stroke="midnightblue" d="M968.571,-60.3245C980.16,-49.0202 995.361,-34.1928 1004.78,-25.0091"/>
<polygon fill="midnightblue" stroke="midnightblue" points="965.954,-57.9871 961.24,-67.4751 970.842,-62.9981 965.954,-57.9871"/>
</g>
<!-- Node10 -->
<g id="node10" class="node"><title>Node10</title>
<g id="a_node10"><a xlink:href="_nearest_neighbour_cost_function_8cpp.html" target="_top" xlink:title="src/NearestNeighbourCost\lFunction.cpp">
<polygon fill="white" stroke="black" points="1074,-0.5 1074,-30.5 1217,-30.5 1217,-0.5 1074,-0.5"/>
<text text-anchor="start" x="1082" y="-18.5" font-family="Ubuntu Mono" font-size="10.00">src/NearestNeighbourCost</text>
<text text-anchor="middle" x="1145.5" y="-7.5" font-family="Ubuntu Mono" font-size="10.00">Function.cpp</text>
</a>
</g>
</g>
<!-- Node1&#45;&gt;Node10 -->
<g id="edge9" class="edge"><title>Node1&#45;&gt;Node10</title>
<path fill="none" stroke="midnightblue" d="M989.857,-64.4832C1021.32,-54.7823 1066.45,-40.8711 1100.01,-30.523"/>
<polygon fill="midnightblue" stroke="midnightblue" points="988.677,-61.1843 980.152,-67.4751 990.74,-67.8736 988.677,-61.1843"/>
</g>
<!-- Node11 -->
<g id="node11" class="node"><title>Node11</title>
<g id="a_node11"><a xlink:href="_planning_scheduler_8cpp.html" target="_top" xlink:title="src/PlanningScheduler.cpp">
<polygon fill="white" stroke="black" points="1235.5,-6 1235.5,-25 1383.5,-25 1383.5,-6 1235.5,-6"/>
<text text-anchor="middle" x="1309.5" y="-13" font-family="Ubuntu Mono" font-size="10.00">src/PlanningScheduler.cpp</text>
</a>
</g>
</g>
<!-- Node1&#45;&gt;Node11 -->
<g id="edge10" class="edge"><title>Node1&#45;&gt;Node11</title>
<path fill="none" stroke="midnightblue" d="M1013.05,-66.2369C1068.59,-57.2385 1153.12,-43.4352 1226.5,-31 1237.75,-29.0937 1249.85,-27.0029 1261.24,-25.0171"/>
<polygon fill="midnightblue" stroke="midnightblue" points="1012.34,-62.8065 1003.03,-67.8598 1013.46,-69.7166 1012.34,-62.8065"/>
</g>
<!-- Node12 -->
<g id="node12" class="node"><title>Node12</title>
<g id="a_node12"><a xlink:href="_simple_scheduler_8cpp.html" target="_top" xlink:title="src/SimpleScheduler.cpp">
<polygon fill="white" stroke="black" points="1402,-6 1402,-25 1539,-25 1539,-6 1402,-6"/>
<text text-anchor="middle" x="1470.5" y="-13" font-family="Ubuntu Mono" font-size="10.00">src/SimpleScheduler.cpp</text>
</a>
</g>
</g>
<!-- Node1&#45;&gt;Node12 -->
<g id="edge11" class="edge"><title>Node1&#45;&gt;Node12</title>
<path fill="none" stroke="midnightblue" d="M1013.14,-71.3789C1098.17,-64.5397 1257.57,-50.4088 1392.5,-31 1404.09,-29.3331 1416.58,-27.1746 1428.1,-25.0347"/>
<polygon fill="midnightblue" stroke="midnightblue" points="1012.84,-67.892 1003.15,-72.1766 1013.39,-74.8698 1012.84,-67.892"/>
</g>
<!-- Node13 -->
<g id="node13" class="node"><title>Node13</title>
<g id="a_node13"><a xlink:href="_simulator_8cpp.html" target="_top" xlink:title="src/Simulator.cpp">
<polygon fill="white" stroke="black" points="1557.5,-6 1557.5,-25 1663.5,-25 1663.5,-6 1557.5,-6"/>
<text text-anchor="middle" x="1610.5" y="-13" font-family="Ubuntu Mono" font-size="10.00">src/Simulator.cpp</text>
</a>
</g>
</g>
<!-- Node1&#45;&gt;Node13 -->
<g id="edge12" class="edge"><title>Node1&#45;&gt;Node13</title>
<path fill="none" stroke="midnightblue" d="M1013.1,-74.5112C1121.22,-71.1699 1354.26,-60.8639 1548.5,-31 1558.22,-29.505 1568.68,-27.2969 1578.18,-25.0523"/>
<polygon fill="midnightblue" stroke="midnightblue" points="1012.92,-71.0148 1003.03,-74.8132 1013.13,-78.0117 1012.92,-71.0148"/>
</g>
<!-- Node14 -->
<g id="node14" class="node"><title>Node14</title>
<g id="a_node14"><a xlink:href="_statistics_8cpp.html" target="_top" xlink:title="src/Statistics.cpp">
<polygon fill="white" stroke="black" points="1681,-6 1681,-25 1792,-25 1792,-6 1681,-6"/>
<text text-anchor="middle" x="1736.5" y="-13" font-family="Ubuntu Mono" font-size="10.00">src/Statistics.cpp</text>
</a>
</g>
</g>
<!-- Node1&#45;&gt;Node14 -->
<g id="edge13" class="edge"><title>Node1&#45;&gt;Node14</title>
<path fill="none" stroke="midnightblue" d="M1013.51,-75.479C1138.03,-73.6926 1430.13,-65.8008 1672.5,-31 1682.65,-29.5427 1693.57,-27.3179 1703.47,-25.0454"/>
<polygon fill="midnightblue" stroke="midnightblue" points="1013.37,-71.9806 1003.42,-75.6157 1013.46,-78.9799 1013.37,-71.9806"/>
</g>
<!-- Node15 -->
<g id="node15" class="node"><title>Node15</title>
<g id="a_node15"><a xlink:href="_weighted_cost_function_8cpp.html" target="_top" xlink:title="src/WeightedCostFunction.cpp">
<polygon fill="white" stroke="black" points="1810.5,-6 1810.5,-25 1974.5,-25 1974.5,-6 1810.5,-6"/>
<text text-anchor="middle" x="1892.5" y="-13" font-family="Ubuntu Mono" font-size="10.00">src/WeightedCostFunction.cpp</text>
</a>
</g>
</g>
<!-- Node1&#45;&gt;Node15 -->
<g id="edge14" class="edge"><title>Node1&#45;&gt;Node15</title>
<path fill="none" stroke="midnightblue" d="M1013.45,-74.9647C1153.17,-72.1121 1507.23,-62.1565 1801.5,-31 1815.66,-29.5009 1830.97,-27.2916 1844.92,-25.0471"/>
<polygon fill="midnightblue" stroke="midnightblue" points="1013.29,-71.467 1003.37,-75.1658 1013.43,-78.4656 1013.29,-71.467"/>
</g>
</g>
</svg>
