<?xml version="1.0" encoding="UTF-8" standalone="no"?>
<!DOCTYPE svg PUBLIC "-//W3C//DTD SVG 1.1//EN"
 "http://www.w3.org/Graphics/SVG/1.1/DTD/svg11.dtd">
<!-- Generated by graphviz version 2.38.0 (20140413.2041)
 -->
<!-- Title: include/ClientArrival.h Pages: 1 -->
<svg width="647pt" height="84pt"
 viewBox="0.00 0.00 647.00 84.00" xmlns="http://www.w3.org/2000/svg" xmlns:xlink="http://www.w3.org/1999/xlink">
<g id="graph0" class="graph" transform="scale(1 1) rotate(0) translate(4 80)">
<title>include/ClientArrival.h</title>
<polygon fill="white" stroke="none" points="-4,4 -4,-80 643,-80 643,4 -4,4"/>
<!-- Node1 -->
<g id="node1" class="node"><title>Node1</title>
<polygon fill="#bfbfbf" stroke="black" points="257,-56.5 257,-75.5 394,-75.5 394,-56.5 257,-56.5"/>
<text text-anchor="middle" x="325.5" y="-63.5" font-family="Ubuntu Mono" font-size="10.00">include/ClientArrival.h</text>
</g>
<!-- Node2 -->
<g id="node2" class="node"><title>Node2</title>
<g id="a_node2"><a xlink:href="_building_8cpp.html" target="_top" xlink:title="src/Building.cpp">
<polygon fill="white" stroke="black" points="0,-0.5 0,-19.5 101,-19.5 101,-0.5 0,-0.5"/>
<text text-anchor="middle" x="50.5" y="-7.5" font-family="Ubuntu Mono" font-size="10.00">src/Building.cpp</text>
</a>
</g>
</g>
<!-- Node1&#45;&gt;Node2 -->
<g id="edge1" class="edge"><title>Node1&#45;&gt;Node2</title>
<path fill="none" stroke="midnightblue" d="M271.892,-54.4734C219.919,-44.2678 142.062,-28.9794 93.8707,-19.5164"/>
<polygon fill="midnightblue" stroke="midnightblue" points="271.438,-57.951 281.925,-56.4435 272.787,-51.0822 271.438,-57.951"/>
</g>
<!-- Node3 -->
<g id="node3" class="node"><title>Node3</title>
<g id="a_node3"><a xlink:href="_client_arrival_8cpp.html" target="_top" xlink:title="src/ClientArrival.cpp">
<polygon fill="white" stroke="black" points="119,-0.5 119,-19.5 246,-19.5 246,-0.5 119,-0.5"/>
<text text-anchor="middle" x="182.5" y="-7.5" font-family="Ubuntu Mono" font-size="10.00">src/ClientArrival.cpp</text>
</a>
</g>
</g>
<!-- Node1&#45;&gt;Node3 -->
<g id="edge2" class="edge"><title>Node1&#45;&gt;Node3</title>
<path fill="none" stroke="midnightblue" d="M293.473,-52.9058C266.588,-42.7536 228.859,-28.5063 205.053,-19.5164"/>
<polygon fill="midnightblue" stroke="midnightblue" points="292.25,-56.1851 302.841,-56.4435 294.722,-49.6364 292.25,-56.1851"/>
</g>
<!-- Node4 -->
<g id="node4" class="node"><title>Node4</title>
<g id="a_node4"><a xlink:href="_event_factory_8cpp.html" target="_top" xlink:title="src/EventFactory.cpp">
<polygon fill="white" stroke="black" points="264.5,-0.5 264.5,-19.5 386.5,-19.5 386.5,-0.5 264.5,-0.5"/>
<text text-anchor="middle" x="325.5" y="-7.5" font-family="Ubuntu Mono" font-size="10.00">src/EventFactory.cpp</text>
</a>
</g>
</g>
<!-- Node1&#45;&gt;Node4 -->
<g id="edge3" class="edge"><title>Node1&#45;&gt;Node4</title>
<path fill="none" stroke="midnightblue" d="M325.5,-45.8045C325.5,-36.9102 325.5,-26.7798 325.5,-19.7511"/>
<polygon fill="midnightblue" stroke="midnightblue" points="322,-46.083 325.5,-56.083 329,-46.083 322,-46.083"/>
</g>
<!-- Node5 -->
<g id="node5" class="node"><title>Node5</title>
<g id="a_node5"><a xlink:href="_simulator_8cpp.html" target="_top" xlink:title="src/Simulator.cpp">
<polygon fill="white" stroke="black" points="404.5,-0.5 404.5,-19.5 510.5,-19.5 510.5,-0.5 404.5,-0.5"/>
<text text-anchor="middle" x="457.5" y="-7.5" font-family="Ubuntu Mono" font-size="10.00">src/Simulator.cpp</text>
</a>
</g>
</g>
<!-- Node1&#45;&gt;Node5 -->
<g id="edge4" class="edge"><title>Node1&#45;&gt;Node5</title>
<path fill="none" stroke="midnightblue" d="M355.719,-52.6377C380.49,-42.504 414.9,-28.4274 436.682,-19.5164"/>
<polygon fill="midnightblue" stroke="midnightblue" points="354.346,-49.4177 346.416,-56.4435 356.997,-55.8966 354.346,-49.4177"/>
</g>
<!-- Node6 -->
<g id="node6" class="node"><title>Node6</title>
<g id="a_node6"><a xlink:href="_statistics_8cpp.html" target="_top" xlink:title="src/Statistics.cpp">
<polygon fill="white" stroke="black" points="528,-0.5 528,-19.5 639,-19.5 639,-0.5 528,-0.5"/>
<text text-anchor="middle" x="583.5" y="-7.5" font-family="Ubuntu Mono" font-size="10.00">src/Statistics.cpp</text>
</a>
</g>
</g>
<!-- Node1&#45;&gt;Node6 -->
<g id="edge5" class="edge"><title>Node1&#45;&gt;Node6</title>
<path fill="none" stroke="midnightblue" d="M376.404,-54.3456C425.162,-44.1405 497.787,-28.94 542.81,-19.5164"/>
<polygon fill="midnightblue" stroke="midnightblue" points="375.452,-50.9691 366.381,-56.4435 376.886,-57.8206 375.452,-50.9691"/>
</g>
</g>
</svg>
