<?xml version="1.0" encoding="UTF-8" standalone="no"?>
<!DOCTYPE svg PUBLIC "-//W3C//DTD SVG 1.1//EN"
 "http://www.w3.org/Graphics/SVG/1.1/DTD/svg11.dtd">
<!-- Generated by graphviz version 2.38.0 (20140413.2041)
 -->
<!-- Title: include/Client.h Pages: 1 -->
<svg width="1568pt" height="207pt"
 viewBox="0.00 0.00 1568.00 207.00" xmlns="http://www.w3.org/2000/svg" xmlns:xlink="http://www.w3.org/1999/xlink">
<g id="graph0" class="graph" transform="scale(1 1) rotate(0) translate(4 203)">
<title>include/Client.h</title>
<polygon fill="white" stroke="none" points="-4,4 -4,-203 1564,-203 1564,4 -4,4"/>
<!-- Node1 -->
<g id="node1" class="node"><title>Node1</title>
<polygon fill="#bfbfbf" stroke="black" points="708,-179.5 708,-198.5 792,-198.5 792,-179.5 708,-179.5"/>
<text text-anchor="middle" x="750" y="-186.5" font-family="Helvetica,sans-Serif" font-size="10.00">include/Client.h</text>
</g>
<!-- Node2 -->
<g id="node2" class="node"><title>Node2</title>
<g id="a_node2"><a xlink:href="_better_nearest_neighbour_cost_function_8cpp.html" target="_top" xlink:title="src/BetterNearestNeighbour\lCostFunction.cpp">
<polygon fill="white" stroke="black" points="0,-112.5 0,-142.5 138,-142.5 138,-112.5 0,-112.5"/>
<text text-anchor="start" x="8" y="-130.5" font-family="Helvetica,sans-Serif" font-size="10.00">src/BetterNearestNeighbour</text>
<text text-anchor="middle" x="69" y="-119.5" font-family="Helvetica,sans-Serif" font-size="10.00">CostFunction.cpp</text>
</a>
</g>
</g>
<!-- Node1&#45;&gt;Node2 -->
<g id="edge1" class="edge"><title>Node1&#45;&gt;Node2</title>
<path fill="none" stroke="midnightblue" d="M697.804,-186.027C593.025,-181.644 349.758,-169.332 147,-143 144.132,-142.627 141.209,-142.219 138.26,-141.782"/>
<polygon fill="midnightblue" stroke="midnightblue" points="697.668,-189.525 707.804,-186.439 697.956,-182.531 697.668,-189.525"/>
</g>
<!-- Node3 -->
<g id="node3" class="node"><title>Node3</title>
<g id="a_node3"><a xlink:href="_building_8cpp.html" target="_top" xlink:title="src/Building.cpp">
<polygon fill="white" stroke="black" points="156,-118 156,-137 242,-137 242,-118 156,-118"/>
<text text-anchor="middle" x="199" y="-125" font-family="Helvetica,sans-Serif" font-size="10.00">src/Building.cpp</text>
</a>
</g>
</g>
<!-- Node1&#45;&gt;Node3 -->
<g id="edge2" class="edge"><title>Node1&#45;&gt;Node3</title>
<path fill="none" stroke="midnightblue" d="M697.608,-186.312C606.402,-182.698 412.818,-172.029 252,-143 243.645,-141.492 234.693,-139.28 226.57,-137.036"/>
<polygon fill="midnightblue" stroke="midnightblue" points="697.562,-189.813 707.689,-186.699 697.831,-182.818 697.562,-189.813"/>
</g>
<!-- Node4 -->
<g id="node4" class="node"><title>Node4</title>
<g id="a_node4"><a xlink:href="_client_8cpp.html" target="_top" xlink:title="src/Client.cpp">
<polygon fill="white" stroke="black" points="260.5,-118 260.5,-137 337.5,-137 337.5,-118 260.5,-118"/>
<text text-anchor="middle" x="299" y="-125" font-family="Helvetica,sans-Serif" font-size="10.00">src/Client.cpp</text>
</a>
</g>
</g>
<!-- Node1&#45;&gt;Node4 -->
<g id="edge3" class="edge"><title>Node1&#45;&gt;Node4</title>
<path fill="none" stroke="midnightblue" d="M697.398,-185.191C619.996,-180.368 471.159,-168.464 347,-143 339.496,-141.461 331.479,-139.267 324.188,-137.049"/>
<polygon fill="midnightblue" stroke="midnightblue" points="697.642,-188.712 707.835,-185.825 698.066,-181.725 697.642,-188.712"/>
</g>
<!-- Node5 -->
<g id="node5" class="node"><title>Node5</title>
<g id="a_node5"><a xlink:href="_client_arrival_8cpp.html" target="_top" xlink:title="src/ClientArrival.cpp">
<polygon fill="white" stroke="black" points="355.5,-118 355.5,-137 460.5,-137 460.5,-118 355.5,-118"/>
<text text-anchor="middle" x="408" y="-125" font-family="Helvetica,sans-Serif" font-size="10.00">src/ClientArrival.cpp</text>
</a>
</g>
</g>
<!-- Node1&#45;&gt;Node5 -->
<g id="edge4" class="edge"><title>Node1&#45;&gt;Node5</title>
<path fill="none" stroke="midnightblue" d="M697.512,-180.691C641.101,-172.573 548.9,-158.546 470,-143 461.106,-141.248 451.549,-139.13 442.666,-137.061"/>
<polygon fill="midnightblue" stroke="midnightblue" points="697.222,-184.185 707.617,-182.137 698.214,-177.256 697.222,-184.185"/>
</g>
<!-- Node6 -->
<g id="node6" class="node"><title>Node6</title>
<g id="a_node6"><a xlink:href="_elevator_8cpp.html" target="_top" xlink:title="src/Elevator.cpp">
<polygon fill="white" stroke="black" points="479,-118 479,-137 567,-137 567,-118 479,-118"/>
<text text-anchor="middle" x="523" y="-125" font-family="Helvetica,sans-Serif" font-size="10.00">src/Elevator.cpp</text>
</a>
</g>
</g>
<!-- Node1&#45;&gt;Node6 -->
<g id="edge5" class="edge"><title>Node1&#45;&gt;Node6</title>
<path fill="none" stroke="midnightblue" d="M706.329,-176.886C671.111,-167.88 620.322,-154.794 576,-143 568.809,-141.087 561.08,-138.993 553.808,-137.007"/>
<polygon fill="midnightblue" stroke="midnightblue" points="705.726,-180.344 716.282,-179.428 707.459,-173.562 705.726,-180.344"/>
</g>
<!-- Node7 -->
<g id="node7" class="node"><title>Node7</title>
<g id="a_node7"><a xlink:href="_event_factory_8cpp.html" target="_top" xlink:title="src/EventFactory.cpp">
<polygon fill="white" stroke="black" points="585,-118 585,-137 695,-137 695,-118 585,-118"/>
<text text-anchor="middle" x="640" y="-125" font-family="Helvetica,sans-Serif" font-size="10.00">src/EventFactory.cpp</text>
</a>
</g>
</g>
<!-- Node1&#45;&gt;Node7 -->
<g id="edge6" class="edge"><title>Node1&#45;&gt;Node7</title>
<path fill="none" stroke="midnightblue" d="M725.434,-174.712C704.129,-163.188 673.934,-146.855 655.731,-137.009"/>
<polygon fill="midnightblue" stroke="midnightblue" points="723.779,-177.796 734.24,-179.475 727.109,-171.639 723.779,-177.796"/>
</g>
<!-- Node8 -->
<g id="node8" class="node"><title>Node8</title>
<g id="a_node8"><a xlink:href="_floor_8cpp.html" target="_top" xlink:title="src/Floor.cpp">
<polygon fill="white" stroke="black" points="713,-118 713,-137 787,-137 787,-118 713,-118"/>
<text text-anchor="middle" x="750" y="-125" font-family="Helvetica,sans-Serif" font-size="10.00">src/Floor.cpp</text>
</a>
</g>
</g>
<!-- Node1&#45;&gt;Node8 -->
<g id="edge7" class="edge"><title>Node1&#45;&gt;Node8</title>
<path fill="none" stroke="midnightblue" d="M750,-169.317C750,-158.496 750,-145.398 750,-137.009"/>
<polygon fill="midnightblue" stroke="midnightblue" points="746.5,-169.475 750,-179.475 753.5,-169.475 746.5,-169.475"/>
</g>
<!-- Node9 -->
<g id="node9" class="node"><title>Node9</title>
<g id="a_node9"><a xlink:href="_nearest_neighbour_cost_function_8cpp.html" target="_top" xlink:title="src/NearestNeighbourCost\lFunction.cpp">
<polygon fill="white" stroke="black" points="805.5,-112.5 805.5,-142.5 938.5,-142.5 938.5,-112.5 805.5,-112.5"/>
<text text-anchor="start" x="813.5" y="-130.5" font-family="Helvetica,sans-Serif" font-size="10.00">src/NearestNeighbourCost</text>
<text text-anchor="middle" x="872" y="-119.5" font-family="Helvetica,sans-Serif" font-size="10.00">Function.cpp</text>
</a>
</g>
</g>
<!-- Node1&#45;&gt;Node9 -->
<g id="edge8" class="edge"><title>Node1&#45;&gt;Node9</title>
<path fill="none" stroke="midnightblue" d="M776.513,-175.07C796.205,-165.465 823.039,-152.378 843.247,-142.523"/>
<polygon fill="midnightblue" stroke="midnightblue" points="774.933,-171.946 767.48,-179.475 778.002,-178.237 774.933,-171.946"/>
</g>
<!-- Node10 -->
<g id="node10" class="node"><title>Node10</title>
<g id="a_node10"><a xlink:href="_simple_scheduler_8cpp.html" target="_top" xlink:title="src/SimpleScheduler.cpp">
<polygon fill="white" stroke="black" points="956.5,-118 956.5,-137 1081.5,-137 1081.5,-118 956.5,-118"/>
<text text-anchor="middle" x="1019" y="-125" font-family="Helvetica,sans-Serif" font-size="10.00">src/SimpleScheduler.cpp</text>
</a>
</g>
</g>
<!-- Node1&#45;&gt;Node10 -->
<g id="edge9" class="edge"><title>Node1&#45;&gt;Node10</title>
<path fill="none" stroke="midnightblue" d="M798.563,-177.258C850.746,-165.716 932.623,-147.606 980.53,-137.009"/>
<polygon fill="midnightblue" stroke="midnightblue" points="797.549,-173.898 788.541,-179.475 799.061,-180.733 797.549,-173.898"/>
</g>
<!-- Node11 -->
<g id="node11" class="node"><title>Node11</title>
<g id="a_node11"><a xlink:href="_simulator_8cpp.html" target="_top" xlink:title="src/Simulator.cpp">
<polygon fill="white" stroke="black" points="1253.5,-0.5 1253.5,-19.5 1346.5,-19.5 1346.5,-0.5 1253.5,-0.5"/>
<text text-anchor="middle" x="1300" y="-7.5" font-family="Helvetica,sans-Serif" font-size="10.00">src/Simulator.cpp</text>
</a>
</g>
</g>
<!-- Node1&#45;&gt;Node11 -->
<g id="edge10" class="edge"><title>Node1&#45;&gt;Node11</title>
<path fill="none" stroke="midnightblue" d="M802.294,-184.524C884.574,-178.484 1040.13,-164.591 1091,-143 1111.38,-134.349 1111.77,-124.573 1130,-112 1184.54,-74.3788 1253.47,-36.0775 1284.09,-19.5045"/>
<polygon fill="midnightblue" stroke="midnightblue" points="801.875,-181.045 792.153,-185.256 802.379,-188.027 801.875,-181.045"/>
</g>
<!-- Node12 -->
<g id="node12" class="node"><title>Node12</title>
<g id="a_node12"><a xlink:href="_statistics_8cpp.html" target="_top" xlink:title="src/Statistics.cpp">
<polygon fill="white" stroke="black" points="1138.5,-118 1138.5,-137 1231.5,-137 1231.5,-118 1138.5,-118"/>
<text text-anchor="middle" x="1185" y="-125" font-family="Helvetica,sans-Serif" font-size="10.00">src/Statistics.cpp</text>
</a>
</g>
</g>
<!-- Node1&#45;&gt;Node12 -->
<g id="edge11" class="edge"><title>Node1&#45;&gt;Node12</title>
<path fill="none" stroke="midnightblue" d="M802.257,-183.602C874.814,-177.067 1010.02,-163.337 1124,-143 1133.22,-141.356 1143.12,-139.18 1152.22,-137.015"/>
<polygon fill="midnightblue" stroke="midnightblue" points="801.667,-180.141 792.017,-184.514 802.288,-187.113 801.667,-180.141"/>
</g>
<!-- Node13 -->
<g id="node13" class="node"><title>Node13</title>
<g id="a_node13"><a xlink:href="_weighted_cost_function_8cpp.html" target="_top" xlink:title="src/WeightedCostFunction.cpp">
<polygon fill="white" stroke="black" points="1250,-118 1250,-137 1402,-137 1402,-118 1250,-118"/>
<text text-anchor="middle" x="1326" y="-125" font-family="Helvetica,sans-Serif" font-size="10.00">src/WeightedCostFunction.cpp</text>
</a>
</g>
</g>
<!-- Node1&#45;&gt;Node13 -->
<g id="edge12" class="edge"><title>Node1&#45;&gt;Node13</title>
<path fill="none" stroke="midnightblue" d="M802.362,-184.541C892.293,-178.301 1081.8,-163.843 1241,-143 1253.62,-141.348 1267.23,-139.195 1279.78,-137.055"/>
<polygon fill="midnightblue" stroke="midnightblue" points="801.893,-181.065 792.157,-185.243 802.373,-188.048 801.893,-181.065"/>
</g>
<!-- Node14 -->
<g id="node14" class="node"><title>Node14</title>
<g id="a_node14"><a xlink:href="_planning_scheduler_8h.html" target="_top" xlink:title="include/PlanningScheduler.h">
<polygon fill="white" stroke="black" points="1420,-118 1420,-137 1560,-137 1560,-118 1420,-118"/>
<text text-anchor="middle" x="1490" y="-125" font-family="Helvetica,sans-Serif" font-size="10.00">include/PlanningScheduler.h</text>
</a>
</g>
</g>
<!-- Node1&#45;&gt;Node14 -->
<g id="edge13" class="edge"><title>Node1&#45;&gt;Node14</title>
<path fill="none" stroke="midnightblue" d="M802.325,-186.457C914.339,-182.711 1185.5,-171.277 1411,-143 1423.18,-141.473 1436.32,-139.283 1448.32,-137.065"/>
<polygon fill="midnightblue" stroke="midnightblue" points="802.186,-182.96 792.306,-186.786 802.415,-189.956 802.186,-182.96"/>
</g>
<!-- Node15 -->
<g id="node15" class="node"><title>Node15</title>
<g id="a_node15"><a xlink:href="_planning_scheduler_8cpp.html" target="_top" xlink:title="src/PlanningScheduler.cpp">
<polygon fill="white" stroke="black" points="1271.5,-56.5 1271.5,-75.5 1404.5,-75.5 1404.5,-56.5 1271.5,-56.5"/>
<text text-anchor="middle" x="1338" y="-63.5" font-family="Helvetica,sans-Serif" font-size="10.00">src/PlanningScheduler.cpp</text>
</a>
</g>
</g>
<!-- Node14&#45;&gt;Node15 -->
<g id="edge14" class="edge"><title>Node14&#45;&gt;Node15</title>
<path fill="none" stroke="midnightblue" d="M1458.79,-114.282C1429.25,-102.72 1385.68,-85.6641 1359.74,-75.5091"/>
<polygon fill="midnightblue" stroke="midnightblue" points="1457.63,-117.589 1468.22,-117.975 1460.19,-111.071 1457.63,-117.589"/>
</g>
<!-- Node16 -->
<g id="node16" class="node"><title>Node16</title>
<g id="a_node16"><a xlink:href="_scheduler_creator_8h.html" target="_top" xlink:title="include/SchedulerCreator.h">
<polygon fill="white" stroke="black" points="1423,-56.5 1423,-75.5 1557,-75.5 1557,-56.5 1423,-56.5"/>
<text text-anchor="middle" x="1490" y="-63.5" font-family="Helvetica,sans-Serif" font-size="10.00">include/SchedulerCreator.h</text>
</a>
</g>
</g>
<!-- Node14&#45;&gt;Node16 -->
<g id="edge15" class="edge"><title>Node14&#45;&gt;Node16</title>
<path fill="none" stroke="midnightblue" d="M1490,-107.817C1490,-96.9962 1490,-83.898 1490,-75.5091"/>
<polygon fill="midnightblue" stroke="midnightblue" points="1486.5,-107.975 1490,-117.975 1493.5,-107.975 1486.5,-107.975"/>
</g>
<!-- Node16&#45;&gt;Node11 -->
<g id="edge16" class="edge"><title>Node16&#45;&gt;Node11</title>
<path fill="none" stroke="midnightblue" d="M1450.24,-53.6986C1414.38,-43.507 1362.43,-28.7429 1329.97,-19.5164"/>
<polygon fill="midnightblue" stroke="midnightblue" points="1449.32,-57.0763 1459.89,-56.4435 1451.23,-50.343 1449.32,-57.0763"/>
</g>
</g>
</svg>
