<?xml version="1.0" encoding="UTF-8" standalone="no"?>
<!DOCTYPE svg PUBLIC "-//W3C//DTD SVG 1.1//EN"
 "http://www.w3.org/Graphics/SVG/1.1/DTD/svg11.dtd">
<!-- Generated by graphviz version 2.38.0 (20140413.2041)
 -->
<!-- Title: include/Clock.h Pages: 1 -->
<svg width="660pt" height="84pt"
 viewBox="0.00 0.00 659.50 84.00" xmlns="http://www.w3.org/2000/svg" xmlns:xlink="http://www.w3.org/1999/xlink">
<g id="graph0" class="graph" transform="scale(1 1) rotate(0) translate(4 80)">
<title>include/Clock.h</title>
<polygon fill="white" stroke="none" points="-4,4 -4,-80 655.5,-80 655.5,4 -4,4"/>
<!-- Node1 -->
<g id="node1" class="node"><title>Node1</title>
<polygon fill="#bfbfbf" stroke="black" points="276,-56.5 276,-75.5 360,-75.5 360,-56.5 276,-56.5"/>
<text text-anchor="middle" x="318" y="-63.5" font-family="Helvetica,sans-Serif" font-size="10.00">include/Clock.h</text>
</g>
<!-- Node2 -->
<g id="node2" class="node"><title>Node2</title>
<g id="a_node2"><a xlink:href="_building_8cpp.html" target="_top" xlink:title="src/Building.cpp">
<polygon fill="white" stroke="black" points="0,-0.5 0,-19.5 86,-19.5 86,-0.5 0,-0.5"/>
<text text-anchor="middle" x="43" y="-7.5" font-family="Helvetica,sans-Serif" font-size="10.00">src/Building.cpp</text>
</a>
</g>
</g>
<!-- Node1&#45;&gt;Node2 -->
<g id="edge1" class="edge"><title>Node1&#45;&gt;Node2</title>
<path fill="none" stroke="midnightblue" d="M265.921,-54.7736C213.975,-44.5733 135.094,-29.0839 86.4234,-19.5268"/>
<polygon fill="midnightblue" stroke="midnightblue" points="265.447,-58.2473 275.934,-56.7398 266.796,-51.3784 265.447,-58.2473"/>
</g>
<!-- Node3 -->
<g id="node3" class="node"><title>Node3</title>
<g id="a_node3"><a xlink:href="_clock_8cpp.html" target="_top" xlink:title="src/Clock.cpp">
<polygon fill="white" stroke="black" points="104.5,-0.5 104.5,-19.5 181.5,-19.5 181.5,-0.5 104.5,-0.5"/>
<text text-anchor="middle" x="143" y="-7.5" font-family="Helvetica,sans-Serif" font-size="10.00">src/Clock.cpp</text>
</a>
</g>
</g>
<!-- Node1&#45;&gt;Node3 -->
<g id="edge2" class="edge"><title>Node1&#45;&gt;Node3</title>
<path fill="none" stroke="midnightblue" d="M280.525,-53.4363C247.53,-43.2551 200.244,-28.664 170.6,-19.5164"/>
<polygon fill="midnightblue" stroke="midnightblue" points="279.683,-56.8393 290.271,-56.4435 281.747,-50.1505 279.683,-56.8393"/>
</g>
<!-- Node4 -->
<g id="node4" class="node"><title>Node4</title>
<g id="a_node4"><a xlink:href="_event_factory_8cpp.html" target="_top" xlink:title="src/EventFactory.cpp">
<polygon fill="white" stroke="black" points="200,-0.5 200,-19.5 310,-19.5 310,-0.5 200,-0.5"/>
<text text-anchor="middle" x="255" y="-7.5" font-family="Helvetica,sans-Serif" font-size="10.00">src/EventFactory.cpp</text>
</a>
</g>
</g>
<!-- Node1&#45;&gt;Node4 -->
<g id="edge3" class="edge"><title>Node1&#45;&gt;Node4</title>
<path fill="none" stroke="midnightblue" d="M299.96,-49.5372C288.727,-39.9087 274.681,-27.8694 265.306,-19.8339"/>
<polygon fill="midnightblue" stroke="midnightblue" points="298.008,-52.4734 307.878,-56.324 302.563,-47.1586 298.008,-52.4734"/>
</g>
<!-- Node5 -->
<g id="node5" class="node"><title>Node5</title>
<g id="a_node5"><a xlink:href="_event_queue_8cpp.html" target="_top" xlink:title="src/EventQueue.cpp">
<polygon fill="white" stroke="black" points="328,-0.5 328,-19.5 434,-19.5 434,-0.5 328,-0.5"/>
<text text-anchor="middle" x="381" y="-7.5" font-family="Helvetica,sans-Serif" font-size="10.00">src/EventQueue.cpp</text>
</a>
</g>
</g>
<!-- Node1&#45;&gt;Node5 -->
<g id="edge4" class="edge"><title>Node1&#45;&gt;Node5</title>
<path fill="none" stroke="midnightblue" d="M336.04,-49.5372C347.273,-39.9087 361.319,-27.8694 370.694,-19.8339"/>
<polygon fill="midnightblue" stroke="midnightblue" points="333.437,-47.1586 328.122,-56.324 337.992,-52.4734 333.437,-47.1586"/>
</g>
<!-- Node6 -->
<g id="node6" class="node"><title>Node6</title>
<g id="a_node6"><a xlink:href="_reporter_8cpp.html" target="_top" xlink:title="src/Reporter.cpp">
<polygon fill="white" stroke="black" points="451.5,-0.5 451.5,-19.5 540.5,-19.5 540.5,-0.5 451.5,-0.5"/>
<text text-anchor="middle" x="496" y="-7.5" font-family="Helvetica,sans-Serif" font-size="10.00">src/Reporter.cpp</text>
</a>
</g>
</g>
<!-- Node1&#45;&gt;Node6 -->
<g id="edge5" class="edge"><title>Node1&#45;&gt;Node6</title>
<path fill="none" stroke="midnightblue" d="M356.117,-53.4363C389.678,-43.2551 437.774,-28.664 467.927,-19.5164"/>
<polygon fill="midnightblue" stroke="midnightblue" points="354.758,-50.1911 346.205,-56.4435 356.79,-56.8897 354.758,-50.1911"/>
</g>
<!-- Node7 -->
<g id="node7" class="node"><title>Node7</title>
<g id="a_node7"><a xlink:href="_simulator_8cpp.html" target="_top" xlink:title="src/Simulator.cpp">
<polygon fill="white" stroke="black" points="558.5,-0.5 558.5,-19.5 651.5,-19.5 651.5,-0.5 558.5,-0.5"/>
<text text-anchor="middle" x="605" y="-7.5" font-family="Helvetica,sans-Serif" font-size="10.00">src/Simulator.cpp</text>
</a>
</g>
</g>
<!-- Node1&#45;&gt;Node7 -->
<g id="edge6" class="edge"><title>Node1&#45;&gt;Node7</title>
<path fill="none" stroke="midnightblue" d="M370.115,-55.1944C424.223,-45.0138 508.017,-29.2477 559.528,-19.5558"/>
<polygon fill="midnightblue" stroke="midnightblue" points="369.22,-51.8013 360.04,-57.0901 370.514,-58.6806 369.22,-51.8013"/>
</g>
</g>
</svg>
