<?xml version="1.0" encoding="UTF-8" standalone="no"?>
<!DOCTYPE svg PUBLIC "-//W3C//DTD SVG 1.1//EN"
 "http://www.w3.org/Graphics/SVG/1.1/DTD/svg11.dtd">
<!-- Generated by graphviz version 2.38.0 (20140413.2041)
 -->
<!-- Title: include/Clock.h Pages: 1 -->
<svg width="208pt" height="140pt"
 viewBox="0.00 0.00 207.50 140.00" xmlns="http://www.w3.org/2000/svg" xmlns:xlink="http://www.w3.org/1999/xlink">
<g id="graph0" class="graph" transform="scale(1 1) rotate(0) translate(4 136)">
<title>include/Clock.h</title>
<polygon fill="white" stroke="none" points="-4,4 -4,-136 203.5,-136 203.5,4 -4,4"/>
<!-- Node1 -->
<g id="node1" class="node"><title>Node1</title>
<polygon fill="#bfbfbf" stroke="black" points="76,-112.5 76,-131.5 171,-131.5 171,-112.5 76,-112.5"/>
<text text-anchor="middle" x="123.5" y="-119.5" font-family="Ubuntu Mono" font-size="10.00">include/Clock.h</text>
</g>
<!-- Node2 -->
<g id="node2" class="node"><title>Node2</title>
<g id="a_node2"><a xlink:href="_event_observer_8h.html" target="_top" xlink:title="EventObserver.h">
<polygon fill="white" stroke="black" points="0,-56.5 0,-75.5 95,-75.5 95,-56.5 0,-56.5"/>
<text text-anchor="middle" x="47.5" y="-63.5" font-family="Ubuntu Mono" font-size="10.00">EventObserver.h</text>
</a>
</g>
</g>
<!-- Node1&#45;&gt;Node2 -->
<g id="edge1" class="edge"><title>Node1&#45;&gt;Node2</title>
<path fill="none" stroke="midnightblue" d="M111.289,-112.324C99.7241,-104.107 82.1246,-91.6017 68.3393,-81.8069"/>
<polygon fill="midnightblue" stroke="midnightblue" points="70.112,-78.7729 59.9329,-75.8339 66.0575,-84.4791 70.112,-78.7729"/>
</g>
<!-- Node3 -->
<g id="node3" class="node"><title>Node3</title>
<polygon fill="white" stroke="#bfbfbf" points="61.5,-0.5 61.5,-19.5 109.5,-19.5 109.5,-0.5 61.5,-0.5"/>
<text text-anchor="middle" x="85.5" y="-7.5" font-family="Ubuntu Mono" font-size="10.00">memory</text>
</g>
<!-- Node1&#45;&gt;Node3 -->
<g id="edge3" class="edge"><title>Node1&#45;&gt;Node3</title>
<path fill="none" stroke="midnightblue" d="M121.347,-112.487C118.107,-99.9728 111.596,-75.9372 104.5,-56 101.261,-46.8996 97.1427,-36.9887 93.5689,-28.7901"/>
<polygon fill="midnightblue" stroke="midnightblue" points="96.7033,-27.2247 89.4405,-19.5109 90.3077,-30.0702 96.7033,-27.2247"/>
</g>
<!-- Node4 -->
<g id="node4" class="node"><title>Node4</title>
<polygon fill="white" stroke="#bfbfbf" points="151.5,-56.5 151.5,-75.5 199.5,-75.5 199.5,-56.5 151.5,-56.5"/>
<text text-anchor="middle" x="175.5" y="-63.5" font-family="Ubuntu Mono" font-size="10.00">string</text>
</g>
<!-- Node1&#45;&gt;Node4 -->
<g id="edge4" class="edge"><title>Node1&#45;&gt;Node4</title>
<path fill="none" stroke="midnightblue" d="M132.087,-112.083C139.659,-104.22 150.878,-92.5688 160.014,-83.0813"/>
<polygon fill="midnightblue" stroke="midnightblue" points="162.658,-85.3821 167.073,-75.7511 157.615,-80.5266 162.658,-85.3821"/>
</g>
<!-- Node2&#45;&gt;Node3 -->
<g id="edge2" class="edge"><title>Node2&#45;&gt;Node3</title>
<path fill="none" stroke="midnightblue" d="M53.7749,-56.083C59.1425,-48.4554 67.0176,-37.2645 73.5787,-27.9408"/>
<polygon fill="midnightblue" stroke="midnightblue" points="76.4492,-29.9434 79.3418,-19.7511 70.7245,-25.9149 76.4492,-29.9434"/>
</g>
</g>
</svg>
