<?xml version="1.0" encoding="UTF-8" standalone="no"?>
<!DOCTYPE svg PUBLIC "-//W3C//DTD SVG 1.1//EN"
 "http://www.w3.org/Graphics/SVG/1.1/DTD/svg11.dtd">
<!-- Generated by graphviz version 2.38.0 (20140413.2041)
 -->
<!-- Title: include/Clock.h Pages: 1 -->
<svg width="606pt" height="84pt"
 viewBox="0.00 0.00 605.50 84.00" xmlns="http://www.w3.org/2000/svg" xmlns:xlink="http://www.w3.org/1999/xlink">
<g id="graph0" class="graph" transform="scale(1 1) rotate(0) translate(4 80)">
<title>include/Clock.h</title>
<polygon fill="white" stroke="none" points="-4,4 -4,-80 601.5,-80 601.5,4 -4,4"/>
<!-- Node1 -->
<g id="node1" class="node"><title>Node1</title>
<polygon fill="#bfbfbf" stroke="black" points="236,-56.5 236,-75.5 331,-75.5 331,-56.5 236,-56.5"/>
<text text-anchor="middle" x="283.5" y="-63.5" font-family="Ubuntu Mono" font-size="10.00">include/Clock.h</text>
</g>
<!-- Node2 -->
<g id="node2" class="node"><title>Node2</title>
<g id="a_node2"><a xlink:href="_building_8cpp.html" target="_top" xlink:title="src/Building.cpp">
<polygon fill="white" stroke="black" points="0,-0.5 0,-19.5 101,-19.5 101,-0.5 0,-0.5"/>
<text text-anchor="middle" x="50.5" y="-7.5" font-family="Ubuntu Mono" font-size="10.00">src/Building.cpp</text>
</a>
</g>
</g>
<!-- Node1&#45;&gt;Node2 -->
<g id="edge1" class="edge"><title>Node1&#45;&gt;Node2</title>
<path fill="none" stroke="midnightblue" d="M236.697,-54.1529C192.673,-43.95 127.653,-28.8809 87.2468,-19.5164"/>
<polygon fill="midnightblue" stroke="midnightblue" points="236.048,-57.5953 246.58,-56.4435 237.629,-50.7761 236.048,-57.5953"/>
</g>
<!-- Node3 -->
<g id="node3" class="node"><title>Node3</title>
<g id="a_node3"><a xlink:href="_clock_8cpp.html" target="_top" xlink:title="src/Clock.cpp">
<polygon fill="white" stroke="black" points="119,-0.5 119,-19.5 204,-19.5 204,-0.5 119,-0.5"/>
<text text-anchor="middle" x="161.5" y="-7.5" font-family="Ubuntu Mono" font-size="10.00">src/Clock.cpp</text>
</a>
</g>
</g>
<!-- Node1&#45;&gt;Node3 -->
<g id="edge2" class="edge"><title>Node1&#45;&gt;Node3</title>
<path fill="none" stroke="midnightblue" d="M254.961,-52.3678C232.114,-42.2553 200.695,-28.3486 180.741,-19.5164"/>
<polygon fill="midnightblue" stroke="midnightblue" points="253.608,-55.5965 264.169,-56.4435 256.441,-49.1955 253.608,-55.5965"/>
</g>
<!-- Node4 -->
<g id="node4" class="node"><title>Node4</title>
<g id="a_node4"><a xlink:href="_event_factory_8cpp.html" target="_top" xlink:title="src/EventFactory.cpp">
<polygon fill="white" stroke="black" points="222.5,-0.5 222.5,-19.5 344.5,-19.5 344.5,-0.5 222.5,-0.5"/>
<text text-anchor="middle" x="283.5" y="-7.5" font-family="Ubuntu Mono" font-size="10.00">src/EventFactory.cpp</text>
</a>
</g>
</g>
<!-- Node1&#45;&gt;Node4 -->
<g id="edge3" class="edge"><title>Node1&#45;&gt;Node4</title>
<path fill="none" stroke="midnightblue" d="M283.5,-45.8045C283.5,-36.9102 283.5,-26.7798 283.5,-19.7511"/>
<polygon fill="midnightblue" stroke="midnightblue" points="280,-46.083 283.5,-56.083 287,-46.083 280,-46.083"/>
</g>
<!-- Node5 -->
<g id="node5" class="node"><title>Node5</title>
<g id="a_node5"><a xlink:href="_event_queue_8cpp.html" target="_top" xlink:title="src/EventQueue.cpp">
<polygon fill="white" stroke="black" points="363,-0.5 363,-19.5 474,-19.5 474,-0.5 363,-0.5"/>
<text text-anchor="middle" x="418.5" y="-7.5" font-family="Ubuntu Mono" font-size="10.00">src/EventQueue.cpp</text>
</a>
</g>
</g>
<!-- Node1&#45;&gt;Node5 -->
<g id="edge4" class="edge"><title>Node1&#45;&gt;Node5</title>
<path fill="none" stroke="midnightblue" d="M314.406,-52.6377C339.74,-42.504 374.931,-28.4274 397.209,-19.5164"/>
<polygon fill="midnightblue" stroke="midnightblue" points="312.876,-49.4799 304.891,-56.4435 315.476,-55.9792 312.876,-49.4799"/>
</g>
<!-- Node6 -->
<g id="node6" class="node"><title>Node6</title>
<g id="a_node6"><a xlink:href="_simulator_8cpp.html" target="_top" xlink:title="src/Simulator.cpp">
<polygon fill="white" stroke="black" points="491.5,-0.5 491.5,-19.5 597.5,-19.5 597.5,-0.5 491.5,-0.5"/>
<text text-anchor="middle" x="544.5" y="-7.5" font-family="Ubuntu Mono" font-size="10.00">src/Simulator.cpp</text>
</a>
</g>
</g>
<!-- Node1&#45;&gt;Node6 -->
<g id="edge5" class="edge"><title>Node1&#45;&gt;Node6</title>
<path fill="none" stroke="midnightblue" d="M334.687,-54.4096C384.013,-44.2042 457.695,-28.9597 503.337,-19.5164"/>
<polygon fill="midnightblue" stroke="midnightblue" points="333.94,-50.99 324.856,-56.4435 335.358,-57.8448 333.94,-50.99"/>
</g>
</g>
</svg>
