<?xml version="1.0" encoding="UTF-8" standalone="no"?>
<!DOCTYPE svg PUBLIC "-//W3C//DTD SVG 1.1//EN"
 "http://www.w3.org/Graphics/SVG/1.1/DTD/svg11.dtd">
<!-- Generated by graphviz version 2.38.0 (20140413.2041)
 -->
<!-- Title: src/Clock.cpp Pages: 1 -->
<svg width="393pt" height="196pt"
 viewBox="0.00 0.00 392.50 196.00" xmlns="http://www.w3.org/2000/svg" xmlns:xlink="http://www.w3.org/1999/xlink">
<g id="graph0" class="graph" transform="scale(1 1) rotate(0) translate(4 192)">
<title>src/Clock.cpp</title>
<polygon fill="white" stroke="none" points="-4,4 -4,-192 388.5,-192 388.5,4 -4,4"/>
<!-- Node1 -->
<g id="node1" class="node"><title>Node1</title>
<polygon fill="#bfbfbf" stroke="black" points="189.5,-168.5 189.5,-187.5 266.5,-187.5 266.5,-168.5 189.5,-168.5"/>
<text text-anchor="middle" x="228" y="-175.5" font-family="Helvetica,sans-Serif" font-size="10.00">src/Clock.cpp</text>
</g>
<!-- Node2 -->
<g id="node2" class="node"><title>Node2</title>
<g id="a_node2"><a xlink:href="_clock_8h.html" target="_top" xlink:title="Clock.h">
<polygon fill="white" stroke="black" points="97,-112.5 97,-131.5 147,-131.5 147,-112.5 97,-112.5"/>
<text text-anchor="middle" x="122" y="-119.5" font-family="Helvetica,sans-Serif" font-size="10.00">Clock.h</text>
</a>
</g>
</g>
<!-- Node1&#45;&gt;Node2 -->
<g id="edge1" class="edge"><title>Node1&#45;&gt;Node2</title>
<path fill="none" stroke="midnightblue" d="M210.969,-168.324C193.97,-159.664 167.624,-146.242 148.007,-136.249"/>
<polygon fill="midnightblue" stroke="midnightblue" points="149.488,-133.075 138.988,-131.655 146.31,-139.312 149.488,-133.075"/>
</g>
<!-- Node6 -->
<g id="node6" class="node"><title>Node6</title>
<g id="a_node6"><a xlink:href="_event_8h.html" target="_top" xlink:title="Event.h">
<polygon fill="white" stroke="black" points="169,-112.5 169,-131.5 219,-131.5 219,-112.5 169,-112.5"/>
<text text-anchor="middle" x="194" y="-119.5" font-family="Helvetica,sans-Serif" font-size="10.00">Event.h</text>
</a>
</g>
</g>
<!-- Node1&#45;&gt;Node6 -->
<g id="edge6" class="edge"><title>Node1&#45;&gt;Node6</title>
<path fill="none" stroke="midnightblue" d="M222.386,-168.083C217.633,-160.534 210.682,-149.495 204.848,-140.23"/>
<polygon fill="midnightblue" stroke="midnightblue" points="207.8,-138.349 199.51,-131.751 201.876,-142.078 207.8,-138.349"/>
</g>
<!-- Node9 -->
<g id="node9" class="node"><title>Node9</title>
<polygon fill="white" stroke="#bfbfbf" points="237,-112.5 237,-131.5 289,-131.5 289,-112.5 237,-112.5"/>
<text text-anchor="middle" x="263" y="-119.5" font-family="Helvetica,sans-Serif" font-size="10.00">sstream</text>
</g>
<!-- Node1&#45;&gt;Node9 -->
<g id="edge11" class="edge"><title>Node1&#45;&gt;Node9</title>
<path fill="none" stroke="midnightblue" d="M233.78,-168.083C238.672,-160.534 245.827,-149.495 251.833,-140.23"/>
<polygon fill="midnightblue" stroke="midnightblue" points="254.826,-142.046 257.328,-131.751 248.952,-138.239 254.826,-142.046"/>
</g>
<!-- Node10 -->
<g id="node10" class="node"><title>Node10</title>
<polygon fill="white" stroke="#bfbfbf" points="307.5,-112.5 307.5,-131.5 384.5,-131.5 384.5,-112.5 307.5,-112.5"/>
<text text-anchor="middle" x="346" y="-119.5" font-family="Helvetica,sans-Serif" font-size="10.00">glog/logging.h</text>
</g>
<!-- Node1&#45;&gt;Node10 -->
<g id="edge12" class="edge"><title>Node1&#45;&gt;Node10</title>
<path fill="none" stroke="midnightblue" d="M246.697,-168.444C265.944,-159.636 296.152,-145.812 318.2,-135.722"/>
<polygon fill="midnightblue" stroke="midnightblue" points="319.753,-138.86 327.39,-131.516 316.84,-132.495 319.753,-138.86"/>
</g>
<!-- Node3 -->
<g id="node3" class="node"><title>Node3</title>
<g id="a_node3"><a xlink:href="_event_observer_8h.html" target="_top" xlink:title="EventObserver.h">
<polygon fill="white" stroke="black" points="0,-56.5 0,-75.5 90,-75.5 90,-56.5 0,-56.5"/>
<text text-anchor="middle" x="45" y="-63.5" font-family="Helvetica,sans-Serif" font-size="10.00">EventObserver.h</text>
</a>
</g>
</g>
<!-- Node2&#45;&gt;Node3 -->
<g id="edge2" class="edge"><title>Node2&#45;&gt;Node3</title>
<path fill="none" stroke="midnightblue" d="M109.629,-112.324C97.8415,-104.058 79.8677,-91.4527 65.8645,-81.6322"/>
<polygon fill="midnightblue" stroke="midnightblue" points="67.5376,-78.5307 57.3407,-75.6545 63.5184,-84.2619 67.5376,-78.5307"/>
</g>
<!-- Node4 -->
<g id="node4" class="node"><title>Node4</title>
<polygon fill="white" stroke="#bfbfbf" points="55,-0.5 55,-19.5 107,-19.5 107,-0.5 55,-0.5"/>
<text text-anchor="middle" x="81" y="-7.5" font-family="Helvetica,sans-Serif" font-size="10.00">memory</text>
</g>
<!-- Node2&#45;&gt;Node4 -->
<g id="edge4" class="edge"><title>Node2&#45;&gt;Node4</title>
<path fill="none" stroke="midnightblue" d="M118.988,-112.128C114.697,-99.5753 106.512,-75.9391 99,-56 95.6209,-47.031 91.6853,-37.1344 88.3573,-28.9115"/>
<polygon fill="midnightblue" stroke="midnightblue" points="91.5716,-27.5245 84.5546,-19.5865 85.0899,-30.1678 91.5716,-27.5245"/>
</g>
<!-- Node5 -->
<g id="node5" class="node"><title>Node5</title>
<polygon fill="white" stroke="#bfbfbf" points="171.5,-0.5 171.5,-19.5 212.5,-19.5 212.5,-0.5 171.5,-0.5"/>
<text text-anchor="middle" x="192" y="-7.5" font-family="Helvetica,sans-Serif" font-size="10.00">string</text>
</g>
<!-- Node2&#45;&gt;Node5 -->
<g id="edge5" class="edge"><title>Node2&#45;&gt;Node5</title>
<path fill="none" stroke="midnightblue" d="M127.493,-112.368C138.994,-94.2957 165.797,-52.1764 180.986,-28.3074"/>
<polygon fill="midnightblue" stroke="midnightblue" points="184.117,-29.9071 186.533,-19.5914 178.211,-26.149 184.117,-29.9071"/>
</g>
<!-- Node3&#45;&gt;Node4 -->
<g id="edge3" class="edge"><title>Node3&#45;&gt;Node4</title>
<path fill="none" stroke="midnightblue" d="M50.9447,-56.083C55.9773,-48.5341 63.3368,-37.4948 69.5135,-28.2298"/>
<polygon fill="midnightblue" stroke="midnightblue" points="72.5311,-30.0131 75.1659,-19.7511 66.7067,-26.1301 72.5311,-30.0131"/>
</g>
<!-- Node6&#45;&gt;Node5 -->
<g id="edge10" class="edge"><title>Node6&#45;&gt;Node5</title>
<path fill="none" stroke="midnightblue" d="M193.843,-112.368C193.52,-94.617 192.776,-53.6664 192.338,-29.5974"/>
<polygon fill="midnightblue" stroke="midnightblue" points="195.838,-29.5261 192.156,-19.5914 188.839,-29.6534 195.838,-29.5261"/>
</g>
<!-- Node7 -->
<g id="node7" class="node"><title>Node7</title>
<g id="a_node7"><a xlink:href="_event_type_8h.html" target="_top" xlink:title="EventType.h">
<polygon fill="white" stroke="black" points="222,-56.5 222,-75.5 294,-75.5 294,-56.5 222,-56.5"/>
<text text-anchor="middle" x="258" y="-63.5" font-family="Helvetica,sans-Serif" font-size="10.00">EventType.h</text>
</a>
</g>
</g>
<!-- Node6&#45;&gt;Node7 -->
<g id="edge7" class="edge"><title>Node6&#45;&gt;Node7</title>
<path fill="none" stroke="midnightblue" d="M204.283,-112.324C213.836,-104.263 228.28,-92.0765 239.784,-82.3695"/>
<polygon fill="midnightblue" stroke="midnightblue" points="242.144,-84.9577 247.53,-75.8339 237.63,-79.6076 242.144,-84.9577"/>
</g>
<!-- Node7&#45;&gt;Node5 -->
<g id="edge9" class="edge"><title>Node7&#45;&gt;Node5</title>
<path fill="none" stroke="midnightblue" d="M247.396,-56.324C237.544,-48.2631 222.649,-36.0765 210.785,-26.3695"/>
<polygon fill="midnightblue" stroke="midnightblue" points="212.753,-23.4575 202.797,-19.8339 208.32,-28.8752 212.753,-23.4575"/>
</g>
<!-- Node8 -->
<g id="node8" class="node"><title>Node8</title>
<polygon fill="white" stroke="#bfbfbf" points="230.5,-0.5 230.5,-19.5 289.5,-19.5 289.5,-0.5 230.5,-0.5"/>
<text text-anchor="middle" x="260" y="-7.5" font-family="Helvetica,sans-Serif" font-size="10.00">stdexcept</text>
</g>
<!-- Node7&#45;&gt;Node8 -->
<g id="edge8" class="edge"><title>Node7&#45;&gt;Node8</title>
<path fill="none" stroke="midnightblue" d="M258.33,-56.083C258.592,-49.0059 258.968,-38.8611 259.297,-29.9865"/>
<polygon fill="midnightblue" stroke="midnightblue" points="262.803,-29.8738 259.676,-19.7511 255.808,-29.6147 262.803,-29.8738"/>
</g>
</g>
</svg>
