<?xml version="1.0" encoding="UTF-8" standalone="no"?>
<!DOCTYPE svg PUBLIC "-//W3C//DTD SVG 1.1//EN"
 "http://www.w3.org/Graphics/SVG/1.1/DTD/svg11.dtd">
<!-- Generated by graphviz version 2.38.0 (20140413.2041)
 -->
<!-- Title: include/Clock.h Pages: 1 -->
<svg width="196pt" height="140pt"
 viewBox="0.00 0.00 195.50 140.00" xmlns="http://www.w3.org/2000/svg" xmlns:xlink="http://www.w3.org/1999/xlink">
<g id="graph0" class="graph" transform="scale(1 1) rotate(0) translate(4 136)">
<title>include/Clock.h</title>
<polygon fill="white" stroke="none" points="-4,4 -4,-136 191.5,-136 191.5,4 -4,4"/>
<!-- Node1 -->
<g id="node1" class="node"><title>Node1</title>
<polygon fill="#bfbfbf" stroke="black" points="76,-112.5 76,-131.5 160,-131.5 160,-112.5 76,-112.5"/>
<text text-anchor="middle" x="118" y="-119.5" font-family="Helvetica,sans-Serif" font-size="10.00">include/Clock.h</text>
</g>
<!-- Node2 -->
<g id="node2" class="node"><title>Node2</title>
<g id="a_node2"><a xlink:href="_event_observer_8h.html" target="_top" xlink:title="EventObserver.h">
<polygon fill="white" stroke="black" points="0,-56.5 0,-75.5 90,-75.5 90,-56.5 0,-56.5"/>
<text text-anchor="middle" x="45" y="-63.5" font-family="Helvetica,sans-Serif" font-size="10.00">EventObserver.h</text>
</a>
</g>
</g>
<!-- Node1&#45;&gt;Node2 -->
<g id="edge1" class="edge"><title>Node1&#45;&gt;Node2</title>
<path fill="none" stroke="midnightblue" d="M106.271,-112.324C95.1626,-104.107 78.2578,-91.6017 65.0167,-81.8069"/>
<polygon fill="midnightblue" stroke="midnightblue" points="67.0631,-78.9671 56.9421,-75.8339 62.9001,-84.5948 67.0631,-78.9671"/>
</g>
<!-- Node3 -->
<g id="node3" class="node"><title>Node3</title>
<polygon fill="white" stroke="#bfbfbf" points="55,-0.5 55,-19.5 107,-19.5 107,-0.5 55,-0.5"/>
<text text-anchor="middle" x="81" y="-7.5" font-family="Helvetica,sans-Serif" font-size="10.00">memory</text>
</g>
<!-- Node1&#45;&gt;Node3 -->
<g id="edge3" class="edge"><title>Node1&#45;&gt;Node3</title>
<path fill="none" stroke="midnightblue" d="M115.685,-112.084C112.348,-99.4792 105.83,-75.7815 99,-56 95.8721,-46.9403 91.9641,-37.0338 88.5894,-28.8277"/>
<polygon fill="midnightblue" stroke="midnightblue" points="91.7891,-27.4071 84.699,-19.5343 85.3321,-30.1102 91.7891,-27.4071"/>
</g>
<!-- Node4 -->
<g id="node4" class="node"><title>Node4</title>
<polygon fill="white" stroke="#bfbfbf" points="146.5,-56.5 146.5,-75.5 187.5,-75.5 187.5,-56.5 146.5,-56.5"/>
<text text-anchor="middle" x="167" y="-63.5" font-family="Helvetica,sans-Serif" font-size="10.00">string</text>
</g>
<!-- Node1&#45;&gt;Node4 -->
<g id="edge4" class="edge"><title>Node1&#45;&gt;Node4</title>
<path fill="none" stroke="midnightblue" d="M126.091,-112.083C133.155,-104.298 143.588,-92.8015 152.149,-83.3665"/>
<polygon fill="midnightblue" stroke="midnightblue" points="154.931,-85.5087 159.059,-75.7511 149.747,-80.8047 154.931,-85.5087"/>
</g>
<!-- Node2&#45;&gt;Node3 -->
<g id="edge2" class="edge"><title>Node2&#45;&gt;Node3</title>
<path fill="none" stroke="midnightblue" d="M50.9447,-56.083C55.9773,-48.5341 63.3368,-37.4948 69.5135,-28.2298"/>
<polygon fill="midnightblue" stroke="midnightblue" points="72.5311,-30.0131 75.1659,-19.7511 66.7067,-26.1301 72.5311,-30.0131"/>
</g>
</g>
</svg>
