<?xml version="1.0" encoding="UTF-8" standalone="no"?>
<!DOCTYPE svg PUBLIC "-//W3C//DTD SVG 1.1//EN"
 "http://www.w3.org/Graphics/SVG/1.1/DTD/svg11.dtd">
<!-- Generated by graphviz version 2.38.0 (20140413.2041)
 -->
<!-- Title: src/Clock.cpp Pages: 1 -->
<svg width="414pt" height="196pt"
 viewBox="0.00 0.00 413.50 196.00" xmlns="http://www.w3.org/2000/svg" xmlns:xlink="http://www.w3.org/1999/xlink">
<g id="graph0" class="graph" transform="scale(1 1) rotate(0) translate(4 192)">
<title>src/Clock.cpp</title>
<polygon fill="white" stroke="none" points="-4,4 -4,-192 409.5,-192 409.5,4 -4,4"/>
<!-- Node1 -->
<g id="node1" class="node"><title>Node1</title>
<polygon fill="#bfbfbf" stroke="black" points="192,-168.5 192,-187.5 277,-187.5 277,-168.5 192,-168.5"/>
<text text-anchor="middle" x="234.5" y="-175.5" font-family="Ubuntu Mono" font-size="10.00">src/Clock.cpp</text>
</g>
<!-- Node2 -->
<g id="node2" class="node"><title>Node2</title>
<g id="a_node2"><a xlink:href="_clock_8h.html" target="_top" xlink:title="Clock.h">
<polygon fill="white" stroke="black" points="99,-112.5 99,-131.5 152,-131.5 152,-112.5 99,-112.5"/>
<text text-anchor="middle" x="125.5" y="-119.5" font-family="Ubuntu Mono" font-size="10.00">Clock.h</text>
</a>
</g>
</g>
<!-- Node1&#45;&gt;Node2 -->
<g id="edge1" class="edge"><title>Node1&#45;&gt;Node2</title>
<path fill="none" stroke="midnightblue" d="M216.987,-168.324C199.428,-159.625 172.169,-146.12 151.969,-136.113"/>
<polygon fill="midnightblue" stroke="midnightblue" points="153.484,-132.958 142.969,-131.655 150.376,-139.23 153.484,-132.958"/>
</g>
<!-- Node6 -->
<g id="node6" class="node"><title>Node6</title>
<g id="a_node6"><a xlink:href="_event_8h.html" target="_top" xlink:title="Event.h">
<polygon fill="white" stroke="black" points="173,-112.5 173,-131.5 226,-131.5 226,-112.5 173,-112.5"/>
<text text-anchor="middle" x="199.5" y="-119.5" font-family="Ubuntu Mono" font-size="10.00">Event.h</text>
</a>
</g>
</g>
<!-- Node1&#45;&gt;Node6 -->
<g id="edge6" class="edge"><title>Node1&#45;&gt;Node6</title>
<path fill="none" stroke="midnightblue" d="M228.72,-168.083C223.828,-160.534 216.673,-149.495 210.667,-140.23"/>
<polygon fill="midnightblue" stroke="midnightblue" points="213.548,-138.239 205.172,-131.751 207.674,-142.046 213.548,-138.239"/>
</g>
<!-- Node9 -->
<g id="node9" class="node"><title>Node9</title>
<polygon fill="white" stroke="#bfbfbf" points="244,-112.5 244,-131.5 297,-131.5 297,-112.5 244,-112.5"/>
<text text-anchor="middle" x="270.5" y="-119.5" font-family="Ubuntu Mono" font-size="10.00">sstream</text>
</g>
<!-- Node1&#45;&gt;Node9 -->
<g id="edge11" class="edge"><title>Node1&#45;&gt;Node9</title>
<path fill="none" stroke="midnightblue" d="M240.445,-168.083C245.477,-160.534 252.837,-149.495 259.013,-140.23"/>
<polygon fill="midnightblue" stroke="midnightblue" points="262.031,-142.013 264.666,-131.751 256.207,-138.13 262.031,-142.013"/>
</g>
<!-- Node10 -->
<g id="node10" class="node"><title>Node10</title>
<polygon fill="white" stroke="#bfbfbf" points="315.5,-112.5 315.5,-131.5 405.5,-131.5 405.5,-112.5 315.5,-112.5"/>
<text text-anchor="middle" x="360.5" y="-119.5" font-family="Ubuntu Mono" font-size="10.00">glog/logging.h</text>
</g>
<!-- Node1&#45;&gt;Node10 -->
<g id="edge12" class="edge"><title>Node1&#45;&gt;Node10</title>
<path fill="none" stroke="midnightblue" d="M254.465,-168.444C275.109,-159.596 307.563,-145.687 331.132,-135.586"/>
<polygon fill="midnightblue" stroke="midnightblue" points="332.816,-138.673 340.628,-131.516 330.058,-132.239 332.816,-138.673"/>
</g>
<!-- Node3 -->
<g id="node3" class="node"><title>Node3</title>
<g id="a_node3"><a xlink:href="_event_observer_8h.html" target="_top" xlink:title="EventObserver.h">
<polygon fill="white" stroke="black" points="0,-56.5 0,-75.5 95,-75.5 95,-56.5 0,-56.5"/>
<text text-anchor="middle" x="47.5" y="-63.5" font-family="Ubuntu Mono" font-size="10.00">EventObserver.h</text>
</a>
</g>
</g>
<!-- Node2&#45;&gt;Node3 -->
<g id="edge2" class="edge"><title>Node2&#45;&gt;Node3</title>
<path fill="none" stroke="midnightblue" d="M112.968,-112.324C100.914,-103.979 82.4732,-91.2122 68.2313,-81.3524"/>
<polygon fill="midnightblue" stroke="midnightblue" points="70.2151,-78.469 60.0009,-75.6545 66.2306,-84.2243 70.2151,-78.469"/>
</g>
<!-- Node4 -->
<g id="node4" class="node"><title>Node4</title>
<polygon fill="white" stroke="#bfbfbf" points="61.5,-0.5 61.5,-19.5 109.5,-19.5 109.5,-0.5 61.5,-0.5"/>
<text text-anchor="middle" x="85.5" y="-7.5" font-family="Ubuntu Mono" font-size="10.00">memory</text>
</g>
<!-- Node2&#45;&gt;Node4 -->
<g id="edge4" class="edge"><title>Node2&#45;&gt;Node4</title>
<path fill="none" stroke="midnightblue" d="M122.662,-112.115C118.609,-99.5486 110.84,-75.8954 103.5,-56 100.183,-47.008 96.2538,-37.1089 92.9144,-28.8902"/>
<polygon fill="midnightblue" stroke="midnightblue" points="96.1252,-27.4952 89.09,-19.5732 89.6495,-30.1533 96.1252,-27.4952"/>
</g>
<!-- Node5 -->
<g id="node5" class="node"><title>Node5</title>
<polygon fill="white" stroke="#bfbfbf" points="170.5,-0.5 170.5,-19.5 218.5,-19.5 218.5,-0.5 170.5,-0.5"/>
<text text-anchor="middle" x="194.5" y="-7.5" font-family="Ubuntu Mono" font-size="10.00">string</text>
</g>
<!-- Node2&#45;&gt;Node5 -->
<g id="edge5" class="edge"><title>Node2&#45;&gt;Node5</title>
<path fill="none" stroke="midnightblue" d="M130.914,-112.368C142.251,-94.2957 168.671,-52.1764 183.644,-28.3074"/>
<polygon fill="midnightblue" stroke="midnightblue" points="186.762,-29.9226 189.111,-19.5914 180.832,-26.2029 186.762,-29.9226"/>
</g>
<!-- Node3&#45;&gt;Node4 -->
<g id="edge3" class="edge"><title>Node3&#45;&gt;Node4</title>
<path fill="none" stroke="midnightblue" d="M53.7749,-56.083C59.1425,-48.4554 67.0176,-37.2645 73.5787,-27.9408"/>
<polygon fill="midnightblue" stroke="midnightblue" points="76.4492,-29.9434 79.3418,-19.7511 70.7245,-25.9149 76.4492,-29.9434"/>
</g>
<!-- Node6&#45;&gt;Node5 -->
<g id="edge10" class="edge"><title>Node6&#45;&gt;Node5</title>
<path fill="none" stroke="midnightblue" d="M199.108,-112.368C198.301,-94.617 196.439,-53.6664 195.345,-29.5974"/>
<polygon fill="midnightblue" stroke="midnightblue" points="198.841,-29.4221 194.891,-19.5914 191.848,-29.7401 198.841,-29.4221"/>
</g>
<!-- Node7 -->
<g id="node7" class="node"><title>Node7</title>
<g id="a_node7"><a xlink:href="_event_type_8h.html" target="_top" xlink:title="EventType.h">
<polygon fill="white" stroke="black" points="227.5,-56.5 227.5,-75.5 301.5,-75.5 301.5,-56.5 227.5,-56.5"/>
<text text-anchor="middle" x="264.5" y="-63.5" font-family="Ubuntu Mono" font-size="10.00">EventType.h</text>
</a>
</g>
</g>
<!-- Node6&#45;&gt;Node7 -->
<g id="edge7" class="edge"><title>Node6&#45;&gt;Node7</title>
<path fill="none" stroke="midnightblue" d="M209.943,-112.324C219.646,-104.263 234.315,-92.0765 246,-82.3695"/>
<polygon fill="midnightblue" stroke="midnightblue" points="248.411,-84.9163 253.867,-75.8339 243.938,-79.532 248.411,-84.9163"/>
</g>
<!-- Node7&#45;&gt;Node5 -->
<g id="edge9" class="edge"><title>Node7&#45;&gt;Node5</title>
<path fill="none" stroke="midnightblue" d="M253.253,-56.324C242.703,-48.1849 226.699,-35.8395 214.058,-26.0874"/>
<polygon fill="midnightblue" stroke="midnightblue" points="216.007,-23.1707 205.951,-19.8339 211.731,-28.7132 216.007,-23.1707"/>
</g>
<!-- Node8 -->
<g id="node8" class="node"><title>Node8</title>
<polygon fill="white" stroke="#bfbfbf" points="236.5,-0.5 236.5,-19.5 300.5,-19.5 300.5,-0.5 236.5,-0.5"/>
<text text-anchor="middle" x="268.5" y="-7.5" font-family="Ubuntu Mono" font-size="10.00">stdexcept</text>
</g>
<!-- Node7&#45;&gt;Node8 -->
<g id="edge8" class="edge"><title>Node7&#45;&gt;Node8</title>
<path fill="none" stroke="midnightblue" d="M265.161,-56.083C265.685,-49.0059 266.436,-38.8611 267.094,-29.9865"/>
<polygon fill="midnightblue" stroke="midnightblue" points="270.603,-29.9823 267.852,-19.7511 263.623,-29.4652 270.603,-29.9823"/>
</g>
</g>
</svg>
