<?xml version="1.0" encoding="UTF-8" standalone="no"?>
<!DOCTYPE svg PUBLIC "-//W3C//DTD SVG 1.1//EN"
 "http://www.w3.org/Graphics/SVG/1.1/DTD/svg11.dtd">
<!-- Generated by graphviz version 2.38.0 (20140413.2041)
 -->
<!-- Title: include/CostFunctionCreator.h Pages: 1 -->
<!--zoomable 207 -->
<svg id="main" version="1.1" xmlns="http://www.w3.org/2000/svg" xmlns:xlink="http://www.w3.org/1999/xlink" xml:space="preserve" onload="init(evt)">
<style type="text/css"><![CDATA[
.edge:hover path { stroke: red; }
.edge:hover polygon { stroke: red; fill: red; }
]]></style>
<script type="text/javascript"><![CDATA[
var edges = document.getElementsByTagName('g');
if (edges && edges.length) {
  for (var i=0;i<edges.length;i++) {
    if (edges[i].id.substr(0,4)=='edge') {
      edges[i].setAttribute('class','edge');
    }
  }
}
]]></script>
        <defs>
                <circle id="rim" cx="0" cy="0" r="7"/>
                <circle id="rim2" cx="0" cy="0" r="3.5"/>
                <g id="zoomPlus">
                        <use xlink:href="#rim" fill="#404040">
                                <set attributeName="fill" to="#808080" begin="zoomplus.mouseover" end="zoomplus.mouseout"/>
                        </use>
                        <path d="M-4,0h8M0,-4v8" fill="none" stroke="white" stroke-width="1.5" pointer-events="none"/>
                </g>
                <g id="zoomMin">
                        <use xlink:href="#rim" fill="#404040">
                                <set attributeName="fill" to="#808080" begin="zoomminus.mouseover" end="zoomminus.mouseout"/>
                        </use>
                        <path d="M-4,0h8" fill="none" stroke="white" stroke-width="1.5" pointer-events="none"/>
                </g>
                <g id="dirArrow">
                        <path fill="none" stroke="white" stroke-width="1.5" d="M0,-3.0v7 M-2.5,-0.5L0,-3.0L2.5,-0.5"/>
                </g>
               <g id="resetDef">
                       <use xlink:href="#rim2" fill="#404040">
                               <set attributeName="fill" to="#808080" begin="reset.mouseover" end="reset.mouseout"/>
                       </use>
               </g>
        </defs>

<script type="text/javascript">
var viewWidth = 945;
var viewHeight = 207;
var sectionId = 'dynsection-0';
</script>
<script xlink:href="svgpan.js"/>
<svg id="graph" class="graph">
<g id="viewport">
<title>include/CostFunctionCreator.h</title>
<polygon fill="white" stroke="none" points="-4,4 -4,-203 940.768,-203 940.768,4 -4,4"/>
<!-- Node1 -->
<g id="node1" class="node"><title>Node1</title>
<polygon fill="#bfbfbf" stroke="black" points="260.268,-179.5 260.268,-198.5 409.268,-198.5 409.268,-179.5 260.268,-179.5"/>
<text text-anchor="middle" x="334.768" y="-186.5" font-family="Helvetica,sans-Serif" font-size="10.00">include/CostFunctionCreator.h</text>
</g>
<!-- Node2 -->
<g id="node2" class="node"><title>Node2</title>
<g id="a_node2"><a xlink:href="_better_nearest_neighbour_cost_function_8h.html" target="_top" xlink:title="BetterNearestNeighbourCost\lFunction.h">
<polygon fill="white" stroke="black" points="35.2676,-112.5 35.2676,-142.5 178.268,-142.5 178.268,-112.5 35.2676,-112.5"/>
<text text-anchor="start" x="43.2676" y="-130.5" font-family="Helvetica,sans-Serif" font-size="10.00">BetterNearestNeighbourCost</text>
<text text-anchor="middle" x="106.768" y="-119.5" font-family="Helvetica,sans-Serif" font-size="10.00">Function.h</text>
</a>
</g>
</g>
<!-- Node1&#45;&gt;Node2 -->
<g id="edge1" class="edge"><title>Node1&#45;&gt;Node2</title>
<path fill="none" stroke="midnightblue" d="M302.101,-179.475C267.83,-170.532 213.098,-156.249 170.277,-145.074"/>
<polygon fill="midnightblue" stroke="midnightblue" points="171.062,-141.662 160.503,-142.523 169.295,-148.435 171.062,-141.662"/>
</g>
<!-- Node3 -->
<g id="node3" class="node"><title>Node3</title>
<g id="a_node3"><a xlink:href="_cost_function_8h.html" target="_top" xlink:title="CostFunction.h">
<polygon fill="white" stroke="black" points="293.268,-56.5 293.268,-75.5 376.268,-75.5 376.268,-56.5 293.268,-56.5"/>
<text text-anchor="middle" x="334.768" y="-63.5" font-family="Helvetica,sans-Serif" font-size="10.00">CostFunction.h</text>
</a>
</g>
</g>
<!-- Node1&#45;&gt;Node3 -->
<g id="edge4" class="edge"><title>Node1&#45;&gt;Node3</title>
<path fill="none" stroke="midnightblue" d="M260.163,-187.896C178.587,-186.007 55.4687,-177.34 25.7676,-143 16.7545,-132.579 16.7545,-122.421 25.7676,-112 58.3925,-74.2797 203.733,-67.5348 282.918,-66.7249"/>
<polygon fill="midnightblue" stroke="midnightblue" points="283.193,-70.223 293.167,-66.6494 283.142,-63.2232 283.193,-70.223"/>
</g>
<!-- Node4 -->
<g id="node4" class="node"><title>Node4</title>
<polygon fill="white" stroke="#bfbfbf" points="308.768,-0.5 308.768,-19.5 360.768,-19.5 360.768,-0.5 308.768,-0.5"/>
<text text-anchor="middle" x="334.768" y="-7.5" font-family="Helvetica,sans-Serif" font-size="10.00">memory</text>
</g>
<!-- Node1&#45;&gt;Node4 -->
<g id="edge20" class="edge"><title>Node1&#45;&gt;Node4</title>
<path fill="none" stroke="midnightblue" d="M260.021,-188.302C175.858,-186.86 46.7645,-178.676 15.7676,-143 -66.4413,-48.3803 198.549,-20.2629 298.337,-13.1388"/>
<polygon fill="midnightblue" stroke="midnightblue" points="298.823,-16.6139 308.562,-12.4415 298.347,-9.63009 298.823,-16.6139"/>
</g>
<!-- Node5 -->
<g id="node5" class="node"><title>Node5</title>
<g id="a_node5"><a xlink:href="_cost_function_type_8h.html" target="_top" xlink:title="CostFunctionType.h">
<polygon fill="white" stroke="black" points="795.268,-118 795.268,-137 900.268,-137 900.268,-118 795.268,-118"/>
<text text-anchor="middle" x="847.768" y="-125" font-family="Helvetica,sans-Serif" font-size="10.00">CostFunctionType.h</text>
</a>
</g>
</g>
<!-- Node1&#45;&gt;Node5 -->
<g id="edge5" class="edge"><title>Node1&#45;&gt;Node5</title>
<path fill="none" stroke="midnightblue" d="M409.378,-183.544C499.14,-177.496 654.195,-164.854 785.768,-143 791.994,-141.966 798.526,-140.672 804.919,-139.285"/>
<polygon fill="midnightblue" stroke="midnightblue" points="805.805,-142.673 814.786,-137.054 804.261,-135.846 805.805,-142.673"/>
</g>
<!-- Node9 -->
<g id="node9" class="node"><title>Node9</title>
<g id="a_node9"><a xlink:href="_dummy_cost_function_8h.html" target="_top" xlink:title="DummyCostFunction.h">
<polygon fill="white" stroke="black" points="196.768,-118 196.768,-137 314.768,-137 314.768,-118 196.768,-118"/>
<text text-anchor="middle" x="255.768" y="-125" font-family="Helvetica,sans-Serif" font-size="10.00">DummyCostFunction.h</text>
</a>
</g>
</g>
<!-- Node1&#45;&gt;Node9 -->
<g id="edge9" class="edge"><title>Node1&#45;&gt;Node9</title>
<path fill="none" stroke="midnightblue" d="M323.449,-179.475C310.895,-170.02 290.416,-154.596 275.268,-143.187"/>
<polygon fill="midnightblue" stroke="midnightblue" points="277.159,-140.23 267.065,-137.009 272.948,-145.821 277.159,-140.23"/>
</g>
<!-- Node10 -->
<g id="node10" class="node"><title>Node10</title>
<g id="a_node10"><a xlink:href="_nearest_neighbour_cost_function_8h.html" target="_top" xlink:title="NearestNeighbourCostFunction.h">
<polygon fill="white" stroke="black" points="332.768,-118 332.768,-137 494.768,-137 494.768,-118 332.768,-118"/>
<text text-anchor="middle" x="413.768" y="-125" font-family="Helvetica,sans-Serif" font-size="10.00">NearestNeighbourCostFunction.h</text>
</a>
</g>
</g>
<!-- Node1&#45;&gt;Node10 -->
<g id="edge11" class="edge"><title>Node1&#45;&gt;Node10</title>
<path fill="none" stroke="midnightblue" d="M346.086,-179.475C358.64,-170.02 379.119,-154.596 394.267,-143.187"/>
<polygon fill="midnightblue" stroke="midnightblue" points="396.588,-145.821 402.47,-137.009 392.376,-140.23 396.588,-145.821"/>
</g>
<!-- Node11 -->
<g id="node11" class="node"><title>Node11</title>
<g id="a_node11"><a xlink:href="_random_cost_function_8h.html" target="_top" xlink:title="RandomCostFunction.h">
<polygon fill="white" stroke="black" points="656.768,-118 656.768,-137 776.768,-137 776.768,-118 656.768,-118"/>
<text text-anchor="middle" x="716.768" y="-125" font-family="Helvetica,sans-Serif" font-size="10.00">RandomCostFunction.h</text>
</a>
</g>
</g>
<!-- Node1&#45;&gt;Node11 -->
<g id="edge13" class="edge"><title>Node1&#45;&gt;Node11</title>
<path fill="none" stroke="midnightblue" d="M402.208,-179.481C465.528,-171.198 562.813,-157.736 646.768,-143 653.502,-141.818 660.58,-140.473 667.542,-139.09"/>
<polygon fill="midnightblue" stroke="midnightblue" points="668.499,-142.468 677.605,-137.052 667.109,-135.607 668.499,-142.468"/>
</g>
<!-- Node13 -->
<g id="node13" class="node"><title>Node13</title>
<g id="a_node13"><a xlink:href="_weighted_cost_function_8h.html" target="_top" xlink:title="WeightedCostFunction.h">
<polygon fill="white" stroke="black" points="513.268,-118 513.268,-137 638.268,-137 638.268,-118 513.268,-118"/>
<text text-anchor="middle" x="575.768" y="-125" font-family="Helvetica,sans-Serif" font-size="10.00">WeightedCostFunction.h</text>
</a>
</g>
</g>
<!-- Node1&#45;&gt;Node13 -->
<g id="edge18" class="edge"><title>Node1&#45;&gt;Node13</title>
<path fill="none" stroke="midnightblue" d="M369.297,-179.475C411.979,-168.937 484.689,-150.986 531.45,-139.441"/>
<polygon fill="midnightblue" stroke="midnightblue" points="532.433,-142.804 541.302,-137.009 530.755,-136.008 532.433,-142.804"/>
</g>
<!-- Node2&#45;&gt;Node3 -->
<g id="edge2" class="edge"><title>Node2&#45;&gt;Node3</title>
<path fill="none" stroke="midnightblue" d="M160.512,-112.475C200.705,-101.986 254.923,-87.8367 292.149,-78.1221"/>
<polygon fill="midnightblue" stroke="midnightblue" points="293.38,-81.4181 302.172,-75.5064 291.612,-74.6449 293.38,-81.4181"/>
</g>
<!-- Node3&#45;&gt;Node4 -->
<g id="edge3" class="edge"><title>Node3&#45;&gt;Node4</title>
<path fill="none" stroke="midnightblue" d="M334.768,-56.083C334.768,-49.0059 334.768,-38.8611 334.768,-29.9865"/>
<polygon fill="midnightblue" stroke="midnightblue" points="338.268,-29.751 334.768,-19.7511 331.268,-29.7511 338.268,-29.751"/>
</g>
<!-- Node6 -->
<g id="node6" class="node"><title>Node6</title>
<g id="a_node6"><a xlink:href="_missing_cost_function_error_8h.html" target="_top" xlink:title="MissingCostFunctionError.h">
<polygon fill="white" stroke="black" points="798.768,-56.5 798.768,-75.5 936.768,-75.5 936.768,-56.5 798.768,-56.5"/>
<text text-anchor="middle" x="867.768" y="-63.5" font-family="Helvetica,sans-Serif" font-size="10.00">MissingCostFunctionError.h</text>
</a>
</g>
</g>
<!-- Node5&#45;&gt;Node6 -->
<g id="edge6" class="edge"><title>Node5&#45;&gt;Node6</title>
<path fill="none" stroke="midnightblue" d="M850.633,-117.975C853.485,-109.492 857.951,-96.2043 861.609,-85.3222"/>
<polygon fill="midnightblue" stroke="midnightblue" points="865.039,-86.1031 864.907,-75.5091 858.404,-83.8727 865.039,-86.1031"/>
</g>
<!-- Node8 -->
<g id="node8" class="node"><title>Node8</title>
<polygon fill="white" stroke="#bfbfbf" points="739.268,-56.5 739.268,-75.5 780.268,-75.5 780.268,-56.5 739.268,-56.5"/>
<text text-anchor="middle" x="759.768" y="-63.5" font-family="Helvetica,sans-Serif" font-size="10.00">string</text>
</g>
<!-- Node5&#45;&gt;Node8 -->
<g id="edge8" class="edge"><title>Node5&#45;&gt;Node8</title>
<path fill="none" stroke="midnightblue" d="M835.159,-117.975C821.044,-108.431 797.936,-92.8073 781.018,-81.3683"/>
<polygon fill="midnightblue" stroke="midnightblue" points="782.597,-78.2109 772.352,-75.5091 778.676,-84.0098 782.597,-78.2109"/>
</g>
<!-- Node7 -->
<g id="node7" class="node"><title>Node7</title>
<polygon fill="white" stroke="#bfbfbf" points="838.268,-0.5 838.268,-19.5 897.268,-19.5 897.268,-0.5 838.268,-0.5"/>
<text text-anchor="middle" x="867.768" y="-7.5" font-family="Helvetica,sans-Serif" font-size="10.00">stdexcept</text>
</g>
<!-- Node6&#45;&gt;Node7 -->
<g id="edge7" class="edge"><title>Node6&#45;&gt;Node7</title>
<path fill="none" stroke="midnightblue" d="M867.768,-56.083C867.768,-49.0059 867.768,-38.8611 867.768,-29.9865"/>
<polygon fill="midnightblue" stroke="midnightblue" points="871.268,-29.751 867.768,-19.7511 864.268,-29.7511 871.268,-29.751"/>
</g>
<!-- Node9&#45;&gt;Node3 -->
<g id="edge10" class="edge"><title>Node9&#45;&gt;Node3</title>
<path fill="none" stroke="midnightblue" d="M267.086,-117.975C279.64,-108.52 300.119,-93.0961 315.267,-81.6871"/>
<polygon fill="midnightblue" stroke="midnightblue" points="317.588,-84.321 323.47,-75.5091 313.376,-78.7295 317.588,-84.321"/>
</g>
<!-- Node10&#45;&gt;Node3 -->
<g id="edge12" class="edge"><title>Node10&#45;&gt;Node3</title>
<path fill="none" stroke="midnightblue" d="M402.449,-117.975C389.895,-108.52 369.416,-93.0961 354.268,-81.6871"/>
<polygon fill="midnightblue" stroke="midnightblue" points="356.159,-78.7295 346.065,-75.5091 351.948,-84.321 356.159,-78.7295"/>
</g>
<!-- Node11&#45;&gt;Node3 -->
<g id="edge14" class="edge"><title>Node11&#45;&gt;Node3</title>
<path fill="none" stroke="midnightblue" d="M677.605,-117.948C667.575,-115.879 656.791,-113.759 646.768,-112 555.369,-95.9579 448.17,-81.425 386.199,-73.4398"/>
<polygon fill="midnightblue" stroke="midnightblue" points="386.644,-69.9683 376.28,-72.168 385.753,-76.9115 386.644,-69.9683"/>
</g>
<!-- Node11&#45;&gt;Node4 -->
<g id="edge15" class="edge"><title>Node11&#45;&gt;Node4</title>
<path fill="none" stroke="midnightblue" d="M688.368,-117.913C619.999,-97.2414 446.341,-44.7349 370.792,-21.8923"/>
<polygon fill="midnightblue" stroke="midnightblue" points="371.39,-18.4164 360.805,-18.8724 369.364,-25.1169 371.39,-18.4164"/>
</g>
<!-- Node11&#45;&gt;Node8 -->
<g id="edge17" class="edge"><title>Node11&#45;&gt;Node8</title>
<path fill="none" stroke="midnightblue" d="M722.928,-117.975C729.378,-109.05 739.672,-94.8071 747.74,-83.6425"/>
<polygon fill="midnightblue" stroke="midnightblue" points="750.598,-85.6642 753.618,-75.5091 744.924,-81.564 750.598,-85.6642"/>
</g>
<!-- Node12 -->
<g id="node12" class="node"><title>Node12</title>
<polygon fill="white" stroke="#bfbfbf" points="672.268,-56.5 672.268,-75.5 721.268,-75.5 721.268,-56.5 672.268,-56.5"/>
<text text-anchor="middle" x="696.768" y="-63.5" font-family="Helvetica,sans-Serif" font-size="10.00">random</text>
</g>
<!-- Node11&#45;&gt;Node12 -->
<g id="edge16" class="edge"><title>Node11&#45;&gt;Node12</title>
<path fill="none" stroke="midnightblue" d="M713.902,-117.975C711.051,-109.492 706.584,-96.2043 702.926,-85.3222"/>
<polygon fill="midnightblue" stroke="midnightblue" points="706.132,-83.8727 699.628,-75.5091 699.496,-86.1031 706.132,-83.8727"/>
</g>
<!-- Node13&#45;&gt;Node3 -->
<g id="edge19" class="edge"><title>Node13&#45;&gt;Node3</title>
<path fill="none" stroke="midnightblue" d="M541.238,-117.975C498.556,-107.437 425.847,-89.4863 379.085,-77.9415"/>
<polygon fill="midnightblue" stroke="midnightblue" points="379.78,-74.5081 369.233,-75.5091 378.103,-81.304 379.78,-74.5081"/>
</g>
</g>
</svg>
        <g id="navigator" transform="translate(0 0)" fill="#404254">
                <rect fill="#f2f5e9" fill-opacity="0.5" stroke="#606060" stroke-width=".5" x="0" y="0" width="60" height="60"/>
                <use id="zoomplus" xlink:href="#zoomPlus" x="17" y="9" onmousedown="handleZoom(evt,'in')"/>
                <use id="zoomminus" xlink:href="#zoomMin" x="42" y="9" onmousedown="handleZoom(evt,'out')"/>
                <use id="reset" xlink:href="#resetDef" x="30" y="36" onmousedown="handleReset()"/>
                <g id="arrowUp" xlink:href="#dirArrow" transform="translate(30 24)" onmousedown="handlePan(0,-1)">
                  <use xlink:href="#rim" fill="#404040">
                        <set attributeName="fill" to="#808080" begin="arrowUp.mouseover" end="arrowUp.mouseout"/>
                  </use>
                  <path fill="none" stroke="white" stroke-width="1.5" d="M0,-3.0v7 M-2.5,-0.5L0,-3.0L2.5,-0.5"/>
                </g>
                <g id="arrowRight" xlink:href="#dirArrow" transform="rotate(90) translate(36 -43)" onmousedown="handlePan(1,0)">
                  <use xlink:href="#rim" fill="#404040">
                        <set attributeName="fill" to="#808080" begin="arrowRight.mouseover" end="arrowRight.mouseout"/>
                  </use>
                  <path fill="none" stroke="white" stroke-width="1.5" d="M0,-3.0v7 M-2.5,-0.5L0,-3.0L2.5,-0.5"/>
                </g>
                <g id="arrowDown" xlink:href="#dirArrow" transform="rotate(180) translate(-30 -48)" onmousedown="handlePan(0,1)">
                  <use xlink:href="#rim" fill="#404040">
                        <set attributeName="fill" to="#808080" begin="arrowDown.mouseover" end="arrowDown.mouseout"/>
                  </use>
                  <path fill="none" stroke="white" stroke-width="1.5" d="M0,-3.0v7 M-2.5,-0.5L0,-3.0L2.5,-0.5"/>
                </g>
                <g id="arrowLeft" xlink:href="#dirArrow" transform="rotate(270) translate(-36 17)" onmousedown="handlePan(-1,0)">
                  <use xlink:href="#rim" fill="#404040">
                        <set attributeName="fill" to="#808080" begin="arrowLeft.mouseover" end="arrowLeft.mouseout"/>
                  </use>
                  <path fill="none" stroke="white" stroke-width="1.5" d="M0,-3.0v7 M-2.5,-0.5L0,-3.0L2.5,-0.5"/>
                </g>
        </g>
        <svg viewBox="0 0 15 15" width="100%" height="30px" preserveAspectRatio="xMaxYMin meet">
         <g id="arrow_out" transform="scale(0.3 0.3)">
          <a xlink:href="_cost_function_creator_8h__incl_org.svg" target="_base">
           <rect id="button" ry="5" rx="5" y="6" x="6" height="38" width="38"
                fill="#f2f5e9" fill-opacity="0.5" stroke="#606060" stroke-width="1.0"/>
           <path id="arrow"
             d="M 11.500037,31.436501 C 11.940474,20.09759 22.043105,11.32322 32.158766,21.979434 L 37.068811,17.246167 C 37.068811,17.246167 37.088388,32 37.088388,32 L 22.160133,31.978069 C 22.160133,31.978069 26.997745,27.140456 26.997745,27.140456 C 18.528582,18.264221 13.291696,25.230495 11.500037,31.436501 z"
             style="fill:#404040;"/>
          </a>
         </g>
        </svg>
</svg>
