<?xml version="1.0" encoding="UTF-8" standalone="no"?>
<!DOCTYPE svg PUBLIC "-//W3C//DTD SVG 1.1//EN"
 "http://www.w3.org/Graphics/SVG/1.1/DTD/svg11.dtd">
<!-- Generated by graphviz version 2.38.0 (20140413.2041)
 -->
<!-- Title: include/CostFunctionType.h Pages: 1 -->
<svg width="228pt" height="140pt"
 viewBox="0.00 0.00 227.50 140.00" xmlns="http://www.w3.org/2000/svg" xmlns:xlink="http://www.w3.org/1999/xlink">
<g id="graph0" class="graph" transform="scale(1 1) rotate(0) translate(4 136)">
<title>include/CostFunctionType.h</title>
<polygon fill="white" stroke="none" points="-4,4 -4,-136 223.5,-136 223.5,4 -4,4"/>
<!-- Node1 -->
<g id="node1" class="node"><title>Node1</title>
<polygon fill="#bfbfbf" stroke="black" points="59,-112.5 59,-131.5 212,-131.5 212,-112.5 59,-112.5"/>
<text text-anchor="middle" x="135.5" y="-119.5" font-family="Ubuntu Mono" font-size="10.00">include/CostFunctionType.h</text>
</g>
<!-- Node2 -->
<g id="node2" class="node"><title>Node2</title>
<g id="a_node2"><a xlink:href="_missing_cost_function_error_8h.html" target="_top" xlink:title="MissingCostFunctionError.h">
<polygon fill="white" stroke="black" points="0,-56.5 0,-75.5 153,-75.5 153,-56.5 0,-56.5"/>
<text text-anchor="middle" x="76.5" y="-63.5" font-family="Ubuntu Mono" font-size="10.00">MissingCostFunctionError.h</text>
</a>
</g>
</g>
<!-- Node1&#45;&gt;Node2 -->
<g id="edge1" class="edge"><title>Node1&#45;&gt;Node2</title>
<path fill="none" stroke="midnightblue" d="M126.021,-112.324C117.299,-104.341 104.157,-92.3128 93.6022,-82.6529"/>
<polygon fill="midnightblue" stroke="midnightblue" points="95.8917,-80.0036 86.1519,-75.8339 91.1655,-85.1674 95.8917,-80.0036"/>
</g>
<!-- Node4 -->
<g id="node4" class="node"><title>Node4</title>
<polygon fill="white" stroke="#bfbfbf" points="171.5,-56.5 171.5,-75.5 219.5,-75.5 219.5,-56.5 171.5,-56.5"/>
<text text-anchor="middle" x="195.5" y="-63.5" font-family="Ubuntu Mono" font-size="10.00">string</text>
</g>
<!-- Node1&#45;&gt;Node4 -->
<g id="edge3" class="edge"><title>Node1&#45;&gt;Node4</title>
<path fill="none" stroke="midnightblue" d="M145.14,-112.324C154.01,-104.341 167.375,-92.3128 178.108,-82.6529"/>
<polygon fill="midnightblue" stroke="midnightblue" points="180.593,-85.1251 185.685,-75.8339 175.91,-79.922 180.593,-85.1251"/>
</g>
<!-- Node3 -->
<g id="node3" class="node"><title>Node3</title>
<polygon fill="white" stroke="#bfbfbf" points="44.5,-0.5 44.5,-19.5 108.5,-19.5 108.5,-0.5 44.5,-0.5"/>
<text text-anchor="middle" x="76.5" y="-7.5" font-family="Ubuntu Mono" font-size="10.00">stdexcept</text>
</g>
<!-- Node2&#45;&gt;Node3 -->
<g id="edge2" class="edge"><title>Node2&#45;&gt;Node3</title>
<path fill="none" stroke="midnightblue" d="M76.5,-56.083C76.5,-49.0059 76.5,-38.8611 76.5,-29.9865"/>
<polygon fill="midnightblue" stroke="midnightblue" points="80.0001,-29.751 76.5,-19.7511 73.0001,-29.7511 80.0001,-29.751"/>
</g>
</g>
</svg>
