<?xml version="1.0" encoding="UTF-8" standalone="no"?>
<!DOCTYPE svg PUBLIC "-//W3C//DTD SVG 1.1//EN"
 "http://www.w3.org/Graphics/SVG/1.1/DTD/svg11.dtd">
<!-- Generated by graphviz version 2.38.0 (20140413.2041)
 -->
<!-- Title: include/CostFunctionType.h Pages: 1 -->
<svg width="522pt" height="140pt"
 viewBox="0.00 0.00 522.00 140.00" xmlns="http://www.w3.org/2000/svg" xmlns:xlink="http://www.w3.org/1999/xlink">
<g id="graph0" class="graph" transform="scale(1 1) rotate(0) translate(4 136)">
<title>include/CostFunctionType.h</title>
<polygon fill="white" stroke="none" points="-4,4 -4,-136 518,-136 518,4 -4,4"/>
<!-- Node1 -->
<g id="node1" class="node"><title>Node1</title>
<polygon fill="#bfbfbf" stroke="black" points="156,-112.5 156,-131.5 295,-131.5 295,-112.5 156,-112.5"/>
<text text-anchor="middle" x="225.5" y="-119.5" font-family="Helvetica,sans-Serif" font-size="10.00">include/CostFunctionType.h</text>
</g>
<!-- Node2 -->
<g id="node2" class="node"><title>Node2</title>
<g id="a_node2"><a xlink:href="_reporter_8cpp.html" target="_top" xlink:title="src/Reporter.cpp">
<polygon fill="white" stroke="black" points="0,-56.5 0,-75.5 89,-75.5 89,-56.5 0,-56.5"/>
<text text-anchor="middle" x="44.5" y="-63.5" font-family="Helvetica,sans-Serif" font-size="10.00">src/Reporter.cpp</text>
</a>
</g>
</g>
<!-- Node1&#45;&gt;Node2 -->
<g id="edge1" class="edge"><title>Node1&#45;&gt;Node2</title>
<path fill="none" stroke="midnightblue" d="M187.181,-109.568C153.036,-99.381 103.839,-84.7034 73.0458,-75.5164"/>
<polygon fill="midnightblue" stroke="midnightblue" points="186.237,-112.938 196.82,-112.444 188.238,-106.231 186.237,-112.938"/>
</g>
<!-- Node3 -->
<g id="node3" class="node"><title>Node3</title>
<g id="a_node3"><a xlink:href="_scenario_8cpp.html" target="_top" xlink:title="src/Scenario.cpp">
<polygon fill="white" stroke="black" points="107.5,-56.5 107.5,-75.5 197.5,-75.5 197.5,-56.5 107.5,-56.5"/>
<text text-anchor="middle" x="152.5" y="-63.5" font-family="Helvetica,sans-Serif" font-size="10.00">src/Scenario.cpp</text>
</a>
</g>
</g>
<!-- Node1&#45;&gt;Node3 -->
<g id="edge2" class="edge"><title>Node1&#45;&gt;Node3</title>
<path fill="none" stroke="midnightblue" d="M205.358,-106.101C192.221,-96.3824 175.518,-84.0269 164.442,-75.8339"/>
<polygon fill="midnightblue" stroke="midnightblue" points="203.65,-109.191 213.771,-112.324 207.813,-103.563 203.65,-109.191"/>
</g>
<!-- Node4 -->
<g id="node4" class="node"><title>Node4</title>
<g id="a_node4"><a xlink:href="_simulator_8cpp.html" target="_top" xlink:title="src/Simulator.cpp">
<polygon fill="white" stroke="black" points="286,-0.5 286,-19.5 379,-19.5 379,-0.5 286,-0.5"/>
<text text-anchor="middle" x="332.5" y="-7.5" font-family="Helvetica,sans-Serif" font-size="10.00">src/Simulator.cpp</text>
</a>
</g>
</g>
<!-- Node1&#45;&gt;Node4 -->
<g id="edge3" class="edge"><title>Node1&#45;&gt;Node4</title>
<path fill="none" stroke="midnightblue" d="M227.32,-102.401C229.552,-88.2959 234.51,-69.1553 245.5,-56 260.436,-38.1213 284.302,-26.4907 303.263,-19.5412"/>
<polygon fill="midnightblue" stroke="midnightblue" points="223.835,-102.063 226.051,-112.424 230.78,-102.943 223.835,-102.063"/>
</g>
<!-- Node5 -->
<g id="node5" class="node"><title>Node5</title>
<g id="a_node5"><a xlink:href="_statistics_8cpp.html" target="_top" xlink:title="src/Statistics.cpp">
<polygon fill="white" stroke="black" points="254,-56.5 254,-75.5 347,-75.5 347,-56.5 254,-56.5"/>
<text text-anchor="middle" x="300.5" y="-63.5" font-family="Helvetica,sans-Serif" font-size="10.00">src/Statistics.cpp</text>
</a>
</g>
</g>
<!-- Node1&#45;&gt;Node5 -->
<g id="edge4" class="edge"><title>Node1&#45;&gt;Node5</title>
<path fill="none" stroke="midnightblue" d="M245.805,-106.38C259.361,-96.6204 276.742,-84.1057 288.231,-75.8339"/>
<polygon fill="midnightblue" stroke="midnightblue" points="243.62,-103.641 237.55,-112.324 247.71,-109.321 243.62,-103.641"/>
</g>
<!-- Node6 -->
<g id="node6" class="node"><title>Node6</title>
<g id="a_node6"><a xlink:href="_cost_function_creator_8h.html" target="_top" xlink:title="include/CostFunctionCreator.h">
<polygon fill="white" stroke="black" points="365,-56.5 365,-75.5 514,-75.5 514,-56.5 365,-56.5"/>
<text text-anchor="middle" x="439.5" y="-63.5" font-family="Helvetica,sans-Serif" font-size="10.00">include/CostFunctionCreator.h</text>
</a>
</g>
</g>
<!-- Node1&#45;&gt;Node6 -->
<g id="edge5" class="edge"><title>Node1&#45;&gt;Node6</title>
<path fill="none" stroke="midnightblue" d="M269.255,-109.959C309.674,-99.7598 368.873,-84.8217 405.75,-75.5164"/>
<polygon fill="midnightblue" stroke="midnightblue" points="268.249,-106.603 259.409,-112.444 269.961,-113.39 268.249,-106.603"/>
</g>
<!-- Node6&#45;&gt;Node4 -->
<g id="edge6" class="edge"><title>Node6&#45;&gt;Node4</title>
<path fill="none" stroke="midnightblue" d="M413.198,-51.7261C393.385,-41.7271 366.793,-28.3065 349.649,-19.6545"/>
<polygon fill="midnightblue" stroke="midnightblue" points="411.804,-54.9431 422.309,-56.324 414.958,-48.6938 411.804,-54.9431"/>
</g>
</g>
</svg>
