<?xml version="1.0" encoding="UTF-8" standalone="no"?>
<!DOCTYPE svg PUBLIC "-//W3C//DTD SVG 1.1//EN"
 "http://www.w3.org/Graphics/SVG/1.1/DTD/svg11.dtd">
<!-- Generated by graphviz version 2.38.0 (20140413.2041)
 -->
<!-- Title: include/CostFunction.h Pages: 1 -->
<svg width="1286pt" height="218pt"
 viewBox="0.00 0.00 1286.00 218.00" xmlns="http://www.w3.org/2000/svg" xmlns:xlink="http://www.w3.org/1999/xlink">
<g id="graph0" class="graph" transform="scale(1 1) rotate(0) translate(4 214)">
<title>include/CostFunction.h</title>
<polygon fill="white" stroke="none" points="-4,4 -4,-214 1282,-214 1282,4 -4,4"/>
<!-- Node1 -->
<g id="node1" class="node"><title>Node1</title>
<polygon fill="#bfbfbf" stroke="black" points="564.5,-190.5 564.5,-209.5 681.5,-209.5 681.5,-190.5 564.5,-190.5"/>
<text text-anchor="middle" x="623" y="-197.5" font-family="Helvetica,sans-Serif" font-size="10.00">include/CostFunction.h</text>
</g>
<!-- Node2 -->
<g id="node2" class="node"><title>Node2</title>
<g id="a_node2"><a xlink:href="_building_8cpp.html" target="_top" xlink:title="src/Building.cpp">
<polygon fill="white" stroke="black" points="0,-129 0,-148 86,-148 86,-129 0,-129"/>
<text text-anchor="middle" x="43" y="-136" font-family="Helvetica,sans-Serif" font-size="10.00">src/Building.cpp</text>
</a>
</g>
</g>
<!-- Node1&#45;&gt;Node2 -->
<g id="edge1" class="edge"><title>Node1&#45;&gt;Node2</title>
<path fill="none" stroke="midnightblue" d="M554.225,-197.234C452.94,-193.711 258.027,-183.41 95,-154 86.7913,-152.519 78.0052,-150.315 70.0354,-148.07"/>
<polygon fill="midnightblue" stroke="midnightblue" points="554.213,-200.735 564.324,-197.573 554.448,-193.739 554.213,-200.735"/>
</g>
<!-- Node3 -->
<g id="node3" class="node"><title>Node3</title>
<g id="a_node3"><a xlink:href="_planning_scheduler_8cpp.html" target="_top" xlink:title="src/PlanningScheduler.cpp">
<polygon fill="white" stroke="black" points="104.5,-129 104.5,-148 237.5,-148 237.5,-129 104.5,-129"/>
<text text-anchor="middle" x="171" y="-136" font-family="Helvetica,sans-Serif" font-size="10.00">src/PlanningScheduler.cpp</text>
</a>
</g>
</g>
<!-- Node1&#45;&gt;Node3 -->
<g id="edge2" class="edge"><title>Node1&#45;&gt;Node3</title>
<path fill="none" stroke="midnightblue" d="M553.881,-192.181C478.306,-184.387 353.724,-170.547 247,-154 235.983,-152.292 224.12,-150.167 213.119,-148.075"/>
<polygon fill="midnightblue" stroke="midnightblue" points="553.908,-195.702 564.212,-193.241 554.622,-188.739 553.908,-195.702"/>
</g>
<!-- Node4 -->
<g id="node4" class="node"><title>Node4</title>
<g id="a_node4"><a xlink:href="_simple_scheduler_8cpp.html" target="_top" xlink:title="src/SimpleScheduler.cpp">
<polygon fill="white" stroke="black" points="255.5,-129 255.5,-148 380.5,-148 380.5,-129 255.5,-129"/>
<text text-anchor="middle" x="318" y="-136" font-family="Helvetica,sans-Serif" font-size="10.00">src/SimpleScheduler.cpp</text>
</a>
</g>
</g>
<!-- Node1&#45;&gt;Node4 -->
<g id="edge3" class="edge"><title>Node1&#45;&gt;Node4</title>
<path fill="none" stroke="midnightblue" d="M568.296,-188.562C521.063,-179.519 451.004,-166.034 390,-154 380.367,-152.1 370.016,-150.031 360.249,-148.067"/>
<polygon fill="midnightblue" stroke="midnightblue" points="567.832,-192.037 578.312,-190.478 569.148,-185.161 567.832,-192.037"/>
</g>
<!-- Node5 -->
<g id="node5" class="node"><title>Node5</title>
<g id="a_node5"><a xlink:href="_better_nearest_neighbour_cost_function_8h.html" target="_top" xlink:title="include/BetterNearestNeighbour\lCostFunction.h">
<polygon fill="white" stroke="black" points="545.5,-123.5 545.5,-153.5 700.5,-153.5 700.5,-123.5 545.5,-123.5"/>
<text text-anchor="start" x="553.5" y="-141.5" font-family="Helvetica,sans-Serif" font-size="10.00">include/BetterNearestNeighbour</text>
<text text-anchor="middle" x="623" y="-130.5" font-family="Helvetica,sans-Serif" font-size="10.00">CostFunction.h</text>
</a>
</g>
</g>
<!-- Node1&#45;&gt;Node5 -->
<g id="edge4" class="edge"><title>Node1&#45;&gt;Node5</title>
<path fill="none" stroke="midnightblue" d="M623,-180.235C623,-171.586 623,-161.497 623,-153.523"/>
<polygon fill="midnightblue" stroke="midnightblue" points="619.5,-180.475 623,-190.475 626.5,-180.475 619.5,-180.475"/>
</g>
<!-- Node7 -->
<g id="node7" class="node"><title>Node7</title>
<g id="a_node7"><a xlink:href="_cost_function_creator_8h.html" target="_top" xlink:title="include/CostFunctionCreator.h">
<polygon fill="white" stroke="black" points="630.5,-62 630.5,-81 779.5,-81 779.5,-62 630.5,-62"/>
<text text-anchor="middle" x="705" y="-69" font-family="Helvetica,sans-Serif" font-size="10.00">include/CostFunctionCreator.h</text>
</a>
</g>
</g>
<!-- Node1&#45;&gt;Node7 -->
<g id="edge8" class="edge"><title>Node1&#45;&gt;Node7</title>
<path fill="none" stroke="midnightblue" d="M667.495,-186.809C683.79,-179.955 700.54,-169.543 710,-154 724.077,-130.871 714.365,-96.8873 708.526,-81.1211"/>
<polygon fill="midnightblue" stroke="midnightblue" points="666.097,-183.597 658.013,-190.445 668.603,-190.132 666.097,-183.597"/>
</g>
<!-- Node9 -->
<g id="node9" class="node"><title>Node9</title>
<g id="a_node9"><a xlink:href="_dummy_cost_function_8h.html" target="_top" xlink:title="include/DummyCostFunction.h">
<polygon fill="white" stroke="black" points="757,-129 757,-148 909,-148 909,-129 757,-129"/>
<text text-anchor="middle" x="833" y="-136" font-family="Helvetica,sans-Serif" font-size="10.00">include/DummyCostFunction.h</text>
</a>
</g>
</g>
<!-- Node1&#45;&gt;Node9 -->
<g id="edge9" class="edge"><title>Node1&#45;&gt;Node9</title>
<path fill="none" stroke="midnightblue" d="M662.968,-187.676C703.773,-176.114 766.192,-158.429 802.968,-148.009"/>
<polygon fill="midnightblue" stroke="midnightblue" points="661.755,-184.382 653.088,-190.475 663.663,-191.116 661.755,-184.382"/>
</g>
<!-- Node11 -->
<g id="node11" class="node"><title>Node11</title>
<g id="a_node11"><a xlink:href="_nearest_neighbour_cost_function_8h.html" target="_top" xlink:title="include/NearestNeighbour\lCostFunction.h">
<polygon fill="white" stroke="black" points="398.5,-123.5 398.5,-153.5 527.5,-153.5 527.5,-123.5 398.5,-123.5"/>
<text text-anchor="start" x="406.5" y="-141.5" font-family="Helvetica,sans-Serif" font-size="10.00">include/NearestNeighbour</text>
<text text-anchor="middle" x="463" y="-130.5" font-family="Helvetica,sans-Serif" font-size="10.00">CostFunction.h</text>
</a>
</g>
</g>
<!-- Node1&#45;&gt;Node11 -->
<g id="edge12" class="edge"><title>Node1&#45;&gt;Node11</title>
<path fill="none" stroke="midnightblue" d="M590.665,-186.976C564.651,-177.302 528.054,-163.692 500.709,-153.523"/>
<polygon fill="midnightblue" stroke="midnightblue" points="589.483,-190.27 600.076,-190.475 591.923,-183.709 589.483,-190.27"/>
</g>
<!-- Node13 -->
<g id="node13" class="node"><title>Node13</title>
<g id="a_node13"><a xlink:href="_random_cost_function_8h.html" target="_top" xlink:title="include/RandomCostFunction.h">
<polygon fill="white" stroke="black" points="927,-129 927,-148 1081,-148 1081,-129 927,-129"/>
<text text-anchor="middle" x="1004" y="-136" font-family="Helvetica,sans-Serif" font-size="10.00">include/RandomCostFunction.h</text>
</a>
</g>
</g>
<!-- Node1&#45;&gt;Node13 -->
<g id="edge16" class="edge"><title>Node1&#45;&gt;Node13</title>
<path fill="none" stroke="midnightblue" d="M690.775,-188.969C750.598,-180.042 840.148,-166.5 918,-154 929.661,-152.128 942.2,-150.05 953.999,-148.066"/>
<polygon fill="midnightblue" stroke="midnightblue" points="690.074,-185.535 680.699,-190.471 691.106,-192.459 690.074,-185.535"/>
</g>
<!-- Node15 -->
<g id="node15" class="node"><title>Node15</title>
<g id="a_node15"><a xlink:href="_weighted_cost_function_8h.html" target="_top" xlink:title="include/WeightedCostFunction.h">
<polygon fill="white" stroke="black" points="1099,-129 1099,-148 1257,-148 1257,-129 1099,-129"/>
<text text-anchor="middle" x="1178" y="-136" font-family="Helvetica,sans-Serif" font-size="10.00">include/WeightedCostFunction.h</text>
</a>
</g>
</g>
<!-- Node1&#45;&gt;Node15 -->
<g id="edge19" class="edge"><title>Node1&#45;&gt;Node15</title>
<path fill="none" stroke="midnightblue" d="M691.967,-193.813C783.231,-186.616 949.041,-172.383 1090,-154 1102.9,-152.318 1116.81,-150.179 1129.67,-148.063"/>
<polygon fill="midnightblue" stroke="midnightblue" points="691.448,-190.343 681.753,-194.614 691.996,-197.322 691.448,-190.343"/>
</g>
<!-- Node6 -->
<g id="node6" class="node"><title>Node6</title>
<g id="a_node6"><a xlink:href="_better_nearest_neighbour_cost_function_8cpp.html" target="_top" xlink:title="src/BetterNearestNeighbour\lCostFunction.cpp">
<polygon fill="white" stroke="black" points="474,-56.5 474,-86.5 612,-86.5 612,-56.5 474,-56.5"/>
<text text-anchor="start" x="482" y="-74.5" font-family="Helvetica,sans-Serif" font-size="10.00">src/BetterNearestNeighbour</text>
<text text-anchor="middle" x="543" y="-63.5" font-family="Helvetica,sans-Serif" font-size="10.00">CostFunction.cpp</text>
</a>
</g>
</g>
<!-- Node5&#45;&gt;Node6 -->
<g id="edge5" class="edge"><title>Node5&#45;&gt;Node6</title>
<path fill="none" stroke="midnightblue" d="M597.625,-116.883C585.468,-107.005 571.221,-95.4293 560.325,-86.5765"/>
<polygon fill="midnightblue" stroke="midnightblue" points="595.673,-119.806 605.641,-123.396 600.087,-114.374 595.673,-119.806"/>
</g>
<!-- Node5&#45;&gt;Node7 -->
<g id="edge6" class="edge"><title>Node5&#45;&gt;Node7</title>
<path fill="none" stroke="midnightblue" d="M648.851,-117.008C664.074,-104.941 682.539,-90.3046 694.032,-81.1945"/>
<polygon fill="midnightblue" stroke="midnightblue" points="646.455,-114.441 640.793,-123.396 650.804,-119.927 646.455,-114.441"/>
</g>
<!-- Node8 -->
<g id="node8" class="node"><title>Node8</title>
<g id="a_node8"><a xlink:href="_simulator_8cpp.html" target="_top" xlink:title="src/Simulator.cpp">
<polygon fill="white" stroke="black" points="658.5,-0.5 658.5,-19.5 751.5,-19.5 751.5,-0.5 658.5,-0.5"/>
<text text-anchor="middle" x="705" y="-7.5" font-family="Helvetica,sans-Serif" font-size="10.00">src/Simulator.cpp</text>
</a>
</g>
</g>
<!-- Node7&#45;&gt;Node8 -->
<g id="edge7" class="edge"><title>Node7&#45;&gt;Node8</title>
<path fill="none" stroke="midnightblue" d="M705,-51.8165C705,-40.9962 705,-27.898 705,-19.5091"/>
<polygon fill="midnightblue" stroke="midnightblue" points="701.5,-51.9751 705,-61.9751 708.5,-51.9751 701.5,-51.9751"/>
</g>
<!-- Node9&#45;&gt;Node7 -->
<g id="edge11" class="edge"><title>Node9&#45;&gt;Node7</title>
<path fill="none" stroke="midnightblue" d="M806.955,-124.274C781.603,-111.4 743.811,-92.2086 722.068,-81.1672"/>
<polygon fill="midnightblue" stroke="midnightblue" points="805.502,-127.461 816.003,-128.869 808.671,-121.22 805.502,-127.461"/>
</g>
<!-- Node10 -->
<g id="node10" class="node"><title>Node10</title>
<g id="a_node10"><a xlink:href="_dummy_cost_function_8cpp.html" target="_top" xlink:title="src/DummyCostFunction.cpp">
<polygon fill="white" stroke="black" points="797.5,-62 797.5,-81 942.5,-81 942.5,-62 797.5,-62"/>
<text text-anchor="middle" x="870" y="-69" font-family="Helvetica,sans-Serif" font-size="10.00">src/DummyCostFunction.cpp</text>
</a>
</g>
</g>
<!-- Node9&#45;&gt;Node10 -->
<g id="edge10" class="edge"><title>Node9&#45;&gt;Node10</title>
<path fill="none" stroke="midnightblue" d="M842.942,-120.035C850.105,-107.45 859.465,-91.0072 865.089,-81.1273"/>
<polygon fill="midnightblue" stroke="midnightblue" points="839.895,-118.312 837.99,-128.734 845.979,-121.775 839.895,-118.312"/>
</g>
<!-- Node11&#45;&gt;Node6 -->
<g id="edge13" class="edge"><title>Node11&#45;&gt;Node6</title>
<path fill="none" stroke="midnightblue" d="M488.375,-116.883C500.532,-107.005 514.779,-95.4293 525.675,-86.5765"/>
<polygon fill="midnightblue" stroke="midnightblue" points="485.913,-114.374 480.359,-123.396 490.327,-119.806 485.913,-114.374"/>
</g>
<!-- Node11&#45;&gt;Node7 -->
<g id="edge15" class="edge"><title>Node11&#45;&gt;Node7</title>
<path fill="none" stroke="midnightblue" d="M525.062,-120.83C572.424,-108.109 635.728,-91.1062 673.247,-81.0287"/>
<polygon fill="midnightblue" stroke="midnightblue" points="523.962,-117.502 515.212,-123.476 525.778,-124.262 523.962,-117.502"/>
</g>
<!-- Node12 -->
<g id="node12" class="node"><title>Node12</title>
<g id="a_node12"><a xlink:href="_nearest_neighbour_cost_function_8cpp.html" target="_top" xlink:title="src/NearestNeighbourCost\lFunction.cpp">
<polygon fill="white" stroke="black" points="322.5,-56.5 322.5,-86.5 455.5,-86.5 455.5,-56.5 322.5,-56.5"/>
<text text-anchor="start" x="330.5" y="-74.5" font-family="Helvetica,sans-Serif" font-size="10.00">src/NearestNeighbourCost</text>
<text text-anchor="middle" x="389" y="-63.5" font-family="Helvetica,sans-Serif" font-size="10.00">Function.cpp</text>
</a>
</g>
</g>
<!-- Node11&#45;&gt;Node12 -->
<g id="edge14" class="edge"><title>Node11&#45;&gt;Node12</title>
<path fill="none" stroke="midnightblue" d="M439.204,-116.598C428.03,-106.783 415.007,-95.3442 405.026,-86.5765"/>
<polygon fill="midnightblue" stroke="midnightblue" points="437.12,-119.426 446.943,-123.396 441.74,-114.167 437.12,-119.426"/>
</g>
<!-- Node13&#45;&gt;Node7 -->
<g id="edge18" class="edge"><title>Node13&#45;&gt;Node7</title>
<path fill="none" stroke="midnightblue" d="M954.794,-126.803C895.954,-114.012 798.646,-92.8578 744.484,-81.0834"/>
<polygon fill="midnightblue" stroke="midnightblue" points="954.088,-130.231 964.604,-128.936 955.575,-123.391 954.088,-130.231"/>
</g>
<!-- Node14 -->
<g id="node14" class="node"><title>Node14</title>
<g id="a_node14"><a xlink:href="_random_cost_function_8cpp.html" target="_top" xlink:title="src/RandomCostFunction.cpp">
<polygon fill="white" stroke="black" points="960.5,-62 960.5,-81 1107.5,-81 1107.5,-62 960.5,-62"/>
<text text-anchor="middle" x="1034" y="-69" font-family="Helvetica,sans-Serif" font-size="10.00">src/RandomCostFunction.cpp</text>
</a>
</g>
</g>
<!-- Node13&#45;&gt;Node14 -->
<g id="edge17" class="edge"><title>Node13&#45;&gt;Node14</title>
<path fill="none" stroke="midnightblue" d="M1012.4,-119.29C1018.17,-106.808 1025.55,-90.8135 1030.02,-81.1273"/>
<polygon fill="midnightblue" stroke="midnightblue" points="1009.06,-118.187 1008.05,-128.734 1015.41,-121.121 1009.06,-118.187"/>
</g>
<!-- Node15&#45;&gt;Node7 -->
<g id="edge21" class="edge"><title>Node15&#45;&gt;Node7</title>
<path fill="none" stroke="midnightblue" d="M1118.82,-127.38C1109.2,-125.841 1099.33,-124.326 1090,-123 956.609,-104.043 922.318,-106.466 789,-87 776.992,-85.2467 764.058,-83.129 752.024,-81.0601"/>
<polygon fill="midnightblue" stroke="midnightblue" points="1118.29,-130.84 1128.72,-128.986 1119.41,-123.931 1118.29,-130.84"/>
</g>
<!-- Node16 -->
<g id="node16" class="node"><title>Node16</title>
<g id="a_node16"><a xlink:href="_weighted_cost_function_8cpp.html" target="_top" xlink:title="src/WeightedCostFunction.cpp">
<polygon fill="white" stroke="black" points="1126,-62 1126,-81 1278,-81 1278,-62 1126,-62"/>
<text text-anchor="middle" x="1202" y="-69" font-family="Helvetica,sans-Serif" font-size="10.00">src/WeightedCostFunction.cpp</text>
</a>
</g>
</g>
<!-- Node15&#45;&gt;Node16 -->
<g id="edge20" class="edge"><title>Node15&#45;&gt;Node16</title>
<path fill="none" stroke="midnightblue" d="M1184.72,-119.29C1189.33,-106.808 1195.24,-90.8135 1198.81,-81.1273"/>
<polygon fill="midnightblue" stroke="midnightblue" points="1181.42,-118.141 1181.24,-128.734 1187.98,-120.565 1181.42,-118.141"/>
</g>
</g>
</svg>
