<?xml version="1.0" encoding="UTF-8" standalone="no"?>
<!DOCTYPE svg PUBLIC "-//W3C//DTD SVG 1.1//EN"
 "http://www.w3.org/Graphics/SVG/1.1/DTD/svg11.dtd">
<!-- Generated by graphviz version 2.38.0 (20140413.2041)
 -->
<!-- Title: include/CostFunction.h Pages: 1 -->
<svg width="1393pt" height="218pt"
 viewBox="0.00 0.00 1392.50 218.00" xmlns="http://www.w3.org/2000/svg" xmlns:xlink="http://www.w3.org/1999/xlink">
<g id="graph0" class="graph" transform="scale(1 1) rotate(0) translate(4 214)">
<title>include/CostFunction.h</title>
<polygon fill="white" stroke="none" points="-4,4 -4,-214 1388.5,-214 1388.5,4 -4,4"/>
<!-- Node1 -->
<g id="node1" class="node"><title>Node1</title>
<polygon fill="#bfbfbf" stroke="black" points="623.5,-190.5 623.5,-209.5 755.5,-209.5 755.5,-190.5 623.5,-190.5"/>
<text text-anchor="middle" x="689.5" y="-197.5" font-family="Ubuntu Mono" font-size="10.00">include/CostFunction.h</text>
</g>
<!-- Node2 -->
<g id="node2" class="node"><title>Node2</title>
<g id="a_node2"><a xlink:href="_building_8cpp.html" target="_top" xlink:title="src/Building.cpp">
<polygon fill="white" stroke="black" points="0,-129 0,-148 101,-148 101,-129 0,-129"/>
<text text-anchor="middle" x="50.5" y="-136" font-family="Ubuntu Mono" font-size="10.00">src/Building.cpp</text>
</a>
</g>
</g>
<!-- Node1&#45;&gt;Node2 -->
<g id="edge1" class="edge"><title>Node1&#45;&gt;Node2</title>
<path fill="none" stroke="midnightblue" d="M612.987,-196.937C501.749,-193.06 289.143,-182.342 110.5,-154 101.08,-152.505 90.9581,-150.298 81.7607,-148.053"/>
<polygon fill="midnightblue" stroke="midnightblue" points="612.992,-200.439 623.105,-197.28 613.229,-193.443 612.992,-200.439"/>
</g>
<!-- Node3 -->
<g id="node3" class="node"><title>Node3</title>
<g id="a_node3"><a xlink:href="_planning_scheduler_8cpp.html" target="_top" xlink:title="src/PlanningScheduler.cpp">
<polygon fill="white" stroke="black" points="119.5,-129 119.5,-148 267.5,-148 267.5,-129 119.5,-129"/>
<text text-anchor="middle" x="193.5" y="-136" font-family="Ubuntu Mono" font-size="10.00">src/PlanningScheduler.cpp</text>
</a>
</g>
</g>
<!-- Node1&#45;&gt;Node3 -->
<g id="edge2" class="edge"><title>Node1&#45;&gt;Node3</title>
<path fill="none" stroke="midnightblue" d="M613.065,-192.159C530.029,-184.38 393.555,-170.584 276.5,-154 264.334,-152.276 251.216,-150.123 239.08,-148.007"/>
<polygon fill="midnightblue" stroke="midnightblue" points="612.89,-195.657 623.171,-193.1 613.539,-188.687 612.89,-195.657"/>
</g>
<!-- Node4 -->
<g id="node4" class="node"><title>Node4</title>
<g id="a_node4"><a xlink:href="_simple_scheduler_8cpp.html" target="_top" xlink:title="src/SimpleScheduler.cpp">
<polygon fill="white" stroke="black" points="286,-129 286,-148 423,-148 423,-129 286,-129"/>
<text text-anchor="middle" x="354.5" y="-136" font-family="Ubuntu Mono" font-size="10.00">src/SimpleScheduler.cpp</text>
</a>
</g>
</g>
<!-- Node1&#45;&gt;Node4 -->
<g id="edge3" class="edge"><title>Node1&#45;&gt;Node4</title>
<path fill="none" stroke="midnightblue" d="M629.653,-188.703C577.546,-179.695 499.992,-166.182 432.5,-154 421.927,-152.092 410.556,-150 399.855,-148.014"/>
<polygon fill="midnightblue" stroke="midnightblue" points="629.274,-192.19 639.724,-190.443 630.466,-185.292 629.274,-192.19"/>
</g>
<!-- Node5 -->
<g id="node5" class="node"><title>Node5</title>
<g id="a_node5"><a xlink:href="_better_nearest_neighbour_cost_function_8h.html" target="_top" xlink:title="include/BetterNearestNeighbour\lCostFunction.h">
<polygon fill="white" stroke="black" points="602.5,-123.5 602.5,-153.5 776.5,-153.5 776.5,-123.5 602.5,-123.5"/>
<text text-anchor="start" x="610.5" y="-141.5" font-family="Ubuntu Mono" font-size="10.00">include/BetterNearestNeighbour</text>
<text text-anchor="middle" x="689.5" y="-130.5" font-family="Ubuntu Mono" font-size="10.00">CostFunction.h</text>
</a>
</g>
</g>
<!-- Node1&#45;&gt;Node5 -->
<g id="edge4" class="edge"><title>Node1&#45;&gt;Node5</title>
<path fill="none" stroke="midnightblue" d="M689.5,-180.235C689.5,-171.586 689.5,-161.497 689.5,-153.523"/>
<polygon fill="midnightblue" stroke="midnightblue" points="686,-180.475 689.5,-190.475 693,-180.475 686,-180.475"/>
</g>
<!-- Node7 -->
<g id="node7" class="node"><title>Node7</title>
<g id="a_node7"><a xlink:href="_cost_function_creator_8h.html" target="_top" xlink:title="include/CostFunctionCreator.h">
<polygon fill="white" stroke="black" points="695,-62 695,-81 864,-81 864,-62 695,-62"/>
<text text-anchor="middle" x="779.5" y="-69" font-family="Ubuntu Mono" font-size="10.00">include/CostFunctionCreator.h</text>
</a>
</g>
</g>
<!-- Node1&#45;&gt;Node7 -->
<g id="edge8" class="edge"><title>Node1&#45;&gt;Node7</title>
<path fill="none" stroke="midnightblue" d="M740.517,-187.125C757.824,-180.397 775.335,-169.99 785.5,-154 800.037,-131.131 789.542,-97.0193 783.276,-81.1714"/>
<polygon fill="midnightblue" stroke="midnightblue" points="739.234,-183.866 730.971,-190.497 741.565,-190.467 739.234,-183.866"/>
</g>
<!-- Node9 -->
<g id="node9" class="node"><title>Node9</title>
<g id="a_node9"><a xlink:href="_dummy_cost_function_8h.html" target="_top" xlink:title="include/DummyCostFunction.h">
<polygon fill="white" stroke="black" points="832.5,-129 832.5,-148 990.5,-148 990.5,-129 832.5,-129"/>
<text text-anchor="middle" x="911.5" y="-136" font-family="Ubuntu Mono" font-size="10.00">include/DummyCostFunction.h</text>
</a>
</g>
</g>
<!-- Node1&#45;&gt;Node9 -->
<g id="edge9" class="edge"><title>Node1&#45;&gt;Node9</title>
<path fill="none" stroke="midnightblue" d="M731.204,-187.822C774.328,-176.264 840.709,-158.473 879.752,-148.009"/>
<polygon fill="midnightblue" stroke="midnightblue" points="730.06,-184.506 721.307,-190.475 731.872,-191.267 730.06,-184.506"/>
</g>
<!-- Node11 -->
<g id="node11" class="node"><title>Node11</title>
<g id="a_node11"><a xlink:href="_nearest_neighbour_cost_function_8h.html" target="_top" xlink:title="include/NearestNeighbour\lCostFunction.h">
<polygon fill="white" stroke="black" points="441,-123.5 441,-153.5 584,-153.5 584,-123.5 441,-123.5"/>
<text text-anchor="start" x="449" y="-141.5" font-family="Ubuntu Mono" font-size="10.00">include/NearestNeighbour</text>
<text text-anchor="middle" x="512.5" y="-130.5" font-family="Ubuntu Mono" font-size="10.00">CostFunction.h</text>
</a>
</g>
</g>
<!-- Node1&#45;&gt;Node11 -->
<g id="edge12" class="edge"><title>Node1&#45;&gt;Node11</title>
<path fill="none" stroke="midnightblue" d="M654.488,-187.23C625.666,-177.542 584.732,-163.782 554.215,-153.523"/>
<polygon fill="midnightblue" stroke="midnightblue" points="653.546,-190.606 664.14,-190.475 655.777,-183.971 653.546,-190.606"/>
</g>
<!-- Node13 -->
<g id="node13" class="node"><title>Node13</title>
<g id="a_node13"><a xlink:href="_random_cost_function_8h.html" target="_top" xlink:title="include/RandomCostFunction.h">
<polygon fill="white" stroke="black" points="1008.5,-129 1008.5,-148 1172.5,-148 1172.5,-129 1008.5,-129"/>
<text text-anchor="middle" x="1090.5" y="-136" font-family="Ubuntu Mono" font-size="10.00">include/RandomCostFunction.h</text>
</a>
</g>
</g>
<!-- Node1&#45;&gt;Node13 -->
<g id="edge16" class="edge"><title>Node1&#45;&gt;Node13</title>
<path fill="none" stroke="midnightblue" d="M760.032,-189.045C822.891,-180.106 917.377,-166.503 999.5,-154 1011.84,-152.122 1025.1,-150.042 1037.59,-148.058"/>
<polygon fill="midnightblue" stroke="midnightblue" points="759.243,-185.622 749.835,-190.494 760.228,-192.553 759.243,-185.622"/>
</g>
<!-- Node15 -->
<g id="node15" class="node"><title>Node15</title>
<g id="a_node15"><a xlink:href="_weighted_cost_function_8h.html" target="_top" xlink:title="include/WeightedCostFunction.h">
<polygon fill="white" stroke="black" points="1190.5,-129 1190.5,-148 1364.5,-148 1364.5,-129 1190.5,-129"/>
<text text-anchor="middle" x="1277.5" y="-136" font-family="Ubuntu Mono" font-size="10.00">include/WeightedCostFunction.h</text>
</a>
</g>
</g>
<!-- Node1&#45;&gt;Node15 -->
<g id="edge19" class="edge"><title>Node1&#45;&gt;Node15</title>
<path fill="none" stroke="midnightblue" d="M765.673,-193.427C862.493,-186.023 1034.7,-171.784 1181.5,-154 1195.56,-152.297 1210.72,-150.151 1224.76,-148.035"/>
<polygon fill="midnightblue" stroke="midnightblue" points="765.387,-189.939 755.682,-194.187 765.918,-196.918 765.387,-189.939"/>
</g>
<!-- Node6 -->
<g id="node6" class="node"><title>Node6</title>
<g id="a_node6"><a xlink:href="_better_nearest_neighbour_cost_function_8cpp.html" target="_top" xlink:title="src/BetterNearestNeighbour\lCostFunction.cpp">
<polygon fill="white" stroke="black" points="524,-56.5 524,-86.5 677,-86.5 677,-56.5 524,-56.5"/>
<text text-anchor="start" x="532" y="-74.5" font-family="Ubuntu Mono" font-size="10.00">src/BetterNearestNeighbour</text>
<text text-anchor="middle" x="600.5" y="-63.5" font-family="Ubuntu Mono" font-size="10.00">CostFunction.cpp</text>
</a>
</g>
</g>
<!-- Node5&#45;&gt;Node6 -->
<g id="edge5" class="edge"><title>Node5&#45;&gt;Node6</title>
<path fill="none" stroke="midnightblue" d="M662.048,-117.451C648.357,-107.452 632.129,-95.5995 619.774,-86.5765"/>
<polygon fill="midnightblue" stroke="midnightblue" points="660.048,-120.324 670.188,-123.396 664.177,-114.672 660.048,-120.324"/>
</g>
<!-- Node5&#45;&gt;Node7 -->
<g id="edge6" class="edge"><title>Node5&#45;&gt;Node7</title>
<path fill="none" stroke="midnightblue" d="M717.461,-117.306C734.362,-105.1 755.024,-90.1772 767.721,-81.007"/>
<polygon fill="midnightblue" stroke="midnightblue" points="715.086,-114.704 709.029,-123.396 719.185,-120.378 715.086,-114.704"/>
</g>
<!-- Node8 -->
<g id="node8" class="node"><title>Node8</title>
<g id="a_node8"><a xlink:href="_simulator_8cpp.html" target="_top" xlink:title="src/Simulator.cpp">
<polygon fill="white" stroke="black" points="726.5,-0.5 726.5,-19.5 832.5,-19.5 832.5,-0.5 726.5,-0.5"/>
<text text-anchor="middle" x="779.5" y="-7.5" font-family="Ubuntu Mono" font-size="10.00">src/Simulator.cpp</text>
</a>
</g>
</g>
<!-- Node7&#45;&gt;Node8 -->
<g id="edge7" class="edge"><title>Node7&#45;&gt;Node8</title>
<path fill="none" stroke="midnightblue" d="M779.5,-51.8165C779.5,-40.9962 779.5,-27.898 779.5,-19.5091"/>
<polygon fill="midnightblue" stroke="midnightblue" points="776,-51.9751 779.5,-61.9751 783,-51.9751 776,-51.9751"/>
</g>
<!-- Node9&#45;&gt;Node7 -->
<g id="edge11" class="edge"><title>Node9&#45;&gt;Node7</title>
<path fill="none" stroke="midnightblue" d="M884.986,-124.444C858.84,-111.569 819.622,-92.2573 797.101,-81.1672"/>
<polygon fill="midnightblue" stroke="midnightblue" points="883.454,-127.591 893.971,-128.869 886.546,-121.311 883.454,-127.591"/>
</g>
<!-- Node10 -->
<g id="node10" class="node"><title>Node10</title>
<g id="a_node10"><a xlink:href="_dummy_cost_function_8cpp.html" target="_top" xlink:title="src/DummyCostFunction.cpp">
<polygon fill="white" stroke="black" points="882.5,-62 882.5,-81 1030.5,-81 1030.5,-62 882.5,-62"/>
<text text-anchor="middle" x="956.5" y="-69" font-family="Ubuntu Mono" font-size="10.00">src/DummyCostFunction.cpp</text>
</a>
</g>
</g>
<!-- Node9&#45;&gt;Node10 -->
<g id="edge10" class="edge"><title>Node9&#45;&gt;Node10</title>
<path fill="none" stroke="midnightblue" d="M923.336,-120.404C932.08,-107.773 943.62,-91.1041 950.527,-81.1273"/>
<polygon fill="midnightblue" stroke="midnightblue" points="920.383,-118.52 917.569,-128.734 926.139,-122.504 920.383,-118.52"/>
</g>
<!-- Node11&#45;&gt;Node6 -->
<g id="edge13" class="edge"><title>Node11&#45;&gt;Node6</title>
<path fill="none" stroke="midnightblue" d="M539.643,-117.451C553.181,-107.452 569.227,-95.5995 581.443,-86.5765"/>
<polygon fill="midnightblue" stroke="midnightblue" points="537.559,-114.639 531.595,-123.396 541.718,-120.27 537.559,-114.639"/>
</g>
<!-- Node11&#45;&gt;Node7 -->
<g id="edge15" class="edge"><title>Node11&#45;&gt;Node7</title>
<path fill="none" stroke="midnightblue" d="M579.992,-121.069C632.351,-108.323 702.812,-91.1694 744.467,-81.0287"/>
<polygon fill="midnightblue" stroke="midnightblue" points="578.995,-117.71 570.106,-123.476 580.65,-124.511 578.995,-117.71"/>
</g>
<!-- Node12 -->
<g id="node12" class="node"><title>Node12</title>
<g id="a_node12"><a xlink:href="_nearest_neighbour_cost_function_8cpp.html" target="_top" xlink:title="src/NearestNeighbourCost\lFunction.cpp">
<polygon fill="white" stroke="black" points="363,-56.5 363,-86.5 506,-86.5 506,-56.5 363,-56.5"/>
<text text-anchor="start" x="371" y="-74.5" font-family="Ubuntu Mono" font-size="10.00">src/NearestNeighbourCost</text>
<text text-anchor="middle" x="434.5" y="-63.5" font-family="Ubuntu Mono" font-size="10.00">Function.cpp</text>
</a>
</g>
</g>
<!-- Node11&#45;&gt;Node12 -->
<g id="edge14" class="edge"><title>Node11&#45;&gt;Node12</title>
<path fill="none" stroke="midnightblue" d="M487.76,-116.883C475.907,-107.005 462.015,-95.4293 451.392,-86.5765"/>
<polygon fill="midnightblue" stroke="midnightblue" points="485.652,-119.683 495.575,-123.396 490.134,-114.305 485.652,-119.683"/>
</g>
<!-- Node13&#45;&gt;Node7 -->
<g id="edge18" class="edge"><title>Node13&#45;&gt;Node7</title>
<path fill="none" stroke="midnightblue" d="M1039.7,-126.882C978.536,-114.099 877.021,-92.8821 820.568,-81.0834"/>
<polygon fill="midnightblue" stroke="midnightblue" points="1039.02,-130.316 1049.52,-128.936 1040.45,-123.464 1039.02,-130.316"/>
</g>
<!-- Node14 -->
<g id="node14" class="node"><title>Node14</title>
<g id="a_node14"><a xlink:href="_random_cost_function_8cpp.html" target="_top" xlink:title="src/RandomCostFunction.cpp">
<polygon fill="white" stroke="black" points="1049,-62 1049,-81 1202,-81 1202,-62 1049,-62"/>
<text text-anchor="middle" x="1125.5" y="-69" font-family="Ubuntu Mono" font-size="10.00">src/RandomCostFunction.cpp</text>
</a>
</g>
</g>
<!-- Node13&#45;&gt;Node14 -->
<g id="edge17" class="edge"><title>Node13&#45;&gt;Node14</title>
<path fill="none" stroke="midnightblue" d="M1100.1,-119.663C1106.85,-107.128 1115.59,-90.9104 1120.85,-81.1273"/>
<polygon fill="midnightblue" stroke="midnightblue" points="1096.88,-118.27 1095.22,-128.734 1103.04,-121.588 1096.88,-118.27"/>
</g>
<!-- Node15&#45;&gt;Node7 -->
<g id="edge21" class="edge"><title>Node15&#45;&gt;Node7</title>
<path fill="none" stroke="midnightblue" d="M1213.19,-127.482C1202.61,-125.922 1191.75,-124.373 1181.5,-123 1044.9,-104.706 1010.07,-105.509 873.5,-87 860.246,-85.2038 845.969,-83.0926 832.643,-81.0456"/>
<polygon fill="midnightblue" stroke="midnightblue" points="1212.81,-130.965 1223.22,-128.977 1213.85,-124.041 1212.81,-130.965"/>
</g>
<!-- Node16 -->
<g id="node16" class="node"><title>Node16</title>
<g id="a_node16"><a xlink:href="_weighted_cost_function_8cpp.html" target="_top" xlink:title="src/WeightedCostFunction.cpp">
<polygon fill="white" stroke="black" points="1220.5,-62 1220.5,-81 1384.5,-81 1384.5,-62 1220.5,-62"/>
<text text-anchor="middle" x="1302.5" y="-69" font-family="Ubuntu Mono" font-size="10.00">src/WeightedCostFunction.cpp</text>
</a>
</g>
</g>
<!-- Node15&#45;&gt;Node16 -->
<g id="edge20" class="edge"><title>Node15&#45;&gt;Node16</title>
<path fill="none" stroke="midnightblue" d="M1284.5,-119.29C1289.3,-106.808 1295.46,-90.8135 1299.18,-81.1273"/>
<polygon fill="midnightblue" stroke="midnightblue" points="1281.19,-118.144 1280.87,-128.734 1287.73,-120.657 1281.19,-118.144"/>
</g>
</g>
</svg>
