<?xml version="1.0" encoding="UTF-8" standalone="no"?>
<!DOCTYPE svg PUBLIC "-//W3C//DTD SVG 1.1//EN"
 "http://www.w3.org/Graphics/SVG/1.1/DTD/svg11.dtd">
<!-- Generated by graphviz version 2.38.0 (20140413.2041)
 -->
<!-- Title: include/CostFunctionType.h Pages: 1 -->
<svg width="583pt" height="140pt"
 viewBox="0.00 0.00 583.00 140.00" xmlns="http://www.w3.org/2000/svg" xmlns:xlink="http://www.w3.org/1999/xlink">
<g id="graph0" class="graph" transform="scale(1 1) rotate(0) translate(4 136)">
<title>include/CostFunctionType.h</title>
<polygon fill="white" stroke="none" points="-4,4 -4,-136 579,-136 579,4 -4,4"/>
<!-- Node1 -->
<g id="node1" class="node"><title>Node1</title>
<polygon fill="#bfbfbf" stroke="black" points="172,-112.5 172,-131.5 325,-131.5 325,-112.5 172,-112.5"/>
<text text-anchor="middle" x="248.5" y="-119.5" font-family="Ubuntu Mono" font-size="10.00">include/CostFunctionType.h</text>
</g>
<!-- Node2 -->
<g id="node2" class="node"><title>Node2</title>
<g id="a_node2"><a xlink:href="_reporter_8cpp.html" target="_top" xlink:title="src/Reporter.cpp">
<polygon fill="white" stroke="black" points="0,-56.5 0,-75.5 101,-75.5 101,-56.5 0,-56.5"/>
<text text-anchor="middle" x="50.5" y="-63.5" font-family="Ubuntu Mono" font-size="10.00">src/Reporter.cpp</text>
</a>
</g>
</g>
<!-- Node1&#45;&gt;Node2 -->
<g id="edge1" class="edge"><title>Node1&#45;&gt;Node2</title>
<path fill="none" stroke="midnightblue" d="M207.062,-109.699C169.693,-99.507 115.557,-84.7429 81.7269,-75.5164"/>
<polygon fill="midnightblue" stroke="midnightblue" points="206.558,-113.189 217.126,-112.444 208.4,-106.436 206.558,-113.189"/>
</g>
<!-- Node3 -->
<g id="node3" class="node"><title>Node3</title>
<g id="a_node3"><a xlink:href="_scenario_8cpp.html" target="_top" xlink:title="src/Scenario.cpp">
<polygon fill="white" stroke="black" points="119,-56.5 119,-75.5 220,-75.5 220,-56.5 119,-56.5"/>
<text text-anchor="middle" x="169.5" y="-63.5" font-family="Ubuntu Mono" font-size="10.00">src/Scenario.cpp</text>
</a>
</g>
</g>
<!-- Node1&#45;&gt;Node3 -->
<g id="edge2" class="edge"><title>Node1&#45;&gt;Node3</title>
<path fill="none" stroke="midnightblue" d="M227.466,-106.622C213.034,-96.7574 194.359,-83.9919 182.161,-75.6545"/>
<polygon fill="midnightblue" stroke="midnightblue" points="225.577,-109.57 235.807,-112.324 229.527,-103.791 225.577,-109.57"/>
</g>
<!-- Node4 -->
<g id="node4" class="node"><title>Node4</title>
<g id="a_node4"><a xlink:href="_simulator_8cpp.html" target="_top" xlink:title="src/Simulator.cpp">
<polygon fill="white" stroke="black" points="316.5,-0.5 316.5,-19.5 422.5,-19.5 422.5,-0.5 316.5,-0.5"/>
<text text-anchor="middle" x="369.5" y="-7.5" font-family="Ubuntu Mono" font-size="10.00">src/Simulator.cpp</text>
</a>
</g>
</g>
<!-- Node1&#45;&gt;Node4 -->
<g id="edge3" class="edge"><title>Node1&#45;&gt;Node4</title>
<path fill="none" stroke="midnightblue" d="M250.108,-102.218C252.225,-88.0142 257.132,-68.8299 268.5,-56 284.923,-37.4659 310.441,-26.1842 331.717,-19.5521"/>
<polygon fill="midnightblue" stroke="midnightblue" points="246.611,-101.99 248.937,-112.326 253.564,-102.795 246.611,-101.99"/>
</g>
<!-- Node5 -->
<g id="node5" class="node"><title>Node5</title>
<g id="a_node5"><a xlink:href="_statistics_8cpp.html" target="_top" xlink:title="src/Statistics.cpp">
<polygon fill="white" stroke="black" points="277,-56.5 277,-75.5 388,-75.5 388,-56.5 277,-56.5"/>
<text text-anchor="middle" x="332.5" y="-63.5" font-family="Ubuntu Mono" font-size="10.00">src/Statistics.cpp</text>
</a>
</g>
</g>
<!-- Node1&#45;&gt;Node5 -->
<g id="edge4" class="edge"><title>Node1&#45;&gt;Node5</title>
<path fill="none" stroke="midnightblue" d="M270.432,-106.901C285.835,-96.9986 305.946,-84.0705 319.037,-75.6545"/>
<polygon fill="midnightblue" stroke="midnightblue" points="268.515,-103.972 261.996,-112.324 272.301,-109.86 268.515,-103.972"/>
</g>
<!-- Node6 -->
<g id="node6" class="node"><title>Node6</title>
<g id="a_node6"><a xlink:href="_cost_function_creator_8h.html" target="_top" xlink:title="include/CostFunctionCreator.h">
<polygon fill="white" stroke="black" points="406,-56.5 406,-75.5 575,-75.5 575,-56.5 406,-56.5"/>
<text text-anchor="middle" x="490.5" y="-63.5" font-family="Ubuntu Mono" font-size="10.00">include/CostFunctionCreator.h</text>
</a>
</g>
</g>
<!-- Node1&#45;&gt;Node6 -->
<g id="edge5" class="edge"><title>Node1&#45;&gt;Node6</title>
<path fill="none" stroke="midnightblue" d="M296.823,-110.217C342.551,-100.013 410.279,-84.9006 452.334,-75.5164"/>
<polygon fill="midnightblue" stroke="midnightblue" points="295.843,-106.85 286.846,-112.444 297.368,-113.682 295.843,-106.85"/>
</g>
<!-- Node6&#45;&gt;Node4 -->
<g id="edge6" class="edge"><title>Node6&#45;&gt;Node4</title>
<path fill="none" stroke="midnightblue" d="M462.194,-52.3678C439.535,-42.2553 408.374,-28.3486 388.583,-19.5164"/>
<polygon fill="midnightblue" stroke="midnightblue" points="460.769,-55.5643 471.327,-56.4435 463.622,-49.1719 460.769,-55.5643"/>
</g>
</g>
</svg>
