<?xml version="1.0" encoding="UTF-8" standalone="no"?>
<!DOCTYPE svg PUBLIC "-//W3C//DTD SVG 1.1//EN"
 "http://www.w3.org/Graphics/SVG/1.1/DTD/svg11.dtd">
<!-- Generated by graphviz version 2.38.0 (20140413.2041)
 -->
<!-- Title: include/CostFunctionCreator.h Pages: 1 -->
<svg width="989pt" height="207pt"
 viewBox="0.00 0.00 988.71 207.00" xmlns="http://www.w3.org/2000/svg" xmlns:xlink="http://www.w3.org/1999/xlink">
<g id="graph0" class="graph" transform="scale(1 1) rotate(0) translate(4 203)">
<title>include/CostFunctionCreator.h</title>
<polygon fill="white" stroke="none" points="-4,4 -4,-203 984.715,-203 984.715,4 -4,4"/>
<!-- Node1 -->
<g id="node1" class="node"><title>Node1</title>
<polygon fill="#bfbfbf" stroke="black" points="261.715,-179.5 261.715,-198.5 430.715,-198.5 430.715,-179.5 261.715,-179.5"/>
<text text-anchor="middle" x="346.215" y="-186.5" font-family="Ubuntu Mono" font-size="10.00">include/CostFunctionCreator.h</text>
</g>
<!-- Node2 -->
<g id="node2" class="node"><title>Node2</title>
<g id="a_node2"><a xlink:href="_better_nearest_neighbour_cost_function_8h.html" target="_top" xlink:title="BetterNearestNeighbourCost\lFunction.h">
<polygon fill="white" stroke="black" points="35.7147,-112.5 35.7147,-142.5 188.715,-142.5 188.715,-112.5 35.7147,-112.5"/>
<text text-anchor="start" x="43.7147" y="-130.5" font-family="Ubuntu Mono" font-size="10.00">BetterNearestNeighbourCost</text>
<text text-anchor="middle" x="112.215" y="-119.5" font-family="Ubuntu Mono" font-size="10.00">Function.h</text>
</a>
</g>
</g>
<!-- Node1&#45;&gt;Node2 -->
<g id="edge1" class="edge"><title>Node1&#45;&gt;Node2</title>
<path fill="none" stroke="midnightblue" d="M312.688,-179.475C277.442,-170.513 221.107,-156.188 177.118,-145.003"/>
<polygon fill="midnightblue" stroke="midnightblue" points="177.918,-141.595 167.364,-142.523 176.193,-148.379 177.918,-141.595"/>
</g>
<!-- Node3 -->
<g id="node3" class="node"><title>Node3</title>
<g id="a_node3"><a xlink:href="_cost_function_8h.html" target="_top" xlink:title="CostFunction.h">
<polygon fill="white" stroke="black" points="301.215,-56.5 301.215,-75.5 391.215,-75.5 391.215,-56.5 301.215,-56.5"/>
<text text-anchor="middle" x="346.215" y="-63.5" font-family="Ubuntu Mono" font-size="10.00">CostFunction.h</text>
</a>
</g>
</g>
<!-- Node1&#45;&gt;Node3 -->
<g id="edge4" class="edge"><title>Node1&#45;&gt;Node3</title>
<path fill="none" stroke="midnightblue" d="M261.692,-188.153C177.367,-186.289 56.1644,-177.456 26.2147,-143 17.1761,-132.601 17.1761,-122.399 26.2147,-112 59.8332,-73.3231 208.431,-66.931 290.785,-66.4419"/>
<polygon fill="midnightblue" stroke="midnightblue" points="290.985,-69.9414 300.974,-66.4095 290.963,-62.9414 290.985,-69.9414"/>
</g>
<!-- Node4 -->
<g id="node4" class="node"><title>Node4</title>
<polygon fill="white" stroke="#bfbfbf" points="322.215,-0.5 322.215,-19.5 370.215,-19.5 370.215,-0.5 322.215,-0.5"/>
<text text-anchor="middle" x="346.215" y="-7.5" font-family="Ubuntu Mono" font-size="10.00">memory</text>
</g>
<!-- Node1&#45;&gt;Node4 -->
<g id="edge20" class="edge"><title>Node1&#45;&gt;Node4</title>
<path fill="none" stroke="midnightblue" d="M261.467,-188.588C174.444,-187.167 47.4418,-178.774 16.2147,-143 -69.5259,-44.7741 211.094,-18.77 311.704,-12.6837"/>
<polygon fill="midnightblue" stroke="midnightblue" points="312.175,-16.1625 321.958,-12.0952 311.774,-9.174 312.175,-16.1625"/>
</g>
<!-- Node5 -->
<g id="node5" class="node"><title>Node5</title>
<g id="a_node5"><a xlink:href="_cost_function_type_8h.html" target="_top" xlink:title="CostFunctionType.h">
<polygon fill="white" stroke="black" points="823.715,-118 823.715,-137 934.715,-137 934.715,-118 823.715,-118"/>
<text text-anchor="middle" x="879.215" y="-125" font-family="Ubuntu Mono" font-size="10.00">CostFunctionType.h</text>
</a>
</g>
</g>
<!-- Node1&#45;&gt;Node5 -->
<g id="edge5" class="edge"><title>Node1&#45;&gt;Node5</title>
<path fill="none" stroke="midnightblue" d="M430.732,-183.029C524.763,-176.767 681.003,-164.179 814.215,-143 820.889,-141.939 827.905,-140.606 834.757,-139.182"/>
<polygon fill="midnightblue" stroke="midnightblue" points="835.587,-142.583 844.622,-137.049 834.108,-135.741 835.587,-142.583"/>
</g>
<!-- Node9 -->
<g id="node9" class="node"><title>Node9</title>
<g id="a_node9"><a xlink:href="_dummy_cost_function_8h.html" target="_top" xlink:title="DummyCostFunction.h">
<polygon fill="white" stroke="black" points="207.215,-118 207.215,-137 323.215,-137 323.215,-118 207.215,-118"/>
<text text-anchor="middle" x="265.215" y="-125" font-family="Ubuntu Mono" font-size="10.00">DummyCostFunction.h</text>
</a>
</g>
</g>
<!-- Node1&#45;&gt;Node9 -->
<g id="edge9" class="edge"><title>Node1&#45;&gt;Node9</title>
<path fill="none" stroke="midnightblue" d="M334.609,-179.475C321.738,-170.02 300.741,-154.596 285.209,-143.187"/>
<polygon fill="midnightblue" stroke="midnightblue" points="286.93,-140.108 276.798,-137.009 282.786,-145.75 286.93,-140.108"/>
</g>
<!-- Node10 -->
<g id="node10" class="node"><title>Node10</title>
<g id="a_node10"><a xlink:href="_nearest_neighbour_cost_function_8h.html" target="_top" xlink:title="NearestNeighbourCostFunction.h">
<polygon fill="white" stroke="black" points="341.215,-118 341.215,-137 515.215,-137 515.215,-118 341.215,-118"/>
<text text-anchor="middle" x="428.215" y="-125" font-family="Ubuntu Mono" font-size="10.00">NearestNeighbourCostFunction.h</text>
</a>
</g>
</g>
<!-- Node1&#45;&gt;Node10 -->
<g id="edge11" class="edge"><title>Node1&#45;&gt;Node10</title>
<path fill="none" stroke="midnightblue" d="M357.963,-179.475C370.994,-170.02 392.25,-154.596 407.974,-143.187"/>
<polygon fill="midnightblue" stroke="midnightblue" points="410.45,-145.715 416.488,-137.009 406.339,-140.049 410.45,-145.715"/>
</g>
<!-- Node11 -->
<g id="node11" class="node"><title>Node11</title>
<g id="a_node11"><a xlink:href="_random_cost_function_8h.html" target="_top" xlink:title="RandomCostFunction.h">
<polygon fill="white" stroke="black" points="683.215,-118 683.215,-137 805.215,-137 805.215,-118 683.215,-118"/>
<text text-anchor="middle" x="744.215" y="-125" font-family="Ubuntu Mono" font-size="10.00">RandomCostFunction.h</text>
</a>
</g>
</g>
<!-- Node1&#45;&gt;Node11 -->
<g id="edge13" class="edge"><title>Node1&#45;&gt;Node11</title>
<path fill="none" stroke="midnightblue" d="M418.739,-179.485C485.347,-171.325 586.696,-158.05 674.215,-143 681.035,-141.827 688.206,-140.477 695.251,-139.083"/>
<polygon fill="midnightblue" stroke="midnightblue" points="696.319,-142.438 705.427,-137.024 694.931,-135.577 696.319,-142.438"/>
</g>
<!-- Node13 -->
<g id="node13" class="node"><title>Node13</title>
<g id="a_node13"><a xlink:href="_weighted_cost_function_8h.html" target="_top" xlink:title="WeightedCostFunction.h">
<polygon fill="white" stroke="black" points="533.215,-118 533.215,-137 665.215,-137 665.215,-118 533.215,-118"/>
<text text-anchor="middle" x="599.215" y="-125" font-family="Ubuntu Mono" font-size="10.00">WeightedCostFunction.h</text>
</a>
</g>
</g>
<!-- Node1&#45;&gt;Node13 -->
<g id="edge18" class="edge"><title>Node1&#45;&gt;Node13</title>
<path fill="none" stroke="midnightblue" d="M382.463,-179.475C427.365,-168.915 503.921,-150.911 552.999,-139.369"/>
<polygon fill="midnightblue" stroke="midnightblue" points="554.1,-142.706 563.033,-137.009 552.497,-135.891 554.1,-142.706"/>
</g>
<!-- Node2&#45;&gt;Node3 -->
<g id="edge2" class="edge"><title>Node2&#45;&gt;Node3</title>
<path fill="none" stroke="midnightblue" d="M167.373,-112.475C208.801,-101.941 264.744,-87.7158 302.963,-77.9978"/>
<polygon fill="midnightblue" stroke="midnightblue" points="303.932,-81.3628 312.761,-75.5064 302.207,-74.5787 303.932,-81.3628"/>
</g>
<!-- Node3&#45;&gt;Node4 -->
<g id="edge3" class="edge"><title>Node3&#45;&gt;Node4</title>
<path fill="none" stroke="midnightblue" d="M346.215,-56.083C346.215,-49.0059 346.215,-38.8611 346.215,-29.9865"/>
<polygon fill="midnightblue" stroke="midnightblue" points="349.715,-29.751 346.215,-19.7511 342.715,-29.7511 349.715,-29.751"/>
</g>
<!-- Node6 -->
<g id="node6" class="node"><title>Node6</title>
<g id="a_node6"><a xlink:href="_missing_cost_function_error_8h.html" target="_top" xlink:title="MissingCostFunctionError.h">
<polygon fill="white" stroke="black" points="827.715,-56.5 827.715,-75.5 980.715,-75.5 980.715,-56.5 827.715,-56.5"/>
<text text-anchor="middle" x="904.215" y="-63.5" font-family="Ubuntu Mono" font-size="10.00">MissingCostFunctionError.h</text>
</a>
</g>
</g>
<!-- Node5&#45;&gt;Node6 -->
<g id="edge6" class="edge"><title>Node5&#45;&gt;Node6</title>
<path fill="none" stroke="midnightblue" d="M882.797,-117.975C886.398,-109.404 892.06,-95.9269 896.659,-84.983"/>
<polygon fill="midnightblue" stroke="midnightblue" points="899.992,-86.0842 900.639,-75.5091 893.539,-83.3726 899.992,-86.0842"/>
</g>
<!-- Node8 -->
<g id="node8" class="node"><title>Node8</title>
<polygon fill="white" stroke="#bfbfbf" points="761.215,-56.5 761.215,-75.5 809.215,-75.5 809.215,-56.5 761.215,-56.5"/>
<text text-anchor="middle" x="785.215" y="-63.5" font-family="Ubuntu Mono" font-size="10.00">string</text>
</g>
<!-- Node5&#45;&gt;Node8 -->
<g id="edge8" class="edge"><title>Node5&#45;&gt;Node8</title>
<path fill="none" stroke="midnightblue" d="M865.747,-117.975C850.53,-108.343 825.528,-92.5175 807.414,-81.0517"/>
<polygon fill="midnightblue" stroke="midnightblue" points="808.979,-77.9002 798.658,-75.5091 805.235,-83.8149 808.979,-77.9002"/>
</g>
<!-- Node7 -->
<g id="node7" class="node"><title>Node7</title>
<polygon fill="white" stroke="#bfbfbf" points="872.215,-0.5 872.215,-19.5 936.215,-19.5 936.215,-0.5 872.215,-0.5"/>
<text text-anchor="middle" x="904.215" y="-7.5" font-family="Ubuntu Mono" font-size="10.00">stdexcept</text>
</g>
<!-- Node6&#45;&gt;Node7 -->
<g id="edge7" class="edge"><title>Node6&#45;&gt;Node7</title>
<path fill="none" stroke="midnightblue" d="M904.215,-56.083C904.215,-49.0059 904.215,-38.8611 904.215,-29.9865"/>
<polygon fill="midnightblue" stroke="midnightblue" points="907.715,-29.751 904.215,-19.7511 900.715,-29.7511 907.715,-29.751"/>
</g>
<!-- Node9&#45;&gt;Node3 -->
<g id="edge10" class="edge"><title>Node9&#45;&gt;Node3</title>
<path fill="none" stroke="midnightblue" d="M276.82,-117.975C289.692,-108.52 310.689,-93.0961 326.22,-81.6871"/>
<polygon fill="midnightblue" stroke="midnightblue" points="328.644,-84.25 334.631,-75.5091 324.5,-78.6085 328.644,-84.25"/>
</g>
<!-- Node10&#45;&gt;Node3 -->
<g id="edge12" class="edge"><title>Node10&#45;&gt;Node3</title>
<path fill="none" stroke="midnightblue" d="M416.466,-117.975C403.435,-108.52 382.179,-93.0961 366.456,-81.6871"/>
<polygon fill="midnightblue" stroke="midnightblue" points="368.091,-78.5492 357.941,-75.5091 363.98,-84.2149 368.091,-78.5492"/>
</g>
<!-- Node11&#45;&gt;Node3 -->
<g id="edge14" class="edge"><title>Node11&#45;&gt;Node3</title>
<path fill="none" stroke="midnightblue" d="M705.427,-117.976C695.294,-115.884 684.367,-113.746 674.215,-112 578.773,-95.5874 466.884,-81.2865 401.54,-73.4269"/>
<polygon fill="midnightblue" stroke="midnightblue" points="401.806,-69.9339 391.461,-72.2215 400.975,-76.8844 401.806,-69.9339"/>
</g>
<!-- Node11&#45;&gt;Node4 -->
<g id="edge15" class="edge"><title>Node11&#45;&gt;Node4</title>
<path fill="none" stroke="midnightblue" d="M714.625,-117.913C642.213,-96.8989 456.436,-42.9863 379.921,-20.7817"/>
<polygon fill="midnightblue" stroke="midnightblue" points="380.875,-17.4142 370.296,-17.9885 378.924,-24.1369 380.875,-17.4142"/>
</g>
<!-- Node11&#45;&gt;Node8 -->
<g id="edge17" class="edge"><title>Node11&#45;&gt;Node8</title>
<path fill="none" stroke="midnightblue" d="M750.089,-117.975C756.178,-109.138 765.859,-95.0886 773.518,-83.975"/>
<polygon fill="midnightblue" stroke="midnightblue" points="776.559,-85.7294 779.351,-75.5091 770.795,-81.7575 776.559,-85.7294"/>
</g>
<!-- Node12 -->
<g id="node12" class="node"><title>Node12</title>
<polygon fill="white" stroke="#bfbfbf" points="695.215,-56.5 695.215,-75.5 743.215,-75.5 743.215,-56.5 695.215,-56.5"/>
<text text-anchor="middle" x="719.215" y="-63.5" font-family="Ubuntu Mono" font-size="10.00">random</text>
</g>
<!-- Node11&#45;&gt;Node12 -->
<g id="edge16" class="edge"><title>Node11&#45;&gt;Node12</title>
<path fill="none" stroke="midnightblue" d="M740.633,-117.975C737.031,-109.404 731.369,-95.9269 726.771,-84.983"/>
<polygon fill="midnightblue" stroke="midnightblue" points="729.89,-83.3726 722.79,-75.5091 723.437,-86.0842 729.89,-83.3726"/>
</g>
<!-- Node13&#45;&gt;Node3 -->
<g id="edge19" class="edge"><title>Node13&#45;&gt;Node3</title>
<path fill="none" stroke="midnightblue" d="M562.966,-117.975C518.064,-107.415 441.509,-89.411 392.431,-77.8689"/>
<polygon fill="midnightblue" stroke="midnightblue" points="392.932,-74.3914 382.396,-75.5091 391.329,-81.2055 392.932,-74.3914"/>
</g>
</g>
</svg>
