<?xml version="1.0" encoding="UTF-8" standalone="no"?>
<!DOCTYPE svg PUBLIC "-//W3C//DTD SVG 1.1//EN"
 "http://www.w3.org/Graphics/SVG/1.1/DTD/svg11.dtd">
<!-- Generated by graphviz version 2.38.0 (20140413.2041)
 -->
<!-- Title: include/CostFunction.h Pages: 1 -->
<svg width="1119pt" height="218pt"
 viewBox="0.00 0.00 1119.00 218.00" xmlns="http://www.w3.org/2000/svg" xmlns:xlink="http://www.w3.org/1999/xlink">
<g id="graph0" class="graph" transform="scale(1 1) rotate(0) translate(4 214)">
<title>include/CostFunction.h</title>
<polygon fill="white" stroke="none" points="-4,4 -4,-214 1115,-214 1115,4 -4,4"/>
<!-- Node1 -->
<g id="node1" class="node"><title>Node1</title>
<polygon fill="#bfbfbf" stroke="black" points="484.5,-190.5 484.5,-209.5 601.5,-209.5 601.5,-190.5 484.5,-190.5"/>
<text text-anchor="middle" x="543" y="-197.5" font-family="Helvetica,sans-Serif" font-size="10.00">include/CostFunction.h</text>
</g>
<!-- Node2 -->
<g id="node2" class="node"><title>Node2</title>
<g id="a_node2"><a xlink:href="_building_8cpp.html" target="_top" xlink:title="src/Building.cpp">
<polygon fill="white" stroke="black" points="0,-129 0,-148 86,-148 86,-129 0,-129"/>
<text text-anchor="middle" x="43" y="-136" font-family="Helvetica,sans-Serif" font-size="10.00">src/Building.cpp</text>
</a>
</g>
</g>
<!-- Node1&#45;&gt;Node2 -->
<g id="edge1" class="edge"><title>Node1&#45;&gt;Node2</title>
<path fill="none" stroke="midnightblue" d="M474.022,-195.756C385.595,-190.756 227.826,-178.998 95,-154 86.8948,-152.475 78.2174,-150.285 70.3189,-148.067"/>
<polygon fill="midnightblue" stroke="midnightblue" points="474.015,-199.261 484.193,-196.318 474.402,-192.271 474.015,-199.261"/>
</g>
<!-- Node3 -->
<g id="node3" class="node"><title>Node3</title>
<g id="a_node3"><a xlink:href="_planning_scheduler_8cpp.html" target="_top" xlink:title="src/PlanningScheduler.cpp">
<polygon fill="white" stroke="black" points="104.5,-129 104.5,-148 237.5,-148 237.5,-129 104.5,-129"/>
<text text-anchor="middle" x="171" y="-136" font-family="Helvetica,sans-Serif" font-size="10.00">src/PlanningScheduler.cpp</text>
</a>
</g>
</g>
<!-- Node1&#45;&gt;Node3 -->
<g id="edge2" class="edge"><title>Node1&#45;&gt;Node3</title>
<path fill="none" stroke="midnightblue" d="M474.365,-189.313C414.296,-180.657 324.732,-167.319 247,-154 236.408,-152.185 225.015,-150.089 214.354,-148.064"/>
<polygon fill="midnightblue" stroke="midnightblue" points="474.089,-192.809 484.486,-190.767 475.085,-185.881 474.089,-192.809"/>
</g>
<!-- Node4 -->
<g id="node4" class="node"><title>Node4</title>
<g id="a_node4"><a xlink:href="_simple_scheduler_8cpp.html" target="_top" xlink:title="src/SimpleScheduler.cpp">
<polygon fill="white" stroke="black" points="255.5,-129 255.5,-148 380.5,-148 380.5,-129 255.5,-129"/>
<text text-anchor="middle" x="318" y="-136" font-family="Helvetica,sans-Serif" font-size="10.00">src/SimpleScheduler.cpp</text>
</a>
</g>
</g>
<!-- Node1&#45;&gt;Node4 -->
<g id="edge3" class="edge"><title>Node1&#45;&gt;Node4</title>
<path fill="none" stroke="midnightblue" d="M501.008,-187.896C457.309,-176.34 389.831,-158.495 350.177,-148.009"/>
<polygon fill="midnightblue" stroke="midnightblue" points="500.2,-191.302 510.763,-190.475 501.99,-184.535 500.2,-191.302"/>
</g>
<!-- Node5 -->
<g id="node5" class="node"><title>Node5</title>
<g id="a_node5"><a xlink:href="_better_nearest_neighbour_cost_function_8h.html" target="_top" xlink:title="include/BetterNearestNeighbour\lCostFunction.h">
<polygon fill="white" stroke="black" points="545.5,-123.5 545.5,-153.5 700.5,-153.5 700.5,-123.5 545.5,-123.5"/>
<text text-anchor="start" x="553.5" y="-141.5" font-family="Helvetica,sans-Serif" font-size="10.00">include/BetterNearestNeighbour</text>
<text text-anchor="middle" x="623" y="-130.5" font-family="Helvetica,sans-Serif" font-size="10.00">CostFunction.h</text>
</a>
</g>
</g>
<!-- Node1&#45;&gt;Node5 -->
<g id="edge4" class="edge"><title>Node1&#45;&gt;Node5</title>
<path fill="none" stroke="midnightblue" d="M562.539,-184.468C575.205,-175.047 591.617,-162.841 604.146,-153.523"/>
<polygon fill="midnightblue" stroke="midnightblue" points="560.397,-181.699 554.462,-190.475 564.575,-187.316 560.397,-181.699"/>
</g>
<!-- Node7 -->
<g id="node7" class="node"><title>Node7</title>
<g id="a_node7"><a xlink:href="_cost_function_creator_8h.html" target="_top" xlink:title="include/CostFunctionCreator.h">
<polygon fill="white" stroke="black" points="626.5,-62 626.5,-81 775.5,-81 775.5,-62 626.5,-62"/>
<text text-anchor="middle" x="701" y="-69" font-family="Helvetica,sans-Serif" font-size="10.00">include/CostFunctionCreator.h</text>
</a>
</g>
</g>
<!-- Node1&#45;&gt;Node7 -->
<g id="edge8" class="edge"><title>Node1&#45;&gt;Node7</title>
<path fill="none" stroke="midnightblue" d="M611.504,-189.107C651.988,-181.702 697.684,-170.074 710,-154 726.623,-132.304 713.249,-97.3085 705.523,-81.1665"/>
<polygon fill="midnightblue" stroke="midnightblue" points="610.858,-185.667 601.618,-190.852 612.075,-192.56 610.858,-185.667"/>
</g>
<!-- Node9 -->
<g id="node9" class="node"><title>Node9</title>
<g id="a_node9"><a xlink:href="_nearest_neighbour_cost_function_8h.html" target="_top" xlink:title="include/NearestNeighbour\lCostFunction.h">
<polygon fill="white" stroke="black" points="398.5,-123.5 398.5,-153.5 527.5,-153.5 527.5,-123.5 398.5,-123.5"/>
<text text-anchor="start" x="406.5" y="-141.5" font-family="Helvetica,sans-Serif" font-size="10.00">include/NearestNeighbour</text>
<text text-anchor="middle" x="463" y="-130.5" font-family="Helvetica,sans-Serif" font-size="10.00">CostFunction.h</text>
</a>
</g>
</g>
<!-- Node1&#45;&gt;Node9 -->
<g id="edge9" class="edge"><title>Node1&#45;&gt;Node9</title>
<path fill="none" stroke="midnightblue" d="M523.461,-184.468C510.795,-175.047 494.383,-162.841 481.854,-153.523"/>
<polygon fill="midnightblue" stroke="midnightblue" points="521.425,-187.316 531.538,-190.475 525.603,-181.699 521.425,-187.316"/>
</g>
<!-- Node11 -->
<g id="node11" class="node"><title>Node11</title>
<g id="a_node11"><a xlink:href="_random_cost_function_8h.html" target="_top" xlink:title="include/RandomCostFunction.h">
<polygon fill="white" stroke="black" points="757,-129 757,-148 911,-148 911,-129 757,-129"/>
<text text-anchor="middle" x="834" y="-136" font-family="Helvetica,sans-Serif" font-size="10.00">include/RandomCostFunction.h</text>
</a>
</g>
</g>
<!-- Node1&#45;&gt;Node11 -->
<g id="edge13" class="edge"><title>Node1&#45;&gt;Node11</title>
<path fill="none" stroke="midnightblue" d="M594.831,-188.402C651.247,-176.867 740.343,-158.65 792.384,-148.009"/>
<polygon fill="midnightblue" stroke="midnightblue" points="593.789,-185.043 584.693,-190.475 595.192,-191.901 593.789,-185.043"/>
</g>
<!-- Node13 -->
<g id="node13" class="node"><title>Node13</title>
<g id="a_node13"><a xlink:href="_weighted_cost_function_8h.html" target="_top" xlink:title="include/WeightedCostFunction.h">
<polygon fill="white" stroke="black" points="929,-129 929,-148 1087,-148 1087,-129 929,-129"/>
<text text-anchor="middle" x="1008" y="-136" font-family="Helvetica,sans-Serif" font-size="10.00">include/WeightedCostFunction.h</text>
</a>
</g>
</g>
<!-- Node1&#45;&gt;Node13 -->
<g id="edge16" class="edge"><title>Node1&#45;&gt;Node13</title>
<path fill="none" stroke="midnightblue" d="M611.897,-191.707C687.574,-183.48 812.637,-169.245 920,-154 932.571,-152.215 946.117,-150.086 958.724,-148.016"/>
<polygon fill="midnightblue" stroke="midnightblue" points="611.118,-188.271 601.553,-192.828 611.872,-195.23 611.118,-188.271"/>
</g>
<!-- Node6 -->
<g id="node6" class="node"><title>Node6</title>
<g id="a_node6"><a xlink:href="_better_nearest_neighbour_cost_function_8cpp.html" target="_top" xlink:title="src/BetterNearestNeighbour\lCostFunction.cpp">
<polygon fill="white" stroke="black" points="470,-56.5 470,-86.5 608,-86.5 608,-56.5 470,-56.5"/>
<text text-anchor="start" x="478" y="-74.5" font-family="Helvetica,sans-Serif" font-size="10.00">src/BetterNearestNeighbour</text>
<text text-anchor="middle" x="539" y="-63.5" font-family="Helvetica,sans-Serif" font-size="10.00">CostFunction.cpp</text>
</a>
</g>
</g>
<!-- Node5&#45;&gt;Node6 -->
<g id="edge5" class="edge"><title>Node5&#45;&gt;Node6</title>
<path fill="none" stroke="midnightblue" d="M596.724,-117.168C583.88,-107.228 568.742,-95.5144 557.191,-86.5765"/>
<polygon fill="midnightblue" stroke="midnightblue" points="594.723,-120.044 604.773,-123.396 599.006,-114.508 594.723,-120.044"/>
</g>
<!-- Node5&#45;&gt;Node7 -->
<g id="edge6" class="edge"><title>Node5&#45;&gt;Node7</title>
<path fill="none" stroke="midnightblue" d="M647.993,-116.672C662.395,-104.671 679.736,-90.2203 690.567,-81.1945"/>
<polygon fill="midnightblue" stroke="midnightblue" points="645.366,-114.305 639.925,-123.396 649.848,-119.683 645.366,-114.305"/>
</g>
<!-- Node8 -->
<g id="node8" class="node"><title>Node8</title>
<g id="a_node8"><a xlink:href="_simulator_8cpp.html" target="_top" xlink:title="src/Simulator.cpp">
<polygon fill="white" stroke="black" points="654.5,-0.5 654.5,-19.5 747.5,-19.5 747.5,-0.5 654.5,-0.5"/>
<text text-anchor="middle" x="701" y="-7.5" font-family="Helvetica,sans-Serif" font-size="10.00">src/Simulator.cpp</text>
</a>
</g>
</g>
<!-- Node7&#45;&gt;Node8 -->
<g id="edge7" class="edge"><title>Node7&#45;&gt;Node8</title>
<path fill="none" stroke="midnightblue" d="M701,-51.8165C701,-40.9962 701,-27.898 701,-19.5091"/>
<polygon fill="midnightblue" stroke="midnightblue" points="697.5,-51.9751 701,-61.9751 704.5,-51.9751 697.5,-51.9751"/>
</g>
<!-- Node9&#45;&gt;Node6 -->
<g id="edge10" class="edge"><title>Node9&#45;&gt;Node6</title>
<path fill="none" stroke="midnightblue" d="M487.106,-116.883C498.655,-107.005 512.19,-95.4293 522.541,-86.5765"/>
<polygon fill="midnightblue" stroke="midnightblue" points="484.816,-114.236 479.491,-123.396 489.365,-119.556 484.816,-114.236"/>
</g>
<!-- Node9&#45;&gt;Node7 -->
<g id="edge12" class="edge"><title>Node9&#45;&gt;Node7</title>
<path fill="none" stroke="midnightblue" d="M524.036,-120.83C570.616,-108.109 632.873,-91.1062 669.772,-81.0287"/>
<polygon fill="midnightblue" stroke="midnightblue" points="523.074,-117.465 514.349,-123.476 524.918,-124.218 523.074,-117.465"/>
</g>
<!-- Node10 -->
<g id="node10" class="node"><title>Node10</title>
<g id="a_node10"><a xlink:href="_nearest_neighbour_cost_function_8cpp.html" target="_top" xlink:title="src/NearestNeighbourCost\lFunction.cpp">
<polygon fill="white" stroke="black" points="318.5,-56.5 318.5,-86.5 451.5,-86.5 451.5,-56.5 318.5,-56.5"/>
<text text-anchor="start" x="326.5" y="-74.5" font-family="Helvetica,sans-Serif" font-size="10.00">src/NearestNeighbourCost</text>
<text text-anchor="middle" x="385" y="-63.5" font-family="Helvetica,sans-Serif" font-size="10.00">Function.cpp</text>
</a>
</g>
</g>
<!-- Node9&#45;&gt;Node10 -->
<g id="edge11" class="edge"><title>Node9&#45;&gt;Node10</title>
<path fill="none" stroke="midnightblue" d="M438.26,-116.883C426.407,-107.005 412.515,-95.4293 401.892,-86.5765"/>
<polygon fill="midnightblue" stroke="midnightblue" points="436.152,-119.683 446.075,-123.396 440.634,-114.305 436.152,-119.683"/>
</g>
<!-- Node11&#45;&gt;Node7 -->
<g id="edge15" class="edge"><title>Node11&#45;&gt;Node7</title>
<path fill="none" stroke="midnightblue" d="M807.285,-124.444C780.941,-111.569 741.426,-92.2573 718.734,-81.1672"/>
<polygon fill="midnightblue" stroke="midnightblue" points="805.817,-127.622 816.339,-128.869 808.891,-121.333 805.817,-127.622"/>
</g>
<!-- Node12 -->
<g id="node12" class="node"><title>Node12</title>
<g id="a_node12"><a xlink:href="_random_cost_function_8cpp.html" target="_top" xlink:title="src/RandomCostFunction.cpp">
<polygon fill="white" stroke="black" points="793.5,-62 793.5,-81 940.5,-81 940.5,-62 793.5,-62"/>
<text text-anchor="middle" x="867" y="-69" font-family="Helvetica,sans-Serif" font-size="10.00">src/RandomCostFunction.cpp</text>
</a>
</g>
</g>
<!-- Node11&#45;&gt;Node12 -->
<g id="edge14" class="edge"><title>Node11&#45;&gt;Node12</title>
<path fill="none" stroke="midnightblue" d="M843.055,-119.663C849.42,-107.128 857.653,-90.9104 862.62,-81.1273"/>
<polygon fill="midnightblue" stroke="midnightblue" points="839.857,-118.233 838.451,-128.734 846.098,-121.402 839.857,-118.233"/>
</g>
<!-- Node13&#45;&gt;Node7 -->
<g id="edge18" class="edge"><title>Node13&#45;&gt;Node7</title>
<path fill="none" stroke="midnightblue" d="M957.477,-126.803C897.063,-114.012 797.151,-92.8578 741.54,-81.0834"/>
<polygon fill="midnightblue" stroke="midnightblue" points="957.041,-130.288 967.549,-128.936 958.491,-123.44 957.041,-130.288"/>
</g>
<!-- Node14 -->
<g id="node14" class="node"><title>Node14</title>
<g id="a_node14"><a xlink:href="_weighted_cost_function_8cpp.html" target="_top" xlink:title="src/WeightedCostFunction.cpp">
<polygon fill="white" stroke="black" points="959,-62 959,-81 1111,-81 1111,-62 959,-62"/>
<text text-anchor="middle" x="1035" y="-69" font-family="Helvetica,sans-Serif" font-size="10.00">src/WeightedCostFunction.cpp</text>
</a>
</g>
</g>
<!-- Node13&#45;&gt;Node14 -->
<g id="edge17" class="edge"><title>Node13&#45;&gt;Node14</title>
<path fill="none" stroke="midnightblue" d="M1015.56,-119.29C1020.75,-106.808 1027.39,-90.8135 1031.42,-81.1273"/>
<polygon fill="midnightblue" stroke="midnightblue" points="1012.25,-118.156 1011.64,-128.734 1018.71,-120.841 1012.25,-118.156"/>
</g>
</g>
</svg>
