<?xml version="1.0" encoding="UTF-8" standalone="no"?>
<!DOCTYPE svg PUBLIC "-//W3C//DTD SVG 1.1//EN"
 "http://www.w3.org/Graphics/SVG/1.1/DTD/svg11.dtd">
<!-- Generated by graphviz version 2.38.0 (20140413.2041)
 -->
<!-- Title: include/CostFunctionCreator.h Pages: 1 -->
<!--zoomable 207 -->
<svg id="main" version="1.1" xmlns="http://www.w3.org/2000/svg" xmlns:xlink="http://www.w3.org/1999/xlink" xml:space="preserve" onload="init(evt)">
<style type="text/css"><![CDATA[
.edge:hover path { stroke: red; }
.edge:hover polygon { stroke: red; fill: red; }
]]></style>
<script type="text/javascript"><![CDATA[
var edges = document.getElementsByTagName('g');
if (edges && edges.length) {
  for (var i=0;i<edges.length;i++) {
    if (edges[i].id.substr(0,4)=='edge') {
      edges[i].setAttribute('class','edge');
    }
  }
}
]]></script>
        <defs>
                <circle id="rim" cx="0" cy="0" r="7"/>
                <circle id="rim2" cx="0" cy="0" r="3.5"/>
                <g id="zoomPlus">
                        <use xlink:href="#rim" fill="#404040">
                                <set attributeName="fill" to="#808080" begin="zoomplus.mouseover" end="zoomplus.mouseout"/>
                        </use>
                        <path d="M-4,0h8M0,-4v8" fill="none" stroke="white" stroke-width="1.5" pointer-events="none"/>
                </g>
                <g id="zoomMin">
                        <use xlink:href="#rim" fill="#404040">
                                <set attributeName="fill" to="#808080" begin="zoomminus.mouseover" end="zoomminus.mouseout"/>
                        </use>
                        <path d="M-4,0h8" fill="none" stroke="white" stroke-width="1.5" pointer-events="none"/>
                </g>
                <g id="dirArrow">
                        <path fill="none" stroke="white" stroke-width="1.5" d="M0,-3.0v7 M-2.5,-0.5L0,-3.0L2.5,-0.5"/>
                </g>
               <g id="resetDef">
                       <use xlink:href="#rim2" fill="#404040">
                               <set attributeName="fill" to="#808080" begin="reset.mouseover" end="reset.mouseout"/>
                       </use>
               </g>
        </defs>

<script type="text/javascript">
var viewWidth = 812;
var viewHeight = 207;
var sectionId = 'dynsection-0';
</script>
<script xlink:href="svgpan.js"/>
<svg id="graph" class="graph">
<g id="viewport">
<title>include/CostFunctionCreator.h</title>
<polygon fill="white" stroke="none" points="-4,4 -4,-203 807.584,-203 807.584,4 -4,4"/>
<!-- Node1 -->
<g id="node1" class="node"><title>Node1</title>
<polygon fill="#bfbfbf" stroke="black" points="206.084,-179.5 206.084,-198.5 355.084,-198.5 355.084,-179.5 206.084,-179.5"/>
<text text-anchor="middle" x="280.584" y="-186.5" font-family="Helvetica,sans-Serif" font-size="10.00">include/CostFunctionCreator.h</text>
</g>
<!-- Node2 -->
<g id="node2" class="node"><title>Node2</title>
<g id="a_node2"><a xlink:href="_better_nearest_neighbour_cost_function_8h.html" target="_top" xlink:title="BetterNearestNeighbourCost\lFunction.h">
<polygon fill="white" stroke="black" points="38.0842,-112.5 38.0842,-142.5 181.084,-142.5 181.084,-112.5 38.0842,-112.5"/>
<text text-anchor="start" x="46.0842" y="-130.5" font-family="Helvetica,sans-Serif" font-size="10.00">BetterNearestNeighbourCost</text>
<text text-anchor="middle" x="109.584" y="-119.5" font-family="Helvetica,sans-Serif" font-size="10.00">Function.h</text>
</a>
</g>
</g>
<!-- Node1&#45;&gt;Node2 -->
<g id="edge1" class="edge"><title>Node1&#45;&gt;Node2</title>
<path fill="none" stroke="midnightblue" d="M256.084,-179.475C230.977,-170.739 191.225,-156.907 159.462,-145.855"/>
<polygon fill="midnightblue" stroke="midnightblue" points="160.48,-142.504 149.886,-142.523 158.18,-149.115 160.48,-142.504"/>
</g>
<!-- Node3 -->
<g id="node3" class="node"><title>Node3</title>
<g id="a_node3"><a xlink:href="_cost_function_8h.html" target="_top" xlink:title="CostFunction.h">
<polygon fill="white" stroke="black" points="239.084,-56.5 239.084,-75.5 322.084,-75.5 322.084,-56.5 239.084,-56.5"/>
<text text-anchor="middle" x="280.584" y="-63.5" font-family="Helvetica,sans-Serif" font-size="10.00">CostFunction.h</text>
</a>
</g>
</g>
<!-- Node1&#45;&gt;Node3 -->
<g id="edge4" class="edge"><title>Node1&#45;&gt;Node3</title>
<path fill="none" stroke="midnightblue" d="M205.838,-188.413C114.248,-186.353 -22.8253,-173.403 28.5842,-112 53.6003,-82.1211 162.598,-72.0611 228.779,-68.6881"/>
<polygon fill="midnightblue" stroke="midnightblue" points="229.19,-72.1726 239.013,-68.2021 228.858,-65.1804 229.19,-72.1726"/>
</g>
<!-- Node4 -->
<g id="node4" class="node"><title>Node4</title>
<polygon fill="white" stroke="#bfbfbf" points="254.584,-0.5 254.584,-19.5 306.584,-19.5 306.584,-0.5 254.584,-0.5"/>
<text text-anchor="middle" x="280.584" y="-7.5" font-family="Helvetica,sans-Serif" font-size="10.00">memory</text>
</g>
<!-- Node1&#45;&gt;Node4 -->
<g id="edge18" class="edge"><title>Node1&#45;&gt;Node4</title>
<path fill="none" stroke="midnightblue" d="M206.018,-185.859C135.786,-182.083 37.8279,-171.672 13.5842,-143 -54.7539,-62.1804 156.864,-26.2154 244.456,-15.0436"/>
<polygon fill="midnightblue" stroke="midnightblue" points="245.001,-18.503 254.497,-13.8028 244.143,-11.5559 245.001,-18.503"/>
</g>
<!-- Node5 -->
<g id="node5" class="node"><title>Node5</title>
<g id="a_node5"><a xlink:href="_cost_function_type_8h.html" target="_top" xlink:title="CostFunctionType.h">
<polygon fill="white" stroke="black" points="662.084,-118 662.084,-137 767.084,-137 767.084,-118 662.084,-118"/>
<text text-anchor="middle" x="714.584" y="-125" font-family="Helvetica,sans-Serif" font-size="10.00">CostFunctionType.h</text>
</a>
</g>
</g>
<!-- Node1&#45;&gt;Node5 -->
<g id="edge5" class="edge"><title>Node1&#45;&gt;Node5</title>
<path fill="none" stroke="midnightblue" d="M355.4,-181.376C430.774,-174.134 550.249,-161.1 652.584,-143 658.512,-141.952 664.723,-140.693 670.828,-139.361"/>
<polygon fill="midnightblue" stroke="midnightblue" points="671.954,-142.695 680.936,-137.075 670.41,-135.868 671.954,-142.695"/>
</g>
<!-- Node9 -->
<g id="node9" class="node"><title>Node9</title>
<g id="a_node9"><a xlink:href="_nearest_neighbour_cost_function_8h.html" target="_top" xlink:title="NearestNeighbourCostFunction.h">
<polygon fill="white" stroke="black" points="199.584,-118 199.584,-137 361.584,-137 361.584,-118 199.584,-118"/>
<text text-anchor="middle" x="280.584" y="-125" font-family="Helvetica,sans-Serif" font-size="10.00">NearestNeighbourCostFunction.h</text>
</a>
</g>
</g>
<!-- Node1&#45;&gt;Node9 -->
<g id="edge9" class="edge"><title>Node1&#45;&gt;Node9</title>
<path fill="none" stroke="midnightblue" d="M280.584,-179.475C280.584,-171.08 280.584,-157.981 280.584,-147.163"/>
<polygon fill="midnightblue" stroke="midnightblue" points="284.084,-147.009 280.584,-137.009 277.084,-147.009 284.084,-147.009"/>
</g>
<!-- Node10 -->
<g id="node10" class="node"><title>Node10</title>
<g id="a_node10"><a xlink:href="_random_cost_function_8h.html" target="_top" xlink:title="RandomCostFunction.h">
<polygon fill="white" stroke="black" points="523.584,-118 523.584,-137 643.584,-137 643.584,-118 523.584,-118"/>
<text text-anchor="middle" x="583.584" y="-125" font-family="Helvetica,sans-Serif" font-size="10.00">RandomCostFunction.h</text>
</a>
</g>
</g>
<!-- Node1&#45;&gt;Node10 -->
<g id="edge11" class="edge"><title>Node1&#45;&gt;Node10</title>
<path fill="none" stroke="midnightblue" d="M325.722,-179.469C372.687,-170.549 448.342,-156.057 513.584,-143 519.813,-141.753 526.35,-140.426 532.823,-139.099"/>
<polygon fill="midnightblue" stroke="midnightblue" points="533.798,-142.471 542.887,-137.027 532.386,-135.615 533.798,-142.471"/>
</g>
<!-- Node12 -->
<g id="node12" class="node"><title>Node12</title>
<g id="a_node12"><a xlink:href="_weighted_cost_function_8h.html" target="_top" xlink:title="WeightedCostFunction.h">
<polygon fill="white" stroke="black" points="380.084,-118 380.084,-137 505.084,-137 505.084,-118 380.084,-118"/>
<text text-anchor="middle" x="442.584" y="-125" font-family="Helvetica,sans-Serif" font-size="10.00">WeightedCostFunction.h</text>
</a>
</g>
</g>
<!-- Node1&#45;&gt;Node12 -->
<g id="edge16" class="edge"><title>Node1&#45;&gt;Node12</title>
<path fill="none" stroke="midnightblue" d="M303.795,-179.475C331.584,-169.269 378.307,-152.108 409.778,-140.549"/>
<polygon fill="midnightblue" stroke="midnightblue" points="411.236,-143.742 419.417,-137.009 408.823,-137.171 411.236,-143.742"/>
</g>
<!-- Node2&#45;&gt;Node3 -->
<g id="edge2" class="edge"><title>Node2&#45;&gt;Node3</title>
<path fill="none" stroke="midnightblue" d="M150.109,-112.399C179.312,-102.238 218.301,-88.6716 246.033,-79.0221"/>
<polygon fill="midnightblue" stroke="midnightblue" points="247.408,-82.2497 255.702,-75.6578 245.107,-75.6385 247.408,-82.2497"/>
</g>
<!-- Node3&#45;&gt;Node4 -->
<g id="edge3" class="edge"><title>Node3&#45;&gt;Node4</title>
<path fill="none" stroke="midnightblue" d="M280.584,-56.083C280.584,-49.0059 280.584,-38.8611 280.584,-29.9865"/>
<polygon fill="midnightblue" stroke="midnightblue" points="284.084,-29.751 280.584,-19.7511 277.084,-29.7511 284.084,-29.751"/>
</g>
<!-- Node6 -->
<g id="node6" class="node"><title>Node6</title>
<g id="a_node6"><a xlink:href="_missing_cost_function_error_8h.html" target="_top" xlink:title="MissingCostFunctionError.h">
<polygon fill="white" stroke="black" points="665.584,-56.5 665.584,-75.5 803.584,-75.5 803.584,-56.5 665.584,-56.5"/>
<text text-anchor="middle" x="734.584" y="-63.5" font-family="Helvetica,sans-Serif" font-size="10.00">MissingCostFunctionError.h</text>
</a>
</g>
</g>
<!-- Node5&#45;&gt;Node6 -->
<g id="edge6" class="edge"><title>Node5&#45;&gt;Node6</title>
<path fill="none" stroke="midnightblue" d="M717.45,-117.975C720.301,-109.492 724.768,-96.2043 728.425,-85.3222"/>
<polygon fill="midnightblue" stroke="midnightblue" points="731.855,-86.1031 731.724,-75.5091 725.22,-83.8727 731.855,-86.1031"/>
</g>
<!-- Node8 -->
<g id="node8" class="node"><title>Node8</title>
<polygon fill="white" stroke="#bfbfbf" points="606.084,-56.5 606.084,-75.5 647.084,-75.5 647.084,-56.5 606.084,-56.5"/>
<text text-anchor="middle" x="626.584" y="-63.5" font-family="Helvetica,sans-Serif" font-size="10.00">string</text>
</g>
<!-- Node5&#45;&gt;Node8 -->
<g id="edge8" class="edge"><title>Node5&#45;&gt;Node8</title>
<path fill="none" stroke="midnightblue" d="M701.976,-117.975C687.861,-108.431 664.753,-92.8073 647.835,-81.3683"/>
<polygon fill="midnightblue" stroke="midnightblue" points="649.414,-78.2109 639.169,-75.5091 645.493,-84.0098 649.414,-78.2109"/>
</g>
<!-- Node7 -->
<g id="node7" class="node"><title>Node7</title>
<polygon fill="white" stroke="#bfbfbf" points="705.084,-0.5 705.084,-19.5 764.084,-19.5 764.084,-0.5 705.084,-0.5"/>
<text text-anchor="middle" x="734.584" y="-7.5" font-family="Helvetica,sans-Serif" font-size="10.00">stdexcept</text>
</g>
<!-- Node6&#45;&gt;Node7 -->
<g id="edge7" class="edge"><title>Node6&#45;&gt;Node7</title>
<path fill="none" stroke="midnightblue" d="M734.584,-56.083C734.584,-49.0059 734.584,-38.8611 734.584,-29.9865"/>
<polygon fill="midnightblue" stroke="midnightblue" points="738.084,-29.751 734.584,-19.7511 731.084,-29.7511 738.084,-29.751"/>
</g>
<!-- Node9&#45;&gt;Node3 -->
<g id="edge10" class="edge"><title>Node9&#45;&gt;Node3</title>
<path fill="none" stroke="midnightblue" d="M280.584,-117.975C280.584,-109.58 280.584,-96.4806 280.584,-85.6631"/>
<polygon fill="midnightblue" stroke="midnightblue" points="284.084,-85.5091 280.584,-75.5091 277.084,-85.5091 284.084,-85.5091"/>
</g>
<!-- Node10&#45;&gt;Node3 -->
<g id="edge12" class="edge"><title>Node10&#45;&gt;Node3</title>
<path fill="none" stroke="midnightblue" d="M542.887,-117.973C533.283,-115.988 523.076,-113.9 513.584,-112 451.296,-99.5344 379.517,-85.7607 332.275,-76.7765"/>
<polygon fill="midnightblue" stroke="midnightblue" points="332.764,-73.3067 322.286,-74.8787 331.457,-80.1837 332.764,-73.3067"/>
</g>
<!-- Node10&#45;&gt;Node4 -->
<g id="edge13" class="edge"><title>Node10&#45;&gt;Node4</title>
<path fill="none" stroke="midnightblue" d="M560.81,-117.819C507.488,-97.4931 374.407,-46.7641 312.807,-23.2828"/>
<polygon fill="midnightblue" stroke="midnightblue" points="313.8,-19.9159 303.209,-19.6245 311.307,-26.4568 313.8,-19.9159"/>
</g>
<!-- Node10&#45;&gt;Node8 -->
<g id="edge15" class="edge"><title>Node10&#45;&gt;Node8</title>
<path fill="none" stroke="midnightblue" d="M589.745,-117.975C596.195,-109.05 606.488,-94.8071 614.557,-83.6425"/>
<polygon fill="midnightblue" stroke="midnightblue" points="617.414,-85.6642 620.435,-75.5091 611.741,-81.564 617.414,-85.6642"/>
</g>
<!-- Node11 -->
<g id="node11" class="node"><title>Node11</title>
<polygon fill="white" stroke="#bfbfbf" points="539.084,-56.5 539.084,-75.5 588.084,-75.5 588.084,-56.5 539.084,-56.5"/>
<text text-anchor="middle" x="563.584" y="-63.5" font-family="Helvetica,sans-Serif" font-size="10.00">random</text>
</g>
<!-- Node10&#45;&gt;Node11 -->
<g id="edge14" class="edge"><title>Node10&#45;&gt;Node11</title>
<path fill="none" stroke="midnightblue" d="M580.719,-117.975C577.867,-109.492 573.401,-96.2043 569.743,-85.3222"/>
<polygon fill="midnightblue" stroke="midnightblue" points="572.948,-83.8727 566.444,-75.5091 566.313,-86.1031 572.948,-83.8727"/>
</g>
<!-- Node12&#45;&gt;Node3 -->
<g id="edge17" class="edge"><title>Node12&#45;&gt;Node3</title>
<path fill="none" stroke="midnightblue" d="M419.374,-117.975C391.585,-107.769 344.861,-90.608 313.39,-79.0492"/>
<polygon fill="midnightblue" stroke="midnightblue" points="314.345,-75.6714 303.752,-75.5091 311.932,-82.2422 314.345,-75.6714"/>
</g>
</g>
</svg>
        <g id="navigator" transform="translate(0 0)" fill="#404254">
                <rect fill="#f2f5e9" fill-opacity="0.5" stroke="#606060" stroke-width=".5" x="0" y="0" width="60" height="60"/>
                <use id="zoomplus" xlink:href="#zoomPlus" x="17" y="9" onmousedown="handleZoom(evt,'in')"/>
                <use id="zoomminus" xlink:href="#zoomMin" x="42" y="9" onmousedown="handleZoom(evt,'out')"/>
                <use id="reset" xlink:href="#resetDef" x="30" y="36" onmousedown="handleReset()"/>
                <g id="arrowUp" xlink:href="#dirArrow" transform="translate(30 24)" onmousedown="handlePan(0,-1)">
                  <use xlink:href="#rim" fill="#404040">
                        <set attributeName="fill" to="#808080" begin="arrowUp.mouseover" end="arrowUp.mouseout"/>
                  </use>
                  <path fill="none" stroke="white" stroke-width="1.5" d="M0,-3.0v7 M-2.5,-0.5L0,-3.0L2.5,-0.5"/>
                </g>
                <g id="arrowRight" xlink:href="#dirArrow" transform="rotate(90) translate(36 -43)" onmousedown="handlePan(1,0)">
                  <use xlink:href="#rim" fill="#404040">
                        <set attributeName="fill" to="#808080" begin="arrowRight.mouseover" end="arrowRight.mouseout"/>
                  </use>
                  <path fill="none" stroke="white" stroke-width="1.5" d="M0,-3.0v7 M-2.5,-0.5L0,-3.0L2.5,-0.5"/>
                </g>
                <g id="arrowDown" xlink:href="#dirArrow" transform="rotate(180) translate(-30 -48)" onmousedown="handlePan(0,1)">
                  <use xlink:href="#rim" fill="#404040">
                        <set attributeName="fill" to="#808080" begin="arrowDown.mouseover" end="arrowDown.mouseout"/>
                  </use>
                  <path fill="none" stroke="white" stroke-width="1.5" d="M0,-3.0v7 M-2.5,-0.5L0,-3.0L2.5,-0.5"/>
                </g>
                <g id="arrowLeft" xlink:href="#dirArrow" transform="rotate(270) translate(-36 17)" onmousedown="handlePan(-1,0)">
                  <use xlink:href="#rim" fill="#404040">
                        <set attributeName="fill" to="#808080" begin="arrowLeft.mouseover" end="arrowLeft.mouseout"/>
                  </use>
                  <path fill="none" stroke="white" stroke-width="1.5" d="M0,-3.0v7 M-2.5,-0.5L0,-3.0L2.5,-0.5"/>
                </g>
        </g>
        <svg viewBox="0 0 15 15" width="100%" height="30px" preserveAspectRatio="xMaxYMin meet">
         <g id="arrow_out" transform="scale(0.3 0.3)">
          <a xlink:href="_cost_function_creator_8h__incl_org.svg" target="_base">
           <rect id="button" ry="5" rx="5" y="6" x="6" height="38" width="38"
                fill="#f2f5e9" fill-opacity="0.5" stroke="#606060" stroke-width="1.0"/>
           <path id="arrow"
             d="M 11.500037,31.436501 C 11.940474,20.09759 22.043105,11.32322 32.158766,21.979434 L 37.068811,17.246167 C 37.068811,17.246167 37.088388,32 37.088388,32 L 22.160133,31.978069 C 22.160133,31.978069 26.997745,27.140456 26.997745,27.140456 C 18.528582,18.264221 13.291696,25.230495 11.500037,31.436501 z"
             style="fill:#404040;"/>
          </a>
         </g>
        </svg>
</svg>
