<?xml version="1.0" encoding="UTF-8" standalone="no"?>
<!DOCTYPE svg PUBLIC "-//W3C//DTD SVG 1.1//EN"
 "http://www.w3.org/Graphics/SVG/1.1/DTD/svg11.dtd">
<!-- Generated by graphviz version 2.38.0 (20140413.2041)
 -->
<!-- Title: include/Direction.h Pages: 1 -->
<svg width="668pt" height="84pt"
 viewBox="0.00 0.00 668.00 84.00" xmlns="http://www.w3.org/2000/svg" xmlns:xlink="http://www.w3.org/1999/xlink">
<g id="graph0" class="graph" transform="scale(1 1) rotate(0) translate(4 80)">
<title>include/Direction.h</title>
<polygon fill="white" stroke="none" points="-4,4 -4,-80 664,-80 664,4 -4,4"/>
<!-- Node1 -->
<g id="node1" class="node"><title>Node1</title>
<polygon fill="#bfbfbf" stroke="black" points="244,-56.5 244,-75.5 342,-75.5 342,-56.5 244,-56.5"/>
<text text-anchor="middle" x="293" y="-63.5" font-family="Helvetica,sans-Serif" font-size="10.00">include/Direction.h</text>
</g>
<!-- Node2 -->
<g id="node2" class="node"><title>Node2</title>
<g id="a_node2"><a xlink:href="_building_8cpp.html" target="_top" xlink:title="src/Building.cpp">
<polygon fill="white" stroke="black" points="0,-0.5 0,-19.5 86,-19.5 86,-0.5 0,-0.5"/>
<text text-anchor="middle" x="43" y="-7.5" font-family="Helvetica,sans-Serif" font-size="10.00">src/Building.cpp</text>
</a>
</g>
</g>
<!-- Node1&#45;&gt;Node2 -->
<g id="edge1" class="edge"><title>Node1&#45;&gt;Node2</title>
<path fill="none" stroke="midnightblue" d="M243.377,-54.2815C196.134,-44.0769 125.964,-28.9203 82.4279,-19.5164"/>
<polygon fill="midnightblue" stroke="midnightblue" points="242.873,-57.7533 253.387,-56.4435 244.351,-50.9111 242.873,-57.7533"/>
</g>
<!-- Node3 -->
<g id="node3" class="node"><title>Node3</title>
<g id="a_node3"><a xlink:href="_client_8cpp.html" target="_top" xlink:title="src/Client.cpp">
<polygon fill="white" stroke="black" points="104.5,-0.5 104.5,-19.5 181.5,-19.5 181.5,-0.5 104.5,-0.5"/>
<text text-anchor="middle" x="143" y="-7.5" font-family="Helvetica,sans-Serif" font-size="10.00">src/Client.cpp</text>
</a>
</g>
</g>
<!-- Node1&#45;&gt;Node3 -->
<g id="edge2" class="edge"><title>Node1&#45;&gt;Node3</title>
<path fill="none" stroke="midnightblue" d="M259.775,-53.0392C231.552,-42.8786 191.738,-28.5457 166.657,-19.5164"/>
<polygon fill="midnightblue" stroke="midnightblue" points="258.638,-56.3494 269.232,-56.4435 261.009,-49.7632 258.638,-56.3494"/>
</g>
<!-- Node4 -->
<g id="node4" class="node"><title>Node4</title>
<g id="a_node4"><a xlink:href="_elevator_8cpp.html" target="_top" xlink:title="src/Elevator.cpp">
<polygon fill="white" stroke="black" points="200,-0.5 200,-19.5 288,-19.5 288,-0.5 200,-0.5"/>
<text text-anchor="middle" x="244" y="-7.5" font-family="Helvetica,sans-Serif" font-size="10.00">src/Elevator.cpp</text>
</a>
</g>
</g>
<!-- Node1&#45;&gt;Node4 -->
<g id="edge3" class="edge"><title>Node1&#45;&gt;Node4</title>
<path fill="none" stroke="midnightblue" d="M277.966,-48.4314C269.378,-38.9673 258.957,-27.4827 251.941,-19.7511"/>
<polygon fill="midnightblue" stroke="midnightblue" points="275.597,-51.0293 284.909,-56.083 280.781,-46.3254 275.597,-51.0293"/>
</g>
<!-- Node5 -->
<g id="node5" class="node"><title>Node5</title>
<g id="a_node5"><a xlink:href="_floor_8cpp.html" target="_top" xlink:title="src/Floor.cpp">
<polygon fill="white" stroke="black" points="306,-0.5 306,-19.5 380,-19.5 380,-0.5 306,-0.5"/>
<text text-anchor="middle" x="343" y="-7.5" font-family="Helvetica,sans-Serif" font-size="10.00">src/Floor.cpp</text>
</a>
</g>
</g>
<!-- Node1&#45;&gt;Node5 -->
<g id="edge4" class="edge"><title>Node1&#45;&gt;Node5</title>
<path fill="none" stroke="midnightblue" d="M308.076,-48.7175C316.889,-39.1997 327.666,-27.5608 334.897,-19.7511"/>
<polygon fill="midnightblue" stroke="midnightblue" points="305.482,-46.3674 301.256,-56.083 310.619,-51.1233 305.482,-46.3674"/>
</g>
<!-- Node6 -->
<g id="node6" class="node"><title>Node6</title>
<g id="a_node6"><a xlink:href="_planning_scheduler_8cpp.html" target="_top" xlink:title="src/PlanningScheduler.cpp">
<polygon fill="white" stroke="black" points="398.5,-0.5 398.5,-19.5 531.5,-19.5 531.5,-0.5 398.5,-0.5"/>
<text text-anchor="middle" x="465" y="-7.5" font-family="Helvetica,sans-Serif" font-size="10.00">src/PlanningScheduler.cpp</text>
</a>
</g>
</g>
<!-- Node1&#45;&gt;Node6 -->
<g id="edge5" class="edge"><title>Node1&#45;&gt;Node6</title>
<path fill="none" stroke="midnightblue" d="M329.832,-53.4363C362.262,-43.2551 408.737,-28.664 437.874,-19.5164"/>
<polygon fill="midnightblue" stroke="midnightblue" points="328.746,-50.1088 320.254,-56.4435 330.843,-56.7874 328.746,-50.1088"/>
</g>
<!-- Node7 -->
<g id="node7" class="node"><title>Node7</title>
<g id="a_node7"><a xlink:href="_stop_manager_8cpp.html" target="_top" xlink:title="src/StopManager.cpp">
<polygon fill="white" stroke="black" points="550,-0.5 550,-19.5 660,-19.5 660,-0.5 550,-0.5"/>
<text text-anchor="middle" x="605" y="-7.5" font-family="Helvetica,sans-Serif" font-size="10.00">src/StopManager.cpp</text>
</a>
</g>
</g>
<!-- Node1&#45;&gt;Node7 -->
<g id="edge6" class="edge"><title>Node1&#45;&gt;Node7</title>
<path fill="none" stroke="midnightblue" d="M351.998,-54.7888C410.912,-44.5922 500.428,-29.0991 555.678,-19.5364"/>
<polygon fill="midnightblue" stroke="midnightblue" points="351.35,-51.3489 342.093,-56.5031 352.544,-58.2463 351.35,-51.3489"/>
</g>
</g>
</svg>
