<?xml version="1.0" encoding="UTF-8" standalone="no"?>
<!DOCTYPE svg PUBLIC "-//W3C//DTD SVG 1.1//EN"
 "http://www.w3.org/Graphics/SVG/1.1/DTD/svg11.dtd">
<!-- Generated by graphviz version 2.38.0 (20140413.2041)
 -->
<!-- Title: include/Direction.h Pages: 1 -->
<svg width="575pt" height="84pt"
 viewBox="0.00 0.00 574.50 84.00" xmlns="http://www.w3.org/2000/svg" xmlns:xlink="http://www.w3.org/1999/xlink">
<g id="graph0" class="graph" transform="scale(1 1) rotate(0) translate(4 80)">
<title>include/Direction.h</title>
<polygon fill="white" stroke="none" points="-4,4 -4,-80 570.5,-80 570.5,4 -4,4"/>
<!-- Node1 -->
<g id="node1" class="node"><title>Node1</title>
<polygon fill="#bfbfbf" stroke="black" points="220.5,-56.5 220.5,-75.5 336.5,-75.5 336.5,-56.5 220.5,-56.5"/>
<text text-anchor="middle" x="278.5" y="-63.5" font-family="Ubuntu Mono" font-size="10.00">include/Direction.h</text>
</g>
<!-- Node2 -->
<g id="node2" class="node"><title>Node2</title>
<g id="a_node2"><a xlink:href="_building_8cpp.html" target="_top" xlink:title="src/Building.cpp">
<polygon fill="white" stroke="black" points="0,-0.5 0,-19.5 101,-19.5 101,-0.5 0,-0.5"/>
<text text-anchor="middle" x="50.5" y="-7.5" font-family="Ubuntu Mono" font-size="10.00">src/Building.cpp</text>
</a>
</g>
</g>
<!-- Node1&#45;&gt;Node2 -->
<g id="edge1" class="edge"><title>Node1&#45;&gt;Node2</title>
<path fill="none" stroke="midnightblue" d="M232.429,-54.0884C189.354,-43.8865 125.914,-28.8612 86.4583,-19.5164"/>
<polygon fill="midnightblue" stroke="midnightblue" points="231.835,-57.5446 242.373,-56.4435 233.449,-50.733 231.835,-57.5446"/>
</g>
<!-- Node3 -->
<g id="node3" class="node"><title>Node3</title>
<g id="a_node3"><a xlink:href="_client_8cpp.html" target="_top" xlink:title="src/Client.cpp">
<polygon fill="white" stroke="black" points="119.5,-0.5 119.5,-19.5 209.5,-19.5 209.5,-0.5 119.5,-0.5"/>
<text text-anchor="middle" x="164.5" y="-7.5" font-family="Ubuntu Mono" font-size="10.00">src/Client.cpp</text>
</a>
</g>
</g>
<!-- Node1&#45;&gt;Node3 -->
<g id="edge2" class="edge"><title>Node1&#45;&gt;Node3</title>
<path fill="none" stroke="midnightblue" d="M251.258,-52.096C229.96,-42.0073 200.958,-28.2697 182.479,-19.5164"/>
<polygon fill="midnightblue" stroke="midnightblue" points="249.901,-55.3257 260.436,-56.4435 252.897,-48.9995 249.901,-55.3257"/>
</g>
<!-- Node4 -->
<g id="node4" class="node"><title>Node4</title>
<g id="a_node4"><a xlink:href="_elevator_8cpp.html" target="_top" xlink:title="src/Elevator.cpp">
<polygon fill="white" stroke="black" points="228,-0.5 228,-19.5 329,-19.5 329,-0.5 228,-0.5"/>
<text text-anchor="middle" x="278.5" y="-7.5" font-family="Ubuntu Mono" font-size="10.00">src/Elevator.cpp</text>
</a>
</g>
</g>
<!-- Node1&#45;&gt;Node4 -->
<g id="edge3" class="edge"><title>Node1&#45;&gt;Node4</title>
<path fill="none" stroke="midnightblue" d="M278.5,-45.8045C278.5,-36.9102 278.5,-26.7798 278.5,-19.7511"/>
<polygon fill="midnightblue" stroke="midnightblue" points="275,-46.083 278.5,-56.083 282,-46.083 275,-46.083"/>
</g>
<!-- Node5 -->
<g id="node5" class="node"><title>Node5</title>
<g id="a_node5"><a xlink:href="_floor_8cpp.html" target="_top" xlink:title="src/Floor.cpp">
<polygon fill="white" stroke="black" points="347,-0.5 347,-19.5 432,-19.5 432,-0.5 347,-0.5"/>
<text text-anchor="middle" x="389.5" y="-7.5" font-family="Ubuntu Mono" font-size="10.00">src/Floor.cpp</text>
</a>
</g>
</g>
<!-- Node1&#45;&gt;Node5 -->
<g id="edge4" class="edge"><title>Node1&#45;&gt;Node5</title>
<path fill="none" stroke="midnightblue" d="M305.505,-51.8622C326.088,-41.8492 353.845,-28.3458 371.71,-19.6545"/>
<polygon fill="midnightblue" stroke="midnightblue" points="303.795,-48.8019 296.334,-56.324 306.858,-55.0966 303.795,-48.8019"/>
</g>
<!-- Node6 -->
<g id="node6" class="node"><title>Node6</title>
<g id="a_node6"><a xlink:href="_stop_manager_8cpp.html" target="_top" xlink:title="src/StopManager.cpp">
<polygon fill="white" stroke="black" points="450.5,-0.5 450.5,-19.5 566.5,-19.5 566.5,-0.5 450.5,-0.5"/>
<text text-anchor="middle" x="508.5" y="-7.5" font-family="Ubuntu Mono" font-size="10.00">src/StopManager.cpp</text>
</a>
</g>
</g>
<!-- Node1&#45;&gt;Node6 -->
<g id="edge5" class="edge"><title>Node1&#45;&gt;Node6</title>
<path fill="none" stroke="midnightblue" d="M324.701,-54.1529C368.158,-43.95 432.341,-28.8809 472.226,-19.5164"/>
<polygon fill="midnightblue" stroke="midnightblue" points="323.879,-50.7504 314.944,-56.4435 325.479,-57.5651 323.879,-50.7504"/>
</g>
</g>
</svg>
