<?xml version="1.0" encoding="UTF-8" standalone="no"?>
<!DOCTYPE svg PUBLIC "-//W3C//DTD SVG 1.1//EN"
 "http://www.w3.org/Graphics/SVG/1.1/DTD/svg11.dtd">
<!-- Generated by graphviz version 2.38.0 (20140413.2041)
 -->
<!-- Title: include/DummyCostFunction.h Pages: 1 -->
<svg width="344pt" height="140pt"
 viewBox="0.00 0.00 343.50 140.00" xmlns="http://www.w3.org/2000/svg" xmlns:xlink="http://www.w3.org/1999/xlink">
<g id="graph0" class="graph" transform="scale(1 1) rotate(0) translate(4 136)">
<title>include/DummyCostFunction.h</title>
<polygon fill="white" stroke="none" points="-4,4 -4,-136 339.5,-136 339.5,4 -4,4"/>
<!-- Node1 -->
<g id="node1" class="node"><title>Node1</title>
<polygon fill="#bfbfbf" stroke="black" points="83,-112.5 83,-131.5 241,-131.5 241,-112.5 83,-112.5"/>
<text text-anchor="middle" x="162" y="-119.5" font-family="Ubuntu Mono" font-size="10.00">include/DummyCostFunction.h</text>
</g>
<!-- Node2 -->
<g id="node2" class="node"><title>Node2</title>
<g id="a_node2"><a xlink:href="_dummy_cost_function_8cpp.html" target="_top" xlink:title="src/DummyCostFunction.cpp">
<polygon fill="white" stroke="black" points="0,-56.5 0,-75.5 148,-75.5 148,-56.5 0,-56.5"/>
<text text-anchor="middle" x="74" y="-63.5" font-family="Ubuntu Mono" font-size="10.00">src/DummyCostFunction.cpp</text>
</a>
</g>
</g>
<!-- Node1&#45;&gt;Node2 -->
<g id="edge1" class="edge"><title>Node1&#45;&gt;Node2</title>
<path fill="none" stroke="midnightblue" d="M139.023,-106.901C122.887,-96.9986 101.819,-84.0705 88.1036,-75.6545"/>
<polygon fill="midnightblue" stroke="midnightblue" points="137.507,-110.077 147.861,-112.324 141.169,-104.111 137.507,-110.077"/>
</g>
<!-- Node3 -->
<g id="node3" class="node"><title>Node3</title>
<g id="a_node3"><a xlink:href="_cost_function_creator_8h.html" target="_top" xlink:title="include/CostFunctionCreator.h">
<polygon fill="white" stroke="black" points="166.5,-56.5 166.5,-75.5 335.5,-75.5 335.5,-56.5 166.5,-56.5"/>
<text text-anchor="middle" x="251" y="-63.5" font-family="Ubuntu Mono" font-size="10.00">include/CostFunctionCreator.h</text>
</a>
</g>
</g>
<!-- Node1&#45;&gt;Node3 -->
<g id="edge2" class="edge"><title>Node1&#45;&gt;Node3</title>
<path fill="none" stroke="midnightblue" d="M185.238,-106.901C201.558,-96.9986 222.865,-84.0705 236.736,-75.6545"/>
<polygon fill="midnightblue" stroke="midnightblue" points="183.033,-104.144 176.299,-112.324 186.664,-110.129 183.033,-104.144"/>
</g>
<!-- Node4 -->
<g id="node4" class="node"><title>Node4</title>
<g id="a_node4"><a xlink:href="_simulator_8cpp.html" target="_top" xlink:title="src/Simulator.cpp">
<polygon fill="white" stroke="black" points="198,-0.5 198,-19.5 304,-19.5 304,-0.5 198,-0.5"/>
<text text-anchor="middle" x="251" y="-7.5" font-family="Ubuntu Mono" font-size="10.00">src/Simulator.cpp</text>
</a>
</g>
</g>
<!-- Node3&#45;&gt;Node4 -->
<g id="edge3" class="edge"><title>Node3&#45;&gt;Node4</title>
<path fill="none" stroke="midnightblue" d="M251,-45.8045C251,-36.9102 251,-26.7798 251,-19.7511"/>
<polygon fill="midnightblue" stroke="midnightblue" points="247.5,-46.083 251,-56.083 254.5,-46.083 247.5,-46.083"/>
</g>
</g>
</svg>
