<?xml version="1.0" encoding="UTF-8" standalone="no"?>
<!DOCTYPE svg PUBLIC "-//W3C//DTD SVG 1.1//EN"
 "http://www.w3.org/Graphics/SVG/1.1/DTD/svg11.dtd">
<!-- Generated by graphviz version 2.38.0 (20140413.2041)
 -->
<!-- Title: src/DummyCostFunction.cpp Pages: 1 -->
<svg width="694pt" height="196pt"
 viewBox="0.00 0.00 694.00 196.00" xmlns="http://www.w3.org/2000/svg" xmlns:xlink="http://www.w3.org/1999/xlink">
<g id="graph0" class="graph" transform="scale(1 1) rotate(0) translate(4 192)">
<title>src/DummyCostFunction.cpp</title>
<polygon fill="white" stroke="none" points="-4,4 -4,-192 690,-192 690,4 -4,4"/>
<!-- Node1 -->
<g id="node1" class="node"><title>Node1</title>
<polygon fill="#bfbfbf" stroke="black" points="357,-168.5 357,-187.5 502,-187.5 502,-168.5 357,-168.5"/>
<text text-anchor="middle" x="429.5" y="-175.5" font-family="Helvetica,sans-Serif" font-size="10.00">src/DummyCostFunction.cpp</text>
</g>
<!-- Node2 -->
<g id="node2" class="node"><title>Node2</title>
<g id="a_node2"><a xlink:href="_dummy_cost_function_8h.html" target="_top" xlink:title="DummyCostFunction.h">
<polygon fill="white" stroke="black" points="553.5,-112.5 553.5,-131.5 671.5,-131.5 671.5,-112.5 553.5,-112.5"/>
<text text-anchor="middle" x="612.5" y="-119.5" font-family="Helvetica,sans-Serif" font-size="10.00">DummyCostFunction.h</text>
</a>
</g>
</g>
<!-- Node1&#45;&gt;Node2 -->
<g id="edge1" class="edge"><title>Node1&#45;&gt;Node2</title>
<path fill="none" stroke="midnightblue" d="M458.497,-168.444C489.685,-159.241 539.43,-144.562 573.908,-134.388"/>
<polygon fill="midnightblue" stroke="midnightblue" points="575.038,-137.704 583.639,-131.516 573.057,-130.99 575.038,-137.704"/>
</g>
<!-- Node5 -->
<g id="node5" class="node"><title>Node5</title>
<g id="a_node5"><a xlink:href="_building_8h.html" target="_top" xlink:title="Building.h">
<polygon fill="white" stroke="black" points="196,-112.5 196,-131.5 255,-131.5 255,-112.5 196,-112.5"/>
<text text-anchor="middle" x="225.5" y="-119.5" font-family="Helvetica,sans-Serif" font-size="10.00">Building.h</text>
</a>
</g>
</g>
<!-- Node1&#45;&gt;Node5 -->
<g id="edge4" class="edge"><title>Node1&#45;&gt;Node5</title>
<path fill="none" stroke="midnightblue" d="M397.176,-168.444C361.285,-158.943 303.35,-143.607 264.85,-133.416"/>
<polygon fill="midnightblue" stroke="midnightblue" points="265.586,-129.991 255.024,-130.815 263.795,-136.758 265.586,-129.991"/>
</g>
<!-- Node11 -->
<g id="node11" class="node"><title>Node11</title>
<g id="a_node11"><a xlink:href="_client_8h.html" target="_top" xlink:title="Client.h">
<polygon fill="white" stroke="black" points="454.5,-112.5 454.5,-131.5 504.5,-131.5 504.5,-112.5 454.5,-112.5"/>
<text text-anchor="middle" x="479.5" y="-119.5" font-family="Helvetica,sans-Serif" font-size="10.00">Client.h</text>
</a>
</g>
</g>
<!-- Node1&#45;&gt;Node11 -->
<g id="edge12" class="edge"><title>Node1&#45;&gt;Node11</title>
<path fill="none" stroke="midnightblue" d="M437.756,-168.083C444.965,-160.298 455.61,-148.801 464.346,-139.367"/>
<polygon fill="midnightblue" stroke="midnightblue" points="467.171,-141.467 471.397,-131.751 462.035,-136.711 467.171,-141.467"/>
</g>
<!-- Node13 -->
<g id="node13" class="node"><title>Node13</title>
<g id="a_node13"><a xlink:href="_elevator_8h.html" target="_top" xlink:title="Elevator.h">
<polygon fill="white" stroke="black" points="349,-112.5 349,-131.5 410,-131.5 410,-112.5 349,-112.5"/>
<text text-anchor="middle" x="379.5" y="-119.5" font-family="Helvetica,sans-Serif" font-size="10.00">Elevator.h</text>
</a>
</g>
</g>
<!-- Node1&#45;&gt;Node13 -->
<g id="edge15" class="edge"><title>Node1&#45;&gt;Node13</title>
<path fill="none" stroke="midnightblue" d="M421.244,-168.083C414.035,-160.298 403.39,-148.801 394.654,-139.367"/>
<polygon fill="midnightblue" stroke="midnightblue" points="396.965,-136.711 387.603,-131.751 391.829,-141.467 396.965,-136.711"/>
</g>
<!-- Node3 -->
<g id="node3" class="node"><title>Node3</title>
<g id="a_node3"><a xlink:href="_cost_function_8h.html" target="_top" xlink:title="CostFunction.h">
<polygon fill="white" stroke="black" points="603,-56.5 603,-75.5 686,-75.5 686,-56.5 603,-56.5"/>
<text text-anchor="middle" x="644.5" y="-63.5" font-family="Helvetica,sans-Serif" font-size="10.00">CostFunction.h</text>
</a>
</g>
</g>
<!-- Node2&#45;&gt;Node3 -->
<g id="edge2" class="edge"><title>Node2&#45;&gt;Node3</title>
<path fill="none" stroke="midnightblue" d="M617.784,-112.083C622.211,-104.613 628.663,-93.7244 634.118,-84.5199"/>
<polygon fill="midnightblue" stroke="midnightblue" points="637.227,-86.1383 639.314,-75.7511 631.205,-82.5697 637.227,-86.1383"/>
</g>
<!-- Node4 -->
<g id="node4" class="node"><title>Node4</title>
<polygon fill="white" stroke="#bfbfbf" points="353.5,-0.5 353.5,-19.5 405.5,-19.5 405.5,-0.5 353.5,-0.5"/>
<text text-anchor="middle" x="379.5" y="-7.5" font-family="Helvetica,sans-Serif" font-size="10.00">memory</text>
</g>
<!-- Node3&#45;&gt;Node4 -->
<g id="edge3" class="edge"><title>Node3&#45;&gt;Node4</title>
<path fill="none" stroke="midnightblue" d="M602.802,-56.5031C551.229,-45.9938 464.291,-28.2782 415.499,-18.3357"/>
<polygon fill="midnightblue" stroke="midnightblue" points="416.19,-14.9047 405.693,-16.3374 414.793,-21.7637 416.19,-14.9047"/>
</g>
<!-- Node5&#45;&gt;Node4 -->
<g id="edge8" class="edge"><title>Node5&#45;&gt;Node4</title>
<path fill="none" stroke="midnightblue" d="M225.602,-112.165C226.242,-98.3427 229.492,-71.5798 244.5,-56 270.411,-29.1019 312.798,-18.2794 343.165,-13.9263"/>
<polygon fill="midnightblue" stroke="midnightblue" points="343.875,-17.3646 353.359,-12.6407 342.999,-10.4196 343.875,-17.3646"/>
</g>
<!-- Node6 -->
<g id="node6" class="node"><title>Node6</title>
<g id="a_node6"><a xlink:href="_event_observer_8h.html" target="_top" xlink:title="EventObserver.h">
<polygon fill="white" stroke="black" points="59.5,-56.5 59.5,-75.5 149.5,-75.5 149.5,-56.5 59.5,-56.5"/>
<text text-anchor="middle" x="104.5" y="-63.5" font-family="Helvetica,sans-Serif" font-size="10.00">EventObserver.h</text>
</a>
</g>
</g>
<!-- Node5&#45;&gt;Node6 -->
<g id="edge5" class="edge"><title>Node5&#45;&gt;Node6</title>
<path fill="none" stroke="midnightblue" d="M206.327,-112.444C186.591,-103.636 155.615,-89.8116 133.007,-79.722"/>
<polygon fill="midnightblue" stroke="midnightblue" points="134.141,-76.3957 123.583,-75.5164 131.289,-82.788 134.141,-76.3957"/>
</g>
<!-- Node7 -->
<g id="node7" class="node"><title>Node7</title>
<polygon fill="white" stroke="#bfbfbf" points="316,-56.5 316,-75.5 351,-75.5 351,-56.5 316,-56.5"/>
<text text-anchor="middle" x="333.5" y="-63.5" font-family="Helvetica,sans-Serif" font-size="10.00">map</text>
</g>
<!-- Node5&#45;&gt;Node7 -->
<g id="edge7" class="edge"><title>Node5&#45;&gt;Node7</title>
<path fill="none" stroke="midnightblue" d="M242.852,-112.324C260.172,-103.664 287.015,-90.2424 307.002,-80.249"/>
<polygon fill="midnightblue" stroke="midnightblue" points="308.812,-83.2572 316.191,-75.6545 305.681,-76.9962 308.812,-83.2572"/>
</g>
<!-- Node8 -->
<g id="node8" class="node"><title>Node8</title>
<polygon fill="white" stroke="#bfbfbf" points="167.5,-56.5 167.5,-75.5 197.5,-75.5 197.5,-56.5 167.5,-56.5"/>
<text text-anchor="middle" x="182.5" y="-63.5" font-family="Helvetica,sans-Serif" font-size="10.00">set</text>
</g>
<!-- Node5&#45;&gt;Node8 -->
<g id="edge9" class="edge"><title>Node5&#45;&gt;Node8</title>
<path fill="none" stroke="midnightblue" d="M218.399,-112.083C212.263,-104.377 203.23,-93.0333 195.761,-83.6531"/>
<polygon fill="midnightblue" stroke="midnightblue" points="198.436,-81.3936 189.468,-75.7511 192.96,-85.7542 198.436,-81.3936"/>
</g>
<!-- Node9 -->
<g id="node9" class="node"><title>Node9</title>
<polygon fill="white" stroke="#bfbfbf" points="0,-56.5 0,-75.5 41,-75.5 41,-56.5 0,-56.5"/>
<text text-anchor="middle" x="20.5" y="-63.5" font-family="Helvetica,sans-Serif" font-size="10.00">string</text>
</g>
<!-- Node5&#45;&gt;Node9 -->
<g id="edge10" class="edge"><title>Node5&#45;&gt;Node9</title>
<path fill="none" stroke="midnightblue" d="M195.989,-113.792C163.032,-105.659 107.878,-91.8017 51.0086,-76.0561"/>
<polygon fill="midnightblue" stroke="midnightblue" points="51.6979,-72.6149 41.1255,-73.3051 49.8207,-79.3586 51.6979,-72.6149"/>
</g>
<!-- Node10 -->
<g id="node10" class="node"><title>Node10</title>
<polygon fill="white" stroke="#bfbfbf" points="253.5,-56.5 253.5,-75.5 297.5,-75.5 297.5,-56.5 253.5,-56.5"/>
<text text-anchor="middle" x="275.5" y="-63.5" font-family="Helvetica,sans-Serif" font-size="10.00">vector</text>
</g>
<!-- Node5&#45;&gt;Node10 -->
<g id="edge11" class="edge"><title>Node5&#45;&gt;Node10</title>
<path fill="none" stroke="midnightblue" d="M233.756,-112.083C240.965,-104.298 251.61,-92.8015 260.346,-83.3665"/>
<polygon fill="midnightblue" stroke="midnightblue" points="263.171,-85.4666 267.397,-75.7511 258.035,-80.7108 263.171,-85.4666"/>
</g>
<!-- Node6&#45;&gt;Node4 -->
<g id="edge6" class="edge"><title>Node6&#45;&gt;Node4</title>
<path fill="none" stroke="midnightblue" d="M148.075,-56.4435C201.945,-45.8653 292.661,-28.052 343.027,-18.1619"/>
<polygon fill="midnightblue" stroke="midnightblue" points="343.997,-21.5385 353.135,-16.1772 342.648,-14.6697 343.997,-21.5385"/>
</g>
<!-- Node11&#45;&gt;Node4 -->
<g id="edge14" class="edge"><title>Node11&#45;&gt;Node4</title>
<path fill="none" stroke="midnightblue" d="M478.879,-112.481C477.501,-99.093 473.134,-72.9135 459.5,-56 447.905,-41.6163 430.404,-31.0313 414.725,-23.7543"/>
<polygon fill="midnightblue" stroke="midnightblue" points="415.834,-20.42 405.267,-19.6465 413.045,-26.8405 415.834,-20.42"/>
</g>
<!-- Node12 -->
<g id="node12" class="node"><title>Node12</title>
<polygon fill="white" stroke="#bfbfbf" points="508,-56.5 508,-75.5 585,-75.5 585,-56.5 508,-56.5"/>
<text text-anchor="middle" x="546.5" y="-63.5" font-family="Helvetica,sans-Serif" font-size="10.00">glog/logging.h</text>
</g>
<!-- Node11&#45;&gt;Node12 -->
<g id="edge13" class="edge"><title>Node11&#45;&gt;Node12</title>
<path fill="none" stroke="midnightblue" d="M490.265,-112.324C500.266,-104.263 515.387,-92.0765 527.43,-82.3695"/>
<polygon fill="midnightblue" stroke="midnightblue" points="529.95,-84.8343 535.539,-75.8339 525.557,-79.3841 529.95,-84.8343"/>
</g>
<!-- Node13&#45;&gt;Node4 -->
<g id="edge17" class="edge"><title>Node13&#45;&gt;Node4</title>
<path fill="none" stroke="midnightblue" d="M379.5,-112.368C379.5,-94.617 379.5,-53.6664 379.5,-29.5974"/>
<polygon fill="midnightblue" stroke="midnightblue" points="383,-29.5914 379.5,-19.5914 376,-29.5915 383,-29.5914"/>
</g>
<!-- Node13&#45;&gt;Node7 -->
<g id="edge16" class="edge"><title>Node13&#45;&gt;Node7</title>
<path fill="none" stroke="midnightblue" d="M371.904,-112.083C365.273,-104.298 355.479,-92.8015 347.442,-83.3665"/>
<polygon fill="midnightblue" stroke="midnightblue" points="350.104,-81.0939 340.955,-75.7511 344.775,-85.6332 350.104,-81.0939"/>
</g>
<!-- Node13&#45;&gt;Node10 -->
<g id="edge19" class="edge"><title>Node13&#45;&gt;Node10</title>
<path fill="none" stroke="midnightblue" d="M362.791,-112.324C346.188,-103.703 320.498,-90.3643 301.28,-80.3855"/>
<polygon fill="midnightblue" stroke="midnightblue" points="302.656,-77.1565 292.168,-75.6545 299.43,-83.3689 302.656,-77.1565"/>
</g>
<!-- Node14 -->
<g id="node14" class="node"><title>Node14</title>
<polygon fill="white" stroke="#bfbfbf" points="408,-56.5 408,-75.5 451,-75.5 451,-56.5 408,-56.5"/>
<text text-anchor="middle" x="429.5" y="-63.5" font-family="Helvetica,sans-Serif" font-size="10.00">queue</text>
</g>
<!-- Node13&#45;&gt;Node14 -->
<g id="edge18" class="edge"><title>Node13&#45;&gt;Node14</title>
<path fill="none" stroke="midnightblue" d="M387.756,-112.083C394.965,-104.298 405.61,-92.8015 414.346,-83.3665"/>
<polygon fill="midnightblue" stroke="midnightblue" points="417.171,-85.4666 421.397,-75.7511 412.035,-80.7108 417.171,-85.4666"/>
</g>
</g>
</svg>
