<?xml version="1.0" encoding="UTF-8" standalone="no"?>
<!DOCTYPE svg PUBLIC "-//W3C//DTD SVG 1.1//EN"
 "http://www.w3.org/Graphics/SVG/1.1/DTD/svg11.dtd">
<!-- Generated by graphviz version 2.38.0 (20140413.2041)
 -->
<!-- Title: src/DummyCostFunction.cpp Pages: 1 -->
<svg width="728pt" height="196pt"
 viewBox="0.00 0.00 728.00 196.00" xmlns="http://www.w3.org/2000/svg" xmlns:xlink="http://www.w3.org/1999/xlink">
<g id="graph0" class="graph" transform="scale(1 1) rotate(0) translate(4 192)">
<title>src/DummyCostFunction.cpp</title>
<polygon fill="white" stroke="none" points="-4,4 -4,-192 724,-192 724,4 -4,4"/>
<!-- Node1 -->
<g id="node1" class="node"><title>Node1</title>
<polygon fill="#bfbfbf" stroke="black" points="370,-168.5 370,-187.5 518,-187.5 518,-168.5 370,-168.5"/>
<text text-anchor="middle" x="444" y="-175.5" font-family="Ubuntu Mono" font-size="10.00">src/DummyCostFunction.cpp</text>
</g>
<!-- Node2 -->
<g id="node2" class="node"><title>Node2</title>
<g id="a_node2"><a xlink:href="_dummy_cost_function_8h.html" target="_top" xlink:title="DummyCostFunction.h">
<polygon fill="white" stroke="black" points="579,-112.5 579,-131.5 695,-131.5 695,-112.5 579,-112.5"/>
<text text-anchor="middle" x="637" y="-119.5" font-family="Ubuntu Mono" font-size="10.00">DummyCostFunction.h</text>
</a>
</g>
</g>
<!-- Node1&#45;&gt;Node2 -->
<g id="edge1" class="edge"><title>Node1&#45;&gt;Node2</title>
<path fill="none" stroke="midnightblue" d="M474.581,-168.444C507.615,-159.201 560.388,-144.436 596.766,-134.257"/>
<polygon fill="midnightblue" stroke="midnightblue" points="597.875,-137.582 606.562,-131.516 595.988,-130.84 597.875,-137.582"/>
</g>
<!-- Node5 -->
<g id="node5" class="node"><title>Node5</title>
<g id="a_node5"><a xlink:href="_building_8h.html" target="_top" xlink:title="Building.h">
<polygon fill="white" stroke="black" points="205.5,-112.5 205.5,-131.5 274.5,-131.5 274.5,-112.5 205.5,-112.5"/>
<text text-anchor="middle" x="240" y="-119.5" font-family="Ubuntu Mono" font-size="10.00">Building.h</text>
</a>
</g>
</g>
<!-- Node1&#45;&gt;Node5 -->
<g id="edge4" class="edge"><title>Node1&#45;&gt;Node5</title>
<path fill="none" stroke="midnightblue" d="M411.676,-168.444C376.611,-159.162 320.502,-144.309 282.035,-134.127"/>
<polygon fill="midnightblue" stroke="midnightblue" points="282.736,-130.692 272.173,-131.516 280.945,-137.459 282.736,-130.692"/>
</g>
<!-- Node11 -->
<g id="node11" class="node"><title>Node11</title>
<g id="a_node11"><a xlink:href="_client_8h.html" target="_top" xlink:title="Client.h">
<polygon fill="white" stroke="black" points="464.5,-112.5 464.5,-131.5 523.5,-131.5 523.5,-112.5 464.5,-112.5"/>
<text text-anchor="middle" x="494" y="-119.5" font-family="Ubuntu Mono" font-size="10.00">Client.h</text>
</a>
</g>
</g>
<!-- Node1&#45;&gt;Node11 -->
<g id="edge12" class="edge"><title>Node1&#45;&gt;Node11</title>
<path fill="none" stroke="midnightblue" d="M452.256,-168.083C459.465,-160.298 470.11,-148.801 478.846,-139.367"/>
<polygon fill="midnightblue" stroke="midnightblue" points="481.671,-141.467 485.897,-131.751 476.535,-136.711 481.671,-141.467"/>
</g>
<!-- Node13 -->
<g id="node13" class="node"><title>Node13</title>
<g id="a_node13"><a xlink:href="_elevator_8h.html" target="_top" xlink:title="Elevator.h">
<polygon fill="white" stroke="black" points="359.5,-112.5 359.5,-131.5 428.5,-131.5 428.5,-112.5 359.5,-112.5"/>
<text text-anchor="middle" x="394" y="-119.5" font-family="Ubuntu Mono" font-size="10.00">Elevator.h</text>
</a>
</g>
</g>
<!-- Node1&#45;&gt;Node13 -->
<g id="edge15" class="edge"><title>Node1&#45;&gt;Node13</title>
<path fill="none" stroke="midnightblue" d="M435.744,-168.083C428.535,-160.298 417.89,-148.801 409.154,-139.367"/>
<polygon fill="midnightblue" stroke="midnightblue" points="411.465,-136.711 402.103,-131.751 406.329,-141.467 411.465,-136.711"/>
</g>
<!-- Node3 -->
<g id="node3" class="node"><title>Node3</title>
<g id="a_node3"><a xlink:href="_cost_function_8h.html" target="_top" xlink:title="CostFunction.h">
<polygon fill="white" stroke="black" points="630,-56.5 630,-75.5 720,-75.5 720,-56.5 630,-56.5"/>
<text text-anchor="middle" x="675" y="-63.5" font-family="Ubuntu Mono" font-size="10.00">CostFunction.h</text>
</a>
</g>
</g>
<!-- Node2&#45;&gt;Node3 -->
<g id="edge2" class="edge"><title>Node2&#45;&gt;Node3</title>
<path fill="none" stroke="midnightblue" d="M643.275,-112.083C648.642,-104.455 656.518,-93.2645 663.079,-83.9408"/>
<polygon fill="midnightblue" stroke="midnightblue" points="665.949,-85.9434 668.842,-75.7511 660.225,-81.9149 665.949,-85.9434"/>
</g>
<!-- Node4 -->
<g id="node4" class="node"><title>Node4</title>
<polygon fill="white" stroke="#bfbfbf" points="370,-0.5 370,-19.5 418,-19.5 418,-0.5 370,-0.5"/>
<text text-anchor="middle" x="394" y="-7.5" font-family="Ubuntu Mono" font-size="10.00">memory</text>
</g>
<!-- Node3&#45;&gt;Node4 -->
<g id="edge3" class="edge"><title>Node3&#45;&gt;Node4</title>
<path fill="none" stroke="midnightblue" d="M630.475,-56.4435C574.3,-45.6484 478.917,-27.3185 428.155,-17.5637"/>
<polygon fill="midnightblue" stroke="midnightblue" points="428.808,-14.1251 418.327,-15.6749 427.487,-20.9993 428.808,-14.1251"/>
</g>
<!-- Node5&#45;&gt;Node4 -->
<g id="edge8" class="edge"><title>Node5&#45;&gt;Node4</title>
<path fill="none" stroke="midnightblue" d="M240.102,-112.165C240.742,-98.3427 243.992,-71.5798 259,-56 285.525,-28.4653 329.314,-17.7761 359.801,-13.628"/>
<polygon fill="midnightblue" stroke="midnightblue" points="360.464,-17.0739 369.98,-12.4166 359.636,-10.123 360.464,-17.0739"/>
</g>
<!-- Node6 -->
<g id="node6" class="node"><title>Node6</title>
<g id="a_node6"><a xlink:href="_event_observer_8h.html" target="_top" xlink:title="EventObserver.h">
<polygon fill="white" stroke="black" points="66.5,-56.5 66.5,-75.5 161.5,-75.5 161.5,-56.5 66.5,-56.5"/>
<text text-anchor="middle" x="114" y="-63.5" font-family="Ubuntu Mono" font-size="10.00">EventObserver.h</text>
</a>
</g>
</g>
<!-- Node5&#45;&gt;Node6 -->
<g id="edge5" class="edge"><title>Node5&#45;&gt;Node6</title>
<path fill="none" stroke="midnightblue" d="M220.035,-112.444C199.391,-103.596 166.937,-89.6875 143.368,-79.5865"/>
<polygon fill="midnightblue" stroke="midnightblue" points="144.442,-76.2387 133.872,-75.5164 141.684,-82.6727 144.442,-76.2387"/>
</g>
<!-- Node7 -->
<g id="node7" class="node"><title>Node7</title>
<polygon fill="white" stroke="#bfbfbf" points="334,-56.5 334,-75.5 366,-75.5 366,-56.5 334,-56.5"/>
<text text-anchor="middle" x="350" y="-63.5" font-family="Ubuntu Mono" font-size="10.00">map</text>
</g>
<!-- Node5&#45;&gt;Node7 -->
<g id="edge7" class="edge"><title>Node5&#45;&gt;Node7</title>
<path fill="none" stroke="midnightblue" d="M257.673,-112.324C275.814,-103.419 304.211,-89.4783 324.724,-79.4084"/>
<polygon fill="midnightblue" stroke="midnightblue" points="326.37,-82.4993 333.804,-74.9507 323.285,-76.2156 326.37,-82.4993"/>
</g>
<!-- Node8 -->
<g id="node8" class="node"><title>Node8</title>
<polygon fill="white" stroke="#bfbfbf" points="180,-56.5 180,-75.5 212,-75.5 212,-56.5 180,-56.5"/>
<text text-anchor="middle" x="196" y="-63.5" font-family="Ubuntu Mono" font-size="10.00">set</text>
</g>
<!-- Node5&#45;&gt;Node8 -->
<g id="edge9" class="edge"><title>Node5&#45;&gt;Node8</title>
<path fill="none" stroke="midnightblue" d="M232.734,-112.083C226.455,-104.377 217.212,-93.0333 209.569,-83.6531"/>
<polygon fill="midnightblue" stroke="midnightblue" points="212.161,-81.2926 203.131,-75.7511 206.734,-85.7143 212.161,-81.2926"/>
</g>
<!-- Node9 -->
<g id="node9" class="node"><title>Node9</title>
<polygon fill="white" stroke="#bfbfbf" points="0,-56.5 0,-75.5 48,-75.5 48,-56.5 0,-56.5"/>
<text text-anchor="middle" x="24" y="-63.5" font-family="Ubuntu Mono" font-size="10.00">string</text>
</g>
<!-- Node5&#45;&gt;Node9 -->
<g id="edge10" class="edge"><title>Node5&#45;&gt;Node9</title>
<path fill="none" stroke="midnightblue" d="M205.193,-112.716C170.345,-104.362 114.943,-90.9159 58.0223,-76.2191"/>
<polygon fill="midnightblue" stroke="midnightblue" points="58.6901,-72.7766 48.1319,-73.6566 56.9344,-79.5529 58.6901,-72.7766"/>
</g>
<!-- Node10 -->
<g id="node10" class="node"><title>Node10</title>
<polygon fill="white" stroke="#bfbfbf" points="268,-56.5 268,-75.5 316,-75.5 316,-56.5 268,-56.5"/>
<text text-anchor="middle" x="292" y="-63.5" font-family="Ubuntu Mono" font-size="10.00">vector</text>
</g>
<!-- Node5&#45;&gt;Node10 -->
<g id="edge11" class="edge"><title>Node5&#45;&gt;Node10</title>
<path fill="none" stroke="midnightblue" d="M248.587,-112.083C256.159,-104.22 267.378,-92.5688 276.514,-83.0813"/>
<polygon fill="midnightblue" stroke="midnightblue" points="279.158,-85.3821 283.573,-75.7511 274.115,-80.5266 279.158,-85.3821"/>
</g>
<!-- Node6&#45;&gt;Node4 -->
<g id="edge6" class="edge"><title>Node6&#45;&gt;Node4</title>
<path fill="none" stroke="midnightblue" d="M158.367,-56.4435C214.225,-45.6709 308.989,-27.395 359.649,-17.6249"/>
<polygon fill="midnightblue" stroke="midnightblue" points="360.603,-21.0054 369.76,-15.6749 359.278,-14.132 360.603,-21.0054"/>
</g>
<!-- Node11&#45;&gt;Node4 -->
<g id="edge14" class="edge"><title>Node11&#45;&gt;Node4</title>
<path fill="none" stroke="midnightblue" d="M493.379,-112.481C492.001,-99.093 487.634,-72.9135 474,-56 462.074,-41.2054 443.9,-30.4295 427.886,-23.1387"/>
<polygon fill="midnightblue" stroke="midnightblue" points="428.841,-19.7415 418.27,-19.0447 426.099,-26.1822 428.841,-19.7415"/>
</g>
<!-- Node12 -->
<g id="node12" class="node"><title>Node12</title>
<polygon fill="white" stroke="#bfbfbf" points="522,-56.5 522,-75.5 612,-75.5 612,-56.5 522,-56.5"/>
<text text-anchor="middle" x="567" y="-63.5" font-family="Ubuntu Mono" font-size="10.00">glog/logging.h</text>
</g>
<!-- Node11&#45;&gt;Node12 -->
<g id="edge13" class="edge"><title>Node11&#45;&gt;Node12</title>
<path fill="none" stroke="midnightblue" d="M505.729,-112.324C516.837,-104.107 533.742,-91.6017 546.983,-81.8069"/>
<polygon fill="midnightblue" stroke="midnightblue" points="549.1,-84.5948 555.058,-75.8339 544.937,-78.9671 549.1,-84.5948"/>
</g>
<!-- Node13&#45;&gt;Node4 -->
<g id="edge17" class="edge"><title>Node13&#45;&gt;Node4</title>
<path fill="none" stroke="midnightblue" d="M394,-112.368C394,-94.617 394,-53.6664 394,-29.5974"/>
<polygon fill="midnightblue" stroke="midnightblue" points="397.5,-29.5914 394,-19.5914 390.5,-29.5915 397.5,-29.5914"/>
</g>
<!-- Node13&#45;&gt;Node7 -->
<g id="edge16" class="edge"><title>Node13&#45;&gt;Node7</title>
<path fill="none" stroke="midnightblue" d="M386.734,-112.083C380.455,-104.377 371.212,-93.0333 363.569,-83.6531"/>
<polygon fill="midnightblue" stroke="midnightblue" points="366.161,-81.2926 357.131,-75.7511 360.734,-85.7143 366.161,-81.2926"/>
</g>
<!-- Node13&#45;&gt;Node10 -->
<g id="edge19" class="edge"><title>Node13&#45;&gt;Node10</title>
<path fill="none" stroke="midnightblue" d="M377.612,-112.324C361.329,-103.703 336.133,-90.3643 317.284,-80.3855"/>
<polygon fill="midnightblue" stroke="midnightblue" points="318.823,-77.2402 308.347,-75.6545 315.548,-83.4267 318.823,-77.2402"/>
</g>
<!-- Node14 -->
<g id="node14" class="node"><title>Node14</title>
<polygon fill="white" stroke="#bfbfbf" points="422.5,-56.5 422.5,-75.5 465.5,-75.5 465.5,-56.5 422.5,-56.5"/>
<text text-anchor="middle" x="444" y="-63.5" font-family="Ubuntu Mono" font-size="10.00">queue</text>
</g>
<!-- Node13&#45;&gt;Node14 -->
<g id="edge18" class="edge"><title>Node13&#45;&gt;Node14</title>
<path fill="none" stroke="midnightblue" d="M402.256,-112.083C409.465,-104.298 420.11,-92.8015 428.846,-83.3665"/>
<polygon fill="midnightblue" stroke="midnightblue" points="431.671,-85.4666 435.897,-75.7511 426.535,-80.7108 431.671,-85.4666"/>
</g>
</g>
</svg>
