<?xml version="1.0" encoding="UTF-8" standalone="no"?>
<!DOCTYPE svg PUBLIC "-//W3C//DTD SVG 1.1//EN"
 "http://www.w3.org/Graphics/SVG/1.1/DTD/svg11.dtd">
<!-- Generated by graphviz version 2.38.0 (20140413.2041)
 -->
<!-- Title: src/Elevator.cpp Pages: 1 -->
<svg width="808pt" height="196pt"
 viewBox="0.00 0.00 808.00 196.00" xmlns="http://www.w3.org/2000/svg" xmlns:xlink="http://www.w3.org/1999/xlink">
<g id="graph0" class="graph" transform="scale(1 1) rotate(0) translate(4 192)">
<title>src/Elevator.cpp</title>
<polygon fill="white" stroke="none" points="-4,4 -4,-192 804,-192 804,4 -4,4"/>
<!-- Node1 -->
<g id="node1" class="node"><title>Node1</title>
<polygon fill="#bfbfbf" stroke="black" points="421.5,-168.5 421.5,-187.5 522.5,-187.5 522.5,-168.5 421.5,-168.5"/>
<text text-anchor="middle" x="472" y="-175.5" font-family="Ubuntu Mono" font-size="10.00">src/Elevator.cpp</text>
</g>
<!-- Node2 -->
<g id="node2" class="node"><title>Node2</title>
<g id="a_node2"><a xlink:href="_elevator_8h.html" target="_top" xlink:title="Elevator.h">
<polygon fill="white" stroke="black" points="101.5,-112.5 101.5,-131.5 170.5,-131.5 170.5,-112.5 101.5,-112.5"/>
<text text-anchor="middle" x="136" y="-119.5" font-family="Ubuntu Mono" font-size="10.00">Elevator.h</text>
</a>
</g>
</g>
<!-- Node1&#45;&gt;Node2 -->
<g id="edge1" class="edge"><title>Node1&#45;&gt;Node2</title>
<path fill="none" stroke="midnightblue" d="M421.316,-169.37C364.105,-160.678 268.276,-145.876 186,-132 184.296,-131.713 182.56,-131.416 180.806,-131.115"/>
<polygon fill="midnightblue" stroke="midnightblue" points="181.134,-127.619 170.681,-129.345 179.929,-134.514 181.134,-127.619"/>
</g>
<!-- Node4 -->
<g id="node4" class="node"><title>Node4</title>
<polygon fill="white" stroke="#bfbfbf" points="278,-56.5 278,-75.5 326,-75.5 326,-56.5 278,-56.5"/>
<text text-anchor="middle" x="302" y="-63.5" font-family="Ubuntu Mono" font-size="10.00">memory</text>
</g>
<!-- Node1&#45;&gt;Node4 -->
<g id="edge31" class="edge"><title>Node1&#45;&gt;Node4</title>
<path fill="none" stroke="midnightblue" d="M421.231,-176.428C385.419,-173.169 339.161,-162.679 312,-132 301.012,-119.588 299.271,-100.348 299.822,-86.0166"/>
<polygon fill="midnightblue" stroke="midnightblue" points="303.331,-86.043 300.623,-75.7999 296.352,-85.4957 303.331,-86.043"/>
</g>
<!-- Node7 -->
<g id="node7" class="node"><title>Node7</title>
<g id="a_node7"><a xlink:href="_client_8h.html" target="_top" xlink:title="Client.h">
<polygon fill="white" stroke="black" points="413.5,-112.5 413.5,-131.5 472.5,-131.5 472.5,-112.5 413.5,-112.5"/>
<text text-anchor="middle" x="443" y="-119.5" font-family="Ubuntu Mono" font-size="10.00">Client.h</text>
</a>
</g>
</g>
<!-- Node1&#45;&gt;Node7 -->
<g id="edge6" class="edge"><title>Node1&#45;&gt;Node7</title>
<path fill="none" stroke="midnightblue" d="M467.211,-168.083C463.242,-160.691 457.475,-149.953 452.565,-140.811"/>
<polygon fill="midnightblue" stroke="midnightblue" points="455.514,-138.905 447.7,-131.751 449.347,-142.217 455.514,-138.905"/>
</g>
<!-- Node8 -->
<g id="node8" class="node"><title>Node8</title>
<polygon fill="white" stroke="#bfbfbf" points="410,-56.5 410,-75.5 500,-75.5 500,-56.5 410,-56.5"/>
<text text-anchor="middle" x="455" y="-63.5" font-family="Ubuntu Mono" font-size="10.00">glog/logging.h</text>
</g>
<!-- Node1&#45;&gt;Node8 -->
<g id="edge30" class="edge"><title>Node1&#45;&gt;Node8</title>
<path fill="none" stroke="midnightblue" d="M475.313,-168.452C479.704,-155.895 486.311,-131.807 481,-112 478.346,-102.103 472.931,-92.1315 467.726,-84.099"/>
<polygon fill="midnightblue" stroke="midnightblue" points="470.464,-81.9055 461.89,-75.6811 464.711,-85.8935 470.464,-81.9055"/>
</g>
<!-- Node9 -->
<g id="node9" class="node"><title>Node9</title>
<g id="a_node9"><a xlink:href="_direction_8h.html" target="_top" xlink:title="Direction.h">
<polygon fill="white" stroke="black" points="726,-56.5 726,-75.5 800,-75.5 800,-56.5 726,-56.5"/>
<text text-anchor="middle" x="763" y="-63.5" font-family="Ubuntu Mono" font-size="10.00">Direction.h</text>
</a>
</g>
</g>
<!-- Node1&#45;&gt;Node9 -->
<g id="edge9" class="edge"><title>Node1&#45;&gt;Node9</title>
<path fill="none" stroke="midnightblue" d="M504.982,-168.427C535.462,-160.179 581.82,-146.805 621,-132 643.198,-123.612 701.429,-96.3054 736.039,-79.8734"/>
<polygon fill="midnightblue" stroke="midnightblue" points="737.597,-83.0078 745.124,-75.5518 734.591,-76.6865 737.597,-83.0078"/>
</g>
<!-- Node12 -->
<g id="node12" class="node"><title>Node12</title>
<g id="a_node12"><a xlink:href="_event_8h.html" target="_top" xlink:title="Event.h">
<polygon fill="white" stroke="black" points="529.5,-112.5 529.5,-131.5 582.5,-131.5 582.5,-112.5 529.5,-112.5"/>
<text text-anchor="middle" x="556" y="-119.5" font-family="Ubuntu Mono" font-size="10.00">Event.h</text>
</a>
</g>
</g>
<!-- Node1&#45;&gt;Node12 -->
<g id="edge12" class="edge"><title>Node1&#45;&gt;Node12</title>
<path fill="none" stroke="midnightblue" d="M485.496,-168.324C498.6,-159.9 518.712,-146.971 534.107,-137.074"/>
<polygon fill="midnightblue" stroke="midnightblue" points="536.018,-140.006 542.537,-131.655 532.233,-134.118 536.018,-140.006"/>
</g>
<!-- Node14 -->
<g id="node14" class="node"><title>Node14</title>
<g id="a_node14"><a xlink:href="_scenario_8h.html" target="_top" xlink:title="Scenario.h">
<polygon fill="white" stroke="black" points="195.5,-112.5 195.5,-131.5 264.5,-131.5 264.5,-112.5 195.5,-112.5"/>
<text text-anchor="middle" x="230" y="-119.5" font-family="Ubuntu Mono" font-size="10.00">Scenario.h</text>
</a>
</g>
</g>
<!-- Node1&#45;&gt;Node14 -->
<g id="edge17" class="edge"><title>Node1&#45;&gt;Node14</title>
<path fill="none" stroke="midnightblue" d="M433.654,-168.444C390.411,-158.794 320.19,-143.125 274.549,-132.941"/>
<polygon fill="midnightblue" stroke="midnightblue" points="275.16,-129.491 264.638,-130.729 273.635,-136.323 275.16,-129.491"/>
</g>
<!-- Node16 -->
<g id="node16" class="node"><title>Node16</title>
<g id="a_node16"><a xlink:href="_simulator_8h.html" target="_top" xlink:title="Simulator.h">
<polygon fill="white" stroke="black" points="321,-112.5 321,-131.5 395,-131.5 395,-112.5 321,-112.5"/>
<text text-anchor="middle" x="358" y="-119.5" font-family="Ubuntu Mono" font-size="10.00">Simulator.h</text>
</a>
</g>
</g>
<!-- Node1&#45;&gt;Node16 -->
<g id="edge22" class="edge"><title>Node1&#45;&gt;Node16</title>
<path fill="none" stroke="midnightblue" d="M453.936,-168.444C435.425,-159.675 406.419,-145.935 385.145,-135.858"/>
<polygon fill="midnightblue" stroke="midnightblue" points="386.515,-132.634 375.979,-131.516 383.518,-138.96 386.515,-132.634"/>
</g>
<!-- Node18 -->
<g id="node18" class="node"><title>Node18</title>
<g id="a_node18"><a xlink:href="_status_8h.html" target="_top" xlink:title="Status.h">
<polygon fill="white" stroke="black" points="648.5,-56.5 648.5,-75.5 707.5,-75.5 707.5,-56.5 648.5,-56.5"/>
<text text-anchor="middle" x="678" y="-63.5" font-family="Ubuntu Mono" font-size="10.00">Status.h</text>
</a>
</g>
</g>
<!-- Node1&#45;&gt;Node18 -->
<g id="edge26" class="edge"><title>Node1&#45;&gt;Node18</title>
<path fill="none" stroke="midnightblue" d="M501.369,-168.437C526.087,-160.642 561.95,-147.93 591,-132 616.903,-117.795 643.689,-96.6288 660.574,-82.3438"/>
<polygon fill="midnightblue" stroke="midnightblue" points="663.145,-84.7489 668.444,-75.5743 658.58,-79.4421 663.145,-84.7489"/>
</g>
<!-- Node19 -->
<g id="node19" class="node"><title>Node19</title>
<polygon fill="white" stroke="#bfbfbf" points="677,-112.5 677,-131.5 741,-131.5 741,-112.5 677,-112.5"/>
<text text-anchor="middle" x="709" y="-119.5" font-family="Ubuntu Mono" font-size="10.00">algorithm</text>
</g>
<!-- Node1&#45;&gt;Node19 -->
<g id="edge29" class="edge"><title>Node1&#45;&gt;Node19</title>
<path fill="none" stroke="midnightblue" d="M509.553,-168.444C552.419,-158.677 622.355,-142.742 666.996,-132.571"/>
<polygon fill="midnightblue" stroke="midnightblue" points="667.97,-135.938 676.943,-130.304 666.415,-129.113 667.97,-135.938"/>
</g>
<!-- Node3 -->
<g id="node3" class="node"><title>Node3</title>
<polygon fill="white" stroke="#bfbfbf" points="0,-56.5 0,-75.5 32,-75.5 32,-56.5 0,-56.5"/>
<text text-anchor="middle" x="16" y="-63.5" font-family="Ubuntu Mono" font-size="10.00">map</text>
</g>
<!-- Node2&#45;&gt;Node3 -->
<g id="edge2" class="edge"><title>Node2&#45;&gt;Node3</title>
<path fill="none" stroke="midnightblue" d="M116.986,-112.444C96.6065,-103.273 64.1436,-88.6646 41.5449,-78.4952"/>
<polygon fill="midnightblue" stroke="midnightblue" points="42.787,-75.2162 32.2315,-74.3042 39.9144,-81.5996 42.787,-75.2162"/>
</g>
<!-- Node2&#45;&gt;Node4 -->
<g id="edge3" class="edge"><title>Node2&#45;&gt;Node4</title>
<path fill="none" stroke="midnightblue" d="M162.303,-112.444C191.011,-103.105 237.052,-88.1276 268.367,-77.9409"/>
<polygon fill="midnightblue" stroke="midnightblue" points="269.549,-81.2369 277.976,-74.8151 267.384,-74.5803 269.549,-81.2369"/>
</g>
<!-- Node5 -->
<g id="node5" class="node"><title>Node5</title>
<polygon fill="white" stroke="#bfbfbf" points="50.5,-56.5 50.5,-75.5 93.5,-75.5 93.5,-56.5 50.5,-56.5"/>
<text text-anchor="middle" x="72" y="-63.5" font-family="Ubuntu Mono" font-size="10.00">queue</text>
</g>
<!-- Node2&#45;&gt;Node5 -->
<g id="edge4" class="edge"><title>Node2&#45;&gt;Node5</title>
<path fill="none" stroke="midnightblue" d="M125.717,-112.324C116.164,-104.263 101.72,-92.0765 90.2157,-82.3695"/>
<polygon fill="midnightblue" stroke="midnightblue" points="92.3698,-79.6076 82.4698,-75.8339 87.8557,-84.9577 92.3698,-79.6076"/>
</g>
<!-- Node6 -->
<g id="node6" class="node"><title>Node6</title>
<polygon fill="white" stroke="#bfbfbf" points="112,-56.5 112,-75.5 160,-75.5 160,-56.5 112,-56.5"/>
<text text-anchor="middle" x="136" y="-63.5" font-family="Ubuntu Mono" font-size="10.00">vector</text>
</g>
<!-- Node2&#45;&gt;Node6 -->
<g id="edge5" class="edge"><title>Node2&#45;&gt;Node6</title>
<path fill="none" stroke="midnightblue" d="M136,-112.083C136,-105.006 136,-94.8611 136,-85.9865"/>
<polygon fill="midnightblue" stroke="midnightblue" points="139.5,-85.751 136,-75.7511 132.5,-85.7511 139.5,-85.751"/>
</g>
<!-- Node7&#45;&gt;Node4 -->
<g id="edge8" class="edge"><title>Node7&#45;&gt;Node4</title>
<path fill="none" stroke="midnightblue" d="M420.658,-112.444C397.247,-103.478 360.264,-89.314 333.81,-79.1827"/>
<polygon fill="midnightblue" stroke="midnightblue" points="334.828,-75.8245 324.237,-75.5164 332.324,-82.3615 334.828,-75.8245"/>
</g>
<!-- Node7&#45;&gt;Node8 -->
<g id="edge7" class="edge"><title>Node7&#45;&gt;Node8</title>
<path fill="none" stroke="midnightblue" d="M444.982,-112.083C446.572,-104.927 448.859,-94.6353 450.846,-85.6911"/>
<polygon fill="midnightblue" stroke="midnightblue" points="454.303,-86.2722 453.055,-75.7511 447.469,-84.7537 454.303,-86.2722"/>
</g>
<!-- Node10 -->
<g id="node10" class="node"><title>Node10</title>
<polygon fill="white" stroke="#bfbfbf" points="646,-0.5 646,-19.5 710,-19.5 710,-0.5 646,-0.5"/>
<text text-anchor="middle" x="678" y="-7.5" font-family="Ubuntu Mono" font-size="10.00">stdexcept</text>
</g>
<!-- Node9&#45;&gt;Node10 -->
<g id="edge10" class="edge"><title>Node9&#45;&gt;Node10</title>
<path fill="none" stroke="midnightblue" d="M749.343,-56.324C736.084,-47.9002 715.732,-34.9709 700.154,-25.0741"/>
<polygon fill="midnightblue" stroke="midnightblue" points="701.94,-22.0626 691.623,-19.6545 698.187,-27.9711 701.94,-22.0626"/>
</g>
<!-- Node11 -->
<g id="node11" class="node"><title>Node11</title>
<polygon fill="white" stroke="#bfbfbf" points="569,-0.5 569,-19.5 617,-19.5 617,-0.5 569,-0.5"/>
<text text-anchor="middle" x="593" y="-7.5" font-family="Ubuntu Mono" font-size="10.00">string</text>
</g>
<!-- Node9&#45;&gt;Node11 -->
<g id="edge11" class="edge"><title>Node9&#45;&gt;Node11</title>
<path fill="none" stroke="midnightblue" d="M736.063,-56.4435C706.495,-47.0513 658.97,-31.9553 626.892,-21.7658"/>
<polygon fill="midnightblue" stroke="midnightblue" points="627.653,-18.335 617.062,-18.6433 625.533,-25.0066 627.653,-18.335"/>
</g>
<!-- Node12&#45;&gt;Node11 -->
<g id="edge16" class="edge"><title>Node12&#45;&gt;Node11</title>
<path fill="none" stroke="midnightblue" d="M551.989,-112.213C546.728,-99.358 539.049,-74.9019 547,-56 552.026,-44.0528 561.944,-33.6922 571.287,-25.9339"/>
<polygon fill="midnightblue" stroke="midnightblue" points="573.439,-28.6944 579.213,-19.8113 569.16,-23.1547 573.439,-28.6944"/>
</g>
<!-- Node13 -->
<g id="node13" class="node"><title>Node13</title>
<g id="a_node13"><a xlink:href="_event_type_8h.html" target="_top" xlink:title="EventType.h">
<polygon fill="white" stroke="black" points="556,-56.5 556,-75.5 630,-75.5 630,-56.5 556,-56.5"/>
<text text-anchor="middle" x="593" y="-63.5" font-family="Ubuntu Mono" font-size="10.00">EventType.h</text>
</a>
</g>
</g>
<!-- Node12&#45;&gt;Node13 -->
<g id="edge13" class="edge"><title>Node12&#45;&gt;Node13</title>
<path fill="none" stroke="midnightblue" d="M562.11,-112.083C567.282,-104.534 574.846,-93.4948 581.194,-84.2298"/>
<polygon fill="midnightblue" stroke="midnightblue" points="584.239,-85.9787 587.004,-75.7511 578.464,-82.0221 584.239,-85.9787"/>
</g>
<!-- Node13&#45;&gt;Node10 -->
<g id="edge14" class="edge"><title>Node13&#45;&gt;Node10</title>
<path fill="none" stroke="midnightblue" d="M606.657,-56.324C619.916,-47.9002 640.268,-34.9709 655.846,-25.0741"/>
<polygon fill="midnightblue" stroke="midnightblue" points="657.813,-27.9711 664.377,-19.6545 654.06,-22.0626 657.813,-27.9711"/>
</g>
<!-- Node13&#45;&gt;Node11 -->
<g id="edge15" class="edge"><title>Node13&#45;&gt;Node11</title>
<path fill="none" stroke="midnightblue" d="M593,-56.083C593,-49.0059 593,-38.8611 593,-29.9865"/>
<polygon fill="midnightblue" stroke="midnightblue" points="596.5,-29.751 593,-19.7511 589.5,-29.7511 596.5,-29.751"/>
</g>
<!-- Node14&#45;&gt;Node4 -->
<g id="edge19" class="edge"><title>Node14&#45;&gt;Node4</title>
<path fill="none" stroke="midnightblue" d="M241.568,-112.324C252.42,-104.185 268.881,-91.8395 281.883,-82.0874"/>
<polygon fill="midnightblue" stroke="midnightblue" points="284.321,-84.6339 290.221,-75.8339 280.121,-79.0339 284.321,-84.6339"/>
</g>
<!-- Node14&#45;&gt;Node6 -->
<g id="edge21" class="edge"><title>Node14&#45;&gt;Node6</title>
<path fill="none" stroke="midnightblue" d="M214.897,-112.324C200.097,-103.822 177.306,-90.7288 160.018,-80.7975"/>
<polygon fill="midnightblue" stroke="midnightblue" points="161.48,-77.6009 151.065,-75.6545 157.993,-83.6707 161.48,-77.6009"/>
</g>
<!-- Node14&#45;&gt;Node11 -->
<g id="edge20" class="edge"><title>Node14&#45;&gt;Node11</title>
<path fill="none" stroke="midnightblue" d="M222.09,-112.371C210.644,-98.833 192.355,-72.4514 207,-56 230.224,-29.9111 468.452,-16.5842 558.647,-12.4436"/>
<polygon fill="midnightblue" stroke="midnightblue" points="559.056,-15.9289 568.889,-11.9839 558.742,-8.93593 559.056,-15.9289"/>
</g>
<!-- Node15 -->
<g id="node15" class="node"><title>Node15</title>
<polygon fill="white" stroke="#bfbfbf" points="216.5,-56.5 216.5,-75.5 259.5,-75.5 259.5,-56.5 216.5,-56.5"/>
<text text-anchor="middle" x="238" y="-63.5" font-family="Ubuntu Mono" font-size="10.00">ctime</text>
</g>
<!-- Node14&#45;&gt;Node15 -->
<g id="edge18" class="edge"><title>Node14&#45;&gt;Node15</title>
<path fill="none" stroke="midnightblue" d="M231.321,-112.083C232.381,-104.927 233.906,-94.6353 235.231,-85.6911"/>
<polygon fill="midnightblue" stroke="midnightblue" points="238.7,-86.1561 236.704,-75.7511 231.776,-85.1302 238.7,-86.1561"/>
</g>
<!-- Node16&#45;&gt;Node4 -->
<g id="edge24" class="edge"><title>Node16&#45;&gt;Node4</title>
<path fill="none" stroke="midnightblue" d="M349.003,-112.324C340.806,-104.42 328.494,-92.5482 318.528,-82.9377"/>
<polygon fill="midnightblue" stroke="midnightblue" points="320.789,-80.2558 311.161,-75.8339 315.93,-85.2947 320.789,-80.2558"/>
</g>
<!-- Node16&#45;&gt;Node15 -->
<g id="edge23" class="edge"><title>Node16&#45;&gt;Node15</title>
<path fill="none" stroke="midnightblue" d="M338.986,-112.444C319.412,-103.636 288.692,-89.8116 266.271,-79.722"/>
<polygon fill="midnightblue" stroke="midnightblue" points="267.481,-76.4284 256.925,-75.5164 264.608,-82.8119 267.481,-76.4284"/>
</g>
<!-- Node17 -->
<g id="node17" class="node"><title>Node17</title>
<polygon fill="white" stroke="#bfbfbf" points="344,-56.5 344,-75.5 392,-75.5 392,-56.5 344,-56.5"/>
<text text-anchor="middle" x="368" y="-63.5" font-family="Ubuntu Mono" font-size="10.00">random</text>
</g>
<!-- Node16&#45;&gt;Node17 -->
<g id="edge25" class="edge"><title>Node16&#45;&gt;Node17</title>
<path fill="none" stroke="midnightblue" d="M359.651,-112.083C360.976,-104.927 362.882,-94.6353 364.539,-85.6911"/>
<polygon fill="midnightblue" stroke="midnightblue" points="368,-86.2212 366.379,-75.7511 361.117,-84.9466 368,-86.2212"/>
</g>
<!-- Node18&#45;&gt;Node10 -->
<g id="edge27" class="edge"><title>Node18&#45;&gt;Node10</title>
<path fill="none" stroke="midnightblue" d="M678,-56.083C678,-49.0059 678,-38.8611 678,-29.9865"/>
<polygon fill="midnightblue" stroke="midnightblue" points="681.5,-29.751 678,-19.7511 674.5,-29.7511 681.5,-29.751"/>
</g>
<!-- Node18&#45;&gt;Node11 -->
<g id="edge28" class="edge"><title>Node18&#45;&gt;Node11</title>
<path fill="none" stroke="midnightblue" d="M664.343,-56.324C651.084,-47.9002 630.732,-34.9709 615.154,-25.0741"/>
<polygon fill="midnightblue" stroke="midnightblue" points="616.94,-22.0626 606.623,-19.6545 613.187,-27.9711 616.94,-22.0626"/>
</g>
</g>
</svg>
