<?xml version="1.0" encoding="UTF-8" standalone="no"?>
<!DOCTYPE svg PUBLIC "-//W3C//DTD SVG 1.1//EN"
 "http://www.w3.org/Graphics/SVG/1.1/DTD/svg11.dtd">
<!-- Generated by graphviz version 2.38.0 (20140413.2041)
 -->
<!-- Title: include/Elevator.h Pages: 1 -->
<svg width="234pt" height="84pt"
 viewBox="0.00 0.00 234.00 84.00" xmlns="http://www.w3.org/2000/svg" xmlns:xlink="http://www.w3.org/1999/xlink">
<g id="graph0" class="graph" transform="scale(1 1) rotate(0) translate(4 80)">
<title>include/Elevator.h</title>
<polygon fill="white" stroke="none" points="-4,4 -4,-80 230,-80 230,4 -4,4"/>
<!-- Node1 -->
<g id="node1" class="node"><title>Node1</title>
<polygon fill="#bfbfbf" stroke="black" points="50.5,-56.5 50.5,-75.5 161.5,-75.5 161.5,-56.5 50.5,-56.5"/>
<text text-anchor="middle" x="106" y="-63.5" font-family="Ubuntu Mono" font-size="10.00">include/Elevator.h</text>
</g>
<!-- Node2 -->
<g id="node2" class="node"><title>Node2</title>
<polygon fill="white" stroke="#bfbfbf" points="0,-0.5 0,-19.5 32,-19.5 32,-0.5 0,-0.5"/>
<text text-anchor="middle" x="16" y="-7.5" font-family="Ubuntu Mono" font-size="10.00">map</text>
</g>
<!-- Node1&#45;&gt;Node2 -->
<g id="edge1" class="edge"><title>Node1&#45;&gt;Node2</title>
<path fill="none" stroke="midnightblue" d="M91.5399,-56.324C77.5004,-47.9002 55.9515,-34.9709 39.4569,-25.0741"/>
<polygon fill="midnightblue" stroke="midnightblue" points="40.7999,-21.7983 30.4242,-19.6545 37.1984,-27.8007 40.7999,-21.7983"/>
</g>
<!-- Node3 -->
<g id="node3" class="node"><title>Node3</title>
<polygon fill="white" stroke="#bfbfbf" points="50,-0.5 50,-19.5 98,-19.5 98,-0.5 50,-0.5"/>
<text text-anchor="middle" x="74" y="-7.5" font-family="Ubuntu Mono" font-size="10.00">memory</text>
</g>
<!-- Node1&#45;&gt;Node3 -->
<g id="edge2" class="edge"><title>Node1&#45;&gt;Node3</title>
<path fill="none" stroke="midnightblue" d="M100.716,-56.083C96.289,-48.6127 89.8367,-37.7244 84.3821,-28.5199"/>
<polygon fill="midnightblue" stroke="midnightblue" points="87.2949,-26.5697 79.1858,-19.7511 81.2729,-30.1383 87.2949,-26.5697"/>
</g>
<!-- Node4 -->
<g id="node4" class="node"><title>Node4</title>
<polygon fill="white" stroke="#bfbfbf" points="116.5,-0.5 116.5,-19.5 159.5,-19.5 159.5,-0.5 116.5,-0.5"/>
<text text-anchor="middle" x="138" y="-7.5" font-family="Ubuntu Mono" font-size="10.00">queue</text>
</g>
<!-- Node1&#45;&gt;Node4 -->
<g id="edge3" class="edge"><title>Node1&#45;&gt;Node4</title>
<path fill="none" stroke="midnightblue" d="M111.284,-56.083C115.711,-48.6127 122.163,-37.7244 127.618,-28.5199"/>
<polygon fill="midnightblue" stroke="midnightblue" points="130.727,-30.1383 132.814,-19.7511 124.705,-26.5697 130.727,-30.1383"/>
</g>
<!-- Node5 -->
<g id="node5" class="node"><title>Node5</title>
<polygon fill="white" stroke="#bfbfbf" points="178,-0.5 178,-19.5 226,-19.5 226,-0.5 178,-0.5"/>
<text text-anchor="middle" x="202" y="-7.5" font-family="Ubuntu Mono" font-size="10.00">vector</text>
</g>
<!-- Node1&#45;&gt;Node5 -->
<g id="edge4" class="edge"><title>Node1&#45;&gt;Node5</title>
<path fill="none" stroke="midnightblue" d="M121.424,-56.324C136.54,-47.8215 159.815,-34.7288 177.471,-24.7975"/>
<polygon fill="midnightblue" stroke="midnightblue" points="179.614,-27.6077 186.614,-19.6545 176.183,-21.5066 179.614,-27.6077"/>
</g>
</g>
</svg>
