<?xml version="1.0" encoding="UTF-8" standalone="no"?>
<!DOCTYPE svg PUBLIC "-//W3C//DTD SVG 1.1//EN"
 "http://www.w3.org/Graphics/SVG/1.1/DTD/svg11.dtd">
<!-- Generated by graphviz version 2.38.0 (20140413.2041)
 -->
<!-- Title: include/Elevator.h Pages: 1 -->
<svg width="1966pt" height="95pt"
 viewBox="0.00 0.00 1965.50 95.00" xmlns="http://www.w3.org/2000/svg" xmlns:xlink="http://www.w3.org/1999/xlink">
<g id="graph0" class="graph" transform="scale(1 1) rotate(0) translate(4 91)">
<title>include/Elevator.h</title>
<polygon fill="white" stroke="none" points="-4,4 -4,-91 1961.5,-91 1961.5,4 -4,4"/>
<!-- Node1 -->
<g id="node1" class="node"><title>Node1</title>
<polygon fill="#bfbfbf" stroke="black" points="930,-67.5 930,-86.5 1041,-86.5 1041,-67.5 930,-67.5"/>
<text text-anchor="middle" x="985.5" y="-74.5" font-family="Ubuntu Mono" font-size="10.00">include/Elevator.h</text>
</g>
<!-- Node2 -->
<g id="node2" class="node"><title>Node2</title>
<g id="a_node2"><a xlink:href="_better_nearest_neighbour_cost_function_8cpp.html" target="_top" xlink:title="src/BetterNearestNeighbour\lCostFunction.cpp">
<polygon fill="white" stroke="black" points="0,-0.5 0,-30.5 153,-30.5 153,-0.5 0,-0.5"/>
<text text-anchor="start" x="8" y="-18.5" font-family="Ubuntu Mono" font-size="10.00">src/BetterNearestNeighbour</text>
<text text-anchor="middle" x="76.5" y="-7.5" font-family="Ubuntu Mono" font-size="10.00">CostFunction.cpp</text>
</a>
</g>
</g>
<!-- Node1&#45;&gt;Node2 -->
<g id="edge1" class="edge"><title>Node1&#45;&gt;Node2</title>
<path fill="none" stroke="midnightblue" d="M919.731,-74.9602C779.806,-72.1877 442.423,-62.5272 161.5,-31 158.822,-30.6995 156.101,-30.3695 153.355,-30.0158"/>
<polygon fill="midnightblue" stroke="midnightblue" points="919.795,-78.4619 929.861,-75.1556 919.93,-71.4632 919.795,-78.4619"/>
</g>
<!-- Node3 -->
<g id="node3" class="node"><title>Node3</title>
<g id="a_node3"><a xlink:href="_building_8cpp.html" target="_top" xlink:title="src/Building.cpp">
<polygon fill="white" stroke="black" points="171,-6 171,-25 272,-25 272,-6 171,-6"/>
<text text-anchor="middle" x="221.5" y="-13" font-family="Ubuntu Mono" font-size="10.00">src/Building.cpp</text>
</a>
</g>
</g>
<!-- Node1&#45;&gt;Node3 -->
<g id="edge2" class="edge"><title>Node1&#45;&gt;Node3</title>
<path fill="none" stroke="midnightblue" d="M919.761,-75.587C794.743,-73.9652 514.403,-66.3135 281.5,-31 271.964,-29.5541 261.717,-27.3328 252.438,-25.0598"/>
<polygon fill="midnightblue" stroke="midnightblue" points="919.891,-79.0887 929.932,-75.7099 919.975,-72.0892 919.891,-79.0887"/>
</g>
<!-- Node4 -->
<g id="node4" class="node"><title>Node4</title>
<g id="a_node4"><a xlink:href="_dummy_cost_function_8cpp.html" target="_top" xlink:title="src/DummyCostFunction.cpp">
<polygon fill="white" stroke="black" points="290.5,-6 290.5,-25 438.5,-25 438.5,-6 290.5,-6"/>
<text text-anchor="middle" x="364.5" y="-13" font-family="Ubuntu Mono" font-size="10.00">src/DummyCostFunction.cpp</text>
</a>
</g>
</g>
<!-- Node1&#45;&gt;Node4 -->
<g id="edge3" class="edge"><title>Node1&#45;&gt;Node4</title>
<path fill="none" stroke="midnightblue" d="M919.846,-72.4083C818.298,-66.4249 617.136,-52.8674 447.5,-31 435.023,-29.3916 421.562,-27.2275 409.187,-25.0625"/>
<polygon fill="midnightblue" stroke="midnightblue" points="919.764,-75.9093 929.951,-72.998 920.172,-68.9212 919.764,-75.9093"/>
</g>
<!-- Node5 -->
<g id="node5" class="node"><title>Node5</title>
<g id="a_node5"><a xlink:href="_elevator_8cpp.html" target="_top" xlink:title="src/Elevator.cpp">
<polygon fill="white" stroke="black" points="457,-6 457,-25 558,-25 558,-6 457,-6"/>
<text text-anchor="middle" x="507.5" y="-13" font-family="Ubuntu Mono" font-size="10.00">src/Elevator.cpp</text>
</a>
</g>
</g>
<!-- Node1&#45;&gt;Node5 -->
<g id="edge4" class="edge"><title>Node1&#45;&gt;Node5</title>
<path fill="none" stroke="midnightblue" d="M919.906,-71.6885C837.102,-65.6203 690.49,-52.7931 566.5,-31 557.462,-29.4114 547.753,-27.2279 538.873,-25.0373"/>
<polygon fill="midnightblue" stroke="midnightblue" points="919.701,-75.1827 929.927,-72.4127 920.206,-68.2009 919.701,-75.1827"/>
</g>
<!-- Node6 -->
<g id="node6" class="node"><title>Node6</title>
<g id="a_node6"><a xlink:href="_floor_8cpp.html" target="_top" xlink:title="src/Floor.cpp">
<polygon fill="white" stroke="black" points="576,-6 576,-25 661,-25 661,-6 576,-6"/>
<text text-anchor="middle" x="618.5" y="-13" font-family="Ubuntu Mono" font-size="10.00">src/Floor.cpp</text>
</a>
</g>
</g>
<!-- Node1&#45;&gt;Node6 -->
<g id="edge5" class="edge"><title>Node1&#45;&gt;Node6</title>
<path fill="none" stroke="midnightblue" d="M919.737,-69.2665C855.5,-62.0722 755.17,-49.1909 669.5,-31 661.756,-29.3557 653.46,-27.1798 645.856,-25.015"/>
<polygon fill="midnightblue" stroke="midnightblue" points="919.405,-72.7511 929.729,-70.3723 920.175,-65.7935 919.405,-72.7511"/>
</g>
<!-- Node7 -->
<g id="node7" class="node"><title>Node7</title>
<g id="a_node7"><a xlink:href="_nearest_neighbour_cost_function_8cpp.html" target="_top" xlink:title="src/NearestNeighbourCost\lFunction.cpp">
<polygon fill="white" stroke="black" points="679,-0.5 679,-30.5 822,-30.5 822,-0.5 679,-0.5"/>
<text text-anchor="start" x="687" y="-18.5" font-family="Ubuntu Mono" font-size="10.00">src/NearestNeighbourCost</text>
<text text-anchor="middle" x="750.5" y="-7.5" font-family="Ubuntu Mono" font-size="10.00">Function.cpp</text>
</a>
</g>
</g>
<!-- Node1&#45;&gt;Node7 -->
<g id="edge6" class="edge"><title>Node1&#45;&gt;Node7</title>
<path fill="none" stroke="midnightblue" d="M941.989,-64.9834C903.606,-55.2651 847.463,-41.0503 805.885,-30.523"/>
<polygon fill="midnightblue" stroke="midnightblue" points="941.277,-68.4135 951.83,-67.4751 942.995,-61.6276 941.277,-68.4135"/>
</g>
<!-- Node8 -->
<g id="node8" class="node"><title>Node8</title>
<g id="a_node8"><a xlink:href="_planning_scheduler_8cpp.html" target="_top" xlink:title="src/PlanningScheduler.cpp">
<polygon fill="white" stroke="black" points="840.5,-6 840.5,-25 988.5,-25 988.5,-6 840.5,-6"/>
<text text-anchor="middle" x="914.5" y="-13" font-family="Ubuntu Mono" font-size="10.00">src/PlanningScheduler.cpp</text>
</a>
</g>
</g>
<!-- Node1&#45;&gt;Node8 -->
<g id="edge7" class="edge"><title>Node1&#45;&gt;Node8</title>
<path fill="none" stroke="midnightblue" d="M967.568,-60.9727C953.989,-49.5925 935.823,-34.3694 924.654,-25.0091"/>
<polygon fill="midnightblue" stroke="midnightblue" points="965.415,-63.7346 975.327,-67.4751 969.911,-58.3694 965.415,-63.7346"/>
</g>
<!-- Node9 -->
<g id="node9" class="node"><title>Node9</title>
<g id="a_node9"><a xlink:href="_scenario_8cpp.html" target="_top" xlink:title="src/Scenario.cpp">
<polygon fill="white" stroke="black" points="1007,-6 1007,-25 1108,-25 1108,-6 1007,-6"/>
<text text-anchor="middle" x="1057.5" y="-13" font-family="Ubuntu Mono" font-size="10.00">src/Scenario.cpp</text>
</a>
</g>
</g>
<!-- Node1&#45;&gt;Node9 -->
<g id="edge8" class="edge"><title>Node1&#45;&gt;Node9</title>
<path fill="none" stroke="midnightblue" d="M1003.68,-60.9727C1017.46,-49.5925 1035.88,-34.3694 1047.2,-25.0091"/>
<polygon fill="midnightblue" stroke="midnightblue" points="1001.29,-58.4069 995.816,-67.4751 1005.75,-63.8028 1001.29,-58.4069"/>
</g>
<!-- Node10 -->
<g id="node10" class="node"><title>Node10</title>
<g id="a_node10"><a xlink:href="_scheduler_8cpp.html" target="_top" xlink:title="src/Scheduler.cpp">
<polygon fill="white" stroke="black" points="1126.5,-6 1126.5,-25 1232.5,-25 1232.5,-6 1126.5,-6"/>
<text text-anchor="middle" x="1179.5" y="-13" font-family="Ubuntu Mono" font-size="10.00">src/Scheduler.cpp</text>
</a>
</g>
</g>
<!-- Node1&#45;&gt;Node10 -->
<g id="edge9" class="edge"><title>Node1&#45;&gt;Node10</title>
<path fill="none" stroke="midnightblue" d="M1022.9,-64.5286C1060.61,-52.9647 1117.93,-35.3849 1151.76,-25.0091"/>
<polygon fill="midnightblue" stroke="midnightblue" points="1021.83,-61.1967 1013.3,-67.4751 1023.88,-67.889 1021.83,-61.1967"/>
</g>
<!-- Node11 -->
<g id="node11" class="node"><title>Node11</title>
<g id="a_node11"><a xlink:href="_simple_scheduler_8cpp.html" target="_top" xlink:title="src/SimpleScheduler.cpp">
<polygon fill="white" stroke="black" points="1251,-6 1251,-25 1388,-25 1388,-6 1251,-6"/>
<text text-anchor="middle" x="1319.5" y="-13" font-family="Ubuntu Mono" font-size="10.00">src/SimpleScheduler.cpp</text>
</a>
</g>
</g>
<!-- Node1&#45;&gt;Node11 -->
<g id="edge10" class="edge"><title>Node1&#45;&gt;Node11</title>
<path fill="none" stroke="midnightblue" d="M1045.11,-65.6914C1097.02,-56.6754 1174.27,-43.1581 1241.5,-31 1252.07,-29.0882 1263.44,-26.9953 1274.14,-25.0092"/>
<polygon fill="midnightblue" stroke="midnightblue" points="1044.33,-62.274 1035.08,-67.4328 1045.53,-69.1709 1044.33,-62.274"/>
</g>
<!-- Node12 -->
<g id="node12" class="node"><title>Node12</title>
<g id="a_node12"><a xlink:href="_simulator_8cpp.html" target="_top" xlink:title="src/Simulator.cpp">
<polygon fill="white" stroke="black" points="1406.5,-6 1406.5,-25 1512.5,-25 1512.5,-6 1406.5,-6"/>
<text text-anchor="middle" x="1459.5" y="-13" font-family="Ubuntu Mono" font-size="10.00">src/Simulator.cpp</text>
</a>
</g>
</g>
<!-- Node1&#45;&gt;Node12 -->
<g id="edge11" class="edge"><title>Node1&#45;&gt;Node12</title>
<path fill="none" stroke="midnightblue" d="M1051.23,-71.2867C1132.84,-64.8698 1276.09,-51.7489 1397.5,-31 1406.87,-29.3985 1416.94,-27.2366 1426.19,-25.0716"/>
<polygon fill="midnightblue" stroke="midnightblue" points="1050.81,-67.8092 1041.11,-72.0734 1051.35,-74.7882 1050.81,-67.8092"/>
</g>
<!-- Node13 -->
<g id="node13" class="node"><title>Node13</title>
<g id="a_node13"><a xlink:href="_statistics_8cpp.html" target="_top" xlink:title="src/Statistics.cpp">
<polygon fill="white" stroke="black" points="1530,-6 1530,-25 1641,-25 1641,-6 1530,-6"/>
<text text-anchor="middle" x="1585.5" y="-13" font-family="Ubuntu Mono" font-size="10.00">src/Statistics.cpp</text>
</a>
</g>
</g>
<!-- Node1&#45;&gt;Node13 -->
<g id="edge12" class="edge"><title>Node1&#45;&gt;Node13</title>
<path fill="none" stroke="midnightblue" d="M1051.46,-73.4167C1152.95,-68.7775 1353.31,-56.9835 1521.5,-31 1531.41,-29.4693 1542.07,-27.2776 1551.79,-25.0601"/>
<polygon fill="midnightblue" stroke="midnightblue" points="1051.19,-69.9252 1041.36,-73.8697 1051.51,-76.9181 1051.19,-69.9252"/>
</g>
<!-- Node14 -->
<g id="node14" class="node"><title>Node14</title>
<g id="a_node14"><a xlink:href="_stop_manager_8cpp.html" target="_top" xlink:title="src/StopManager.cpp">
<polygon fill="white" stroke="black" points="1659.5,-6 1659.5,-25 1775.5,-25 1775.5,-6 1659.5,-6"/>
<text text-anchor="middle" x="1717.5" y="-13" font-family="Ubuntu Mono" font-size="10.00">src/StopManager.cpp</text>
</a>
</g>
</g>
<!-- Node1&#45;&gt;Node14 -->
<g id="edge13" class="edge"><title>Node1&#45;&gt;Node14</title>
<path fill="none" stroke="midnightblue" d="M1051.51,-74.7118C1171.37,-71.6678 1432.57,-61.7891 1650.5,-31 1660.99,-29.5183 1672.28,-27.3143 1682.55,-25.0693"/>
<polygon fill="midnightblue" stroke="midnightblue" points="1051.31,-71.2157 1041.4,-74.9609 1051.48,-78.2136 1051.31,-71.2157"/>
</g>
<!-- Node15 -->
<g id="node15" class="node"><title>Node15</title>
<g id="a_node15"><a xlink:href="_weighted_cost_function_8cpp.html" target="_top" xlink:title="src/WeightedCostFunction.cpp">
<polygon fill="white" stroke="black" points="1793.5,-6 1793.5,-25 1957.5,-25 1957.5,-6 1793.5,-6"/>
<text text-anchor="middle" x="1875.5" y="-13" font-family="Ubuntu Mono" font-size="10.00">src/WeightedCostFunction.cpp</text>
</a>
</g>
</g>
<!-- Node1&#45;&gt;Node15 -->
<g id="edge14" class="edge"><title>Node1&#45;&gt;Node15</title>
<path fill="none" stroke="midnightblue" d="M1051.68,-74.5491C1188.76,-71.0432 1513.55,-60.1397 1784.5,-31 1798.66,-29.4775 1813.97,-27.2611 1827.92,-25.0172"/>
<polygon fill="midnightblue" stroke="midnightblue" points="1051.27,-71.0584 1041.36,-74.8082 1051.44,-78.0562 1051.27,-71.0584"/>
</g>
</g>
</svg>
