<?xml version="1.0" encoding="UTF-8" standalone="no"?>
<!DOCTYPE svg PUBLIC "-//W3C//DTD SVG 1.1//EN"
 "http://www.w3.org/Graphics/SVG/1.1/DTD/svg11.dtd">
<!-- Generated by graphviz version 2.38.0 (20140413.2041)
 -->
<!-- Title: include/Elevator.h Pages: 1 -->
<svg width="1636pt" height="95pt"
 viewBox="0.00 0.00 1636.00 95.00" xmlns="http://www.w3.org/2000/svg" xmlns:xlink="http://www.w3.org/1999/xlink">
<g id="graph0" class="graph" transform="scale(1 1) rotate(0) translate(4 91)">
<title>include/Elevator.h</title>
<polygon fill="white" stroke="none" points="-4,4 -4,-91 1632,-91 1632,4 -4,4"/>
<!-- Node1 -->
<g id="node1" class="node"><title>Node1</title>
<polygon fill="#bfbfbf" stroke="black" points="758.5,-67.5 758.5,-86.5 853.5,-86.5 853.5,-67.5 758.5,-67.5"/>
<text text-anchor="middle" x="806" y="-74.5" font-family="Helvetica,sans-Serif" font-size="10.00">include/Elevator.h</text>
</g>
<!-- Node2 -->
<g id="node2" class="node"><title>Node2</title>
<g id="a_node2"><a xlink:href="_better_nearest_neighbour_cost_function_8cpp.html" target="_top" xlink:title="src/BetterNearestNeighbour\lCostFunction.cpp">
<polygon fill="white" stroke="black" points="0,-0.5 0,-30.5 138,-30.5 138,-0.5 0,-0.5"/>
<text text-anchor="start" x="8" y="-18.5" font-family="Helvetica,sans-Serif" font-size="10.00">src/BetterNearestNeighbour</text>
<text text-anchor="middle" x="69" y="-7.5" font-family="Helvetica,sans-Serif" font-size="10.00">CostFunction.cpp</text>
</a>
</g>
</g>
<!-- Node1&#45;&gt;Node2 -->
<g id="edge1" class="edge"><title>Node1&#45;&gt;Node2</title>
<path fill="none" stroke="midnightblue" d="M747.933,-74.2905C632.868,-70.4054 367.922,-58.982 147,-31 144.13,-30.6365 141.207,-30.2351 138.257,-29.8045"/>
<polygon fill="midnightblue" stroke="midnightblue" points="748.155,-77.7996 758.266,-74.6326 748.387,-70.8035 748.155,-77.7996"/>
</g>
<!-- Node3 -->
<g id="node3" class="node"><title>Node3</title>
<g id="a_node3"><a xlink:href="_building_8cpp.html" target="_top" xlink:title="src/Building.cpp">
<polygon fill="white" stroke="black" points="156,-6 156,-25 242,-25 242,-6 156,-6"/>
<text text-anchor="middle" x="199" y="-13" font-family="Helvetica,sans-Serif" font-size="10.00">src/Building.cpp</text>
</a>
</g>
</g>
<!-- Node1&#45;&gt;Node3 -->
<g id="edge2" class="edge"><title>Node1&#45;&gt;Node3</title>
<path fill="none" stroke="midnightblue" d="M748.439,-74.9459C647.125,-72.2896 430.649,-63.0269 251,-31 242.696,-29.5196 233.804,-27.288 225.763,-25.0163"/>
<polygon fill="midnightblue" stroke="midnightblue" points="748.379,-78.4454 758.464,-75.1969 748.555,-71.4476 748.379,-78.4454"/>
</g>
<!-- Node4 -->
<g id="node4" class="node"><title>Node4</title>
<g id="a_node4"><a xlink:href="_elevator_8cpp.html" target="_top" xlink:title="src/Elevator.cpp">
<polygon fill="white" stroke="black" points="260,-6 260,-25 348,-25 348,-6 260,-6"/>
<text text-anchor="middle" x="304" y="-13" font-family="Helvetica,sans-Serif" font-size="10.00">src/Elevator.cpp</text>
</a>
</g>
</g>
<!-- Node1&#45;&gt;Node4 -->
<g id="edge3" class="edge"><title>Node1&#45;&gt;Node4</title>
<path fill="none" stroke="midnightblue" d="M748.377,-73.3105C662.51,-68.6086 496.154,-56.8209 357,-31 348.746,-29.4684 339.904,-27.2764 331.854,-25.059"/>
<polygon fill="midnightblue" stroke="midnightblue" points="748.269,-76.8097 758.442,-73.8493 748.644,-69.8197 748.269,-76.8097"/>
</g>
<!-- Node5 -->
<g id="node5" class="node"><title>Node5</title>
<g id="a_node5"><a xlink:href="_floor_8cpp.html" target="_top" xlink:title="src/Floor.cpp">
<polygon fill="white" stroke="black" points="366,-6 366,-25 440,-25 440,-6 366,-6"/>
<text text-anchor="middle" x="403" y="-13" font-family="Helvetica,sans-Serif" font-size="10.00">src/Floor.cpp</text>
</a>
</g>
</g>
<!-- Node1&#45;&gt;Node5 -->
<g id="edge4" class="edge"><title>Node1&#45;&gt;Node5</title>
<path fill="none" stroke="midnightblue" d="M748.388,-71.9465C677.364,-66.2163 553.262,-53.8091 449,-31 441.802,-29.4252 434.117,-27.2197 427.13,-25.0032"/>
<polygon fill="midnightblue" stroke="midnightblue" points="748.228,-75.4448 758.473,-72.744 748.78,-68.4665 748.228,-75.4448"/>
</g>
<!-- Node6 -->
<g id="node6" class="node"><title>Node6</title>
<g id="a_node6"><a xlink:href="_nearest_neighbour_cost_function_8cpp.html" target="_top" xlink:title="src/NearestNeighbourCost\lFunction.cpp">
<polygon fill="white" stroke="black" points="458.5,-0.5 458.5,-30.5 591.5,-30.5 591.5,-0.5 458.5,-0.5"/>
<text text-anchor="start" x="466.5" y="-18.5" font-family="Helvetica,sans-Serif" font-size="10.00">src/NearestNeighbourCost</text>
<text text-anchor="middle" x="525" y="-7.5" font-family="Helvetica,sans-Serif" font-size="10.00">Function.cpp</text>
</a>
</g>
</g>
<!-- Node1&#45;&gt;Node6 -->
<g id="edge5" class="edge"><title>Node1&#45;&gt;Node6</title>
<path fill="none" stroke="midnightblue" d="M755.719,-65.3533C709.792,-55.6287 641.578,-41.1847 591.226,-30.523"/>
<polygon fill="midnightblue" stroke="midnightblue" points="755.231,-68.8276 765.74,-67.4751 756.682,-61.9794 755.231,-68.8276"/>
</g>
<!-- Node7 -->
<g id="node7" class="node"><title>Node7</title>
<g id="a_node7"><a xlink:href="_planning_scheduler_8cpp.html" target="_top" xlink:title="src/PlanningScheduler.cpp">
<polygon fill="white" stroke="black" points="609.5,-6 609.5,-25 742.5,-25 742.5,-6 609.5,-6"/>
<text text-anchor="middle" x="676" y="-13" font-family="Helvetica,sans-Serif" font-size="10.00">src/PlanningScheduler.cpp</text>
</a>
</g>
</g>
<!-- Node1&#45;&gt;Node7 -->
<g id="edge6" class="edge"><title>Node1&#45;&gt;Node7</title>
<path fill="none" stroke="midnightblue" d="M777.977,-63.1742C752.752,-51.6287 716.393,-34.9875 694.591,-25.0091"/>
<polygon fill="midnightblue" stroke="midnightblue" points="776.825,-66.4958 787.374,-67.4751 779.738,-60.1308 776.825,-66.4958"/>
</g>
<!-- Node8 -->
<g id="node8" class="node"><title>Node8</title>
<g id="a_node8"><a xlink:href="_scenario_8cpp.html" target="_top" xlink:title="src/Scenario.cpp">
<polygon fill="white" stroke="black" points="761,-6 761,-25 851,-25 851,-6 761,-6"/>
<text text-anchor="middle" x="806" y="-13" font-family="Helvetica,sans-Serif" font-size="10.00">src/Scenario.cpp</text>
</a>
</g>
</g>
<!-- Node1&#45;&gt;Node8 -->
<g id="edge7" class="edge"><title>Node1&#45;&gt;Node8</title>
<path fill="none" stroke="midnightblue" d="M806,-57.3165C806,-46.4962 806,-33.398 806,-25.0091"/>
<polygon fill="midnightblue" stroke="midnightblue" points="802.5,-57.4751 806,-67.4751 809.5,-57.4751 802.5,-57.4751"/>
</g>
<!-- Node9 -->
<g id="node9" class="node"><title>Node9</title>
<g id="a_node9"><a xlink:href="_scheduler_8cpp.html" target="_top" xlink:title="src/Scheduler.cpp">
<polygon fill="white" stroke="black" points="869.5,-6 869.5,-25 964.5,-25 964.5,-6 869.5,-6"/>
<text text-anchor="middle" x="917" y="-13" font-family="Helvetica,sans-Serif" font-size="10.00">src/Scheduler.cpp</text>
</a>
</g>
</g>
<!-- Node1&#45;&gt;Node9 -->
<g id="edge8" class="edge"><title>Node1&#45;&gt;Node9</title>
<path fill="none" stroke="midnightblue" d="M830.79,-62.7118C852.288,-51.1881 882.758,-34.855 901.126,-25.0091"/>
<polygon fill="midnightblue" stroke="midnightblue" points="829.064,-59.6659 821.904,-67.4751 832.371,-65.8354 829.064,-59.6659"/>
</g>
<!-- Node10 -->
<g id="node10" class="node"><title>Node10</title>
<g id="a_node10"><a xlink:href="_simple_scheduler_8cpp.html" target="_top" xlink:title="src/SimpleScheduler.cpp">
<polygon fill="white" stroke="black" points="982.5,-6 982.5,-25 1107.5,-25 1107.5,-6 982.5,-6"/>
<text text-anchor="middle" x="1045" y="-13" font-family="Helvetica,sans-Serif" font-size="10.00">src/SimpleScheduler.cpp</text>
</a>
</g>
</g>
<!-- Node1&#45;&gt;Node10 -->
<g id="edge9" class="edge"><title>Node1&#45;&gt;Node10</title>
<path fill="none" stroke="midnightblue" d="M850.019,-65.0412C896.419,-53.49 968.522,-35.5394 1010.82,-25.0091"/>
<polygon fill="midnightblue" stroke="midnightblue" points="849.101,-61.6629 840.243,-67.4751 850.792,-68.4556 849.101,-61.6629"/>
</g>
<!-- Node11 -->
<g id="node11" class="node"><title>Node11</title>
<g id="a_node11"><a xlink:href="_simulator_8cpp.html" target="_top" xlink:title="src/Simulator.cpp">
<polygon fill="white" stroke="black" points="1125.5,-6 1125.5,-25 1218.5,-25 1218.5,-6 1125.5,-6"/>
<text text-anchor="middle" x="1172" y="-13" font-family="Helvetica,sans-Serif" font-size="10.00">src/Simulator.cpp</text>
</a>
</g>
</g>
<!-- Node1&#45;&gt;Node11 -->
<g id="edge10" class="edge"><title>Node1&#45;&gt;Node11</title>
<path fill="none" stroke="midnightblue" d="M863.8,-69.6372C926.504,-62.27 1029.39,-48.8261 1117,-31 1125.23,-29.3264 1134.05,-27.1656 1142.17,-25.0257"/>
<polygon fill="midnightblue" stroke="midnightblue" points="863.239,-66.1788 853.711,-70.8109 864.048,-73.1319 863.239,-66.1788"/>
</g>
<!-- Node12 -->
<g id="node12" class="node"><title>Node12</title>
<g id="a_node12"><a xlink:href="_statistics_8cpp.html" target="_top" xlink:title="src/Statistics.cpp">
<polygon fill="white" stroke="black" points="1236.5,-6 1236.5,-25 1329.5,-25 1329.5,-6 1236.5,-6"/>
<text text-anchor="middle" x="1283" y="-13" font-family="Helvetica,sans-Serif" font-size="10.00">src/Statistics.cpp</text>
</a>
</g>
</g>
<!-- Node1&#45;&gt;Node12 -->
<g id="edge11" class="edge"><title>Node1&#45;&gt;Node12</title>
<path fill="none" stroke="midnightblue" d="M863.883,-72.6142C945.568,-67.2057 1099.1,-54.7234 1228,-31 1236.55,-29.4271 1245.72,-27.2222 1254.07,-25.0057"/>
<polygon fill="midnightblue" stroke="midnightblue" points="863.555,-69.1281 853.803,-73.2697 864.009,-76.1133 863.555,-69.1281"/>
</g>
<!-- Node13 -->
<g id="node13" class="node"><title>Node13</title>
<g id="a_node13"><a xlink:href="_stop_manager_8cpp.html" target="_top" xlink:title="src/StopManager.cpp">
<polygon fill="white" stroke="black" points="1348,-6 1348,-25 1458,-25 1458,-6 1348,-6"/>
<text text-anchor="middle" x="1403" y="-13" font-family="Helvetica,sans-Serif" font-size="10.00">src/StopManager.cpp</text>
</a>
</g>
</g>
<!-- Node1&#45;&gt;Node13 -->
<g id="edge12" class="edge"><title>Node1&#45;&gt;Node13</title>
<path fill="none" stroke="midnightblue" d="M863.687,-73.7512C961.809,-69.3417 1167.27,-57.5722 1339,-31 1348.91,-29.467 1359.57,-27.2745 1369.29,-25.0571"/>
<polygon fill="midnightblue" stroke="midnightblue" points="863.516,-70.2552 853.679,-74.192 863.824,-77.2485 863.516,-70.2552"/>
</g>
<!-- Node14 -->
<g id="node14" class="node"><title>Node14</title>
<g id="a_node14"><a xlink:href="_weighted_cost_function_8cpp.html" target="_top" xlink:title="src/WeightedCostFunction.cpp">
<polygon fill="white" stroke="black" points="1476,-6 1476,-25 1628,-25 1628,-6 1476,-6"/>
<text text-anchor="middle" x="1552" y="-13" font-family="Helvetica,sans-Serif" font-size="10.00">src/WeightedCostFunction.cpp</text>
</a>
</g>
</g>
<!-- Node1&#45;&gt;Node14 -->
<g id="edge13" class="edge"><title>Node1&#45;&gt;Node14</title>
<path fill="none" stroke="midnightblue" d="M863.86,-74.0268C979.025,-69.6656 1244.98,-57.4257 1467,-31 1480.08,-29.443 1494.21,-27.243 1507.13,-25.0262"/>
<polygon fill="midnightblue" stroke="midnightblue" points="863.712,-70.5298 853.85,-74.4003 863.973,-77.5249 863.712,-70.5298"/>
</g>
</g>
</svg>
