<?xml version="1.0" encoding="UTF-8" standalone="no"?>
<!DOCTYPE svg PUBLIC "-//W3C//DTD SVG 1.1//EN"
 "http://www.w3.org/Graphics/SVG/1.1/DTD/svg11.dtd">
<!-- Generated by graphviz version 2.38.0 (20140413.2041)
 -->
<!-- Title: src/Elevator.cpp Pages: 1 -->
<!--zoomable 196 -->
<svg id="main" version="1.1" xmlns="http://www.w3.org/2000/svg" xmlns:xlink="http://www.w3.org/1999/xlink" xml:space="preserve" onload="init(evt)">
<style type="text/css"><![CDATA[
.edge:hover path { stroke: red; }
.edge:hover polygon { stroke: red; fill: red; }
]]></style>
<script type="text/javascript"><![CDATA[
var edges = document.getElementsByTagName('g');
if (edges && edges.length) {
  for (var i=0;i<edges.length;i++) {
    if (edges[i].id.substr(0,4)=='edge') {
      edges[i].setAttribute('class','edge');
    }
  }
}
]]></script>
        <defs>
                <circle id="rim" cx="0" cy="0" r="7"/>
                <circle id="rim2" cx="0" cy="0" r="3.5"/>
                <g id="zoomPlus">
                        <use xlink:href="#rim" fill="#404040">
                                <set attributeName="fill" to="#808080" begin="zoomplus.mouseover" end="zoomplus.mouseout"/>
                        </use>
                        <path d="M-4,0h8M0,-4v8" fill="none" stroke="white" stroke-width="1.5" pointer-events="none"/>
                </g>
                <g id="zoomMin">
                        <use xlink:href="#rim" fill="#404040">
                                <set attributeName="fill" to="#808080" begin="zoomminus.mouseover" end="zoomminus.mouseout"/>
                        </use>
                        <path d="M-4,0h8" fill="none" stroke="white" stroke-width="1.5" pointer-events="none"/>
                </g>
                <g id="dirArrow">
                        <path fill="none" stroke="white" stroke-width="1.5" d="M0,-3.0v7 M-2.5,-0.5L0,-3.0L2.5,-0.5"/>
                </g>
               <g id="resetDef">
                       <use xlink:href="#rim2" fill="#404040">
                               <set attributeName="fill" to="#808080" begin="reset.mouseover" end="reset.mouseout"/>
                       </use>
               </g>
        </defs>

<script type="text/javascript">
var viewWidth = 780;
var viewHeight = 196;
var sectionId = 'dynsection-0';
</script>
<script xlink:href="svgpan.js"/>
<svg id="graph" class="graph">
<g id="viewport">
<title>src/Elevator.cpp</title>
<polygon fill="white" stroke="none" points="-4,4 -4,-192 775.5,-192 775.5,4 -4,4"/>
<!-- Node1 -->
<g id="node1" class="node"><title>Node1</title>
<polygon fill="#bfbfbf" stroke="black" points="404.5,-168.5 404.5,-187.5 492.5,-187.5 492.5,-168.5 404.5,-168.5"/>
<text text-anchor="middle" x="448.5" y="-175.5" font-family="Helvetica,sans-Serif" font-size="10.00">src/Elevator.cpp</text>
</g>
<!-- Node2 -->
<g id="node2" class="node"><title>Node2</title>
<g id="a_node2"><a xlink:href="_elevator_8h.html" target="_top" xlink:title="Elevator.h">
<polygon fill="white" stroke="black" points="106,-112.5 106,-131.5 167,-131.5 167,-112.5 106,-112.5"/>
<text text-anchor="middle" x="136.5" y="-119.5" font-family="Helvetica,sans-Serif" font-size="10.00">Elevator.h</text>
</a>
</g>
</g>
<!-- Node1&#45;&gt;Node2 -->
<g id="edge1" class="edge"><title>Node1&#45;&gt;Node2</title>
<path fill="none" stroke="midnightblue" d="M404.086,-169.659C351.59,-160.93 261.618,-145.801 184.5,-132 182.141,-131.578 179.718,-131.139 177.273,-130.693"/>
<polygon fill="midnightblue" stroke="midnightblue" points="177.683,-127.209 167.214,-128.837 176.413,-134.093 177.683,-127.209"/>
</g>
<!-- Node4 -->
<g id="node4" class="node"><title>Node4</title>
<polygon fill="white" stroke="#bfbfbf" points="274.5,-56.5 274.5,-75.5 326.5,-75.5 326.5,-56.5 274.5,-56.5"/>
<text text-anchor="middle" x="300.5" y="-63.5" font-family="Helvetica,sans-Serif" font-size="10.00">memory</text>
</g>
<!-- Node1&#45;&gt;Node4 -->
<g id="edge31" class="edge"><title>Node1&#45;&gt;Node4</title>
<path fill="none" stroke="midnightblue" d="M404.312,-175.852C371.309,-172.432 328.007,-161.997 304.5,-132 294.375,-119.08 294.448,-99.9075 296.408,-85.7307"/>
<polygon fill="midnightblue" stroke="midnightblue" points="299.896,-86.1093 298.226,-75.6469 293.007,-84.8673 299.896,-86.1093"/>
</g>
<!-- Node7 -->
<g id="node7" class="node"><title>Node7</title>
<g id="a_node7"><a xlink:href="_client_8h.html" target="_top" xlink:title="Client.h">
<polygon fill="white" stroke="black" points="397.5,-112.5 397.5,-131.5 447.5,-131.5 447.5,-112.5 397.5,-112.5"/>
<text text-anchor="middle" x="422.5" y="-119.5" font-family="Helvetica,sans-Serif" font-size="10.00">Client.h</text>
</a>
</g>
</g>
<!-- Node1&#45;&gt;Node7 -->
<g id="edge6" class="edge"><title>Node1&#45;&gt;Node7</title>
<path fill="none" stroke="midnightblue" d="M444.207,-168.083C440.648,-160.691 435.478,-149.953 431.076,-140.811"/>
<polygon fill="midnightblue" stroke="midnightblue" points="434.205,-139.243 426.713,-131.751 427.898,-142.279 434.205,-139.243"/>
</g>
<!-- Node8 -->
<g id="node8" class="node"><title>Node8</title>
<polygon fill="white" stroke="#bfbfbf" points="412,-56.5 412,-75.5 489,-75.5 489,-56.5 412,-56.5"/>
<text text-anchor="middle" x="450.5" y="-63.5" font-family="Helvetica,sans-Serif" font-size="10.00">glog/logging.h</text>
</g>
<!-- Node1&#45;&gt;Node8 -->
<g id="edge30" class="edge"><title>Node1&#45;&gt;Node8</title>
<path fill="none" stroke="midnightblue" d="M450.487,-168.433C452.467,-159.424 455.371,-144.805 456.5,-132 457.871,-116.458 456.032,-98.8342 454.039,-85.8622"/>
<polygon fill="midnightblue" stroke="midnightblue" points="457.459,-85.0971 452.325,-75.8293 450.559,-86.2759 457.459,-85.0971"/>
</g>
<!-- Node9 -->
<g id="node9" class="node"><title>Node9</title>
<g id="a_node9"><a xlink:href="_direction_8h.html" target="_top" xlink:title="Direction.h">
<polygon fill="white" stroke="black" points="707.5,-56.5 707.5,-75.5 771.5,-75.5 771.5,-56.5 707.5,-56.5"/>
<text text-anchor="middle" x="739.5" y="-63.5" font-family="Helvetica,sans-Serif" font-size="10.00">Direction.h</text>
</a>
</g>
</g>
<!-- Node1&#45;&gt;Node9 -->
<g id="edge9" class="edge"><title>Node1&#45;&gt;Node9</title>
<path fill="none" stroke="midnightblue" d="M480.221,-168.487C510.063,-160.183 555.816,-146.685 594.5,-132 614.583,-124.376 618.911,-120.816 638.5,-112 662.871,-101.032 690.605,-88.6851 710.837,-79.7024"/>
<polygon fill="midnightblue" stroke="midnightblue" points="712.397,-82.839 720.118,-75.5838 709.558,-76.4407 712.397,-82.839"/>
</g>
<!-- Node12 -->
<g id="node12" class="node"><title>Node12</title>
<g id="a_node12"><a xlink:href="_event_8h.html" target="_top" xlink:title="Event.h">
<polygon fill="white" stroke="black" points="503.5,-112.5 503.5,-131.5 553.5,-131.5 553.5,-112.5 503.5,-112.5"/>
<text text-anchor="middle" x="528.5" y="-119.5" font-family="Helvetica,sans-Serif" font-size="10.00">Event.h</text>
</a>
</g>
</g>
<!-- Node1&#45;&gt;Node12 -->
<g id="edge12" class="edge"><title>Node1&#45;&gt;Node12</title>
<path fill="none" stroke="midnightblue" d="M461.353,-168.324C473.716,-159.979 492.63,-147.212 507.237,-137.352"/>
<polygon fill="midnightblue" stroke="midnightblue" points="509.348,-140.15 515.679,-131.655 505.432,-134.348 509.348,-140.15"/>
</g>
<!-- Node14 -->
<g id="node14" class="node"><title>Node14</title>
<g id="a_node14"><a xlink:href="_scenario_8h.html" target="_top" xlink:title="Scenario.h">
<polygon fill="white" stroke="black" points="194,-112.5 194,-131.5 257,-131.5 257,-112.5 194,-112.5"/>
<text text-anchor="middle" x="225.5" y="-119.5" font-family="Helvetica,sans-Serif" font-size="10.00">Scenario.h</text>
</a>
</g>
</g>
<!-- Node1&#45;&gt;Node14 -->
<g id="edge17" class="edge"><title>Node1&#45;&gt;Node14</title>
<path fill="none" stroke="midnightblue" d="M413.165,-168.444C373.455,-158.828 309.056,-143.233 266.988,-133.046"/>
<polygon fill="midnightblue" stroke="midnightblue" points="267.607,-129.595 257.064,-130.643 265.959,-136.399 267.607,-129.595"/>
</g>
<!-- Node16 -->
<g id="node16" class="node"><title>Node16</title>
<g id="a_node16"><a xlink:href="_simulator_8h.html" target="_top" xlink:title="Simulator.h">
<polygon fill="white" stroke="black" points="313.5,-112.5 313.5,-131.5 379.5,-131.5 379.5,-112.5 313.5,-112.5"/>
<text text-anchor="middle" x="346.5" y="-119.5" font-family="Helvetica,sans-Serif" font-size="10.00">Simulator.h</text>
</a>
</g>
</g>
<!-- Node1&#45;&gt;Node16 -->
<g id="edge22" class="edge"><title>Node1&#45;&gt;Node16</title>
<path fill="none" stroke="midnightblue" d="M432.112,-168.324C415.829,-159.703 390.633,-146.364 371.784,-136.386"/>
<polygon fill="midnightblue" stroke="midnightblue" points="373.323,-133.24 362.847,-131.655 370.048,-139.427 373.323,-133.24"/>
</g>
<!-- Node18 -->
<g id="node18" class="node"><title>Node18</title>
<g id="a_node18"><a xlink:href="_status_8h.html" target="_top" xlink:title="Status.h">
<polygon fill="white" stroke="black" points="636,-56.5 636,-75.5 689,-75.5 689,-56.5 636,-56.5"/>
<text text-anchor="middle" x="662.5" y="-63.5" font-family="Helvetica,sans-Serif" font-size="10.00">Status.h</text>
</a>
</g>
</g>
<!-- Node1&#45;&gt;Node18 -->
<g id="edge26" class="edge"><title>Node1&#45;&gt;Node18</title>
<path fill="none" stroke="midnightblue" d="M474.502,-168.415C498.039,-160.254 533.377,-147.02 562.5,-132 591.705,-116.938 623.129,-95.5715 642.799,-81.5052"/>
<polygon fill="midnightblue" stroke="midnightblue" points="644.906,-84.3006 650.959,-75.6048 640.804,-78.6282 644.906,-84.3006"/>
</g>
<!-- Node19 -->
<g id="node19" class="node"><title>Node19</title>
<polygon fill="white" stroke="#bfbfbf" points="647.5,-112.5 647.5,-131.5 703.5,-131.5 703.5,-112.5 647.5,-112.5"/>
<text text-anchor="middle" x="675.5" y="-119.5" font-family="Helvetica,sans-Serif" font-size="10.00">algorithm</text>
</g>
<!-- Node1&#45;&gt;Node19 -->
<g id="edge29" class="edge"><title>Node1&#45;&gt;Node19</title>
<path fill="none" stroke="midnightblue" d="M484.469,-168.444C526.162,-158.525 594.591,-142.247 637.236,-132.102"/>
<polygon fill="midnightblue" stroke="midnightblue" points="638.311,-135.444 647.23,-129.725 636.691,-128.634 638.311,-135.444"/>
</g>
<!-- Node3 -->
<g id="node3" class="node"><title>Node3</title>
<polygon fill="white" stroke="#bfbfbf" points="0,-56.5 0,-75.5 35,-75.5 35,-56.5 0,-56.5"/>
<text text-anchor="middle" x="17.5" y="-63.5" font-family="Helvetica,sans-Serif" font-size="10.00">map</text>
</g>
<!-- Node2&#45;&gt;Node3 -->
<g id="edge2" class="edge"><title>Node2&#45;&gt;Node3</title>
<path fill="none" stroke="midnightblue" d="M117.644,-112.444C97.8914,-103.48 66.6913,-89.3221 44.3661,-79.1914"/>
<polygon fill="midnightblue" stroke="midnightblue" points="45.6565,-75.9334 35.1039,-74.9883 42.7639,-82.3078 45.6565,-75.9334"/>
</g>
<!-- Node2&#45;&gt;Node4 -->
<g id="edge3" class="edge"><title>Node2&#45;&gt;Node4</title>
<path fill="none" stroke="midnightblue" d="M162.486,-112.444C190.196,-103.32 234.252,-88.8133 265.116,-78.6509"/>
<polygon fill="midnightblue" stroke="midnightblue" points="266.232,-81.9684 274.635,-75.5164 264.042,-75.3196 266.232,-81.9684"/>
</g>
<!-- Node5 -->
<g id="node5" class="node"><title>Node5</title>
<polygon fill="white" stroke="#bfbfbf" points="53,-56.5 53,-75.5 96,-75.5 96,-56.5 53,-56.5"/>
<text text-anchor="middle" x="74.5" y="-63.5" font-family="Helvetica,sans-Serif" font-size="10.00">queue</text>
</g>
<!-- Node2&#45;&gt;Node5 -->
<g id="edge4" class="edge"><title>Node2&#45;&gt;Node5</title>
<path fill="none" stroke="midnightblue" d="M126.539,-112.324C117.373,-104.341 103.563,-92.3128 92.4718,-82.6529"/>
<polygon fill="midnightblue" stroke="midnightblue" points="94.4822,-79.7624 84.6426,-75.8339 89.8847,-85.041 94.4822,-79.7624"/>
</g>
<!-- Node6 -->
<g id="node6" class="node"><title>Node6</title>
<polygon fill="white" stroke="#bfbfbf" points="114.5,-56.5 114.5,-75.5 158.5,-75.5 158.5,-56.5 114.5,-56.5"/>
<text text-anchor="middle" x="136.5" y="-63.5" font-family="Helvetica,sans-Serif" font-size="10.00">vector</text>
</g>
<!-- Node2&#45;&gt;Node6 -->
<g id="edge5" class="edge"><title>Node2&#45;&gt;Node6</title>
<path fill="none" stroke="midnightblue" d="M136.5,-112.083C136.5,-105.006 136.5,-94.8611 136.5,-85.9865"/>
<polygon fill="midnightblue" stroke="midnightblue" points="140,-85.751 136.5,-75.7511 133,-85.7511 140,-85.751"/>
</g>
<!-- Node7&#45;&gt;Node4 -->
<g id="edge8" class="edge"><title>Node7&#45;&gt;Node4</title>
<path fill="none" stroke="midnightblue" d="M403.169,-112.444C383.18,-103.596 351.757,-89.6875 328.936,-79.5865"/>
<polygon fill="midnightblue" stroke="midnightblue" points="330.302,-76.3635 319.741,-75.5164 327.468,-82.7645 330.302,-76.3635"/>
</g>
<!-- Node7&#45;&gt;Node8 -->
<g id="edge7" class="edge"><title>Node7&#45;&gt;Node8</title>
<path fill="none" stroke="midnightblue" d="M427.124,-112.083C430.956,-104.691 436.524,-93.9533 441.265,-84.8111"/>
<polygon fill="midnightblue" stroke="midnightblue" points="444.466,-86.2398 445.962,-75.7511 438.252,-83.0175 444.466,-86.2398"/>
</g>
<!-- Node10 -->
<g id="node10" class="node"><title>Node10</title>
<polygon fill="white" stroke="#bfbfbf" points="633,-0.5 633,-19.5 692,-19.5 692,-0.5 633,-0.5"/>
<text text-anchor="middle" x="662.5" y="-7.5" font-family="Helvetica,sans-Serif" font-size="10.00">stdexcept</text>
</g>
<!-- Node9&#45;&gt;Node10 -->
<g id="edge10" class="edge"><title>Node9&#45;&gt;Node10</title>
<path fill="none" stroke="midnightblue" d="M727.129,-56.324C715.342,-48.0577 697.368,-35.4527 683.364,-25.6322"/>
<polygon fill="midnightblue" stroke="midnightblue" points="685.038,-22.5307 674.841,-19.6545 681.018,-28.2619 685.038,-22.5307"/>
</g>
<!-- Node11 -->
<g id="node11" class="node"><title>Node11</title>
<polygon fill="white" stroke="#bfbfbf" points="561,-0.5 561,-19.5 602,-19.5 602,-0.5 561,-0.5"/>
<text text-anchor="middle" x="581.5" y="-7.5" font-family="Helvetica,sans-Serif" font-size="10.00">string</text>
</g>
<!-- Node9&#45;&gt;Node11 -->
<g id="edge11" class="edge"><title>Node9&#45;&gt;Node11</title>
<path fill="none" stroke="midnightblue" d="M714.464,-56.4435C686.633,-46.9316 641.686,-31.5697 611.867,-21.3787"/>
<polygon fill="midnightblue" stroke="midnightblue" points="612.976,-18.059 602.382,-18.1368 610.712,-24.6829 612.976,-18.059"/>
</g>
<!-- Node12&#45;&gt;Node11 -->
<g id="edge16" class="edge"><title>Node12&#45;&gt;Node11</title>
<path fill="none" stroke="midnightblue" d="M527.824,-112.078C527.216,-99.056 527.526,-74.3932 536.5,-56 542.138,-44.4443 551.95,-34.0955 560.975,-26.2443"/>
<polygon fill="midnightblue" stroke="midnightblue" points="563.368,-28.8089 568.9,-19.7732 558.941,-23.3868 563.368,-28.8089"/>
</g>
<!-- Node13 -->
<g id="node13" class="node"><title>Node13</title>
<g id="a_node13"><a xlink:href="_event_type_8h.html" target="_top" xlink:title="EventType.h">
<polygon fill="white" stroke="black" points="545.5,-56.5 545.5,-75.5 617.5,-75.5 617.5,-56.5 545.5,-56.5"/>
<text text-anchor="middle" x="581.5" y="-63.5" font-family="Helvetica,sans-Serif" font-size="10.00">EventType.h</text>
</a>
</g>
</g>
<!-- Node12&#45;&gt;Node13 -->
<g id="edge13" class="edge"><title>Node12&#45;&gt;Node13</title>
<path fill="none" stroke="midnightblue" d="M537.252,-112.083C544.97,-104.22 556.405,-92.5688 565.717,-83.0813"/>
<polygon fill="midnightblue" stroke="midnightblue" points="568.404,-85.3396 572.911,-75.7511 563.408,-80.4363 568.404,-85.3396"/>
</g>
<!-- Node13&#45;&gt;Node10 -->
<g id="edge14" class="edge"><title>Node13&#45;&gt;Node10</title>
<path fill="none" stroke="midnightblue" d="M594.514,-56.324C607.032,-47.979 626.182,-35.2122 640.971,-25.3524"/>
<polygon fill="midnightblue" stroke="midnightblue" points="643.139,-28.1137 649.518,-19.6545 639.256,-22.2894 643.139,-28.1137"/>
</g>
<!-- Node13&#45;&gt;Node11 -->
<g id="edge15" class="edge"><title>Node13&#45;&gt;Node11</title>
<path fill="none" stroke="midnightblue" d="M581.5,-56.083C581.5,-49.0059 581.5,-38.8611 581.5,-29.9865"/>
<polygon fill="midnightblue" stroke="midnightblue" points="585,-29.751 581.5,-19.7511 578,-29.7511 585,-29.751"/>
</g>
<!-- Node14&#45;&gt;Node4 -->
<g id="edge19" class="edge"><title>Node14&#45;&gt;Node4</title>
<path fill="none" stroke="midnightblue" d="M237.55,-112.324C248.963,-104.107 266.331,-91.6017 279.935,-81.8069"/>
<polygon fill="midnightblue" stroke="midnightblue" points="282.16,-84.5174 288.231,-75.8339 278.07,-78.8366 282.16,-84.5174"/>
</g>
<!-- Node14&#45;&gt;Node6 -->
<g id="edge21" class="edge"><title>Node14&#45;&gt;Node6</title>
<path fill="none" stroke="midnightblue" d="M211.201,-112.324C197.317,-103.9 176.008,-90.9709 159.696,-81.0741"/>
<polygon fill="midnightblue" stroke="midnightblue" points="161.129,-77.8495 150.764,-75.6545 157.498,-83.8341 161.129,-77.8495"/>
</g>
<!-- Node14&#45;&gt;Node11 -->
<g id="edge20" class="edge"><title>Node14&#45;&gt;Node11</title>
<path fill="none" stroke="midnightblue" d="M218.222,-112.323C207.721,-98.719 191.08,-72.2487 205.5,-56 228.334,-30.2708 465.158,-16.5335 550.805,-12.3776"/>
<polygon fill="midnightblue" stroke="midnightblue" points="551.114,-15.867 560.936,-11.8967 550.782,-8.87486 551.114,-15.867"/>
</g>
<!-- Node15 -->
<g id="node15" class="node"><title>Node15</title>
<polygon fill="white" stroke="#bfbfbf" points="215,-56.5 215,-75.5 256,-75.5 256,-56.5 215,-56.5"/>
<text text-anchor="middle" x="235.5" y="-63.5" font-family="Helvetica,sans-Serif" font-size="10.00">ctime</text>
</g>
<!-- Node14&#45;&gt;Node15 -->
<g id="edge18" class="edge"><title>Node14&#45;&gt;Node15</title>
<path fill="none" stroke="midnightblue" d="M227.151,-112.083C228.476,-104.927 230.382,-94.6353 232.039,-85.6911"/>
<polygon fill="midnightblue" stroke="midnightblue" points="235.5,-86.2212 233.879,-75.7511 228.617,-84.9466 235.5,-86.2212"/>
</g>
<!-- Node16&#45;&gt;Node4 -->
<g id="edge24" class="edge"><title>Node16&#45;&gt;Node4</title>
<path fill="none" stroke="midnightblue" d="M338.904,-112.083C332.273,-104.298 322.479,-92.8015 314.442,-83.3665"/>
<polygon fill="midnightblue" stroke="midnightblue" points="317.104,-81.0939 307.955,-75.7511 311.775,-85.6332 317.104,-81.0939"/>
</g>
<!-- Node16&#45;&gt;Node15 -->
<g id="edge23" class="edge"><title>Node16&#45;&gt;Node15</title>
<path fill="none" stroke="midnightblue" d="M328.666,-112.324C310.784,-103.625 283.025,-90.1202 262.454,-80.113"/>
<polygon fill="midnightblue" stroke="midnightblue" points="263.813,-76.8819 253.29,-75.6545 260.751,-83.1765 263.813,-76.8819"/>
</g>
<!-- Node17 -->
<g id="node17" class="node"><title>Node17</title>
<polygon fill="white" stroke="#bfbfbf" points="345,-56.5 345,-75.5 394,-75.5 394,-56.5 345,-56.5"/>
<text text-anchor="middle" x="369.5" y="-63.5" font-family="Helvetica,sans-Serif" font-size="10.00">random</text>
</g>
<!-- Node16&#45;&gt;Node17 -->
<g id="edge25" class="edge"><title>Node16&#45;&gt;Node17</title>
<path fill="none" stroke="midnightblue" d="M350.298,-112.083C353.413,-104.77 357.923,-94.1814 361.789,-85.1034"/>
<polygon fill="midnightblue" stroke="midnightblue" points="365.074,-86.3229 365.773,-75.7511 358.634,-83.5798 365.074,-86.3229"/>
</g>
<!-- Node18&#45;&gt;Node10 -->
<g id="edge27" class="edge"><title>Node18&#45;&gt;Node10</title>
<path fill="none" stroke="midnightblue" d="M662.5,-56.083C662.5,-49.0059 662.5,-38.8611 662.5,-29.9865"/>
<polygon fill="midnightblue" stroke="midnightblue" points="666,-29.751 662.5,-19.7511 659,-29.7511 666,-29.751"/>
</g>
<!-- Node18&#45;&gt;Node11 -->
<g id="edge28" class="edge"><title>Node18&#45;&gt;Node11</title>
<path fill="none" stroke="midnightblue" d="M649.486,-56.324C636.968,-47.979 617.818,-35.2122 603.029,-25.3524"/>
<polygon fill="midnightblue" stroke="midnightblue" points="604.744,-22.2894 594.482,-19.6545 600.861,-28.1137 604.744,-22.2894"/>
</g>
</g>
</svg>
        <g id="navigator" transform="translate(0 0)" fill="#404254">
                <rect fill="#f2f5e9" fill-opacity="0.5" stroke="#606060" stroke-width=".5" x="0" y="0" width="60" height="60"/>
                <use id="zoomplus" xlink:href="#zoomPlus" x="17" y="9" onmousedown="handleZoom(evt,'in')"/>
                <use id="zoomminus" xlink:href="#zoomMin" x="42" y="9" onmousedown="handleZoom(evt,'out')"/>
                <use id="reset" xlink:href="#resetDef" x="30" y="36" onmousedown="handleReset()"/>
                <g id="arrowUp" xlink:href="#dirArrow" transform="translate(30 24)" onmousedown="handlePan(0,-1)">
                  <use xlink:href="#rim" fill="#404040">
                        <set attributeName="fill" to="#808080" begin="arrowUp.mouseover" end="arrowUp.mouseout"/>
                  </use>
                  <path fill="none" stroke="white" stroke-width="1.5" d="M0,-3.0v7 M-2.5,-0.5L0,-3.0L2.5,-0.5"/>
                </g>
                <g id="arrowRight" xlink:href="#dirArrow" transform="rotate(90) translate(36 -43)" onmousedown="handlePan(1,0)">
                  <use xlink:href="#rim" fill="#404040">
                        <set attributeName="fill" to="#808080" begin="arrowRight.mouseover" end="arrowRight.mouseout"/>
                  </use>
                  <path fill="none" stroke="white" stroke-width="1.5" d="M0,-3.0v7 M-2.5,-0.5L0,-3.0L2.5,-0.5"/>
                </g>
                <g id="arrowDown" xlink:href="#dirArrow" transform="rotate(180) translate(-30 -48)" onmousedown="handlePan(0,1)">
                  <use xlink:href="#rim" fill="#404040">
                        <set attributeName="fill" to="#808080" begin="arrowDown.mouseover" end="arrowDown.mouseout"/>
                  </use>
                  <path fill="none" stroke="white" stroke-width="1.5" d="M0,-3.0v7 M-2.5,-0.5L0,-3.0L2.5,-0.5"/>
                </g>
                <g id="arrowLeft" xlink:href="#dirArrow" transform="rotate(270) translate(-36 17)" onmousedown="handlePan(-1,0)">
                  <use xlink:href="#rim" fill="#404040">
                        <set attributeName="fill" to="#808080" begin="arrowLeft.mouseover" end="arrowLeft.mouseout"/>
                  </use>
                  <path fill="none" stroke="white" stroke-width="1.5" d="M0,-3.0v7 M-2.5,-0.5L0,-3.0L2.5,-0.5"/>
                </g>
        </g>
        <svg viewBox="0 0 15 15" width="100%" height="30px" preserveAspectRatio="xMaxYMin meet">
         <g id="arrow_out" transform="scale(0.3 0.3)">
          <a xlink:href="_elevator_8cpp__incl_org.svg" target="_base">
           <rect id="button" ry="5" rx="5" y="6" x="6" height="38" width="38"
                fill="#f2f5e9" fill-opacity="0.5" stroke="#606060" stroke-width="1.0"/>
           <path id="arrow"
             d="M 11.500037,31.436501 C 11.940474,20.09759 22.043105,11.32322 32.158766,21.979434 L 37.068811,17.246167 C 37.068811,17.246167 37.088388,32 37.088388,32 L 22.160133,31.978069 C 22.160133,31.978069 26.997745,27.140456 26.997745,27.140456 C 18.528582,18.264221 13.291696,25.230495 11.500037,31.436501 z"
             style="fill:#404040;"/>
          </a>
         </g>
        </svg>
</svg>
