<?xml version="1.0" encoding="UTF-8" standalone="no"?>
<!DOCTYPE svg PUBLIC "-//W3C//DTD SVG 1.1//EN"
 "http://www.w3.org/Graphics/SVG/1.1/DTD/svg11.dtd">
<!-- Generated by graphviz version 2.38.0 (20140413.2041)
 -->
<!-- Title: include/Elevator.h Pages: 1 -->
<!--zoomable 95 -->
<svg id="main" version="1.1" xmlns="http://www.w3.org/2000/svg" xmlns:xlink="http://www.w3.org/1999/xlink" xml:space="preserve" onload="init(evt)">
<style type="text/css"><![CDATA[
.edge:hover path { stroke: red; }
.edge:hover polygon { stroke: red; fill: red; }
]]></style>
<script type="text/javascript"><![CDATA[
var edges = document.getElementsByTagName('g');
if (edges && edges.length) {
  for (var i=0;i<edges.length;i++) {
    if (edges[i].id.substr(0,4)=='edge') {
      edges[i].setAttribute('class','edge');
    }
  }
}
]]></script>
        <defs>
                <circle id="rim" cx="0" cy="0" r="7"/>
                <circle id="rim2" cx="0" cy="0" r="3.5"/>
                <g id="zoomPlus">
                        <use xlink:href="#rim" fill="#404040">
                                <set attributeName="fill" to="#808080" begin="zoomplus.mouseover" end="zoomplus.mouseout"/>
                        </use>
                        <path d="M-4,0h8M0,-4v8" fill="none" stroke="white" stroke-width="1.5" pointer-events="none"/>
                </g>
                <g id="zoomMin">
                        <use xlink:href="#rim" fill="#404040">
                                <set attributeName="fill" to="#808080" begin="zoomminus.mouseover" end="zoomminus.mouseout"/>
                        </use>
                        <path d="M-4,0h8" fill="none" stroke="white" stroke-width="1.5" pointer-events="none"/>
                </g>
                <g id="dirArrow">
                        <path fill="none" stroke="white" stroke-width="1.5" d="M0,-3.0v7 M-2.5,-0.5L0,-3.0L2.5,-0.5"/>
                </g>
               <g id="resetDef">
                       <use xlink:href="#rim2" fill="#404040">
                               <set attributeName="fill" to="#808080" begin="reset.mouseover" end="reset.mouseout"/>
                       </use>
               </g>
        </defs>

<script type="text/javascript">
var viewWidth = 1800;
var viewHeight = 95;
var sectionId = 'dynsection-1';
</script>
<script xlink:href="svgpan.js"/>
<svg id="graph" class="graph">
<g id="viewport">
<title>include/Elevator.h</title>
<polygon fill="white" stroke="none" points="-4,4 -4,-91 1796,-91 1796,4 -4,4"/>
<!-- Node1 -->
<g id="node1" class="node"><title>Node1</title>
<polygon fill="#bfbfbf" stroke="black" points="857.5,-67.5 857.5,-86.5 952.5,-86.5 952.5,-67.5 857.5,-67.5"/>
<text text-anchor="middle" x="905" y="-74.5" font-family="Helvetica,sans-Serif" font-size="10.00">include/Elevator.h</text>
</g>
<!-- Node2 -->
<g id="node2" class="node"><title>Node2</title>
<g id="a_node2"><a xlink:href="_better_nearest_neighbour_cost_function_8cpp.html" target="_top" xlink:title="src/BetterNearestNeighbour\lCostFunction.cpp">
<polygon fill="white" stroke="black" points="0,-0.5 0,-30.5 138,-30.5 138,-0.5 0,-0.5"/>
<text text-anchor="start" x="8" y="-18.5" font-family="Helvetica,sans-Serif" font-size="10.00">src/BetterNearestNeighbour</text>
<text text-anchor="middle" x="69" y="-7.5" font-family="Helvetica,sans-Serif" font-size="10.00">CostFunction.cpp</text>
</a>
</g>
</g>
<!-- Node1&#45;&gt;Node2 -->
<g id="edge1" class="edge"><title>Node1&#45;&gt;Node2</title>
<path fill="none" stroke="midnightblue" d="M847.086,-75.0179C719.937,-72.3243 406.966,-62.7549 147,-31 144.129,-30.6493 141.204,-30.2585 138.253,-29.8367"/>
<polygon fill="midnightblue" stroke="midnightblue" points="847.294,-78.5229 857.364,-75.2292 847.438,-71.5243 847.294,-78.5229"/>
</g>
<!-- Node3 -->
<g id="node3" class="node"><title>Node3</title>
<g id="a_node3"><a xlink:href="_building_8cpp.html" target="_top" xlink:title="src/Building.cpp">
<polygon fill="white" stroke="black" points="156,-6 156,-25 242,-25 242,-6 156,-6"/>
<text text-anchor="middle" x="199" y="-13" font-family="Helvetica,sans-Serif" font-size="10.00">src/Building.cpp</text>
</a>
</g>
</g>
<!-- Node1&#45;&gt;Node3 -->
<g id="edge2" class="edge"><title>Node1&#45;&gt;Node3</title>
<path fill="none" stroke="midnightblue" d="M847.122,-75.9481C732.487,-74.9822 468.808,-68.4596 251,-31 242.595,-29.5544 233.594,-27.3044 225.484,-25.0044"/>
<polygon fill="midnightblue" stroke="midnightblue" points="847.392,-79.4501 857.417,-76.0231 847.443,-72.4502 847.392,-79.4501"/>
</g>
<!-- Node4 -->
<g id="node4" class="node"><title>Node4</title>
<g id="a_node4"><a xlink:href="_dummy_cost_function_8cpp.html" target="_top" xlink:title="src/DummyCostFunction.cpp">
<polygon fill="white" stroke="black" points="260.5,-6 260.5,-25 405.5,-25 405.5,-6 260.5,-6"/>
<text text-anchor="middle" x="333" y="-13" font-family="Helvetica,sans-Serif" font-size="10.00">src/DummyCostFunction.cpp</text>
</a>
</g>
</g>
<!-- Node1&#45;&gt;Node4 -->
<g id="edge3" class="edge"><title>Node1&#45;&gt;Node4</title>
<path fill="none" stroke="midnightblue" d="M847.001,-72.2473C755.107,-65.9478 570.514,-51.8536 415,-31 402.677,-29.3476 389.38,-27.169 377.153,-25.0043"/>
<polygon fill="midnightblue" stroke="midnightblue" points="846.991,-75.7547 857.206,-72.9409 847.466,-68.7708 846.991,-75.7547"/>
</g>
<!-- Node5 -->
<g id="node5" class="node"><title>Node5</title>
<g id="a_node5"><a xlink:href="_elevator_8cpp.html" target="_top" xlink:title="src/Elevator.cpp">
<polygon fill="white" stroke="black" points="424,-6 424,-25 512,-25 512,-6 424,-6"/>
<text text-anchor="middle" x="468" y="-13" font-family="Helvetica,sans-Serif" font-size="10.00">src/Elevator.cpp</text>
</a>
</g>
</g>
<!-- Node1&#45;&gt;Node5 -->
<g id="edge4" class="edge"><title>Node1&#45;&gt;Node5</title>
<path fill="none" stroke="midnightblue" d="M847.105,-71.9436C771.572,-66.0298 635.535,-53.2475 521,-31 512.853,-29.4175 504.122,-27.2359 496.145,-25.0453"/>
<polygon fill="midnightblue" stroke="midnightblue" points="847.114,-75.4545 857.353,-72.7327 847.651,-68.4752 847.114,-75.4545"/>
</g>
<!-- Node6 -->
<g id="node6" class="node"><title>Node6</title>
<g id="a_node6"><a xlink:href="_floor_8cpp.html" target="_top" xlink:title="src/Floor.cpp">
<polygon fill="white" stroke="black" points="530,-6 530,-25 604,-25 604,-6 530,-6"/>
<text text-anchor="middle" x="567" y="-13" font-family="Helvetica,sans-Serif" font-size="10.00">src/Floor.cpp</text>
</a>
</g>
</g>
<!-- Node1&#45;&gt;Node6 -->
<g id="edge5" class="edge"><title>Node1&#45;&gt;Node6</title>
<path fill="none" stroke="midnightblue" d="M847.001,-69.7058C787.719,-62.6564 693.227,-49.7112 613,-31 605.987,-29.3644 598.495,-27.1913 591.636,-25.0265"/>
<polygon fill="midnightblue" stroke="midnightblue" points="846.948,-73.2235 857.287,-70.9118 847.763,-66.2711 846.948,-73.2235"/>
</g>
<!-- Node7 -->
<g id="node7" class="node"><title>Node7</title>
<g id="a_node7"><a xlink:href="_nearest_neighbour_cost_function_8cpp.html" target="_top" xlink:title="src/NearestNeighbourCost\lFunction.cpp">
<polygon fill="white" stroke="black" points="622.5,-0.5 622.5,-30.5 755.5,-30.5 755.5,-0.5 622.5,-0.5"/>
<text text-anchor="start" x="630.5" y="-18.5" font-family="Helvetica,sans-Serif" font-size="10.00">src/NearestNeighbourCost</text>
<text text-anchor="middle" x="689" y="-7.5" font-family="Helvetica,sans-Serif" font-size="10.00">Function.cpp</text>
</a>
</g>
</g>
<!-- Node1&#45;&gt;Node7 -->
<g id="edge6" class="edge"><title>Node1&#45;&gt;Node7</title>
<path fill="none" stroke="midnightblue" d="M864.103,-64.7343C828.85,-55.0234 777.799,-40.9607 739.907,-30.523"/>
<polygon fill="midnightblue" stroke="midnightblue" points="863.482,-68.1936 874.052,-67.4751 865.341,-61.445 863.482,-68.1936"/>
</g>
<!-- Node8 -->
<g id="node8" class="node"><title>Node8</title>
<g id="a_node8"><a xlink:href="_planning_scheduler_8cpp.html" target="_top" xlink:title="src/PlanningScheduler.cpp">
<polygon fill="white" stroke="black" points="773.5,-6 773.5,-25 906.5,-25 906.5,-6 773.5,-6"/>
<text text-anchor="middle" x="840" y="-13" font-family="Helvetica,sans-Serif" font-size="10.00">src/PlanningScheduler.cpp</text>
</a>
</g>
</g>
<!-- Node1&#45;&gt;Node8 -->
<g id="edge7" class="edge"><title>Node1&#45;&gt;Node8</title>
<path fill="none" stroke="midnightblue" d="M888.231,-60.6496C875.838,-49.3058 859.425,-34.2811 849.296,-25.0091"/>
<polygon fill="midnightblue" stroke="midnightblue" points="885.948,-63.3047 895.687,-67.4751 890.674,-58.1413 885.948,-63.3047"/>
</g>
<!-- Node9 -->
<g id="node9" class="node"><title>Node9</title>
<g id="a_node9"><a xlink:href="_scenario_8cpp.html" target="_top" xlink:title="src/Scenario.cpp">
<polygon fill="white" stroke="black" points="925,-6 925,-25 1015,-25 1015,-6 925,-6"/>
<text text-anchor="middle" x="970" y="-13" font-family="Helvetica,sans-Serif" font-size="10.00">src/Scenario.cpp</text>
</a>
</g>
</g>
<!-- Node1&#45;&gt;Node9 -->
<g id="edge8" class="edge"><title>Node1&#45;&gt;Node9</title>
<path fill="none" stroke="midnightblue" d="M921.769,-60.6496C934.162,-49.3058 950.575,-34.2811 960.704,-25.0091"/>
<polygon fill="midnightblue" stroke="midnightblue" points="919.326,-58.1413 914.313,-67.4751 924.052,-63.3047 919.326,-58.1413"/>
</g>
<!-- Node10 -->
<g id="node10" class="node"><title>Node10</title>
<g id="a_node10"><a xlink:href="_scheduler_8cpp.html" target="_top" xlink:title="src/Scheduler.cpp">
<polygon fill="white" stroke="black" points="1033.5,-6 1033.5,-25 1128.5,-25 1128.5,-6 1033.5,-6"/>
<text text-anchor="middle" x="1081" y="-13" font-family="Helvetica,sans-Serif" font-size="10.00">src/Scheduler.cpp</text>
</a>
</g>
</g>
<!-- Node1&#45;&gt;Node10 -->
<g id="edge9" class="edge"><title>Node1&#45;&gt;Node10</title>
<path fill="none" stroke="midnightblue" d="M939.81,-64.232C974.022,-52.666 1025.4,-35.2966 1055.83,-25.0091"/>
<polygon fill="midnightblue" stroke="midnightblue" points="938.569,-60.9568 930.217,-67.4751 940.811,-67.5881 938.569,-60.9568"/>
</g>
<!-- Node11 -->
<g id="node11" class="node"><title>Node11</title>
<g id="a_node11"><a xlink:href="_simple_scheduler_8cpp.html" target="_top" xlink:title="src/SimpleScheduler.cpp">
<polygon fill="white" stroke="black" points="1146.5,-6 1146.5,-25 1271.5,-25 1271.5,-6 1146.5,-6"/>
<text text-anchor="middle" x="1209" y="-13" font-family="Helvetica,sans-Serif" font-size="10.00">src/SimpleScheduler.cpp</text>
</a>
</g>
</g>
<!-- Node1&#45;&gt;Node11 -->
<g id="edge10" class="edge"><title>Node1&#45;&gt;Node11</title>
<path fill="none" stroke="midnightblue" d="M960.151,-65.5204C1007.38,-56.5041 1077.2,-43.0793 1138,-31 1147.62,-29.0878 1157.98,-26.9947 1167.72,-25.0085"/>
<polygon fill="midnightblue" stroke="midnightblue" points="959.298,-62.1198 950.131,-67.4316 960.609,-68.9959 959.298,-62.1198"/>
</g>
<!-- Node12 -->
<g id="node12" class="node"><title>Node12</title>
<g id="a_node12"><a xlink:href="_simulator_8cpp.html" target="_top" xlink:title="src/Simulator.cpp">
<polygon fill="white" stroke="black" points="1289.5,-6 1289.5,-25 1382.5,-25 1382.5,-6 1289.5,-6"/>
<text text-anchor="middle" x="1336" y="-13" font-family="Helvetica,sans-Serif" font-size="10.00">src/Simulator.cpp</text>
</a>
</g>
</g>
<!-- Node1&#45;&gt;Node12 -->
<g id="edge11" class="edge"><title>Node1&#45;&gt;Node12</title>
<path fill="none" stroke="midnightblue" d="M962.573,-71.607C1036.68,-65.3826 1169.21,-52.3195 1281,-31 1289.44,-29.3906 1298.49,-27.2005 1306.77,-25.0101"/>
<polygon fill="midnightblue" stroke="midnightblue" points="962.19,-68.1267 952.512,-72.4401 962.767,-75.1028 962.19,-68.1267"/>
</g>
<!-- Node13 -->
<g id="node13" class="node"><title>Node13</title>
<g id="a_node13"><a xlink:href="_statistics_8cpp.html" target="_top" xlink:title="src/Statistics.cpp">
<polygon fill="white" stroke="black" points="1400.5,-6 1400.5,-25 1493.5,-25 1493.5,-6 1400.5,-6"/>
<text text-anchor="middle" x="1447" y="-13" font-family="Helvetica,sans-Serif" font-size="10.00">src/Statistics.cpp</text>
</a>
</g>
</g>
<!-- Node1&#45;&gt;Node13 -->
<g id="edge12" class="edge"><title>Node1&#45;&gt;Node13</title>
<path fill="none" stroke="midnightblue" d="M962.881,-73.7542C1054.53,-69.5034 1238.43,-58.146 1392,-31 1400.65,-29.4702 1409.94,-27.2516 1418.37,-25.0079"/>
<polygon fill="midnightblue" stroke="midnightblue" points="962.534,-70.2662 952.702,-74.2145 962.85,-77.2591 962.534,-70.2662"/>
</g>
<!-- Node14 -->
<g id="node14" class="node"><title>Node14</title>
<g id="a_node14"><a xlink:href="_stop_manager_8cpp.html" target="_top" xlink:title="src/StopManager.cpp">
<polygon fill="white" stroke="black" points="1512,-6 1512,-25 1622,-25 1622,-6 1512,-6"/>
<text text-anchor="middle" x="1567" y="-13" font-family="Helvetica,sans-Serif" font-size="10.00">src/StopManager.cpp</text>
</a>
</g>
</g>
<!-- Node1&#45;&gt;Node14 -->
<g id="edge13" class="edge"><title>Node1&#45;&gt;Node14</title>
<path fill="none" stroke="midnightblue" d="M962.818,-74.4849C1069.92,-71.0506 1306.21,-60.5321 1503,-31 1513.03,-29.4952 1523.82,-27.2842 1533.63,-25.0399"/>
<polygon fill="midnightblue" stroke="midnightblue" points="962.44,-70.9949 952.554,-74.8048 962.658,-77.9915 962.44,-70.9949"/>
</g>
<!-- Node15 -->
<g id="node15" class="node"><title>Node15</title>
<g id="a_node15"><a xlink:href="_weighted_cost_function_8cpp.html" target="_top" xlink:title="src/WeightedCostFunction.cpp">
<polygon fill="white" stroke="black" points="1640,-6 1640,-25 1792,-25 1792,-6 1640,-6"/>
<text text-anchor="middle" x="1716" y="-13" font-family="Helvetica,sans-Serif" font-size="10.00">src/WeightedCostFunction.cpp</text>
</a>
</g>
</g>
<!-- Node1&#45;&gt;Node15 -->
<g id="edge14" class="edge"><title>Node1&#45;&gt;Node15</title>
<path fill="none" stroke="midnightblue" d="M963.061,-74.5109C1086.41,-70.884 1383.56,-59.69 1631,-31 1644.23,-29.4655 1658.54,-27.2454 1671.57,-25.0018"/>
<polygon fill="midnightblue" stroke="midnightblue" points="962.619,-71.0221 952.724,-74.8089 962.821,-78.0191 962.619,-71.0221"/>
</g>
</g>
</svg>
        <g id="navigator" transform="translate(0 0)" fill="#404254">
                <rect fill="#f2f5e9" fill-opacity="0.5" stroke="#606060" stroke-width=".5" x="0" y="0" width="60" height="60"/>
                <use id="zoomplus" xlink:href="#zoomPlus" x="17" y="9" onmousedown="handleZoom(evt,'in')"/>
                <use id="zoomminus" xlink:href="#zoomMin" x="42" y="9" onmousedown="handleZoom(evt,'out')"/>
                <use id="reset" xlink:href="#resetDef" x="30" y="36" onmousedown="handleReset()"/>
                <g id="arrowUp" xlink:href="#dirArrow" transform="translate(30 24)" onmousedown="handlePan(0,-1)">
                  <use xlink:href="#rim" fill="#404040">
                        <set attributeName="fill" to="#808080" begin="arrowUp.mouseover" end="arrowUp.mouseout"/>
                  </use>
                  <path fill="none" stroke="white" stroke-width="1.5" d="M0,-3.0v7 M-2.5,-0.5L0,-3.0L2.5,-0.5"/>
                </g>
                <g id="arrowRight" xlink:href="#dirArrow" transform="rotate(90) translate(36 -43)" onmousedown="handlePan(1,0)">
                  <use xlink:href="#rim" fill="#404040">
                        <set attributeName="fill" to="#808080" begin="arrowRight.mouseover" end="arrowRight.mouseout"/>
                  </use>
                  <path fill="none" stroke="white" stroke-width="1.5" d="M0,-3.0v7 M-2.5,-0.5L0,-3.0L2.5,-0.5"/>
                </g>
                <g id="arrowDown" xlink:href="#dirArrow" transform="rotate(180) translate(-30 -48)" onmousedown="handlePan(0,1)">
                  <use xlink:href="#rim" fill="#404040">
                        <set attributeName="fill" to="#808080" begin="arrowDown.mouseover" end="arrowDown.mouseout"/>
                  </use>
                  <path fill="none" stroke="white" stroke-width="1.5" d="M0,-3.0v7 M-2.5,-0.5L0,-3.0L2.5,-0.5"/>
                </g>
                <g id="arrowLeft" xlink:href="#dirArrow" transform="rotate(270) translate(-36 17)" onmousedown="handlePan(-1,0)">
                  <use xlink:href="#rim" fill="#404040">
                        <set attributeName="fill" to="#808080" begin="arrowLeft.mouseover" end="arrowLeft.mouseout"/>
                  </use>
                  <path fill="none" stroke="white" stroke-width="1.5" d="M0,-3.0v7 M-2.5,-0.5L0,-3.0L2.5,-0.5"/>
                </g>
        </g>
        <svg viewBox="0 0 15 15" width="100%" height="30px" preserveAspectRatio="xMaxYMin meet">
         <g id="arrow_out" transform="scale(0.3 0.3)">
          <a xlink:href="_elevator_8h__dep__incl_org.svg" target="_base">
           <rect id="button" ry="5" rx="5" y="6" x="6" height="38" width="38"
                fill="#f2f5e9" fill-opacity="0.5" stroke="#606060" stroke-width="1.0"/>
           <path id="arrow"
             d="M 11.500037,31.436501 C 11.940474,20.09759 22.043105,11.32322 32.158766,21.979434 L 37.068811,17.246167 C 37.068811,17.246167 37.088388,32 37.088388,32 L 22.160133,31.978069 C 22.160133,31.978069 26.997745,27.140456 26.997745,27.140456 C 18.528582,18.264221 13.291696,25.230495 11.500037,31.436501 z"
             style="fill:#404040;"/>
          </a>
         </g>
        </svg>
</svg>
