<?xml version="1.0" encoding="UTF-8" standalone="no"?>
<!DOCTYPE svg PUBLIC "-//W3C//DTD SVG 1.1//EN"
 "http://www.w3.org/Graphics/SVG/1.1/DTD/svg11.dtd">
<!-- Generated by graphviz version 2.38.0 (20140413.2041)
 -->
<!-- Title: include/Elevator.h Pages: 1 -->
<svg width="238pt" height="84pt"
 viewBox="0.00 0.00 237.50 84.00" xmlns="http://www.w3.org/2000/svg" xmlns:xlink="http://www.w3.org/1999/xlink">
<g id="graph0" class="graph" transform="scale(1 1) rotate(0) translate(4 80)">
<title>include/Elevator.h</title>
<polygon fill="white" stroke="none" points="-4,4 -4,-80 233.5,-80 233.5,4 -4,4"/>
<!-- Node1 -->
<g id="node1" class="node"><title>Node1</title>
<polygon fill="#bfbfbf" stroke="black" points="65,-56.5 65,-75.5 160,-75.5 160,-56.5 65,-56.5"/>
<text text-anchor="middle" x="112.5" y="-63.5" font-family="Helvetica,sans-Serif" font-size="10.00">include/Elevator.h</text>
</g>
<!-- Node2 -->
<g id="node2" class="node"><title>Node2</title>
<polygon fill="white" stroke="#bfbfbf" points="0,-0.5 0,-19.5 35,-19.5 35,-0.5 0,-0.5"/>
<text text-anchor="middle" x="17.5" y="-7.5" font-family="Helvetica,sans-Serif" font-size="10.00">map</text>
</g>
<!-- Node1&#45;&gt;Node2 -->
<g id="edge1" class="edge"><title>Node1&#45;&gt;Node2</title>
<path fill="none" stroke="midnightblue" d="M97.2366,-56.324C82.2786,-47.8215 59.2452,-34.7288 41.7733,-24.7975"/>
<polygon fill="midnightblue" stroke="midnightblue" points="43.1488,-21.5534 32.7255,-19.6545 39.6896,-27.639 43.1488,-21.5534"/>
</g>
<!-- Node3 -->
<g id="node3" class="node"><title>Node3</title>
<polygon fill="white" stroke="#bfbfbf" points="53.5,-0.5 53.5,-19.5 105.5,-19.5 105.5,-0.5 53.5,-0.5"/>
<text text-anchor="middle" x="79.5" y="-7.5" font-family="Helvetica,sans-Serif" font-size="10.00">memory</text>
</g>
<!-- Node1&#45;&gt;Node3 -->
<g id="edge2" class="edge"><title>Node1&#45;&gt;Node3</title>
<path fill="none" stroke="midnightblue" d="M107.051,-56.083C102.486,-48.6127 95.8316,-37.7244 90.2066,-28.5199"/>
<polygon fill="midnightblue" stroke="midnightblue" points="93.0489,-26.4588 84.8479,-19.7511 87.0759,-30.109 93.0489,-26.4588"/>
</g>
<!-- Node4 -->
<g id="node4" class="node"><title>Node4</title>
<polygon fill="white" stroke="#bfbfbf" points="124,-0.5 124,-19.5 167,-19.5 167,-0.5 124,-0.5"/>
<text text-anchor="middle" x="145.5" y="-7.5" font-family="Helvetica,sans-Serif" font-size="10.00">queue</text>
</g>
<!-- Node1&#45;&gt;Node4 -->
<g id="edge3" class="edge"><title>Node1&#45;&gt;Node4</title>
<path fill="none" stroke="midnightblue" d="M117.949,-56.083C122.514,-48.6127 129.168,-37.7244 134.793,-28.5199"/>
<polygon fill="midnightblue" stroke="midnightblue" points="137.924,-30.109 140.152,-19.7511 131.951,-26.4588 137.924,-30.109"/>
</g>
<!-- Node5 -->
<g id="node5" class="node"><title>Node5</title>
<polygon fill="white" stroke="#bfbfbf" points="185.5,-0.5 185.5,-19.5 229.5,-19.5 229.5,-0.5 185.5,-0.5"/>
<text text-anchor="middle" x="207.5" y="-7.5" font-family="Helvetica,sans-Serif" font-size="10.00">vector</text>
</g>
<!-- Node1&#45;&gt;Node5 -->
<g id="edge4" class="edge"><title>Node1&#45;&gt;Node5</title>
<path fill="none" stroke="midnightblue" d="M127.763,-56.324C142.721,-47.8215 165.755,-34.7288 183.227,-24.7975"/>
<polygon fill="midnightblue" stroke="midnightblue" points="185.31,-27.639 192.274,-19.6545 181.851,-21.5534 185.31,-27.639"/>
</g>
</g>
</svg>
