<?xml version="1.0" encoding="UTF-8" standalone="no"?>
<!DOCTYPE svg PUBLIC "-//W3C//DTD SVG 1.1//EN"
 "http://www.w3.org/Graphics/SVG/1.1/DTD/svg11.dtd">
<!-- Generated by graphviz version 2.38.0 (20140413.2041)
 -->
<!-- Title: include/EventComparator.h Pages: 1 -->
<svg width="446pt" height="140pt"
 viewBox="0.00 0.00 445.50 140.00" xmlns="http://www.w3.org/2000/svg" xmlns:xlink="http://www.w3.org/1999/xlink">
<g id="graph0" class="graph" transform="scale(1 1) rotate(0) translate(4 136)">
<title>include/EventComparator.h</title>
<polygon fill="white" stroke="none" points="-4,4 -4,-136 441.5,-136 441.5,4 -4,4"/>
<!-- Node1 -->
<g id="node1" class="node"><title>Node1</title>
<polygon fill="#bfbfbf" stroke="black" points="97.5,-112.5 97.5,-131.5 232.5,-131.5 232.5,-112.5 97.5,-112.5"/>
<text text-anchor="middle" x="165" y="-119.5" font-family="Helvetica,sans-Serif" font-size="10.00">include/EventComparator.h</text>
</g>
<!-- Node2 -->
<g id="node2" class="node"><title>Node2</title>
<g id="a_node2"><a xlink:href="_event_comparator_8cpp.html" target="_top" xlink:title="src/EventComparator.cpp">
<polygon fill="white" stroke="black" points="32,-56.5 32,-75.5 160,-75.5 160,-56.5 32,-56.5"/>
<text text-anchor="middle" x="96" y="-63.5" font-family="Helvetica,sans-Serif" font-size="10.00">src/EventComparator.cpp</text>
</a>
</g>
</g>
<!-- Node1&#45;&gt;Node2 -->
<g id="edge1" class="edge"><title>Node1&#45;&gt;Node2</title>
<path fill="none" stroke="midnightblue" d="M145.962,-106.101C133.544,-96.3824 117.757,-84.0269 107.288,-75.8339"/>
<polygon fill="midnightblue" stroke="midnightblue" points="143.882,-108.917 153.914,-112.324 148.196,-103.405 143.882,-108.917"/>
</g>
<!-- Node3 -->
<g id="node3" class="node"><title>Node3</title>
<g id="a_node3"><a xlink:href="_event_queue_8h.html" target="_top" xlink:title="include/EventQueue.h">
<polygon fill="white" stroke="black" points="178.5,-56.5 178.5,-75.5 291.5,-75.5 291.5,-56.5 178.5,-56.5"/>
<text text-anchor="middle" x="235" y="-63.5" font-family="Helvetica,sans-Serif" font-size="10.00">include/EventQueue.h</text>
</a>
</g>
</g>
<!-- Node1&#45;&gt;Node3 -->
<g id="edge2" class="edge"><title>Node1&#45;&gt;Node3</title>
<path fill="none" stroke="midnightblue" d="M184.314,-106.101C196.912,-96.3824 212.928,-84.0269 223.549,-75.8339"/>
<polygon fill="midnightblue" stroke="midnightblue" points="182.027,-103.445 176.247,-112.324 186.302,-108.987 182.027,-103.445"/>
</g>
<!-- Node4 -->
<g id="node4" class="node"><title>Node4</title>
<g id="a_node4"><a xlink:href="_event_factory_8cpp.html" target="_top" xlink:title="src/EventFactory.cpp">
<polygon fill="white" stroke="black" points="0,-0.5 0,-19.5 110,-19.5 110,-0.5 0,-0.5"/>
<text text-anchor="middle" x="55" y="-7.5" font-family="Helvetica,sans-Serif" font-size="10.00">src/EventFactory.cpp</text>
</a>
</g>
</g>
<!-- Node3&#45;&gt;Node4 -->
<g id="edge3" class="edge"><title>Node3&#45;&gt;Node4</title>
<path fill="none" stroke="midnightblue" d="M196.892,-53.5677C162.937,-43.381 114.011,-28.7034 83.3881,-19.5164"/>
<polygon fill="midnightblue" stroke="midnightblue" points="195.894,-56.9224 206.478,-56.4435 197.906,-50.2176 195.894,-56.9224"/>
</g>
<!-- Node5 -->
<g id="node5" class="node"><title>Node5</title>
<g id="a_node5"><a xlink:href="_event_queue_8cpp.html" target="_top" xlink:title="src/EventQueue.cpp">
<polygon fill="white" stroke="black" points="128,-0.5 128,-19.5 234,-19.5 234,-0.5 128,-0.5"/>
<text text-anchor="middle" x="181" y="-7.5" font-family="Helvetica,sans-Serif" font-size="10.00">src/EventQueue.cpp</text>
</a>
</g>
</g>
<!-- Node3&#45;&gt;Node5 -->
<g id="edge4" class="edge"><title>Node3&#45;&gt;Node5</title>
<path fill="none" stroke="midnightblue" d="M219.002,-49.0024C209.433,-39.4329 197.639,-27.6389 189.751,-19.7511"/>
<polygon fill="midnightblue" stroke="midnightblue" points="216.537,-51.4868 226.083,-56.083 221.487,-46.537 216.537,-51.4868"/>
</g>
<!-- Node6 -->
<g id="node6" class="node"><title>Node6</title>
<g id="a_node6"><a xlink:href="_floor_8cpp.html" target="_top" xlink:title="src/Floor.cpp">
<polygon fill="white" stroke="black" points="252,-0.5 252,-19.5 326,-19.5 326,-0.5 252,-0.5"/>
<text text-anchor="middle" x="289" y="-7.5" font-family="Helvetica,sans-Serif" font-size="10.00">src/Floor.cpp</text>
</a>
</g>
</g>
<!-- Node3&#45;&gt;Node6 -->
<g id="edge5" class="edge"><title>Node3&#45;&gt;Node6</title>
<path fill="none" stroke="midnightblue" d="M250.998,-49.0024C260.567,-39.4329 272.361,-27.6389 280.249,-19.7511"/>
<polygon fill="midnightblue" stroke="midnightblue" points="248.513,-46.537 243.917,-56.083 253.463,-51.4868 248.513,-46.537"/>
</g>
<!-- Node7 -->
<g id="node7" class="node"><title>Node7</title>
<g id="a_node7"><a xlink:href="_simulator_8cpp.html" target="_top" xlink:title="src/Simulator.cpp">
<polygon fill="white" stroke="black" points="344.5,-0.5 344.5,-19.5 437.5,-19.5 437.5,-0.5 344.5,-0.5"/>
<text text-anchor="middle" x="391" y="-7.5" font-family="Helvetica,sans-Serif" font-size="10.00">src/Simulator.cpp</text>
</a>
</g>
</g>
<!-- Node3&#45;&gt;Node7 -->
<g id="edge6" class="edge"><title>Node3&#45;&gt;Node7</title>
<path fill="none" stroke="midnightblue" d="M269.17,-53.172C298.544,-43.0039 340.198,-28.5852 366.397,-19.5164"/>
<polygon fill="midnightblue" stroke="midnightblue" points="268.024,-49.8649 259.719,-56.4435 270.313,-56.4798 268.024,-49.8649"/>
</g>
</g>
</svg>
