<?xml version="1.0" encoding="UTF-8" standalone="no"?>
<!DOCTYPE svg PUBLIC "-//W3C//DTD SVG 1.1//EN"
 "http://www.w3.org/Graphics/SVG/1.1/DTD/svg11.dtd">
<!-- Generated by graphviz version 2.38.0 (20140413.2041)
 -->
<!-- Title: include/EventQueue.h Pages: 1 -->
<svg width="314pt" height="196pt"
 viewBox="0.00 0.00 313.50 196.00" xmlns="http://www.w3.org/2000/svg" xmlns:xlink="http://www.w3.org/1999/xlink">
<g id="graph0" class="graph" transform="scale(1 1) rotate(0) translate(4 192)">
<title>include/EventQueue.h</title>
<polygon fill="white" stroke="none" points="-4,4 -4,-192 309.5,-192 309.5,4 -4,4"/>
<!-- Node1 -->
<g id="node1" class="node"><title>Node1</title>
<polygon fill="#bfbfbf" stroke="black" points="137.5,-168.5 137.5,-187.5 250.5,-187.5 250.5,-168.5 137.5,-168.5"/>
<text text-anchor="middle" x="194" y="-175.5" font-family="Helvetica,sans-Serif" font-size="10.00">include/EventQueue.h</text>
</g>
<!-- Node2 -->
<g id="node2" class="node"><title>Node2</title>
<g id="a_node2"><a xlink:href="_event_8h.html" target="_top" xlink:title="Event.h">
<polygon fill="white" stroke="black" points="36,-112.5 36,-131.5 86,-131.5 86,-112.5 36,-112.5"/>
<text text-anchor="middle" x="61" y="-119.5" font-family="Helvetica,sans-Serif" font-size="10.00">Event.h</text>
</a>
</g>
</g>
<!-- Node1&#45;&gt;Node2 -->
<g id="edge1" class="edge"><title>Node1&#45;&gt;Node2</title>
<path fill="none" stroke="midnightblue" d="M172.926,-168.444C150.94,-159.517 116.266,-145.439 91.3359,-135.317"/>
<polygon fill="midnightblue" stroke="midnightblue" points="92.5578,-132.035 81.9756,-131.516 89.9244,-138.521 92.5578,-132.035"/>
</g>
<!-- Node6 -->
<g id="node6" class="node"><title>Node6</title>
<g id="a_node6"><a xlink:href="_event_comparator_8h.html" target="_top" xlink:title="EventComparator.h">
<polygon fill="white" stroke="black" points="104.5,-112.5 104.5,-131.5 205.5,-131.5 205.5,-112.5 104.5,-112.5"/>
<text text-anchor="middle" x="155" y="-119.5" font-family="Helvetica,sans-Serif" font-size="10.00">EventComparator.h</text>
</a>
</g>
</g>
<!-- Node1&#45;&gt;Node6 -->
<g id="edge6" class="edge"><title>Node1&#45;&gt;Node6</title>
<path fill="none" stroke="midnightblue" d="M187.56,-168.083C182.051,-160.455 173.969,-149.264 167.235,-139.941"/>
<polygon fill="midnightblue" stroke="midnightblue" points="170.013,-137.809 161.32,-131.751 164.338,-141.907 170.013,-137.809"/>
</g>
<!-- Node7 -->
<g id="node7" class="node"><title>Node7</title>
<polygon fill="white" stroke="#bfbfbf" points="155,-56.5 155,-75.5 207,-75.5 207,-56.5 155,-56.5"/>
<text text-anchor="middle" x="181" y="-63.5" font-family="Helvetica,sans-Serif" font-size="10.00">memory</text>
</g>
<!-- Node1&#45;&gt;Node7 -->
<g id="edge8" class="edge"><title>Node1&#45;&gt;Node7</title>
<path fill="none" stroke="midnightblue" d="M200.53,-168.148C208.937,-155.621 221.711,-132.014 215,-112 211.396,-101.251 204.097,-91.0204 197.183,-83.0378"/>
<polygon fill="midnightblue" stroke="midnightblue" points="199.655,-80.5561 190.288,-75.6053 194.523,-85.3168 199.655,-80.5561"/>
</g>
<!-- Node8 -->
<g id="node8" class="node"><title>Node8</title>
<polygon fill="white" stroke="#bfbfbf" points="262.5,-112.5 262.5,-131.5 305.5,-131.5 305.5,-112.5 262.5,-112.5"/>
<text text-anchor="middle" x="284" y="-119.5" font-family="Helvetica,sans-Serif" font-size="10.00">queue</text>
</g>
<!-- Node1&#45;&gt;Node8 -->
<g id="edge9" class="edge"><title>Node1&#45;&gt;Node8</title>
<path fill="none" stroke="midnightblue" d="M208.46,-168.324C222.5,-159.9 244.048,-146.971 260.543,-137.074"/>
<polygon fill="midnightblue" stroke="midnightblue" points="262.802,-139.801 269.576,-131.655 259.2,-133.798 262.802,-139.801"/>
</g>
<!-- Node3 -->
<g id="node3" class="node"><title>Node3</title>
<g id="a_node3"><a xlink:href="_event_type_8h.html" target="_top" xlink:title="EventType.h">
<polygon fill="white" stroke="black" points="0,-56.5 0,-75.5 72,-75.5 72,-56.5 0,-56.5"/>
<text text-anchor="middle" x="36" y="-63.5" font-family="Helvetica,sans-Serif" font-size="10.00">EventType.h</text>
</a>
</g>
</g>
<!-- Node2&#45;&gt;Node3 -->
<g id="edge2" class="edge"><title>Node2&#45;&gt;Node3</title>
<path fill="none" stroke="midnightblue" d="M56.8718,-112.083C53.4861,-104.77 48.584,-94.1814 44.3812,-85.1034"/>
<polygon fill="midnightblue" stroke="midnightblue" points="47.4289,-83.3553 40.0514,-75.7511 41.0766,-86.2962 47.4289,-83.3553"/>
</g>
<!-- Node5 -->
<g id="node5" class="node"><title>Node5</title>
<polygon fill="white" stroke="#bfbfbf" points="79.5,-0.5 79.5,-19.5 120.5,-19.5 120.5,-0.5 79.5,-0.5"/>
<text text-anchor="middle" x="100" y="-7.5" font-family="Helvetica,sans-Serif" font-size="10.00">string</text>
</g>
<!-- Node2&#45;&gt;Node5 -->
<g id="edge5" class="edge"><title>Node2&#45;&gt;Node5</title>
<path fill="none" stroke="midnightblue" d="M65.3423,-112.18C69.6571,-103.211 76.2928,-88.8435 81,-76 86.6895,-60.4766 91.8615,-42.394 95.3678,-29.2481"/>
<polygon fill="midnightblue" stroke="midnightblue" points="98.7652,-30.0902 97.8961,-19.5311 91.9907,-28.3275 98.7652,-30.0902"/>
</g>
<!-- Node4 -->
<g id="node4" class="node"><title>Node4</title>
<polygon fill="white" stroke="#bfbfbf" points="2.5,-0.5 2.5,-19.5 61.5,-19.5 61.5,-0.5 2.5,-0.5"/>
<text text-anchor="middle" x="32" y="-7.5" font-family="Helvetica,sans-Serif" font-size="10.00">stdexcept</text>
</g>
<!-- Node3&#45;&gt;Node4 -->
<g id="edge3" class="edge"><title>Node3&#45;&gt;Node4</title>
<path fill="none" stroke="midnightblue" d="M35.3395,-56.083C34.8152,-49.0059 34.0638,-38.8611 33.4064,-29.9865"/>
<polygon fill="midnightblue" stroke="midnightblue" points="36.8775,-29.4652 32.6482,-19.7511 29.8966,-29.9823 36.8775,-29.4652"/>
</g>
<!-- Node3&#45;&gt;Node5 -->
<g id="edge4" class="edge"><title>Node3&#45;&gt;Node5</title>
<path fill="none" stroke="midnightblue" d="M46.2827,-56.324C55.8363,-48.2631 70.2797,-36.0765 81.7843,-26.3695"/>
<polygon fill="midnightblue" stroke="midnightblue" points="84.1443,-28.9577 89.5302,-19.8339 79.6302,-23.6076 84.1443,-28.9577"/>
</g>
<!-- Node6&#45;&gt;Node7 -->
<g id="edge7" class="edge"><title>Node6&#45;&gt;Node7</title>
<path fill="none" stroke="midnightblue" d="M159.293,-112.083C162.852,-104.691 168.022,-93.9533 172.424,-84.8111"/>
<polygon fill="midnightblue" stroke="midnightblue" points="175.602,-86.2795 176.787,-75.7511 169.295,-83.2427 175.602,-86.2795"/>
</g>
</g>
</svg>
