<?xml version="1.0" encoding="UTF-8" standalone="no"?>
<!DOCTYPE svg PUBLIC "-//W3C//DTD SVG 1.1//EN"
 "http://www.w3.org/Graphics/SVG/1.1/DTD/svg11.dtd">
<!-- Generated by graphviz version 2.38.0 (20140413.2041)
 -->
<!-- Title: src/EventFactory.cpp Pages: 1 -->
<svg width="941pt" height="252pt"
 viewBox="0.00 0.00 941.44 252.00" xmlns="http://www.w3.org/2000/svg" xmlns:xlink="http://www.w3.org/1999/xlink">
<g id="graph0" class="graph" transform="scale(1 1) rotate(0) translate(4 248)">
<title>src/EventFactory.cpp</title>
<polygon fill="white" stroke="none" points="-4,4 -4,-248 937.444,-248 937.444,4 -4,4"/>
<!-- Node1 -->
<g id="node1" class="node"><title>Node1</title>
<polygon fill="#bfbfbf" stroke="black" points="391.444,-224.5 391.444,-243.5 501.444,-243.5 501.444,-224.5 391.444,-224.5"/>
<text text-anchor="middle" x="446.444" y="-231.5" font-family="Helvetica,sans-Serif" font-size="10.00">src/EventFactory.cpp</text>
</g>
<!-- Node2 -->
<g id="node2" class="node"><title>Node2</title>
<g id="a_node2"><a xlink:href="_event_factory_8h.html" target="_top" xlink:title="EventFactory.h">
<polygon fill="white" stroke="black" points="49.9438,-168.5 49.9438,-187.5 132.944,-187.5 132.944,-168.5 49.9438,-168.5"/>
<text text-anchor="middle" x="91.4438" y="-175.5" font-family="Helvetica,sans-Serif" font-size="10.00">EventFactory.h</text>
</a>
</g>
</g>
<!-- Node1&#45;&gt;Node2 -->
<g id="edge1" class="edge"><title>Node1&#45;&gt;Node2</title>
<path fill="none" stroke="midnightblue" d="M391.365,-224.622C323.613,-214.316 209.464,-196.952 143.249,-186.88"/>
<polygon fill="midnightblue" stroke="midnightblue" points="143.461,-183.372 133.048,-185.329 142.408,-190.293 143.461,-183.372"/>
</g>
<!-- Node7 -->
<g id="node7" class="node"><title>Node7</title>
<g id="a_node7"><a xlink:href="_client_8h.html" target="_top" xlink:title="Client.h">
<polygon fill="white" stroke="black" points="257.444,-168.5 257.444,-187.5 307.444,-187.5 307.444,-168.5 257.444,-168.5"/>
<text text-anchor="middle" x="282.444" y="-175.5" font-family="Helvetica,sans-Serif" font-size="10.00">Client.h</text>
</a>
</g>
</g>
<!-- Node1&#45;&gt;Node7 -->
<g id="edge6" class="edge"><title>Node1&#45;&gt;Node7</title>
<path fill="none" stroke="midnightblue" d="M420.457,-224.444C392.503,-215.239 347.913,-200.557 317.014,-190.383"/>
<polygon fill="midnightblue" stroke="midnightblue" points="318.095,-187.054 307.502,-187.251 315.905,-193.703 318.095,-187.054"/>
</g>
<!-- Node8 -->
<g id="node8" class="node"><title>Node8</title>
<g id="a_node8"><a xlink:href="_client_arrival_8h.html" target="_top" xlink:title="ClientArrival.h">
<polygon fill="white" stroke="black" points="325.444,-168.5 325.444,-187.5 403.444,-187.5 403.444,-168.5 325.444,-168.5"/>
<text text-anchor="middle" x="364.444" y="-175.5" font-family="Helvetica,sans-Serif" font-size="10.00">ClientArrival.h</text>
</a>
</g>
</g>
<!-- Node1&#45;&gt;Node8 -->
<g id="edge9" class="edge"><title>Node1&#45;&gt;Node8</title>
<path fill="none" stroke="midnightblue" d="M433.269,-224.324C420.597,-215.979 401.21,-203.212 386.238,-193.352"/>
<polygon fill="midnightblue" stroke="midnightblue" points="387.862,-190.231 377.586,-187.655 384.013,-196.078 387.862,-190.231"/>
</g>
<!-- Node12 -->
<g id="node12" class="node"><title>Node12</title>
<g id="a_node12"><a xlink:href="_clock_8h.html" target="_top" xlink:title="Clock.h">
<polygon fill="white" stroke="black" points="421.444,-168.5 421.444,-187.5 471.444,-187.5 471.444,-168.5 421.444,-168.5"/>
<text text-anchor="middle" x="446.444" y="-175.5" font-family="Helvetica,sans-Serif" font-size="10.00">Clock.h</text>
</a>
</g>
</g>
<!-- Node1&#45;&gt;Node12 -->
<g id="edge17" class="edge"><title>Node1&#45;&gt;Node12</title>
<path fill="none" stroke="midnightblue" d="M446.444,-224.083C446.444,-217.006 446.444,-206.861 446.444,-197.986"/>
<polygon fill="midnightblue" stroke="midnightblue" points="449.944,-197.751 446.444,-187.751 442.944,-197.751 449.944,-197.751"/>
</g>
<!-- Node14 -->
<g id="node14" class="node"><title>Node14</title>
<g id="a_node14"><a xlink:href="_event_queue_8h.html" target="_top" xlink:title="EventQueue.h">
<polygon fill="white" stroke="black" points="554.944,-168.5 554.944,-187.5 633.944,-187.5 633.944,-168.5 554.944,-168.5"/>
<text text-anchor="middle" x="594.444" y="-175.5" font-family="Helvetica,sans-Serif" font-size="10.00">EventQueue.h</text>
</a>
</g>
</g>
<!-- Node1&#45;&gt;Node14 -->
<g id="edge22" class="edge"><title>Node1&#45;&gt;Node14</title>
<path fill="none" stroke="midnightblue" d="M469.895,-224.444C494.576,-215.438 533.629,-201.189 561.42,-191.049"/>
<polygon fill="midnightblue" stroke="midnightblue" points="562.908,-194.232 571.102,-187.516 560.509,-187.656 562.908,-194.232"/>
</g>
<!-- Node17 -->
<g id="node17" class="node"><title>Node17</title>
<g id="a_node17"><a xlink:href="_floor_8h.html" target="_top" xlink:title="Floor.h">
<polygon fill="white" stroke="black" points="724.944,-168.5 724.944,-187.5 771.944,-187.5 771.944,-168.5 724.944,-168.5"/>
<text text-anchor="middle" x="748.444" y="-175.5" font-family="Helvetica,sans-Serif" font-size="10.00">Floor.h</text>
</a>
</g>
</g>
<!-- Node1&#45;&gt;Node17 -->
<g id="edge28" class="edge"><title>Node1&#45;&gt;Node17</title>
<path fill="none" stroke="midnightblue" d="M494.297,-224.444C555.731,-213.459 660.799,-194.672 714.569,-185.057"/>
<polygon fill="midnightblue" stroke="midnightblue" points="715.383,-188.467 724.61,-183.262 714.15,-181.576 715.383,-188.467"/>
</g>
<!-- Node19 -->
<g id="node19" class="node"><title>Node19</title>
<g id="a_node19"><a xlink:href="_scenario_8h.html" target="_top" xlink:title="Scenario.h">
<polygon fill="white" stroke="black" points="849.944,-112.5 849.944,-131.5 912.944,-131.5 912.944,-112.5 849.944,-112.5"/>
<text text-anchor="middle" x="881.444" y="-119.5" font-family="Helvetica,sans-Serif" font-size="10.00">Scenario.h</text>
</a>
</g>
</g>
<!-- Node1&#45;&gt;Node19 -->
<g id="edge32" class="edge"><title>Node1&#45;&gt;Node19</title>
<path fill="none" stroke="midnightblue" d="M501.595,-232.946C569.49,-231.237 687.353,-222.875 781.444,-188 812.929,-176.33 844.652,-153.363 863.677,-138.093"/>
<polygon fill="midnightblue" stroke="midnightblue" points="865.971,-140.739 871.479,-131.688 861.529,-135.329 865.971,-140.739"/>
</g>
<!-- Node3 -->
<g id="node3" class="node"><title>Node3</title>
<polygon fill="white" stroke="#bfbfbf" points="119.944,-112.5 119.944,-131.5 196.944,-131.5 196.944,-112.5 119.944,-112.5"/>
<text text-anchor="middle" x="158.444" y="-119.5" font-family="Helvetica,sans-Serif" font-size="10.00">glog/logging.h</text>
</g>
<!-- Node2&#45;&gt;Node3 -->
<g id="edge2" class="edge"><title>Node2&#45;&gt;Node3</title>
<path fill="none" stroke="midnightblue" d="M102.208,-168.324C112.21,-160.263 127.33,-148.077 139.374,-138.369"/>
<polygon fill="midnightblue" stroke="midnightblue" points="141.894,-140.834 147.483,-131.834 137.501,-135.384 141.894,-140.834"/>
</g>
<!-- Node4 -->
<g id="node4" class="node"><title>Node4</title>
<polygon fill="white" stroke="#bfbfbf" points="489.444,-56.5 489.444,-75.5 541.444,-75.5 541.444,-56.5 489.444,-56.5"/>
<text text-anchor="middle" x="515.444" y="-63.5" font-family="Helvetica,sans-Serif" font-size="10.00">memory</text>
</g>
<!-- Node2&#45;&gt;Node4 -->
<g id="edge3" class="edge"><title>Node2&#45;&gt;Node4</title>
<path fill="none" stroke="midnightblue" d="M91.1724,-168.232C91.2558,-154.004 93.6976,-126.063 110.444,-112 124.51,-100.187 382.377,-77.9186 479.154,-69.9382"/>
<polygon fill="midnightblue" stroke="midnightblue" points="479.657,-73.4088 489.337,-69.1023 479.085,-66.4322 479.657,-73.4088"/>
</g>
<!-- Node5 -->
<g id="node5" class="node"><title>Node5</title>
<polygon fill="white" stroke="#bfbfbf" points="13.9438,-112.5 13.9438,-131.5 62.9438,-131.5 62.9438,-112.5 13.9438,-112.5"/>
<text text-anchor="middle" x="38.4438" y="-119.5" font-family="Helvetica,sans-Serif" font-size="10.00">random</text>
</g>
<!-- Node2&#45;&gt;Node5 -->
<g id="edge4" class="edge"><title>Node2&#45;&gt;Node5</title>
<path fill="none" stroke="midnightblue" d="M82.6919,-168.083C74.974,-160.22 63.5391,-148.569 54.2272,-139.081"/>
<polygon fill="midnightblue" stroke="midnightblue" points="56.5354,-136.436 47.0328,-131.751 51.5396,-141.34 56.5354,-136.436"/>
</g>
<!-- Node6 -->
<g id="node6" class="node"><title>Node6</title>
<polygon fill="white" stroke="#bfbfbf" points="240.944,-0.5 240.944,-19.5 281.944,-19.5 281.944,-0.5 240.944,-0.5"/>
<text text-anchor="middle" x="261.444" y="-7.5" font-family="Helvetica,sans-Serif" font-size="10.00">string</text>
</g>
<!-- Node2&#45;&gt;Node6 -->
<g id="edge5" class="edge"><title>Node2&#45;&gt;Node6</title>
<path fill="none" stroke="midnightblue" d="M61.0641,-168.423C29.3928,-157.871 -13.3404,-138.097 4.44377,-112 56.1822,-36.0766 174.489,-17.2251 230.698,-12.5451"/>
<polygon fill="midnightblue" stroke="midnightblue" points="231.041,-16.0294 240.757,-11.8053 230.527,-9.04827 231.041,-16.0294"/>
</g>
<!-- Node7&#45;&gt;Node3 -->
<g id="edge7" class="edge"><title>Node7&#45;&gt;Node3</title>
<path fill="none" stroke="midnightblue" d="M262.796,-168.444C242.479,-159.596 210.541,-145.687 187.346,-135.586"/>
<polygon fill="midnightblue" stroke="midnightblue" points="188.566,-132.3 178,-131.516 185.771,-138.718 188.566,-132.3"/>
</g>
<!-- Node7&#45;&gt;Node4 -->
<g id="edge8" class="edge"><title>Node7&#45;&gt;Node4</title>
<path fill="none" stroke="midnightblue" d="M292.275,-168.243C308.121,-154.528 340.748,-127.909 372.444,-112 407.089,-94.6112 449.824,-82.224 479.51,-74.9044"/>
<polygon fill="midnightblue" stroke="midnightblue" points="480.522,-78.261 489.431,-72.5268 478.891,-71.4538 480.522,-78.261"/>
</g>
<!-- Node8&#45;&gt;Node3 -->
<g id="edge15" class="edge"><title>Node8&#45;&gt;Node3</title>
<path fill="none" stroke="midnightblue" d="M331.802,-168.444C296.394,-159.162 239.735,-144.309 200.891,-134.127"/>
<polygon fill="midnightblue" stroke="midnightblue" points="201.493,-130.667 190.932,-131.516 199.718,-137.438 201.493,-130.667"/>
</g>
<!-- Node8&#45;&gt;Node4 -->
<g id="edge16" class="edge"><title>Node8&#45;&gt;Node4</title>
<path fill="none" stroke="midnightblue" d="M365.333,-168.157C367.184,-154.325 372.69,-127.548 388.444,-112 412.984,-87.7807 451.368,-76.5329 479.518,-71.3483"/>
<polygon fill="midnightblue" stroke="midnightblue" points="480.095,-74.8005 489.381,-69.6998 478.941,-67.8963 480.095,-74.8005"/>
</g>
<!-- Node9 -->
<g id="node9" class="node"><title>Node9</title>
<g id="a_node9"><a xlink:href="_event_8h.html" target="_top" xlink:title="Event.h">
<polygon fill="white" stroke="black" points="253.444,-112.5 253.444,-131.5 303.444,-131.5 303.444,-112.5 253.444,-112.5"/>
<text text-anchor="middle" x="278.444" y="-119.5" font-family="Helvetica,sans-Serif" font-size="10.00">Event.h</text>
</a>
</g>
</g>
<!-- Node8&#45;&gt;Node9 -->
<g id="edge10" class="edge"><title>Node8&#45;&gt;Node9</title>
<path fill="none" stroke="midnightblue" d="M350.626,-168.324C337.211,-159.9 316.62,-146.971 300.858,-137.074"/>
<polygon fill="midnightblue" stroke="midnightblue" points="302.557,-134.008 292.227,-131.655 298.835,-139.936 302.557,-134.008"/>
</g>
<!-- Node9&#45;&gt;Node6 -->
<g id="edge14" class="edge"><title>Node9&#45;&gt;Node6</title>
<path fill="none" stroke="midnightblue" d="M277.11,-112.368C274.366,-94.617 268.038,-53.6664 264.318,-29.5974"/>
<polygon fill="midnightblue" stroke="midnightblue" points="267.758,-28.9395 262.772,-19.5914 260.84,-30.0087 267.758,-28.9395"/>
</g>
<!-- Node10 -->
<g id="node10" class="node"><title>Node10</title>
<g id="a_node10"><a xlink:href="_event_type_8h.html" target="_top" xlink:title="EventType.h">
<polygon fill="white" stroke="black" points="291.444,-56.5 291.444,-75.5 363.444,-75.5 363.444,-56.5 291.444,-56.5"/>
<text text-anchor="middle" x="327.444" y="-63.5" font-family="Helvetica,sans-Serif" font-size="10.00">EventType.h</text>
</a>
</g>
</g>
<!-- Node9&#45;&gt;Node10 -->
<g id="edge11" class="edge"><title>Node9&#45;&gt;Node10</title>
<path fill="none" stroke="midnightblue" d="M286.535,-112.083C293.599,-104.298 304.031,-92.8015 312.593,-83.3665"/>
<polygon fill="midnightblue" stroke="midnightblue" points="315.375,-85.5087 319.503,-75.7511 310.191,-80.8047 315.375,-85.5087"/>
</g>
<!-- Node10&#45;&gt;Node6 -->
<g id="edge13" class="edge"><title>Node10&#45;&gt;Node6</title>
<path fill="none" stroke="midnightblue" d="M316.84,-56.324C306.988,-48.2631 292.093,-36.0765 280.229,-26.3695"/>
<polygon fill="midnightblue" stroke="midnightblue" points="282.197,-23.4575 272.241,-19.8339 277.764,-28.8752 282.197,-23.4575"/>
</g>
<!-- Node11 -->
<g id="node11" class="node"><title>Node11</title>
<polygon fill="white" stroke="#bfbfbf" points="299.944,-0.5 299.944,-19.5 358.944,-19.5 358.944,-0.5 299.944,-0.5"/>
<text text-anchor="middle" x="329.444" y="-7.5" font-family="Helvetica,sans-Serif" font-size="10.00">stdexcept</text>
</g>
<!-- Node10&#45;&gt;Node11 -->
<g id="edge12" class="edge"><title>Node10&#45;&gt;Node11</title>
<path fill="none" stroke="midnightblue" d="M327.774,-56.083C328.036,-49.0059 328.412,-38.8611 328.741,-29.9865"/>
<polygon fill="midnightblue" stroke="midnightblue" points="332.247,-29.8738 329.12,-19.7511 325.252,-29.6147 332.247,-29.8738"/>
</g>
<!-- Node12&#45;&gt;Node4 -->
<g id="edge20" class="edge"><title>Node12&#45;&gt;Node4</title>
<path fill="none" stroke="midnightblue" d="M459.818,-168.195C471.141,-160.075 486.997,-147.029 496.444,-132 505.34,-117.847 510.216,-99.3638 512.792,-85.7266"/>
<polygon fill="midnightblue" stroke="midnightblue" points="516.286,-86.0477 514.453,-75.6126 509.379,-84.913 516.286,-86.0477"/>
</g>
<!-- Node12&#45;&gt;Node6 -->
<g id="edge21" class="edge"><title>Node12&#45;&gt;Node6</title>
<path fill="none" stroke="midnightblue" d="M421.227,-170.182C418.271,-169.425 415.294,-168.682 412.444,-168 338.18,-150.225 292.451,-191.384 244.444,-132 220.426,-102.29 238.614,-54.4987 251.512,-28.7695"/>
<polygon fill="midnightblue" stroke="midnightblue" points="254.682,-30.2607 256.257,-19.7835 248.492,-26.9918 254.682,-30.2607"/>
</g>
<!-- Node13 -->
<g id="node13" class="node"><title>Node13</title>
<g id="a_node13"><a xlink:href="_event_observer_8h.html" target="_top" xlink:title="EventObserver.h">
<polygon fill="white" stroke="black" points="397.444,-112.5 397.444,-131.5 487.444,-131.5 487.444,-112.5 397.444,-112.5"/>
<text text-anchor="middle" x="442.444" y="-119.5" font-family="Helvetica,sans-Serif" font-size="10.00">EventObserver.h</text>
</a>
</g>
</g>
<!-- Node12&#45;&gt;Node13 -->
<g id="edge18" class="edge"><title>Node12&#45;&gt;Node13</title>
<path fill="none" stroke="midnightblue" d="M445.783,-168.083C445.259,-161.006 444.508,-150.861 443.85,-141.986"/>
<polygon fill="midnightblue" stroke="midnightblue" points="447.321,-141.465 443.092,-131.751 440.34,-141.982 447.321,-141.465"/>
</g>
<!-- Node13&#45;&gt;Node4 -->
<g id="edge19" class="edge"><title>Node13&#45;&gt;Node4</title>
<path fill="none" stroke="midnightblue" d="M454.172,-112.324C465.281,-104.107 482.186,-91.6017 495.427,-81.8069"/>
<polygon fill="midnightblue" stroke="midnightblue" points="497.544,-84.5948 503.502,-75.8339 493.381,-78.9671 497.544,-84.5948"/>
</g>
<!-- Node14&#45;&gt;Node4 -->
<g id="edge26" class="edge"><title>Node14&#45;&gt;Node4</title>
<path fill="none" stroke="midnightblue" d="M612.358,-168.488C635.018,-156.547 669.288,-133.832 653.444,-112 630.338,-80.1623 584.097,-70.4202 551.528,-67.6651"/>
<polygon fill="midnightblue" stroke="midnightblue" points="551.691,-64.1683 541.481,-66.9969 551.227,-71.1528 551.691,-64.1683"/>
</g>
<!-- Node14&#45;&gt;Node9 -->
<g id="edge23" class="edge"><title>Node14&#45;&gt;Node9</title>
<path fill="none" stroke="midnightblue" d="M554.742,-170.216C492.505,-159.58 372.967,-139.153 313.636,-129.014"/>
<polygon fill="midnightblue" stroke="midnightblue" points="314.072,-125.538 303.625,-127.303 312.893,-132.438 314.072,-125.538"/>
</g>
<!-- Node15 -->
<g id="node15" class="node"><title>Node15</title>
<g id="a_node15"><a xlink:href="_event_comparator_8h.html" target="_top" xlink:title="EventComparator.h">
<polygon fill="white" stroke="black" points="543.944,-112.5 543.944,-131.5 644.944,-131.5 644.944,-112.5 543.944,-112.5"/>
<text text-anchor="middle" x="594.444" y="-119.5" font-family="Helvetica,sans-Serif" font-size="10.00">EventComparator.h</text>
</a>
</g>
</g>
<!-- Node14&#45;&gt;Node15 -->
<g id="edge24" class="edge"><title>Node14&#45;&gt;Node15</title>
<path fill="none" stroke="midnightblue" d="M594.444,-168.083C594.444,-161.006 594.444,-150.861 594.444,-141.986"/>
<polygon fill="midnightblue" stroke="midnightblue" points="597.944,-141.751 594.444,-131.751 590.944,-141.751 597.944,-141.751"/>
</g>
<!-- Node16 -->
<g id="node16" class="node"><title>Node16</title>
<polygon fill="white" stroke="#bfbfbf" points="701.944,-112.5 701.944,-131.5 744.944,-131.5 744.944,-112.5 701.944,-112.5"/>
<text text-anchor="middle" x="723.444" y="-119.5" font-family="Helvetica,sans-Serif" font-size="10.00">queue</text>
</g>
<!-- Node14&#45;&gt;Node16 -->
<g id="edge27" class="edge"><title>Node14&#45;&gt;Node16</title>
<path fill="none" stroke="midnightblue" d="M614.884,-168.444C636.114,-159.557 669.543,-145.563 693.699,-135.451"/>
<polygon fill="midnightblue" stroke="midnightblue" points="695.226,-138.606 703.099,-131.516 692.523,-132.149 695.226,-138.606"/>
</g>
<!-- Node15&#45;&gt;Node4 -->
<g id="edge25" class="edge"><title>Node15&#45;&gt;Node4</title>
<path fill="none" stroke="midnightblue" d="M581.751,-112.324C569.543,-103.979 550.865,-91.2122 536.441,-81.3524"/>
<polygon fill="midnightblue" stroke="midnightblue" points="538.336,-78.4082 528.105,-75.6545 534.386,-84.1871 538.336,-78.4082"/>
</g>
<!-- Node17&#45;&gt;Node4 -->
<g id="edge29" class="edge"><title>Node17&#45;&gt;Node4</title>
<path fill="none" stroke="midnightblue" d="M752.561,-168.273C758.335,-154.599 766.731,-128.035 753.444,-112 728.259,-81.6073 612.026,-71.5906 551.822,-68.4096"/>
<polygon fill="midnightblue" stroke="midnightblue" points="551.776,-64.9032 541.616,-67.9076 551.432,-71.8947 551.776,-64.9032"/>
</g>
<!-- Node17&#45;&gt;Node16 -->
<g id="edge30" class="edge"><title>Node17&#45;&gt;Node16</title>
<path fill="none" stroke="midnightblue" d="M744.316,-168.083C740.93,-160.77 736.028,-150.181 731.825,-141.103"/>
<polygon fill="midnightblue" stroke="midnightblue" points="734.873,-139.355 727.495,-131.751 728.52,-142.296 734.873,-139.355"/>
</g>
<!-- Node18 -->
<g id="node18" class="node"><title>Node18</title>
<polygon fill="white" stroke="#bfbfbf" points="801.444,-112.5 801.444,-131.5 831.444,-131.5 831.444,-112.5 801.444,-112.5"/>
<text text-anchor="middle" x="816.444" y="-119.5" font-family="Helvetica,sans-Serif" font-size="10.00">set</text>
</g>
<!-- Node17&#45;&gt;Node18 -->
<g id="edge31" class="edge"><title>Node17&#45;&gt;Node18</title>
<path fill="none" stroke="midnightblue" d="M759.369,-168.324C769.618,-160.185 785.164,-147.839 797.445,-138.087"/>
<polygon fill="midnightblue" stroke="midnightblue" points="799.665,-140.794 805.32,-131.834 795.312,-135.312 799.665,-140.794"/>
</g>
<!-- Node19&#45;&gt;Node4 -->
<g id="edge34" class="edge"><title>Node19&#45;&gt;Node4</title>
<path fill="none" stroke="midnightblue" d="M849.709,-113.776C846.585,-113.142 843.457,-112.538 840.444,-112 736.236,-93.3777 612.053,-78.0781 551.813,-71.0909"/>
<polygon fill="midnightblue" stroke="midnightblue" points="552.007,-67.5902 541.672,-69.9233 551.206,-74.5443 552.007,-67.5902"/>
</g>
<!-- Node19&#45;&gt;Node6 -->
<g id="edge35" class="edge"><title>Node19&#45;&gt;Node6</title>
<path fill="none" stroke="midnightblue" d="M849.677,-113.944C846.559,-113.276 843.441,-112.618 840.444,-112 711.88,-85.4808 679.949,-77.4541 550.444,-56 438.501,-37.4554 406.07,-44.9323 292.056,-20.0753"/>
<polygon fill="midnightblue" stroke="midnightblue" points="292.764,-16.6474 282.243,-17.901 291.249,-23.4816 292.764,-16.6474"/>
</g>
<!-- Node20 -->
<g id="node20" class="node"><title>Node20</title>
<polygon fill="white" stroke="#bfbfbf" points="829.944,-56.5 829.944,-75.5 870.944,-75.5 870.944,-56.5 829.944,-56.5"/>
<text text-anchor="middle" x="850.444" y="-63.5" font-family="Helvetica,sans-Serif" font-size="10.00">ctime</text>
</g>
<!-- Node19&#45;&gt;Node20 -->
<g id="edge33" class="edge"><title>Node19&#45;&gt;Node20</title>
<path fill="none" stroke="midnightblue" d="M876.325,-112.083C872.036,-104.613 865.786,-93.7244 860.501,-84.5199"/>
<polygon fill="midnightblue" stroke="midnightblue" points="863.482,-82.6811 855.468,-75.7511 857.411,-86.1662 863.482,-82.6811"/>
</g>
<!-- Node21 -->
<g id="node21" class="node"><title>Node21</title>
<polygon fill="white" stroke="#bfbfbf" points="889.444,-56.5 889.444,-75.5 933.444,-75.5 933.444,-56.5 889.444,-56.5"/>
<text text-anchor="middle" x="911.444" y="-63.5" font-family="Helvetica,sans-Serif" font-size="10.00">vector</text>
</g>
<!-- Node19&#45;&gt;Node21 -->
<g id="edge36" class="edge"><title>Node19&#45;&gt;Node21</title>
<path fill="none" stroke="midnightblue" d="M886.398,-112.083C890.548,-104.613 896.597,-93.7244 901.711,-84.5199"/>
<polygon fill="midnightblue" stroke="midnightblue" points="904.785,-86.1924 906.582,-75.7511 898.666,-82.7929 904.785,-86.1924"/>
</g>
</g>
</svg>
