<?xml version="1.0" encoding="UTF-8" standalone="no"?>
<!DOCTYPE svg PUBLIC "-//W3C//DTD SVG 1.1//EN"
 "http://www.w3.org/Graphics/SVG/1.1/DTD/svg11.dtd">
<!-- Generated by graphviz version 2.38.0 (20140413.2041)
 -->
<!-- Title: include/EventObserver.h Pages: 1 -->
<!--zoomable 151 -->
<svg id="main" version="1.1" xmlns="http://www.w3.org/2000/svg" xmlns:xlink="http://www.w3.org/1999/xlink" xml:space="preserve" onload="init(evt)">
<style type="text/css"><![CDATA[
.edge:hover path { stroke: red; }
.edge:hover polygon { stroke: red; fill: red; }
]]></style>
<script type="text/javascript"><![CDATA[
var edges = document.getElementsByTagName('g');
if (edges && edges.length) {
  for (var i=0;i<edges.length;i++) {
    if (edges[i].id.substr(0,4)=='edge') {
      edges[i].setAttribute('class','edge');
    }
  }
}
]]></script>
        <defs>
                <circle id="rim" cx="0" cy="0" r="7"/>
                <circle id="rim2" cx="0" cy="0" r="3.5"/>
                <g id="zoomPlus">
                        <use xlink:href="#rim" fill="#404040">
                                <set attributeName="fill" to="#808080" begin="zoomplus.mouseover" end="zoomplus.mouseout"/>
                        </use>
                        <path d="M-4,0h8M0,-4v8" fill="none" stroke="white" stroke-width="1.5" pointer-events="none"/>
                </g>
                <g id="zoomMin">
                        <use xlink:href="#rim" fill="#404040">
                                <set attributeName="fill" to="#808080" begin="zoomminus.mouseover" end="zoomminus.mouseout"/>
                        </use>
                        <path d="M-4,0h8" fill="none" stroke="white" stroke-width="1.5" pointer-events="none"/>
                </g>
                <g id="dirArrow">
                        <path fill="none" stroke="white" stroke-width="1.5" d="M0,-3.0v7 M-2.5,-0.5L0,-3.0L2.5,-0.5"/>
                </g>
               <g id="resetDef">
                       <use xlink:href="#rim2" fill="#404040">
                               <set attributeName="fill" to="#808080" begin="reset.mouseover" end="reset.mouseout"/>
                       </use>
               </g>
        </defs>

<script type="text/javascript">
var viewWidth = 1650;
var viewHeight = 151;
var sectionId = 'dynsection-1';
</script>
<script xlink:href="svgpan.js"/>
<svg id="graph" class="graph">
<g id="viewport">
<title>include/EventObserver.h</title>
<polygon fill="white" stroke="none" points="-4,4 -4,-147 1646,-147 1646,4 -4,4"/>
<!-- Node1 -->
<g id="node1" class="node"><title>Node1</title>
<polygon fill="#bfbfbf" stroke="black" points="254.5,-123.5 254.5,-142.5 378.5,-142.5 378.5,-123.5 254.5,-123.5"/>
<text text-anchor="middle" x="316.5" y="-130.5" font-family="Helvetica,sans-Serif" font-size="10.00">include/EventObserver.h</text>
</g>
<!-- Node2 -->
<g id="node2" class="node"><title>Node2</title>
<g id="a_node2"><a xlink:href="_event_dispatcher_8cpp.html" target="_top" xlink:title="src/EventDispatcher.cpp">
<polygon fill="white" stroke="black" points="68,-67.5 68,-86.5 193,-86.5 193,-67.5 68,-67.5"/>
<text text-anchor="middle" x="130.5" y="-74.5" font-family="Helvetica,sans-Serif" font-size="10.00">src/EventDispatcher.cpp</text>
</a>
</g>
</g>
<!-- Node1&#45;&gt;Node2 -->
<g id="edge1" class="edge"><title>Node1&#45;&gt;Node2</title>
<path fill="none" stroke="midnightblue" d="M277.122,-120.568C242.034,-110.381 191.479,-95.7034 159.834,-86.5164"/>
<polygon fill="midnightblue" stroke="midnightblue" points="276.448,-124.017 287.028,-123.444 278.4,-117.294 276.448,-124.017"/>
</g>
<!-- Node3 -->
<g id="node3" class="node"><title>Node3</title>
<g id="a_node3"><a xlink:href="_building_8h.html" target="_top" xlink:title="include/Building.h">
<polygon fill="white" stroke="black" points="934,-67.5 934,-86.5 1027,-86.5 1027,-67.5 934,-67.5"/>
<text text-anchor="middle" x="980.5" y="-74.5" font-family="Helvetica,sans-Serif" font-size="10.00">include/Building.h</text>
</a>
</g>
</g>
<!-- Node1&#45;&gt;Node3 -->
<g id="edge2" class="edge"><title>Node1&#45;&gt;Node3</title>
<path fill="none" stroke="midnightblue" d="M388.644,-126.133C525.51,-115.002 819.373,-91.1037 933.67,-81.8085"/>
<polygon fill="midnightblue" stroke="midnightblue" points="388.352,-122.645 378.669,-126.944 388.92,-129.622 388.352,-122.645"/>
</g>
<!-- Node12 -->
<g id="node12" class="node"><title>Node12</title>
<g id="a_node12"><a xlink:href="_clock_8h.html" target="_top" xlink:title="include/Clock.h">
<polygon fill="white" stroke="black" points="329.5,-67.5 329.5,-86.5 413.5,-86.5 413.5,-67.5 329.5,-67.5"/>
<text text-anchor="middle" x="371.5" y="-74.5" font-family="Helvetica,sans-Serif" font-size="10.00">include/Clock.h</text>
</a>
</g>
</g>
<!-- Node1&#45;&gt;Node12 -->
<g id="edge11" class="edge"><title>Node1&#45;&gt;Node12</title>
<path fill="none" stroke="midnightblue" d="M332.794,-116.002C342.541,-106.433 354.553,-94.6389 362.587,-86.7511"/>
<polygon fill="midnightblue" stroke="midnightblue" points="330.266,-113.58 325.582,-123.083 335.17,-118.575 330.266,-113.58"/>
</g>
<!-- Node17 -->
<g id="node17" class="node"><title>Node17</title>
<g id="a_node17"><a xlink:href="_statistics_8h.html" target="_top" xlink:title="include/Statistics.h">
<polygon fill="white" stroke="black" points="211.5,-67.5 211.5,-86.5 311.5,-86.5 311.5,-67.5 211.5,-67.5"/>
<text text-anchor="middle" x="261.5" y="-74.5" font-family="Helvetica,sans-Serif" font-size="10.00">include/Statistics.h</text>
</a>
</g>
</g>
<!-- Node1&#45;&gt;Node17 -->
<g id="edge18" class="edge"><title>Node1&#45;&gt;Node17</title>
<path fill="none" stroke="midnightblue" d="M300.206,-116.002C290.459,-106.433 278.447,-94.6389 270.413,-86.7511"/>
<polygon fill="midnightblue" stroke="midnightblue" points="297.83,-118.575 307.418,-123.083 302.734,-113.58 297.83,-118.575"/>
</g>
<!-- Node4 -->
<g id="node4" class="node"><title>Node4</title>
<g id="a_node4"><a xlink:href="_better_nearest_neighbour_cost_function_8cpp.html" target="_top" xlink:title="src/BetterNearestNeighbour\lCostFunction.cpp">
<polygon fill="white" stroke="black" points="1189.5,-0.5 1189.5,-30.5 1327.5,-30.5 1327.5,-0.5 1189.5,-0.5"/>
<text text-anchor="start" x="1197.5" y="-18.5" font-family="Helvetica,sans-Serif" font-size="10.00">src/BetterNearestNeighbour</text>
<text text-anchor="middle" x="1258.5" y="-7.5" font-family="Helvetica,sans-Serif" font-size="10.00">CostFunction.cpp</text>
</a>
</g>
</g>
<!-- Node3&#45;&gt;Node4 -->
<g id="edge3" class="edge"><title>Node3&#45;&gt;Node4</title>
<path fill="none" stroke="midnightblue" d="M1030.24,-65.3533C1075.68,-55.6287 1143.17,-41.1847 1192.98,-30.523"/>
<polygon fill="midnightblue" stroke="midnightblue" points="1029.38,-61.9596 1020.33,-67.4751 1030.84,-68.8046 1029.38,-61.9596"/>
</g>
<!-- Node5 -->
<g id="node5" class="node"><title>Node5</title>
<g id="a_node5"><a xlink:href="_building_8cpp.html" target="_top" xlink:title="src/Building.cpp">
<polygon fill="white" stroke="black" points="218.5,-6 218.5,-25 304.5,-25 304.5,-6 218.5,-6"/>
<text text-anchor="middle" x="261.5" y="-13" font-family="Helvetica,sans-Serif" font-size="10.00">src/Building.cpp</text>
</a>
</g>
</g>
<!-- Node3&#45;&gt;Node5 -->
<g id="edge4" class="edge"><title>Node3&#45;&gt;Node5</title>
<path fill="none" stroke="midnightblue" d="M923.563,-76.0653C807.793,-75.342 536.976,-69.281 313.5,-31 305.094,-29.56 296.093,-27.3116 287.983,-25.0114"/>
<polygon fill="midnightblue" stroke="midnightblue" points="923.598,-79.5655 933.616,-76.117 923.634,-72.5655 923.598,-79.5655"/>
</g>
<!-- Node6 -->
<g id="node6" class="node"><title>Node6</title>
<g id="a_node6"><a xlink:href="_dummy_cost_function_8cpp.html" target="_top" xlink:title="src/DummyCostFunction.cpp">
<polygon fill="white" stroke="black" points="1346,-6 1346,-25 1491,-25 1491,-6 1346,-6"/>
<text text-anchor="middle" x="1418.5" y="-13" font-family="Helvetica,sans-Serif" font-size="10.00">src/DummyCostFunction.cpp</text>
</a>
</g>
</g>
<!-- Node3&#45;&gt;Node6 -->
<g id="edge5" class="edge"><title>Node3&#45;&gt;Node6</title>
<path fill="none" stroke="midnightblue" d="M1037.24,-69.7018C1107.59,-61.691 1231.12,-46.9673 1336.5,-31 1348.22,-29.224 1360.85,-27.0981 1372.59,-25.0286"/>
<polygon fill="midnightblue" stroke="midnightblue" points="1036.79,-66.2296 1027.25,-70.8343 1037.58,-73.185 1036.79,-66.2296"/>
</g>
<!-- Node7 -->
<g id="node7" class="node"><title>Node7</title>
<g id="a_node7"><a xlink:href="_nearest_neighbour_cost_function_8cpp.html" target="_top" xlink:title="src/NearestNeighbourCost\lFunction.cpp">
<polygon fill="white" stroke="black" points="1509,-0.5 1509,-30.5 1642,-30.5 1642,-0.5 1509,-0.5"/>
<text text-anchor="start" x="1517" y="-18.5" font-family="Helvetica,sans-Serif" font-size="10.00">src/NearestNeighbourCost</text>
<text text-anchor="middle" x="1575.5" y="-7.5" font-family="Helvetica,sans-Serif" font-size="10.00">Function.cpp</text>
</a>
</g>
</g>
<!-- Node3&#45;&gt;Node7 -->
<g id="edge6" class="edge"><title>Node3&#45;&gt;Node7</title>
<path fill="none" stroke="midnightblue" d="M1037.36,-73.0325C1133.22,-67.5929 1332.95,-54.3812 1500.5,-31 1503.26,-30.6151 1506.07,-30.1958 1508.9,-29.7502"/>
<polygon fill="midnightblue" stroke="midnightblue" points="1037.09,-69.542 1027.3,-73.5963 1037.48,-76.5311 1037.09,-69.542"/>
</g>
<!-- Node8 -->
<g id="node8" class="node"><title>Node8</title>
<g id="a_node8"><a xlink:href="_planning_scheduler_8cpp.html" target="_top" xlink:title="src/PlanningScheduler.cpp">
<polygon fill="white" stroke="black" points="782,-6 782,-25 915,-25 915,-6 782,-6"/>
<text text-anchor="middle" x="848.5" y="-13" font-family="Helvetica,sans-Serif" font-size="10.00">src/PlanningScheduler.cpp</text>
</a>
</g>
</g>
<!-- Node3&#45;&gt;Node8 -->
<g id="edge7" class="edge"><title>Node3&#45;&gt;Node8</title>
<path fill="none" stroke="midnightblue" d="M952.385,-63.3272C926.76,-51.7761 889.612,-35.0316 867.377,-25.0091"/>
<polygon fill="midnightblue" stroke="midnightblue" points="951.033,-66.5565 961.588,-67.4751 953.909,-60.1748 951.033,-66.5565"/>
</g>
<!-- Node9 -->
<g id="node9" class="node"><title>Node9</title>
<g id="a_node9"><a xlink:href="_scheduler_8cpp.html" target="_top" xlink:title="src/Scheduler.cpp">
<polygon fill="white" stroke="black" points="933,-6 933,-25 1028,-25 1028,-6 933,-6"/>
<text text-anchor="middle" x="980.5" y="-13" font-family="Helvetica,sans-Serif" font-size="10.00">src/Scheduler.cpp</text>
</a>
</g>
</g>
<!-- Node3&#45;&gt;Node9 -->
<g id="edge8" class="edge"><title>Node3&#45;&gt;Node9</title>
<path fill="none" stroke="midnightblue" d="M980.5,-57.3165C980.5,-46.4962 980.5,-33.398 980.5,-25.0091"/>
<polygon fill="midnightblue" stroke="midnightblue" points="977,-57.4751 980.5,-67.4751 984,-57.4751 977,-57.4751"/>
</g>
<!-- Node10 -->
<g id="node10" class="node"><title>Node10</title>
<g id="a_node10"><a xlink:href="_simple_scheduler_8cpp.html" target="_top" xlink:title="src/SimpleScheduler.cpp">
<polygon fill="white" stroke="black" points="1046,-6 1046,-25 1171,-25 1171,-6 1046,-6"/>
<text text-anchor="middle" x="1108.5" y="-13" font-family="Helvetica,sans-Serif" font-size="10.00">src/SimpleScheduler.cpp</text>
</a>
</g>
</g>
<!-- Node3&#45;&gt;Node10 -->
<g id="edge9" class="edge"><title>Node3&#45;&gt;Node10</title>
<path fill="none" stroke="midnightblue" d="M1008.09,-63.1742C1032.93,-51.6287 1068.73,-34.9875 1090.19,-25.0091"/>
<polygon fill="midnightblue" stroke="midnightblue" points="1006.43,-60.0859 998.839,-67.4751 1009.38,-66.4336 1006.43,-60.0859"/>
</g>
<!-- Node11 -->
<g id="node11" class="node"><title>Node11</title>
<g id="a_node11"><a xlink:href="_simulator_8cpp.html" target="_top" xlink:title="src/Simulator.cpp">
<polygon fill="white" stroke="black" points="323,-6 323,-25 416,-25 416,-6 323,-6"/>
<text text-anchor="middle" x="369.5" y="-13" font-family="Helvetica,sans-Serif" font-size="10.00">src/Simulator.cpp</text>
</a>
</g>
</g>
<!-- Node3&#45;&gt;Node11 -->
<g id="edge10" class="edge"><title>Node3&#45;&gt;Node11</title>
<path fill="none" stroke="midnightblue" d="M923.658,-74.7144C822.566,-71.6931 605.157,-61.8744 424.5,-31 415.837,-29.5195 406.55,-27.3158 398.12,-25.0708"/>
<polygon fill="midnightblue" stroke="midnightblue" points="923.56,-78.2129 933.656,-75.0022 923.761,-71.2158 923.56,-78.2129"/>
</g>
<!-- Node12&#45;&gt;Node5 -->
<g id="edge12" class="edge"><title>Node12&#45;&gt;Node5</title>
<path fill="none" stroke="midnightblue" d="M346.934,-62.7118C325.629,-51.1881 295.434,-34.855 277.231,-25.0091"/>
<polygon fill="midnightblue" stroke="midnightblue" points="345.279,-65.7959 355.74,-67.4751 348.609,-59.6389 345.279,-65.7959"/>
</g>
<!-- Node12&#45;&gt;Node11 -->
<g id="edge17" class="edge"><title>Node12&#45;&gt;Node11</title>
<path fill="none" stroke="midnightblue" d="M370.872,-57.3165C370.508,-46.4962 370.068,-33.398 369.786,-25.0091"/>
<polygon fill="midnightblue" stroke="midnightblue" points="367.379,-57.5984 371.213,-67.4751 374.375,-57.3631 367.379,-57.5984"/>
</g>
<!-- Node13 -->
<g id="node13" class="node"><title>Node13</title>
<g id="a_node13"><a xlink:href="_clock_8cpp.html" target="_top" xlink:title="src/Clock.cpp">
<polygon fill="white" stroke="black" points="434,-6 434,-25 511,-25 511,-6 434,-6"/>
<text text-anchor="middle" x="472.5" y="-13" font-family="Helvetica,sans-Serif" font-size="10.00">src/Clock.cpp</text>
</a>
</g>
</g>
<!-- Node12&#45;&gt;Node13 -->
<g id="edge13" class="edge"><title>Node12&#45;&gt;Node13</title>
<path fill="none" stroke="midnightblue" d="M394.85,-62.2441C414.362,-50.7498 441.568,-34.7226 458.056,-25.0091"/>
<polygon fill="midnightblue" stroke="midnightblue" points="392.81,-59.3836 385.971,-67.4751 396.363,-65.4149 392.81,-59.3836"/>
</g>
<!-- Node14 -->
<g id="node14" class="node"><title>Node14</title>
<g id="a_node14"><a xlink:href="_event_factory_8cpp.html" target="_top" xlink:title="src/EventFactory.cpp">
<polygon fill="white" stroke="black" points="529.5,-6 529.5,-25 639.5,-25 639.5,-6 529.5,-6"/>
<text text-anchor="middle" x="584.5" y="-13" font-family="Helvetica,sans-Serif" font-size="10.00">src/EventFactory.cpp</text>
</a>
</g>
</g>
<!-- Node12&#45;&gt;Node14 -->
<g id="edge14" class="edge"><title>Node12&#45;&gt;Node14</title>
<path fill="none" stroke="midnightblue" d="M411.776,-64.7493C453.158,-53.1894 516.658,-35.4511 554.039,-25.0091"/>
<polygon fill="midnightblue" stroke="midnightblue" points="410.707,-61.4136 402.018,-67.4751 412.591,-68.1555 410.707,-61.4136"/>
</g>
<!-- Node15 -->
<g id="node15" class="node"><title>Node15</title>
<g id="a_node15"><a xlink:href="_event_queue_8cpp.html" target="_top" xlink:title="src/EventQueue.cpp">
<polygon fill="white" stroke="black" points="657.5,-6 657.5,-25 763.5,-25 763.5,-6 657.5,-6"/>
<text text-anchor="middle" x="710.5" y="-13" font-family="Helvetica,sans-Serif" font-size="10.00">src/EventQueue.cpp</text>
</a>
</g>
</g>
<!-- Node12&#45;&gt;Node15 -->
<g id="edge15" class="edge"><title>Node12&#45;&gt;Node15</title>
<path fill="none" stroke="midnightblue" d="M423.906,-68.5825C479.752,-60.4226 570.662,-46.4058 648.5,-31 657.392,-29.2401 666.949,-27.1199 675.832,-25.0508"/>
<polygon fill="midnightblue" stroke="midnightblue" points="423.29,-65.1352 413.898,-70.037 424.297,-72.0624 423.29,-65.1352"/>
</g>
<!-- Node16 -->
<g id="node16" class="node"><title>Node16</title>
<g id="a_node16"><a xlink:href="_reporter_8cpp.html" target="_top" xlink:title="src/Reporter.cpp">
<polygon fill="white" stroke="black" points="111,-6 111,-25 200,-25 200,-6 111,-6"/>
<text text-anchor="middle" x="155.5" y="-13" font-family="Helvetica,sans-Serif" font-size="10.00">src/Reporter.cpp</text>
</a>
</g>
</g>
<!-- Node12&#45;&gt;Node16 -->
<g id="edge16" class="edge"><title>Node12&#45;&gt;Node16</title>
<path fill="none" stroke="midnightblue" d="M330.657,-64.7493C288.692,-53.1894 224.297,-35.4511 186.39,-25.0091"/>
<polygon fill="midnightblue" stroke="midnightblue" points="329.982,-68.1936 340.552,-67.4751 331.841,-61.445 329.982,-68.1936"/>
</g>
<!-- Node17&#45;&gt;Node5 -->
<g id="edge19" class="edge"><title>Node17&#45;&gt;Node5</title>
<path fill="none" stroke="midnightblue" d="M261.5,-57.3165C261.5,-46.4962 261.5,-33.398 261.5,-25.0091"/>
<polygon fill="midnightblue" stroke="midnightblue" points="258,-57.4751 261.5,-67.4751 265,-57.4751 258,-57.4751"/>
</g>
<!-- Node17&#45;&gt;Node11 -->
<g id="edge21" class="edge"><title>Node17&#45;&gt;Node11</title>
<path fill="none" stroke="midnightblue" d="M285.902,-62.5565C306.802,-51.0417 336.263,-34.8109 354.055,-25.0091"/>
<polygon fill="midnightblue" stroke="midnightblue" points="284.044,-59.5841 276.974,-67.4751 287.421,-65.7152 284.044,-59.5841"/>
</g>
<!-- Node17&#45;&gt;Node16 -->
<g id="edge20" class="edge"><title>Node17&#45;&gt;Node16</title>
<path fill="none" stroke="midnightblue" d="M237.55,-62.5565C217.037,-51.0417 188.121,-34.8109 170.659,-25.0091"/>
<polygon fill="midnightblue" stroke="midnightblue" points="235.879,-65.6323 246.313,-67.4751 239.306,-59.5282 235.879,-65.6323"/>
</g>
<!-- Node18 -->
<g id="node18" class="node"><title>Node18</title>
<g id="a_node18"><a xlink:href="_statistics_8cpp.html" target="_top" xlink:title="src/Statistics.cpp">
<polygon fill="white" stroke="black" points="0,-6 0,-25 93,-25 93,-6 0,-6"/>
<text text-anchor="middle" x="46.5" y="-13" font-family="Helvetica,sans-Serif" font-size="10.00">src/Statistics.cpp</text>
</a>
</g>
</g>
<!-- Node17&#45;&gt;Node18 -->
<g id="edge22" class="edge"><title>Node17&#45;&gt;Node18</title>
<path fill="none" stroke="midnightblue" d="M220.846,-64.7493C179.075,-53.1894 114.979,-35.4511 77.2471,-25.0091"/>
<polygon fill="midnightblue" stroke="midnightblue" points="220.124,-68.1811 230.696,-67.4751 221.992,-61.4346 220.124,-68.1811"/>
</g>
</g>
</svg>
        <g id="navigator" transform="translate(0 0)" fill="#404254">
                <rect fill="#f2f5e9" fill-opacity="0.5" stroke="#606060" stroke-width=".5" x="0" y="0" width="60" height="60"/>
                <use id="zoomplus" xlink:href="#zoomPlus" x="17" y="9" onmousedown="handleZoom(evt,'in')"/>
                <use id="zoomminus" xlink:href="#zoomMin" x="42" y="9" onmousedown="handleZoom(evt,'out')"/>
                <use id="reset" xlink:href="#resetDef" x="30" y="36" onmousedown="handleReset()"/>
                <g id="arrowUp" xlink:href="#dirArrow" transform="translate(30 24)" onmousedown="handlePan(0,-1)">
                  <use xlink:href="#rim" fill="#404040">
                        <set attributeName="fill" to="#808080" begin="arrowUp.mouseover" end="arrowUp.mouseout"/>
                  </use>
                  <path fill="none" stroke="white" stroke-width="1.5" d="M0,-3.0v7 M-2.5,-0.5L0,-3.0L2.5,-0.5"/>
                </g>
                <g id="arrowRight" xlink:href="#dirArrow" transform="rotate(90) translate(36 -43)" onmousedown="handlePan(1,0)">
                  <use xlink:href="#rim" fill="#404040">
                        <set attributeName="fill" to="#808080" begin="arrowRight.mouseover" end="arrowRight.mouseout"/>
                  </use>
                  <path fill="none" stroke="white" stroke-width="1.5" d="M0,-3.0v7 M-2.5,-0.5L0,-3.0L2.5,-0.5"/>
                </g>
                <g id="arrowDown" xlink:href="#dirArrow" transform="rotate(180) translate(-30 -48)" onmousedown="handlePan(0,1)">
                  <use xlink:href="#rim" fill="#404040">
                        <set attributeName="fill" to="#808080" begin="arrowDown.mouseover" end="arrowDown.mouseout"/>
                  </use>
                  <path fill="none" stroke="white" stroke-width="1.5" d="M0,-3.0v7 M-2.5,-0.5L0,-3.0L2.5,-0.5"/>
                </g>
                <g id="arrowLeft" xlink:href="#dirArrow" transform="rotate(270) translate(-36 17)" onmousedown="handlePan(-1,0)">
                  <use xlink:href="#rim" fill="#404040">
                        <set attributeName="fill" to="#808080" begin="arrowLeft.mouseover" end="arrowLeft.mouseout"/>
                  </use>
                  <path fill="none" stroke="white" stroke-width="1.5" d="M0,-3.0v7 M-2.5,-0.5L0,-3.0L2.5,-0.5"/>
                </g>
        </g>
        <svg viewBox="0 0 15 15" width="100%" height="30px" preserveAspectRatio="xMaxYMin meet">
         <g id="arrow_out" transform="scale(0.3 0.3)">
          <a xlink:href="_event_observer_8h__dep__incl_org.svg" target="_base">
           <rect id="button" ry="5" rx="5" y="6" x="6" height="38" width="38"
                fill="#f2f5e9" fill-opacity="0.5" stroke="#606060" stroke-width="1.0"/>
           <path id="arrow"
             d="M 11.500037,31.436501 C 11.940474,20.09759 22.043105,11.32322 32.158766,21.979434 L 37.068811,17.246167 C 37.068811,17.246167 37.088388,32 37.088388,32 L 22.160133,31.978069 C 22.160133,31.978069 26.997745,27.140456 26.997745,27.140456 C 18.528582,18.264221 13.291696,25.230495 11.500037,31.436501 z"
             style="fill:#404040;"/>
          </a>
         </g>
        </svg>
</svg>
