<?xml version="1.0" encoding="UTF-8" standalone="no"?>
<!DOCTYPE svg PUBLIC "-//W3C//DTD SVG 1.1//EN"
 "http://www.w3.org/Graphics/SVG/1.1/DTD/svg11.dtd">
<!-- Generated by graphviz version 2.38.0 (20140413.2041)
 -->
<!-- Title: include/Event.h Pages: 1 -->
<svg width="1439pt" height="140pt"
 viewBox="0.00 0.00 1439.00 140.00" xmlns="http://www.w3.org/2000/svg" xmlns:xlink="http://www.w3.org/1999/xlink">
<g id="graph0" class="graph" transform="scale(1 1) rotate(0) translate(4 136)">
<title>include/Event.h</title>
<polygon fill="white" stroke="none" points="-4,4 -4,-136 1435,-136 1435,4 -4,4"/>
<!-- Node1 -->
<g id="node1" class="node"><title>Node1</title>
<polygon fill="#bfbfbf" stroke="black" points="501,-112.5 501,-131.5 596,-131.5 596,-112.5 501,-112.5"/>
<text text-anchor="middle" x="548.5" y="-119.5" font-family="Ubuntu Mono" font-size="10.00">include/Event.h</text>
</g>
<!-- Node2 -->
<g id="node2" class="node"><title>Node2</title>
<g id="a_node2"><a xlink:href="_clock_8cpp.html" target="_top" xlink:title="src/Clock.cpp">
<polygon fill="white" stroke="black" points="0,-56.5 0,-75.5 85,-75.5 85,-56.5 0,-56.5"/>
<text text-anchor="middle" x="42.5" y="-63.5" font-family="Ubuntu Mono" font-size="10.00">src/Clock.cpp</text>
</a>
</g>
</g>
<!-- Node1&#45;&gt;Node2 -->
<g id="edge1" class="edge"><title>Node1&#45;&gt;Node2</title>
<path fill="none" stroke="midnightblue" d="M490.726,-116.703C404.159,-109.945 235.755,-95.5576 93.5,-76 90.7388,-75.6204 87.8984,-75.2007 85.0386,-74.7563"/>
<polygon fill="midnightblue" stroke="midnightblue" points="490.629,-120.206 500.87,-117.489 491.17,-113.227 490.629,-120.206"/>
</g>
<!-- Node3 -->
<g id="node3" class="node"><title>Node3</title>
<g id="a_node3"><a xlink:href="_elevator_8cpp.html" target="_top" xlink:title="src/Elevator.cpp">
<polygon fill="white" stroke="black" points="103,-56.5 103,-75.5 204,-75.5 204,-56.5 103,-56.5"/>
<text text-anchor="middle" x="153.5" y="-63.5" font-family="Ubuntu Mono" font-size="10.00">src/Elevator.cpp</text>
</a>
</g>
</g>
<!-- Node1&#45;&gt;Node3 -->
<g id="edge2" class="edge"><title>Node1&#45;&gt;Node3</title>
<path fill="none" stroke="midnightblue" d="M490.439,-113.476C423.606,-104.751 310.56,-89.7976 213.5,-76 210.476,-75.5701 207.367,-75.1221 204.231,-74.6656"/>
<polygon fill="midnightblue" stroke="midnightblue" points="490.39,-116.999 500.759,-114.822 491.296,-110.058 490.39,-116.999"/>
</g>
<!-- Node4 -->
<g id="node4" class="node"><title>Node4</title>
<g id="a_node4"><a xlink:href="_event_8cpp.html" target="_top" xlink:title="src/Event.cpp">
<polygon fill="white" stroke="black" points="222,-56.5 222,-75.5 307,-75.5 307,-56.5 222,-56.5"/>
<text text-anchor="middle" x="264.5" y="-63.5" font-family="Ubuntu Mono" font-size="10.00">src/Event.cpp</text>
</a>
</g>
</g>
<!-- Node1&#45;&gt;Node4 -->
<g id="edge3" class="edge"><title>Node1&#45;&gt;Node4</title>
<path fill="none" stroke="midnightblue" d="M493.351,-110.514C439.004,-100.18 357.101,-84.6073 307.431,-75.1629"/>
<polygon fill="midnightblue" stroke="midnightblue" points="493.022,-114.014 503.499,-112.444 494.329,-107.137 493.022,-114.014"/>
</g>
<!-- Node5 -->
<g id="node5" class="node"><title>Node5</title>
<g id="a_node5"><a xlink:href="_event_comparator_8cpp.html" target="_top" xlink:title="src/EventComparator.cpp">
<polygon fill="white" stroke="black" points="325,-56.5 325,-75.5 462,-75.5 462,-56.5 325,-56.5"/>
<text text-anchor="middle" x="393.5" y="-63.5" font-family="Ubuntu Mono" font-size="10.00">src/EventComparator.cpp</text>
</a>
</g>
</g>
<!-- Node1&#45;&gt;Node5 -->
<g id="edge4" class="edge"><title>Node1&#45;&gt;Node5</title>
<path fill="none" stroke="midnightblue" d="M514.168,-109.039C485.003,-98.8786 443.863,-84.5457 417.945,-75.5164"/>
<polygon fill="midnightblue" stroke="midnightblue" points="513.345,-112.459 523.94,-112.444 515.648,-105.848 513.345,-112.459"/>
</g>
<!-- Node6 -->
<g id="node6" class="node"><title>Node6</title>
<g id="a_node6"><a xlink:href="_event_dispatcher_8cpp.html" target="_top" xlink:title="src/EventDispatcher.cpp">
<polygon fill="white" stroke="black" points="480,-56.5 480,-75.5 617,-75.5 617,-56.5 480,-56.5"/>
<text text-anchor="middle" x="548.5" y="-63.5" font-family="Ubuntu Mono" font-size="10.00">src/EventDispatcher.cpp</text>
</a>
</g>
</g>
<!-- Node1&#45;&gt;Node6 -->
<g id="edge5" class="edge"><title>Node1&#45;&gt;Node6</title>
<path fill="none" stroke="midnightblue" d="M548.5,-101.805C548.5,-92.9102 548.5,-82.7798 548.5,-75.7511"/>
<polygon fill="midnightblue" stroke="midnightblue" points="545,-102.083 548.5,-112.083 552,-102.083 545,-102.083"/>
</g>
<!-- Node7 -->
<g id="node7" class="node"><title>Node7</title>
<g id="a_node7"><a xlink:href="_statistics_8cpp.html" target="_top" xlink:title="src/Statistics.cpp">
<polygon fill="white" stroke="black" points="399,-0.5 399,-19.5 510,-19.5 510,-0.5 399,-0.5"/>
<text text-anchor="middle" x="454.5" y="-7.5" font-family="Ubuntu Mono" font-size="10.00">src/Statistics.cpp</text>
</a>
</g>
</g>
<!-- Node1&#45;&gt;Node7 -->
<g id="edge6" class="edge"><title>Node1&#45;&gt;Node7</title>
<path fill="none" stroke="midnightblue" d="M583.515,-108.57C611.367,-96.7212 643.122,-77.5303 626.5,-56 618.554,-45.7079 546.553,-29.469 498.261,-19.5705"/>
<polygon fill="midnightblue" stroke="midnightblue" points="581.875,-105.458 573.912,-112.447 584.495,-111.949 581.875,-105.458"/>
</g>
<!-- Node8 -->
<g id="node8" class="node"><title>Node8</title>
<g id="a_node8"><a xlink:href="_client_arrival_8h.html" target="_top" xlink:title="include/ClientArrival.h">
<polygon fill="white" stroke="black" points="674,-56.5 674,-75.5 811,-75.5 811,-56.5 674,-56.5"/>
<text text-anchor="middle" x="742.5" y="-63.5" font-family="Ubuntu Mono" font-size="10.00">include/ClientArrival.h</text>
</a>
</g>
</g>
<!-- Node1&#45;&gt;Node8 -->
<g id="edge7" class="edge"><title>Node1&#45;&gt;Node8</title>
<path fill="none" stroke="midnightblue" d="M589.101,-109.699C625.715,-99.507 678.757,-84.7429 711.904,-75.5164"/>
<polygon fill="midnightblue" stroke="midnightblue" points="587.935,-106.39 579.24,-112.444 589.812,-113.134 587.935,-106.39"/>
</g>
<!-- Node13 -->
<g id="node13" class="node"><title>Node13</title>
<g id="a_node13"><a xlink:href="_event_queue_8h.html" target="_top" xlink:title="include/EventQueue.h">
<polygon fill="white" stroke="black" points="861.5,-56.5 861.5,-75.5 983.5,-75.5 983.5,-56.5 861.5,-56.5"/>
<text text-anchor="middle" x="922.5" y="-63.5" font-family="Ubuntu Mono" font-size="10.00">include/EventQueue.h</text>
</a>
</g>
</g>
<!-- Node1&#45;&gt;Node13 -->
<g id="edge13" class="edge"><title>Node1&#45;&gt;Node13</title>
<path fill="none" stroke="midnightblue" d="M606.193,-112.67C675.993,-102.592 792.887,-85.7141 863.34,-75.5418"/>
<polygon fill="midnightblue" stroke="midnightblue" points="605.644,-109.213 596.247,-114.106 606.645,-116.141 605.644,-109.213"/>
</g>
<!-- Node16 -->
<g id="node16" class="node"><title>Node16</title>
<g id="a_node16"><a xlink:href="_finish_simulation_8h.html" target="_top" xlink:title="include/FinishSimulation.h">
<polygon fill="white" stroke="black" points="1002,-56.5 1002,-75.5 1155,-75.5 1155,-56.5 1002,-56.5"/>
<text text-anchor="middle" x="1078.5" y="-63.5" font-family="Ubuntu Mono" font-size="10.00">include/FinishSimulation.h</text>
</a>
</g>
</g>
<!-- Node1&#45;&gt;Node16 -->
<g id="edge18" class="edge"><title>Node1&#45;&gt;Node16</title>
<path fill="none" stroke="midnightblue" d="M606.33,-115.2C691.072,-106.686 853.964,-90.2694 992.5,-76 995.487,-75.6924 998.531,-75.3779 1001.61,-75.0595"/>
<polygon fill="midnightblue" stroke="midnightblue" points="605.742,-111.741 596.142,-116.223 606.442,-118.706 605.742,-111.741"/>
</g>
<!-- Node8&#45;&gt;Node7 -->
<g id="edge12" class="edge"><title>Node8&#45;&gt;Node7</title>
<path fill="none" stroke="midnightblue" d="M686.698,-54.5371C632.268,-44.3316 550.496,-28.9992 499.921,-19.5164"/>
<polygon fill="midnightblue" stroke="midnightblue" points="686.392,-58.0406 696.866,-56.4435 687.682,-51.1605 686.392,-58.0406"/>
</g>
<!-- Node9 -->
<g id="node9" class="node"><title>Node9</title>
<g id="a_node9"><a xlink:href="_building_8cpp.html" target="_top" xlink:title="src/Building.cpp">
<polygon fill="white" stroke="black" points="528,-0.5 528,-19.5 629,-19.5 629,-0.5 528,-0.5"/>
<text text-anchor="middle" x="578.5" y="-7.5" font-family="Ubuntu Mono" font-size="10.00">src/Building.cpp</text>
</a>
</g>
</g>
<!-- Node8&#45;&gt;Node9 -->
<g id="edge8" class="edge"><title>Node8&#45;&gt;Node9</title>
<path fill="none" stroke="midnightblue" d="M706.98,-53.3044C676.078,-43.1294 632.027,-28.6246 604.365,-19.5164"/>
<polygon fill="midnightblue" stroke="midnightblue" points="705.921,-56.6404 716.514,-56.4435 708.11,-49.9915 705.921,-56.6404"/>
</g>
<!-- Node10 -->
<g id="node10" class="node"><title>Node10</title>
<g id="a_node10"><a xlink:href="_client_arrival_8cpp.html" target="_top" xlink:title="src/ClientArrival.cpp">
<polygon fill="white" stroke="black" points="647,-0.5 647,-19.5 774,-19.5 774,-0.5 647,-0.5"/>
<text text-anchor="middle" x="710.5" y="-7.5" font-family="Ubuntu Mono" font-size="10.00">src/ClientArrival.cpp</text>
</a>
</g>
</g>
<!-- Node8&#45;&gt;Node10 -->
<g id="edge9" class="edge"><title>Node8&#45;&gt;Node10</title>
<path fill="none" stroke="midnightblue" d="M731.996,-47.2747C726.527,-38.0454 720.082,-27.1703 715.686,-19.7511"/>
<polygon fill="midnightblue" stroke="midnightblue" points="729.107,-49.2644 737.216,-56.083 735.129,-45.6957 729.107,-49.2644"/>
</g>
<!-- Node11 -->
<g id="node11" class="node"><title>Node11</title>
<g id="a_node11"><a xlink:href="_event_factory_8cpp.html" target="_top" xlink:title="src/EventFactory.cpp">
<polygon fill="white" stroke="black" points="792.5,-0.5 792.5,-19.5 914.5,-19.5 914.5,-0.5 792.5,-0.5"/>
<text text-anchor="middle" x="853.5" y="-7.5" font-family="Ubuntu Mono" font-size="10.00">src/EventFactory.cpp</text>
</a>
</g>
</g>
<!-- Node8&#45;&gt;Node11 -->
<g id="edge10" class="edge"><title>Node8&#45;&gt;Node11</title>
<path fill="none" stroke="midnightblue" d="M769.505,-51.8622C790.088,-41.8492 817.845,-28.3458 835.71,-19.6545"/>
<polygon fill="midnightblue" stroke="midnightblue" points="767.795,-48.8019 760.334,-56.324 770.858,-55.0966 767.795,-48.8019"/>
</g>
<!-- Node12 -->
<g id="node12" class="node"><title>Node12</title>
<g id="a_node12"><a xlink:href="_simulator_8cpp.html" target="_top" xlink:title="src/Simulator.cpp">
<polygon fill="white" stroke="black" points="932.5,-0.5 932.5,-19.5 1038.5,-19.5 1038.5,-0.5 932.5,-0.5"/>
<text text-anchor="middle" x="985.5" y="-7.5" font-family="Ubuntu Mono" font-size="10.00">src/Simulator.cpp</text>
</a>
</g>
</g>
<!-- Node8&#45;&gt;Node12 -->
<g id="edge11" class="edge"><title>Node8&#45;&gt;Node12</title>
<path fill="none" stroke="midnightblue" d="M791.022,-54.2172C836.94,-44.0134 904.947,-28.9006 947.176,-19.5164"/>
<polygon fill="midnightblue" stroke="midnightblue" points="790.007,-50.8575 781.004,-56.4435 791.525,-57.6908 790.007,-50.8575"/>
</g>
<!-- Node13&#45;&gt;Node11 -->
<g id="edge14" class="edge"><title>Node13&#45;&gt;Node11</title>
<path fill="none" stroke="midnightblue" d="M903.462,-50.1008C891.044,-40.3824 875.257,-28.0269 864.788,-19.8339"/>
<polygon fill="midnightblue" stroke="midnightblue" points="901.382,-52.9171 911.414,-56.324 905.696,-47.4046 901.382,-52.9171"/>
</g>
<!-- Node13&#45;&gt;Node12 -->
<g id="edge17" class="edge"><title>Node13&#45;&gt;Node12</title>
<path fill="none" stroke="midnightblue" d="M940.54,-49.5372C951.773,-39.9087 965.819,-27.8694 975.194,-19.8339"/>
<polygon fill="midnightblue" stroke="midnightblue" points="937.937,-47.1586 932.622,-56.324 942.492,-52.4734 937.937,-47.1586"/>
</g>
<!-- Node14 -->
<g id="node14" class="node"><title>Node14</title>
<g id="a_node14"><a xlink:href="_event_queue_8cpp.html" target="_top" xlink:title="src/EventQueue.cpp">
<polygon fill="white" stroke="black" points="1056,-0.5 1056,-19.5 1167,-19.5 1167,-0.5 1056,-0.5"/>
<text text-anchor="middle" x="1111.5" y="-7.5" font-family="Ubuntu Mono" font-size="10.00">src/EventQueue.cpp</text>
</a>
</g>
</g>
<!-- Node13&#45;&gt;Node14 -->
<g id="edge15" class="edge"><title>Node13&#45;&gt;Node14</title>
<path fill="none" stroke="midnightblue" d="M962.513,-53.5677C998.167,-43.381 1049.54,-28.7034 1081.69,-19.5164"/>
<polygon fill="midnightblue" stroke="midnightblue" points="961.101,-50.3309 952.448,-56.4435 963.024,-57.0616 961.101,-50.3309"/>
</g>
<!-- Node15 -->
<g id="node15" class="node"><title>Node15</title>
<g id="a_node15"><a xlink:href="_floor_8cpp.html" target="_top" xlink:title="src/Floor.cpp">
<polygon fill="white" stroke="black" points="1185,-0.5 1185,-19.5 1270,-19.5 1270,-0.5 1185,-0.5"/>
<text text-anchor="middle" x="1227.5" y="-7.5" font-family="Ubuntu Mono" font-size="10.00">src/Floor.cpp</text>
</a>
</g>
</g>
<!-- Node13&#45;&gt;Node15 -->
<g id="edge16" class="edge"><title>Node13&#45;&gt;Node15</title>
<path fill="none" stroke="midnightblue" d="M980.845,-54.6701C1040.46,-44.1153 1131.61,-27.9765 1184.81,-18.558"/>
<polygon fill="midnightblue" stroke="midnightblue" points="980.065,-51.2537 970.828,-56.4435 981.285,-58.1465 980.065,-51.2537"/>
</g>
<!-- Node16&#45;&gt;Node12 -->
<g id="edge20" class="edge"><title>Node16&#45;&gt;Node12</title>
<path fill="none" stroke="midnightblue" d="M1054.69,-51.1774C1037.58,-41.2407 1015.03,-28.1492 1000.4,-19.6545"/>
<polygon fill="midnightblue" stroke="midnightblue" points="1053.15,-54.3293 1063.56,-56.324 1056.67,-48.2758 1053.15,-54.3293"/>
</g>
<!-- Node17 -->
<g id="node17" class="node"><title>Node17</title>
<g id="a_node17"><a xlink:href="_finish_simulation_8cpp.html" target="_top" xlink:title="src/FinishSimulation.cpp">
<polygon fill="white" stroke="black" points="1288,-0.5 1288,-19.5 1431,-19.5 1431,-0.5 1288,-0.5"/>
<text text-anchor="middle" x="1359.5" y="-7.5" font-family="Ubuntu Mono" font-size="10.00">src/FinishSimulation.cpp</text>
</a>
</g>
</g>
<!-- Node16&#45;&gt;Node17 -->
<g id="edge19" class="edge"><title>Node16&#45;&gt;Node17</title>
<path fill="none" stroke="midnightblue" d="M1132.95,-54.5371C1186.05,-44.3316 1265.84,-28.9992 1315.18,-19.5164"/>
<polygon fill="midnightblue" stroke="midnightblue" points="1132.19,-51.1192 1123.03,-56.4435 1133.51,-57.9934 1132.19,-51.1192"/>
</g>
</g>
</svg>
