<?xml version="1.0" encoding="UTF-8" standalone="no"?>
<!DOCTYPE svg PUBLIC "-//W3C//DTD SVG 1.1//EN"
 "http://www.w3.org/Graphics/SVG/1.1/DTD/svg11.dtd">
<!-- Generated by graphviz version 2.38.0 (20140413.2041)
 -->
<!-- Title: src/EventDispatcher.cpp Pages: 1 -->
<svg width="439pt" height="196pt"
 viewBox="0.00 0.00 438.50 196.00" xmlns="http://www.w3.org/2000/svg" xmlns:xlink="http://www.w3.org/1999/xlink">
<g id="graph0" class="graph" transform="scale(1 1) rotate(0) translate(4 192)">
<title>src/EventDispatcher.cpp</title>
<polygon fill="white" stroke="none" points="-4,4 -4,-192 434.5,-192 434.5,4 -4,4"/>
<!-- Node1 -->
<g id="node1" class="node"><title>Node1</title>
<polygon fill="#bfbfbf" stroke="black" points="182.5,-168.5 182.5,-187.5 307.5,-187.5 307.5,-168.5 182.5,-168.5"/>
<text text-anchor="middle" x="245" y="-175.5" font-family="Helvetica,sans-Serif" font-size="10.00">src/EventDispatcher.cpp</text>
</g>
<!-- Node2 -->
<g id="node2" class="node"><title>Node2</title>
<g id="a_node2"><a xlink:href="_event_dispatcher_8h.html" target="_top" xlink:title="EventDispatcher.h">
<polygon fill="white" stroke="black" points="131,-112.5 131,-131.5 229,-131.5 229,-112.5 131,-112.5"/>
<text text-anchor="middle" x="180" y="-119.5" font-family="Helvetica,sans-Serif" font-size="10.00">EventDispatcher.h</text>
</a>
</g>
</g>
<!-- Node1&#45;&gt;Node2 -->
<g id="edge1" class="edge"><title>Node1&#45;&gt;Node2</title>
<path fill="none" stroke="midnightblue" d="M234.557,-168.324C224.854,-160.263 210.185,-148.077 198.5,-138.369"/>
<polygon fill="midnightblue" stroke="midnightblue" points="200.562,-135.532 190.633,-131.834 196.089,-140.916 200.562,-135.532"/>
</g>
<!-- Node6 -->
<g id="node6" class="node"><title>Node6</title>
<g id="a_node6"><a xlink:href="_event_8h.html" target="_top" xlink:title="Event.h">
<polygon fill="white" stroke="black" points="285,-112.5 285,-131.5 335,-131.5 335,-112.5 285,-112.5"/>
<text text-anchor="middle" x="310" y="-119.5" font-family="Helvetica,sans-Serif" font-size="10.00">Event.h</text>
</a>
</g>
</g>
<!-- Node1&#45;&gt;Node6 -->
<g id="edge6" class="edge"><title>Node1&#45;&gt;Node6</title>
<path fill="none" stroke="midnightblue" d="M255.443,-168.324C265.146,-160.263 279.815,-148.077 291.5,-138.369"/>
<polygon fill="midnightblue" stroke="midnightblue" points="293.911,-140.916 299.367,-131.834 289.438,-135.532 293.911,-140.916"/>
</g>
<!-- Node10 -->
<g id="node10" class="node"><title>Node10</title>
<g id="a_node10"><a xlink:href="_event_observer_8h.html" target="_top" xlink:title="EventObserver.h">
<polygon fill="white" stroke="black" points="0,-56.5 0,-75.5 90,-75.5 90,-56.5 0,-56.5"/>
<text text-anchor="middle" x="45" y="-63.5" font-family="Helvetica,sans-Serif" font-size="10.00">EventObserver.h</text>
</a>
</g>
</g>
<!-- Node1&#45;&gt;Node10 -->
<g id="edge11" class="edge"><title>Node1&#45;&gt;Node10</title>
<path fill="none" stroke="midnightblue" d="M212.291,-168.446C186.681,-160.958 150.712,-148.665 122,-132 98.5103,-118.366 75.1923,-97.3629 60.4767,-82.9431"/>
<polygon fill="midnightblue" stroke="midnightblue" points="62.7832,-80.2997 53.2399,-75.698 57.8306,-85.2466 62.7832,-80.2997"/>
</g>
<!-- Node11 -->
<g id="node11" class="node"><title>Node11</title>
<polygon fill="white" stroke="#bfbfbf" points="353.5,-112.5 353.5,-131.5 430.5,-131.5 430.5,-112.5 353.5,-112.5"/>
<text text-anchor="middle" x="392" y="-119.5" font-family="Helvetica,sans-Serif" font-size="10.00">glog/logging.h</text>
</g>
<!-- Node1&#45;&gt;Node11 -->
<g id="edge13" class="edge"><title>Node1&#45;&gt;Node11</title>
<path fill="none" stroke="midnightblue" d="M268.293,-168.444C292.807,-159.438 331.596,-145.189 359.2,-135.049"/>
<polygon fill="midnightblue" stroke="midnightblue" points="360.637,-138.25 368.816,-131.516 358.223,-131.679 360.637,-138.25"/>
</g>
<!-- Node3 -->
<g id="node3" class="node"><title>Node3</title>
<g id="a_node3"><a xlink:href="_event_notifier_8h.html" target="_top" xlink:title="EventNotifier.h">
<polygon fill="white" stroke="black" points="194,-56.5 194,-75.5 276,-75.5 276,-56.5 194,-56.5"/>
<text text-anchor="middle" x="235" y="-63.5" font-family="Helvetica,sans-Serif" font-size="10.00">EventNotifier.h</text>
</a>
</g>
</g>
<!-- Node2&#45;&gt;Node3 -->
<g id="edge2" class="edge"><title>Node2&#45;&gt;Node3</title>
<path fill="none" stroke="midnightblue" d="M189.082,-112.083C197.171,-104.141 209.195,-92.3354 218.91,-82.7973"/>
<polygon fill="midnightblue" stroke="midnightblue" points="221.403,-85.2545 226.087,-75.7511 216.499,-80.2595 221.403,-85.2545"/>
</g>
<!-- Node4 -->
<g id="node4" class="node"><title>Node4</title>
<polygon fill="white" stroke="#bfbfbf" points="92,-0.5 92,-19.5 144,-19.5 144,-0.5 92,-0.5"/>
<text text-anchor="middle" x="118" y="-7.5" font-family="Helvetica,sans-Serif" font-size="10.00">memory</text>
</g>
<!-- Node2&#45;&gt;Node4 -->
<g id="edge5" class="edge"><title>Node2&#45;&gt;Node4</title>
<path fill="none" stroke="midnightblue" d="M169.3,-112.448C159.552,-104.116 145.428,-90.5992 137,-76 128.643,-61.5222 123.708,-43.0749 120.971,-29.534"/>
<polygon fill="midnightblue" stroke="midnightblue" points="124.383,-28.7284 119.163,-19.5084 117.494,-29.9708 124.383,-28.7284"/>
</g>
<!-- Node5 -->
<g id="node5" class="node"><title>Node5</title>
<polygon fill="white" stroke="#bfbfbf" points="146.5,-56.5 146.5,-75.5 175.5,-75.5 175.5,-56.5 146.5,-56.5"/>
<text text-anchor="middle" x="161" y="-63.5" font-family="Helvetica,sans-Serif" font-size="10.00">list</text>
</g>
<!-- Node2&#45;&gt;Node5 -->
<g id="edge4" class="edge"><title>Node2&#45;&gt;Node5</title>
<path fill="none" stroke="midnightblue" d="M176.863,-112.083C174.317,-104.849 170.644,-94.4087 167.473,-85.3968"/>
<polygon fill="midnightblue" stroke="midnightblue" points="170.7,-84.0225 164.079,-75.7511 164.097,-86.3459 170.7,-84.0225"/>
</g>
<!-- Node3&#45;&gt;Node4 -->
<g id="edge3" class="edge"><title>Node3&#45;&gt;Node4</title>
<path fill="none" stroke="midnightblue" d="M216.461,-56.4435C197.377,-47.6356 167.425,-33.8116 145.564,-23.722"/>
<polygon fill="midnightblue" stroke="midnightblue" points="146.999,-20.5292 136.452,-19.5164 144.065,-26.8849 146.999,-20.5292"/>
</g>
<!-- Node7 -->
<g id="node7" class="node"><title>Node7</title>
<g id="a_node7"><a xlink:href="_event_type_8h.html" target="_top" xlink:title="EventType.h">
<polygon fill="white" stroke="black" points="294,-56.5 294,-75.5 366,-75.5 366,-56.5 294,-56.5"/>
<text text-anchor="middle" x="330" y="-63.5" font-family="Helvetica,sans-Serif" font-size="10.00">EventType.h</text>
</a>
</g>
</g>
<!-- Node6&#45;&gt;Node7 -->
<g id="edge7" class="edge"><title>Node6&#45;&gt;Node7</title>
<path fill="none" stroke="midnightblue" d="M313.303,-112.083C315.982,-104.849 319.849,-94.4087 323.186,-85.3968"/>
<polygon fill="midnightblue" stroke="midnightblue" points="326.568,-86.3442 326.759,-75.7511 320.004,-83.9129 326.568,-86.3442"/>
</g>
<!-- Node9 -->
<g id="node9" class="node"><title>Node9</title>
<polygon fill="white" stroke="#bfbfbf" points="373.5,-0.5 373.5,-19.5 414.5,-19.5 414.5,-0.5 373.5,-0.5"/>
<text text-anchor="middle" x="394" y="-7.5" font-family="Helvetica,sans-Serif" font-size="10.00">string</text>
</g>
<!-- Node6&#45;&gt;Node9 -->
<g id="edge10" class="edge"><title>Node6&#45;&gt;Node9</title>
<path fill="none" stroke="midnightblue" d="M328.898,-112.373C343.518,-104.773 363.198,-92.3641 375,-76 384.779,-62.4414 389.556,-43.8923 391.871,-30.0791"/>
<polygon fill="midnightblue" stroke="midnightblue" points="395.389,-30.1886 393.293,-19.8033 388.455,-29.2294 395.389,-30.1886"/>
</g>
<!-- Node8 -->
<g id="node8" class="node"><title>Node8</title>
<polygon fill="white" stroke="#bfbfbf" points="296.5,-0.5 296.5,-19.5 355.5,-19.5 355.5,-0.5 296.5,-0.5"/>
<text text-anchor="middle" x="326" y="-7.5" font-family="Helvetica,sans-Serif" font-size="10.00">stdexcept</text>
</g>
<!-- Node7&#45;&gt;Node8 -->
<g id="edge8" class="edge"><title>Node7&#45;&gt;Node8</title>
<path fill="none" stroke="midnightblue" d="M329.339,-56.083C328.815,-49.0059 328.064,-38.8611 327.406,-29.9865"/>
<polygon fill="midnightblue" stroke="midnightblue" points="330.877,-29.4652 326.648,-19.7511 323.897,-29.9823 330.877,-29.4652"/>
</g>
<!-- Node7&#45;&gt;Node9 -->
<g id="edge9" class="edge"><title>Node7&#45;&gt;Node9</title>
<path fill="none" stroke="midnightblue" d="M340.283,-56.324C349.836,-48.2631 364.28,-36.0765 375.784,-26.3695"/>
<polygon fill="midnightblue" stroke="midnightblue" points="378.144,-28.9577 383.53,-19.8339 373.63,-23.6076 378.144,-28.9577"/>
</g>
<!-- Node10&#45;&gt;Node4 -->
<g id="edge12" class="edge"><title>Node10&#45;&gt;Node4</title>
<path fill="none" stroke="midnightblue" d="M56.7287,-56.324C67.8374,-48.1066 84.7422,-35.6017 97.9833,-25.8069"/>
<polygon fill="midnightblue" stroke="midnightblue" points="100.1,-28.5948 106.058,-19.8339 95.9369,-22.9671 100.1,-28.5948"/>
</g>
</g>
</svg>
