<?xml version="1.0" encoding="UTF-8" standalone="no"?>
<!DOCTYPE svg PUBLIC "-//W3C//DTD SVG 1.1//EN"
 "http://www.w3.org/Graphics/SVG/1.1/DTD/svg11.dtd">
<!-- Generated by graphviz version 2.38.0 (20140413.2041)
 -->
<!-- Title: include/EventDispatcher.h Pages: 1 -->
<svg width="184pt" height="140pt"
 viewBox="0.00 0.00 183.50 140.00" xmlns="http://www.w3.org/2000/svg" xmlns:xlink="http://www.w3.org/1999/xlink">
<g id="graph0" class="graph" transform="scale(1 1) rotate(0) translate(4 136)">
<title>include/EventDispatcher.h</title>
<polygon fill="white" stroke="none" points="-4,4 -4,-136 179.5,-136 179.5,4 -4,4"/>
<!-- Node1 -->
<g id="node1" class="node"><title>Node1</title>
<polygon fill="#bfbfbf" stroke="black" points="44.5,-112.5 44.5,-131.5 175.5,-131.5 175.5,-112.5 44.5,-112.5"/>
<text text-anchor="middle" x="110" y="-119.5" font-family="Helvetica,sans-Serif" font-size="10.00">include/EventDispatcher.h</text>
</g>
<!-- Node2 -->
<g id="node2" class="node"><title>Node2</title>
<g id="a_node2"><a xlink:href="_event_notifier_8h.html" target="_top" xlink:title="EventNotifier.h">
<polygon fill="white" stroke="black" points="0,-56.5 0,-75.5 82,-75.5 82,-56.5 0,-56.5"/>
<text text-anchor="middle" x="41" y="-63.5" font-family="Helvetica,sans-Serif" font-size="10.00">EventNotifier.h</text>
</a>
</g>
</g>
<!-- Node1&#45;&gt;Node2 -->
<g id="edge1" class="edge"><title>Node1&#45;&gt;Node2</title>
<path fill="none" stroke="midnightblue" d="M98.914,-112.324C88.514,-104.185 72.7394,-91.8395 60.2784,-82.0874"/>
<polygon fill="midnightblue" stroke="midnightblue" points="62.3199,-79.2407 52.2878,-75.8339 58.0057,-84.7533 62.3199,-79.2407"/>
</g>
<!-- Node3 -->
<g id="node3" class="node"><title>Node3</title>
<polygon fill="white" stroke="#bfbfbf" points="49,-0.5 49,-19.5 101,-19.5 101,-0.5 49,-0.5"/>
<text text-anchor="middle" x="75" y="-7.5" font-family="Helvetica,sans-Serif" font-size="10.00">memory</text>
</g>
<!-- Node1&#45;&gt;Node3 -->
<g id="edge4" class="edge"><title>Node1&#45;&gt;Node3</title>
<path fill="none" stroke="midnightblue" d="M107.578,-112.12C104.112,-99.5579 97.4438,-75.9106 91,-56 88.1242,-47.114 84.6814,-37.3357 81.7275,-29.1706"/>
<polygon fill="midnightblue" stroke="midnightblue" points="84.9396,-27.7636 78.2145,-19.5768 78.3664,-30.1706 84.9396,-27.7636"/>
</g>
<!-- Node4 -->
<g id="node4" class="node"><title>Node4</title>
<polygon fill="white" stroke="#bfbfbf" points="138.5,-56.5 138.5,-75.5 167.5,-75.5 167.5,-56.5 138.5,-56.5"/>
<text text-anchor="middle" x="153" y="-63.5" font-family="Helvetica,sans-Serif" font-size="10.00">list</text>
</g>
<!-- Node1&#45;&gt;Node4 -->
<g id="edge3" class="edge"><title>Node1&#45;&gt;Node4</title>
<path fill="none" stroke="midnightblue" d="M117.101,-112.083C123.237,-104.377 132.27,-93.0333 139.739,-83.6531"/>
<polygon fill="midnightblue" stroke="midnightblue" points="142.54,-85.7542 146.032,-75.7511 137.064,-81.3936 142.54,-85.7542"/>
</g>
<!-- Node2&#45;&gt;Node3 -->
<g id="edge2" class="edge"><title>Node2&#45;&gt;Node3</title>
<path fill="none" stroke="midnightblue" d="M46.6144,-56.083C51.3674,-48.5341 58.3181,-37.4948 64.1516,-28.2298"/>
<polygon fill="midnightblue" stroke="midnightblue" points="67.1237,-30.0783 69.4901,-19.7511 61.2001,-26.3486 67.1237,-30.0783"/>
</g>
</g>
</svg>
