<?xml version="1.0" encoding="UTF-8" standalone="no"?>
<!DOCTYPE svg PUBLIC "-//W3C//DTD SVG 1.1//EN"
 "http://www.w3.org/Graphics/SVG/1.1/DTD/svg11.dtd">
<!-- Generated by graphviz version 2.38.0 (20140413.2041)
 -->
<!-- Title: src/EventComparator.cpp Pages: 1 -->
<svg width="241pt" height="196pt"
 viewBox="0.00 0.00 241.00 196.00" xmlns="http://www.w3.org/2000/svg" xmlns:xlink="http://www.w3.org/1999/xlink">
<g id="graph0" class="graph" transform="scale(1 1) rotate(0) translate(4 192)">
<title>src/EventComparator.cpp</title>
<polygon fill="white" stroke="none" points="-4,4 -4,-192 237,-192 237,4 -4,4"/>
<!-- Node1 -->
<g id="node1" class="node"><title>Node1</title>
<polygon fill="#bfbfbf" stroke="black" points="62.5,-168.5 62.5,-187.5 199.5,-187.5 199.5,-168.5 62.5,-168.5"/>
<text text-anchor="middle" x="131" y="-175.5" font-family="Ubuntu Mono" font-size="10.00">src/EventComparator.cpp</text>
</g>
<!-- Node2 -->
<g id="node2" class="node"><title>Node2</title>
<g id="a_node2"><a xlink:href="_event_8h.html" target="_top" xlink:title="Event.h">
<polygon fill="white" stroke="black" points="56.5,-112.5 56.5,-131.5 109.5,-131.5 109.5,-112.5 56.5,-112.5"/>
<text text-anchor="middle" x="83" y="-119.5" font-family="Ubuntu Mono" font-size="10.00">Event.h</text>
</a>
</g>
</g>
<!-- Node1&#45;&gt;Node2 -->
<g id="edge1" class="edge"><title>Node1&#45;&gt;Node2</title>
<path fill="none" stroke="midnightblue" d="M123.074,-168.083C116.154,-160.298 105.935,-148.801 97.548,-139.367"/>
<polygon fill="midnightblue" stroke="midnightblue" points="100.038,-136.9 90.7787,-131.751 94.8065,-141.55 100.038,-136.9"/>
</g>
<!-- Node6 -->
<g id="node6" class="node"><title>Node6</title>
<g id="a_node6"><a xlink:href="_event_comparator_8h.html" target="_top" xlink:title="EventComparator.h">
<polygon fill="white" stroke="black" points="127,-112.5 127,-131.5 233,-131.5 233,-112.5 127,-112.5"/>
<text text-anchor="middle" x="180" y="-119.5" font-family="Ubuntu Mono" font-size="10.00">EventComparator.h</text>
</a>
</g>
</g>
<!-- Node1&#45;&gt;Node6 -->
<g id="edge6" class="edge"><title>Node1&#45;&gt;Node6</title>
<path fill="none" stroke="midnightblue" d="M139.091,-168.083C146.155,-160.298 156.588,-148.801 165.149,-139.367"/>
<polygon fill="midnightblue" stroke="midnightblue" points="167.931,-141.509 172.059,-131.751 162.747,-136.805 167.931,-141.509"/>
</g>
<!-- Node3 -->
<g id="node3" class="node"><title>Node3</title>
<g id="a_node3"><a xlink:href="_event_type_8h.html" target="_top" xlink:title="EventType.h">
<polygon fill="white" stroke="black" points="4,-56.5 4,-75.5 78,-75.5 78,-56.5 4,-56.5"/>
<text text-anchor="middle" x="41" y="-63.5" font-family="Ubuntu Mono" font-size="10.00">EventType.h</text>
</a>
</g>
</g>
<!-- Node2&#45;&gt;Node3 -->
<g id="edge2" class="edge"><title>Node2&#45;&gt;Node3</title>
<path fill="none" stroke="midnightblue" d="M76.0646,-112.083C70.0708,-104.377 61.2482,-93.0333 53.9524,-83.6531"/>
<polygon fill="midnightblue" stroke="midnightblue" points="56.7086,-81.4958 47.8064,-75.7511 51.1831,-85.7934 56.7086,-81.4958"/>
</g>
<!-- Node5 -->
<g id="node5" class="node"><title>Node5</title>
<polygon fill="white" stroke="#bfbfbf" points="82,-0.5 82,-19.5 130,-19.5 130,-0.5 82,-0.5"/>
<text text-anchor="middle" x="106" y="-7.5" font-family="Ubuntu Mono" font-size="10.00">string</text>
</g>
<!-- Node2&#45;&gt;Node5 -->
<g id="edge5" class="edge"><title>Node2&#45;&gt;Node5</title>
<path fill="none" stroke="midnightblue" d="M84.8048,-112.368C88.5165,-94.617 97.0788,-53.6664 102.111,-29.5974"/>
<polygon fill="midnightblue" stroke="midnightblue" points="105.583,-30.0961 104.204,-19.5914 98.731,-28.6634 105.583,-30.0961"/>
</g>
<!-- Node4 -->
<g id="node4" class="node"><title>Node4</title>
<polygon fill="white" stroke="#bfbfbf" points="0,-0.5 0,-19.5 64,-19.5 64,-0.5 0,-0.5"/>
<text text-anchor="middle" x="32" y="-7.5" font-family="Ubuntu Mono" font-size="10.00">stdexcept</text>
</g>
<!-- Node3&#45;&gt;Node4 -->
<g id="edge3" class="edge"><title>Node3&#45;&gt;Node4</title>
<path fill="none" stroke="midnightblue" d="M39.5138,-56.083C38.3212,-48.9272 36.6059,-38.6353 35.1152,-29.6911"/>
<polygon fill="midnightblue" stroke="midnightblue" points="38.555,-29.0396 33.4585,-19.7511 31.6502,-30.1904 38.555,-29.0396"/>
</g>
<!-- Node3&#45;&gt;Node5 -->
<g id="edge4" class="edge"><title>Node3&#45;&gt;Node5</title>
<path fill="none" stroke="midnightblue" d="M51.4434,-56.324C61.1462,-48.2631 75.8153,-36.0765 87.4997,-26.3695"/>
<polygon fill="midnightblue" stroke="midnightblue" points="89.9113,-28.9163 95.3666,-19.8339 85.4381,-23.532 89.9113,-28.9163"/>
</g>
<!-- Node7 -->
<g id="node7" class="node"><title>Node7</title>
<polygon fill="white" stroke="#bfbfbf" points="156,-56.5 156,-75.5 204,-75.5 204,-56.5 156,-56.5"/>
<text text-anchor="middle" x="180" y="-63.5" font-family="Ubuntu Mono" font-size="10.00">memory</text>
</g>
<!-- Node6&#45;&gt;Node7 -->
<g id="edge7" class="edge"><title>Node6&#45;&gt;Node7</title>
<path fill="none" stroke="midnightblue" d="M180,-112.083C180,-105.006 180,-94.8611 180,-85.9865"/>
<polygon fill="midnightblue" stroke="midnightblue" points="183.5,-85.751 180,-75.7511 176.5,-85.7511 183.5,-85.751"/>
</g>
</g>
</svg>
