<?xml version="1.0" encoding="UTF-8" standalone="no"?>
<!DOCTYPE svg PUBLIC "-//W3C//DTD SVG 1.1//EN"
 "http://www.w3.org/Graphics/SVG/1.1/DTD/svg11.dtd">
<!-- Generated by graphviz version 2.38.0 (20140413.2041)
 -->
<!-- Title: include/EventObserver.h Pages: 1 -->
<svg width="1800pt" height="151pt"
 viewBox="0.00 0.00 1800.00 151.00" xmlns="http://www.w3.org/2000/svg" xmlns:xlink="http://www.w3.org/1999/xlink">
<g id="graph0" class="graph" transform="scale(1 1) rotate(0) translate(4 147)">
<title>include/EventObserver.h</title>
<polygon fill="white" stroke="none" points="-4,4 -4,-147 1796,-147 1796,4 -4,4"/>
<!-- Node1 -->
<g id="node1" class="node"><title>Node1</title>
<polygon fill="#bfbfbf" stroke="black" points="348,-123.5 348,-142.5 485,-142.5 485,-123.5 348,-123.5"/>
<text text-anchor="middle" x="416.5" y="-130.5" font-family="Ubuntu Mono" font-size="10.00">include/EventObserver.h</text>
</g>
<!-- Node2 -->
<g id="node2" class="node"><title>Node2</title>
<g id="a_node2"><a xlink:href="_event_dispatcher_8cpp.html" target="_top" xlink:title="src/EventDispatcher.cpp">
<polygon fill="white" stroke="black" points="110,-67.5 110,-86.5 247,-86.5 247,-67.5 110,-67.5"/>
<text text-anchor="middle" x="178.5" y="-74.5" font-family="Ubuntu Mono" font-size="10.00">src/EventDispatcher.cpp</text>
</a>
</g>
</g>
<!-- Node1&#45;&gt;Node2 -->
<g id="edge1" class="edge"><title>Node1&#45;&gt;Node2</title>
<path fill="none" stroke="midnightblue" d="M368.976,-121.217C324.004,-111.013 257.395,-95.9006 216.035,-86.5164"/>
<polygon fill="midnightblue" stroke="midnightblue" points="368.262,-124.644 378.788,-123.444 369.811,-117.818 368.262,-124.644"/>
</g>
<!-- Node3 -->
<g id="node3" class="node"><title>Node3</title>
<g id="a_node3"><a xlink:href="_building_8h.html" target="_top" xlink:title="include/Building.h">
<polygon fill="white" stroke="black" points="1029,-67.5 1029,-86.5 1140,-86.5 1140,-67.5 1029,-67.5"/>
<text text-anchor="middle" x="1084.5" y="-74.5" font-family="Ubuntu Mono" font-size="10.00">include/Building.h</text>
</a>
</g>
</g>
<!-- Node1&#45;&gt;Node3 -->
<g id="edge2" class="edge"><title>Node1&#45;&gt;Node3</title>
<path fill="none" stroke="midnightblue" d="M495.152,-125.642C631.856,-114.591 910.023,-92.1044 1028.76,-82.506"/>
<polygon fill="midnightblue" stroke="midnightblue" points="494.845,-122.155 485.16,-126.45 495.409,-129.132 494.845,-122.155"/>
</g>
<!-- Node12 -->
<g id="node12" class="node"><title>Node12</title>
<g id="a_node12"><a xlink:href="_clock_8h.html" target="_top" xlink:title="include/Clock.h">
<polygon fill="white" stroke="black" points="460,-67.5 460,-86.5 555,-86.5 555,-67.5 460,-67.5"/>
<text text-anchor="middle" x="507.5" y="-74.5" font-family="Ubuntu Mono" font-size="10.00">include/Clock.h</text>
</a>
</g>
</g>
<!-- Node1&#45;&gt;Node12 -->
<g id="edge11" class="edge"><title>Node1&#45;&gt;Node12</title>
<path fill="none" stroke="midnightblue" d="M439.794,-118.177C456.539,-108.241 478.6,-95.1492 492.916,-86.6545"/>
<polygon fill="midnightblue" stroke="midnightblue" points="437.934,-115.211 431.121,-123.324 441.507,-121.231 437.934,-115.211"/>
</g>
<!-- Node16 -->
<g id="node16" class="node"><title>Node16</title>
<g id="a_node16"><a xlink:href="_statistics_8h.html" target="_top" xlink:title="include/Statistics.h">
<polygon fill="white" stroke="black" points="265.5,-67.5 265.5,-86.5 387.5,-86.5 387.5,-67.5 265.5,-67.5"/>
<text text-anchor="middle" x="326.5" y="-74.5" font-family="Ubuntu Mono" font-size="10.00">include/Statistics.h</text>
</a>
</g>
</g>
<!-- Node1&#45;&gt;Node16 -->
<g id="edge17" class="edge"><title>Node1&#45;&gt;Node16</title>
<path fill="none" stroke="midnightblue" d="M393.462,-118.177C376.901,-108.241 355.082,-95.1492 340.924,-86.6545"/>
<polygon fill="midnightblue" stroke="midnightblue" points="391.664,-121.18 402.04,-123.324 395.266,-115.178 391.664,-121.18"/>
</g>
<!-- Node4 -->
<g id="node4" class="node"><title>Node4</title>
<g id="a_node4"><a xlink:href="_better_nearest_neighbour_cost_function_8cpp.html" target="_top" xlink:title="src/BetterNearestNeighbour\lCostFunction.cpp">
<polygon fill="white" stroke="black" points="1311,-0.5 1311,-30.5 1464,-30.5 1464,-0.5 1311,-0.5"/>
<text text-anchor="start" x="1319" y="-18.5" font-family="Ubuntu Mono" font-size="10.00">src/BetterNearestNeighbour</text>
<text text-anchor="middle" x="1387.5" y="-7.5" font-family="Ubuntu Mono" font-size="10.00">CostFunction.cpp</text>
</a>
</g>
</g>
<!-- Node3&#45;&gt;Node4 -->
<g id="edge3" class="edge"><title>Node3&#45;&gt;Node4</title>
<path fill="none" stroke="midnightblue" d="M1137.78,-65.5366C1187.31,-55.8109 1261.45,-41.2519 1316.09,-30.523"/>
<polygon fill="midnightblue" stroke="midnightblue" points="1137.05,-62.1137 1127.91,-67.4751 1138.4,-68.9825 1137.05,-62.1137"/>
</g>
<!-- Node5 -->
<g id="node5" class="node"><title>Node5</title>
<g id="a_node5"><a xlink:href="_building_8cpp.html" target="_top" xlink:title="src/Building.cpp">
<polygon fill="white" stroke="black" points="248,-6 248,-25 349,-25 349,-6 248,-6"/>
<text text-anchor="middle" x="298.5" y="-13" font-family="Ubuntu Mono" font-size="10.00">src/Building.cpp</text>
</a>
</g>
</g>
<!-- Node3&#45;&gt;Node5 -->
<g id="edge4" class="edge"><title>Node3&#45;&gt;Node5</title>
<path fill="none" stroke="midnightblue" d="M1018.55,-75.7669C890.562,-74.4652 599.841,-67.3547 358.5,-31 348.963,-29.5633 338.716,-27.3447 329.436,-25.0714"/>
<polygon fill="midnightblue" stroke="midnightblue" points="1018.56,-79.267 1028.59,-75.8604 1018.62,-72.2673 1018.56,-79.267"/>
</g>
<!-- Node6 -->
<g id="node6" class="node"><title>Node6</title>
<g id="a_node6"><a xlink:href="_dummy_cost_function_8cpp.html" target="_top" xlink:title="src/DummyCostFunction.cpp">
<polygon fill="white" stroke="black" points="1482.5,-6 1482.5,-25 1630.5,-25 1630.5,-6 1482.5,-6"/>
<text text-anchor="middle" x="1556.5" y="-13" font-family="Ubuntu Mono" font-size="10.00">src/DummyCostFunction.cpp</text>
</a>
</g>
</g>
<!-- Node3&#45;&gt;Node6 -->
<g id="edge5" class="edge"><title>Node3&#45;&gt;Node6</title>
<path fill="none" stroke="midnightblue" d="M1150.12,-69.5775C1227.57,-61.7271 1360.17,-47.4398 1473.5,-31 1485.52,-29.257 1498.46,-27.12 1510.48,-25.0277"/>
<polygon fill="midnightblue" stroke="midnightblue" points="1149.63,-66.1095 1140.03,-70.5956 1150.33,-73.0741 1149.63,-66.1095"/>
</g>
<!-- Node7 -->
<g id="node7" class="node"><title>Node7</title>
<g id="a_node7"><a xlink:href="_nearest_neighbour_cost_function_8cpp.html" target="_top" xlink:title="src/NearestNeighbourCost\lFunction.cpp">
<polygon fill="white" stroke="black" points="1649,-0.5 1649,-30.5 1792,-30.5 1792,-0.5 1649,-0.5"/>
<text text-anchor="start" x="1657" y="-18.5" font-family="Ubuntu Mono" font-size="10.00">src/NearestNeighbourCost</text>
<text text-anchor="middle" x="1720.5" y="-7.5" font-family="Ubuntu Mono" font-size="10.00">Function.cpp</text>
</a>
</g>
</g>
<!-- Node3&#45;&gt;Node7 -->
<g id="edge6" class="edge"><title>Node3&#45;&gt;Node7</title>
<path fill="none" stroke="midnightblue" d="M1150.27,-72.7208C1254.4,-67.0677 1463.45,-53.8402 1639.5,-31 1642.48,-30.614 1645.51,-30.1938 1648.57,-29.7475"/>
<polygon fill="midnightblue" stroke="midnightblue" points="1150.02,-69.2291 1140.22,-73.2604 1150.4,-76.219 1150.02,-69.2291"/>
</g>
<!-- Node8 -->
<g id="node8" class="node"><title>Node8</title>
<g id="a_node8"><a xlink:href="_planning_scheduler_8cpp.html" target="_top" xlink:title="src/PlanningScheduler.cpp">
<polygon fill="white" stroke="black" points="865.5,-6 865.5,-25 1013.5,-25 1013.5,-6 865.5,-6"/>
<text text-anchor="middle" x="939.5" y="-13" font-family="Ubuntu Mono" font-size="10.00">src/PlanningScheduler.cpp</text>
</a>
</g>
</g>
<!-- Node3&#45;&gt;Node8 -->
<g id="edge7" class="edge"><title>Node3&#45;&gt;Node8</title>
<path fill="none" stroke="midnightblue" d="M1054.36,-63.6313C1026.19,-52.0717 984.876,-35.12 960.236,-25.0091"/>
<polygon fill="midnightblue" stroke="midnightblue" points="1053.14,-66.9168 1063.73,-67.4751 1055.8,-60.4408 1053.14,-66.9168"/>
</g>
<!-- Node9 -->
<g id="node9" class="node"><title>Node9</title>
<g id="a_node9"><a xlink:href="_scheduler_8cpp.html" target="_top" xlink:title="src/Scheduler.cpp">
<polygon fill="white" stroke="black" points="1031.5,-6 1031.5,-25 1137.5,-25 1137.5,-6 1031.5,-6"/>
<text text-anchor="middle" x="1084.5" y="-13" font-family="Ubuntu Mono" font-size="10.00">src/Scheduler.cpp</text>
</a>
</g>
</g>
<!-- Node3&#45;&gt;Node9 -->
<g id="edge8" class="edge"><title>Node3&#45;&gt;Node9</title>
<path fill="none" stroke="midnightblue" d="M1084.5,-57.3165C1084.5,-46.4962 1084.5,-33.398 1084.5,-25.0091"/>
<polygon fill="midnightblue" stroke="midnightblue" points="1081,-57.4751 1084.5,-67.4751 1088,-57.4751 1081,-57.4751"/>
</g>
<!-- Node10 -->
<g id="node10" class="node"><title>Node10</title>
<g id="a_node10"><a xlink:href="_simple_scheduler_8cpp.html" target="_top" xlink:title="src/SimpleScheduler.cpp">
<polygon fill="white" stroke="black" points="1156,-6 1156,-25 1293,-25 1293,-6 1156,-6"/>
<text text-anchor="middle" x="1224.5" y="-13" font-family="Ubuntu Mono" font-size="10.00">src/SimpleScheduler.cpp</text>
</a>
</g>
</g>
<!-- Node3&#45;&gt;Node10 -->
<g id="edge9" class="edge"><title>Node3&#45;&gt;Node10</title>
<path fill="none" stroke="midnightblue" d="M1113.96,-63.4795C1141.15,-51.9238 1180.79,-35.0758 1204.48,-25.0091"/>
<polygon fill="midnightblue" stroke="midnightblue" points="1112.39,-60.3425 1104.56,-67.4751 1115.13,-66.7848 1112.39,-60.3425"/>
</g>
<!-- Node11 -->
<g id="node11" class="node"><title>Node11</title>
<g id="a_node11"><a xlink:href="_simulator_8cpp.html" target="_top" xlink:title="src/Simulator.cpp">
<polygon fill="white" stroke="black" points="367.5,-6 367.5,-25 473.5,-25 473.5,-6 367.5,-6"/>
<text text-anchor="middle" x="420.5" y="-13" font-family="Ubuntu Mono" font-size="10.00">src/Simulator.cpp</text>
</a>
</g>
</g>
<!-- Node3&#45;&gt;Node11 -->
<g id="edge10" class="edge"><title>Node3&#45;&gt;Node11</title>
<path fill="none" stroke="midnightblue" d="M1018.94,-74.4252C907.934,-71.0172 676.133,-60.6961 482.5,-31 472.775,-29.5086 462.319,-27.3016 452.814,-25.0569"/>
<polygon fill="midnightblue" stroke="midnightblue" points="1018.88,-77.9248 1028.98,-74.7245 1019.09,-70.9279 1018.88,-77.9248"/>
</g>
<!-- Node12&#45;&gt;Node5 -->
<g id="edge12" class="edge"><title>Node12&#45;&gt;Node5</title>
<path fill="none" stroke="midnightblue" d="M467.723,-64.6759C427.112,-53.1144 364.99,-35.429 328.389,-25.0091"/>
<polygon fill="midnightblue" stroke="midnightblue" points="466.979,-68.1032 477.555,-67.4751 468.896,-61.3707 466.979,-68.1032"/>
</g>
<!-- Node12&#45;&gt;Node11 -->
<g id="edge16" class="edge"><title>Node12&#45;&gt;Node11</title>
<path fill="none" stroke="midnightblue" d="M486.463,-61.6127C469.73,-50.1691 446.887,-34.546 432.942,-25.0091"/>
<polygon fill="midnightblue" stroke="midnightblue" points="484.805,-64.7189 495.035,-67.4751 488.757,-58.9409 484.805,-64.7189"/>
</g>
<!-- Node13 -->
<g id="node13" class="node"><title>Node13</title>
<g id="a_node13"><a xlink:href="_clock_8cpp.html" target="_top" xlink:title="src/Clock.cpp">
<polygon fill="white" stroke="black" points="492,-6 492,-25 577,-25 577,-6 492,-6"/>
<text text-anchor="middle" x="534.5" y="-13" font-family="Ubuntu Mono" font-size="10.00">src/Clock.cpp</text>
</a>
</g>
</g>
<!-- Node12&#45;&gt;Node13 -->
<g id="edge13" class="edge"><title>Node12&#45;&gt;Node13</title>
<path fill="none" stroke="midnightblue" d="M515.516,-58.3346C520.511,-47.3281 526.712,-33.6629 530.639,-25.0091"/>
<polygon fill="midnightblue" stroke="midnightblue" points="512.314,-56.9225 511.368,-67.4751 518.688,-59.8151 512.314,-56.9225"/>
</g>
<!-- Node14 -->
<g id="node14" class="node"><title>Node14</title>
<g id="a_node14"><a xlink:href="_event_factory_8cpp.html" target="_top" xlink:title="src/EventFactory.cpp">
<polygon fill="white" stroke="black" points="595.5,-6 595.5,-25 717.5,-25 717.5,-6 595.5,-6"/>
<text text-anchor="middle" x="656.5" y="-13" font-family="Ubuntu Mono" font-size="10.00">src/EventFactory.cpp</text>
</a>
</g>
</g>
<!-- Node12&#45;&gt;Node14 -->
<g id="edge14" class="edge"><title>Node12&#45;&gt;Node14</title>
<path fill="none" stroke="midnightblue" d="M538.474,-63.6313C567.421,-52.0717 609.872,-35.12 635.192,-25.0091"/>
<polygon fill="midnightblue" stroke="midnightblue" points="536.837,-60.5161 528.848,-67.4751 539.433,-67.0169 536.837,-60.5161"/>
</g>
<!-- Node15 -->
<g id="node15" class="node"><title>Node15</title>
<g id="a_node15"><a xlink:href="_event_queue_8cpp.html" target="_top" xlink:title="src/EventQueue.cpp">
<polygon fill="white" stroke="black" points="736,-6 736,-25 847,-25 847,-6 736,-6"/>
<text text-anchor="middle" x="791.5" y="-13" font-family="Ubuntu Mono" font-size="10.00">src/EventQueue.cpp</text>
</a>
</g>
</g>
<!-- Node12&#45;&gt;Node15 -->
<g id="edge15" class="edge"><title>Node12&#45;&gt;Node15</title>
<path fill="none" stroke="midnightblue" d="M560.33,-65.4036C604.72,-56.4381 669.81,-43.1465 726.5,-31 735.318,-29.1106 744.797,-27.0264 753.715,-25.0416"/>
<polygon fill="midnightblue" stroke="midnightblue" points="559.458,-62.009 550.348,-67.4174 560.843,-68.8707 559.458,-62.009"/>
</g>
<!-- Node16&#45;&gt;Node5 -->
<g id="edge18" class="edge"><title>Node16&#45;&gt;Node5</title>
<path fill="none" stroke="midnightblue" d="M318.187,-58.3346C313.007,-47.3281 306.577,-33.6629 302.504,-25.0091"/>
<polygon fill="midnightblue" stroke="midnightblue" points="315.063,-59.9172 322.488,-67.4751 321.397,-56.9366 315.063,-59.9172"/>
</g>
<!-- Node16&#45;&gt;Node11 -->
<g id="edge20" class="edge"><title>Node16&#45;&gt;Node11</title>
<path fill="none" stroke="midnightblue" d="M348.729,-61.9295C366.851,-50.4589 391.851,-34.6343 407.057,-25.0091"/>
<polygon fill="midnightblue" stroke="midnightblue" points="346.546,-59.1693 339.968,-67.4751 350.289,-65.084 346.546,-59.1693"/>
</g>
<!-- Node17 -->
<g id="node17" class="node"><title>Node17</title>
<g id="a_node17"><a xlink:href="_reporter_8cpp.html" target="_top" xlink:title="src/Reporter.cpp">
<polygon fill="white" stroke="black" points="129,-6 129,-25 230,-25 230,-6 129,-6"/>
<text text-anchor="middle" x="179.5" y="-13" font-family="Ubuntu Mono" font-size="10.00">src/Reporter.cpp</text>
</a>
</g>
</g>
<!-- Node16&#45;&gt;Node17 -->
<g id="edge19" class="edge"><title>Node16&#45;&gt;Node17</title>
<path fill="none" stroke="midnightblue" d="M295.942,-63.6313C267.383,-52.0717 225.502,-35.12 200.522,-25.0091"/>
<polygon fill="midnightblue" stroke="midnightblue" points="294.856,-66.9674 305.438,-67.4751 297.482,-60.4788 294.856,-66.9674"/>
</g>
<!-- Node18 -->
<g id="node18" class="node"><title>Node18</title>
<g id="a_node18"><a xlink:href="_statistics_8cpp.html" target="_top" xlink:title="src/Statistics.cpp">
<polygon fill="white" stroke="black" points="0,-6 0,-25 111,-25 111,-6 0,-6"/>
<text text-anchor="middle" x="55.5" y="-13" font-family="Ubuntu Mono" font-size="10.00">src/Statistics.cpp</text>
</a>
</g>
</g>
<!-- Node16&#45;&gt;Node18 -->
<g id="edge21" class="edge"><title>Node16&#45;&gt;Node18</title>
<path fill="none" stroke="midnightblue" d="M276.835,-65.3307C234.886,-56.2884 173.233,-42.9271 119.5,-31 110.936,-29.099 101.734,-27.0298 93.052,-25.0655"/>
<polygon fill="midnightblue" stroke="midnightblue" points="276.281,-68.7916 286.794,-67.4761 277.755,-61.9486 276.281,-68.7916"/>
</g>
</g>
</svg>
