<?xml version="1.0" encoding="UTF-8" standalone="no"?>
<!DOCTYPE svg PUBLIC "-//W3C//DTD SVG 1.1//EN"
 "http://www.w3.org/Graphics/SVG/1.1/DTD/svg11.dtd">
<!-- Generated by graphviz version 2.38.0 (20140413.2041)
 -->
<!-- Title: include/EventComparator.h Pages: 1 -->
<svg width="487pt" height="140pt"
 viewBox="0.00 0.00 487.00 140.00" xmlns="http://www.w3.org/2000/svg" xmlns:xlink="http://www.w3.org/1999/xlink">
<g id="graph0" class="graph" transform="scale(1 1) rotate(0) translate(4 136)">
<title>include/EventComparator.h</title>
<polygon fill="white" stroke="none" points="-4,4 -4,-136 483,-136 483,4 -4,4"/>
<!-- Node1 -->
<g id="node1" class="node"><title>Node1</title>
<polygon fill="#bfbfbf" stroke="black" points="106,-112.5 106,-131.5 254,-131.5 254,-112.5 106,-112.5"/>
<text text-anchor="middle" x="180" y="-119.5" font-family="Ubuntu Mono" font-size="10.00">include/EventComparator.h</text>
</g>
<!-- Node2 -->
<g id="node2" class="node"><title>Node2</title>
<g id="a_node2"><a xlink:href="_event_comparator_8cpp.html" target="_top" xlink:title="src/EventComparator.cpp">
<polygon fill="white" stroke="black" points="37.5,-56.5 37.5,-75.5 174.5,-75.5 174.5,-56.5 37.5,-56.5"/>
<text text-anchor="middle" x="106" y="-63.5" font-family="Ubuntu Mono" font-size="10.00">src/EventComparator.cpp</text>
</a>
</g>
</g>
<!-- Node1&#45;&gt;Node2 -->
<g id="edge1" class="edge"><title>Node1&#45;&gt;Node2</title>
<path fill="none" stroke="midnightblue" d="M159.966,-106.38C146.591,-96.6204 129.441,-84.1057 118.106,-75.8339"/>
<polygon fill="midnightblue" stroke="midnightblue" points="157.97,-109.257 168.111,-112.324 162.096,-103.602 157.97,-109.257"/>
</g>
<!-- Node3 -->
<g id="node3" class="node"><title>Node3</title>
<g id="a_node3"><a xlink:href="_event_queue_8h.html" target="_top" xlink:title="include/EventQueue.h">
<polygon fill="white" stroke="black" points="193,-56.5 193,-75.5 315,-75.5 315,-56.5 193,-56.5"/>
<text text-anchor="middle" x="254" y="-63.5" font-family="Ubuntu Mono" font-size="10.00">include/EventQueue.h</text>
</a>
</g>
</g>
<!-- Node1&#45;&gt;Node3 -->
<g id="edge2" class="edge"><title>Node1&#45;&gt;Node3</title>
<path fill="none" stroke="midnightblue" d="M200.034,-106.38C213.409,-96.6204 230.559,-84.1057 241.894,-75.8339"/>
<polygon fill="midnightblue" stroke="midnightblue" points="197.904,-103.602 191.889,-112.324 202.03,-109.257 197.904,-103.602"/>
</g>
<!-- Node4 -->
<g id="node4" class="node"><title>Node4</title>
<g id="a_node4"><a xlink:href="_event_factory_8cpp.html" target="_top" xlink:title="src/EventFactory.cpp">
<polygon fill="white" stroke="black" points="0,-0.5 0,-19.5 122,-19.5 122,-0.5 0,-0.5"/>
<text text-anchor="middle" x="61" y="-7.5" font-family="Ubuntu Mono" font-size="10.00">src/EventFactory.cpp</text>
</a>
</g>
</g>
<!-- Node3&#45;&gt;Node4 -->
<g id="edge3" class="edge"><title>Node3&#45;&gt;Node4</title>
<path fill="none" stroke="midnightblue" d="M213.608,-53.6986C177.183,-43.507 124.414,-28.7429 91.4383,-19.5164"/>
<polygon fill="midnightblue" stroke="midnightblue" points="212.845,-57.1196 223.419,-56.4435 214.731,-50.3785 212.845,-57.1196"/>
</g>
<!-- Node5 -->
<g id="node5" class="node"><title>Node5</title>
<g id="a_node5"><a xlink:href="_event_queue_8cpp.html" target="_top" xlink:title="src/EventQueue.cpp">
<polygon fill="white" stroke="black" points="140.5,-0.5 140.5,-19.5 251.5,-19.5 251.5,-0.5 140.5,-0.5"/>
<text text-anchor="middle" x="196" y="-7.5" font-family="Ubuntu Mono" font-size="10.00">src/EventQueue.cpp</text>
</a>
</g>
</g>
<!-- Node3&#45;&gt;Node5 -->
<g id="edge4" class="edge"><title>Node3&#45;&gt;Node5</title>
<path fill="none" stroke="midnightblue" d="M237.087,-49.2533C226.797,-39.6731 214.034,-27.7906 205.488,-19.8339"/>
<polygon fill="midnightblue" stroke="midnightblue" points="234.977,-52.0714 244.681,-56.324 239.747,-46.9481 234.977,-52.0714"/>
</g>
<!-- Node6 -->
<g id="node6" class="node"><title>Node6</title>
<g id="a_node6"><a xlink:href="_floor_8cpp.html" target="_top" xlink:title="src/Floor.cpp">
<polygon fill="white" stroke="black" points="269.5,-0.5 269.5,-19.5 354.5,-19.5 354.5,-0.5 269.5,-0.5"/>
<text text-anchor="middle" x="312" y="-7.5" font-family="Ubuntu Mono" font-size="10.00">src/Floor.cpp</text>
</a>
</g>
</g>
<!-- Node3&#45;&gt;Node6 -->
<g id="edge5" class="edge"><title>Node3&#45;&gt;Node6</title>
<path fill="none" stroke="midnightblue" d="M270.913,-49.2533C281.203,-39.6731 293.966,-27.7906 302.512,-19.8339"/>
<polygon fill="midnightblue" stroke="midnightblue" points="268.253,-46.9481 263.319,-56.324 273.023,-52.0714 268.253,-46.9481"/>
</g>
<!-- Node7 -->
<g id="node7" class="node"><title>Node7</title>
<g id="a_node7"><a xlink:href="_simulator_8cpp.html" target="_top" xlink:title="src/Simulator.cpp">
<polygon fill="white" stroke="black" points="373,-0.5 373,-19.5 479,-19.5 479,-0.5 373,-0.5"/>
<text text-anchor="middle" x="426" y="-7.5" font-family="Ubuntu Mono" font-size="10.00">src/Simulator.cpp</text>
</a>
</g>
</g>
<!-- Node3&#45;&gt;Node7 -->
<g id="edge6" class="edge"><title>Node3&#45;&gt;Node7</title>
<path fill="none" stroke="midnightblue" d="M290.832,-53.4363C323.262,-43.2551 369.737,-28.664 398.874,-19.5164"/>
<polygon fill="midnightblue" stroke="midnightblue" points="289.746,-50.1088 281.254,-56.4435 291.843,-56.7874 289.746,-50.1088"/>
</g>
</g>
</svg>
