<?xml version="1.0" encoding="UTF-8" standalone="no"?>
<!DOCTYPE svg PUBLIC "-//W3C//DTD SVG 1.1//EN"
 "http://www.w3.org/Graphics/SVG/1.1/DTD/svg11.dtd">
<!-- Generated by graphviz version 2.38.0 (20140413.2041)
 -->
<!-- Title: src/EventQueue.cpp Pages: 1 -->
<svg width="562pt" height="252pt"
 viewBox="0.00 0.00 562.00 252.00" xmlns="http://www.w3.org/2000/svg" xmlns:xlink="http://www.w3.org/1999/xlink">
<g id="graph0" class="graph" transform="scale(1 1) rotate(0) translate(4 248)">
<title>src/EventQueue.cpp</title>
<polygon fill="white" stroke="none" points="-4,4 -4,-248 558,-248 558,4 -4,4"/>
<!-- Node1 -->
<g id="node1" class="node"><title>Node1</title>
<polygon fill="#bfbfbf" stroke="black" points="342.5,-224.5 342.5,-243.5 453.5,-243.5 453.5,-224.5 342.5,-224.5"/>
<text text-anchor="middle" x="398" y="-231.5" font-family="Ubuntu Mono" font-size="10.00">src/EventQueue.cpp</text>
</g>
<!-- Node2 -->
<g id="node2" class="node"><title>Node2</title>
<g id="a_node2"><a xlink:href="_event_queue_8h.html" target="_top" xlink:title="EventQueue.h">
<polygon fill="white" stroke="black" points="175,-168.5 175,-187.5 255,-187.5 255,-168.5 175,-168.5"/>
<text text-anchor="middle" x="215" y="-175.5" font-family="Ubuntu Mono" font-size="10.00">EventQueue.h</text>
</a>
</g>
</g>
<!-- Node1&#45;&gt;Node2 -->
<g id="edge1" class="edge"><title>Node1&#45;&gt;Node2</title>
<path fill="none" stroke="midnightblue" d="M369.003,-224.444C337.815,-215.241 288.07,-200.562 253.592,-190.388"/>
<polygon fill="midnightblue" stroke="midnightblue" points="254.443,-186.99 243.861,-187.516 252.462,-193.704 254.443,-186.99"/>
</g>
<!-- Node10 -->
<g id="node10" class="node"><title>Node10</title>
<g id="a_node10"><a xlink:href="_clock_8h.html" target="_top" xlink:title="Clock.h">
<polygon fill="white" stroke="black" points="326.5,-168.5 326.5,-187.5 379.5,-187.5 379.5,-168.5 326.5,-168.5"/>
<text text-anchor="middle" x="353" y="-175.5" font-family="Ubuntu Mono" font-size="10.00">Clock.h</text>
</a>
</g>
</g>
<!-- Node1&#45;&gt;Node10 -->
<g id="edge11" class="edge"><title>Node1&#45;&gt;Node10</title>
<path fill="none" stroke="midnightblue" d="M390.569,-224.083C384.147,-216.377 374.694,-205.033 366.878,-195.653"/>
<polygon fill="midnightblue" stroke="midnightblue" points="369.383,-193.193 360.293,-187.751 364.006,-197.674 369.383,-193.193"/>
</g>
<!-- Node12 -->
<g id="node12" class="node"><title>Node12</title>
<polygon fill="white" stroke="#bfbfbf" points="398,-168.5 398,-187.5 488,-187.5 488,-168.5 398,-168.5"/>
<text text-anchor="middle" x="443" y="-175.5" font-family="Ubuntu Mono" font-size="10.00">glog/logging.h</text>
</g>
<!-- Node1&#45;&gt;Node12 -->
<g id="edge16" class="edge"><title>Node1&#45;&gt;Node12</title>
<path fill="none" stroke="midnightblue" d="M405.431,-224.083C411.853,-216.377 421.306,-205.033 429.122,-195.653"/>
<polygon fill="midnightblue" stroke="midnightblue" points="431.994,-197.674 435.707,-187.751 426.617,-193.193 431.994,-197.674"/>
</g>
<!-- Node13 -->
<g id="node13" class="node"><title>Node13</title>
<polygon fill="white" stroke="#bfbfbf" points="506,-168.5 506,-187.5 554,-187.5 554,-168.5 506,-168.5"/>
<text text-anchor="middle" x="530" y="-175.5" font-family="Ubuntu Mono" font-size="10.00">vector</text>
</g>
<!-- Node1&#45;&gt;Node13 -->
<g id="edge17" class="edge"><title>Node1&#45;&gt;Node13</title>
<path fill="none" stroke="midnightblue" d="M418.916,-224.444C440.736,-215.517 475.15,-201.439 499.892,-191.317"/>
<polygon fill="midnightblue" stroke="midnightblue" points="501.252,-194.542 509.182,-187.516 498.601,-188.063 501.252,-194.542"/>
</g>
<!-- Node3 -->
<g id="node3" class="node"><title>Node3</title>
<g id="a_node3"><a xlink:href="_event_8h.html" target="_top" xlink:title="Event.h">
<polygon fill="white" stroke="black" points="10.5,-112.5 10.5,-131.5 63.5,-131.5 63.5,-112.5 10.5,-112.5"/>
<text text-anchor="middle" x="37" y="-119.5" font-family="Ubuntu Mono" font-size="10.00">Event.h</text>
</a>
</g>
</g>
<!-- Node2&#45;&gt;Node3 -->
<g id="edge2" class="edge"><title>Node2&#45;&gt;Node3</title>
<path fill="none" stroke="midnightblue" d="M186.795,-168.444C156.146,-159.145 107.07,-144.257 73.5015,-134.073"/>
<polygon fill="midnightblue" stroke="midnightblue" points="74.2045,-130.629 63.6191,-131.075 72.1723,-137.328 74.2045,-130.629"/>
</g>
<!-- Node7 -->
<g id="node7" class="node"><title>Node7</title>
<g id="a_node7"><a xlink:href="_event_comparator_8h.html" target="_top" xlink:title="EventComparator.h">
<polygon fill="white" stroke="black" points="81,-112.5 81,-131.5 187,-131.5 187,-112.5 81,-112.5"/>
<text text-anchor="middle" x="134" y="-119.5" font-family="Ubuntu Mono" font-size="10.00">EventComparator.h</text>
</a>
</g>
</g>
<!-- Node2&#45;&gt;Node7 -->
<g id="edge7" class="edge"><title>Node2&#45;&gt;Node7</title>
<path fill="none" stroke="midnightblue" d="M201.986,-168.324C189.468,-159.979 170.318,-147.212 155.529,-137.352"/>
<polygon fill="midnightblue" stroke="midnightblue" points="157.244,-134.289 146.982,-131.655 153.361,-140.114 157.244,-134.289"/>
</g>
<!-- Node8 -->
<g id="node8" class="node"><title>Node8</title>
<polygon fill="white" stroke="#bfbfbf" points="241,-56.5 241,-75.5 289,-75.5 289,-56.5 241,-56.5"/>
<text text-anchor="middle" x="265" y="-63.5" font-family="Ubuntu Mono" font-size="10.00">memory</text>
</g>
<!-- Node2&#45;&gt;Node8 -->
<g id="edge9" class="edge"><title>Node2&#45;&gt;Node8</title>
<path fill="none" stroke="midnightblue" d="M216.627,-168.269C219.211,-155.483 224.913,-131.112 234,-112 238.727,-102.059 245.537,-91.8846 251.571,-83.7311"/>
<polygon fill="midnightblue" stroke="midnightblue" points="254.361,-85.8451 257.679,-75.7833 248.81,-81.5796 254.361,-85.8451"/>
</g>
<!-- Node9 -->
<g id="node9" class="node"><title>Node9</title>
<polygon fill="white" stroke="#bfbfbf" points="243.5,-112.5 243.5,-131.5 286.5,-131.5 286.5,-112.5 243.5,-112.5"/>
<text text-anchor="middle" x="265" y="-119.5" font-family="Ubuntu Mono" font-size="10.00">queue</text>
</g>
<!-- Node2&#45;&gt;Node9 -->
<g id="edge10" class="edge"><title>Node2&#45;&gt;Node9</title>
<path fill="none" stroke="midnightblue" d="M223.256,-168.083C230.465,-160.298 241.11,-148.801 249.846,-139.367"/>
<polygon fill="midnightblue" stroke="midnightblue" points="252.671,-141.467 256.897,-131.751 247.535,-136.711 252.671,-141.467"/>
</g>
<!-- Node4 -->
<g id="node4" class="node"><title>Node4</title>
<g id="a_node4"><a xlink:href="_event_type_8h.html" target="_top" xlink:title="EventType.h">
<polygon fill="white" stroke="black" points="0,-56.5 0,-75.5 74,-75.5 74,-56.5 0,-56.5"/>
<text text-anchor="middle" x="37" y="-63.5" font-family="Ubuntu Mono" font-size="10.00">EventType.h</text>
</a>
</g>
</g>
<!-- Node3&#45;&gt;Node4 -->
<g id="edge3" class="edge"><title>Node3&#45;&gt;Node4</title>
<path fill="none" stroke="midnightblue" d="M37,-112.083C37,-105.006 37,-94.8611 37,-85.9865"/>
<polygon fill="midnightblue" stroke="midnightblue" points="40.5001,-85.751 37,-75.7511 33.5001,-85.7511 40.5001,-85.751"/>
</g>
<!-- Node6 -->
<g id="node6" class="node"><title>Node6</title>
<polygon fill="white" stroke="#bfbfbf" points="85,-0.5 85,-19.5 133,-19.5 133,-0.5 85,-0.5"/>
<text text-anchor="middle" x="109" y="-7.5" font-family="Ubuntu Mono" font-size="10.00">string</text>
</g>
<!-- Node3&#45;&gt;Node6 -->
<g id="edge6" class="edge"><title>Node3&#45;&gt;Node6</title>
<path fill="none" stroke="midnightblue" d="M48.1451,-112.401C58.3607,-104.036 73.3261,-90.4969 83,-76 92.6884,-61.4814 99.6889,-42.797 103.968,-29.1894"/>
<polygon fill="midnightblue" stroke="midnightblue" points="107.342,-30.1232 106.816,-19.5414 100.628,-28.1414 107.342,-30.1232"/>
</g>
<!-- Node5 -->
<g id="node5" class="node"><title>Node5</title>
<polygon fill="white" stroke="#bfbfbf" points="3,-0.5 3,-19.5 67,-19.5 67,-0.5 3,-0.5"/>
<text text-anchor="middle" x="35" y="-7.5" font-family="Ubuntu Mono" font-size="10.00">stdexcept</text>
</g>
<!-- Node4&#45;&gt;Node5 -->
<g id="edge4" class="edge"><title>Node4&#45;&gt;Node5</title>
<path fill="none" stroke="midnightblue" d="M36.6697,-56.083C36.4076,-49.0059 36.0319,-38.8611 35.7032,-29.9865"/>
<polygon fill="midnightblue" stroke="midnightblue" points="39.1919,-29.6147 35.3241,-19.7511 32.1967,-29.8738 39.1919,-29.6147"/>
</g>
<!-- Node4&#45;&gt;Node6 -->
<g id="edge5" class="edge"><title>Node4&#45;&gt;Node6</title>
<path fill="none" stroke="midnightblue" d="M48.568,-56.324C59.4202,-48.1849 75.8807,-35.8395 88.8834,-26.0874"/>
<polygon fill="midnightblue" stroke="midnightblue" points="91.3215,-28.6339 97.2215,-19.8339 87.1214,-23.0339 91.3215,-28.6339"/>
</g>
<!-- Node7&#45;&gt;Node8 -->
<g id="edge8" class="edge"><title>Node7&#45;&gt;Node8</title>
<path fill="none" stroke="midnightblue" d="M154.757,-112.444C176.316,-103.557 210.263,-89.5632 234.794,-79.4514"/>
<polygon fill="midnightblue" stroke="midnightblue" points="236.428,-82.5634 244.34,-75.5164 233.761,-76.0917 236.428,-82.5634"/>
</g>
<!-- Node10&#45;&gt;Node6 -->
<g id="edge15" class="edge"><title>Node10&#45;&gt;Node6</title>
<path fill="none" stroke="midnightblue" d="M378.354,-168.475C403.707,-159.375 440.046,-144.568 448,-132 452.753,-124.489 453.068,-119.302 448,-112 412.603,-61.0024 221.685,-27.562 142.965,-15.7541"/>
<polygon fill="midnightblue" stroke="midnightblue" points="143.468,-12.2905 133.064,-14.2949 142.447,-19.2157 143.468,-12.2905"/>
</g>
<!-- Node10&#45;&gt;Node8 -->
<g id="edge14" class="edge"><title>Node10&#45;&gt;Node8</title>
<path fill="none" stroke="midnightblue" d="M346.095,-168.368C331.508,-150.135 297.341,-107.426 278.34,-83.6752"/>
<polygon fill="midnightblue" stroke="midnightblue" points="280.853,-81.2137 271.873,-75.5914 275.387,-85.5866 280.853,-81.2137"/>
</g>
<!-- Node11 -->
<g id="node11" class="node"><title>Node11</title>
<g id="a_node11"><a xlink:href="_event_observer_8h.html" target="_top" xlink:title="EventObserver.h">
<polygon fill="white" stroke="black" points="343.5,-112.5 343.5,-131.5 438.5,-131.5 438.5,-112.5 343.5,-112.5"/>
<text text-anchor="middle" x="391" y="-119.5" font-family="Ubuntu Mono" font-size="10.00">EventObserver.h</text>
</a>
</g>
</g>
<!-- Node10&#45;&gt;Node11 -->
<g id="edge12" class="edge"><title>Node10&#45;&gt;Node11</title>
<path fill="none" stroke="midnightblue" d="M359.275,-168.083C364.642,-160.455 372.518,-149.264 379.079,-139.941"/>
<polygon fill="midnightblue" stroke="midnightblue" points="381.949,-141.943 384.842,-131.751 376.225,-137.915 381.949,-141.943"/>
</g>
<!-- Node11&#45;&gt;Node8 -->
<g id="edge13" class="edge"><title>Node11&#45;&gt;Node8</title>
<path fill="none" stroke="midnightblue" d="M371.035,-112.444C350.391,-103.596 317.937,-89.6875 294.368,-79.5865"/>
<polygon fill="midnightblue" stroke="midnightblue" points="295.442,-76.2387 284.872,-75.5164 292.684,-82.6727 295.442,-76.2387"/>
</g>
</g>
</svg>
