<?xml version="1.0" encoding="UTF-8" standalone="no"?>
<!DOCTYPE svg PUBLIC "-//W3C//DTD SVG 1.1//EN"
 "http://www.w3.org/Graphics/SVG/1.1/DTD/svg11.dtd">
<!-- Generated by graphviz version 2.38.0 (20140413.2041)
 -->
<!-- Title: src/EventFactory.cpp Pages: 1 -->
<svg width="974pt" height="252pt"
 viewBox="0.00 0.00 974.45 252.00" xmlns="http://www.w3.org/2000/svg" xmlns:xlink="http://www.w3.org/1999/xlink">
<g id="graph0" class="graph" transform="scale(1 1) rotate(0) translate(4 248)">
<title>src/EventFactory.cpp</title>
<polygon fill="white" stroke="none" points="-4,4 -4,-248 970.45,-248 970.45,4 -4,4"/>
<!-- Node1 -->
<g id="node1" class="node"><title>Node1</title>
<polygon fill="#bfbfbf" stroke="black" points="406.45,-224.5 406.45,-243.5 528.45,-243.5 528.45,-224.5 406.45,-224.5"/>
<text text-anchor="middle" x="467.45" y="-231.5" font-family="Ubuntu Mono" font-size="10.00">src/EventFactory.cpp</text>
</g>
<!-- Node2 -->
<g id="node2" class="node"><title>Node2</title>
<g id="a_node2"><a xlink:href="_event_factory_8h.html" target="_top" xlink:title="EventFactory.h">
<polygon fill="white" stroke="black" points="44.4498,-168.5 44.4498,-187.5 134.45,-187.5 134.45,-168.5 44.4498,-168.5"/>
<text text-anchor="middle" x="89.4498" y="-175.5" font-family="Ubuntu Mono" font-size="10.00">EventFactory.h</text>
</a>
</g>
</g>
<!-- Node1&#45;&gt;Node2 -->
<g id="edge1" class="edge"><title>Node1&#45;&gt;Node2</title>
<path fill="none" stroke="midnightblue" d="M407.555,-224.444C335.232,-214.112 214.595,-196.878 144.51,-186.866"/>
<polygon fill="midnightblue" stroke="midnightblue" points="144.942,-183.392 134.548,-185.443 143.952,-190.322 144.942,-183.392"/>
</g>
<!-- Node7 -->
<g id="node7" class="node"><title>Node7</title>
<g id="a_node7"><a xlink:href="_client_8h.html" target="_top" xlink:title="Client.h">
<polygon fill="white" stroke="black" points="250.95,-168.5 250.95,-187.5 309.95,-187.5 309.95,-168.5 250.95,-168.5"/>
<text text-anchor="middle" x="280.45" y="-175.5" font-family="Ubuntu Mono" font-size="10.00">Client.h</text>
</a>
</g>
</g>
<!-- Node1&#45;&gt;Node7 -->
<g id="edge6" class="edge"><title>Node1&#45;&gt;Node7</title>
<path fill="none" stroke="midnightblue" d="M437.819,-224.444C405.95,-215.241 355.117,-200.562 319.886,-190.388"/>
<polygon fill="midnightblue" stroke="midnightblue" points="320.52,-186.928 309.942,-187.516 318.578,-193.653 320.52,-186.928"/>
</g>
<!-- Node8 -->
<g id="node8" class="node"><title>Node8</title>
<g id="a_node8"><a xlink:href="_client_arrival_8h.html" target="_top" xlink:title="ClientArrival.h">
<polygon fill="white" stroke="black" points="327.95,-168.5 327.95,-187.5 422.95,-187.5 422.95,-168.5 327.95,-168.5"/>
<text text-anchor="middle" x="375.45" y="-175.5" font-family="Ubuntu Mono" font-size="10.00">ClientArrival.h</text>
</a>
</g>
</g>
<!-- Node1&#45;&gt;Node8 -->
<g id="edge9" class="edge"><title>Node1&#45;&gt;Node8</title>
<path fill="none" stroke="midnightblue" d="M452.668,-224.324C438.183,-215.822 415.877,-202.729 398.957,-192.797"/>
<polygon fill="midnightblue" stroke="midnightblue" points="400.59,-189.698 390.195,-187.655 397.047,-195.735 400.59,-189.698"/>
</g>
<!-- Node12 -->
<g id="node12" class="node"><title>Node12</title>
<g id="a_node12"><a xlink:href="_clock_8h.html" target="_top" xlink:title="Clock.h">
<polygon fill="white" stroke="black" points="440.95,-168.5 440.95,-187.5 493.95,-187.5 493.95,-168.5 440.95,-168.5"/>
<text text-anchor="middle" x="467.45" y="-175.5" font-family="Ubuntu Mono" font-size="10.00">Clock.h</text>
</a>
</g>
</g>
<!-- Node1&#45;&gt;Node12 -->
<g id="edge17" class="edge"><title>Node1&#45;&gt;Node12</title>
<path fill="none" stroke="midnightblue" d="M467.45,-224.083C467.45,-217.006 467.45,-206.861 467.45,-197.986"/>
<polygon fill="midnightblue" stroke="midnightblue" points="470.95,-197.751 467.45,-187.751 463.95,-197.751 470.95,-197.751"/>
</g>
<!-- Node14 -->
<g id="node14" class="node"><title>Node14</title>
<g id="a_node14"><a xlink:href="_event_queue_8h.html" target="_top" xlink:title="EventQueue.h">
<polygon fill="white" stroke="black" points="576.45,-168.5 576.45,-187.5 656.45,-187.5 656.45,-168.5 576.45,-168.5"/>
<text text-anchor="middle" x="616.45" y="-175.5" font-family="Ubuntu Mono" font-size="10.00">EventQueue.h</text>
</a>
</g>
</g>
<!-- Node1&#45;&gt;Node14 -->
<g id="edge22" class="edge"><title>Node1&#45;&gt;Node14</title>
<path fill="none" stroke="midnightblue" d="M491.059,-224.444C515.908,-215.438 555.224,-201.189 583.203,-191.049"/>
<polygon fill="midnightblue" stroke="midnightblue" points="584.742,-194.214 592.951,-187.516 582.357,-187.633 584.742,-194.214"/>
</g>
<!-- Node17 -->
<g id="node17" class="node"><title>Node17</title>
<g id="a_node17"><a xlink:href="_floor_8h.html" target="_top" xlink:title="Floor.h">
<polygon fill="white" stroke="black" points="745.95,-168.5 745.95,-187.5 798.95,-187.5 798.95,-168.5 745.95,-168.5"/>
<text text-anchor="middle" x="772.45" y="-175.5" font-family="Ubuntu Mono" font-size="10.00">Floor.h</text>
</a>
</g>
</g>
<!-- Node1&#45;&gt;Node17 -->
<g id="edge28" class="edge"><title>Node1&#45;&gt;Node17</title>
<path fill="none" stroke="midnightblue" d="M515.778,-224.444C576.847,-213.631 680.609,-195.26 735.639,-185.517"/>
<polygon fill="midnightblue" stroke="midnightblue" points="736.411,-188.935 745.647,-183.745 735.19,-182.042 736.411,-188.935"/>
</g>
<!-- Node19 -->
<g id="node19" class="node"><title>Node19</title>
<g id="a_node19"><a xlink:href="_scenario_8h.html" target="_top" xlink:title="Scenario.h">
<polygon fill="white" stroke="black" points="875.95,-112.5 875.95,-131.5 944.95,-131.5 944.95,-112.5 875.95,-112.5"/>
<text text-anchor="middle" x="910.45" y="-119.5" font-family="Ubuntu Mono" font-size="10.00">Scenario.h</text>
</a>
</g>
</g>
<!-- Node1&#45;&gt;Node19 -->
<g id="edge32" class="edge"><title>Node1&#45;&gt;Node19</title>
<path fill="none" stroke="midnightblue" d="M528.569,-232.726C598.098,-230.654 714.09,-221.791 807.45,-188 839.692,-176.33 872.417,-153.363 892.075,-138.094"/>
<polygon fill="midnightblue" stroke="midnightblue" points="894.486,-140.648 900.139,-131.688 890.131,-135.167 894.486,-140.648"/>
</g>
<!-- Node3 -->
<g id="node3" class="node"><title>Node3</title>
<polygon fill="white" stroke="#bfbfbf" points="117.45,-112.5 117.45,-131.5 207.45,-131.5 207.45,-112.5 117.45,-112.5"/>
<text text-anchor="middle" x="162.45" y="-119.5" font-family="Ubuntu Mono" font-size="10.00">glog/logging.h</text>
</g>
<!-- Node2&#45;&gt;Node3 -->
<g id="edge2" class="edge"><title>Node2&#45;&gt;Node3</title>
<path fill="none" stroke="midnightblue" d="M101.179,-168.324C112.287,-160.107 129.192,-147.602 142.433,-137.807"/>
<polygon fill="midnightblue" stroke="midnightblue" points="144.55,-140.595 150.508,-131.834 140.387,-134.967 144.55,-140.595"/>
</g>
<!-- Node4 -->
<g id="node4" class="node"><title>Node4</title>
<polygon fill="white" stroke="#bfbfbf" points="511.45,-56.5 511.45,-75.5 559.45,-75.5 559.45,-56.5 511.45,-56.5"/>
<text text-anchor="middle" x="535.45" y="-63.5" font-family="Ubuntu Mono" font-size="10.00">memory</text>
</g>
<!-- Node2&#45;&gt;Node4 -->
<g id="edge3" class="edge"><title>Node2&#45;&gt;Node4</title>
<path fill="none" stroke="midnightblue" d="M89.1696,-168.222C89.2401,-153.978 91.664,-126.016 108.45,-112 123.511,-99.4243 402.71,-77.0896 501.314,-69.5596"/>
<polygon fill="midnightblue" stroke="midnightblue" points="501.646,-73.0446 511.351,-68.7967 501.115,-66.0647 501.646,-73.0446"/>
</g>
<!-- Node5 -->
<g id="node5" class="node"><title>Node5</title>
<polygon fill="white" stroke="#bfbfbf" points="13.4498,-112.5 13.4498,-131.5 61.4498,-131.5 61.4498,-112.5 13.4498,-112.5"/>
<text text-anchor="middle" x="37.4498" y="-119.5" font-family="Ubuntu Mono" font-size="10.00">random</text>
</g>
<!-- Node2&#45;&gt;Node5 -->
<g id="edge4" class="edge"><title>Node2&#45;&gt;Node5</title>
<path fill="none" stroke="midnightblue" d="M80.8631,-168.083C73.2909,-160.22 62.0717,-148.569 52.9355,-139.081"/>
<polygon fill="midnightblue" stroke="midnightblue" points="55.3344,-136.527 45.8768,-131.751 50.2921,-141.382 55.3344,-136.527"/>
</g>
<!-- Node6 -->
<g id="node6" class="node"><title>Node6</title>
<polygon fill="white" stroke="#bfbfbf" points="244.45,-0.5 244.45,-19.5 292.45,-19.5 292.45,-0.5 244.45,-0.5"/>
<text text-anchor="middle" x="268.45" y="-7.5" font-family="Ubuntu Mono" font-size="10.00">string</text>
</g>
<!-- Node2&#45;&gt;Node6 -->
<g id="edge5" class="edge"><title>Node2&#45;&gt;Node6</title>
<path fill="none" stroke="midnightblue" d="M60.2286,-168.448C29.1445,-157.788 -13.2946,-137.787 4.44984,-112 56.8259,-35.884 174.963,-17.0976 233.798,-12.4847"/>
<polygon fill="midnightblue" stroke="midnightblue" points="234.329,-15.9565 244.065,-11.7777 233.848,-8.97307 234.329,-15.9565"/>
</g>
<!-- Node7&#45;&gt;Node3 -->
<g id="edge7" class="edge"><title>Node7&#45;&gt;Node3</title>
<path fill="none" stroke="midnightblue" d="M261.752,-168.444C242.505,-159.636 212.297,-145.812 190.25,-135.722"/>
<polygon fill="midnightblue" stroke="midnightblue" points="191.609,-132.495 181.06,-131.516 188.696,-138.86 191.609,-132.495"/>
</g>
<!-- Node7&#45;&gt;Node4 -->
<g id="edge8" class="edge"><title>Node7&#45;&gt;Node4</title>
<path fill="none" stroke="midnightblue" d="M292.158,-168.309C310.972,-154.686 349.476,-128.189 385.45,-112 423.763,-94.7577 470.479,-81.9346 501.492,-74.4782"/>
<polygon fill="midnightblue" stroke="midnightblue" points="502.438,-77.8512 511.373,-72.1566 500.837,-71.0368 502.438,-77.8512"/>
</g>
<!-- Node8&#45;&gt;Node3 -->
<g id="edge15" class="edge"><title>Node8&#45;&gt;Node3</title>
<path fill="none" stroke="midnightblue" d="M341.699,-168.444C304.932,-159.122 246.004,-144.183 205.828,-133.997"/>
<polygon fill="midnightblue" stroke="midnightblue" points="206.596,-130.581 196.042,-131.516 204.876,-137.367 206.596,-130.581"/>
</g>
<!-- Node8&#45;&gt;Node4 -->
<g id="edge16" class="edge"><title>Node8&#45;&gt;Node4</title>
<path fill="none" stroke="midnightblue" d="M376.758,-168.111C379.262,-154.215 386.024,-127.354 402.45,-112 429.571,-86.6493 471.494,-75.535 501.008,-70.6905"/>
<polygon fill="midnightblue" stroke="midnightblue" points="501.889,-74.0985 511.27,-69.1746 500.866,-67.1736 501.889,-74.0985"/>
</g>
<!-- Node9 -->
<g id="node9" class="node"><title>Node9</title>
<g id="a_node9"><a xlink:href="_event_8h.html" target="_top" xlink:title="Event.h">
<polygon fill="white" stroke="black" points="263.95,-112.5 263.95,-131.5 316.95,-131.5 316.95,-112.5 263.95,-112.5"/>
<text text-anchor="middle" x="290.45" y="-119.5" font-family="Ubuntu Mono" font-size="10.00">Event.h</text>
</a>
</g>
</g>
<!-- Node8&#45;&gt;Node9 -->
<g id="edge10" class="edge"><title>Node8&#45;&gt;Node9</title>
<path fill="none" stroke="midnightblue" d="M361.793,-168.324C348.534,-159.9 328.182,-146.971 312.604,-137.074"/>
<polygon fill="midnightblue" stroke="midnightblue" points="314.39,-134.063 304.073,-131.655 310.637,-139.971 314.39,-134.063"/>
</g>
<!-- Node9&#45;&gt;Node6 -->
<g id="edge14" class="edge"><title>Node9&#45;&gt;Node6</title>
<path fill="none" stroke="midnightblue" d="M288.724,-112.368C285.173,-94.617 276.983,-53.6664 272.169,-29.5974"/>
<polygon fill="midnightblue" stroke="midnightblue" points="275.561,-28.7108 270.168,-19.5914 268.697,-30.0837 275.561,-28.7108"/>
</g>
<!-- Node10 -->
<g id="node10" class="node"><title>Node10</title>
<g id="a_node10"><a xlink:href="_event_type_8h.html" target="_top" xlink:title="EventType.h">
<polygon fill="white" stroke="black" points="301.45,-56.5 301.45,-75.5 375.45,-75.5 375.45,-56.5 301.45,-56.5"/>
<text text-anchor="middle" x="338.45" y="-63.5" font-family="Ubuntu Mono" font-size="10.00">EventType.h</text>
</a>
</g>
</g>
<!-- Node9&#45;&gt;Node10 -->
<g id="edge11" class="edge"><title>Node9&#45;&gt;Node10</title>
<path fill="none" stroke="midnightblue" d="M298.376,-112.083C305.296,-104.298 315.515,-92.8015 323.902,-83.3665"/>
<polygon fill="midnightblue" stroke="midnightblue" points="326.643,-85.5505 330.671,-75.7511 321.411,-80.8999 326.643,-85.5505"/>
</g>
<!-- Node10&#45;&gt;Node6 -->
<g id="edge13" class="edge"><title>Node10&#45;&gt;Node6</title>
<path fill="none" stroke="midnightblue" d="M327.203,-56.324C316.652,-48.1849 300.649,-35.8395 288.008,-26.0874"/>
<polygon fill="midnightblue" stroke="midnightblue" points="289.957,-23.1707 279.901,-19.8339 285.681,-28.7132 289.957,-23.1707"/>
</g>
<!-- Node11 -->
<g id="node11" class="node"><title>Node11</title>
<polygon fill="white" stroke="#bfbfbf" points="310.45,-0.5 310.45,-19.5 374.45,-19.5 374.45,-0.5 310.45,-0.5"/>
<text text-anchor="middle" x="342.45" y="-7.5" font-family="Ubuntu Mono" font-size="10.00">stdexcept</text>
</g>
<!-- Node10&#45;&gt;Node11 -->
<g id="edge12" class="edge"><title>Node10&#45;&gt;Node11</title>
<path fill="none" stroke="midnightblue" d="M339.11,-56.083C339.635,-49.0059 340.386,-38.8611 341.043,-29.9865"/>
<polygon fill="midnightblue" stroke="midnightblue" points="344.553,-29.9823 341.802,-19.7511 337.572,-29.4652 344.553,-29.9823"/>
</g>
<!-- Node12&#45;&gt;Node4 -->
<g id="edge20" class="edge"><title>Node12&#45;&gt;Node4</title>
<path fill="none" stroke="midnightblue" d="M479.801,-168.368C490.657,-160.176 506.134,-146.922 515.45,-132 524.34,-117.759 529.524,-99.2858 532.377,-85.6746"/>
<polygon fill="midnightblue" stroke="midnightblue" points="535.866,-86.0561 534.255,-75.5844 528.984,-84.7752 535.866,-86.0561"/>
</g>
<!-- Node12&#45;&gt;Node6 -->
<g id="edge21" class="edge"><title>Node12&#45;&gt;Node6</title>
<path fill="none" stroke="midnightblue" d="M440.745,-170.184C437.616,-169.427 434.466,-168.683 431.45,-168 353.157,-150.261 305.244,-194.165 254.45,-132 230.353,-102.508 247.088,-54.628 259.132,-28.827"/>
<polygon fill="midnightblue" stroke="midnightblue" points="262.292,-30.3312 263.573,-19.8141 256.013,-27.237 262.292,-30.3312"/>
</g>
<!-- Node13 -->
<g id="node13" class="node"><title>Node13</title>
<g id="a_node13"><a xlink:href="_event_observer_8h.html" target="_top" xlink:title="EventObserver.h">
<polygon fill="white" stroke="black" points="411.95,-112.5 411.95,-131.5 506.95,-131.5 506.95,-112.5 411.95,-112.5"/>
<text text-anchor="middle" x="459.45" y="-119.5" font-family="Ubuntu Mono" font-size="10.00">EventObserver.h</text>
</a>
</g>
</g>
<!-- Node12&#45;&gt;Node13 -->
<g id="edge18" class="edge"><title>Node12&#45;&gt;Node13</title>
<path fill="none" stroke="midnightblue" d="M466.129,-168.083C465.069,-160.927 463.544,-150.635 462.219,-141.691"/>
<polygon fill="midnightblue" stroke="midnightblue" points="465.674,-141.13 460.746,-131.751 458.75,-142.156 465.674,-141.13"/>
</g>
<!-- Node13&#45;&gt;Node4 -->
<g id="edge19" class="edge"><title>Node13&#45;&gt;Node4</title>
<path fill="none" stroke="midnightblue" d="M471.661,-112.324C483.226,-104.107 500.825,-91.6017 514.611,-81.8069"/>
<polygon fill="midnightblue" stroke="midnightblue" points="516.892,-84.4791 523.017,-75.8339 512.838,-78.7729 516.892,-84.4791"/>
</g>
<!-- Node14&#45;&gt;Node4 -->
<g id="edge26" class="edge"><title>Node14&#45;&gt;Node4</title>
<path fill="none" stroke="midnightblue" d="M635.586,-168.408C659.293,-156.554 694.686,-134.13 678.45,-112 653.722,-78.2949 603.732,-69.1697 569.913,-67.0488"/>
<polygon fill="midnightblue" stroke="midnightblue" points="569.701,-63.5359 559.554,-66.5841 569.387,-70.5288 569.701,-63.5359"/>
</g>
<!-- Node14&#45;&gt;Node9 -->
<g id="edge23" class="edge"><title>Node14&#45;&gt;Node9</title>
<path fill="none" stroke="midnightblue" d="M576.149,-170.324C512.217,-159.734 388.51,-139.243 327.006,-129.055"/>
<polygon fill="midnightblue" stroke="midnightblue" points="327.417,-125.576 316.979,-127.394 326.273,-132.482 327.417,-125.576"/>
</g>
<!-- Node15 -->
<g id="node15" class="node"><title>Node15</title>
<g id="a_node15"><a xlink:href="_event_comparator_8h.html" target="_top" xlink:title="EventComparator.h">
<polygon fill="white" stroke="black" points="563.45,-112.5 563.45,-131.5 669.45,-131.5 669.45,-112.5 563.45,-112.5"/>
<text text-anchor="middle" x="616.45" y="-119.5" font-family="Ubuntu Mono" font-size="10.00">EventComparator.h</text>
</a>
</g>
</g>
<!-- Node14&#45;&gt;Node15 -->
<g id="edge24" class="edge"><title>Node14&#45;&gt;Node15</title>
<path fill="none" stroke="midnightblue" d="M616.45,-168.083C616.45,-161.006 616.45,-150.861 616.45,-141.986"/>
<polygon fill="midnightblue" stroke="midnightblue" points="619.95,-141.751 616.45,-131.751 612.95,-141.751 619.95,-141.751"/>
</g>
<!-- Node16 -->
<g id="node16" class="node"><title>Node16</title>
<polygon fill="white" stroke="#bfbfbf" points="725.95,-112.5 725.95,-131.5 768.95,-131.5 768.95,-112.5 725.95,-112.5"/>
<text text-anchor="middle" x="747.45" y="-119.5" font-family="Ubuntu Mono" font-size="10.00">queue</text>
</g>
<!-- Node14&#45;&gt;Node16 -->
<g id="edge27" class="edge"><title>Node14&#45;&gt;Node16</title>
<path fill="none" stroke="midnightblue" d="M637.207,-168.444C658.766,-159.557 692.713,-145.563 717.244,-135.451"/>
<polygon fill="midnightblue" stroke="midnightblue" points="718.878,-138.563 726.79,-131.516 716.21,-132.092 718.878,-138.563"/>
</g>
<!-- Node15&#45;&gt;Node4 -->
<g id="edge25" class="edge"><title>Node15&#45;&gt;Node4</title>
<path fill="none" stroke="midnightblue" d="M603.436,-112.324C590.918,-103.979 571.768,-91.2122 556.978,-81.3524"/>
<polygon fill="midnightblue" stroke="midnightblue" points="558.694,-78.2894 548.432,-75.6545 554.811,-84.1137 558.694,-78.2894"/>
</g>
<!-- Node17&#45;&gt;Node4 -->
<g id="edge29" class="edge"><title>Node17&#45;&gt;Node4</title>
<path fill="none" stroke="midnightblue" d="M776.573,-168.268C782.355,-154.588 790.762,-128.015 777.45,-112 751.423,-80.6876 630.055,-71.0573 569.704,-68.1799"/>
<polygon fill="midnightblue" stroke="midnightblue" points="569.672,-64.6752 559.528,-67.7314 569.364,-71.6684 569.672,-64.6752"/>
</g>
<!-- Node17&#45;&gt;Node16 -->
<g id="edge30" class="edge"><title>Node17&#45;&gt;Node16</title>
<path fill="none" stroke="midnightblue" d="M768.322,-168.083C764.936,-160.77 760.034,-150.181 755.831,-141.103"/>
<polygon fill="midnightblue" stroke="midnightblue" points="758.879,-139.355 751.501,-131.751 752.526,-142.296 758.879,-139.355"/>
</g>
<!-- Node18 -->
<g id="node18" class="node"><title>Node18</title>
<polygon fill="white" stroke="#bfbfbf" points="825.45,-112.5 825.45,-131.5 857.45,-131.5 857.45,-112.5 825.45,-112.5"/>
<text text-anchor="middle" x="841.45" y="-119.5" font-family="Ubuntu Mono" font-size="10.00">set</text>
</g>
<!-- Node17&#45;&gt;Node18 -->
<g id="edge31" class="edge"><title>Node17&#45;&gt;Node18</title>
<path fill="none" stroke="midnightblue" d="M783.536,-168.324C793.936,-160.185 809.71,-147.839 822.171,-138.087"/>
<polygon fill="midnightblue" stroke="midnightblue" points="824.444,-140.753 830.162,-131.834 820.13,-135.241 824.444,-140.753"/>
</g>
<!-- Node19&#45;&gt;Node4 -->
<g id="edge34" class="edge"><title>Node19&#45;&gt;Node4</title>
<path fill="none" stroke="midnightblue" d="M875.904,-113.707C872.713,-113.102 869.525,-112.523 866.45,-112 758.58,-93.6563 629.922,-77.9086 569.708,-70.8942"/>
<polygon fill="midnightblue" stroke="midnightblue" points="569.958,-67.3998 559.622,-69.7265 569.153,-74.3533 569.958,-67.3998"/>
</g>
<!-- Node19&#45;&gt;Node6 -->
<g id="edge35" class="edge"><title>Node19&#45;&gt;Node6</title>
<path fill="none" stroke="midnightblue" d="M875.873,-113.873C872.689,-113.233 869.51,-112.601 866.45,-112 734.209,-86.0518 701.494,-77.4553 568.45,-56 453.469,-37.4577 420.584,-43.4487 302.663,-20.0056"/>
<polygon fill="midnightblue" stroke="midnightblue" points="303.007,-16.5046 292.512,-17.9575 301.622,-23.3663 303.007,-16.5046"/>
</g>
<!-- Node20 -->
<g id="node20" class="node"><title>Node20</title>
<polygon fill="white" stroke="#bfbfbf" points="856.95,-56.5 856.95,-75.5 899.95,-75.5 899.95,-56.5 856.95,-56.5"/>
<text text-anchor="middle" x="878.45" y="-63.5" font-family="Ubuntu Mono" font-size="10.00">ctime</text>
</g>
<!-- Node19&#45;&gt;Node20 -->
<g id="edge33" class="edge"><title>Node19&#45;&gt;Node20</title>
<path fill="none" stroke="midnightblue" d="M905.166,-112.083C900.739,-104.613 894.287,-93.7244 888.832,-84.5199"/>
<polygon fill="midnightblue" stroke="midnightblue" points="891.745,-82.5697 883.636,-75.7511 885.723,-86.1383 891.745,-82.5697"/>
</g>
<!-- Node21 -->
<g id="node21" class="node"><title>Node21</title>
<polygon fill="white" stroke="#bfbfbf" points="918.45,-56.5 918.45,-75.5 966.45,-75.5 966.45,-56.5 918.45,-56.5"/>
<text text-anchor="middle" x="942.45" y="-63.5" font-family="Ubuntu Mono" font-size="10.00">vector</text>
</g>
<!-- Node19&#45;&gt;Node21 -->
<g id="edge36" class="edge"><title>Node19&#45;&gt;Node21</title>
<path fill="none" stroke="midnightblue" d="M915.734,-112.083C920.161,-104.613 926.613,-93.7244 932.068,-84.5199"/>
<polygon fill="midnightblue" stroke="midnightblue" points="935.177,-86.1383 937.264,-75.7511 929.155,-82.5697 935.177,-86.1383"/>
</g>
</g>
</svg>
