<?xml version="1.0" encoding="UTF-8" standalone="no"?>
<!DOCTYPE svg PUBLIC "-//W3C//DTD SVG 1.1//EN"
 "http://www.w3.org/Graphics/SVG/1.1/DTD/svg11.dtd">
<!-- Generated by graphviz version 2.38.0 (20140413.2041)
 -->
<!-- Title: include/EventType.h Pages: 1 -->
<svg width="1356pt" height="196pt"
 viewBox="0.00 0.00 1356.37 196.00" xmlns="http://www.w3.org/2000/svg" xmlns:xlink="http://www.w3.org/1999/xlink">
<g id="graph0" class="graph" transform="scale(1 1) rotate(0) translate(4 192)">
<title>include/EventType.h</title>
<polygon fill="white" stroke="none" points="-4,4 -4,-192 1352.37,-192 1352.37,4 -4,4"/>
<!-- Node1 -->
<g id="node1" class="node"><title>Node1</title>
<polygon fill="#bfbfbf" stroke="black" points="638.5,-168.5 638.5,-187.5 754.5,-187.5 754.5,-168.5 638.5,-168.5"/>
<text text-anchor="middle" x="696.5" y="-175.5" font-family="Ubuntu Mono" font-size="10.00">include/EventType.h</text>
</g>
<!-- Node2 -->
<g id="node2" class="node"><title>Node2</title>
<g id="a_node2"><a xlink:href="_client_arrival_8cpp.html" target="_top" xlink:title="src/ClientArrival.cpp">
<polygon fill="white" stroke="black" points="0,-0.5 0,-19.5 127,-19.5 127,-0.5 0,-0.5"/>
<text text-anchor="middle" x="63.5" y="-7.5" font-family="Ubuntu Mono" font-size="10.00">src/ClientArrival.cpp</text>
</a>
</g>
</g>
<!-- Node1&#45;&gt;Node2 -->
<g id="edge1" class="edge"><title>Node1&#45;&gt;Node2</title>
<path fill="none" stroke="midnightblue" d="M628.196,-167.012C533.956,-152.254 359.379,-121.381 215.5,-76 164.863,-60.0286 108.033,-33.1958 80.4051,-19.5405"/>
<polygon fill="midnightblue" stroke="midnightblue" points="627.754,-170.486 638.172,-168.561 628.828,-163.569 627.754,-170.486"/>
</g>
<!-- Node3 -->
<g id="node3" class="node"><title>Node3</title>
<g id="a_node3"><a xlink:href="_finish_simulation_8cpp.html" target="_top" xlink:title="src/FinishSimulation.cpp">
<polygon fill="white" stroke="black" points="1089,-0.5 1089,-19.5 1232,-19.5 1232,-0.5 1089,-0.5"/>
<text text-anchor="middle" x="1160.5" y="-7.5" font-family="Ubuntu Mono" font-size="10.00">src/FinishSimulation.cpp</text>
</a>
</g>
</g>
<!-- Node1&#45;&gt;Node3 -->
<g id="edge2" class="edge"><title>Node1&#45;&gt;Node3</title>
<path fill="none" stroke="midnightblue" d="M764.736,-176.945C914.811,-175.222 1266.05,-161.892 1339.5,-76 1373.77,-35.9229 1295.85,-20.5534 1232.24,-14.661"/>
<polygon fill="midnightblue" stroke="midnightblue" points="764.68,-173.445 754.716,-177.046 764.751,-180.445 764.68,-173.445"/>
</g>
<!-- Node4 -->
<g id="node4" class="node"><title>Node4</title>
<g id="a_node4"><a xlink:href="_event_8h.html" target="_top" xlink:title="include/Event.h">
<polygon fill="white" stroke="black" points="649,-112.5 649,-131.5 744,-131.5 744,-112.5 649,-112.5"/>
<text text-anchor="middle" x="696.5" y="-119.5" font-family="Ubuntu Mono" font-size="10.00">include/Event.h</text>
</a>
</g>
</g>
<!-- Node1&#45;&gt;Node4 -->
<g id="edge3" class="edge"><title>Node1&#45;&gt;Node4</title>
<path fill="none" stroke="midnightblue" d="M696.5,-157.805C696.5,-148.91 696.5,-138.78 696.5,-131.751"/>
<polygon fill="midnightblue" stroke="midnightblue" points="693,-158.083 696.5,-168.083 700,-158.083 693,-158.083"/>
</g>
<!-- Node5 -->
<g id="node5" class="node"><title>Node5</title>
<g id="a_node5"><a xlink:href="_clock_8cpp.html" target="_top" xlink:title="src/Clock.cpp">
<polygon fill="white" stroke="black" points="543,-56.5 543,-75.5 628,-75.5 628,-56.5 543,-56.5"/>
<text text-anchor="middle" x="585.5" y="-63.5" font-family="Ubuntu Mono" font-size="10.00">src/Clock.cpp</text>
</a>
</g>
</g>
<!-- Node4&#45;&gt;Node5 -->
<g id="edge4" class="edge"><title>Node4&#45;&gt;Node5</title>
<path fill="none" stroke="midnightblue" d="M669.495,-107.862C648.912,-97.8492 621.155,-84.3458 603.29,-75.6545"/>
<polygon fill="midnightblue" stroke="midnightblue" points="668.142,-111.097 678.666,-112.324 671.205,-104.802 668.142,-111.097"/>
</g>
<!-- Node6 -->
<g id="node6" class="node"><title>Node6</title>
<g id="a_node6"><a xlink:href="_elevator_8cpp.html" target="_top" xlink:title="src/Elevator.cpp">
<polygon fill="white" stroke="black" points="646,-56.5 646,-75.5 747,-75.5 747,-56.5 646,-56.5"/>
<text text-anchor="middle" x="696.5" y="-63.5" font-family="Ubuntu Mono" font-size="10.00">src/Elevator.cpp</text>
</a>
</g>
</g>
<!-- Node4&#45;&gt;Node6 -->
<g id="edge5" class="edge"><title>Node4&#45;&gt;Node6</title>
<path fill="none" stroke="midnightblue" d="M696.5,-101.805C696.5,-92.9102 696.5,-82.7798 696.5,-75.7511"/>
<polygon fill="midnightblue" stroke="midnightblue" points="693,-102.083 696.5,-112.083 700,-102.083 693,-102.083"/>
</g>
<!-- Node7 -->
<g id="node7" class="node"><title>Node7</title>
<g id="a_node7"><a xlink:href="_event_8cpp.html" target="_top" xlink:title="src/Event.cpp">
<polygon fill="white" stroke="black" points="936,-56.5 936,-75.5 1021,-75.5 1021,-56.5 936,-56.5"/>
<text text-anchor="middle" x="978.5" y="-63.5" font-family="Ubuntu Mono" font-size="10.00">src/Event.cpp</text>
</a>
</g>
</g>
<!-- Node4&#45;&gt;Node7 -->
<g id="edge6" class="edge"><title>Node4&#45;&gt;Node7</title>
<path fill="none" stroke="midnightblue" d="M751.261,-110.514C805.225,-100.18 886.551,-84.6073 935.871,-75.1629"/>
<polygon fill="midnightblue" stroke="midnightblue" points="750.347,-107.125 741.184,-112.444 751.664,-114 750.347,-107.125"/>
</g>
<!-- Node8 -->
<g id="node8" class="node"><title>Node8</title>
<g id="a_node8"><a xlink:href="_event_comparator_8cpp.html" target="_top" xlink:title="src/EventComparator.cpp">
<polygon fill="white" stroke="black" points="1039,-56.5 1039,-75.5 1176,-75.5 1176,-56.5 1039,-56.5"/>
<text text-anchor="middle" x="1107.5" y="-63.5" font-family="Ubuntu Mono" font-size="10.00">src/EventComparator.cpp</text>
</a>
</g>
</g>
<!-- Node4&#45;&gt;Node8 -->
<g id="edge7" class="edge"><title>Node4&#45;&gt;Node8</title>
<path fill="none" stroke="midnightblue" d="M754.374,-113.396C830.308,-103.419 963.199,-85.9593 1042.51,-75.5388"/>
<polygon fill="midnightblue" stroke="midnightblue" points="753.507,-109.98 744.048,-114.753 754.419,-116.92 753.507,-109.98"/>
</g>
<!-- Node9 -->
<g id="node9" class="node"><title>Node9</title>
<g id="a_node9"><a xlink:href="_event_dispatcher_8cpp.html" target="_top" xlink:title="src/EventDispatcher.cpp">
<polygon fill="white" stroke="black" points="1194,-56.5 1194,-75.5 1331,-75.5 1331,-56.5 1194,-56.5"/>
<text text-anchor="middle" x="1262.5" y="-63.5" font-family="Ubuntu Mono" font-size="10.00">src/EventDispatcher.cpp</text>
</a>
</g>
</g>
<!-- Node4&#45;&gt;Node9 -->
<g id="edge8" class="edge"><title>Node4&#45;&gt;Node9</title>
<path fill="none" stroke="midnightblue" d="M754.489,-116.086C845.948,-108.237 1029.27,-92.1108 1184.5,-76 1187.48,-75.6904 1190.53,-75.3676 1193.61,-75.036"/>
<polygon fill="midnightblue" stroke="midnightblue" points="753.995,-112.615 744.33,-116.956 754.593,-119.59 753.995,-112.615"/>
</g>
<!-- Node10 -->
<g id="node10" class="node"><title>Node10</title>
<g id="a_node10"><a xlink:href="_statistics_8cpp.html" target="_top" xlink:title="src/Statistics.cpp">
<polygon fill="white" stroke="black" points="145,-0.5 145,-19.5 256,-19.5 256,-0.5 145,-0.5"/>
<text text-anchor="middle" x="200.5" y="-7.5" font-family="Ubuntu Mono" font-size="10.00">src/Statistics.cpp</text>
</a>
</g>
</g>
<!-- Node4&#45;&gt;Node10 -->
<g id="edge9" class="edge"><title>Node4&#45;&gt;Node10</title>
<path fill="none" stroke="midnightblue" d="M638.604,-121.806C530.343,-122.276 302.328,-118.059 237.5,-76 217.021,-62.7135 206.666,-33.8866 202.61,-19.5098"/>
<polygon fill="midnightblue" stroke="midnightblue" points="638.718,-125.305 648.698,-121.747 638.677,-118.306 638.718,-125.305"/>
</g>
<!-- Node11 -->
<g id="node11" class="node"><title>Node11</title>
<g id="a_node11"><a xlink:href="_client_arrival_8h.html" target="_top" xlink:title="include/ClientArrival.h">
<polygon fill="white" stroke="black" points="247,-56.5 247,-75.5 384,-75.5 384,-56.5 247,-56.5"/>
<text text-anchor="middle" x="315.5" y="-63.5" font-family="Ubuntu Mono" font-size="10.00">include/ClientArrival.h</text>
</a>
</g>
</g>
<!-- Node4&#45;&gt;Node11 -->
<g id="edge10" class="edge"><title>Node4&#45;&gt;Node11</title>
<path fill="none" stroke="midnightblue" d="M638.517,-112.782C567.487,-102.715 447.744,-85.7433 375.712,-75.5341"/>
<polygon fill="midnightblue" stroke="midnightblue" points="638.24,-116.278 648.632,-114.216 639.222,-109.347 638.24,-116.278"/>
</g>
<!-- Node15 -->
<g id="node15" class="node"><title>Node15</title>
<g id="a_node15"><a xlink:href="_event_queue_8h.html" target="_top" xlink:title="include/EventQueue.h">
<polygon fill="white" stroke="black" points="402.5,-56.5 402.5,-75.5 524.5,-75.5 524.5,-56.5 402.5,-56.5"/>
<text text-anchor="middle" x="463.5" y="-63.5" font-family="Ubuntu Mono" font-size="10.00">include/EventQueue.h</text>
</a>
</g>
</g>
<!-- Node4&#45;&gt;Node15 -->
<g id="edge16" class="edge"><title>Node4&#45;&gt;Node15</title>
<path fill="none" stroke="midnightblue" d="M649.697,-110.153C605.673,-99.95 540.653,-84.8809 500.247,-75.5164"/>
<polygon fill="midnightblue" stroke="midnightblue" points="649.048,-113.595 659.58,-112.444 650.629,-106.776 649.048,-113.595"/>
</g>
<!-- Node18 -->
<g id="node18" class="node"><title>Node18</title>
<g id="a_node18"><a xlink:href="_finish_simulation_8h.html" target="_top" xlink:title="include/FinishSimulation.h">
<polygon fill="white" stroke="black" points="765,-56.5 765,-75.5 918,-75.5 918,-56.5 765,-56.5"/>
<text text-anchor="middle" x="841.5" y="-63.5" font-family="Ubuntu Mono" font-size="10.00">include/FinishSimulation.h</text>
</a>
</g>
</g>
<!-- Node4&#45;&gt;Node18 -->
<g id="edge21" class="edge"><title>Node4&#45;&gt;Node18</title>
<path fill="none" stroke="midnightblue" d="M728.975,-108.906C756.236,-98.7536 794.492,-84.5063 818.632,-75.5164"/>
<polygon fill="midnightblue" stroke="midnightblue" points="727.625,-105.674 719.476,-112.444 730.068,-112.233 727.625,-105.674"/>
</g>
<!-- Node11&#45;&gt;Node2 -->
<g id="edge12" class="edge"><title>Node11&#45;&gt;Node2</title>
<path fill="none" stroke="midnightblue" d="M265.779,-54.3456C218.156,-44.1405 147.22,-28.94 103.243,-19.5164"/>
<polygon fill="midnightblue" stroke="midnightblue" points="265.058,-57.7705 275.57,-56.4435 266.525,-50.9259 265.058,-57.7705"/>
</g>
<!-- Node11&#45;&gt;Node10 -->
<g id="edge15" class="edge"><title>Node11&#45;&gt;Node10</title>
<path fill="none" stroke="midnightblue" d="M288.019,-52.096C266.534,-42.0073 237.278,-28.2697 218.637,-19.5164"/>
<polygon fill="midnightblue" stroke="midnightblue" points="286.738,-55.3612 297.278,-56.4435 289.714,-49.025 286.738,-55.3612"/>
</g>
<!-- Node12 -->
<g id="node12" class="node"><title>Node12</title>
<g id="a_node12"><a xlink:href="_building_8cpp.html" target="_top" xlink:title="src/Building.cpp">
<polygon fill="white" stroke="black" points="274,-0.5 274,-19.5 375,-19.5 375,-0.5 274,-0.5"/>
<text text-anchor="middle" x="324.5" y="-7.5" font-family="Ubuntu Mono" font-size="10.00">src/Building.cpp</text>
</a>
</g>
</g>
<!-- Node11&#45;&gt;Node12 -->
<g id="edge11" class="edge"><title>Node11&#45;&gt;Node12</title>
<path fill="none" stroke="midnightblue" d="M318.65,-46.1005C320.144,-37.1357 321.857,-26.8579 323.041,-19.7511"/>
<polygon fill="midnightblue" stroke="midnightblue" points="315.178,-45.6436 316.986,-56.083 322.083,-46.7945 315.178,-45.6436"/>
</g>
<!-- Node13 -->
<g id="node13" class="node"><title>Node13</title>
<g id="a_node13"><a xlink:href="_event_factory_8cpp.html" target="_top" xlink:title="src/EventFactory.cpp">
<polygon fill="white" stroke="black" points="393.5,-0.5 393.5,-19.5 515.5,-19.5 515.5,-0.5 393.5,-0.5"/>
<text text-anchor="middle" x="454.5" y="-7.5" font-family="Ubuntu Mono" font-size="10.00">src/EventFactory.cpp</text>
</a>
</g>
</g>
<!-- Node11&#45;&gt;Node13 -->
<g id="edge13" class="edge"><title>Node11&#45;&gt;Node13</title>
<path fill="none" stroke="midnightblue" d="M346.976,-52.772C373.085,-42.6287 409.539,-28.4669 432.578,-19.5164"/>
<polygon fill="midnightblue" stroke="midnightblue" points="345.579,-49.5598 337.525,-56.4435 348.114,-56.0847 345.579,-49.5598"/>
</g>
<!-- Node14 -->
<g id="node14" class="node"><title>Node14</title>
<g id="a_node14"><a xlink:href="_simulator_8cpp.html" target="_top" xlink:title="src/Simulator.cpp">
<polygon fill="white" stroke="black" points="533.5,-0.5 533.5,-19.5 639.5,-19.5 639.5,-0.5 533.5,-0.5"/>
<text text-anchor="middle" x="586.5" y="-7.5" font-family="Ubuntu Mono" font-size="10.00">src/Simulator.cpp</text>
</a>
</g>
</g>
<!-- Node11&#45;&gt;Node14 -->
<g id="edge14" class="edge"><title>Node11&#45;&gt;Node14</title>
<path fill="none" stroke="midnightblue" d="M368.328,-54.4734C419.545,-44.2678 496.27,-28.9794 543.76,-19.5164"/>
<polygon fill="midnightblue" stroke="midnightblue" points="367.564,-51.0567 358.441,-56.4435 368.932,-57.9218 367.564,-51.0567"/>
</g>
<!-- Node15&#45;&gt;Node13 -->
<g id="edge17" class="edge"><title>Node15&#45;&gt;Node13</title>
<path fill="none" stroke="midnightblue" d="M460.35,-46.1005C458.856,-37.1357 457.143,-26.8579 455.959,-19.7511"/>
<polygon fill="midnightblue" stroke="midnightblue" points="456.917,-46.7945 462.014,-56.083 463.822,-45.6436 456.917,-46.7945"/>
</g>
<!-- Node15&#45;&gt;Node14 -->
<g id="edge20" class="edge"><title>Node15&#45;&gt;Node14</title>
<path fill="none" stroke="midnightblue" d="M492.273,-52.3678C515.307,-42.2553 546.984,-28.3486 567.101,-19.5164"/>
<polygon fill="midnightblue" stroke="midnightblue" points="490.739,-49.2188 482.99,-56.4435 493.553,-55.6283 490.739,-49.2188"/>
</g>
<!-- Node16 -->
<g id="node16" class="node"><title>Node16</title>
<g id="a_node16"><a xlink:href="_event_queue_8cpp.html" target="_top" xlink:title="src/EventQueue.cpp">
<polygon fill="white" stroke="black" points="761,-0.5 761,-19.5 872,-19.5 872,-0.5 761,-0.5"/>
<text text-anchor="middle" x="816.5" y="-7.5" font-family="Ubuntu Mono" font-size="10.00">src/EventQueue.cpp</text>
</a>
</g>
</g>
<!-- Node15&#45;&gt;Node16 -->
<g id="edge18" class="edge"><title>Node15&#45;&gt;Node16</title>
<path fill="none" stroke="midnightblue" d="M529.415,-54.9166C596.104,-44.715 698.066,-29.1174 760.828,-19.5164"/>
<polygon fill="midnightblue" stroke="midnightblue" points="528.79,-51.4715 519.434,-56.4435 529.848,-58.3911 528.79,-51.4715"/>
</g>
<!-- Node17 -->
<g id="node17" class="node"><title>Node17</title>
<g id="a_node17"><a xlink:href="_floor_8cpp.html" target="_top" xlink:title="src/Floor.cpp">
<polygon fill="white" stroke="black" points="658,-0.5 658,-19.5 743,-19.5 743,-0.5 658,-0.5"/>
<text text-anchor="middle" x="700.5" y="-7.5" font-family="Ubuntu Mono" font-size="10.00">src/Floor.cpp</text>
</a>
</g>
</g>
<!-- Node15&#45;&gt;Node17 -->
<g id="edge19" class="edge"><title>Node15&#45;&gt;Node17</title>
<path fill="none" stroke="midnightblue" d="M510.824,-54.2172C555.608,-44.0134 621.936,-28.9006 663.122,-19.5164"/>
<polygon fill="midnightblue" stroke="midnightblue" points="510.026,-50.8094 501.053,-56.4435 511.581,-57.6345 510.026,-50.8094"/>
</g>
<!-- Node18&#45;&gt;Node3 -->
<g id="edge22" class="edge"><title>Node18&#45;&gt;Node3</title>
<path fill="none" stroke="midnightblue" d="M902.184,-54.7275C962.466,-44.523 1053.82,-29.0583 1110.19,-19.5164"/>
<polygon fill="midnightblue" stroke="midnightblue" points="901.322,-51.3235 892.046,-56.4435 902.49,-58.2253 901.322,-51.3235"/>
</g>
<!-- Node18&#45;&gt;Node14 -->
<g id="edge23" class="edge"><title>Node18&#45;&gt;Node14</title>
<path fill="none" stroke="midnightblue" d="M791.188,-54.3456C742.997,-44.1405 671.217,-28.94 626.716,-19.5164"/>
<polygon fill="midnightblue" stroke="midnightblue" points="790.586,-57.7958 801.094,-56.4435 792.037,-50.9477 790.586,-57.7958"/>
</g>
</g>
</svg>
