<?xml version="1.0" encoding="UTF-8" standalone="no"?>
<!DOCTYPE svg PUBLIC "-//W3C//DTD SVG 1.1//EN"
 "http://www.w3.org/Graphics/SVG/1.1/DTD/svg11.dtd">
<!-- Generated by graphviz version 2.38.0 (20140413.2041)
 -->
<!-- Title: include/Event.h Pages: 1 -->
<!--zoomable 140 -->
<svg id="main" version="1.1" xmlns="http://www.w3.org/2000/svg" xmlns:xlink="http://www.w3.org/1999/xlink" xml:space="preserve" onload="init(evt)">
<style type="text/css"><![CDATA[
.edge:hover path { stroke: red; }
.edge:hover polygon { stroke: red; fill: red; }
]]></style>
<script type="text/javascript"><![CDATA[
var edges = document.getElementsByTagName('g');
if (edges && edges.length) {
  for (var i=0;i<edges.length;i++) {
    if (edges[i].id.substr(0,4)=='edge') {
      edges[i].setAttribute('class','edge');
    }
  }
}
]]></script>
        <defs>
                <circle id="rim" cx="0" cy="0" r="7"/>
                <circle id="rim2" cx="0" cy="0" r="3.5"/>
                <g id="zoomPlus">
                        <use xlink:href="#rim" fill="#404040">
                                <set attributeName="fill" to="#808080" begin="zoomplus.mouseover" end="zoomplus.mouseout"/>
                        </use>
                        <path d="M-4,0h8M0,-4v8" fill="none" stroke="white" stroke-width="1.5" pointer-events="none"/>
                </g>
                <g id="zoomMin">
                        <use xlink:href="#rim" fill="#404040">
                                <set attributeName="fill" to="#808080" begin="zoomminus.mouseover" end="zoomminus.mouseout"/>
                        </use>
                        <path d="M-4,0h8" fill="none" stroke="white" stroke-width="1.5" pointer-events="none"/>
                </g>
                <g id="dirArrow">
                        <path fill="none" stroke="white" stroke-width="1.5" d="M0,-3.0v7 M-2.5,-0.5L0,-3.0L2.5,-0.5"/>
                </g>
               <g id="resetDef">
                       <use xlink:href="#rim2" fill="#404040">
                               <set attributeName="fill" to="#808080" begin="reset.mouseover" end="reset.mouseout"/>
                       </use>
               </g>
        </defs>

<script type="text/javascript">
var viewWidth = 1311;
var viewHeight = 140;
var sectionId = 'dynsection-1';
</script>
<script xlink:href="svgpan.js"/>
<svg id="graph" class="graph">
<g id="viewport">
<title>include/Event.h</title>
<polygon fill="white" stroke="none" points="-4,4 -4,-136 1306.5,-136 1306.5,4 -4,4"/>
<!-- Node1 -->
<g id="node1" class="node"><title>Node1</title>
<polygon fill="#bfbfbf" stroke="black" points="464.5,-112.5 464.5,-131.5 548.5,-131.5 548.5,-112.5 464.5,-112.5"/>
<text text-anchor="middle" x="506.5" y="-119.5" font-family="Helvetica,sans-Serif" font-size="10.00">include/Event.h</text>
</g>
<!-- Node2 -->
<g id="node2" class="node"><title>Node2</title>
<g id="a_node2"><a xlink:href="_clock_8cpp.html" target="_top" xlink:title="src/Clock.cpp">
<polygon fill="white" stroke="black" points="0,-56.5 0,-75.5 77,-75.5 77,-56.5 0,-56.5"/>
<text text-anchor="middle" x="38.5" y="-63.5" font-family="Helvetica,sans-Serif" font-size="10.00">src/Clock.cpp</text>
</a>
</g>
</g>
<!-- Node1&#45;&gt;Node2 -->
<g id="edge1" class="edge"><title>Node1&#45;&gt;Node2</title>
<path fill="none" stroke="midnightblue" d="M454.078,-116.717C374.427,-109.909 218.254,-95.3796 86.5,-76 83.4802,-75.5558 80.3605,-75.0586 77.2287,-74.532"/>
<polygon fill="midnightblue" stroke="midnightblue" points="454.074,-120.229 464.334,-117.587 454.666,-113.254 454.074,-120.229"/>
</g>
<!-- Node3 -->
<g id="node3" class="node"><title>Node3</title>
<g id="a_node3"><a xlink:href="_elevator_8cpp.html" target="_top" xlink:title="src/Elevator.cpp">
<polygon fill="white" stroke="black" points="95.5,-56.5 95.5,-75.5 183.5,-75.5 183.5,-56.5 95.5,-56.5"/>
<text text-anchor="middle" x="139.5" y="-63.5" font-family="Helvetica,sans-Serif" font-size="10.00">src/Elevator.cpp</text>
</a>
</g>
</g>
<!-- Node1&#45;&gt;Node3 -->
<g id="edge2" class="edge"><title>Node1&#45;&gt;Node3</title>
<path fill="none" stroke="midnightblue" d="M454.484,-113.884C392.332,-105.298 285.229,-90.2362 193.5,-76 190.307,-75.5044 187.009,-74.9817 183.691,-74.4478"/>
<polygon fill="midnightblue" stroke="midnightblue" points="454.051,-117.357 464.435,-115.257 455.007,-110.423 454.051,-117.357"/>
</g>
<!-- Node4 -->
<g id="node4" class="node"><title>Node4</title>
<g id="a_node4"><a xlink:href="_event_8cpp.html" target="_top" xlink:title="src/Event.cpp">
<polygon fill="white" stroke="black" points="202,-56.5 202,-75.5 279,-75.5 279,-56.5 202,-56.5"/>
<text text-anchor="middle" x="240.5" y="-63.5" font-family="Helvetica,sans-Serif" font-size="10.00">src/Event.cpp</text>
</a>
</g>
</g>
<!-- Node1&#45;&gt;Node4 -->
<g id="edge3" class="edge"><title>Node1&#45;&gt;Node4</title>
<path fill="none" stroke="midnightblue" d="M454.44,-110.431C403.063,-100.001 325.683,-84.2929 279.422,-74.9015"/>
<polygon fill="midnightblue" stroke="midnightblue" points="453.855,-113.884 464.352,-112.444 455.248,-107.024 453.855,-113.884"/>
</g>
<!-- Node5 -->
<g id="node5" class="node"><title>Node5</title>
<g id="a_node5"><a xlink:href="_event_comparator_8cpp.html" target="_top" xlink:title="src/EventComparator.cpp">
<polygon fill="white" stroke="black" points="297.5,-56.5 297.5,-75.5 425.5,-75.5 425.5,-56.5 297.5,-56.5"/>
<text text-anchor="middle" x="361.5" y="-63.5" font-family="Helvetica,sans-Serif" font-size="10.00">src/EventComparator.cpp</text>
</a>
</g>
</g>
<!-- Node1&#45;&gt;Node5 -->
<g id="edge4" class="edge"><title>Node1&#45;&gt;Node5</title>
<path fill="none" stroke="midnightblue" d="M474.025,-108.906C446.764,-98.7536 408.508,-84.5063 384.368,-75.5164"/>
<polygon fill="midnightblue" stroke="midnightblue" points="472.932,-112.233 483.524,-112.444 475.375,-105.674 472.932,-112.233"/>
</g>
<!-- Node6 -->
<g id="node6" class="node"><title>Node6</title>
<g id="a_node6"><a xlink:href="_event_dispatcher_8cpp.html" target="_top" xlink:title="src/EventDispatcher.cpp">
<polygon fill="white" stroke="black" points="444,-56.5 444,-75.5 569,-75.5 569,-56.5 444,-56.5"/>
<text text-anchor="middle" x="506.5" y="-63.5" font-family="Helvetica,sans-Serif" font-size="10.00">src/EventDispatcher.cpp</text>
</a>
</g>
</g>
<!-- Node1&#45;&gt;Node6 -->
<g id="edge5" class="edge"><title>Node1&#45;&gt;Node6</title>
<path fill="none" stroke="midnightblue" d="M506.5,-101.805C506.5,-92.9102 506.5,-82.7798 506.5,-75.7511"/>
<polygon fill="midnightblue" stroke="midnightblue" points="503,-102.083 506.5,-112.083 510,-102.083 503,-102.083"/>
</g>
<!-- Node7 -->
<g id="node7" class="node"><title>Node7</title>
<g id="a_node7"><a xlink:href="_statistics_8cpp.html" target="_top" xlink:title="src/Statistics.cpp">
<polygon fill="white" stroke="black" points="384,-0.5 384,-19.5 477,-19.5 477,-0.5 384,-0.5"/>
<text text-anchor="middle" x="430.5" y="-7.5" font-family="Helvetica,sans-Serif" font-size="10.00">src/Statistics.cpp</text>
</a>
</g>
</g>
<!-- Node1&#45;&gt;Node7 -->
<g id="edge6" class="edge"><title>Node1&#45;&gt;Node7</title>
<path fill="none" stroke="midnightblue" d="M538.997,-108.208C564.721,-96.1448 593.95,-76.846 578.5,-56 566.267,-39.4943 515.792,-26.6444 477.155,-18.9762"/>
<polygon fill="midnightblue" stroke="midnightblue" points="537.482,-105.051 529.768,-112.314 540.328,-111.446 537.482,-105.051"/>
</g>
<!-- Node8 -->
<g id="node8" class="node"><title>Node8</title>
<g id="a_node8"><a xlink:href="_client_arrival_8h.html" target="_top" xlink:title="include/ClientArrival.h">
<polygon fill="white" stroke="black" points="625.5,-56.5 625.5,-75.5 737.5,-75.5 737.5,-56.5 625.5,-56.5"/>
<text text-anchor="middle" x="681.5" y="-63.5" font-family="Helvetica,sans-Serif" font-size="10.00">include/ClientArrival.h</text>
</a>
</g>
</g>
<!-- Node1&#45;&gt;Node8 -->
<g id="edge7" class="edge"><title>Node1&#45;&gt;Node8</title>
<path fill="none" stroke="midnightblue" d="M543.975,-109.436C576.97,-99.2551 624.256,-84.664 653.9,-75.5164"/>
<polygon fill="midnightblue" stroke="midnightblue" points="542.753,-106.151 534.229,-112.444 544.817,-112.839 542.753,-106.151"/>
</g>
<!-- Node13 -->
<g id="node13" class="node"><title>Node13</title>
<g id="a_node13"><a xlink:href="_event_queue_8h.html" target="_top" xlink:title="include/EventQueue.h">
<polygon fill="white" stroke="black" points="785,-56.5 785,-75.5 898,-75.5 898,-56.5 785,-56.5"/>
<text text-anchor="middle" x="841.5" y="-63.5" font-family="Helvetica,sans-Serif" font-size="10.00">include/EventQueue.h</text>
</a>
</g>
</g>
<!-- Node1&#45;&gt;Node13 -->
<g id="edge13" class="edge"><title>Node1&#45;&gt;Node13</title>
<path fill="none" stroke="midnightblue" d="M558.639,-112.595C621.23,-102.506 725.612,-85.6805 788.557,-75.5341"/>
<polygon fill="midnightblue" stroke="midnightblue" points="557.904,-109.169 548.589,-114.216 559.018,-116.079 557.904,-109.169"/>
</g>
<!-- Node16 -->
<g id="node16" class="node"><title>Node16</title>
<g id="a_node16"><a xlink:href="_finish_simulation_8h.html" target="_top" xlink:title="include/FinishSimulation.h">
<polygon fill="white" stroke="black" points="916,-56.5 916,-75.5 1047,-75.5 1047,-56.5 916,-56.5"/>
<text text-anchor="middle" x="981.5" y="-63.5" font-family="Helvetica,sans-Serif" font-size="10.00">include/FinishSimulation.h</text>
</a>
</g>
</g>
<!-- Node1&#45;&gt;Node16 -->
<g id="edge18" class="edge"><title>Node1&#45;&gt;Node16</title>
<path fill="none" stroke="midnightblue" d="M558.995,-115.266C635.616,-106.861 782.564,-90.6073 907.5,-76 910.199,-75.6844 912.954,-75.36 915.736,-75.0304"/>
<polygon fill="midnightblue" stroke="midnightblue" points="558.219,-111.83 548.66,-116.399 558.982,-118.788 558.219,-111.83"/>
</g>
<!-- Node8&#45;&gt;Node7 -->
<g id="edge12" class="edge"><title>Node8&#45;&gt;Node7</title>
<path fill="none" stroke="midnightblue" d="M631.679,-54.2815C584.247,-44.0769 513.796,-28.9203 470.086,-19.5164"/>
<polygon fill="midnightblue" stroke="midnightblue" points="631.216,-57.7619 641.728,-56.4435 632.688,-50.9185 631.216,-57.7619"/>
</g>
<!-- Node9 -->
<g id="node9" class="node"><title>Node9</title>
<g id="a_node9"><a xlink:href="_building_8cpp.html" target="_top" xlink:title="src/Building.cpp">
<polygon fill="white" stroke="black" points="495.5,-0.5 495.5,-19.5 581.5,-19.5 581.5,-0.5 495.5,-0.5"/>
<text text-anchor="middle" x="538.5" y="-7.5" font-family="Helvetica,sans-Serif" font-size="10.00">src/Building.cpp</text>
</a>
</g>
</g>
<!-- Node8&#45;&gt;Node9 -->
<g id="edge8" class="edge"><title>Node8&#45;&gt;Node9</title>
<path fill="none" stroke="midnightblue" d="M649.473,-52.9058C622.588,-42.7536 584.859,-28.5063 561.053,-19.5164"/>
<polygon fill="midnightblue" stroke="midnightblue" points="648.25,-56.1851 658.841,-56.4435 650.722,-49.6364 648.25,-56.1851"/>
</g>
<!-- Node10 -->
<g id="node10" class="node"><title>Node10</title>
<g id="a_node10"><a xlink:href="_client_arrival_8cpp.html" target="_top" xlink:title="src/ClientArrival.cpp">
<polygon fill="white" stroke="black" points="600,-0.5 600,-19.5 705,-19.5 705,-0.5 600,-0.5"/>
<text text-anchor="middle" x="652.5" y="-7.5" font-family="Helvetica,sans-Serif" font-size="10.00">src/ClientArrival.cpp</text>
</a>
</g>
</g>
<!-- Node8&#45;&gt;Node10 -->
<g id="edge9" class="edge"><title>Node8&#45;&gt;Node10</title>
<path fill="none" stroke="midnightblue" d="M671.824,-46.9827C666.902,-37.8168 661.142,-27.0922 657.2,-19.7511"/>
<polygon fill="midnightblue" stroke="midnightblue" points="668.896,-48.929 676.711,-56.083 675.063,-45.6171 668.896,-48.929"/>
</g>
<!-- Node11 -->
<g id="node11" class="node"><title>Node11</title>
<g id="a_node11"><a xlink:href="_event_factory_8cpp.html" target="_top" xlink:title="src/EventFactory.cpp">
<polygon fill="white" stroke="black" points="723.5,-0.5 723.5,-19.5 833.5,-19.5 833.5,-0.5 723.5,-0.5"/>
<text text-anchor="middle" x="778.5" y="-7.5" font-family="Helvetica,sans-Serif" font-size="10.00">src/EventFactory.cpp</text>
</a>
</g>
</g>
<!-- Node8&#45;&gt;Node11 -->
<g id="edge10" class="edge"><title>Node8&#45;&gt;Node11</title>
<path fill="none" stroke="midnightblue" d="M705.835,-51.4526C723.743,-41.4835 747.554,-28.2279 762.954,-19.6545"/>
<polygon fill="midnightblue" stroke="midnightblue" points="704.12,-48.4018 697.085,-56.324 707.525,-54.5179 704.12,-48.4018"/>
</g>
<!-- Node12 -->
<g id="node12" class="node"><title>Node12</title>
<g id="a_node12"><a xlink:href="_simulator_8cpp.html" target="_top" xlink:title="src/Simulator.cpp">
<polygon fill="white" stroke="black" points="852,-0.5 852,-19.5 945,-19.5 945,-0.5 852,-0.5"/>
<text text-anchor="middle" x="898.5" y="-7.5" font-family="Helvetica,sans-Serif" font-size="10.00">src/Simulator.cpp</text>
</a>
</g>
</g>
<!-- Node8&#45;&gt;Node12 -->
<g id="edge11" class="edge"><title>Node8&#45;&gt;Node12</title>
<path fill="none" stroke="midnightblue" d="M725.608,-54.0237C766.6,-43.8232 826.804,-28.8414 864.277,-19.5164"/>
<polygon fill="midnightblue" stroke="midnightblue" points="724.743,-50.6322 715.884,-56.4435 726.434,-57.425 724.743,-50.6322"/>
</g>
<!-- Node13&#45;&gt;Node11 -->
<g id="edge14" class="edge"><title>Node13&#45;&gt;Node11</title>
<path fill="none" stroke="midnightblue" d="M823.46,-49.5372C812.227,-39.9087 798.181,-27.8694 788.806,-19.8339"/>
<polygon fill="midnightblue" stroke="midnightblue" points="821.508,-52.4734 831.378,-56.324 826.063,-47.1586 821.508,-52.4734"/>
</g>
<!-- Node13&#45;&gt;Node12 -->
<g id="edge17" class="edge"><title>Node13&#45;&gt;Node12</title>
<path fill="none" stroke="midnightblue" d="M858.121,-49.2533C868.234,-39.6731 880.777,-27.7906 889.175,-19.8339"/>
<polygon fill="midnightblue" stroke="midnightblue" points="855.51,-46.9056 850.658,-56.324 860.325,-51.9873 855.51,-46.9056"/>
</g>
<!-- Node14 -->
<g id="node14" class="node"><title>Node14</title>
<g id="a_node14"><a xlink:href="_event_queue_8cpp.html" target="_top" xlink:title="src/EventQueue.cpp">
<polygon fill="white" stroke="black" points="962.5,-0.5 962.5,-19.5 1068.5,-19.5 1068.5,-0.5 962.5,-0.5"/>
<text text-anchor="middle" x="1015.5" y="-7.5" font-family="Helvetica,sans-Serif" font-size="10.00">src/EventQueue.cpp</text>
</a>
</g>
</g>
<!-- Node13&#45;&gt;Node14 -->
<g id="edge15" class="edge"><title>Node13&#45;&gt;Node14</title>
<path fill="none" stroke="midnightblue" d="M878.761,-53.4363C911.567,-43.2551 958.583,-28.664 988.058,-19.5164"/>
<polygon fill="midnightblue" stroke="midnightblue" points="877.584,-50.1368 869.071,-56.4435 879.659,-56.8222 877.584,-50.1368"/>
</g>
<!-- Node15 -->
<g id="node15" class="node"><title>Node15</title>
<g id="a_node15"><a xlink:href="_floor_8cpp.html" target="_top" xlink:title="src/Floor.cpp">
<polygon fill="white" stroke="black" points="1086.5,-0.5 1086.5,-19.5 1160.5,-19.5 1160.5,-0.5 1086.5,-0.5"/>
<text text-anchor="middle" x="1123.5" y="-7.5" font-family="Helvetica,sans-Serif" font-size="10.00">src/Floor.cpp</text>
</a>
</g>
</g>
<!-- Node13&#45;&gt;Node15 -->
<g id="edge16" class="edge"><title>Node13&#45;&gt;Node15</title>
<path fill="none" stroke="midnightblue" d="M896.598,-54.5714C944.436,-45.4983 1015.56,-31.9643 1077.5,-20 1080.38,-19.4444 1083.35,-18.8671 1086.35,-18.2851"/>
<polygon fill="midnightblue" stroke="midnightblue" points="895.928,-51.136 886.755,-56.4376 897.232,-58.0134 895.928,-51.136"/>
</g>
<!-- Node16&#45;&gt;Node12 -->
<g id="edge20" class="edge"><title>Node16&#45;&gt;Node12</title>
<path fill="none" stroke="midnightblue" d="M959.401,-50.6221C944.238,-40.7574 924.617,-27.9919 911.802,-19.6545"/>
<polygon fill="midnightblue" stroke="midnightblue" points="957.874,-53.8042 968.165,-56.324 961.691,-47.9367 957.874,-53.8042"/>
</g>
<!-- Node17 -->
<g id="node17" class="node"><title>Node17</title>
<g id="a_node17"><a xlink:href="_finish_simulation_8cpp.html" target="_top" xlink:title="src/FinishSimulation.cpp">
<polygon fill="white" stroke="black" points="1178.5,-0.5 1178.5,-19.5 1302.5,-19.5 1302.5,-0.5 1178.5,-0.5"/>
<text text-anchor="middle" x="1240.5" y="-7.5" font-family="Helvetica,sans-Serif" font-size="10.00">src/FinishSimulation.cpp</text>
</a>
</g>
</g>
<!-- Node16&#45;&gt;Node17 -->
<g id="edge19" class="edge"><title>Node16&#45;&gt;Node17</title>
<path fill="none" stroke="midnightblue" d="M1032.6,-54.3456C1081.55,-44.1405 1154.45,-28.94 1199.65,-19.5164"/>
<polygon fill="midnightblue" stroke="midnightblue" points="1031.61,-50.9761 1022.54,-56.4435 1033.04,-57.8287 1031.61,-50.9761"/>
</g>
</g>
</svg>
        <g id="navigator" transform="translate(0 0)" fill="#404254">
                <rect fill="#f2f5e9" fill-opacity="0.5" stroke="#606060" stroke-width=".5" x="0" y="0" width="60" height="60"/>
                <use id="zoomplus" xlink:href="#zoomPlus" x="17" y="9" onmousedown="handleZoom(evt,'in')"/>
                <use id="zoomminus" xlink:href="#zoomMin" x="42" y="9" onmousedown="handleZoom(evt,'out')"/>
                <use id="reset" xlink:href="#resetDef" x="30" y="36" onmousedown="handleReset()"/>
                <g id="arrowUp" xlink:href="#dirArrow" transform="translate(30 24)" onmousedown="handlePan(0,-1)">
                  <use xlink:href="#rim" fill="#404040">
                        <set attributeName="fill" to="#808080" begin="arrowUp.mouseover" end="arrowUp.mouseout"/>
                  </use>
                  <path fill="none" stroke="white" stroke-width="1.5" d="M0,-3.0v7 M-2.5,-0.5L0,-3.0L2.5,-0.5"/>
                </g>
                <g id="arrowRight" xlink:href="#dirArrow" transform="rotate(90) translate(36 -43)" onmousedown="handlePan(1,0)">
                  <use xlink:href="#rim" fill="#404040">
                        <set attributeName="fill" to="#808080" begin="arrowRight.mouseover" end="arrowRight.mouseout"/>
                  </use>
                  <path fill="none" stroke="white" stroke-width="1.5" d="M0,-3.0v7 M-2.5,-0.5L0,-3.0L2.5,-0.5"/>
                </g>
                <g id="arrowDown" xlink:href="#dirArrow" transform="rotate(180) translate(-30 -48)" onmousedown="handlePan(0,1)">
                  <use xlink:href="#rim" fill="#404040">
                        <set attributeName="fill" to="#808080" begin="arrowDown.mouseover" end="arrowDown.mouseout"/>
                  </use>
                  <path fill="none" stroke="white" stroke-width="1.5" d="M0,-3.0v7 M-2.5,-0.5L0,-3.0L2.5,-0.5"/>
                </g>
                <g id="arrowLeft" xlink:href="#dirArrow" transform="rotate(270) translate(-36 17)" onmousedown="handlePan(-1,0)">
                  <use xlink:href="#rim" fill="#404040">
                        <set attributeName="fill" to="#808080" begin="arrowLeft.mouseover" end="arrowLeft.mouseout"/>
                  </use>
                  <path fill="none" stroke="white" stroke-width="1.5" d="M0,-3.0v7 M-2.5,-0.5L0,-3.0L2.5,-0.5"/>
                </g>
        </g>
        <svg viewBox="0 0 15 15" width="100%" height="30px" preserveAspectRatio="xMaxYMin meet">
         <g id="arrow_out" transform="scale(0.3 0.3)">
          <a xlink:href="_event_8h__dep__incl_org.svg" target="_base">
           <rect id="button" ry="5" rx="5" y="6" x="6" height="38" width="38"
                fill="#f2f5e9" fill-opacity="0.5" stroke="#606060" stroke-width="1.0"/>
           <path id="arrow"
             d="M 11.500037,31.436501 C 11.940474,20.09759 22.043105,11.32322 32.158766,21.979434 L 37.068811,17.246167 C 37.068811,17.246167 37.088388,32 37.088388,32 L 22.160133,31.978069 C 22.160133,31.978069 26.997745,27.140456 26.997745,27.140456 C 18.528582,18.264221 13.291696,25.230495 11.500037,31.436501 z"
             style="fill:#404040;"/>
          </a>
         </g>
        </svg>
</svg>
