<?xml version="1.0" encoding="UTF-8" standalone="no"?>
<!DOCTYPE svg PUBLIC "-//W3C//DTD SVG 1.1//EN"
 "http://www.w3.org/Graphics/SVG/1.1/DTD/svg11.dtd">
<!-- Generated by graphviz version 2.38.0 (20140413.2041)
 -->
<!-- Title: src/EventDispatcher.cpp Pages: 1 -->
<svg width="479pt" height="196pt"
 viewBox="0.00 0.00 478.50 196.00" xmlns="http://www.w3.org/2000/svg" xmlns:xlink="http://www.w3.org/1999/xlink">
<g id="graph0" class="graph" transform="scale(1 1) rotate(0) translate(4 192)">
<title>src/EventDispatcher.cpp</title>
<polygon fill="white" stroke="none" points="-4,4 -4,-192 474.5,-192 474.5,4 -4,4"/>
<!-- Node1 -->
<g id="node1" class="node"><title>Node1</title>
<polygon fill="#bfbfbf" stroke="black" points="196,-168.5 196,-187.5 333,-187.5 333,-168.5 196,-168.5"/>
<text text-anchor="middle" x="264.5" y="-175.5" font-family="Ubuntu Mono" font-size="10.00">src/EventDispatcher.cpp</text>
</g>
<!-- Node2 -->
<g id="node2" class="node"><title>Node2</title>
<g id="a_node2"><a xlink:href="_event_dispatcher_8h.html" target="_top" xlink:title="EventDispatcher.h">
<polygon fill="white" stroke="black" points="140.5,-112.5 140.5,-131.5 246.5,-131.5 246.5,-112.5 140.5,-112.5"/>
<text text-anchor="middle" x="193.5" y="-119.5" font-family="Ubuntu Mono" font-size="10.00">EventDispatcher.h</text>
</a>
</g>
</g>
<!-- Node1&#45;&gt;Node2 -->
<g id="edge1" class="edge"><title>Node1&#45;&gt;Node2</title>
<path fill="none" stroke="midnightblue" d="M253.093,-168.324C242.391,-160.185 226.159,-147.839 213.337,-138.087"/>
<polygon fill="midnightblue" stroke="midnightblue" points="215.193,-135.102 205.115,-131.834 210.956,-140.673 215.193,-135.102"/>
</g>
<!-- Node6 -->
<g id="node6" class="node"><title>Node6</title>
<g id="a_node6"><a xlink:href="_event_8h.html" target="_top" xlink:title="Event.h">
<polygon fill="white" stroke="black" points="309,-112.5 309,-131.5 362,-131.5 362,-112.5 309,-112.5"/>
<text text-anchor="middle" x="335.5" y="-119.5" font-family="Ubuntu Mono" font-size="10.00">Event.h</text>
</a>
</g>
</g>
<!-- Node1&#45;&gt;Node6 -->
<g id="edge6" class="edge"><title>Node1&#45;&gt;Node6</title>
<path fill="none" stroke="midnightblue" d="M275.907,-168.324C286.609,-160.185 302.841,-147.839 315.663,-138.087"/>
<polygon fill="midnightblue" stroke="midnightblue" points="318.044,-140.673 323.885,-131.834 313.807,-135.102 318.044,-140.673"/>
</g>
<!-- Node10 -->
<g id="node10" class="node"><title>Node10</title>
<g id="a_node10"><a xlink:href="_event_observer_8h.html" target="_top" xlink:title="EventObserver.h">
<polygon fill="white" stroke="black" points="0,-56.5 0,-75.5 95,-75.5 95,-56.5 0,-56.5"/>
<text text-anchor="middle" x="47.5" y="-63.5" font-family="Ubuntu Mono" font-size="10.00">EventObserver.h</text>
</a>
</g>
</g>
<!-- Node1&#45;&gt;Node10 -->
<g id="edge11" class="edge"><title>Node1&#45;&gt;Node10</title>
<path fill="none" stroke="midnightblue" d="M229.022,-168.457C201.444,-161.011 162.754,-148.767 131.5,-132 106.04,-118.341 80.2782,-97.0521 64.1218,-82.5901"/>
<polygon fill="midnightblue" stroke="midnightblue" points="66.3468,-79.8823 56.6011,-75.7263 61.628,-85.0527 66.3468,-79.8823"/>
</g>
<!-- Node11 -->
<g id="node11" class="node"><title>Node11</title>
<polygon fill="white" stroke="#bfbfbf" points="380.5,-112.5 380.5,-131.5 470.5,-131.5 470.5,-112.5 380.5,-112.5"/>
<text text-anchor="middle" x="425.5" y="-119.5" font-family="Ubuntu Mono" font-size="10.00">glog/logging.h</text>
</g>
<!-- Node1&#45;&gt;Node11 -->
<g id="edge13" class="edge"><title>Node1&#45;&gt;Node11</title>
<path fill="none" stroke="midnightblue" d="M290.011,-168.444C317.096,-159.359 360.09,-144.939 390.369,-134.783"/>
<polygon fill="midnightblue" stroke="midnightblue" points="391.74,-138.015 400.108,-131.516 389.514,-131.378 391.74,-138.015"/>
</g>
<!-- Node3 -->
<g id="node3" class="node"><title>Node3</title>
<g id="a_node3"><a xlink:href="_event_notifier_8h.html" target="_top" xlink:title="EventNotifier.h">
<polygon fill="white" stroke="black" points="208,-56.5 208,-75.5 303,-75.5 303,-56.5 208,-56.5"/>
<text text-anchor="middle" x="255.5" y="-63.5" font-family="Ubuntu Mono" font-size="10.00">EventNotifier.h</text>
</a>
</g>
</g>
<!-- Node2&#45;&gt;Node3 -->
<g id="edge2" class="edge"><title>Node2&#45;&gt;Node3</title>
<path fill="none" stroke="midnightblue" d="M203.461,-112.324C212.627,-104.341 226.437,-92.3128 237.528,-82.6529"/>
<polygon fill="midnightblue" stroke="midnightblue" points="240.115,-85.041 245.357,-75.8339 235.518,-79.7624 240.115,-85.041"/>
</g>
<!-- Node4 -->
<g id="node4" class="node"><title>Node4</title>
<polygon fill="white" stroke="#bfbfbf" points="99.5,-0.5 99.5,-19.5 147.5,-19.5 147.5,-0.5 99.5,-0.5"/>
<text text-anchor="middle" x="123.5" y="-7.5" font-family="Ubuntu Mono" font-size="10.00">memory</text>
</g>
<!-- Node2&#45;&gt;Node4 -->
<g id="edge5" class="edge"><title>Node2&#45;&gt;Node4</title>
<path fill="none" stroke="midnightblue" d="M179.854,-112.254C168.301,-104.172 152.126,-91.1484 142.5,-76 133.534,-61.891 128.666,-43.4029 126.111,-29.7527"/>
<polygon fill="midnightblue" stroke="midnightblue" points="129.524,-28.9373 124.468,-19.6267 122.614,-30.0581 129.524,-28.9373"/>
</g>
<!-- Node5 -->
<g id="node5" class="node"><title>Node5</title>
<polygon fill="white" stroke="#bfbfbf" points="151.5,-56.5 151.5,-75.5 189.5,-75.5 189.5,-56.5 151.5,-56.5"/>
<text text-anchor="middle" x="170.5" y="-63.5" font-family="Ubuntu Mono" font-size="10.00">list</text>
</g>
<!-- Node2&#45;&gt;Node5 -->
<g id="edge4" class="edge"><title>Node2&#45;&gt;Node5</title>
<path fill="none" stroke="midnightblue" d="M189.702,-112.083C186.587,-104.77 182.077,-94.1814 178.211,-85.1034"/>
<polygon fill="midnightblue" stroke="midnightblue" points="181.366,-83.5798 174.227,-75.7511 174.926,-86.3229 181.366,-83.5798"/>
</g>
<!-- Node3&#45;&gt;Node4 -->
<g id="edge3" class="edge"><title>Node3&#45;&gt;Node4</title>
<path fill="none" stroke="midnightblue" d="M234.584,-56.4435C212.764,-47.5171 178.35,-33.4387 153.608,-23.3168"/>
<polygon fill="midnightblue" stroke="midnightblue" points="154.899,-20.0634 144.318,-19.5164 152.248,-26.5422 154.899,-20.0634"/>
</g>
<!-- Node7 -->
<g id="node7" class="node"><title>Node7</title>
<g id="a_node7"><a xlink:href="_event_type_8h.html" target="_top" xlink:title="EventType.h">
<polygon fill="white" stroke="black" points="321.5,-56.5 321.5,-75.5 395.5,-75.5 395.5,-56.5 321.5,-56.5"/>
<text text-anchor="middle" x="358.5" y="-63.5" font-family="Ubuntu Mono" font-size="10.00">EventType.h</text>
</a>
</g>
</g>
<!-- Node6&#45;&gt;Node7 -->
<g id="edge7" class="edge"><title>Node6&#45;&gt;Node7</title>
<path fill="none" stroke="midnightblue" d="M339.298,-112.083C342.413,-104.77 346.923,-94.1814 350.789,-85.1034"/>
<polygon fill="midnightblue" stroke="midnightblue" points="354.074,-86.3229 354.773,-75.7511 347.634,-83.5798 354.074,-86.3229"/>
</g>
<!-- Node9 -->
<g id="node9" class="node"><title>Node9</title>
<polygon fill="white" stroke="#bfbfbf" points="399.5,-0.5 399.5,-19.5 447.5,-19.5 447.5,-0.5 399.5,-0.5"/>
<text text-anchor="middle" x="423.5" y="-7.5" font-family="Ubuntu Mono" font-size="10.00">string</text>
</g>
<!-- Node6&#45;&gt;Node9 -->
<g id="edge10" class="edge"><title>Node6&#45;&gt;Node9</title>
<path fill="none" stroke="midnightblue" d="M356.195,-112.347C371.644,-104.876 392.138,-92.6501 404.5,-76 414.465,-62.5779 419.222,-44.0136 421.482,-30.16"/>
<polygon fill="midnightblue" stroke="midnightblue" points="425.004,-30.2211 422.852,-19.8471 418.065,-29.2988 425.004,-30.2211"/>
</g>
<!-- Node8 -->
<g id="node8" class="node"><title>Node8</title>
<polygon fill="white" stroke="#bfbfbf" points="317.5,-0.5 317.5,-19.5 381.5,-19.5 381.5,-0.5 317.5,-0.5"/>
<text text-anchor="middle" x="349.5" y="-7.5" font-family="Ubuntu Mono" font-size="10.00">stdexcept</text>
</g>
<!-- Node7&#45;&gt;Node8 -->
<g id="edge8" class="edge"><title>Node7&#45;&gt;Node8</title>
<path fill="none" stroke="midnightblue" d="M357.014,-56.083C355.821,-48.9272 354.106,-38.6353 352.615,-29.6911"/>
<polygon fill="midnightblue" stroke="midnightblue" points="356.055,-29.0396 350.959,-19.7511 349.15,-30.1904 356.055,-29.0396"/>
</g>
<!-- Node7&#45;&gt;Node9 -->
<g id="edge9" class="edge"><title>Node7&#45;&gt;Node9</title>
<path fill="none" stroke="midnightblue" d="M368.943,-56.324C378.646,-48.2631 393.315,-36.0765 405,-26.3695"/>
<polygon fill="midnightblue" stroke="midnightblue" points="407.411,-28.9163 412.867,-19.8339 402.938,-23.532 407.411,-28.9163"/>
</g>
<!-- Node10&#45;&gt;Node4 -->
<g id="edge12" class="edge"><title>Node10&#45;&gt;Node4</title>
<path fill="none" stroke="midnightblue" d="M59.7107,-56.324C71.2759,-48.1066 88.8754,-35.6017 102.661,-25.8069"/>
<polygon fill="midnightblue" stroke="midnightblue" points="104.943,-28.4791 111.067,-19.8339 100.888,-22.7729 104.943,-28.4791"/>
</g>
</g>
</svg>
