<?xml version="1.0" encoding="UTF-8" standalone="no"?>
<!DOCTYPE svg PUBLIC "-//W3C//DTD SVG 1.1//EN"
 "http://www.w3.org/Graphics/SVG/1.1/DTD/svg11.dtd">
<!-- Generated by graphviz version 2.38.0 (20140413.2041)
 -->
<!-- Title: include/EventFactory.h Pages: 1 -->
<svg width="282pt" height="84pt"
 viewBox="0.00 0.00 282.00 84.00" xmlns="http://www.w3.org/2000/svg" xmlns:xlink="http://www.w3.org/1999/xlink">
<g id="graph0" class="graph" transform="scale(1 1) rotate(0) translate(4 80)">
<title>include/EventFactory.h</title>
<polygon fill="white" stroke="none" points="-4,4 -4,-80 278,-80 278,4 -4,4"/>
<!-- Node1 -->
<g id="node1" class="node"><title>Node1</title>
<polygon fill="#bfbfbf" stroke="black" points="97,-56.5 97,-75.5 214,-75.5 214,-56.5 97,-56.5"/>
<text text-anchor="middle" x="155.5" y="-63.5" font-family="Helvetica,sans-Serif" font-size="10.00">include/EventFactory.h</text>
</g>
<!-- Node2 -->
<g id="node2" class="node"><title>Node2</title>
<polygon fill="white" stroke="#bfbfbf" points="0,-0.5 0,-19.5 77,-19.5 77,-0.5 0,-0.5"/>
<text text-anchor="middle" x="38.5" y="-7.5" font-family="Helvetica,sans-Serif" font-size="10.00">glog/logging.h</text>
</g>
<!-- Node1&#45;&gt;Node2 -->
<g id="edge1" class="edge"><title>Node1&#45;&gt;Node2</title>
<path fill="none" stroke="midnightblue" d="M136.961,-56.4435C117.877,-47.6356 87.9251,-33.8116 66.0643,-23.722"/>
<polygon fill="midnightblue" stroke="midnightblue" points="67.4986,-20.5292 56.9523,-19.5164 64.5651,-26.8849 67.4986,-20.5292"/>
</g>
<!-- Node3 -->
<g id="node3" class="node"><title>Node3</title>
<polygon fill="white" stroke="#bfbfbf" points="95.5,-0.5 95.5,-19.5 147.5,-19.5 147.5,-0.5 95.5,-0.5"/>
<text text-anchor="middle" x="121.5" y="-7.5" font-family="Helvetica,sans-Serif" font-size="10.00">memory</text>
</g>
<!-- Node1&#45;&gt;Node3 -->
<g id="edge2" class="edge"><title>Node1&#45;&gt;Node3</title>
<path fill="none" stroke="midnightblue" d="M149.886,-56.083C145.133,-48.5341 138.182,-37.4948 132.348,-28.2298"/>
<polygon fill="midnightblue" stroke="midnightblue" points="135.3,-26.3486 127.01,-19.7511 129.376,-30.0783 135.3,-26.3486"/>
</g>
<!-- Node4 -->
<g id="node4" class="node"><title>Node4</title>
<polygon fill="white" stroke="#bfbfbf" points="166,-0.5 166,-19.5 215,-19.5 215,-0.5 166,-0.5"/>
<text text-anchor="middle" x="190.5" y="-7.5" font-family="Helvetica,sans-Serif" font-size="10.00">random</text>
</g>
<!-- Node1&#45;&gt;Node4 -->
<g id="edge3" class="edge"><title>Node1&#45;&gt;Node4</title>
<path fill="none" stroke="midnightblue" d="M161.28,-56.083C166.172,-48.5341 173.327,-37.4948 179.333,-28.2298"/>
<polygon fill="midnightblue" stroke="midnightblue" points="182.326,-30.0463 184.828,-19.7511 176.452,-26.239 182.326,-30.0463"/>
</g>
<!-- Node5 -->
<g id="node5" class="node"><title>Node5</title>
<polygon fill="white" stroke="#bfbfbf" points="233,-0.5 233,-19.5 274,-19.5 274,-0.5 233,-0.5"/>
<text text-anchor="middle" x="253.5" y="-7.5" font-family="Helvetica,sans-Serif" font-size="10.00">string</text>
</g>
<!-- Node1&#45;&gt;Node5 -->
<g id="edge4" class="edge"><title>Node1&#45;&gt;Node5</title>
<path fill="none" stroke="midnightblue" d="M171.245,-56.324C186.819,-47.7428 210.877,-34.486 228.959,-24.5224"/>
<polygon fill="midnightblue" stroke="midnightblue" points="230.724,-27.546 237.794,-19.6545 227.346,-21.4152 230.724,-27.546"/>
</g>
</g>
</svg>
