<?xml version="1.0" encoding="UTF-8" standalone="no"?>
<!DOCTYPE svg PUBLIC "-//W3C//DTD SVG 1.1//EN"
 "http://www.w3.org/Graphics/SVG/1.1/DTD/svg11.dtd">
<!-- Generated by graphviz version 2.38.0 (20140413.2041)
 -->
<!-- Title: include/EventType.h Pages: 1 -->
<!--zoomable 196 -->
<svg id="main" version="1.1" xmlns="http://www.w3.org/2000/svg" xmlns:xlink="http://www.w3.org/1999/xlink" xml:space="preserve" onload="init(evt)">
<style type="text/css"><![CDATA[
.edge:hover path { stroke: red; }
.edge:hover polygon { stroke: red; fill: red; }
]]></style>
<script type="text/javascript"><![CDATA[
var edges = document.getElementsByTagName('g');
if (edges && edges.length) {
  for (var i=0;i<edges.length;i++) {
    if (edges[i].id.substr(0,4)=='edge') {
      edges[i].setAttribute('class','edge');
    }
  }
}
]]></script>
        <defs>
                <circle id="rim" cx="0" cy="0" r="7"/>
                <circle id="rim2" cx="0" cy="0" r="3.5"/>
                <g id="zoomPlus">
                        <use xlink:href="#rim" fill="#404040">
                                <set attributeName="fill" to="#808080" begin="zoomplus.mouseover" end="zoomplus.mouseout"/>
                        </use>
                        <path d="M-4,0h8M0,-4v8" fill="none" stroke="white" stroke-width="1.5" pointer-events="none"/>
                </g>
                <g id="zoomMin">
                        <use xlink:href="#rim" fill="#404040">
                                <set attributeName="fill" to="#808080" begin="zoomminus.mouseover" end="zoomminus.mouseout"/>
                        </use>
                        <path d="M-4,0h8" fill="none" stroke="white" stroke-width="1.5" pointer-events="none"/>
                </g>
                <g id="dirArrow">
                        <path fill="none" stroke="white" stroke-width="1.5" d="M0,-3.0v7 M-2.5,-0.5L0,-3.0L2.5,-0.5"/>
                </g>
               <g id="resetDef">
                       <use xlink:href="#rim2" fill="#404040">
                               <set attributeName="fill" to="#808080" begin="reset.mouseover" end="reset.mouseout"/>
                       </use>
               </g>
        </defs>

<script type="text/javascript">
var viewWidth = 1218;
var viewHeight = 196;
var sectionId = 'dynsection-1';
</script>
<script xlink:href="svgpan.js"/>
<svg id="graph" class="graph">
<g id="viewport">
<title>include/EventType.h</title>
<polygon fill="white" stroke="none" points="-4,4 -4,-192 1213.63,-192 1213.63,4 -4,4"/>
<!-- Node1 -->
<g id="node1" class="node"><title>Node1</title>
<polygon fill="#bfbfbf" stroke="black" points="561.5,-168.5 561.5,-187.5 667.5,-187.5 667.5,-168.5 561.5,-168.5"/>
<text text-anchor="middle" x="614.5" y="-175.5" font-family="Helvetica,sans-Serif" font-size="10.00">include/EventType.h</text>
</g>
<!-- Node2 -->
<g id="node2" class="node"><title>Node2</title>
<g id="a_node2"><a xlink:href="_client_arrival_8cpp.html" target="_top" xlink:title="src/ClientArrival.cpp">
<polygon fill="white" stroke="black" points="0,-0.5 0,-19.5 105,-19.5 105,-0.5 0,-0.5"/>
<text text-anchor="middle" x="52.5" y="-7.5" font-family="Helvetica,sans-Serif" font-size="10.00">src/ClientArrival.cpp</text>
</a>
</g>
</g>
<!-- Node1&#45;&gt;Node2 -->
<g id="edge1" class="edge"><title>Node1&#45;&gt;Node2</title>
<path fill="none" stroke="midnightblue" d="M551.259,-166.894C466.072,-152.225 310.493,-121.693 183.5,-76 139.305,-60.098 90.5729,-33.2343 66.9416,-19.5565"/>
<polygon fill="midnightblue" stroke="midnightblue" points="550.846,-170.374 561.292,-168.604 552.023,-163.473 550.846,-170.374"/>
</g>
<!-- Node3 -->
<g id="node3" class="node"><title>Node3</title>
<g id="a_node3"><a xlink:href="_finish_simulation_8cpp.html" target="_top" xlink:title="src/FinishSimulation.cpp">
<polygon fill="white" stroke="black" points="976.5,-0.5 976.5,-19.5 1100.5,-19.5 1100.5,-0.5 976.5,-0.5"/>
<text text-anchor="middle" x="1038.5" y="-7.5" font-family="Helvetica,sans-Serif" font-size="10.00">src/FinishSimulation.cpp</text>
</a>
</g>
</g>
<!-- Node1&#45;&gt;Node3 -->
<g id="edge2" class="edge"><title>Node1&#45;&gt;Node3</title>
<path fill="none" stroke="midnightblue" d="M678.343,-175.928C816.29,-172.122 1135.1,-154.803 1201.5,-76 1233.4,-38.1416 1159.13,-22.1554 1100.61,-15.5281"/>
<polygon fill="midnightblue" stroke="midnightblue" points="677.843,-172.44 667.938,-176.199 678.026,-179.437 677.843,-172.44"/>
</g>
<!-- Node4 -->
<g id="node4" class="node"><title>Node4</title>
<g id="a_node4"><a xlink:href="_event_8h.html" target="_top" xlink:title="include/Event.h">
<polygon fill="white" stroke="black" points="572.5,-112.5 572.5,-131.5 656.5,-131.5 656.5,-112.5 572.5,-112.5"/>
<text text-anchor="middle" x="614.5" y="-119.5" font-family="Helvetica,sans-Serif" font-size="10.00">include/Event.h</text>
</a>
</g>
</g>
<!-- Node1&#45;&gt;Node4 -->
<g id="edge3" class="edge"><title>Node1&#45;&gt;Node4</title>
<path fill="none" stroke="midnightblue" d="M614.5,-157.805C614.5,-148.91 614.5,-138.78 614.5,-131.751"/>
<polygon fill="midnightblue" stroke="midnightblue" points="611,-158.083 614.5,-168.083 618,-158.083 611,-158.083"/>
</g>
<!-- Node5 -->
<g id="node5" class="node"><title>Node5</title>
<g id="a_node5"><a xlink:href="_clock_8cpp.html" target="_top" xlink:title="src/Clock.cpp">
<polygon fill="white" stroke="black" points="475,-56.5 475,-75.5 552,-75.5 552,-56.5 475,-56.5"/>
<text text-anchor="middle" x="513.5" y="-63.5" font-family="Helvetica,sans-Serif" font-size="10.00">src/Clock.cpp</text>
</a>
</g>
</g>
<!-- Node4&#45;&gt;Node5 -->
<g id="edge4" class="edge"><title>Node4&#45;&gt;Node5</title>
<path fill="none" stroke="midnightblue" d="M589.417,-107.59C570.743,-97.6052 545.796,-84.2672 529.687,-75.6545"/>
<polygon fill="midnightblue" stroke="midnightblue" points="587.804,-110.696 598.273,-112.324 591.104,-104.522 587.804,-110.696"/>
</g>
<!-- Node6 -->
<g id="node6" class="node"><title>Node6</title>
<g id="a_node6"><a xlink:href="_elevator_8cpp.html" target="_top" xlink:title="src/Elevator.cpp">
<polygon fill="white" stroke="black" points="570.5,-56.5 570.5,-75.5 658.5,-75.5 658.5,-56.5 570.5,-56.5"/>
<text text-anchor="middle" x="614.5" y="-63.5" font-family="Helvetica,sans-Serif" font-size="10.00">src/Elevator.cpp</text>
</a>
</g>
</g>
<!-- Node4&#45;&gt;Node6 -->
<g id="edge5" class="edge"><title>Node4&#45;&gt;Node6</title>
<path fill="none" stroke="midnightblue" d="M614.5,-101.805C614.5,-92.9102 614.5,-82.7798 614.5,-75.7511"/>
<polygon fill="midnightblue" stroke="midnightblue" points="611,-102.083 614.5,-112.083 618,-102.083 611,-102.083"/>
</g>
<!-- Node7 -->
<g id="node7" class="node"><title>Node7</title>
<g id="a_node7"><a xlink:href="_event_8cpp.html" target="_top" xlink:title="src/Event.cpp">
<polygon fill="white" stroke="black" points="826,-56.5 826,-75.5 903,-75.5 903,-56.5 826,-56.5"/>
<text text-anchor="middle" x="864.5" y="-63.5" font-family="Helvetica,sans-Serif" font-size="10.00">src/Event.cpp</text>
</a>
</g>
</g>
<!-- Node4&#45;&gt;Node7 -->
<g id="edge6" class="edge"><title>Node4&#45;&gt;Node7</title>
<path fill="none" stroke="midnightblue" d="M664.184,-110.268C711.725,-99.9994 782.441,-84.7247 825.894,-75.339"/>
<polygon fill="midnightblue" stroke="midnightblue" points="663.149,-106.911 654.113,-112.444 664.627,-113.753 663.149,-106.911"/>
</g>
<!-- Node8 -->
<g id="node8" class="node"><title>Node8</title>
<g id="a_node8"><a xlink:href="_event_comparator_8cpp.html" target="_top" xlink:title="src/EventComparator.cpp">
<polygon fill="white" stroke="black" points="921.5,-56.5 921.5,-75.5 1049.5,-75.5 1049.5,-56.5 921.5,-56.5"/>
<text text-anchor="middle" x="985.5" y="-63.5" font-family="Helvetica,sans-Serif" font-size="10.00">src/EventComparator.cpp</text>
</a>
</g>
</g>
<!-- Node4&#45;&gt;Node8 -->
<g id="edge7" class="edge"><title>Node4&#45;&gt;Node8</title>
<path fill="none" stroke="midnightblue" d="M666.839,-113.382C735.419,-103.4 855.346,-85.9442 926.897,-75.5298"/>
<polygon fill="midnightblue" stroke="midnightblue" points="666.089,-109.954 656.697,-114.858 667.097,-116.881 666.089,-109.954"/>
</g>
<!-- Node9 -->
<g id="node9" class="node"><title>Node9</title>
<g id="a_node9"><a xlink:href="_event_dispatcher_8cpp.html" target="_top" xlink:title="src/EventDispatcher.cpp">
<polygon fill="white" stroke="black" points="1068,-56.5 1068,-75.5 1193,-75.5 1193,-56.5 1068,-56.5"/>
<text text-anchor="middle" x="1130.5" y="-63.5" font-family="Helvetica,sans-Serif" font-size="10.00">src/EventDispatcher.cpp</text>
</a>
</g>
</g>
<!-- Node4&#45;&gt;Node9 -->
<g id="edge8" class="edge"><title>Node4&#45;&gt;Node9</title>
<path fill="none" stroke="midnightblue" d="M666.972,-116.082C750.092,-108.201 917.117,-91.9989 1058.5,-76 1061.5,-75.66 1064.58,-75.3047 1067.68,-74.9399"/>
<polygon fill="midnightblue" stroke="midnightblue" points="666.402,-112.62 656.776,-117.047 667.062,-119.589 666.402,-112.62"/>
</g>
<!-- Node10 -->
<g id="node10" class="node"><title>Node10</title>
<g id="a_node10"><a xlink:href="_statistics_8cpp.html" target="_top" xlink:title="src/Statistics.cpp">
<polygon fill="white" stroke="black" points="123,-0.5 123,-19.5 216,-19.5 216,-0.5 123,-0.5"/>
<text text-anchor="middle" x="169.5" y="-7.5" font-family="Helvetica,sans-Serif" font-size="10.00">src/Statistics.cpp</text>
</a>
</g>
</g>
<!-- Node4&#45;&gt;Node10 -->
<g id="edge9" class="edge"><title>Node4&#45;&gt;Node10</title>
<path fill="none" stroke="midnightblue" d="M562.23,-121.18C465.161,-120.569 261.72,-114.568 204.5,-76 184.732,-62.6758 175.213,-34.4003 171.486,-19.9333"/>
<polygon fill="midnightblue" stroke="midnightblue" points="562.388,-124.681 572.404,-121.227 562.421,-117.681 562.388,-124.681"/>
</g>
<!-- Node11 -->
<g id="node11" class="node"><title>Node11</title>
<g id="a_node11"><a xlink:href="_client_arrival_8h.html" target="_top" xlink:title="include/ClientArrival.h">
<polygon fill="white" stroke="black" points="213.5,-56.5 213.5,-75.5 325.5,-75.5 325.5,-56.5 213.5,-56.5"/>
<text text-anchor="middle" x="269.5" y="-63.5" font-family="Helvetica,sans-Serif" font-size="10.00">include/ClientArrival.h</text>
</a>
</g>
</g>
<!-- Node4&#45;&gt;Node11 -->
<g id="edge10" class="edge"><title>Node4&#45;&gt;Node11</title>
<path fill="none" stroke="midnightblue" d="M562.277,-112.826C498.017,-102.768 389.424,-85.7706 324.095,-75.5453"/>
<polygon fill="midnightblue" stroke="midnightblue" points="561.775,-116.29 572.196,-114.379 562.858,-109.374 561.775,-116.29"/>
</g>
<!-- Node15 -->
<g id="node15" class="node"><title>Node15</title>
<g id="a_node15"><a xlink:href="_event_queue_8h.html" target="_top" xlink:title="include/EventQueue.h">
<polygon fill="white" stroke="black" points="344,-56.5 344,-75.5 457,-75.5 457,-56.5 344,-56.5"/>
<text text-anchor="middle" x="400.5" y="-63.5" font-family="Helvetica,sans-Serif" font-size="10.00">include/EventQueue.h</text>
</a>
</g>
</g>
<!-- Node4&#45;&gt;Node15 -->
<g id="edge16" class="edge"><title>Node4&#45;&gt;Node15</title>
<path fill="none" stroke="midnightblue" d="M570.745,-109.959C530.326,-99.7598 471.127,-84.8217 434.25,-75.5164"/>
<polygon fill="midnightblue" stroke="midnightblue" points="570.039,-113.39 580.591,-112.444 571.751,-106.603 570.039,-113.39"/>
</g>
<!-- Node18 -->
<g id="node18" class="node"><title>Node18</title>
<g id="a_node18"><a xlink:href="_finish_simulation_8h.html" target="_top" xlink:title="include/FinishSimulation.h">
<polygon fill="white" stroke="black" points="677,-56.5 677,-75.5 808,-75.5 808,-56.5 677,-56.5"/>
<text text-anchor="middle" x="742.5" y="-63.5" font-family="Helvetica,sans-Serif" font-size="10.00">include/FinishSimulation.h</text>
</a>
</g>
</g>
<!-- Node4&#45;&gt;Node18 -->
<g id="edge21" class="edge"><title>Node4&#45;&gt;Node18</title>
<path fill="none" stroke="midnightblue" d="M644.123,-108.503C668.119,-98.3795 701.284,-84.388 722.313,-75.5164"/>
<polygon fill="midnightblue" stroke="midnightblue" points="642.635,-105.332 634.782,-112.444 645.356,-111.781 642.635,-105.332"/>
</g>
<!-- Node11&#45;&gt;Node2 -->
<g id="edge12" class="edge"><title>Node11&#45;&gt;Node2</title>
<path fill="none" stroke="midnightblue" d="M225.392,-54.0237C184.4,-43.8232 124.196,-28.8414 86.7234,-19.5164"/>
<polygon fill="midnightblue" stroke="midnightblue" points="224.566,-57.425 235.116,-56.4435 226.257,-50.6322 224.566,-57.425"/>
</g>
<!-- Node11&#45;&gt;Node10 -->
<g id="edge15" class="edge"><title>Node11&#45;&gt;Node10</title>
<path fill="none" stroke="midnightblue" d="M244.412,-51.4526C225.951,-41.4835 201.403,-28.2279 185.527,-19.6545"/>
<polygon fill="midnightblue" stroke="midnightblue" points="242.971,-54.6521 253.433,-56.324 246.297,-48.4928 242.971,-54.6521"/>
</g>
<!-- Node12 -->
<g id="node12" class="node"><title>Node12</title>
<g id="a_node12"><a xlink:href="_building_8cpp.html" target="_top" xlink:title="src/Building.cpp">
<polygon fill="white" stroke="black" points="234.5,-0.5 234.5,-19.5 320.5,-19.5 320.5,-0.5 234.5,-0.5"/>
<text text-anchor="middle" x="277.5" y="-7.5" font-family="Helvetica,sans-Serif" font-size="10.00">src/Building.cpp</text>
</a>
</g>
</g>
<!-- Node11&#45;&gt;Node12 -->
<g id="edge11" class="edge"><title>Node11&#45;&gt;Node12</title>
<path fill="none" stroke="midnightblue" d="M272.3,-46.1005C273.628,-37.1357 275.151,-26.8579 276.204,-19.7511"/>
<polygon fill="midnightblue" stroke="midnightblue" points="268.824,-45.678 270.821,-56.083 275.749,-46.7039 268.824,-45.678"/>
</g>
<!-- Node13 -->
<g id="node13" class="node"><title>Node13</title>
<g id="a_node13"><a xlink:href="_event_factory_8cpp.html" target="_top" xlink:title="src/EventFactory.cpp">
<polygon fill="white" stroke="black" points="338.5,-0.5 338.5,-19.5 448.5,-19.5 448.5,-0.5 338.5,-0.5"/>
<text text-anchor="middle" x="393.5" y="-7.5" font-family="Helvetica,sans-Serif" font-size="10.00">src/EventFactory.cpp</text>
</a>
</g>
</g>
<!-- Node11&#45;&gt;Node13 -->
<g id="edge13" class="edge"><title>Node11&#45;&gt;Node13</title>
<path fill="none" stroke="midnightblue" d="M298.507,-52.3678C321.729,-42.2553 353.663,-28.3486 373.944,-19.5164"/>
<polygon fill="midnightblue" stroke="midnightblue" points="296.919,-49.2419 289.148,-56.4435 299.714,-55.6597 296.919,-49.2419"/>
</g>
<!-- Node14 -->
<g id="node14" class="node"><title>Node14</title>
<g id="a_node14"><a xlink:href="_simulator_8cpp.html" target="_top" xlink:title="src/Simulator.cpp">
<polygon fill="white" stroke="black" points="467,-0.5 467,-19.5 560,-19.5 560,-0.5 467,-0.5"/>
<text text-anchor="middle" x="513.5" y="-7.5" font-family="Helvetica,sans-Serif" font-size="10.00">src/Simulator.cpp</text>
</a>
</g>
</g>
<!-- Node11&#45;&gt;Node14 -->
<g id="edge14" class="edge"><title>Node11&#45;&gt;Node14</title>
<path fill="none" stroke="midnightblue" d="M317.932,-54.2815C364.041,-44.0769 432.527,-28.9203 475.018,-19.5164"/>
<polygon fill="midnightblue" stroke="midnightblue" points="317.17,-50.8653 308.163,-56.4435 318.683,-57.6999 317.17,-50.8653"/>
</g>
<!-- Node15&#45;&gt;Node13 -->
<g id="edge17" class="edge"><title>Node15&#45;&gt;Node13</title>
<path fill="none" stroke="midnightblue" d="M398.05,-46.1005C396.888,-37.1357 395.556,-26.8579 394.634,-19.7511"/>
<polygon fill="midnightblue" stroke="midnightblue" points="394.588,-46.6159 399.344,-56.083 401.529,-45.716 394.588,-46.6159"/>
</g>
<!-- Node15&#45;&gt;Node14 -->
<g id="edge20" class="edge"><title>Node15&#45;&gt;Node14</title>
<path fill="none" stroke="midnightblue" d="M427.503,-52.096C448.614,-42.0073 477.362,-28.2697 495.679,-19.5164"/>
<polygon fill="midnightblue" stroke="midnightblue" points="425.919,-48.9738 418.405,-56.4435 428.937,-55.2897 425.919,-48.9738"/>
</g>
<!-- Node16 -->
<g id="node16" class="node"><title>Node16</title>
<g id="a_node16"><a xlink:href="_event_queue_8cpp.html" target="_top" xlink:title="src/EventQueue.cpp">
<polygon fill="white" stroke="black" points="670.5,-0.5 670.5,-19.5 776.5,-19.5 776.5,-0.5 670.5,-0.5"/>
<text text-anchor="middle" x="723.5" y="-7.5" font-family="Helvetica,sans-Serif" font-size="10.00">src/EventQueue.cpp</text>
</a>
</g>
</g>
<!-- Node15&#45;&gt;Node16 -->
<g id="edge18" class="edge"><title>Node15&#45;&gt;Node16</title>
<path fill="none" stroke="midnightblue" d="M461.567,-54.7907C522.6,-44.587 615.367,-29.078 672.559,-19.5164"/>
<polygon fill="midnightblue" stroke="midnightblue" points="460.966,-51.3424 451.68,-56.4435 462.121,-58.2466 460.966,-51.3424"/>
</g>
<!-- Node17 -->
<g id="node17" class="node"><title>Node17</title>
<g id="a_node17"><a xlink:href="_floor_8cpp.html" target="_top" xlink:title="src/Floor.cpp">
<polygon fill="white" stroke="black" points="578.5,-0.5 578.5,-19.5 652.5,-19.5 652.5,-0.5 578.5,-0.5"/>
<text text-anchor="middle" x="615.5" y="-7.5" font-family="Helvetica,sans-Serif" font-size="10.00">src/Floor.cpp</text>
</a>
</g>
</g>
<!-- Node15&#45;&gt;Node17 -->
<g id="edge19" class="edge"><title>Node15&#45;&gt;Node17</title>
<path fill="none" stroke="midnightblue" d="M444.46,-53.959C485.067,-43.7598 544.543,-28.8217 581.592,-19.5164"/>
<polygon fill="midnightblue" stroke="midnightblue" points="443.414,-50.6129 434.567,-56.4435 445.119,-57.4021 443.414,-50.6129"/>
</g>
<!-- Node18&#45;&gt;Node3 -->
<g id="edge22" class="edge"><title>Node18&#45;&gt;Node3</title>
<path fill="none" stroke="midnightblue" d="M799.503,-54.6007C855.444,-44.3953 939.73,-29.0189 991.817,-19.5164"/>
<polygon fill="midnightblue" stroke="midnightblue" points="798.612,-51.2056 789.402,-56.4435 799.868,-58.0919 798.612,-51.2056"/>
</g>
<!-- Node18&#45;&gt;Node14 -->
<g id="edge23" class="edge"><title>Node18&#45;&gt;Node14</title>
<path fill="none" stroke="midnightblue" d="M696.227,-54.0884C652.963,-43.8865 589.245,-28.8612 549.616,-19.5164"/>
<polygon fill="midnightblue" stroke="midnightblue" points="695.678,-57.5549 706.214,-56.4435 697.285,-50.7418 695.678,-57.5549"/>
</g>
</g>
</svg>
        <g id="navigator" transform="translate(0 0)" fill="#404254">
                <rect fill="#f2f5e9" fill-opacity="0.5" stroke="#606060" stroke-width=".5" x="0" y="0" width="60" height="60"/>
                <use id="zoomplus" xlink:href="#zoomPlus" x="17" y="9" onmousedown="handleZoom(evt,'in')"/>
                <use id="zoomminus" xlink:href="#zoomMin" x="42" y="9" onmousedown="handleZoom(evt,'out')"/>
                <use id="reset" xlink:href="#resetDef" x="30" y="36" onmousedown="handleReset()"/>
                <g id="arrowUp" xlink:href="#dirArrow" transform="translate(30 24)" onmousedown="handlePan(0,-1)">
                  <use xlink:href="#rim" fill="#404040">
                        <set attributeName="fill" to="#808080" begin="arrowUp.mouseover" end="arrowUp.mouseout"/>
                  </use>
                  <path fill="none" stroke="white" stroke-width="1.5" d="M0,-3.0v7 M-2.5,-0.5L0,-3.0L2.5,-0.5"/>
                </g>
                <g id="arrowRight" xlink:href="#dirArrow" transform="rotate(90) translate(36 -43)" onmousedown="handlePan(1,0)">
                  <use xlink:href="#rim" fill="#404040">
                        <set attributeName="fill" to="#808080" begin="arrowRight.mouseover" end="arrowRight.mouseout"/>
                  </use>
                  <path fill="none" stroke="white" stroke-width="1.5" d="M0,-3.0v7 M-2.5,-0.5L0,-3.0L2.5,-0.5"/>
                </g>
                <g id="arrowDown" xlink:href="#dirArrow" transform="rotate(180) translate(-30 -48)" onmousedown="handlePan(0,1)">
                  <use xlink:href="#rim" fill="#404040">
                        <set attributeName="fill" to="#808080" begin="arrowDown.mouseover" end="arrowDown.mouseout"/>
                  </use>
                  <path fill="none" stroke="white" stroke-width="1.5" d="M0,-3.0v7 M-2.5,-0.5L0,-3.0L2.5,-0.5"/>
                </g>
                <g id="arrowLeft" xlink:href="#dirArrow" transform="rotate(270) translate(-36 17)" onmousedown="handlePan(-1,0)">
                  <use xlink:href="#rim" fill="#404040">
                        <set attributeName="fill" to="#808080" begin="arrowLeft.mouseover" end="arrowLeft.mouseout"/>
                  </use>
                  <path fill="none" stroke="white" stroke-width="1.5" d="M0,-3.0v7 M-2.5,-0.5L0,-3.0L2.5,-0.5"/>
                </g>
        </g>
        <svg viewBox="0 0 15 15" width="100%" height="30px" preserveAspectRatio="xMaxYMin meet">
         <g id="arrow_out" transform="scale(0.3 0.3)">
          <a xlink:href="_event_type_8h__dep__incl_org.svg" target="_base">
           <rect id="button" ry="5" rx="5" y="6" x="6" height="38" width="38"
                fill="#f2f5e9" fill-opacity="0.5" stroke="#606060" stroke-width="1.0"/>
           <path id="arrow"
             d="M 11.500037,31.436501 C 11.940474,20.09759 22.043105,11.32322 32.158766,21.979434 L 37.068811,17.246167 C 37.068811,17.246167 37.088388,32 37.088388,32 L 22.160133,31.978069 C 22.160133,31.978069 26.997745,27.140456 26.997745,27.140456 C 18.528582,18.264221 13.291696,25.230495 11.500037,31.436501 z"
             style="fill:#404040;"/>
          </a>
         </g>
        </svg>
</svg>
