<?xml version="1.0" encoding="UTF-8" standalone="no"?>
<!DOCTYPE svg PUBLIC "-//W3C//DTD SVG 1.1//EN"
 "http://www.w3.org/Graphics/SVG/1.1/DTD/svg11.dtd">
<!-- Generated by graphviz version 2.38.0 (20140413.2041)
 -->
<!-- Title: include/EventFactory.h Pages: 1 -->
<svg width="296pt" height="84pt"
 viewBox="0.00 0.00 296.00 84.00" xmlns="http://www.w3.org/2000/svg" xmlns:xlink="http://www.w3.org/1999/xlink">
<g id="graph0" class="graph" transform="scale(1 1) rotate(0) translate(4 80)">
<title>include/EventFactory.h</title>
<polygon fill="white" stroke="none" points="-4,4 -4,-80 292,-80 292,4 -4,4"/>
<!-- Node1 -->
<g id="node1" class="node"><title>Node1</title>
<polygon fill="#bfbfbf" stroke="black" points="99,-56.5 99,-75.5 231,-75.5 231,-56.5 99,-56.5"/>
<text text-anchor="middle" x="165" y="-63.5" font-family="Ubuntu Mono" font-size="10.00">include/EventFactory.h</text>
</g>
<!-- Node2 -->
<g id="node2" class="node"><title>Node2</title>
<polygon fill="white" stroke="#bfbfbf" points="0,-0.5 0,-19.5 90,-19.5 90,-0.5 0,-0.5"/>
<text text-anchor="middle" x="45" y="-7.5" font-family="Ubuntu Mono" font-size="10.00">glog/logging.h</text>
</g>
<!-- Node1&#45;&gt;Node2 -->
<g id="edge1" class="edge"><title>Node1&#45;&gt;Node2</title>
<path fill="none" stroke="midnightblue" d="M145.986,-56.4435C126.412,-47.6356 95.6924,-33.8116 73.2711,-23.722"/>
<polygon fill="midnightblue" stroke="midnightblue" points="74.4809,-20.4284 63.9254,-19.5164 71.6083,-26.8119 74.4809,-20.4284"/>
</g>
<!-- Node3 -->
<g id="node3" class="node"><title>Node3</title>
<polygon fill="white" stroke="#bfbfbf" points="108,-0.5 108,-19.5 156,-19.5 156,-0.5 108,-0.5"/>
<text text-anchor="middle" x="132" y="-7.5" font-family="Ubuntu Mono" font-size="10.00">memory</text>
</g>
<!-- Node1&#45;&gt;Node3 -->
<g id="edge2" class="edge"><title>Node1&#45;&gt;Node3</title>
<path fill="none" stroke="midnightblue" d="M159.551,-56.083C154.986,-48.6127 148.332,-37.7244 142.707,-28.5199"/>
<polygon fill="midnightblue" stroke="midnightblue" points="145.549,-26.4588 137.348,-19.7511 139.576,-30.109 145.549,-26.4588"/>
</g>
<!-- Node4 -->
<g id="node4" class="node"><title>Node4</title>
<polygon fill="white" stroke="#bfbfbf" points="174,-0.5 174,-19.5 222,-19.5 222,-0.5 174,-0.5"/>
<text text-anchor="middle" x="198" y="-7.5" font-family="Ubuntu Mono" font-size="10.00">random</text>
</g>
<!-- Node1&#45;&gt;Node4 -->
<g id="edge3" class="edge"><title>Node1&#45;&gt;Node4</title>
<path fill="none" stroke="midnightblue" d="M170.449,-56.083C175.014,-48.6127 181.668,-37.7244 187.293,-28.5199"/>
<polygon fill="midnightblue" stroke="midnightblue" points="190.424,-30.109 192.652,-19.7511 184.451,-26.4588 190.424,-30.109"/>
</g>
<!-- Node5 -->
<g id="node5" class="node"><title>Node5</title>
<polygon fill="white" stroke="#bfbfbf" points="240,-0.5 240,-19.5 288,-19.5 288,-0.5 240,-0.5"/>
<text text-anchor="middle" x="264" y="-7.5" font-family="Ubuntu Mono" font-size="10.00">string</text>
</g>
<!-- Node1&#45;&gt;Node5 -->
<g id="edge4" class="edge"><title>Node1&#45;&gt;Node5</title>
<path fill="none" stroke="midnightblue" d="M180.906,-56.324C196.638,-47.7428 220.942,-34.486 239.209,-24.5224"/>
<polygon fill="midnightblue" stroke="midnightblue" points="241.03,-27.5157 248.133,-19.6545 237.678,-21.3704 241.03,-27.5157"/>
</g>
</g>
</svg>
