<?xml version="1.0" encoding="UTF-8" standalone="no"?>
<!DOCTYPE svg PUBLIC "-//W3C//DTD SVG 1.1//EN"
 "http://www.w3.org/Graphics/SVG/1.1/DTD/svg11.dtd">
<!-- Generated by graphviz version 2.38.0 (20140413.2041)
 -->
<!-- Title: include/EventNotifier.h Pages: 1 -->
<svg width="270pt" height="140pt"
 viewBox="0.00 0.00 269.50 140.00" xmlns="http://www.w3.org/2000/svg" xmlns:xlink="http://www.w3.org/1999/xlink">
<g id="graph0" class="graph" transform="scale(1 1) rotate(0) translate(4 136)">
<title>include/EventNotifier.h</title>
<polygon fill="white" stroke="none" points="-4,4 -4,-136 265.5,-136 265.5,4 -4,4"/>
<!-- Node1 -->
<g id="node1" class="node"><title>Node1</title>
<polygon fill="#bfbfbf" stroke="black" points="70,-112.5 70,-131.5 207,-131.5 207,-112.5 70,-112.5"/>
<text text-anchor="middle" x="138.5" y="-119.5" font-family="Ubuntu Mono" font-size="10.00">include/EventNotifier.h</text>
</g>
<!-- Node2 -->
<g id="node2" class="node"><title>Node2</title>
<g id="a_node2"><a xlink:href="_event_dispatcher_8h.html" target="_top" xlink:title="include/EventDispatcher.h">
<polygon fill="white" stroke="black" points="64.5,-56.5 64.5,-75.5 212.5,-75.5 212.5,-56.5 64.5,-56.5"/>
<text text-anchor="middle" x="138.5" y="-63.5" font-family="Ubuntu Mono" font-size="10.00">include/EventDispatcher.h</text>
</a>
</g>
</g>
<!-- Node1&#45;&gt;Node2 -->
<g id="edge1" class="edge"><title>Node1&#45;&gt;Node2</title>
<path fill="none" stroke="midnightblue" d="M138.5,-101.805C138.5,-92.9102 138.5,-82.7798 138.5,-75.7511"/>
<polygon fill="midnightblue" stroke="midnightblue" points="135,-102.083 138.5,-112.083 142,-102.083 135,-102.083"/>
</g>
<!-- Node3 -->
<g id="node3" class="node"><title>Node3</title>
<g id="a_node3"><a xlink:href="_event_dispatcher_8cpp.html" target="_top" xlink:title="src/EventDispatcher.cpp">
<polygon fill="white" stroke="black" points="0,-0.5 0,-19.5 137,-19.5 137,-0.5 0,-0.5"/>
<text text-anchor="middle" x="68.5" y="-7.5" font-family="Ubuntu Mono" font-size="10.00">src/EventDispatcher.cpp</text>
</a>
</g>
</g>
<!-- Node2&#45;&gt;Node3 -->
<g id="edge2" class="edge"><title>Node2&#45;&gt;Node3</title>
<path fill="none" stroke="midnightblue" d="M119.186,-50.1008C106.588,-40.3824 90.5719,-28.0269 79.9513,-19.8339"/>
<polygon fill="midnightblue" stroke="midnightblue" points="117.198,-52.9871 127.253,-56.324 121.473,-47.4446 117.198,-52.9871"/>
</g>
<!-- Node4 -->
<g id="node4" class="node"><title>Node4</title>
<g id="a_node4"><a xlink:href="_simulator_8cpp.html" target="_top" xlink:title="src/Simulator.cpp">
<polygon fill="white" stroke="black" points="155.5,-0.5 155.5,-19.5 261.5,-19.5 261.5,-0.5 155.5,-0.5"/>
<text text-anchor="middle" x="208.5" y="-7.5" font-family="Ubuntu Mono" font-size="10.00">src/Simulator.cpp</text>
</a>
</g>
</g>
<!-- Node2&#45;&gt;Node4 -->
<g id="edge3" class="edge"><title>Node2&#45;&gt;Node4</title>
<path fill="none" stroke="midnightblue" d="M157.814,-50.1008C170.412,-40.3824 186.428,-28.0269 197.049,-19.8339"/>
<polygon fill="midnightblue" stroke="midnightblue" points="155.527,-47.4446 149.747,-56.324 159.802,-52.9871 155.527,-47.4446"/>
</g>
</g>
</svg>
