<?xml version="1.0" encoding="UTF-8" standalone="no"?>
<!DOCTYPE svg PUBLIC "-//W3C//DTD SVG 1.1//EN"
 "http://www.w3.org/Graphics/SVG/1.1/DTD/svg11.dtd">
<!-- Generated by graphviz version 2.38.0 (20140413.2041)
 -->
<!-- Title: include/EventQueue.h Pages: 1 -->
<svg width="324pt" height="196pt"
 viewBox="0.00 0.00 323.50 196.00" xmlns="http://www.w3.org/2000/svg" xmlns:xlink="http://www.w3.org/1999/xlink">
<g id="graph0" class="graph" transform="scale(1 1) rotate(0) translate(4 192)">
<title>include/EventQueue.h</title>
<polygon fill="white" stroke="none" points="-4,4 -4,-192 319.5,-192 319.5,4 -4,4"/>
<!-- Node1 -->
<g id="node1" class="node"><title>Node1</title>
<polygon fill="#bfbfbf" stroke="black" points="142,-168.5 142,-187.5 264,-187.5 264,-168.5 142,-168.5"/>
<text text-anchor="middle" x="203" y="-175.5" font-family="Ubuntu Mono" font-size="10.00">include/EventQueue.h</text>
</g>
<!-- Node2 -->
<g id="node2" class="node"><title>Node2</title>
<g id="a_node2"><a xlink:href="_event_8h.html" target="_top" xlink:title="Event.h">
<polygon fill="white" stroke="black" points="39.5,-112.5 39.5,-131.5 92.5,-131.5 92.5,-112.5 39.5,-112.5"/>
<text text-anchor="middle" x="66" y="-119.5" font-family="Ubuntu Mono" font-size="10.00">Event.h</text>
</a>
</g>
</g>
<!-- Node1&#45;&gt;Node2 -->
<g id="edge1" class="edge"><title>Node1&#45;&gt;Node2</title>
<path fill="none" stroke="midnightblue" d="M181.292,-168.444C158.645,-159.517 122.928,-145.439 97.2482,-135.317"/>
<polygon fill="midnightblue" stroke="midnightblue" points="98.1934,-131.927 87.6065,-131.516 95.6264,-138.44 98.1934,-131.927"/>
</g>
<!-- Node6 -->
<g id="node6" class="node"><title>Node6</title>
<g id="a_node6"><a xlink:href="_event_comparator_8h.html" target="_top" xlink:title="EventComparator.h">
<polygon fill="white" stroke="black" points="110,-112.5 110,-131.5 216,-131.5 216,-112.5 110,-112.5"/>
<text text-anchor="middle" x="163" y="-119.5" font-family="Ubuntu Mono" font-size="10.00">EventComparator.h</text>
</a>
</g>
</g>
<!-- Node1&#45;&gt;Node6 -->
<g id="edge6" class="edge"><title>Node1&#45;&gt;Node6</title>
<path fill="none" stroke="midnightblue" d="M196.395,-168.083C190.745,-160.455 182.455,-149.264 175.549,-139.941"/>
<polygon fill="midnightblue" stroke="midnightblue" points="178.247,-137.703 169.482,-131.751 172.622,-141.87 178.247,-137.703"/>
</g>
<!-- Node7 -->
<g id="node7" class="node"><title>Node7</title>
<polygon fill="white" stroke="#bfbfbf" points="164,-56.5 164,-75.5 212,-75.5 212,-56.5 164,-56.5"/>
<text text-anchor="middle" x="188" y="-63.5" font-family="Ubuntu Mono" font-size="10.00">memory</text>
</g>
<!-- Node1&#45;&gt;Node7 -->
<g id="edge8" class="edge"><title>Node1&#45;&gt;Node7</title>
<path fill="none" stroke="midnightblue" d="M209.875,-168.134C218.723,-155.59 232.153,-131.963 225,-112 221.059,-101.003 213.143,-90.7688 205.64,-82.8479"/>
<polygon fill="midnightblue" stroke="midnightblue" points="208.019,-80.2784 198.438,-75.7555 203.108,-85.2659 208.019,-80.2784"/>
</g>
<!-- Node8 -->
<g id="node8" class="node"><title>Node8</title>
<polygon fill="white" stroke="#bfbfbf" points="272.5,-112.5 272.5,-131.5 315.5,-131.5 315.5,-112.5 272.5,-112.5"/>
<text text-anchor="middle" x="294" y="-119.5" font-family="Ubuntu Mono" font-size="10.00">queue</text>
</g>
<!-- Node1&#45;&gt;Node8 -->
<g id="edge9" class="edge"><title>Node1&#45;&gt;Node8</title>
<path fill="none" stroke="midnightblue" d="M217.621,-168.324C231.949,-159.822 254.013,-146.729 270.749,-136.797"/>
<polygon fill="midnightblue" stroke="midnightblue" points="272.602,-139.768 279.416,-131.655 269.03,-133.748 272.602,-139.768"/>
</g>
<!-- Node3 -->
<g id="node3" class="node"><title>Node3</title>
<g id="a_node3"><a xlink:href="_event_type_8h.html" target="_top" xlink:title="EventType.h">
<polygon fill="white" stroke="black" points="4,-56.5 4,-75.5 78,-75.5 78,-56.5 4,-56.5"/>
<text text-anchor="middle" x="41" y="-63.5" font-family="Ubuntu Mono" font-size="10.00">EventType.h</text>
</a>
</g>
</g>
<!-- Node2&#45;&gt;Node3 -->
<g id="edge2" class="edge"><title>Node2&#45;&gt;Node3</title>
<path fill="none" stroke="midnightblue" d="M61.8718,-112.083C58.4861,-104.77 53.584,-94.1814 49.3812,-85.1034"/>
<polygon fill="midnightblue" stroke="midnightblue" points="52.4289,-83.3553 45.0514,-75.7511 46.0766,-86.2962 52.4289,-83.3553"/>
</g>
<!-- Node5 -->
<g id="node5" class="node"><title>Node5</title>
<polygon fill="white" stroke="#bfbfbf" points="82,-0.5 82,-19.5 130,-19.5 130,-0.5 82,-0.5"/>
<text text-anchor="middle" x="106" y="-7.5" font-family="Ubuntu Mono" font-size="10.00">string</text>
</g>
<!-- Node2&#45;&gt;Node5 -->
<g id="edge5" class="edge"><title>Node2&#45;&gt;Node5</title>
<path fill="none" stroke="midnightblue" d="M70.5918,-112.207C75.1475,-103.259 82.1342,-88.9074 87,-76 92.8321,-60.5296 97.99,-42.4418 101.455,-29.2804"/>
<polygon fill="midnightblue" stroke="midnightblue" points="104.857,-30.1046 103.944,-19.5491 98.0749,-28.3695 104.857,-30.1046"/>
</g>
<!-- Node4 -->
<g id="node4" class="node"><title>Node4</title>
<polygon fill="white" stroke="#bfbfbf" points="0,-0.5 0,-19.5 64,-19.5 64,-0.5 0,-0.5"/>
<text text-anchor="middle" x="32" y="-7.5" font-family="Ubuntu Mono" font-size="10.00">stdexcept</text>
</g>
<!-- Node3&#45;&gt;Node4 -->
<g id="edge3" class="edge"><title>Node3&#45;&gt;Node4</title>
<path fill="none" stroke="midnightblue" d="M39.5138,-56.083C38.3212,-48.9272 36.6059,-38.6353 35.1152,-29.6911"/>
<polygon fill="midnightblue" stroke="midnightblue" points="38.555,-29.0396 33.4585,-19.7511 31.6502,-30.1904 38.555,-29.0396"/>
</g>
<!-- Node3&#45;&gt;Node5 -->
<g id="edge4" class="edge"><title>Node3&#45;&gt;Node5</title>
<path fill="none" stroke="midnightblue" d="M51.4434,-56.324C61.1462,-48.2631 75.8153,-36.0765 87.4997,-26.3695"/>
<polygon fill="midnightblue" stroke="midnightblue" points="89.9113,-28.9163 95.3666,-19.8339 85.4381,-23.532 89.9113,-28.9163"/>
</g>
<!-- Node6&#45;&gt;Node7 -->
<g id="edge7" class="edge"><title>Node6&#45;&gt;Node7</title>
<path fill="none" stroke="midnightblue" d="M167.128,-112.083C170.514,-104.77 175.416,-94.1814 179.619,-85.1034"/>
<polygon fill="midnightblue" stroke="midnightblue" points="182.923,-86.2962 183.949,-75.7511 176.571,-83.3553 182.923,-86.2962"/>
</g>
</g>
</svg>
