<?xml version="1.0" encoding="UTF-8" standalone="no"?>
<!DOCTYPE svg PUBLIC "-//W3C//DTD SVG 1.1//EN"
 "http://www.w3.org/Graphics/SVG/1.1/DTD/svg11.dtd">
<!-- Generated by graphviz version 2.38.0 (20140413.2041)
 -->
<!-- Title: src/FinishSimulation.cpp Pages: 1 -->
<svg width="292pt" height="252pt"
 viewBox="0.00 0.00 291.57 252.00" xmlns="http://www.w3.org/2000/svg" xmlns:xlink="http://www.w3.org/1999/xlink">
<g id="graph0" class="graph" transform="scale(1 1) rotate(0) translate(4 248)">
<title>src/FinishSimulation.cpp</title>
<polygon fill="white" stroke="none" points="-4,4 -4,-248 287.566,-248 287.566,4 -4,4"/>
<!-- Node1 -->
<g id="node1" class="node"><title>Node1</title>
<polygon fill="#bfbfbf" stroke="black" points="88.5656,-224.5 88.5656,-243.5 231.566,-243.5 231.566,-224.5 88.5656,-224.5"/>
<text text-anchor="middle" x="160.066" y="-231.5" font-family="Ubuntu Mono" font-size="10.00">src/FinishSimulation.cpp</text>
</g>
<!-- Node2 -->
<g id="node2" class="node"><title>Node2</title>
<g id="a_node2"><a xlink:href="_finish_simulation_8h.html" target="_top" xlink:title="FinishSimulation.h">
<polygon fill="white" stroke="black" points="62.5656,-168.5 62.5656,-187.5 173.566,-187.5 173.566,-168.5 62.5656,-168.5"/>
<text text-anchor="middle" x="118.066" y="-175.5" font-family="Ubuntu Mono" font-size="10.00">FinishSimulation.h</text>
</a>
</g>
</g>
<!-- Node1&#45;&gt;Node2 -->
<g id="edge1" class="edge"><title>Node1&#45;&gt;Node2</title>
<path fill="none" stroke="midnightblue" d="M153.13,-224.083C147.136,-216.377 138.314,-205.033 131.018,-195.653"/>
<polygon fill="midnightblue" stroke="midnightblue" points="133.774,-193.496 124.872,-187.751 128.249,-197.793 133.774,-193.496"/>
</g>
<!-- Node4 -->
<g id="node4" class="node"><title>Node4</title>
<g id="a_node4"><a xlink:href="_event_type_8h.html" target="_top" xlink:title="EventType.h">
<polygon fill="white" stroke="black" points="49.0656,-56.5 49.0656,-75.5 123.066,-75.5 123.066,-56.5 49.0656,-56.5"/>
<text text-anchor="middle" x="86.0656" y="-63.5" font-family="Ubuntu Mono" font-size="10.00">EventType.h</text>
</a>
</g>
</g>
<!-- Node1&#45;&gt;Node4 -->
<g id="edge8" class="edge"><title>Node1&#45;&gt;Node4</title>
<path fill="none" stroke="midnightblue" d="M127.213,-224.446C87.3493,-211.934 22.9917,-184.236 3.06561,-132 -0.102521,-123.695 -1.48154,-119.638 3.06561,-112 12.1621,-96.7208 28.454,-86.3102 44.2094,-79.3857"/>
<polygon fill="midnightblue" stroke="midnightblue" points="45.899,-82.4794 53.881,-75.5124 43.2965,-75.9811 45.899,-82.4794"/>
</g>
<!-- Node6 -->
<g id="node6" class="node"><title>Node6</title>
<polygon fill="white" stroke="#bfbfbf" points="134.066,-0.5 134.066,-19.5 182.066,-19.5 182.066,-0.5 134.066,-0.5"/>
<text text-anchor="middle" x="158.066" y="-7.5" font-family="Ubuntu Mono" font-size="10.00">string</text>
</g>
<!-- Node1&#45;&gt;Node6 -->
<g id="edge10" class="edge"><title>Node1&#45;&gt;Node6</title>
<path fill="none" stroke="midnightblue" d="M165.703,-224.481C171.12,-215.745 178.929,-201.556 182.066,-188 195.316,-130.726 175.782,-61.2175 164.752,-29.0001"/>
<polygon fill="midnightblue" stroke="midnightblue" points="168.048,-27.8225 161.397,-19.5754 161.453,-30.1701 168.048,-27.8225"/>
</g>
<!-- Node8 -->
<g id="node8" class="node"><title>Node8</title>
<polygon fill="white" stroke="#bfbfbf" points="230.566,-168.5 230.566,-187.5 283.566,-187.5 283.566,-168.5 230.566,-168.5"/>
<text text-anchor="middle" x="257.066" y="-175.5" font-family="Ubuntu Mono" font-size="10.00">sstream</text>
</g>
<!-- Node1&#45;&gt;Node8 -->
<g id="edge9" class="edge"><title>Node1&#45;&gt;Node8</title>
<path fill="none" stroke="midnightblue" d="M175.65,-224.324C191.065,-215.743 214.878,-202.486 232.775,-192.522"/>
<polygon fill="midnightblue" stroke="midnightblue" points="234.485,-195.577 241.52,-187.655 231.08,-189.461 234.485,-195.577"/>
</g>
<!-- Node3 -->
<g id="node3" class="node"><title>Node3</title>
<g id="a_node3"><a xlink:href="_event_8h.html" target="_top" xlink:title="Event.h">
<polygon fill="white" stroke="black" points="120.566,-112.5 120.566,-131.5 173.566,-131.5 173.566,-112.5 120.566,-112.5"/>
<text text-anchor="middle" x="147.066" y="-119.5" font-family="Ubuntu Mono" font-size="10.00">Event.h</text>
</a>
</g>
</g>
<!-- Node2&#45;&gt;Node3 -->
<g id="edge2" class="edge"><title>Node2&#45;&gt;Node3</title>
<path fill="none" stroke="midnightblue" d="M122.854,-168.083C126.824,-160.691 132.591,-149.953 137.5,-140.811"/>
<polygon fill="midnightblue" stroke="midnightblue" points="140.718,-142.217 142.366,-131.751 134.551,-138.905 140.718,-142.217"/>
</g>
<!-- Node7 -->
<g id="node7" class="node"><title>Node7</title>
<polygon fill="white" stroke="#bfbfbf" points="12.0656,-112.5 12.0656,-131.5 102.066,-131.5 102.066,-112.5 12.0656,-112.5"/>
<text text-anchor="middle" x="57.0656" y="-119.5" font-family="Ubuntu Mono" font-size="10.00">glog/logging.h</text>
</g>
<!-- Node2&#45;&gt;Node7 -->
<g id="edge7" class="edge"><title>Node2&#45;&gt;Node7</title>
<path fill="none" stroke="midnightblue" d="M108.265,-168.324C99.2475,-160.341 85.6596,-148.313 74.7476,-138.653"/>
<polygon fill="midnightblue" stroke="midnightblue" points="76.8522,-135.842 67.0446,-131.834 72.2123,-141.083 76.8522,-135.842"/>
</g>
<!-- Node3&#45;&gt;Node4 -->
<g id="edge3" class="edge"><title>Node3&#45;&gt;Node4</title>
<path fill="none" stroke="midnightblue" d="M137.265,-112.324C128.248,-104.341 114.66,-92.3128 103.748,-82.6529"/>
<polygon fill="midnightblue" stroke="midnightblue" points="105.852,-79.8416 96.0446,-75.8339 101.212,-85.083 105.852,-79.8416"/>
</g>
<!-- Node3&#45;&gt;Node6 -->
<g id="edge6" class="edge"><title>Node3&#45;&gt;Node6</title>
<path fill="none" stroke="midnightblue" d="M147.929,-112.368C149.704,-94.617 153.799,-53.6664 156.206,-29.5974"/>
<polygon fill="midnightblue" stroke="midnightblue" points="159.694,-29.8901 157.206,-19.5914 152.729,-29.1935 159.694,-29.8901"/>
</g>
<!-- Node5 -->
<g id="node5" class="node"><title>Node5</title>
<polygon fill="white" stroke="#bfbfbf" points="52.0656,-0.5 52.0656,-19.5 116.066,-19.5 116.066,-0.5 52.0656,-0.5"/>
<text text-anchor="middle" x="84.0656" y="-7.5" font-family="Ubuntu Mono" font-size="10.00">stdexcept</text>
</g>
<!-- Node4&#45;&gt;Node5 -->
<g id="edge4" class="edge"><title>Node4&#45;&gt;Node5</title>
<path fill="none" stroke="midnightblue" d="M85.7353,-56.083C85.4732,-49.0059 85.0975,-38.8611 84.7688,-29.9865"/>
<polygon fill="midnightblue" stroke="midnightblue" points="88.2575,-29.6147 84.3897,-19.7511 81.2623,-29.8738 88.2575,-29.6147"/>
</g>
<!-- Node4&#45;&gt;Node6 -->
<g id="edge5" class="edge"><title>Node4&#45;&gt;Node6</title>
<path fill="none" stroke="midnightblue" d="M97.6337,-56.324C108.486,-48.1849 124.946,-35.8395 137.949,-26.0874"/>
<polygon fill="midnightblue" stroke="midnightblue" points="140.387,-28.6339 146.287,-19.8339 136.187,-23.0339 140.387,-28.6339"/>
</g>
</g>
</svg>
