<?xml version="1.0" encoding="UTF-8" standalone="no"?>
<!DOCTYPE svg PUBLIC "-//W3C//DTD SVG 1.1//EN"
 "http://www.w3.org/Graphics/SVG/1.1/DTD/svg11.dtd">
<!-- Generated by graphviz version 2.38.0 (20140413.2041)
 -->
<!-- Title: include/FinishSimulation.h Pages: 1 -->
<svg width="276pt" height="84pt"
 viewBox="0.00 0.00 275.50 84.00" xmlns="http://www.w3.org/2000/svg" xmlns:xlink="http://www.w3.org/1999/xlink">
<g id="graph0" class="graph" transform="scale(1 1) rotate(0) translate(4 80)">
<title>include/FinishSimulation.h</title>
<polygon fill="white" stroke="none" points="-4,4 -4,-80 271.5,-80 271.5,4 -4,4"/>
<!-- Node1 -->
<g id="node1" class="node"><title>Node1</title>
<polygon fill="#bfbfbf" stroke="black" points="66,-56.5 66,-75.5 219,-75.5 219,-56.5 66,-56.5"/>
<text text-anchor="middle" x="142.5" y="-63.5" font-family="Ubuntu Mono" font-size="10.00">include/FinishSimulation.h</text>
</g>
<!-- Node2 -->
<g id="node2" class="node"><title>Node2</title>
<g id="a_node2"><a xlink:href="_finish_simulation_8cpp.html" target="_top" xlink:title="src/FinishSimulation.cpp">
<polygon fill="white" stroke="black" points="0,-0.5 0,-19.5 143,-19.5 143,-0.5 0,-0.5"/>
<text text-anchor="middle" x="71.5" y="-7.5" font-family="Ubuntu Mono" font-size="10.00">src/FinishSimulation.cpp</text>
</a>
</g>
</g>
<!-- Node1&#45;&gt;Node2 -->
<g id="edge1" class="edge"><title>Node1&#45;&gt;Node2</title>
<path fill="none" stroke="midnightblue" d="M122.91,-50.1008C110.132,-40.3824 93.8873,-28.0269 83.1149,-19.8339"/>
<polygon fill="midnightblue" stroke="midnightblue" points="121.014,-53.0561 131.093,-56.324 125.252,-47.4844 121.014,-53.0561"/>
</g>
<!-- Node3 -->
<g id="node3" class="node"><title>Node3</title>
<g id="a_node3"><a xlink:href="_simulator_8cpp.html" target="_top" xlink:title="src/Simulator.cpp">
<polygon fill="white" stroke="black" points="161.5,-0.5 161.5,-19.5 267.5,-19.5 267.5,-0.5 161.5,-0.5"/>
<text text-anchor="middle" x="214.5" y="-7.5" font-family="Ubuntu Mono" font-size="10.00">src/Simulator.cpp</text>
</a>
</g>
</g>
<!-- Node1&#45;&gt;Node3 -->
<g id="edge2" class="edge"><title>Node1&#45;&gt;Node3</title>
<path fill="none" stroke="midnightblue" d="M162.366,-50.1008C175.323,-40.3824 191.797,-28.0269 202.721,-19.8339"/>
<polygon fill="midnightblue" stroke="midnightblue" points="159.968,-47.5239 154.068,-56.324 164.168,-53.1239 159.968,-47.5239"/>
</g>
</g>
</svg>
