<?xml version="1.0" encoding="UTF-8" standalone="no"?>
<!DOCTYPE svg PUBLIC "-//W3C//DTD SVG 1.1//EN"
 "http://www.w3.org/Graphics/SVG/1.1/DTD/svg11.dtd">
<!-- Generated by graphviz version 2.38.0 (20140413.2041)
 -->
<!-- Title: include/FinishSimulation.h Pages: 1 -->
<svg width="243pt" height="84pt"
 viewBox="0.00 0.00 242.50 84.00" xmlns="http://www.w3.org/2000/svg" xmlns:xlink="http://www.w3.org/1999/xlink">
<g id="graph0" class="graph" transform="scale(1 1) rotate(0) translate(4 80)">
<title>include/FinishSimulation.h</title>
<polygon fill="white" stroke="none" points="-4,4 -4,-80 238.5,-80 238.5,4 -4,4"/>
<!-- Node1 -->
<g id="node1" class="node"><title>Node1</title>
<polygon fill="#bfbfbf" stroke="black" points="59.5,-56.5 59.5,-75.5 190.5,-75.5 190.5,-56.5 59.5,-56.5"/>
<text text-anchor="middle" x="125" y="-63.5" font-family="Helvetica,sans-Serif" font-size="10.00">include/FinishSimulation.h</text>
</g>
<!-- Node2 -->
<g id="node2" class="node"><title>Node2</title>
<g id="a_node2"><a xlink:href="_finish_simulation_8cpp.html" target="_top" xlink:title="src/FinishSimulation.cpp">
<polygon fill="white" stroke="black" points="0,-0.5 0,-19.5 124,-19.5 124,-0.5 0,-0.5"/>
<text text-anchor="middle" x="62" y="-7.5" font-family="Helvetica,sans-Serif" font-size="10.00">src/FinishSimulation.cpp</text>
</a>
</g>
</g>
<!-- Node1&#45;&gt;Node2 -->
<g id="edge1" class="edge"><title>Node1&#45;&gt;Node2</title>
<path fill="none" stroke="midnightblue" d="M106.96,-49.5372C95.7269,-39.9087 81.6809,-27.8694 72.3062,-19.8339"/>
<polygon fill="midnightblue" stroke="midnightblue" points="105.008,-52.4734 114.878,-56.324 109.563,-47.1586 105.008,-52.4734"/>
</g>
<!-- Node3 -->
<g id="node3" class="node"><title>Node3</title>
<g id="a_node3"><a xlink:href="_simulator_8cpp.html" target="_top" xlink:title="src/Simulator.cpp">
<polygon fill="white" stroke="black" points="141.5,-0.5 141.5,-19.5 234.5,-19.5 234.5,-0.5 141.5,-0.5"/>
<text text-anchor="middle" x="188" y="-7.5" font-family="Helvetica,sans-Serif" font-size="10.00">src/Simulator.cpp</text>
</a>
</g>
</g>
<!-- Node1&#45;&gt;Node3 -->
<g id="edge2" class="edge"><title>Node1&#45;&gt;Node3</title>
<path fill="none" stroke="midnightblue" d="M143.04,-49.5372C154.273,-39.9087 168.319,-27.8694 177.694,-19.8339"/>
<polygon fill="midnightblue" stroke="midnightblue" points="140.437,-47.1586 135.122,-56.324 144.992,-52.4734 140.437,-47.1586"/>
</g>
</g>
</svg>
