<?xml version="1.0" encoding="UTF-8" standalone="no"?>
<!DOCTYPE svg PUBLIC "-//W3C//DTD SVG 1.1//EN"
 "http://www.w3.org/Graphics/SVG/1.1/DTD/svg11.dtd">
<!-- Generated by graphviz version 2.38.0 (20140413.2041)
 -->
<!-- Title: src/FinishSimulation.cpp Pages: 1 -->
<svg width="274pt" height="252pt"
 viewBox="0.00 0.00 273.91 252.00" xmlns="http://www.w3.org/2000/svg" xmlns:xlink="http://www.w3.org/1999/xlink">
<g id="graph0" class="graph" transform="scale(1 1) rotate(0) translate(4 248)">
<title>src/FinishSimulation.cpp</title>
<polygon fill="white" stroke="none" points="-4,4 -4,-248 269.913,-248 269.913,4 -4,4"/>
<!-- Node1 -->
<g id="node1" class="node"><title>Node1</title>
<polygon fill="#bfbfbf" stroke="black" points="84.9133,-224.5 84.9133,-243.5 208.913,-243.5 208.913,-224.5 84.9133,-224.5"/>
<text text-anchor="middle" x="146.913" y="-231.5" font-family="Helvetica,sans-Serif" font-size="10.00">src/FinishSimulation.cpp</text>
</g>
<!-- Node2 -->
<g id="node2" class="node"><title>Node2</title>
<g id="a_node2"><a xlink:href="_finish_simulation_8h.html" target="_top" xlink:title="FinishSimulation.h">
<polygon fill="white" stroke="black" points="60.4133,-168.5 60.4133,-187.5 157.413,-187.5 157.413,-168.5 60.4133,-168.5"/>
<text text-anchor="middle" x="108.913" y="-175.5" font-family="Helvetica,sans-Serif" font-size="10.00">FinishSimulation.h</text>
</a>
</g>
</g>
<!-- Node1&#45;&gt;Node2 -->
<g id="edge1" class="edge"><title>Node1&#45;&gt;Node2</title>
<path fill="none" stroke="midnightblue" d="M140.638,-224.083C135.271,-216.455 127.396,-205.264 120.835,-195.941"/>
<polygon fill="midnightblue" stroke="midnightblue" points="123.689,-193.915 115.071,-187.751 117.964,-197.943 123.689,-193.915"/>
</g>
<!-- Node4 -->
<g id="node4" class="node"><title>Node4</title>
<g id="a_node4"><a xlink:href="_event_type_8h.html" target="_top" xlink:title="EventType.h">
<polygon fill="white" stroke="black" points="37.9133,-56.5 37.9133,-75.5 109.913,-75.5 109.913,-56.5 37.9133,-56.5"/>
<text text-anchor="middle" x="73.9133" y="-63.5" font-family="Helvetica,sans-Serif" font-size="10.00">EventType.h</text>
</a>
</g>
</g>
<!-- Node1&#45;&gt;Node4 -->
<g id="edge8" class="edge"><title>Node1&#45;&gt;Node4</title>
<path fill="none" stroke="midnightblue" d="M119.287,-224.453C82.977,-211.405 21.6125,-182.549 2.91325,-132 -0.170714,-123.663 -1.37127,-119.788 2.91325,-112 10.8004,-97.6632 25.3988,-87.2525 39.3165,-80.0792"/>
<polygon fill="midnightblue" stroke="midnightblue" points="41.2054,-83.0578 48.7523,-75.6217 38.2154,-76.7285 41.2054,-83.0578"/>
</g>
<!-- Node6 -->
<g id="node6" class="node"><title>Node6</title>
<polygon fill="white" stroke="#bfbfbf" points="120.413,-0.5 120.413,-19.5 161.413,-19.5 161.413,-0.5 120.413,-0.5"/>
<text text-anchor="middle" x="140.913" y="-7.5" font-family="Helvetica,sans-Serif" font-size="10.00">string</text>
</g>
<!-- Node1&#45;&gt;Node6 -->
<g id="edge10" class="edge"><title>Node1&#45;&gt;Node6</title>
<path fill="none" stroke="midnightblue" d="M151.739,-224.362C156.383,-215.534 163.102,-201.274 165.913,-188 178.049,-130.695 158.7,-61.6743 147.696,-29.3644"/>
<polygon fill="midnightblue" stroke="midnightblue" points="150.856,-27.8031 144.217,-19.5463 144.258,-30.1411 150.856,-27.8031"/>
</g>
<!-- Node8 -->
<g id="node8" class="node"><title>Node8</title>
<polygon fill="white" stroke="#bfbfbf" points="213.913,-168.5 213.913,-187.5 265.913,-187.5 265.913,-168.5 213.913,-168.5"/>
<text text-anchor="middle" x="239.913" y="-175.5" font-family="Helvetica,sans-Serif" font-size="10.00">sstream</text>
</g>
<!-- Node1&#45;&gt;Node8 -->
<g id="edge9" class="edge"><title>Node1&#45;&gt;Node8</title>
<path fill="none" stroke="midnightblue" d="M161.855,-224.324C176.498,-215.822 199.047,-202.729 216.151,-192.797"/>
<polygon fill="midnightblue" stroke="midnightblue" points="218.118,-195.703 225.008,-187.655 214.603,-189.649 218.118,-195.703"/>
</g>
<!-- Node3 -->
<g id="node3" class="node"><title>Node3</title>
<g id="a_node3"><a xlink:href="_event_8h.html" target="_top" xlink:title="Event.h">
<polygon fill="white" stroke="black" points="107.913,-112.5 107.913,-131.5 157.913,-131.5 157.913,-112.5 107.913,-112.5"/>
<text text-anchor="middle" x="132.913" y="-119.5" font-family="Helvetica,sans-Serif" font-size="10.00">Event.h</text>
</a>
</g>
</g>
<!-- Node2&#45;&gt;Node3 -->
<g id="edge2" class="edge"><title>Node2&#45;&gt;Node3</title>
<path fill="none" stroke="midnightblue" d="M112.876,-168.083C116.127,-160.77 120.833,-150.181 124.867,-141.103"/>
<polygon fill="midnightblue" stroke="midnightblue" points="128.161,-142.311 129.024,-131.751 121.764,-139.468 128.161,-142.311"/>
</g>
<!-- Node7 -->
<g id="node7" class="node"><title>Node7</title>
<polygon fill="white" stroke="#bfbfbf" points="12.4133,-112.5 12.4133,-131.5 89.4133,-131.5 89.4133,-112.5 12.4133,-112.5"/>
<text text-anchor="middle" x="50.9133" y="-119.5" font-family="Helvetica,sans-Serif" font-size="10.00">glog/logging.h</text>
</g>
<!-- Node2&#45;&gt;Node7 -->
<g id="edge7" class="edge"><title>Node2&#45;&gt;Node7</title>
<path fill="none" stroke="midnightblue" d="M99.5945,-168.324C91.0207,-160.341 78.101,-148.313 67.7256,-138.653"/>
<polygon fill="midnightblue" stroke="midnightblue" points="70.1055,-136.086 60.4015,-131.834 65.3355,-141.21 70.1055,-136.086"/>
</g>
<!-- Node3&#45;&gt;Node4 -->
<g id="edge3" class="edge"><title>Node3&#45;&gt;Node4</title>
<path fill="none" stroke="midnightblue" d="M123.434,-112.324C114.712,-104.341 101.57,-92.3128 91.0155,-82.6529"/>
<polygon fill="midnightblue" stroke="midnightblue" points="93.3049,-80.0036 83.5651,-75.8339 88.5788,-85.1674 93.3049,-80.0036"/>
</g>
<!-- Node3&#45;&gt;Node6 -->
<g id="edge6" class="edge"><title>Node3&#45;&gt;Node6</title>
<path fill="none" stroke="midnightblue" d="M133.541,-112.368C134.832,-94.617 137.81,-53.6664 139.561,-29.5974"/>
<polygon fill="midnightblue" stroke="midnightblue" points="143.054,-29.819 140.288,-19.5914 136.072,-29.3112 143.054,-29.819"/>
</g>
<!-- Node5 -->
<g id="node5" class="node"><title>Node5</title>
<polygon fill="white" stroke="#bfbfbf" points="43.4133,-0.5 43.4133,-19.5 102.413,-19.5 102.413,-0.5 43.4133,-0.5"/>
<text text-anchor="middle" x="72.9133" y="-7.5" font-family="Helvetica,sans-Serif" font-size="10.00">stdexcept</text>
</g>
<!-- Node4&#45;&gt;Node5 -->
<g id="edge4" class="edge"><title>Node4&#45;&gt;Node5</title>
<path fill="none" stroke="midnightblue" d="M73.7481,-56.083C73.6171,-49.0059 73.4292,-38.8611 73.2649,-29.9865"/>
<polygon fill="midnightblue" stroke="midnightblue" points="76.76,-29.6845 73.0753,-19.7511 69.7612,-29.8142 76.76,-29.6845"/>
</g>
<!-- Node4&#45;&gt;Node6 -->
<g id="edge5" class="edge"><title>Node4&#45;&gt;Node6</title>
<path fill="none" stroke="midnightblue" d="M84.678,-56.324C94.6794,-48.2631 109.8,-36.0765 121.844,-26.3695"/>
<polygon fill="midnightblue" stroke="midnightblue" points="124.363,-28.8343 129.953,-19.8339 119.97,-23.3841 124.363,-28.8343"/>
</g>
</g>
</svg>
