<?xml version="1.0" encoding="UTF-8" standalone="no"?>
<!DOCTYPE svg PUBLIC "-//W3C//DTD SVG 1.1//EN"
 "http://www.w3.org/Graphics/SVG/1.1/DTD/svg11.dtd">
<!-- Generated by graphviz version 2.38.0 (20140413.2041)
 -->
<!-- Title: src/Floor.cpp Pages: 1 -->
<svg width="1124pt" height="252pt"
 viewBox="0.00 0.00 1123.50 252.00" xmlns="http://www.w3.org/2000/svg" xmlns:xlink="http://www.w3.org/1999/xlink">
<g id="graph0" class="graph" transform="scale(1 1) rotate(0) translate(4 248)">
<title>src/Floor.cpp</title>
<polygon fill="white" stroke="none" points="-4,4 -4,-248 1119.5,-248 1119.5,4 -4,4"/>
<!-- Node1 -->
<g id="node1" class="node"><title>Node1</title>
<polygon fill="#bfbfbf" stroke="black" points="576.5,-224.5 576.5,-243.5 661.5,-243.5 661.5,-224.5 576.5,-224.5"/>
<text text-anchor="middle" x="619" y="-231.5" font-family="Ubuntu Mono" font-size="10.00">src/Floor.cpp</text>
</g>
<!-- Node2 -->
<g id="node2" class="node"><title>Node2</title>
<g id="a_node2"><a xlink:href="_floor_8h.html" target="_top" xlink:title="Floor.h">
<polygon fill="white" stroke="black" points="191.5,-168.5 191.5,-187.5 244.5,-187.5 244.5,-168.5 191.5,-168.5"/>
<text text-anchor="middle" x="218" y="-175.5" font-family="Ubuntu Mono" font-size="10.00">Floor.h</text>
</a>
</g>
</g>
<!-- Node1&#45;&gt;Node2 -->
<g id="edge1" class="edge"><title>Node1&#45;&gt;Node2</title>
<path fill="none" stroke="midnightblue" d="M576.466,-227.272C497.505,-216.639 329.53,-194.019 254.974,-183.979"/>
<polygon fill="midnightblue" stroke="midnightblue" points="255.051,-180.458 244.673,-182.592 254.116,-187.395 255.051,-180.458"/>
</g>
<!-- Node6 -->
<g id="node6" class="node"><title>Node6</title>
<g id="a_node6"><a xlink:href="_client_8h.html" target="_top" xlink:title="Client.h">
<polygon fill="white" stroke="black" points="985.5,-168.5 985.5,-187.5 1044.5,-187.5 1044.5,-168.5 985.5,-168.5"/>
<text text-anchor="middle" x="1015" y="-175.5" font-family="Ubuntu Mono" font-size="10.00">Client.h</text>
</a>
</g>
</g>
<!-- Node1&#45;&gt;Node6 -->
<g id="edge5" class="edge"><title>Node1&#45;&gt;Node6</title>
<path fill="none" stroke="midnightblue" d="M661.701,-228.269C727.442,-220.807 857.339,-205.357 967,-188 969.694,-187.574 972.469,-187.112 975.262,-186.631"/>
<polygon fill="midnightblue" stroke="midnightblue" points="976.114,-190.035 985.344,-184.833 974.884,-183.144 976.114,-190.035"/>
</g>
<!-- Node8 -->
<g id="node8" class="node"><title>Node8</title>
<g id="a_node8"><a xlink:href="_direction_8h.html" target="_top" xlink:title="Direction.h">
<polygon fill="white" stroke="black" points="0,-56.5 0,-75.5 74,-75.5 74,-56.5 0,-56.5"/>
<text text-anchor="middle" x="37" y="-63.5" font-family="Ubuntu Mono" font-size="10.00">Direction.h</text>
</a>
</g>
</g>
<!-- Node1&#45;&gt;Node8 -->
<g id="edge8" class="edge"><title>Node1&#45;&gt;Node8</title>
<path fill="none" stroke="midnightblue" d="M576.488,-232.047C456.274,-228.995 120.045,-217.851 81,-188 48.8366,-163.41 40.16,-113.045 37.8359,-85.6873"/>
<polygon fill="midnightblue" stroke="midnightblue" points="41.3161,-85.2669 37.1789,-75.5132 34.3307,-85.718 41.3161,-85.2669"/>
</g>
<!-- Node10 -->
<g id="node10" class="node"><title>Node10</title>
<polygon fill="white" stroke="#bfbfbf" points="181,-0.5 181,-19.5 229,-19.5 229,-0.5 181,-0.5"/>
<text text-anchor="middle" x="205" y="-7.5" font-family="Ubuntu Mono" font-size="10.00">string</text>
</g>
<!-- Node1&#45;&gt;Node10 -->
<g id="edge41" class="edge"><title>Node1&#45;&gt;Node10</title>
<path fill="none" stroke="midnightblue" d="M576.299,-233.05C479.772,-232.463 248.036,-226.917 182,-188 127.246,-155.731 95.2134,-111.036 127,-56 136.608,-39.3642 154.964,-28.3307 171.456,-21.3542"/>
<polygon fill="midnightblue" stroke="midnightblue" points="172.813,-24.5822 180.871,-17.7036 170.282,-18.0557 172.813,-24.5822"/>
</g>
<!-- Node11 -->
<g id="node11" class="node"><title>Node11</title>
<g id="a_node11"><a xlink:href="_elevator_8h.html" target="_top" xlink:title="Elevator.h">
<polygon fill="white" stroke="black" points="521.5,-168.5 521.5,-187.5 590.5,-187.5 590.5,-168.5 521.5,-168.5"/>
<text text-anchor="middle" x="556" y="-175.5" font-family="Ubuntu Mono" font-size="10.00">Elevator.h</text>
</a>
</g>
</g>
<!-- Node1&#45;&gt;Node11 -->
<g id="edge11" class="edge"><title>Node1&#45;&gt;Node11</title>
<path fill="none" stroke="midnightblue" d="M608.878,-224.324C599.474,-216.263 585.256,-204.077 573.931,-194.369"/>
<polygon fill="midnightblue" stroke="midnightblue" points="576.177,-191.684 566.306,-187.834 571.621,-196.999 576.177,-191.684"/>
</g>
<!-- Node13 -->
<g id="node13" class="node"><title>Node13</title>
<polygon fill="white" stroke="#bfbfbf" points="595,-112.5 595,-131.5 643,-131.5 643,-112.5 595,-112.5"/>
<text text-anchor="middle" x="619" y="-119.5" font-family="Ubuntu Mono" font-size="10.00">vector</text>
</g>
<!-- Node1&#45;&gt;Node13 -->
<g id="edge42" class="edge"><title>Node1&#45;&gt;Node13</title>
<path fill="none" stroke="midnightblue" d="M619,-224.368C619,-206.617 619,-165.666 619,-141.597"/>
<polygon fill="midnightblue" stroke="midnightblue" points="622.5,-141.591 619,-131.591 615.5,-141.591 622.5,-141.591"/>
</g>
<!-- Node14 -->
<g id="node14" class="node"><title>Node14</title>
<g id="a_node14"><a xlink:href="_event_factory_8h.html" target="_top" xlink:title="EventFactory.h">
<polygon fill="white" stroke="black" points="868,-168.5 868,-187.5 958,-187.5 958,-168.5 868,-168.5"/>
<text text-anchor="middle" x="913" y="-175.5" font-family="Ubuntu Mono" font-size="10.00">EventFactory.h</text>
</a>
</g>
</g>
<!-- Node1&#45;&gt;Node14 -->
<g id="edge16" class="edge"><title>Node1&#45;&gt;Node14</title>
<path fill="none" stroke="midnightblue" d="M661.75,-225.148C713.582,-215.628 801.04,-199.564 857.889,-189.122"/>
<polygon fill="midnightblue" stroke="midnightblue" points="858.58,-192.554 867.783,-187.305 857.316,-185.669 858.58,-192.554"/>
</g>
<!-- Node16 -->
<g id="node16" class="node"><title>Node16</title>
<g id="a_node16"><a xlink:href="_event_queue_8h.html" target="_top" xlink:title="EventQueue.h">
<polygon fill="white" stroke="black" points="303,-168.5 303,-187.5 383,-187.5 383,-168.5 303,-168.5"/>
<text text-anchor="middle" x="343" y="-175.5" font-family="Ubuntu Mono" font-size="10.00">EventQueue.h</text>
</a>
</g>
</g>
<!-- Node1&#45;&gt;Node16 -->
<g id="edge21" class="edge"><title>Node1&#45;&gt;Node16</title>
<path fill="none" stroke="midnightblue" d="M576.48,-224.681C527.147,-215.029 445.884,-199.13 393.414,-188.864"/>
<polygon fill="midnightblue" stroke="midnightblue" points="393.808,-185.374 383.322,-186.889 392.464,-192.244 393.808,-185.374"/>
</g>
<!-- Node20 -->
<g id="node20" class="node"><title>Node20</title>
<g id="a_node20"><a xlink:href="_scenario_8h.html" target="_top" xlink:title="Scenario.h">
<polygon fill="white" stroke="black" points="647.5,-168.5 647.5,-187.5 716.5,-187.5 716.5,-168.5 647.5,-168.5"/>
<text text-anchor="middle" x="682" y="-175.5" font-family="Ubuntu Mono" font-size="10.00">Scenario.h</text>
</a>
</g>
</g>
<!-- Node1&#45;&gt;Node20 -->
<g id="edge31" class="edge"><title>Node1&#45;&gt;Node20</title>
<path fill="none" stroke="midnightblue" d="M629.122,-224.324C638.526,-216.263 652.744,-204.077 664.069,-194.369"/>
<polygon fill="midnightblue" stroke="midnightblue" points="666.379,-196.999 671.694,-187.834 661.823,-191.684 666.379,-196.999"/>
</g>
<!-- Node22 -->
<g id="node22" class="node"><title>Node22</title>
<g id="a_node22"><a xlink:href="_simulator_8h.html" target="_top" xlink:title="Simulator.h">
<polygon fill="white" stroke="black" points="754,-168.5 754,-187.5 828,-187.5 828,-168.5 754,-168.5"/>
<text text-anchor="middle" x="791" y="-175.5" font-family="Ubuntu Mono" font-size="10.00">Simulator.h</text>
</a>
</g>
</g>
<!-- Node1&#45;&gt;Node22 -->
<g id="edge36" class="edge"><title>Node1&#45;&gt;Node22</title>
<path fill="none" stroke="midnightblue" d="M646.254,-224.444C675.441,-215.28 721.921,-200.688 754.309,-190.519"/>
<polygon fill="midnightblue" stroke="midnightblue" points="755.381,-193.851 763.874,-187.516 753.284,-187.173 755.381,-193.851"/>
</g>
<!-- Node23 -->
<g id="node23" class="node"><title>Node23</title>
<polygon fill="white" stroke="#bfbfbf" points="1062.5,-168.5 1062.5,-187.5 1115.5,-187.5 1115.5,-168.5 1062.5,-168.5"/>
<text text-anchor="middle" x="1089" y="-175.5" font-family="Ubuntu Mono" font-size="10.00">sstream</text>
</g>
<!-- Node1&#45;&gt;Node23 -->
<g id="edge40" class="edge"><title>Node1&#45;&gt;Node23</title>
<path fill="none" stroke="midnightblue" d="M661.591,-230.701C738.063,-226.117 903.785,-214.111 1052.14,-188.106"/>
<polygon fill="midnightblue" stroke="midnightblue" points="1053.1,-191.49 1062.34,-186.292 1051.88,-184.598 1053.1,-191.49"/>
</g>
<!-- Node3 -->
<g id="node3" class="node"><title>Node3</title>
<polygon fill="white" stroke="#bfbfbf" points="588,-56.5 588,-75.5 636,-75.5 636,-56.5 588,-56.5"/>
<text text-anchor="middle" x="612" y="-63.5" font-family="Ubuntu Mono" font-size="10.00">memory</text>
</g>
<!-- Node2&#45;&gt;Node3 -->
<g id="edge2" class="edge"><title>Node2&#45;&gt;Node3</title>
<path fill="none" stroke="midnightblue" d="M197.996,-168.48C172.189,-156.346 132.769,-133.204 152,-112 180.505,-80.57 475.928,-70.3573 577.739,-67.757"/>
<polygon fill="midnightblue" stroke="midnightblue" points="577.889,-71.2545 587.8,-67.509 577.717,-64.2566 577.889,-71.2545"/>
</g>
<!-- Node4 -->
<g id="node4" class="node"><title>Node4</title>
<polygon fill="white" stroke="#bfbfbf" points="321.5,-112.5 321.5,-131.5 364.5,-131.5 364.5,-112.5 321.5,-112.5"/>
<text text-anchor="middle" x="343" y="-119.5" font-family="Ubuntu Mono" font-size="10.00">queue</text>
</g>
<!-- Node2&#45;&gt;Node4 -->
<g id="edge3" class="edge"><title>Node2&#45;&gt;Node4</title>
<path fill="none" stroke="midnightblue" d="M237.807,-168.444C258.287,-159.596 290.483,-145.687 313.865,-135.586"/>
<polygon fill="midnightblue" stroke="midnightblue" points="315.494,-138.695 323.286,-131.516 312.718,-132.269 315.494,-138.695"/>
</g>
<!-- Node5 -->
<g id="node5" class="node"><title>Node5</title>
<polygon fill="white" stroke="#bfbfbf" points="161,-112.5 161,-131.5 193,-131.5 193,-112.5 161,-112.5"/>
<text text-anchor="middle" x="177" y="-119.5" font-family="Ubuntu Mono" font-size="10.00">set</text>
</g>
<!-- Node2&#45;&gt;Node5 -->
<g id="edge4" class="edge"><title>Node2&#45;&gt;Node5</title>
<path fill="none" stroke="midnightblue" d="M211.23,-168.083C205.438,-160.455 196.942,-149.264 189.862,-139.941"/>
<polygon fill="midnightblue" stroke="midnightblue" points="192.479,-137.599 183.644,-131.751 186.904,-141.832 192.479,-137.599"/>
</g>
<!-- Node6&#45;&gt;Node3 -->
<g id="edge7" class="edge"><title>Node6&#45;&gt;Node3</title>
<path fill="none" stroke="midnightblue" d="M1034.22,-168.342C1059,-156.044 1096.81,-132.709 1078,-112 1049.07,-80.1456 749.158,-70.1997 646.354,-67.7134"/>
<polygon fill="midnightblue" stroke="midnightblue" points="646.28,-64.2108 636.201,-67.4768 646.117,-71.2089 646.28,-64.2108"/>
</g>
<!-- Node7 -->
<g id="node7" class="node"><title>Node7</title>
<polygon fill="white" stroke="#bfbfbf" points="979,-112.5 979,-131.5 1069,-131.5 1069,-112.5 979,-112.5"/>
<text text-anchor="middle" x="1024" y="-119.5" font-family="Ubuntu Mono" font-size="10.00">glog/logging.h</text>
</g>
<!-- Node6&#45;&gt;Node7 -->
<g id="edge6" class="edge"><title>Node6&#45;&gt;Node7</title>
<path fill="none" stroke="midnightblue" d="M1016.49,-168.083C1017.68,-160.927 1019.39,-150.635 1020.88,-141.691"/>
<polygon fill="midnightblue" stroke="midnightblue" points="1024.35,-142.19 1022.54,-131.751 1017.45,-141.04 1024.35,-142.19"/>
</g>
<!-- Node9 -->
<g id="node9" class="node"><title>Node9</title>
<polygon fill="white" stroke="#bfbfbf" points="68,-0.5 68,-19.5 132,-19.5 132,-0.5 68,-0.5"/>
<text text-anchor="middle" x="100" y="-7.5" font-family="Ubuntu Mono" font-size="10.00">stdexcept</text>
</g>
<!-- Node8&#45;&gt;Node9 -->
<g id="edge9" class="edge"><title>Node8&#45;&gt;Node9</title>
<path fill="none" stroke="midnightblue" d="M47.122,-56.324C56.5264,-48.2631 70.7441,-36.0765 82.069,-26.3695"/>
<polygon fill="midnightblue" stroke="midnightblue" points="84.379,-28.9993 89.6938,-19.8339 79.8234,-23.6844 84.379,-28.9993"/>
</g>
<!-- Node8&#45;&gt;Node10 -->
<g id="edge10" class="edge"><title>Node8&#45;&gt;Node10</title>
<path fill="none" stroke="midnightblue" d="M63.6201,-56.4435C92.7571,-47.0781 139.538,-32.0415 171.234,-21.8532"/>
<polygon fill="midnightblue" stroke="midnightblue" points="172.505,-25.1213 180.954,-18.729 170.363,-18.4571 172.505,-25.1213"/>
</g>
<!-- Node11&#45;&gt;Node3 -->
<g id="edge13" class="edge"><title>Node11&#45;&gt;Node3</title>
<path fill="none" stroke="midnightblue" d="M559.64,-168.467C565.056,-155.928 575.706,-131.862 586,-112 590.775,-102.788 596.506,-92.7711 601.372,-84.5319"/>
<polygon fill="midnightblue" stroke="midnightblue" points="604.446,-86.2096 606.576,-75.831 598.439,-82.6164 604.446,-86.2096"/>
</g>
<!-- Node11&#45;&gt;Node4 -->
<g id="edge14" class="edge"><title>Node11&#45;&gt;Node4</title>
<path fill="none" stroke="midnightblue" d="M521.342,-168.869C486.652,-160.633 431.527,-147.285 374.552,-132.065"/>
<polygon fill="midnightblue" stroke="midnightblue" points="375.215,-128.619 364.649,-129.405 373.399,-135.379 375.215,-128.619"/>
</g>
<!-- Node12 -->
<g id="node12" class="node"><title>Node12</title>
<polygon fill="white" stroke="#bfbfbf" points="507,-112.5 507,-131.5 539,-131.5 539,-112.5 507,-112.5"/>
<text text-anchor="middle" x="523" y="-119.5" font-family="Ubuntu Mono" font-size="10.00">map</text>
</g>
<!-- Node11&#45;&gt;Node12 -->
<g id="edge12" class="edge"><title>Node11&#45;&gt;Node12</title>
<path fill="none" stroke="midnightblue" d="M550.551,-168.083C545.986,-160.613 539.332,-149.724 533.707,-140.52"/>
<polygon fill="midnightblue" stroke="midnightblue" points="536.549,-138.459 528.348,-131.751 530.576,-142.109 536.549,-138.459"/>
</g>
<!-- Node11&#45;&gt;Node13 -->
<g id="edge15" class="edge"><title>Node11&#45;&gt;Node13</title>
<path fill="none" stroke="midnightblue" d="M566.122,-168.324C575.526,-160.263 589.744,-148.077 601.069,-138.369"/>
<polygon fill="midnightblue" stroke="midnightblue" points="603.379,-140.999 608.694,-131.834 598.823,-135.684 603.379,-140.999"/>
</g>
<!-- Node14&#45;&gt;Node3 -->
<g id="edge18" class="edge"><title>Node14&#45;&gt;Node3</title>
<path fill="none" stroke="midnightblue" d="M913.195,-168.321C913.002,-154.22 910.407,-126.458 894,-112 857.721,-80.0315 713,-70.6541 646.16,-68.0012"/>
<polygon fill="midnightblue" stroke="midnightblue" points="646.252,-64.5024 636.13,-67.6308 645.994,-71.4976 646.252,-64.5024"/>
</g>
<!-- Node14&#45;&gt;Node7 -->
<g id="edge17" class="edge"><title>Node14&#45;&gt;Node7</title>
<path fill="none" stroke="midnightblue" d="M930.834,-168.324C948.716,-159.625 976.475,-146.12 997.046,-136.113"/>
<polygon fill="midnightblue" stroke="midnightblue" points="998.749,-139.177 1006.21,-131.655 995.687,-132.882 998.749,-139.177"/>
</g>
<!-- Node14&#45;&gt;Node10 -->
<g id="edge20" class="edge"><title>Node14&#45;&gt;Node10</title>
<path fill="none" stroke="midnightblue" d="M916.266,-168.319C920.769,-154.71 926.952,-128.232 914,-112 871.246,-58.4199 376.022,-22.2021 239.603,-13.194"/>
<polygon fill="midnightblue" stroke="midnightblue" points="239.532,-9.68196 229.325,-12.5222 239.076,-16.6671 239.532,-9.68196"/>
</g>
<!-- Node15 -->
<g id="node15" class="node"><title>Node15</title>
<polygon fill="white" stroke="#bfbfbf" points="837,-112.5 837,-131.5 885,-131.5 885,-112.5 837,-112.5"/>
<text text-anchor="middle" x="861" y="-119.5" font-family="Ubuntu Mono" font-size="10.00">random</text>
</g>
<!-- Node14&#45;&gt;Node15 -->
<g id="edge19" class="edge"><title>Node14&#45;&gt;Node15</title>
<path fill="none" stroke="midnightblue" d="M904.413,-168.083C896.841,-160.22 885.622,-148.569 876.486,-139.081"/>
<polygon fill="midnightblue" stroke="midnightblue" points="878.885,-136.527 869.427,-131.751 873.842,-141.382 878.885,-136.527"/>
</g>
<!-- Node16&#45;&gt;Node3 -->
<g id="edge29" class="edge"><title>Node16&#45;&gt;Node3</title>
<path fill="none" stroke="midnightblue" d="M333.005,-168.168C319.084,-154.821 297.151,-129.242 312,-112 345.915,-72.618 505.853,-67.2129 577.336,-66.8028"/>
<polygon fill="midnightblue" stroke="midnightblue" points="577.626,-70.3022 587.616,-66.7752 577.607,-63.3022 577.626,-70.3022"/>
</g>
<!-- Node16&#45;&gt;Node4 -->
<g id="edge30" class="edge"><title>Node16&#45;&gt;Node4</title>
<path fill="none" stroke="midnightblue" d="M343,-168.083C343,-161.006 343,-150.861 343,-141.986"/>
<polygon fill="midnightblue" stroke="midnightblue" points="346.5,-141.751 343,-131.751 339.5,-141.751 346.5,-141.751"/>
</g>
<!-- Node17 -->
<g id="node17" class="node"><title>Node17</title>
<g id="a_node17"><a xlink:href="_event_8h.html" target="_top" xlink:title="Event.h">
<polygon fill="white" stroke="black" points="211.5,-112.5 211.5,-131.5 264.5,-131.5 264.5,-112.5 211.5,-112.5"/>
<text text-anchor="middle" x="238" y="-119.5" font-family="Ubuntu Mono" font-size="10.00">Event.h</text>
</a>
</g>
</g>
<!-- Node16&#45;&gt;Node17 -->
<g id="edge22" class="edge"><title>Node16&#45;&gt;Node17</title>
<path fill="none" stroke="midnightblue" d="M326.13,-168.324C309.291,-159.664 283.193,-146.242 263.762,-136.249"/>
<polygon fill="midnightblue" stroke="midnightblue" points="265.322,-133.116 254.828,-131.655 262.12,-139.341 265.322,-133.116"/>
</g>
<!-- Node19 -->
<g id="node19" class="node"><title>Node19</title>
<g id="a_node19"><a xlink:href="_event_comparator_8h.html" target="_top" xlink:title="EventComparator.h">
<polygon fill="white" stroke="black" points="383,-112.5 383,-131.5 489,-131.5 489,-112.5 383,-112.5"/>
<text text-anchor="middle" x="436" y="-119.5" font-family="Ubuntu Mono" font-size="10.00">EventComparator.h</text>
</a>
</g>
</g>
<!-- Node16&#45;&gt;Node19 -->
<g id="edge27" class="edge"><title>Node16&#45;&gt;Node19</title>
<path fill="none" stroke="midnightblue" d="M357.942,-168.324C372.585,-159.822 395.134,-146.729 412.238,-136.797"/>
<polygon fill="midnightblue" stroke="midnightblue" points="414.205,-139.703 421.095,-131.655 410.69,-133.649 414.205,-139.703"/>
</g>
<!-- Node17&#45;&gt;Node10 -->
<g id="edge26" class="edge"><title>Node17&#45;&gt;Node10</title>
<path fill="none" stroke="midnightblue" d="M235.467,-112.154C231.869,-99.634 225.044,-76.0355 219,-56 216.338,-47.1767 213.308,-37.4058 210.75,-29.2295"/>
<polygon fill="midnightblue" stroke="midnightblue" points="214.065,-28.1042 207.728,-19.6133 207.387,-30.2026 214.065,-28.1042"/>
</g>
<!-- Node18 -->
<g id="node18" class="node"><title>Node18</title>
<g id="a_node18"><a xlink:href="_event_type_8h.html" target="_top" xlink:title="EventType.h">
<polygon fill="white" stroke="black" points="136,-56.5 136,-75.5 210,-75.5 210,-56.5 136,-56.5"/>
<text text-anchor="middle" x="173" y="-63.5" font-family="Ubuntu Mono" font-size="10.00">EventType.h</text>
</a>
</g>
</g>
<!-- Node17&#45;&gt;Node18 -->
<g id="edge23" class="edge"><title>Node17&#45;&gt;Node18</title>
<path fill="none" stroke="midnightblue" d="M227.557,-112.324C217.854,-104.263 203.185,-92.0765 191.5,-82.3695"/>
<polygon fill="midnightblue" stroke="midnightblue" points="193.562,-79.532 183.633,-75.8339 189.089,-84.9163 193.562,-79.532"/>
</g>
<!-- Node18&#45;&gt;Node9 -->
<g id="edge24" class="edge"><title>Node18&#45;&gt;Node9</title>
<path fill="none" stroke="midnightblue" d="M161.271,-56.324C150.163,-48.1066 133.258,-35.6017 120.017,-25.8069"/>
<polygon fill="midnightblue" stroke="midnightblue" points="122.063,-22.9671 111.942,-19.8339 117.9,-28.5948 122.063,-22.9671"/>
</g>
<!-- Node18&#45;&gt;Node10 -->
<g id="edge25" class="edge"><title>Node18&#45;&gt;Node10</title>
<path fill="none" stroke="midnightblue" d="M178.284,-56.083C182.711,-48.6127 189.163,-37.7244 194.618,-28.5199"/>
<polygon fill="midnightblue" stroke="midnightblue" points="197.727,-30.1383 199.814,-19.7511 191.705,-26.5697 197.727,-30.1383"/>
</g>
<!-- Node19&#45;&gt;Node3 -->
<g id="edge28" class="edge"><title>Node19&#45;&gt;Node3</title>
<path fill="none" stroke="midnightblue" d="M463.888,-112.444C494.896,-102.93 544.977,-87.5637 578.192,-77.3728"/>
<polygon fill="midnightblue" stroke="midnightblue" points="579.386,-80.6678 587.919,-74.3884 577.332,-73.9757 579.386,-80.6678"/>
</g>
<!-- Node20&#45;&gt;Node3 -->
<g id="edge33" class="edge"><title>Node20&#45;&gt;Node3</title>
<path fill="none" stroke="midnightblue" d="M678.877,-168.165C674.106,-155.249 664.251,-130.719 652,-112 645.217,-101.636 636.143,-91.2246 628.352,-83.0306"/>
<polygon fill="midnightblue" stroke="midnightblue" points="630.623,-80.3473 621.121,-75.6594 625.625,-85.2492 630.623,-80.3473"/>
</g>
<!-- Node20&#45;&gt;Node10 -->
<g id="edge34" class="edge"><title>Node20&#45;&gt;Node10</title>
<path fill="none" stroke="midnightblue" d="M682.544,-168.268C683.442,-145.109 682.226,-82.1137 645,-56 579.77,-10.2414 331.135,-9.09981 239.328,-10.3077"/>
<polygon fill="midnightblue" stroke="midnightblue" points="239.128,-6.81019 229.181,-10.4596 239.233,-13.8094 239.128,-6.81019"/>
</g>
<!-- Node20&#45;&gt;Node13 -->
<g id="edge35" class="edge"><title>Node20&#45;&gt;Node13</title>
<path fill="none" stroke="midnightblue" d="M671.878,-168.324C662.474,-160.263 648.256,-148.077 636.931,-138.369"/>
<polygon fill="midnightblue" stroke="midnightblue" points="639.177,-135.684 629.306,-131.834 634.621,-140.999 639.177,-135.684"/>
</g>
<!-- Node21 -->
<g id="node21" class="node"><title>Node21</title>
<polygon fill="white" stroke="#bfbfbf" points="737.5,-112.5 737.5,-131.5 780.5,-131.5 780.5,-112.5 737.5,-112.5"/>
<text text-anchor="middle" x="759" y="-119.5" font-family="Ubuntu Mono" font-size="10.00">ctime</text>
</g>
<!-- Node20&#45;&gt;Node21 -->
<g id="edge32" class="edge"><title>Node20&#45;&gt;Node21</title>
<path fill="none" stroke="midnightblue" d="M694.371,-168.324C706.158,-160.058 724.132,-147.453 738.136,-137.632"/>
<polygon fill="midnightblue" stroke="midnightblue" points="740.482,-140.262 746.659,-131.655 736.462,-134.531 740.482,-140.262"/>
</g>
<!-- Node22&#45;&gt;Node3 -->
<g id="edge38" class="edge"><title>Node22&#45;&gt;Node3</title>
<path fill="none" stroke="midnightblue" d="M793.865,-168.332C797.764,-154.74 802.884,-128.286 790,-112 772.35,-89.6888 692.774,-76.6132 646.21,-70.7411"/>
<polygon fill="midnightblue" stroke="midnightblue" points="646.602,-67.2631 636.253,-69.5315 645.758,-74.212 646.602,-67.2631"/>
</g>
<!-- Node22&#45;&gt;Node15 -->
<g id="edge39" class="edge"><title>Node22&#45;&gt;Node15</title>
<path fill="none" stroke="midnightblue" d="M802.247,-168.324C812.797,-160.185 828.801,-147.839 841.442,-138.087"/>
<polygon fill="midnightblue" stroke="midnightblue" points="843.769,-140.713 849.549,-131.834 839.493,-135.171 843.769,-140.713"/>
</g>
<!-- Node22&#45;&gt;Node21 -->
<g id="edge37" class="edge"><title>Node22&#45;&gt;Node21</title>
<path fill="none" stroke="midnightblue" d="M785.716,-168.083C781.289,-160.613 774.837,-149.724 769.382,-140.52"/>
<polygon fill="midnightblue" stroke="midnightblue" points="772.295,-138.57 764.186,-131.751 766.273,-142.138 772.295,-138.57"/>
</g>
</g>
</svg>
