<?xml version="1.0" encoding="UTF-8" standalone="no"?>
<!DOCTYPE svg PUBLIC "-//W3C//DTD SVG 1.1//EN"
 "http://www.w3.org/Graphics/SVG/1.1/DTD/svg11.dtd">
<!-- Generated by graphviz version 2.38.0 (20140413.2041)
 -->
<!-- Title: include/Floor.h Pages: 1 -->
<svg width="1622pt" height="95pt"
 viewBox="0.00 0.00 1621.50 95.00" xmlns="http://www.w3.org/2000/svg" xmlns:xlink="http://www.w3.org/1999/xlink">
<g id="graph0" class="graph" transform="scale(1 1) rotate(0) translate(4 91)">
<title>include/Floor.h</title>
<polygon fill="white" stroke="none" points="-4,4 -4,-91 1617.5,-91 1617.5,4 -4,4"/>
<!-- Node1 -->
<g id="node1" class="node"><title>Node1</title>
<polygon fill="#bfbfbf" stroke="black" points="748,-67.5 748,-86.5 843,-86.5 843,-67.5 748,-67.5"/>
<text text-anchor="middle" x="795.5" y="-74.5" font-family="Ubuntu Mono" font-size="10.00">include/Floor.h</text>
</g>
<!-- Node2 -->
<g id="node2" class="node"><title>Node2</title>
<g id="a_node2"><a xlink:href="_better_nearest_neighbour_cost_function_8cpp.html" target="_top" xlink:title="src/BetterNearestNeighbour\lCostFunction.cpp">
<polygon fill="white" stroke="black" points="0,-0.5 0,-30.5 153,-30.5 153,-0.5 0,-0.5"/>
<text text-anchor="start" x="8" y="-18.5" font-family="Ubuntu Mono" font-size="10.00">src/BetterNearestNeighbour</text>
<text text-anchor="middle" x="76.5" y="-7.5" font-family="Ubuntu Mono" font-size="10.00">CostFunction.cpp</text>
</a>
</g>
</g>
<!-- Node1&#45;&gt;Node2 -->
<g id="edge1" class="edge"><title>Node1&#45;&gt;Node2</title>
<path fill="none" stroke="midnightblue" d="M737.582,-73.7923C625.853,-69.1126 372.912,-56.4728 161.5,-31 158.825,-30.6777 156.105,-30.329 153.362,-29.9592"/>
<polygon fill="midnightblue" stroke="midnightblue" points="737.492,-77.2915 747.628,-74.2075 737.781,-70.2975 737.492,-77.2915"/>
</g>
<!-- Node3 -->
<g id="node3" class="node"><title>Node3</title>
<g id="a_node3"><a xlink:href="_building_8cpp.html" target="_top" xlink:title="src/Building.cpp">
<polygon fill="white" stroke="black" points="171,-6 171,-25 272,-25 272,-6 171,-6"/>
<text text-anchor="middle" x="221.5" y="-13" font-family="Ubuntu Mono" font-size="10.00">src/Building.cpp</text>
</a>
</g>
</g>
<!-- Node1&#45;&gt;Node3 -->
<g id="edge2" class="edge"><title>Node1&#45;&gt;Node3</title>
<path fill="none" stroke="midnightblue" d="M737.694,-73.7637C642.192,-69.4384 445.69,-57.8715 281.5,-31 272.193,-29.4768 262.195,-27.2875 253.081,-25.0699"/>
<polygon fill="midnightblue" stroke="midnightblue" points="737.58,-77.262 747.725,-74.2081 737.889,-70.2689 737.58,-77.262"/>
</g>
<!-- Node4 -->
<g id="node4" class="node"><title>Node4</title>
<g id="a_node4"><a xlink:href="_client_8cpp.html" target="_top" xlink:title="src/Client.cpp">
<polygon fill="white" stroke="black" points="290.5,-6 290.5,-25 380.5,-25 380.5,-6 290.5,-6"/>
<text text-anchor="middle" x="335.5" y="-13" font-family="Ubuntu Mono" font-size="10.00">src/Client.cpp</text>
</a>
</g>
</g>
<!-- Node1&#45;&gt;Node4 -->
<g id="edge3" class="edge"><title>Node1&#45;&gt;Node4</title>
<path fill="none" stroke="midnightblue" d="M737.718,-72.37C658.609,-66.7709 512.386,-54.1698 389.5,-31 381.201,-29.4353 372.306,-27.2594 364.179,-25.0685"/>
<polygon fill="midnightblue" stroke="midnightblue" points="737.74,-75.8799 747.959,-73.0821 738.226,-68.8968 737.74,-75.8799"/>
</g>
<!-- Node5 -->
<g id="node5" class="node"><title>Node5</title>
<g id="a_node5"><a xlink:href="_event_factory_8cpp.html" target="_top" xlink:title="src/EventFactory.cpp">
<polygon fill="white" stroke="black" points="398.5,-6 398.5,-25 520.5,-25 520.5,-6 398.5,-6"/>
<text text-anchor="middle" x="459.5" y="-13" font-family="Ubuntu Mono" font-size="10.00">src/EventFactory.cpp</text>
</a>
</g>
</g>
<!-- Node1&#45;&gt;Node5 -->
<g id="edge4" class="edge"><title>Node1&#45;&gt;Node5</title>
<path fill="none" stroke="midnightblue" d="M737.774,-66.8606C683.82,-58.1701 601.067,-44.4611 529.5,-31 519.742,-29.1647 509.247,-27.0604 499.429,-25.0345"/>
<polygon fill="midnightblue" stroke="midnightblue" points="737.408,-70.3465 747.836,-68.4769 738.518,-63.4351 737.408,-70.3465"/>
</g>
<!-- Node6 -->
<g id="node6" class="node"><title>Node6</title>
<g id="a_node6"><a xlink:href="_floor_8cpp.html" target="_top" xlink:title="src/Floor.cpp">
<polygon fill="white" stroke="black" points="539,-6 539,-25 624,-25 624,-6 539,-6"/>
<text text-anchor="middle" x="581.5" y="-13" font-family="Ubuntu Mono" font-size="10.00">src/Floor.cpp</text>
</a>
</g>
</g>
<!-- Node1&#45;&gt;Node6 -->
<g id="edge5" class="edge"><title>Node1&#45;&gt;Node6</title>
<path fill="none" stroke="midnightblue" d="M754.487,-64.7707C721.511,-55.7192 674.002,-42.6284 632.5,-31 625.675,-29.0877 618.342,-27.0139 611.423,-25.0489"/>
<polygon fill="midnightblue" stroke="midnightblue" points="753.662,-68.1737 764.232,-67.444 755.514,-61.4231 753.662,-68.1737"/>
</g>
<!-- Node7 -->
<g id="node7" class="node"><title>Node7</title>
<g id="a_node7"><a xlink:href="_nearest_neighbour_cost_function_8cpp.html" target="_top" xlink:title="src/NearestNeighbourCost\lFunction.cpp">
<polygon fill="white" stroke="black" points="642,-0.5 642,-30.5 785,-30.5 785,-0.5 642,-0.5"/>
<text text-anchor="start" x="650" y="-18.5" font-family="Ubuntu Mono" font-size="10.00">src/NearestNeighbourCost</text>
<text text-anchor="middle" x="713.5" y="-7.5" font-family="Ubuntu Mono" font-size="10.00">Function.cpp</text>
</a>
</g>
</g>
<!-- Node1&#45;&gt;Node7 -->
<g id="edge6" class="edge"><title>Node1&#45;&gt;Node7</title>
<path fill="none" stroke="midnightblue" d="M775.473,-61.468C762.49,-52.0474 745.667,-39.8408 732.826,-30.523"/>
<polygon fill="midnightblue" stroke="midnightblue" points="773.602,-64.435 783.751,-67.4751 777.713,-58.7693 773.602,-64.435"/>
</g>
<!-- Node8 -->
<g id="node8" class="node"><title>Node8</title>
<g id="a_node8"><a xlink:href="_planning_scheduler_8cpp.html" target="_top" xlink:title="src/PlanningScheduler.cpp">
<polygon fill="white" stroke="black" points="803.5,-6 803.5,-25 951.5,-25 951.5,-6 803.5,-6"/>
<text text-anchor="middle" x="877.5" y="-13" font-family="Ubuntu Mono" font-size="10.00">src/PlanningScheduler.cpp</text>
</a>
</g>
</g>
<!-- Node1&#45;&gt;Node8 -->
<g id="edge7" class="edge"><title>Node1&#45;&gt;Node8</title>
<path fill="none" stroke="midnightblue" d="M815.767,-61.2938C831.497,-49.8803 852.752,-34.4577 865.773,-25.0091"/>
<polygon fill="midnightblue" stroke="midnightblue" points="813.287,-58.7693 807.249,-67.4751 817.398,-64.435 813.287,-58.7693"/>
</g>
<!-- Node9 -->
<g id="node9" class="node"><title>Node9</title>
<g id="a_node9"><a xlink:href="_scenario_8cpp.html" target="_top" xlink:title="src/Scenario.cpp">
<polygon fill="white" stroke="black" points="970,-6 970,-25 1071,-25 1071,-6 970,-6"/>
<text text-anchor="middle" x="1020.5" y="-13" font-family="Ubuntu Mono" font-size="10.00">src/Scenario.cpp</text>
</a>
</g>
</g>
<!-- Node1&#45;&gt;Node9 -->
<g id="edge8" class="edge"><title>Node1&#45;&gt;Node9</title>
<path fill="none" stroke="midnightblue" d="M837.492,-64.8956C881.191,-53.3396 948.669,-35.4952 988.323,-25.0091"/>
<polygon fill="midnightblue" stroke="midnightblue" points="836.51,-61.5348 827.737,-67.4751 838.3,-68.3022 836.51,-61.5348"/>
</g>
<!-- Node10 -->
<g id="node10" class="node"><title>Node10</title>
<g id="a_node10"><a xlink:href="_simple_scheduler_8cpp.html" target="_top" xlink:title="src/SimpleScheduler.cpp">
<polygon fill="white" stroke="black" points="1089,-6 1089,-25 1226,-25 1226,-6 1089,-6"/>
<text text-anchor="middle" x="1157.5" y="-13" font-family="Ubuntu Mono" font-size="10.00">src/SimpleScheduler.cpp</text>
</a>
</g>
</g>
<!-- Node1&#45;&gt;Node10 -->
<g id="edge9" class="edge"><title>Node1&#45;&gt;Node10</title>
<path fill="none" stroke="midnightblue" d="M853.234,-67.3955C910.867,-58.6857 1001.93,-44.5985 1080.5,-31 1091.22,-29.1442 1102.76,-27.0323 1113.56,-25.0055"/>
<polygon fill="midnightblue" stroke="midnightblue" points="852.591,-63.9528 843.224,-68.9049 853.634,-70.8746 852.591,-63.9528"/>
</g>
<!-- Node11 -->
<g id="node11" class="node"><title>Node11</title>
<g id="a_node11"><a xlink:href="_simulator_8cpp.html" target="_top" xlink:title="src/Simulator.cpp">
<polygon fill="white" stroke="black" points="1244.5,-6 1244.5,-25 1350.5,-25 1350.5,-6 1244.5,-6"/>
<text text-anchor="middle" x="1297.5" y="-13" font-family="Ubuntu Mono" font-size="10.00">src/Simulator.cpp</text>
</a>
</g>
</g>
<!-- Node1&#45;&gt;Node11 -->
<g id="edge10" class="edge"><title>Node1&#45;&gt;Node11</title>
<path fill="none" stroke="midnightblue" d="M853.455,-72.4428C937.908,-66.7238 1099.55,-53.7539 1235.5,-31 1244.99,-29.4125 1255.18,-27.2293 1264.52,-25.0387"/>
<polygon fill="midnightblue" stroke="midnightblue" points="853.042,-68.9624 843.298,-73.1208 853.509,-75.9469 853.042,-68.9624"/>
</g>
<!-- Node12 -->
<g id="node12" class="node"><title>Node12</title>
<g id="a_node12"><a xlink:href="_statistics_8cpp.html" target="_top" xlink:title="src/Statistics.cpp">
<polygon fill="white" stroke="black" points="1368,-6 1368,-25 1479,-25 1479,-6 1368,-6"/>
<text text-anchor="middle" x="1423.5" y="-13" font-family="Ubuntu Mono" font-size="10.00">src/Statistics.cpp</text>
</a>
</g>
</g>
<!-- Node1&#45;&gt;Node12 -->
<g id="edge11" class="edge"><title>Node1&#45;&gt;Node12</title>
<path fill="none" stroke="midnightblue" d="M853.447,-74.1135C955.998,-70.1668 1175.96,-58.9667 1359.5,-31 1369.52,-29.4726 1380.31,-27.2547 1390.12,-25.011"/>
<polygon fill="midnightblue" stroke="midnightblue" points="853.164,-70.6216 843.302,-74.4949 853.427,-77.6166 853.164,-70.6216"/>
</g>
<!-- Node13 -->
<g id="node13" class="node"><title>Node13</title>
<g id="a_node13"><a xlink:href="_stop_manager_8cpp.html" target="_top" xlink:title="src/StopManager.cpp">
<polygon fill="white" stroke="black" points="1497.5,-6 1497.5,-25 1613.5,-25 1613.5,-6 1497.5,-6"/>
<text text-anchor="middle" x="1555.5" y="-13" font-family="Ubuntu Mono" font-size="10.00">src/StopManager.cpp</text>
</a>
</g>
</g>
<!-- Node1&#45;&gt;Node13 -->
<g id="edge12" class="edge"><title>Node1&#45;&gt;Node13</title>
<path fill="none" stroke="midnightblue" d="M853.225,-75.1394C972.47,-72.7276 1254.43,-63.7445 1488.5,-31 1499.11,-29.5161 1510.54,-27.2834 1520.9,-25.0118"/>
<polygon fill="midnightblue" stroke="midnightblue" points="853.149,-71.6401 843.219,-75.334 853.285,-78.6388 853.149,-71.6401"/>
</g>
</g>
</svg>
