<?xml version="1.0" encoding="UTF-8" standalone="no"?>
<!DOCTYPE svg PUBLIC "-//W3C//DTD SVG 1.1//EN"
 "http://www.w3.org/Graphics/SVG/1.1/DTD/svg11.dtd">
<!-- Generated by graphviz version 2.38.0 (20140413.2041)
 -->
<!-- Title: include/Floor.h Pages: 1 -->
<svg width="168pt" height="84pt"
 viewBox="0.00 0.00 168.00 84.00" xmlns="http://www.w3.org/2000/svg" xmlns:xlink="http://www.w3.org/1999/xlink">
<g id="graph0" class="graph" transform="scale(1 1) rotate(0) translate(4 80)">
<title>include/Floor.h</title>
<polygon fill="white" stroke="none" points="-4,4 -4,-80 164,-80 164,4 -4,4"/>
<!-- Node1 -->
<g id="node1" class="node"><title>Node1</title>
<polygon fill="#bfbfbf" stroke="black" points="40.5,-56.5 40.5,-75.5 135.5,-75.5 135.5,-56.5 40.5,-56.5"/>
<text text-anchor="middle" x="88" y="-63.5" font-family="Ubuntu Mono" font-size="10.00">include/Floor.h</text>
</g>
<!-- Node2 -->
<g id="node2" class="node"><title>Node2</title>
<polygon fill="white" stroke="#bfbfbf" points="0,-0.5 0,-19.5 48,-19.5 48,-0.5 0,-0.5"/>
<text text-anchor="middle" x="24" y="-7.5" font-family="Ubuntu Mono" font-size="10.00">memory</text>
</g>
<!-- Node1&#45;&gt;Node2 -->
<g id="edge1" class="edge"><title>Node1&#45;&gt;Node2</title>
<path fill="none" stroke="midnightblue" d="M77.7173,-56.324C68.1637,-48.2631 53.7203,-36.0765 42.2157,-26.3695"/>
<polygon fill="midnightblue" stroke="midnightblue" points="44.3698,-23.6076 34.4698,-19.8339 39.8557,-28.9577 44.3698,-23.6076"/>
</g>
<!-- Node3 -->
<g id="node3" class="node"><title>Node3</title>
<polygon fill="white" stroke="#bfbfbf" points="66.5,-0.5 66.5,-19.5 109.5,-19.5 109.5,-0.5 66.5,-0.5"/>
<text text-anchor="middle" x="88" y="-7.5" font-family="Ubuntu Mono" font-size="10.00">queue</text>
</g>
<!-- Node1&#45;&gt;Node3 -->
<g id="edge2" class="edge"><title>Node1&#45;&gt;Node3</title>
<path fill="none" stroke="midnightblue" d="M88,-56.083C88,-49.0059 88,-38.8611 88,-29.9865"/>
<polygon fill="midnightblue" stroke="midnightblue" points="91.5001,-29.751 88,-19.7511 84.5001,-29.7511 91.5001,-29.751"/>
</g>
<!-- Node4 -->
<g id="node4" class="node"><title>Node4</title>
<polygon fill="white" stroke="#bfbfbf" points="128,-0.5 128,-19.5 160,-19.5 160,-0.5 128,-0.5"/>
<text text-anchor="middle" x="144" y="-7.5" font-family="Ubuntu Mono" font-size="10.00">set</text>
</g>
<!-- Node1&#45;&gt;Node4 -->
<g id="edge3" class="edge"><title>Node1&#45;&gt;Node4</title>
<path fill="none" stroke="midnightblue" d="M96.9974,-56.324C105.194,-48.4196 117.506,-36.5482 127.472,-26.9377"/>
<polygon fill="midnightblue" stroke="midnightblue" points="130.07,-29.2947 134.839,-19.8339 125.211,-24.2558 130.07,-29.2947"/>
</g>
</g>
</svg>
