<?xml version="1.0" encoding="UTF-8" standalone="no"?>
<!DOCTYPE svg PUBLIC "-//W3C//DTD SVG 1.1//EN"
 "http://www.w3.org/Graphics/SVG/1.1/DTD/svg11.dtd">
<!-- Generated by graphviz version 2.38.0 (20140413.2041)
 -->
<!-- Title: include/Floor.h Pages: 1 -->
<svg width="1450pt" height="151pt"
 viewBox="0.00 0.00 1450.00 151.00" xmlns="http://www.w3.org/2000/svg" xmlns:xlink="http://www.w3.org/1999/xlink">
<g id="graph0" class="graph" transform="scale(1 1) rotate(0) translate(4 147)">
<title>include/Floor.h</title>
<polygon fill="white" stroke="none" points="-4,4 -4,-147 1446,-147 1446,4 -4,4"/>
<!-- Node1 -->
<g id="node1" class="node"><title>Node1</title>
<polygon fill="#bfbfbf" stroke="black" points="688,-123.5 688,-142.5 768,-142.5 768,-123.5 688,-123.5"/>
<text text-anchor="middle" x="728" y="-130.5" font-family="Helvetica,sans-Serif" font-size="10.00">include/Floor.h</text>
</g>
<!-- Node2 -->
<g id="node2" class="node"><title>Node2</title>
<g id="a_node2"><a xlink:href="_better_nearest_neighbour_cost_function_8cpp.html" target="_top" xlink:title="src/BetterNearestNeighbour\lCostFunction.cpp">
<polygon fill="white" stroke="black" points="0,-56.5 0,-86.5 138,-86.5 138,-56.5 0,-56.5"/>
<text text-anchor="start" x="8" y="-74.5" font-family="Helvetica,sans-Serif" font-size="10.00">src/BetterNearestNeighbour</text>
<text text-anchor="middle" x="69" y="-63.5" font-family="Helvetica,sans-Serif" font-size="10.00">CostFunction.cpp</text>
</a>
</g>
</g>
<!-- Node1&#45;&gt;Node2 -->
<g id="edge1" class="edge"><title>Node1&#45;&gt;Node2</title>
<path fill="none" stroke="midnightblue" d="M677.558,-129.673C577.185,-124.688 345.431,-111.396 152,-87 147.501,-86.4326 142.874,-85.7899 138.217,-85.0986"/>
<polygon fill="midnightblue" stroke="midnightblue" points="677.554,-133.177 687.713,-130.172 677.897,-126.186 677.554,-133.177"/>
</g>
<!-- Node3 -->
<g id="node3" class="node"><title>Node3</title>
<g id="a_node3"><a xlink:href="_building_8cpp.html" target="_top" xlink:title="src/Building.cpp">
<polygon fill="white" stroke="black" points="654,-0.5 654,-19.5 740,-19.5 740,-0.5 654,-0.5"/>
<text text-anchor="middle" x="697" y="-7.5" font-family="Helvetica,sans-Serif" font-size="10.00">src/Building.cpp</text>
</a>
</g>
</g>
<!-- Node1&#45;&gt;Node3 -->
<g id="edge2" class="edge"><title>Node1&#45;&gt;Node3</title>
<path fill="none" stroke="midnightblue" d="M677.651,-131.622C549.364,-130.136 217.988,-122.835 185,-87 175.669,-76.8633 175.694,-66.1599 185,-56 216.416,-21.7015 536.285,-13.422 653.905,-11.5304"/>
<polygon fill="midnightblue" stroke="midnightblue" points="677.94,-135.125 687.978,-131.734 678.016,-128.125 677.94,-135.125"/>
</g>
<!-- Node4 -->
<g id="node4" class="node"><title>Node4</title>
<g id="a_node4"><a xlink:href="_client_8cpp.html" target="_top" xlink:title="src/Client.cpp">
<polygon fill="white" stroke="black" points="194.5,-62 194.5,-81 271.5,-81 271.5,-62 194.5,-62"/>
<text text-anchor="middle" x="233" y="-69" font-family="Helvetica,sans-Serif" font-size="10.00">src/Client.cpp</text>
</a>
</g>
</g>
<!-- Node1&#45;&gt;Node4 -->
<g id="edge3" class="edge"><title>Node1&#45;&gt;Node4</title>
<path fill="none" stroke="midnightblue" d="M677.661,-130.098C594.41,-126.249 423.121,-115.344 281,-87 273.487,-85.5017 265.468,-83.3201 258.177,-81.1021"/>
<polygon fill="midnightblue" stroke="midnightblue" points="677.704,-133.604 687.851,-130.554 678.017,-126.611 677.704,-133.604"/>
</g>
<!-- Node5 -->
<g id="node5" class="node"><title>Node5</title>
<g id="a_node5"><a xlink:href="_event_factory_8cpp.html" target="_top" xlink:title="src/EventFactory.cpp">
<polygon fill="white" stroke="black" points="290,-62 290,-81 400,-81 400,-62 290,-62"/>
<text text-anchor="middle" x="345" y="-69" font-family="Helvetica,sans-Serif" font-size="10.00">src/EventFactory.cpp</text>
</a>
</g>
</g>
<!-- Node1&#45;&gt;Node5 -->
<g id="edge4" class="edge"><title>Node1&#45;&gt;Node5</title>
<path fill="none" stroke="midnightblue" d="M677.726,-126.212C614.697,-118.656 503.451,-104.331 409,-87 399.587,-85.2729 389.461,-83.118 380.103,-81.0021"/>
<polygon fill="midnightblue" stroke="midnightblue" points="677.45,-129.704 687.793,-127.41 678.277,-122.753 677.45,-129.704"/>
</g>
<!-- Node6 -->
<g id="node6" class="node"><title>Node6</title>
<g id="a_node6"><a xlink:href="_floor_8cpp.html" target="_top" xlink:title="src/Floor.cpp">
<polygon fill="white" stroke="black" points="418,-62 418,-81 492,-81 492,-62 418,-62"/>
<text text-anchor="middle" x="455" y="-69" font-family="Helvetica,sans-Serif" font-size="10.00">src/Floor.cpp</text>
</a>
</g>
</g>
<!-- Node1&#45;&gt;Node6 -->
<g id="edge5" class="edge"><title>Node1&#45;&gt;Node6</title>
<path fill="none" stroke="midnightblue" d="M677.866,-123.691C631.632,-115.643 561.249,-102.418 501,-87 494.348,-85.2977 487.238,-83.1983 480.646,-81.1307"/>
<polygon fill="midnightblue" stroke="midnightblue" points="677.477,-127.175 687.927,-125.426 678.667,-120.277 677.477,-127.175"/>
</g>
<!-- Node7 -->
<g id="node7" class="node"><title>Node7</title>
<g id="a_node7"><a xlink:href="_nearest_neighbour_cost_function_8cpp.html" target="_top" xlink:title="src/NearestNeighbourCost\lFunction.cpp">
<polygon fill="white" stroke="black" points="510.5,-56.5 510.5,-86.5 643.5,-86.5 643.5,-56.5 510.5,-56.5"/>
<text text-anchor="start" x="518.5" y="-74.5" font-family="Helvetica,sans-Serif" font-size="10.00">src/NearestNeighbourCost</text>
<text text-anchor="middle" x="577" y="-63.5" font-family="Helvetica,sans-Serif" font-size="10.00">Function.cpp</text>
</a>
</g>
</g>
<!-- Node1&#45;&gt;Node7 -->
<g id="edge6" class="edge"><title>Node1&#45;&gt;Node7</title>
<path fill="none" stroke="midnightblue" d="M696.833,-119.719C672.325,-110.062 638.167,-96.6023 612.588,-86.523"/>
<polygon fill="midnightblue" stroke="midnightblue" points="695.778,-123.065 706.365,-123.475 698.345,-116.553 695.778,-123.065"/>
</g>
<!-- Node8 -->
<g id="node8" class="node"><title>Node8</title>
<g id="a_node8"><a xlink:href="_planning_scheduler_8cpp.html" target="_top" xlink:title="src/PlanningScheduler.cpp">
<polygon fill="white" stroke="black" points="661.5,-62 661.5,-81 794.5,-81 794.5,-62 661.5,-62"/>
<text text-anchor="middle" x="728" y="-69" font-family="Helvetica,sans-Serif" font-size="10.00">src/PlanningScheduler.cpp</text>
</a>
</g>
</g>
<!-- Node1&#45;&gt;Node8 -->
<g id="edge7" class="edge"><title>Node1&#45;&gt;Node8</title>
<path fill="none" stroke="midnightblue" d="M728,-113.317C728,-102.496 728,-89.398 728,-81.0091"/>
<polygon fill="midnightblue" stroke="midnightblue" points="724.5,-113.475 728,-123.475 731.5,-113.475 724.5,-113.475"/>
</g>
<!-- Node9 -->
<g id="node9" class="node"><title>Node9</title>
<g id="a_node9"><a xlink:href="_scenario_8cpp.html" target="_top" xlink:title="src/Scenario.cpp">
<polygon fill="white" stroke="black" points="813,-62 813,-81 903,-81 903,-62 813,-62"/>
<text text-anchor="middle" x="858" y="-69" font-family="Helvetica,sans-Serif" font-size="10.00">src/Scenario.cpp</text>
</a>
</g>
</g>
<!-- Node1&#45;&gt;Node9 -->
<g id="edge8" class="edge"><title>Node1&#45;&gt;Node9</title>
<path fill="none" stroke="midnightblue" d="M756.023,-119.174C781.248,-107.629 817.607,-90.9875 839.409,-81.0091"/>
<polygon fill="midnightblue" stroke="midnightblue" points="754.262,-116.131 746.626,-123.475 757.175,-122.496 754.262,-116.131"/>
</g>
<!-- Node10 -->
<g id="node10" class="node"><title>Node10</title>
<g id="a_node10"><a xlink:href="_simple_scheduler_8cpp.html" target="_top" xlink:title="src/SimpleScheduler.cpp">
<polygon fill="white" stroke="black" points="921.5,-62 921.5,-81 1046.5,-81 1046.5,-62 921.5,-62"/>
<text text-anchor="middle" x="984" y="-69" font-family="Helvetica,sans-Serif" font-size="10.00">src/SimpleScheduler.cpp</text>
</a>
</g>
</g>
<!-- Node1&#45;&gt;Node10 -->
<g id="edge9" class="edge"><title>Node1&#45;&gt;Node10</title>
<path fill="none" stroke="midnightblue" d="M774.527,-121.186C824.202,-109.641 901.893,-91.5835 947.389,-81.0091"/>
<polygon fill="midnightblue" stroke="midnightblue" points="773.627,-117.802 764.679,-123.475 775.211,-124.62 773.627,-117.802"/>
</g>
<!-- Node11 -->
<g id="node11" class="node"><title>Node11</title>
<g id="a_node11"><a xlink:href="_simulator_8cpp.html" target="_top" xlink:title="src/Simulator.cpp">
<polygon fill="white" stroke="black" points="1064.5,-62 1064.5,-81 1157.5,-81 1157.5,-62 1064.5,-62"/>
<text text-anchor="middle" x="1111" y="-69" font-family="Helvetica,sans-Serif" font-size="10.00">src/Simulator.cpp</text>
</a>
</g>
</g>
<!-- Node1&#45;&gt;Node11 -->
<g id="edge10" class="edge"><title>Node1&#45;&gt;Node11</title>
<path fill="none" stroke="midnightblue" d="M778.299,-126.921C842.764,-119.991 957.811,-106.202 1055,-87 1063.37,-85.3454 1072.36,-83.191 1080.63,-81.0512"/>
<polygon fill="midnightblue" stroke="midnightblue" points="777.589,-123.477 768.015,-128.015 778.329,-130.438 777.589,-123.477"/>
</g>
<!-- Node12 -->
<g id="node12" class="node"><title>Node12</title>
<g id="a_node12"><a xlink:href="_statistics_8cpp.html" target="_top" xlink:title="src/Statistics.cpp">
<polygon fill="white" stroke="black" points="1175.5,-62 1175.5,-81 1268.5,-81 1268.5,-62 1175.5,-62"/>
<text text-anchor="middle" x="1222" y="-69" font-family="Helvetica,sans-Serif" font-size="10.00">src/Statistics.cpp</text>
</a>
</g>
</g>
<!-- Node1&#45;&gt;Node12 -->
<g id="edge11" class="edge"><title>Node1&#45;&gt;Node12</title>
<path fill="none" stroke="midnightblue" d="M778.155,-129.317C859.906,-124.391 1026.75,-112.033 1166,-87 1174.7,-85.4363 1184.03,-83.2343 1192.54,-81.0175"/>
<polygon fill="midnightblue" stroke="midnightblue" points="777.917,-125.824 768.141,-129.908 778.33,-132.812 777.917,-125.824"/>
</g>
<!-- Node13 -->
<g id="node13" class="node"><title>Node13</title>
<g id="a_node13"><a xlink:href="_stop_manager_8cpp.html" target="_top" xlink:title="src/StopManager.cpp">
<polygon fill="white" stroke="black" points="1332,-0.5 1332,-19.5 1442,-19.5 1442,-0.5 1332,-0.5"/>
<text text-anchor="middle" x="1387" y="-7.5" font-family="Helvetica,sans-Serif" font-size="10.00">src/StopManager.cpp</text>
</a>
</g>
</g>
<!-- Node1&#45;&gt;Node13 -->
<g id="edge12" class="edge"><title>Node1&#45;&gt;Node13</title>
<path fill="none" stroke="midnightblue" d="M778.482,-132.549C929.177,-133.662 1368.02,-132.904 1411,-87 1428.97,-67.809 1407.04,-35.2406 1394.55,-19.7231"/>
<polygon fill="midnightblue" stroke="midnightblue" points="778.167,-129.046 768.139,-132.466 778.111,-136.046 778.167,-129.046"/>
</g>
<!-- Node14 -->
<g id="node14" class="node"><title>Node14</title>
<g id="a_node14"><a xlink:href="_stop_manager_8h.html" target="_top" xlink:title="include/StopManager.h">
<polygon fill="white" stroke="black" points="1286,-62 1286,-81 1402,-81 1402,-62 1286,-62"/>
<text text-anchor="middle" x="1344" y="-69" font-family="Helvetica,sans-Serif" font-size="10.00">include/StopManager.h</text>
</a>
</g>
</g>
<!-- Node1&#45;&gt;Node14 -->
<g id="edge13" class="edge"><title>Node1&#45;&gt;Node14</title>
<path fill="none" stroke="midnightblue" d="M778.258,-130.09C875.176,-125.92 1094.46,-114.113 1277,-87 1287.36,-85.4613 1298.51,-83.267 1308.69,-81.0498"/>
<polygon fill="midnightblue" stroke="midnightblue" points="778.003,-126.598 768.159,-130.516 778.298,-133.592 778.003,-126.598"/>
</g>
<!-- Node14&#45;&gt;Node3 -->
<g id="edge14" class="edge"><title>Node14&#45;&gt;Node3</title>
<path fill="none" stroke="midnightblue" d="M1299.17,-59.9206C1291.79,-58.4329 1284.21,-57.0542 1277,-56 1077.63,-26.8303 836.762,-15.7957 740.151,-12.3457"/>
<polygon fill="midnightblue" stroke="midnightblue" points="1298.54,-63.3638 1309.04,-61.9967 1299.98,-56.5136 1298.54,-63.3638"/>
</g>
<!-- Node14&#45;&gt;Node13 -->
<g id="edge15" class="edge"><title>Node14&#45;&gt;Node13</title>
<path fill="none" stroke="midnightblue" d="M1356.04,-53.8377C1364.11,-42.6694 1374.41,-28.4278 1380.85,-19.5091"/>
<polygon fill="midnightblue" stroke="midnightblue" points="1353.18,-51.82 1350.16,-61.9751 1358.86,-55.9202 1353.18,-51.82"/>
</g>
</g>
</svg>
