<?xml version="1.0" encoding="UTF-8" standalone="no"?>
<!DOCTYPE svg PUBLIC "-//W3C//DTD SVG 1.1//EN"
 "http://www.w3.org/Graphics/SVG/1.1/DTD/svg11.dtd">
<!-- Generated by graphviz version 2.38.0 (20140413.2041)
 -->
<!-- Title: src/Floor.cpp Pages: 1 -->
<svg width="1090pt" height="252pt"
 viewBox="0.00 0.00 1090.00 252.00" xmlns="http://www.w3.org/2000/svg" xmlns:xlink="http://www.w3.org/1999/xlink">
<g id="graph0" class="graph" transform="scale(1 1) rotate(0) translate(4 248)">
<title>src/Floor.cpp</title>
<polygon fill="white" stroke="none" points="-4,4 -4,-248 1086,-248 1086,4 -4,4"/>
<!-- Node1 -->
<g id="node1" class="node"><title>Node1</title>
<polygon fill="#bfbfbf" stroke="black" points="563,-224.5 563,-243.5 637,-243.5 637,-224.5 563,-224.5"/>
<text text-anchor="middle" x="600" y="-231.5" font-family="Helvetica,sans-Serif" font-size="10.00">src/Floor.cpp</text>
</g>
<!-- Node2 -->
<g id="node2" class="node"><title>Node2</title>
<g id="a_node2"><a xlink:href="_floor_8h.html" target="_top" xlink:title="Floor.h">
<polygon fill="white" stroke="black" points="183.5,-168.5 183.5,-187.5 230.5,-187.5 230.5,-168.5 183.5,-168.5"/>
<text text-anchor="middle" x="207" y="-175.5" font-family="Helvetica,sans-Serif" font-size="10.00">Floor.h</text>
</a>
</g>
</g>
<!-- Node1&#45;&gt;Node2 -->
<g id="edge1" class="edge"><title>Node1&#45;&gt;Node2</title>
<path fill="none" stroke="midnightblue" d="M562.673,-227.871C486.521,-217.407 314.269,-193.739 241.007,-183.673"/>
<polygon fill="midnightblue" stroke="midnightblue" points="241.322,-180.183 230.939,-182.289 240.369,-187.118 241.322,-180.183"/>
</g>
<!-- Node6 -->
<g id="node6" class="node"><title>Node6</title>
<g id="a_node6"><a xlink:href="_client_8h.html" target="_top" xlink:title="Client.h">
<polygon fill="white" stroke="black" points="962,-168.5 962,-187.5 1012,-187.5 1012,-168.5 962,-168.5"/>
<text text-anchor="middle" x="987" y="-175.5" font-family="Helvetica,sans-Serif" font-size="10.00">Client.h</text>
</a>
</g>
</g>
<!-- Node1&#45;&gt;Node6 -->
<g id="edge5" class="edge"><title>Node1&#45;&gt;Node6</title>
<path fill="none" stroke="midnightblue" d="M637.181,-229.002C700.272,-222.022 832.236,-206.57 943,-188 945.884,-187.517 948.867,-186.982 951.858,-186.421"/>
<polygon fill="midnightblue" stroke="midnightblue" points="952.786,-189.805 961.928,-184.45 951.442,-182.936 952.786,-189.805"/>
</g>
<!-- Node8 -->
<g id="node8" class="node"><title>Node8</title>
<g id="a_node8"><a xlink:href="_direction_8h.html" target="_top" xlink:title="Direction.h">
<polygon fill="white" stroke="black" points="0,-56.5 0,-75.5 64,-75.5 64,-56.5 0,-56.5"/>
<text text-anchor="middle" x="32" y="-63.5" font-family="Helvetica,sans-Serif" font-size="10.00">Direction.h</text>
</a>
</g>
</g>
<!-- Node1&#45;&gt;Node8 -->
<g id="edge8" class="edge"><title>Node1&#45;&gt;Node8</title>
<path fill="none" stroke="midnightblue" d="M562.768,-232.167C448.844,-229.298 110.361,-218.284 72,-188 40.6982,-163.289 33.6453,-113.389 32.2121,-86.0223"/>
<polygon fill="midnightblue" stroke="midnightblue" points="35.7036,-85.6961 31.8876,-75.8123 28.7072,-85.9185 35.7036,-85.6961"/>
</g>
<!-- Node10 -->
<g id="node10" class="node"><title>Node10</title>
<polygon fill="white" stroke="#bfbfbf" points="172.5,-0.5 172.5,-19.5 213.5,-19.5 213.5,-0.5 172.5,-0.5"/>
<text text-anchor="middle" x="193" y="-7.5" font-family="Helvetica,sans-Serif" font-size="10.00">string</text>
</g>
<!-- Node1&#45;&gt;Node10 -->
<g id="edge41" class="edge"><title>Node1&#45;&gt;Node10</title>
<path fill="none" stroke="midnightblue" d="M562.857,-232.917C471.704,-232.113 239.611,-226.257 174,-188 118.643,-155.722 84.1066,-111.58 116,-56 126.05,-38.487 145.841,-27.1393 162.842,-20.2201"/>
<polygon fill="midnightblue" stroke="midnightblue" points="164.287,-23.4169 172.434,-16.6448 161.842,-16.8577 164.287,-23.4169"/>
</g>
<!-- Node11 -->
<g id="node11" class="node"><title>Node11</title>
<g id="a_node11"><a xlink:href="_elevator_8h.html" target="_top" xlink:title="Elevator.h">
<polygon fill="white" stroke="black" points="510.5,-168.5 510.5,-187.5 571.5,-187.5 571.5,-168.5 510.5,-168.5"/>
<text text-anchor="middle" x="541" y="-175.5" font-family="Helvetica,sans-Serif" font-size="10.00">Elevator.h</text>
</a>
</g>
</g>
<!-- Node1&#45;&gt;Node11 -->
<g id="edge11" class="edge"><title>Node1&#45;&gt;Node11</title>
<path fill="none" stroke="midnightblue" d="M590.521,-224.324C581.799,-216.341 568.657,-204.313 558.102,-194.653"/>
<polygon fill="midnightblue" stroke="midnightblue" points="560.392,-192.004 550.652,-187.834 555.666,-197.167 560.392,-192.004"/>
</g>
<!-- Node13 -->
<g id="node13" class="node"><title>Node13</title>
<polygon fill="white" stroke="#bfbfbf" points="578,-112.5 578,-131.5 622,-131.5 622,-112.5 578,-112.5"/>
<text text-anchor="middle" x="600" y="-119.5" font-family="Helvetica,sans-Serif" font-size="10.00">vector</text>
</g>
<!-- Node1&#45;&gt;Node13 -->
<g id="edge42" class="edge"><title>Node1&#45;&gt;Node13</title>
<path fill="none" stroke="midnightblue" d="M600,-224.368C600,-206.617 600,-165.666 600,-141.597"/>
<polygon fill="midnightblue" stroke="midnightblue" points="603.5,-141.591 600,-131.591 596.5,-141.591 603.5,-141.591"/>
</g>
<!-- Node14 -->
<g id="node14" class="node"><title>Node14</title>
<g id="a_node14"><a xlink:href="_event_factory_8h.html" target="_top" xlink:title="EventFactory.h">
<polygon fill="white" stroke="black" points="850.5,-168.5 850.5,-187.5 933.5,-187.5 933.5,-168.5 850.5,-168.5"/>
<text text-anchor="middle" x="892" y="-175.5" font-family="Helvetica,sans-Serif" font-size="10.00">EventFactory.h</text>
</a>
</g>
</g>
<!-- Node1&#45;&gt;Node14 -->
<g id="edge16" class="edge"><title>Node1&#45;&gt;Node14</title>
<path fill="none" stroke="midnightblue" d="M637.279,-226.106C688.768,-216.584 781.878,-199.365 840.132,-188.592"/>
<polygon fill="midnightblue" stroke="midnightblue" points="841.035,-191.984 850.232,-186.724 839.762,-185.101 841.035,-191.984"/>
</g>
<!-- Node16 -->
<g id="node16" class="node"><title>Node16</title>
<g id="a_node16"><a xlink:href="_event_queue_8h.html" target="_top" xlink:title="EventQueue.h">
<polygon fill="white" stroke="black" points="288.5,-168.5 288.5,-187.5 367.5,-187.5 367.5,-168.5 288.5,-168.5"/>
<text text-anchor="middle" x="328" y="-175.5" font-family="Helvetica,sans-Serif" font-size="10.00">EventQueue.h</text>
</a>
</g>
</g>
<!-- Node1&#45;&gt;Node16 -->
<g id="edge21" class="edge"><title>Node1&#45;&gt;Node16</title>
<path fill="none" stroke="midnightblue" d="M562.75,-225.605C514.773,-216.08 431.223,-199.493 377.821,-188.891"/>
<polygon fill="midnightblue" stroke="midnightblue" points="378.379,-185.434 367.889,-186.919 377.016,-192.3 378.379,-185.434"/>
</g>
<!-- Node20 -->
<g id="node20" class="node"><title>Node20</title>
<g id="a_node20"><a xlink:href="_scenario_8h.html" target="_top" xlink:title="Scenario.h">
<polygon fill="white" stroke="black" points="628.5,-168.5 628.5,-187.5 691.5,-187.5 691.5,-168.5 628.5,-168.5"/>
<text text-anchor="middle" x="660" y="-175.5" font-family="Helvetica,sans-Serif" font-size="10.00">Scenario.h</text>
</a>
</g>
</g>
<!-- Node1&#45;&gt;Node20 -->
<g id="edge31" class="edge"><title>Node1&#45;&gt;Node20</title>
<path fill="none" stroke="midnightblue" d="M609.64,-224.324C618.51,-216.341 631.875,-204.313 642.608,-194.653"/>
<polygon fill="midnightblue" stroke="midnightblue" points="645.093,-197.125 650.185,-187.834 640.41,-191.922 645.093,-197.125"/>
</g>
<!-- Node22 -->
<g id="node22" class="node"><title>Node22</title>
<g id="a_node22"><a xlink:href="_simulator_8h.html" target="_top" xlink:title="Simulator.h">
<polygon fill="white" stroke="black" points="731,-168.5 731,-187.5 797,-187.5 797,-168.5 731,-168.5"/>
<text text-anchor="middle" x="764" y="-175.5" font-family="Helvetica,sans-Serif" font-size="10.00">Simulator.h</text>
</a>
</g>
</g>
<!-- Node1&#45;&gt;Node22 -->
<g id="edge36" class="edge"><title>Node1&#45;&gt;Node22</title>
<path fill="none" stroke="midnightblue" d="M625.986,-224.444C653.696,-215.32 697.752,-200.813 728.616,-190.651"/>
<polygon fill="midnightblue" stroke="midnightblue" points="729.732,-193.968 738.135,-187.516 727.542,-187.32 729.732,-193.968"/>
</g>
<!-- Node23 -->
<g id="node23" class="node"><title>Node23</title>
<polygon fill="white" stroke="#bfbfbf" points="1030,-168.5 1030,-187.5 1082,-187.5 1082,-168.5 1030,-168.5"/>
<text text-anchor="middle" x="1056" y="-175.5" font-family="Helvetica,sans-Serif" font-size="10.00">sstream</text>
</g>
<!-- Node1&#45;&gt;Node23 -->
<g id="edge40" class="edge"><title>Node1&#45;&gt;Node23</title>
<path fill="none" stroke="midnightblue" d="M637.143,-230.848C709.168,-226.284 872.923,-214.003 1019.63,-188.008"/>
<polygon fill="midnightblue" stroke="midnightblue" points="1020.49,-191.41 1029.72,-186.195 1019.26,-184.52 1020.49,-191.41"/>
</g>
<!-- Node3 -->
<g id="node3" class="node"><title>Node3</title>
<polygon fill="white" stroke="#bfbfbf" points="566,-56.5 566,-75.5 618,-75.5 618,-56.5 566,-56.5"/>
<text text-anchor="middle" x="592" y="-63.5" font-family="Helvetica,sans-Serif" font-size="10.00">memory</text>
</g>
<!-- Node2&#45;&gt;Node3 -->
<g id="edge2" class="edge"><title>Node2&#45;&gt;Node3</title>
<path fill="none" stroke="midnightblue" d="M187.529,-168.396C162.416,-156.163 124.087,-132.903 143,-112 170.54,-81.5619 453.926,-70.8012 555.786,-67.8997"/>
<polygon fill="midnightblue" stroke="midnightblue" points="555.999,-71.3953 565.898,-67.6207 555.806,-64.3979 555.999,-71.3953"/>
</g>
<!-- Node4 -->
<g id="node4" class="node"><title>Node4</title>
<polygon fill="white" stroke="#bfbfbf" points="306.5,-112.5 306.5,-131.5 349.5,-131.5 349.5,-112.5 306.5,-112.5"/>
<text text-anchor="middle" x="328" y="-119.5" font-family="Helvetica,sans-Serif" font-size="10.00">queue</text>
</g>
<!-- Node2&#45;&gt;Node4 -->
<g id="edge3" class="edge"><title>Node2&#45;&gt;Node4</title>
<path fill="none" stroke="midnightblue" d="M226.173,-168.444C245.909,-159.636 276.885,-145.812 299.493,-135.722"/>
<polygon fill="midnightblue" stroke="midnightblue" points="301.211,-138.788 308.917,-131.516 298.359,-132.396 301.211,-138.788"/>
</g>
<!-- Node5 -->
<g id="node5" class="node"><title>Node5</title>
<polygon fill="white" stroke="#bfbfbf" points="152,-112.5 152,-131.5 182,-131.5 182,-112.5 152,-112.5"/>
<text text-anchor="middle" x="167" y="-119.5" font-family="Helvetica,sans-Serif" font-size="10.00">set</text>
</g>
<!-- Node2&#45;&gt;Node5 -->
<g id="edge4" class="edge"><title>Node2&#45;&gt;Node5</title>
<path fill="none" stroke="midnightblue" d="M200.395,-168.083C194.745,-160.455 186.455,-149.264 179.549,-139.941"/>
<polygon fill="midnightblue" stroke="midnightblue" points="182.247,-137.703 173.482,-131.751 176.622,-141.87 182.247,-137.703"/>
</g>
<!-- Node6&#45;&gt;Node3 -->
<g id="edge7" class="edge"><title>Node6&#45;&gt;Node3</title>
<path fill="none" stroke="midnightblue" d="M1004.52,-168.342C1027.58,-155.85 1063.17,-132.067 1045,-112 1017.17,-81.2703 730.641,-70.6839 628.182,-67.8647"/>
<polygon fill="midnightblue" stroke="midnightblue" points="628.104,-64.3615 618.015,-67.594 627.918,-71.359 628.104,-64.3615"/>
</g>
<!-- Node7 -->
<g id="node7" class="node"><title>Node7</title>
<polygon fill="white" stroke="#bfbfbf" points="958.5,-112.5 958.5,-131.5 1035.5,-131.5 1035.5,-112.5 958.5,-112.5"/>
<text text-anchor="middle" x="997" y="-119.5" font-family="Helvetica,sans-Serif" font-size="10.00">glog/logging.h</text>
</g>
<!-- Node6&#45;&gt;Node7 -->
<g id="edge6" class="edge"><title>Node6&#45;&gt;Node7</title>
<path fill="none" stroke="midnightblue" d="M988.651,-168.083C989.976,-160.927 991.882,-150.635 993.539,-141.691"/>
<polygon fill="midnightblue" stroke="midnightblue" points="997,-142.221 995.379,-131.751 990.117,-140.947 997,-142.221"/>
</g>
<!-- Node9 -->
<g id="node9" class="node"><title>Node9</title>
<polygon fill="white" stroke="#bfbfbf" points="65.5,-0.5 65.5,-19.5 124.5,-19.5 124.5,-0.5 65.5,-0.5"/>
<text text-anchor="middle" x="95" y="-7.5" font-family="Helvetica,sans-Serif" font-size="10.00">stdexcept</text>
</g>
<!-- Node8&#45;&gt;Node9 -->
<g id="edge9" class="edge"><title>Node8&#45;&gt;Node9</title>
<path fill="none" stroke="midnightblue" d="M42.122,-56.324C51.5264,-48.2631 65.7441,-36.0765 77.069,-26.3695"/>
<polygon fill="midnightblue" stroke="midnightblue" points="79.379,-28.9993 84.6938,-19.8339 74.8234,-23.6844 79.379,-28.9993"/>
</g>
<!-- Node8&#45;&gt;Node10 -->
<g id="edge10" class="edge"><title>Node8&#45;&gt;Node10</title>
<path fill="none" stroke="midnightblue" d="M57.5109,-56.4435C86.0299,-46.8782 132.187,-31.3969 162.567,-21.2075"/>
<polygon fill="midnightblue" stroke="midnightblue" points="163.848,-24.4693 172.216,-17.971 161.622,-17.8327 163.848,-24.4693"/>
</g>
<!-- Node11&#45;&gt;Node3 -->
<g id="edge13" class="edge"><title>Node11&#45;&gt;Node3</title>
<path fill="none" stroke="midnightblue" d="M544.622,-168.086C549.791,-155.485 559.692,-131.792 569,-112 573.301,-102.856 578.387,-92.8314 582.681,-84.5695"/>
<polygon fill="midnightblue" stroke="midnightblue" points="585.871,-86.0243 587.421,-75.5436 579.673,-82.7699 585.871,-86.0243"/>
</g>
<!-- Node11&#45;&gt;Node4 -->
<g id="edge14" class="edge"><title>Node11&#45;&gt;Node4</title>
<path fill="none" stroke="midnightblue" d="M510.442,-169.982C475.931,-161.948 417.88,-148.109 359.366,-132.281"/>
<polygon fill="midnightblue" stroke="midnightblue" points="360.161,-128.87 349.593,-129.619 358.322,-135.624 360.161,-128.87"/>
</g>
<!-- Node12 -->
<g id="node12" class="node"><title>Node12</title>
<polygon fill="white" stroke="#bfbfbf" points="486.5,-112.5 486.5,-131.5 521.5,-131.5 521.5,-112.5 486.5,-112.5"/>
<text text-anchor="middle" x="504" y="-119.5" font-family="Helvetica,sans-Serif" font-size="10.00">map</text>
</g>
<!-- Node11&#45;&gt;Node12 -->
<g id="edge12" class="edge"><title>Node11&#45;&gt;Node12</title>
<path fill="none" stroke="midnightblue" d="M534.89,-168.083C529.718,-160.534 522.154,-149.495 515.806,-140.23"/>
<polygon fill="midnightblue" stroke="midnightblue" points="518.536,-138.022 509.996,-131.751 512.761,-141.979 518.536,-138.022"/>
</g>
<!-- Node11&#45;&gt;Node13 -->
<g id="edge15" class="edge"><title>Node11&#45;&gt;Node13</title>
<path fill="none" stroke="midnightblue" d="M550.479,-168.324C559.201,-160.341 572.343,-148.313 582.898,-138.653"/>
<polygon fill="midnightblue" stroke="midnightblue" points="585.334,-141.167 590.348,-131.834 580.608,-136.004 585.334,-141.167"/>
</g>
<!-- Node14&#45;&gt;Node3 -->
<g id="edge18" class="edge"><title>Node14&#45;&gt;Node3</title>
<path fill="none" stroke="midnightblue" d="M892.194,-168.322C892,-154.222 889.403,-126.462 873,-112 837.295,-80.5197 696.138,-70.9348 628.505,-68.1193"/>
<polygon fill="midnightblue" stroke="midnightblue" points="628.437,-64.6141 618.309,-67.7232 628.165,-71.6089 628.437,-64.6141"/>
</g>
<!-- Node14&#45;&gt;Node7 -->
<g id="edge17" class="edge"><title>Node14&#45;&gt;Node7</title>
<path fill="none" stroke="midnightblue" d="M908.87,-168.324C925.709,-159.664 951.807,-146.242 971.238,-136.249"/>
<polygon fill="midnightblue" stroke="midnightblue" points="972.88,-139.341 980.172,-131.655 969.678,-133.116 972.88,-139.341"/>
</g>
<!-- Node14&#45;&gt;Node10 -->
<g id="edge20" class="edge"><title>Node14&#45;&gt;Node10</title>
<path fill="none" stroke="midnightblue" d="M895.261,-168.323C899.757,-154.719 905.931,-128.249 893,-112 850.473,-58.5575 353.108,-21.7185 223.647,-12.991"/>
<polygon fill="midnightblue" stroke="midnightblue" points="223.83,-9.49554 213.62,-12.3219 223.364,-16.48 223.83,-9.49554"/>
</g>
<!-- Node15 -->
<g id="node15" class="node"><title>Node15</title>
<polygon fill="white" stroke="#bfbfbf" points="814.5,-112.5 814.5,-131.5 863.5,-131.5 863.5,-112.5 814.5,-112.5"/>
<text text-anchor="middle" x="839" y="-119.5" font-family="Helvetica,sans-Serif" font-size="10.00">random</text>
</g>
<!-- Node14&#45;&gt;Node15 -->
<g id="edge19" class="edge"><title>Node14&#45;&gt;Node15</title>
<path fill="none" stroke="midnightblue" d="M883.248,-168.083C875.53,-160.22 864.095,-148.569 854.783,-139.081"/>
<polygon fill="midnightblue" stroke="midnightblue" points="857.092,-136.436 847.589,-131.751 852.096,-141.34 857.092,-136.436"/>
</g>
<!-- Node16&#45;&gt;Node3 -->
<g id="edge29" class="edge"><title>Node16&#45;&gt;Node3</title>
<path fill="none" stroke="midnightblue" d="M318.01,-168.173C304.096,-154.832 282.173,-129.26 297,-112 329.913,-73.6856 483.834,-67.6308 555.329,-66.9209"/>
<polygon fill="midnightblue" stroke="midnightblue" points="555.685,-70.4187 565.661,-66.8502 555.637,-63.4189 555.685,-70.4187"/>
</g>
<!-- Node16&#45;&gt;Node4 -->
<g id="edge30" class="edge"><title>Node16&#45;&gt;Node4</title>
<path fill="none" stroke="midnightblue" d="M328,-168.083C328,-161.006 328,-150.861 328,-141.986"/>
<polygon fill="midnightblue" stroke="midnightblue" points="331.5,-141.751 328,-131.751 324.5,-141.751 331.5,-141.751"/>
</g>
<!-- Node17 -->
<g id="node17" class="node"><title>Node17</title>
<g id="a_node17"><a xlink:href="_event_8h.html" target="_top" xlink:title="Event.h">
<polygon fill="white" stroke="black" points="200,-112.5 200,-131.5 250,-131.5 250,-112.5 200,-112.5"/>
<text text-anchor="middle" x="225" y="-119.5" font-family="Helvetica,sans-Serif" font-size="10.00">Event.h</text>
</a>
</g>
</g>
<!-- Node16&#45;&gt;Node17 -->
<g id="edge22" class="edge"><title>Node16&#45;&gt;Node17</title>
<path fill="none" stroke="midnightblue" d="M311.451,-168.324C295.008,-159.703 269.565,-146.364 250.532,-136.386"/>
<polygon fill="midnightblue" stroke="midnightblue" points="251.989,-133.198 241.508,-131.655 248.739,-139.398 251.989,-133.198"/>
</g>
<!-- Node19 -->
<g id="node19" class="node"><title>Node19</title>
<g id="a_node19"><a xlink:href="_event_comparator_8h.html" target="_top" xlink:title="EventComparator.h">
<polygon fill="white" stroke="black" points="367.5,-112.5 367.5,-131.5 468.5,-131.5 468.5,-112.5 367.5,-112.5"/>
<text text-anchor="middle" x="418" y="-119.5" font-family="Helvetica,sans-Serif" font-size="10.00">EventComparator.h</text>
</a>
</g>
</g>
<!-- Node16&#45;&gt;Node19 -->
<g id="edge27" class="edge"><title>Node16&#45;&gt;Node19</title>
<path fill="none" stroke="midnightblue" d="M342.46,-168.324C356.5,-159.9 378.048,-146.971 394.543,-137.074"/>
<polygon fill="midnightblue" stroke="midnightblue" points="396.802,-139.801 403.576,-131.655 393.2,-133.798 396.802,-139.801"/>
</g>
<!-- Node17&#45;&gt;Node10 -->
<g id="edge26" class="edge"><title>Node17&#45;&gt;Node10</title>
<path fill="none" stroke="midnightblue" d="M222.489,-112.368C217.302,-94.5366 205.304,-53.2953 198.315,-29.2717"/>
<polygon fill="midnightblue" stroke="midnightblue" points="201.653,-28.2157 195.499,-19.5914 194.932,-30.1711 201.653,-28.2157"/>
</g>
<!-- Node18 -->
<g id="node18" class="node"><title>Node18</title>
<g id="a_node18"><a xlink:href="_event_type_8h.html" target="_top" xlink:title="EventType.h">
<polygon fill="white" stroke="black" points="125,-56.5 125,-75.5 197,-75.5 197,-56.5 125,-56.5"/>
<text text-anchor="middle" x="161" y="-63.5" font-family="Helvetica,sans-Serif" font-size="10.00">EventType.h</text>
</a>
</g>
</g>
<!-- Node17&#45;&gt;Node18 -->
<g id="edge23" class="edge"><title>Node17&#45;&gt;Node18</title>
<path fill="none" stroke="midnightblue" d="M214.717,-112.324C205.164,-104.263 190.72,-92.0765 179.216,-82.3695"/>
<polygon fill="midnightblue" stroke="midnightblue" points="181.37,-79.6076 171.47,-75.8339 176.856,-84.9577 181.37,-79.6076"/>
</g>
<!-- Node18&#45;&gt;Node9 -->
<g id="edge24" class="edge"><title>Node18&#45;&gt;Node9</title>
<path fill="none" stroke="midnightblue" d="M150.396,-56.324C140.544,-48.2631 125.649,-36.0765 113.785,-26.3695"/>
<polygon fill="midnightblue" stroke="midnightblue" points="115.753,-23.4575 105.797,-19.8339 111.32,-28.8752 115.753,-23.4575"/>
</g>
<!-- Node18&#45;&gt;Node10 -->
<g id="edge25" class="edge"><title>Node18&#45;&gt;Node10</title>
<path fill="none" stroke="midnightblue" d="M166.284,-56.083C170.711,-48.6127 177.163,-37.7244 182.618,-28.5199"/>
<polygon fill="midnightblue" stroke="midnightblue" points="185.727,-30.1383 187.814,-19.7511 179.705,-26.5697 185.727,-30.1383"/>
</g>
<!-- Node19&#45;&gt;Node3 -->
<g id="edge28" class="edge"><title>Node19&#45;&gt;Node3</title>
<path fill="none" stroke="midnightblue" d="M445.571,-112.444C475.532,-103.145 523.505,-88.2572 556.319,-78.0735"/>
<polygon fill="midnightblue" stroke="midnightblue" points="557.466,-81.3822 565.979,-75.0755 555.391,-74.6968 557.466,-81.3822"/>
</g>
<!-- Node20&#45;&gt;Node3 -->
<g id="edge33" class="edge"><title>Node20&#45;&gt;Node3</title>
<path fill="none" stroke="midnightblue" d="M657.008,-168.176C652.429,-155.276 642.944,-130.763 631,-112 624.421,-101.665 615.577,-91.2563 607.973,-83.0561"/>
<polygon fill="midnightblue" stroke="midnightblue" points="610.356,-80.4832 600.914,-75.6767 605.298,-85.3221 610.356,-80.4832"/>
</g>
<!-- Node20&#45;&gt;Node10 -->
<g id="edge34" class="edge"><title>Node20&#45;&gt;Node10</title>
<path fill="none" stroke="midnightblue" d="M660.825,-168.335C662.471,-145.342 663.297,-82.7219 627,-56 594.616,-32.1592 317.359,-16.9081 223.735,-12.3997"/>
<polygon fill="midnightblue" stroke="midnightblue" points="223.659,-8.89229 213.505,-11.9149 223.328,-15.8844 223.659,-8.89229"/>
</g>
<!-- Node20&#45;&gt;Node13 -->
<g id="edge35" class="edge"><title>Node20&#45;&gt;Node13</title>
<path fill="none" stroke="midnightblue" d="M650.36,-168.324C641.49,-160.341 628.125,-148.313 617.392,-138.653"/>
<polygon fill="midnightblue" stroke="midnightblue" points="619.59,-135.922 609.815,-131.834 614.907,-141.125 619.59,-135.922"/>
</g>
<!-- Node21 -->
<g id="node21" class="node"><title>Node21</title>
<polygon fill="white" stroke="#bfbfbf" points="716.5,-112.5 716.5,-131.5 757.5,-131.5 757.5,-112.5 716.5,-112.5"/>
<text text-anchor="middle" x="737" y="-119.5" font-family="Helvetica,sans-Serif" font-size="10.00">ctime</text>
</g>
<!-- Node20&#45;&gt;Node21 -->
<g id="edge32" class="edge"><title>Node20&#45;&gt;Node21</title>
<path fill="none" stroke="midnightblue" d="M672.371,-168.324C684.158,-160.058 702.132,-147.453 716.136,-137.632"/>
<polygon fill="midnightblue" stroke="midnightblue" points="718.482,-140.262 724.659,-131.655 714.462,-134.531 718.482,-140.262"/>
</g>
<!-- Node22&#45;&gt;Node3 -->
<g id="edge38" class="edge"><title>Node22&#45;&gt;Node3</title>
<path fill="none" stroke="midnightblue" d="M767.601,-168.365C772.615,-154.819 779.737,-128.426 767,-112 750.157,-90.2774 674.366,-77.2078 628.226,-71.1237"/>
<polygon fill="midnightblue" stroke="midnightblue" points="628.666,-67.6516 618.305,-69.8625 627.784,-74.5957 628.666,-67.6516"/>
</g>
<!-- Node22&#45;&gt;Node15 -->
<g id="edge39" class="edge"><title>Node22&#45;&gt;Node15</title>
<path fill="none" stroke="midnightblue" d="M776.05,-168.324C787.463,-160.107 804.831,-147.602 818.435,-137.807"/>
<polygon fill="midnightblue" stroke="midnightblue" points="820.66,-140.517 826.731,-131.834 816.57,-134.837 820.66,-140.517"/>
</g>
<!-- Node22&#45;&gt;Node21 -->
<g id="edge37" class="edge"><title>Node22&#45;&gt;Node21</title>
<path fill="none" stroke="midnightblue" d="M759.541,-168.083C755.846,-160.691 750.477,-149.953 745.906,-140.811"/>
<polygon fill="midnightblue" stroke="midnightblue" points="748.978,-139.13 741.376,-131.751 742.717,-142.261 748.978,-139.13"/>
</g>
</g>
</svg>
