<?xml version="1.0" encoding="UTF-8" standalone="no"?>
<!DOCTYPE svg PUBLIC "-//W3C//DTD SVG 1.1//EN"
 "http://www.w3.org/Graphics/SVG/1.1/DTD/svg11.dtd">
<!-- Generated by graphviz version 2.38.0 (20140413.2041)
 -->
<!-- Title: include/MissingCostFunctionError.h Pages: 1 -->
<svg width="523pt" height="207pt"
 viewBox="0.00 0.00 522.50 207.00" xmlns="http://www.w3.org/2000/svg" xmlns:xlink="http://www.w3.org/1999/xlink">
<g id="graph0" class="graph" transform="scale(1 1) rotate(0) translate(4 203)">
<title>include/MissingCostFunctionError.h</title>
<polygon fill="white" stroke="none" points="-4,4 -4,-203 518.5,-203 518.5,4 -4,4"/>
<!-- Node1 -->
<g id="node1" class="node"><title>Node1</title>
<polygon fill="#bfbfbf" stroke="black" points="65.5,-168.5 65.5,-198.5 208.5,-198.5 208.5,-168.5 65.5,-168.5"/>
<text text-anchor="start" x="73.5" y="-186.5" font-family="Helvetica,sans-Serif" font-size="10.00">include/MissingCostFunction</text>
<text text-anchor="middle" x="137" y="-175.5" font-family="Helvetica,sans-Serif" font-size="10.00">Error.h</text>
</g>
<!-- Node2 -->
<g id="node2" class="node"><title>Node2</title>
<g id="a_node2"><a xlink:href="_scenario_8cpp.html" target="_top" xlink:title="src/Scenario.cpp">
<polygon fill="white" stroke="black" points="0,-56.5 0,-75.5 90,-75.5 90,-56.5 0,-56.5"/>
<text text-anchor="middle" x="45" y="-63.5" font-family="Helvetica,sans-Serif" font-size="10.00">src/Scenario.cpp</text>
</a>
</g>
</g>
<!-- Node1&#45;&gt;Node2 -->
<g id="edge1" class="edge"><title>Node1&#45;&gt;Node2</title>
<path fill="none" stroke="midnightblue" d="M119.284,-160.259C98.7943,-134.535 66.069,-93.4507 51.9055,-75.6695"/>
<polygon fill="midnightblue" stroke="midnightblue" points="116.751,-162.696 125.719,-168.337 122.226,-158.335 116.751,-162.696"/>
</g>
<!-- Node3 -->
<g id="node3" class="node"><title>Node3</title>
<g id="a_node3"><a xlink:href="_cost_function_type_8h.html" target="_top" xlink:title="include/CostFunctionType.h">
<polygon fill="white" stroke="black" points="119.5,-112.5 119.5,-131.5 258.5,-131.5 258.5,-112.5 119.5,-112.5"/>
<text text-anchor="middle" x="189" y="-119.5" font-family="Helvetica,sans-Serif" font-size="10.00">include/CostFunctionType.h</text>
</a>
</g>
</g>
<!-- Node1&#45;&gt;Node3 -->
<g id="edge2" class="edge"><title>Node1&#45;&gt;Node3</title>
<path fill="none" stroke="midnightblue" d="M156.049,-160.704C164.848,-150.636 174.792,-139.257 181.434,-131.658"/>
<polygon fill="midnightblue" stroke="midnightblue" points="153.268,-158.566 149.323,-168.399 158.539,-163.173 153.268,-158.566"/>
</g>
<!-- Node3&#45;&gt;Node2 -->
<g id="edge4" class="edge"><title>Node3&#45;&gt;Node2</title>
<path fill="none" stroke="midnightblue" d="M156.749,-108.906C129.676,-98.7536 91.6835,-84.5063 67.7105,-75.5164"/>
<polygon fill="midnightblue" stroke="midnightblue" points="155.591,-112.209 166.183,-112.444 158.048,-105.655 155.591,-112.209"/>
</g>
<!-- Node4 -->
<g id="node4" class="node"><title>Node4</title>
<g id="a_node4"><a xlink:href="_reporter_8cpp.html" target="_top" xlink:title="src/Reporter.cpp">
<polygon fill="white" stroke="black" points="108.5,-56.5 108.5,-75.5 197.5,-75.5 197.5,-56.5 108.5,-56.5"/>
<text text-anchor="middle" x="153" y="-63.5" font-family="Helvetica,sans-Serif" font-size="10.00">src/Reporter.cpp</text>
</a>
</g>
</g>
<!-- Node3&#45;&gt;Node4 -->
<g id="edge3" class="edge"><title>Node3&#45;&gt;Node4</title>
<path fill="none" stroke="midnightblue" d="M177.377,-103.566C171.183,-94.2747 163.832,-83.2484 158.834,-75.7511"/>
<polygon fill="midnightblue" stroke="midnightblue" points="174.596,-105.704 183.055,-112.083 180.42,-101.821 174.596,-105.704"/>
</g>
<!-- Node5 -->
<g id="node5" class="node"><title>Node5</title>
<g id="a_node5"><a xlink:href="_simulator_8cpp.html" target="_top" xlink:title="src/Simulator.cpp">
<polygon fill="white" stroke="black" points="286.5,-0.5 286.5,-19.5 379.5,-19.5 379.5,-0.5 286.5,-0.5"/>
<text text-anchor="middle" x="333" y="-7.5" font-family="Helvetica,sans-Serif" font-size="10.00">src/Simulator.cpp</text>
</a>
</g>
</g>
<!-- Node3&#45;&gt;Node5 -->
<g id="edge5" class="edge"><title>Node3&#45;&gt;Node5</title>
<path fill="none" stroke="midnightblue" d="M201.256,-103.735C211.904,-89.6207 228.354,-69.8114 246,-56 266.22,-40.1734 292.856,-27.361 311.303,-19.5134"/>
<polygon fill="midnightblue" stroke="midnightblue" points="198.236,-101.934 195.143,-112.067 203.88,-106.075 198.236,-101.934"/>
</g>
<!-- Node6 -->
<g id="node6" class="node"><title>Node6</title>
<g id="a_node6"><a xlink:href="_statistics_8cpp.html" target="_top" xlink:title="src/Statistics.cpp">
<polygon fill="white" stroke="black" points="254.5,-56.5 254.5,-75.5 347.5,-75.5 347.5,-56.5 254.5,-56.5"/>
<text text-anchor="middle" x="301" y="-63.5" font-family="Helvetica,sans-Serif" font-size="10.00">src/Statistics.cpp</text>
</a>
</g>
</g>
<!-- Node3&#45;&gt;Node6 -->
<g id="edge6" class="edge"><title>Node3&#45;&gt;Node6</title>
<path fill="none" stroke="midnightblue" d="M216.249,-107.862C237.016,-97.8492 265.023,-84.3458 283.05,-75.6545"/>
<polygon fill="midnightblue" stroke="midnightblue" points="214.482,-104.828 206.995,-112.324 217.523,-111.134 214.482,-104.828"/>
</g>
<!-- Node7 -->
<g id="node7" class="node"><title>Node7</title>
<g id="a_node7"><a xlink:href="_cost_function_creator_8h.html" target="_top" xlink:title="include/CostFunctionCreator.h">
<polygon fill="white" stroke="black" points="365.5,-56.5 365.5,-75.5 514.5,-75.5 514.5,-56.5 365.5,-56.5"/>
<text text-anchor="middle" x="440" y="-63.5" font-family="Helvetica,sans-Serif" font-size="10.00">include/CostFunctionCreator.h</text>
</a>
</g>
</g>
<!-- Node3&#45;&gt;Node7 -->
<g id="edge7" class="edge"><title>Node3&#45;&gt;Node7</title>
<path fill="none" stroke="midnightblue" d="M238.821,-110.281C286.253,-100.077 356.704,-84.9203 400.414,-75.5164"/>
<polygon fill="midnightblue" stroke="midnightblue" points="237.812,-106.918 228.772,-112.444 239.284,-113.762 237.812,-106.918"/>
</g>
<!-- Node7&#45;&gt;Node5 -->
<g id="edge8" class="edge"><title>Node7&#45;&gt;Node5</title>
<path fill="none" stroke="midnightblue" d="M413.698,-51.7261C393.885,-41.7271 367.293,-28.3065 350.149,-19.6545"/>
<polygon fill="midnightblue" stroke="midnightblue" points="412.304,-54.9431 422.809,-56.324 415.458,-48.6938 412.304,-54.9431"/>
</g>
</g>
</svg>
