<?xml version="1.0" encoding="UTF-8" standalone="no"?>
<!DOCTYPE svg PUBLIC "-//W3C//DTD SVG 1.1//EN"
 "http://www.w3.org/Graphics/SVG/1.1/DTD/svg11.dtd">
<!-- Generated by graphviz version 2.38.0 (20140413.2041)
 -->
<!-- Title: include/MissingSchedulerError.h Pages: 1 -->
<svg width="508pt" height="207pt"
 viewBox="0.00 0.00 508.00 207.00" xmlns="http://www.w3.org/2000/svg" xmlns:xlink="http://www.w3.org/1999/xlink">
<g id="graph0" class="graph" transform="scale(1 1) rotate(0) translate(4 203)">
<title>include/MissingSchedulerError.h</title>
<polygon fill="white" stroke="none" points="-4,4 -4,-203 504,-203 504,4 -4,4"/>
<!-- Node1 -->
<g id="node1" class="node"><title>Node1</title>
<polygon fill="#bfbfbf" stroke="black" points="75,-168.5 75,-198.5 203,-198.5 203,-168.5 75,-168.5"/>
<text text-anchor="start" x="83" y="-186.5" font-family="Helvetica,sans-Serif" font-size="10.00">include/MissingScheduler</text>
<text text-anchor="middle" x="139" y="-175.5" font-family="Helvetica,sans-Serif" font-size="10.00">Error.h</text>
</g>
<!-- Node2 -->
<g id="node2" class="node"><title>Node2</title>
<g id="a_node2"><a xlink:href="_scenario_8cpp.html" target="_top" xlink:title="src/Scenario.cpp">
<polygon fill="white" stroke="black" points="0,-56.5 0,-75.5 90,-75.5 90,-56.5 0,-56.5"/>
<text text-anchor="middle" x="45" y="-63.5" font-family="Helvetica,sans-Serif" font-size="10.00">src/Scenario.cpp</text>
</a>
</g>
</g>
<!-- Node1&#45;&gt;Node2 -->
<g id="edge1" class="edge"><title>Node1&#45;&gt;Node2</title>
<path fill="none" stroke="midnightblue" d="M120.899,-160.259C99.9638,-134.535 66.527,-93.4507 52.0557,-75.6695"/>
<polygon fill="midnightblue" stroke="midnightblue" points="118.447,-162.791 127.474,-168.337 123.876,-158.372 118.447,-162.791"/>
</g>
<!-- Node3 -->
<g id="node3" class="node"><title>Node3</title>
<g id="a_node3"><a xlink:href="_scheduler_type_8h.html" target="_top" xlink:title="include/SchedulerType.h">
<polygon fill="white" stroke="black" points="127,-112.5 127,-131.5 251,-131.5 251,-112.5 127,-112.5"/>
<text text-anchor="middle" x="189" y="-119.5" font-family="Helvetica,sans-Serif" font-size="10.00">include/SchedulerType.h</text>
</a>
</g>
</g>
<!-- Node1&#45;&gt;Node3 -->
<g id="edge2" class="edge"><title>Node1&#45;&gt;Node3</title>
<path fill="none" stroke="midnightblue" d="M157.316,-160.704C165.776,-150.636 175.339,-139.257 181.725,-131.658"/>
<polygon fill="midnightblue" stroke="midnightblue" points="154.603,-158.492 150.849,-168.399 159.962,-162.995 154.603,-158.492"/>
</g>
<!-- Node3&#45;&gt;Node2 -->
<g id="edge4" class="edge"><title>Node3&#45;&gt;Node2</title>
<path fill="none" stroke="midnightblue" d="M156.749,-108.906C129.676,-98.7536 91.6835,-84.5063 67.7105,-75.5164"/>
<polygon fill="midnightblue" stroke="midnightblue" points="155.591,-112.209 166.183,-112.444 158.048,-105.655 155.591,-112.209"/>
</g>
<!-- Node4 -->
<g id="node4" class="node"><title>Node4</title>
<g id="a_node4"><a xlink:href="_reporter_8cpp.html" target="_top" xlink:title="src/Reporter.cpp">
<polygon fill="white" stroke="black" points="108.5,-56.5 108.5,-75.5 197.5,-75.5 197.5,-56.5 108.5,-56.5"/>
<text text-anchor="middle" x="153" y="-63.5" font-family="Helvetica,sans-Serif" font-size="10.00">src/Reporter.cpp</text>
</a>
</g>
</g>
<!-- Node3&#45;&gt;Node4 -->
<g id="edge3" class="edge"><title>Node3&#45;&gt;Node4</title>
<path fill="none" stroke="midnightblue" d="M177.377,-103.566C171.183,-94.2747 163.832,-83.2484 158.834,-75.7511"/>
<polygon fill="midnightblue" stroke="midnightblue" points="174.596,-105.704 183.055,-112.083 180.42,-101.821 174.596,-105.704"/>
</g>
<!-- Node5 -->
<g id="node5" class="node"><title>Node5</title>
<g id="a_node5"><a xlink:href="_simulator_8cpp.html" target="_top" xlink:title="src/Simulator.cpp">
<polygon fill="white" stroke="black" points="282.5,-0.5 282.5,-19.5 375.5,-19.5 375.5,-0.5 282.5,-0.5"/>
<text text-anchor="middle" x="329" y="-7.5" font-family="Helvetica,sans-Serif" font-size="10.00">src/Simulator.cpp</text>
</a>
</g>
</g>
<!-- Node3&#45;&gt;Node5 -->
<g id="edge5" class="edge"><title>Node3&#45;&gt;Node5</title>
<path fill="none" stroke="midnightblue" d="M201.327,-103.824C212.017,-89.7633 228.49,-69.9825 246,-56 265.469,-40.4533 291.079,-27.504 308.675,-19.5486"/>
<polygon fill="midnightblue" stroke="midnightblue" points="198.322,-102 195.184,-112.119 203.948,-106.165 198.322,-102"/>
</g>
<!-- Node6 -->
<g id="node6" class="node"><title>Node6</title>
<g id="a_node6"><a xlink:href="_statistics_8cpp.html" target="_top" xlink:title="src/Statistics.cpp">
<polygon fill="white" stroke="black" points="254.5,-56.5 254.5,-75.5 347.5,-75.5 347.5,-56.5 254.5,-56.5"/>
<text text-anchor="middle" x="301" y="-63.5" font-family="Helvetica,sans-Serif" font-size="10.00">src/Statistics.cpp</text>
</a>
</g>
</g>
<!-- Node3&#45;&gt;Node6 -->
<g id="edge6" class="edge"><title>Node3&#45;&gt;Node6</title>
<path fill="none" stroke="midnightblue" d="M216.249,-107.862C237.016,-97.8492 265.023,-84.3458 283.05,-75.6545"/>
<polygon fill="midnightblue" stroke="midnightblue" points="214.482,-104.828 206.995,-112.324 217.523,-111.134 214.482,-104.828"/>
</g>
<!-- Node7 -->
<g id="node7" class="node"><title>Node7</title>
<g id="a_node7"><a xlink:href="_scheduler_creator_8h.html" target="_top" xlink:title="include/SchedulerCreator.h">
<polygon fill="white" stroke="black" points="366,-56.5 366,-75.5 500,-75.5 500,-56.5 366,-56.5"/>
<text text-anchor="middle" x="433" y="-63.5" font-family="Helvetica,sans-Serif" font-size="10.00">include/SchedulerCreator.h</text>
</a>
</g>
</g>
<!-- Node3&#45;&gt;Node7 -->
<g id="edge7" class="edge"><title>Node3&#45;&gt;Node7</title>
<path fill="none" stroke="midnightblue" d="M237.432,-110.281C283.541,-100.077 352.027,-84.9203 394.518,-75.5164"/>
<polygon fill="midnightblue" stroke="midnightblue" points="236.67,-106.865 227.663,-112.444 238.183,-113.7 236.67,-106.865"/>
</g>
<!-- Node7&#45;&gt;Node5 -->
<g id="edge8" class="edge"><title>Node7&#45;&gt;Node5</title>
<path fill="none" stroke="midnightblue" d="M407.172,-51.5895C387.943,-41.6052 362.255,-28.2672 345.668,-19.6545"/>
<polygon fill="midnightblue" stroke="midnightblue" points="405.803,-54.822 416.291,-56.324 409.029,-48.6095 405.803,-54.822"/>
</g>
</g>
</svg>
