<?xml version="1.0" encoding="UTF-8" standalone="no"?>
<!DOCTYPE svg PUBLIC "-//W3C//DTD SVG 1.1//EN"
 "http://www.w3.org/Graphics/SVG/1.1/DTD/svg11.dtd">
<!-- Generated by graphviz version 2.38.0 (20140413.2041)
 -->
<!-- Title: include/MissingSchedulerError.h Pages: 1 -->
<svg width="567pt" height="207pt"
 viewBox="0.00 0.00 567.00 207.00" xmlns="http://www.w3.org/2000/svg" xmlns:xlink="http://www.w3.org/1999/xlink">
<g id="graph0" class="graph" transform="scale(1 1) rotate(0) translate(4 203)">
<title>include/MissingSchedulerError.h</title>
<polygon fill="white" stroke="none" points="-4,4 -4,-203 563,-203 563,4 -4,4"/>
<!-- Node1 -->
<g id="node1" class="node"><title>Node1</title>
<polygon fill="#bfbfbf" stroke="black" points="83,-168.5 83,-198.5 226,-198.5 226,-168.5 83,-168.5"/>
<text text-anchor="start" x="91" y="-186.5" font-family="Ubuntu Mono" font-size="10.00">include/MissingScheduler</text>
<text text-anchor="middle" x="154.5" y="-175.5" font-family="Ubuntu Mono" font-size="10.00">Error.h</text>
</g>
<!-- Node2 -->
<g id="node2" class="node"><title>Node2</title>
<g id="a_node2"><a xlink:href="_scenario_8cpp.html" target="_top" xlink:title="src/Scenario.cpp">
<polygon fill="white" stroke="black" points="0,-56.5 0,-75.5 101,-75.5 101,-56.5 0,-56.5"/>
<text text-anchor="middle" x="50.5" y="-63.5" font-family="Ubuntu Mono" font-size="10.00">src/Scenario.cpp</text>
</a>
</g>
</g>
<!-- Node1&#45;&gt;Node2 -->
<g id="edge1" class="edge"><title>Node1&#45;&gt;Node2</title>
<path fill="none" stroke="midnightblue" d="M134.774,-160.593C111.633,-134.893 74.3867,-93.528 58.3063,-75.6695"/>
<polygon fill="midnightblue" stroke="midnightblue" points="132.455,-163.248 141.748,-168.337 137.657,-158.564 132.455,-163.248"/>
</g>
<!-- Node3 -->
<g id="node3" class="node"><title>Node3</title>
<g id="a_node3"><a xlink:href="_scheduler_type_8h.html" target="_top" xlink:title="include/SchedulerType.h">
<polygon fill="white" stroke="black" points="140,-112.5 140,-131.5 277,-131.5 277,-112.5 140,-112.5"/>
<text text-anchor="middle" x="208.5" y="-119.5" font-family="Ubuntu Mono" font-size="10.00">include/SchedulerType.h</text>
</a>
</g>
</g>
<!-- Node1&#45;&gt;Node3 -->
<g id="edge2" class="edge"><title>Node1&#45;&gt;Node3</title>
<path fill="none" stroke="midnightblue" d="M174.282,-160.704C183.419,-150.636 193.746,-139.257 200.643,-131.658"/>
<polygon fill="midnightblue" stroke="midnightblue" points="171.426,-158.642 167.297,-168.399 176.61,-163.346 171.426,-158.642"/>
</g>
<!-- Node3&#45;&gt;Node2 -->
<g id="edge4" class="edge"><title>Node3&#45;&gt;Node2</title>
<path fill="none" stroke="midnightblue" d="M173.892,-109.172C144.141,-99.0039 101.953,-84.5852 75.4184,-75.5164"/>
<polygon fill="midnightblue" stroke="midnightblue" points="172.87,-112.521 183.464,-112.444 175.134,-105.898 172.87,-112.521"/>
</g>
<!-- Node4 -->
<g id="node4" class="node"><title>Node4</title>
<g id="a_node4"><a xlink:href="_reporter_8cpp.html" target="_top" xlink:title="src/Reporter.cpp">
<polygon fill="white" stroke="black" points="119,-56.5 119,-75.5 220,-75.5 220,-56.5 119,-56.5"/>
<text text-anchor="middle" x="169.5" y="-63.5" font-family="Ubuntu Mono" font-size="10.00">src/Reporter.cpp</text>
</a>
</g>
</g>
<!-- Node3&#45;&gt;Node4 -->
<g id="edge3" class="edge"><title>Node3&#45;&gt;Node4</title>
<path fill="none" stroke="midnightblue" d="M196.118,-103.855C189.365,-94.5048 181.291,-83.3265 175.82,-75.7511"/>
<polygon fill="midnightblue" stroke="midnightblue" points="193.368,-106.025 202.06,-112.083 199.042,-101.927 193.368,-106.025"/>
</g>
<!-- Node5 -->
<g id="node5" class="node"><title>Node5</title>
<g id="a_node5"><a xlink:href="_simulator_8cpp.html" target="_top" xlink:title="src/Simulator.cpp">
<polygon fill="white" stroke="black" points="312.5,-0.5 312.5,-19.5 418.5,-19.5 418.5,-0.5 312.5,-0.5"/>
<text text-anchor="middle" x="365.5" y="-7.5" font-family="Ubuntu Mono" font-size="10.00">src/Simulator.cpp</text>
</a>
</g>
</g>
<!-- Node3&#45;&gt;Node5 -->
<g id="edge5" class="edge"><title>Node3&#45;&gt;Node5</title>
<path fill="none" stroke="midnightblue" d="M220.739,-104.447C231.934,-90.1875 249.59,-69.7841 268.5,-56 290.703,-39.8161 319.654,-27.3045 340.129,-19.6283"/>
<polygon fill="midnightblue" stroke="midnightblue" points="217.939,-102.346 214.65,-112.417 223.502,-106.596 217.939,-102.346"/>
</g>
<!-- Node6 -->
<g id="node6" class="node"><title>Node6</title>
<g id="a_node6"><a xlink:href="_statistics_8cpp.html" target="_top" xlink:title="src/Statistics.cpp">
<polygon fill="white" stroke="black" points="277,-56.5 277,-75.5 388,-75.5 388,-56.5 277,-56.5"/>
<text text-anchor="middle" x="332.5" y="-63.5" font-family="Ubuntu Mono" font-size="10.00">src/Statistics.cpp</text>
</a>
</g>
</g>
<!-- Node3&#45;&gt;Node6 -->
<g id="edge6" class="edge"><title>Node3&#45;&gt;Node6</title>
<path fill="none" stroke="midnightblue" d="M237.507,-108.368C260.729,-98.2553 292.663,-84.3486 312.944,-75.5164"/>
<polygon fill="midnightblue" stroke="midnightblue" points="235.919,-105.242 228.148,-112.444 238.714,-111.66 235.919,-105.242"/>
</g>
<!-- Node7 -->
<g id="node7" class="node"><title>Node7</title>
<g id="a_node7"><a xlink:href="_scheduler_creator_8h.html" target="_top" xlink:title="include/SchedulerCreator.h">
<polygon fill="white" stroke="black" points="406,-56.5 406,-75.5 559,-75.5 559,-56.5 406,-56.5"/>
<text text-anchor="middle" x="482.5" y="-63.5" font-family="Ubuntu Mono" font-size="10.00">include/SchedulerCreator.h</text>
</a>
</g>
</g>
<!-- Node3&#45;&gt;Node7 -->
<g id="edge7" class="edge"><title>Node3&#45;&gt;Node7</title>
<path fill="none" stroke="midnightblue" d="M261.913,-110.473C313.697,-100.268 391.271,-84.9794 439.287,-75.5164"/>
<polygon fill="midnightblue" stroke="midnightblue" points="261.051,-107.076 251.916,-112.444 262.404,-113.944 261.051,-107.076"/>
</g>
<!-- Node7&#45;&gt;Node5 -->
<g id="edge8" class="edge"><title>Node7&#45;&gt;Node5</title>
<path fill="none" stroke="midnightblue" d="M454.836,-52.2321C432.951,-42.1312 403.003,-28.3091 383.952,-19.5164"/>
<polygon fill="midnightblue" stroke="midnightblue" points="453.415,-55.4308 463.961,-56.4435 456.348,-49.075 453.415,-55.4308"/>
</g>
</g>
</svg>
