<?xml version="1.0" encoding="UTF-8" standalone="no"?>
<!DOCTYPE svg PUBLIC "-//W3C//DTD SVG 1.1//EN"
 "http://www.w3.org/Graphics/SVG/1.1/DTD/svg11.dtd">
<!-- Generated by graphviz version 2.38.0 (20140413.2041)
 -->
<!-- Title: include/MissingCostFunctionError.h Pages: 1 -->
<svg width="583pt" height="207pt"
 viewBox="0.00 0.00 583.00 207.00" xmlns="http://www.w3.org/2000/svg" xmlns:xlink="http://www.w3.org/1999/xlink">
<g id="graph0" class="graph" transform="scale(1 1) rotate(0) translate(4 203)">
<title>include/MissingCostFunctionError.h</title>
<polygon fill="white" stroke="none" points="-4,4 -4,-203 579,-203 579,4 -4,4"/>
<!-- Node1 -->
<g id="node1" class="node"><title>Node1</title>
<polygon fill="#bfbfbf" stroke="black" points="73.5,-168.5 73.5,-198.5 231.5,-198.5 231.5,-168.5 73.5,-168.5"/>
<text text-anchor="start" x="81.5" y="-186.5" font-family="Ubuntu Mono" font-size="10.00">include/MissingCostFunction</text>
<text text-anchor="middle" x="152.5" y="-175.5" font-family="Ubuntu Mono" font-size="10.00">Error.h</text>
</g>
<!-- Node2 -->
<g id="node2" class="node"><title>Node2</title>
<g id="a_node2"><a xlink:href="_scenario_8cpp.html" target="_top" xlink:title="src/Scenario.cpp">
<polygon fill="white" stroke="black" points="0,-56.5 0,-75.5 101,-75.5 101,-56.5 0,-56.5"/>
<text text-anchor="middle" x="50.5" y="-63.5" font-family="Ubuntu Mono" font-size="10.00">src/Scenario.cpp</text>
</a>
</g>
</g>
<!-- Node1&#45;&gt;Node2 -->
<g id="edge1" class="edge"><title>Node1&#45;&gt;Node2</title>
<path fill="none" stroke="midnightblue" d="M133.154,-160.593C110.457,-134.893 73.9273,-93.528 58.1561,-75.6695"/>
<polygon fill="midnightblue" stroke="midnightblue" points="130.75,-163.159 139.993,-168.337 135.997,-158.525 130.75,-163.159"/>
</g>
<!-- Node3 -->
<g id="node3" class="node"><title>Node3</title>
<g id="a_node3"><a xlink:href="_cost_function_type_8h.html" target="_top" xlink:title="include/CostFunctionType.h">
<polygon fill="white" stroke="black" points="132,-112.5 132,-131.5 285,-131.5 285,-112.5 132,-112.5"/>
<text text-anchor="middle" x="208.5" y="-119.5" font-family="Ubuntu Mono" font-size="10.00">include/CostFunctionType.h</text>
</a>
</g>
</g>
<!-- Node1&#45;&gt;Node3 -->
<g id="edge2" class="edge"><title>Node1&#45;&gt;Node3</title>
<path fill="none" stroke="midnightblue" d="M172.733,-161.002C182.277,-150.862 193.129,-139.332 200.352,-131.658"/>
<polygon fill="midnightblue" stroke="midnightblue" points="170.076,-158.719 165.771,-168.399 175.174,-163.516 170.076,-158.719"/>
</g>
<!-- Node3&#45;&gt;Node2 -->
<g id="edge4" class="edge"><title>Node3&#45;&gt;Node2</title>
<path fill="none" stroke="midnightblue" d="M173.892,-109.172C144.141,-99.0039 101.953,-84.5852 75.4184,-75.5164"/>
<polygon fill="midnightblue" stroke="midnightblue" points="172.87,-112.521 183.464,-112.444 175.134,-105.898 172.87,-112.521"/>
</g>
<!-- Node4 -->
<g id="node4" class="node"><title>Node4</title>
<g id="a_node4"><a xlink:href="_reporter_8cpp.html" target="_top" xlink:title="src/Reporter.cpp">
<polygon fill="white" stroke="black" points="119,-56.5 119,-75.5 220,-75.5 220,-56.5 119,-56.5"/>
<text text-anchor="middle" x="169.5" y="-63.5" font-family="Ubuntu Mono" font-size="10.00">src/Reporter.cpp</text>
</a>
</g>
</g>
<!-- Node3&#45;&gt;Node4 -->
<g id="edge3" class="edge"><title>Node3&#45;&gt;Node4</title>
<path fill="none" stroke="midnightblue" d="M196.118,-103.855C189.365,-94.5048 181.291,-83.3265 175.82,-75.7511"/>
<polygon fill="midnightblue" stroke="midnightblue" points="193.368,-106.025 202.06,-112.083 199.042,-101.927 193.368,-106.025"/>
</g>
<!-- Node5 -->
<g id="node5" class="node"><title>Node5</title>
<g id="a_node5"><a xlink:href="_simulator_8cpp.html" target="_top" xlink:title="src/Simulator.cpp">
<polygon fill="white" stroke="black" points="316.5,-0.5 316.5,-19.5 422.5,-19.5 422.5,-0.5 316.5,-0.5"/>
<text text-anchor="middle" x="369.5" y="-7.5" font-family="Ubuntu Mono" font-size="10.00">src/Simulator.cpp</text>
</a>
</g>
</g>
<!-- Node3&#45;&gt;Node5 -->
<g id="edge5" class="edge"><title>Node3&#45;&gt;Node5</title>
<path fill="none" stroke="midnightblue" d="M220.687,-104.376C231.849,-90.0706 249.485,-69.6398 268.5,-56 291.429,-39.5521 321.328,-27.1558 342.632,-19.5815"/>
<polygon fill="midnightblue" stroke="midnightblue" points="217.874,-102.293 214.62,-112.376 223.452,-106.523 217.874,-102.293"/>
</g>
<!-- Node6 -->
<g id="node6" class="node"><title>Node6</title>
<g id="a_node6"><a xlink:href="_statistics_8cpp.html" target="_top" xlink:title="src/Statistics.cpp">
<polygon fill="white" stroke="black" points="277,-56.5 277,-75.5 388,-75.5 388,-56.5 277,-56.5"/>
<text text-anchor="middle" x="332.5" y="-63.5" font-family="Ubuntu Mono" font-size="10.00">src/Statistics.cpp</text>
</a>
</g>
</g>
<!-- Node3&#45;&gt;Node6 -->
<g id="edge6" class="edge"><title>Node3&#45;&gt;Node6</title>
<path fill="none" stroke="midnightblue" d="M237.507,-108.368C260.729,-98.2553 292.663,-84.3486 312.944,-75.5164"/>
<polygon fill="midnightblue" stroke="midnightblue" points="235.919,-105.242 228.148,-112.444 238.714,-111.66 235.919,-105.242"/>
</g>
<!-- Node7 -->
<g id="node7" class="node"><title>Node7</title>
<g id="a_node7"><a xlink:href="_cost_function_creator_8h.html" target="_top" xlink:title="include/CostFunctionCreator.h">
<polygon fill="white" stroke="black" points="406,-56.5 406,-75.5 575,-75.5 575,-56.5 406,-56.5"/>
<text text-anchor="middle" x="490.5" y="-63.5" font-family="Ubuntu Mono" font-size="10.00">include/CostFunctionCreator.h</text>
</a>
</g>
</g>
<!-- Node3&#45;&gt;Node7 -->
<g id="edge7" class="edge"><title>Node3&#45;&gt;Node7</title>
<path fill="none" stroke="midnightblue" d="M263.139,-110.537C316.435,-100.332 396.504,-84.9992 446.025,-75.5164"/>
<polygon fill="midnightblue" stroke="midnightblue" points="262.347,-107.125 253.184,-112.444 263.664,-114 262.347,-107.125"/>
</g>
<!-- Node7&#45;&gt;Node5 -->
<g id="edge8" class="edge"><title>Node7&#45;&gt;Node5</title>
<path fill="none" stroke="midnightblue" d="M462.194,-52.3678C439.535,-42.2553 408.374,-28.3486 388.583,-19.5164"/>
<polygon fill="midnightblue" stroke="midnightblue" points="460.769,-55.5643 471.327,-56.4435 463.622,-49.1719 460.769,-55.5643"/>
</g>
</g>
</svg>
