<?xml version="1.0" encoding="UTF-8" standalone="no"?>
<!DOCTYPE svg PUBLIC "-//W3C//DTD SVG 1.1//EN"
 "http://www.w3.org/Graphics/SVG/1.1/DTD/svg11.dtd">
<!-- Generated by graphviz version 2.38.0 (20140413.2041)
 -->
<!-- Title: src/NearestNeighbourCostFunction.cpp Pages: 1 -->
<svg width="742pt" height="207pt"
 viewBox="0.00 0.00 742.04 207.00" xmlns="http://www.w3.org/2000/svg" xmlns:xlink="http://www.w3.org/1999/xlink">
<g id="graph0" class="graph" transform="scale(1 1) rotate(0) translate(4 203)">
<title>src/NearestNeighbourCostFunction.cpp</title>
<polygon fill="white" stroke="none" points="-4,4 -4,-203 738.04,-203 738.04,4 -4,4"/>
<!-- Node1 -->
<g id="node1" class="node"><title>Node1</title>
<polygon fill="#bfbfbf" stroke="black" points="374.5,-168.5 374.5,-198.5 517.5,-198.5 517.5,-168.5 374.5,-168.5"/>
<text text-anchor="start" x="382.5" y="-186.5" font-family="Ubuntu Mono" font-size="10.00">src/NearestNeighbourCost</text>
<text text-anchor="middle" x="446" y="-175.5" font-family="Ubuntu Mono" font-size="10.00">Function.cpp</text>
</g>
<!-- Node2 -->
<g id="node2" class="node"><title>Node2</title>
<g id="a_node2"><a xlink:href="_nearest_neighbour_cost_function_8h.html" target="_top" xlink:title="NearestNeighbourCostFunction.h">
<polygon fill="white" stroke="black" points="41,-112.5 41,-131.5 215,-131.5 215,-112.5 41,-112.5"/>
<text text-anchor="middle" x="128" y="-119.5" font-family="Ubuntu Mono" font-size="10.00">NearestNeighbourCostFunction.h</text>
</a>
</g>
</g>
<!-- Node1&#45;&gt;Node2 -->
<g id="edge1" class="edge"><title>Node1&#45;&gt;Node2</title>
<path fill="none" stroke="midnightblue" d="M374.238,-169.073C316.415,-158.254 236.296,-143.263 183.351,-133.357"/>
<polygon fill="midnightblue" stroke="midnightblue" points="183.94,-129.906 173.467,-131.507 182.652,-136.787 183.94,-129.906"/>
</g>
<!-- Node5 -->
<g id="node5" class="node"><title>Node5</title>
<g id="a_node5"><a xlink:href="_building_8h.html" target="_top" xlink:title="Building.h">
<polygon fill="white" stroke="black" points="315.5,-112.5 315.5,-131.5 384.5,-131.5 384.5,-112.5 315.5,-112.5"/>
<text text-anchor="middle" x="350" y="-119.5" font-family="Ubuntu Mono" font-size="10.00">Building.h</text>
</a>
</g>
</g>
<!-- Node1&#45;&gt;Node5 -->
<g id="edge4" class="edge"><title>Node1&#45;&gt;Node5</title>
<path fill="none" stroke="midnightblue" d="M423.249,-168.399C408.005,-158.951 388.011,-146.559 372.764,-137.109"/>
<polygon fill="midnightblue" stroke="midnightblue" points="374.313,-133.951 363.969,-131.658 370.625,-139.901 374.313,-133.951"/>
</g>
<!-- Node11 -->
<g id="node11" class="node"><title>Node11</title>
<g id="a_node11"><a xlink:href="_client_8h.html" target="_top" xlink:title="Client.h">
<polygon fill="white" stroke="black" points="645.5,-112.5 645.5,-131.5 704.5,-131.5 704.5,-112.5 645.5,-112.5"/>
<text text-anchor="middle" x="675" y="-119.5" font-family="Ubuntu Mono" font-size="10.00">Client.h</text>
</a>
</g>
</g>
<!-- Node1&#45;&gt;Node11 -->
<g id="edge12" class="edge"><title>Node1&#45;&gt;Node11</title>
<path fill="none" stroke="midnightblue" d="M499.98,-168.475C541.437,-157.703 597.75,-143.072 635.179,-133.347"/>
<polygon fill="midnightblue" stroke="midnightblue" points="636.408,-136.643 645.207,-130.741 634.648,-129.868 636.408,-136.643"/>
</g>
<!-- Node13 -->
<g id="node13" class="node"><title>Node13</title>
<g id="a_node13"><a xlink:href="_elevator_8h.html" target="_top" xlink:title="Elevator.h">
<polygon fill="white" stroke="black" points="411.5,-112.5 411.5,-131.5 480.5,-131.5 480.5,-112.5 411.5,-112.5"/>
<text text-anchor="middle" x="446" y="-119.5" font-family="Ubuntu Mono" font-size="10.00">Elevator.h</text>
</a>
</g>
</g>
<!-- Node1&#45;&gt;Node13 -->
<g id="edge15" class="edge"><title>Node1&#45;&gt;Node13</title>
<path fill="none" stroke="midnightblue" d="M446,-168.399C446,-160.466 446,-150.458 446,-141.858"/>
<polygon fill="midnightblue" stroke="midnightblue" points="449.5,-141.658 446,-131.658 442.5,-141.658 449.5,-141.658"/>
</g>
<!-- Node15 -->
<g id="node15" class="node"><title>Node15</title>
<g id="a_node15"><a xlink:href="_floor_8h.html" target="_top" xlink:title="Floor.h">
<polygon fill="white" stroke="black" points="516.5,-112.5 516.5,-131.5 569.5,-131.5 569.5,-112.5 516.5,-112.5"/>
<text text-anchor="middle" x="543" y="-119.5" font-family="Ubuntu Mono" font-size="10.00">Floor.h</text>
</a>
</g>
</g>
<!-- Node1&#45;&gt;Node15 -->
<g id="edge20" class="edge"><title>Node1&#45;&gt;Node15</title>
<path fill="none" stroke="midnightblue" d="M468.988,-168.399C484.391,-158.951 504.593,-146.559 519.999,-137.109"/>
<polygon fill="midnightblue" stroke="midnightblue" points="522.192,-139.87 528.886,-131.658 518.531,-133.903 522.192,-139.87"/>
</g>
<!-- Node3 -->
<g id="node3" class="node"><title>Node3</title>
<g id="a_node3"><a xlink:href="_cost_function_8h.html" target="_top" xlink:title="CostFunction.h">
<polygon fill="white" stroke="black" points="0,-56.5 0,-75.5 90,-75.5 90,-56.5 0,-56.5"/>
<text text-anchor="middle" x="45" y="-63.5" font-family="Ubuntu Mono" font-size="10.00">CostFunction.h</text>
</a>
</g>
</g>
<!-- Node2&#45;&gt;Node3 -->
<g id="edge2" class="edge"><title>Node2&#45;&gt;Node3</title>
<path fill="none" stroke="midnightblue" d="M114.665,-112.324C101.838,-103.979 82.215,-91.2122 67.0602,-81.3524"/>
<polygon fill="midnightblue" stroke="midnightblue" points="68.5932,-78.1742 58.3023,-75.6545 64.7757,-84.0417 68.5932,-78.1742"/>
</g>
<!-- Node4 -->
<g id="node4" class="node"><title>Node4</title>
<polygon fill="white" stroke="#bfbfbf" points="324,-0.5 324,-19.5 372,-19.5 372,-0.5 324,-0.5"/>
<text text-anchor="middle" x="348" y="-7.5" font-family="Ubuntu Mono" font-size="10.00">memory</text>
</g>
<!-- Node3&#45;&gt;Node4 -->
<g id="edge3" class="edge"><title>Node3&#45;&gt;Node4</title>
<path fill="none" stroke="midnightblue" d="M90.035,-56.974C151.211,-46.0714 259.217,-26.8226 314.036,-17.053"/>
<polygon fill="midnightblue" stroke="midnightblue" points="314.715,-20.4873 323.946,-15.2869 313.487,-13.5958 314.715,-20.4873"/>
</g>
<!-- Node5&#45;&gt;Node4 -->
<g id="edge8" class="edge"><title>Node5&#45;&gt;Node4</title>
<path fill="none" stroke="midnightblue" d="M315.459,-118.837C260.998,-114.625 159.078,-103.229 137,-76 89.1244,-16.953 242.055,-10.3828 313.4,-10.4196"/>
<polygon fill="midnightblue" stroke="midnightblue" points="313.687,-13.921 323.704,-10.4713 313.722,-6.92111 313.687,-13.921"/>
</g>
<!-- Node6 -->
<g id="node6" class="node"><title>Node6</title>
<g id="a_node6"><a xlink:href="_event_observer_8h.html" target="_top" xlink:title="EventObserver.h">
<polygon fill="white" stroke="black" points="146.5,-56.5 146.5,-75.5 241.5,-75.5 241.5,-56.5 146.5,-56.5"/>
<text text-anchor="middle" x="194" y="-63.5" font-family="Ubuntu Mono" font-size="10.00">EventObserver.h</text>
</a>
</g>
</g>
<!-- Node5&#45;&gt;Node6 -->
<g id="edge5" class="edge"><title>Node5&#45;&gt;Node6</title>
<path fill="none" stroke="midnightblue" d="M325.281,-112.444C299.152,-103.399 257.741,-89.064 228.424,-78.9158"/>
<polygon fill="midnightblue" stroke="midnightblue" points="229.198,-75.4801 218.603,-75.5164 226.908,-82.0951 229.198,-75.4801"/>
</g>
<!-- Node7 -->
<g id="node7" class="node"><title>Node7</title>
<polygon fill="white" stroke="#bfbfbf" points="392,-56.5 392,-75.5 424,-75.5 424,-56.5 392,-56.5"/>
<text text-anchor="middle" x="408" y="-63.5" font-family="Ubuntu Mono" font-size="10.00">map</text>
</g>
<!-- Node5&#45;&gt;Node7 -->
<g id="edge7" class="edge"><title>Node5&#45;&gt;Node7</title>
<path fill="none" stroke="midnightblue" d="M359.319,-112.324C367.893,-104.341 380.812,-92.3128 391.188,-82.6529"/>
<polygon fill="midnightblue" stroke="midnightblue" points="393.578,-85.2098 398.512,-75.8339 388.808,-80.0865 393.578,-85.2098"/>
</g>
<!-- Node8 -->
<g id="node8" class="node"><title>Node8</title>
<polygon fill="white" stroke="#bfbfbf" points="442,-56.5 442,-75.5 474,-75.5 474,-56.5 442,-56.5"/>
<text text-anchor="middle" x="458" y="-63.5" font-family="Ubuntu Mono" font-size="10.00">set</text>
</g>
<!-- Node5&#45;&gt;Node8 -->
<g id="edge9" class="edge"><title>Node5&#45;&gt;Node8</title>
<path fill="none" stroke="midnightblue" d="M367.352,-112.324C384.979,-103.51 412.471,-89.7643 432.56,-79.7201"/>
<polygon fill="midnightblue" stroke="midnightblue" points="434.372,-82.7272 441.751,-75.1245 431.241,-76.4662 434.372,-82.7272"/>
</g>
<!-- Node9 -->
<g id="node9" class="node"><title>Node9</title>
<polygon fill="white" stroke="#bfbfbf" points="260,-56.5 260,-75.5 308,-75.5 308,-56.5 260,-56.5"/>
<text text-anchor="middle" x="284" y="-63.5" font-family="Ubuntu Mono" font-size="10.00">string</text>
</g>
<!-- Node5&#45;&gt;Node9 -->
<g id="edge10" class="edge"><title>Node5&#45;&gt;Node9</title>
<path fill="none" stroke="midnightblue" d="M339.396,-112.324C329.544,-104.263 314.649,-92.0765 302.785,-82.3695"/>
<polygon fill="midnightblue" stroke="midnightblue" points="304.753,-79.4575 294.797,-75.8339 300.32,-84.8752 304.753,-79.4575"/>
</g>
<!-- Node10 -->
<g id="node10" class="node"><title>Node10</title>
<polygon fill="white" stroke="#bfbfbf" points="326,-56.5 326,-75.5 374,-75.5 374,-56.5 326,-56.5"/>
<text text-anchor="middle" x="350" y="-63.5" font-family="Ubuntu Mono" font-size="10.00">vector</text>
</g>
<!-- Node5&#45;&gt;Node10 -->
<g id="edge11" class="edge"><title>Node5&#45;&gt;Node10</title>
<path fill="none" stroke="midnightblue" d="M350,-112.083C350,-105.006 350,-94.8611 350,-85.9865"/>
<polygon fill="midnightblue" stroke="midnightblue" points="353.5,-85.751 350,-75.7511 346.5,-85.7511 353.5,-85.751"/>
</g>
<!-- Node6&#45;&gt;Node4 -->
<g id="edge6" class="edge"><title>Node6&#45;&gt;Node4</title>
<path fill="none" stroke="midnightblue" d="M218.402,-56.4435C244.272,-47.372 285.317,-32.9797 314.273,-22.8264"/>
<polygon fill="midnightblue" stroke="midnightblue" points="315.687,-26.0394 323.966,-19.4275 313.371,-19.4337 315.687,-26.0394"/>
</g>
<!-- Node11&#45;&gt;Node4 -->
<g id="edge14" class="edge"><title>Node11&#45;&gt;Node4</title>
<path fill="none" stroke="midnightblue" d="M691.091,-112.434C712.72,-99.8543 746.544,-75.7378 729,-56 706.119,-30.2571 471.486,-16.7363 382.22,-12.493"/>
<polygon fill="midnightblue" stroke="midnightblue" points="382.23,-8.98975 372.078,-12.0213 381.905,-15.9822 382.23,-8.98975"/>
</g>
<!-- Node12 -->
<g id="node12" class="node"><title>Node12</title>
<polygon fill="white" stroke="#bfbfbf" points="630,-56.5 630,-75.5 720,-75.5 720,-56.5 630,-56.5"/>
<text text-anchor="middle" x="675" y="-63.5" font-family="Ubuntu Mono" font-size="10.00">glog/logging.h</text>
</g>
<!-- Node11&#45;&gt;Node12 -->
<g id="edge13" class="edge"><title>Node11&#45;&gt;Node12</title>
<path fill="none" stroke="midnightblue" d="M675,-112.083C675,-105.006 675,-94.8611 675,-85.9865"/>
<polygon fill="midnightblue" stroke="midnightblue" points="678.5,-85.751 675,-75.7511 671.5,-85.7511 678.5,-85.751"/>
</g>
<!-- Node13&#45;&gt;Node4 -->
<g id="edge17" class="edge"><title>Node13&#45;&gt;Node4</title>
<path fill="none" stroke="midnightblue" d="M457.205,-112.441C472.556,-99.6648 496.742,-75.0664 483,-56 460.223,-24.3987 414.29,-14.654 382.367,-11.8304"/>
<polygon fill="midnightblue" stroke="midnightblue" points="382.35,-8.32081 372.131,-11.1165 381.863,-15.3038 382.35,-8.32081"/>
</g>
<!-- Node13&#45;&gt;Node7 -->
<g id="edge16" class="edge"><title>Node13&#45;&gt;Node7</title>
<path fill="none" stroke="midnightblue" d="M439.725,-112.083C434.358,-104.455 426.482,-93.2645 419.921,-83.9408"/>
<polygon fill="midnightblue" stroke="midnightblue" points="422.775,-81.9149 414.158,-75.7511 417.051,-85.9434 422.775,-81.9149"/>
</g>
<!-- Node13&#45;&gt;Node10 -->
<g id="edge19" class="edge"><title>Node13&#45;&gt;Node10</title>
<path fill="none" stroke="midnightblue" d="M430.576,-112.324C415.46,-103.822 392.185,-90.7288 374.529,-80.7975"/>
<polygon fill="midnightblue" stroke="midnightblue" points="375.817,-77.5066 365.386,-75.6545 372.386,-83.6077 375.817,-77.5066"/>
</g>
<!-- Node14 -->
<g id="node14" class="node"><title>Node14</title>
<polygon fill="white" stroke="#bfbfbf" points="530.5,-56.5 530.5,-75.5 573.5,-75.5 573.5,-56.5 530.5,-56.5"/>
<text text-anchor="middle" x="552" y="-63.5" font-family="Ubuntu Mono" font-size="10.00">queue</text>
</g>
<!-- Node13&#45;&gt;Node14 -->
<g id="edge18" class="edge"><title>Node13&#45;&gt;Node14</title>
<path fill="none" stroke="midnightblue" d="M463.031,-112.324C480.03,-103.664 506.376,-90.2424 525.993,-80.249"/>
<polygon fill="midnightblue" stroke="midnightblue" points="527.69,-83.3125 535.012,-75.6545 524.512,-77.0752 527.69,-83.3125"/>
</g>
<!-- Node15&#45;&gt;Node4 -->
<g id="edge21" class="edge"><title>Node15&#45;&gt;Node4</title>
<path fill="none" stroke="midnightblue" d="M554.716,-112.475C571.107,-99.5289 597.253,-74.4663 582,-56 557.074,-25.8234 441.151,-15.6714 382.371,-12.4285"/>
<polygon fill="midnightblue" stroke="midnightblue" points="382.262,-8.91832 372.095,-11.9001 381.902,-15.9091 382.262,-8.91832"/>
</g>
<!-- Node15&#45;&gt;Node8 -->
<g id="edge23" class="edge"><title>Node15&#45;&gt;Node8</title>
<path fill="none" stroke="midnightblue" d="M529.343,-112.324C516.084,-103.9 495.732,-90.9709 480.154,-81.0741"/>
<polygon fill="midnightblue" stroke="midnightblue" points="481.94,-78.0626 471.623,-75.6545 478.187,-83.9711 481.94,-78.0626"/>
</g>
<!-- Node15&#45;&gt;Node14 -->
<g id="edge22" class="edge"><title>Node15&#45;&gt;Node14</title>
<path fill="none" stroke="midnightblue" d="M544.486,-112.083C545.679,-104.927 547.394,-94.6353 548.885,-85.6911"/>
<polygon fill="midnightblue" stroke="midnightblue" points="552.35,-86.1904 550.541,-75.7511 545.445,-85.0396 552.35,-86.1904"/>
</g>
</g>
</svg>
