<?xml version="1.0" encoding="UTF-8" standalone="no"?>
<!DOCTYPE svg PUBLIC "-//W3C//DTD SVG 1.1//EN"
 "http://www.w3.org/Graphics/SVG/1.1/DTD/svg11.dtd">
<!-- Generated by graphviz version 2.38.0 (20140413.2041)
 -->
<!-- Title: include/NearestNeighbourCostFunction.h Pages: 1 -->
<svg width="465pt" height="162pt"
 viewBox="0.00 0.00 464.50 162.00" xmlns="http://www.w3.org/2000/svg" xmlns:xlink="http://www.w3.org/1999/xlink">
<g id="graph0" class="graph" transform="scale(1 1) rotate(0) translate(4 158)">
<title>include/NearestNeighbourCostFunction.h</title>
<polygon fill="white" stroke="none" points="-4,4 -4,-158 460.5,-158 460.5,4 -4,4"/>
<!-- Node1 -->
<g id="node1" class="node"><title>Node1</title>
<polygon fill="#bfbfbf" stroke="black" points="158.5,-123.5 158.5,-153.5 287.5,-153.5 287.5,-123.5 158.5,-123.5"/>
<text text-anchor="start" x="166.5" y="-141.5" font-family="Helvetica,sans-Serif" font-size="10.00">include/NearestNeighbour</text>
<text text-anchor="middle" x="223" y="-130.5" font-family="Helvetica,sans-Serif" font-size="10.00">CostFunction.h</text>
</g>
<!-- Node2 -->
<g id="node2" class="node"><title>Node2</title>
<g id="a_node2"><a xlink:href="_better_nearest_neighbour_cost_function_8cpp.html" target="_top" xlink:title="src/BetterNearestNeighbour\lCostFunction.cpp">
<polygon fill="white" stroke="black" points="0,-56.5 0,-86.5 138,-86.5 138,-56.5 0,-56.5"/>
<text text-anchor="start" x="8" y="-74.5" font-family="Helvetica,sans-Serif" font-size="10.00">src/BetterNearestNeighbour</text>
<text text-anchor="middle" x="69" y="-63.5" font-family="Helvetica,sans-Serif" font-size="10.00">CostFunction.cpp</text>
</a>
</g>
</g>
<!-- Node1&#45;&gt;Node2 -->
<g id="edge1" class="edge"><title>Node1&#45;&gt;Node2</title>
<path fill="none" stroke="midnightblue" d="M180.133,-119.407C155.547,-109.029 125.14,-96.1954 102.35,-86.5765"/>
<polygon fill="midnightblue" stroke="midnightblue" points="179.01,-122.732 189.584,-123.396 181.732,-116.283 179.01,-122.732"/>
</g>
<!-- Node3 -->
<g id="node3" class="node"><title>Node3</title>
<g id="a_node3"><a xlink:href="_nearest_neighbour_cost_function_8cpp.html" target="_top" xlink:title="src/NearestNeighbourCost\lFunction.cpp">
<polygon fill="white" stroke="black" points="156.5,-56.5 156.5,-86.5 289.5,-86.5 289.5,-56.5 156.5,-56.5"/>
<text text-anchor="start" x="164.5" y="-74.5" font-family="Helvetica,sans-Serif" font-size="10.00">src/NearestNeighbourCost</text>
<text text-anchor="middle" x="223" y="-63.5" font-family="Helvetica,sans-Serif" font-size="10.00">Function.cpp</text>
</a>
</g>
</g>
<!-- Node1&#45;&gt;Node3 -->
<g id="edge2" class="edge"><title>Node1&#45;&gt;Node3</title>
<path fill="none" stroke="midnightblue" d="M223,-113.108C223,-104.154 223,-94.3227 223,-86.5765"/>
<polygon fill="midnightblue" stroke="midnightblue" points="219.5,-113.396 223,-123.396 226.5,-113.396 219.5,-113.396"/>
</g>
<!-- Node4 -->
<g id="node4" class="node"><title>Node4</title>
<g id="a_node4"><a xlink:href="_cost_function_creator_8h.html" target="_top" xlink:title="include/CostFunctionCreator.h">
<polygon fill="white" stroke="black" points="307.5,-62 307.5,-81 456.5,-81 456.5,-62 307.5,-62"/>
<text text-anchor="middle" x="382" y="-69" font-family="Helvetica,sans-Serif" font-size="10.00">include/CostFunctionCreator.h</text>
</a>
</g>
</g>
<!-- Node1&#45;&gt;Node4 -->
<g id="edge3" class="edge"><title>Node1&#45;&gt;Node4</title>
<path fill="none" stroke="midnightblue" d="M267.132,-119.458C297.852,-106.9 337.421,-90.724 361.191,-81.007"/>
<polygon fill="midnightblue" stroke="midnightblue" points="265.433,-116.372 257.501,-123.396 268.081,-122.852 265.433,-116.372"/>
</g>
<!-- Node5 -->
<g id="node5" class="node"><title>Node5</title>
<g id="a_node5"><a xlink:href="_simulator_8cpp.html" target="_top" xlink:title="src/Simulator.cpp">
<polygon fill="white" stroke="black" points="335.5,-0.5 335.5,-19.5 428.5,-19.5 428.5,-0.5 335.5,-0.5"/>
<text text-anchor="middle" x="382" y="-7.5" font-family="Helvetica,sans-Serif" font-size="10.00">src/Simulator.cpp</text>
</a>
</g>
</g>
<!-- Node4&#45;&gt;Node5 -->
<g id="edge4" class="edge"><title>Node4&#45;&gt;Node5</title>
<path fill="none" stroke="midnightblue" d="M382,-51.8165C382,-40.9962 382,-27.898 382,-19.5091"/>
<polygon fill="midnightblue" stroke="midnightblue" points="378.5,-51.9751 382,-61.9751 385.5,-51.9751 378.5,-51.9751"/>
</g>
</g>
</svg>
