<?xml version="1.0" encoding="UTF-8" standalone="no"?>
<!DOCTYPE svg PUBLIC "-//W3C//DTD SVG 1.1//EN"
 "http://www.w3.org/Graphics/SVG/1.1/DTD/svg11.dtd">
<!-- Generated by graphviz version 2.38.0 (20140413.2041)
 -->
<!-- Title: src/NearestNeighbourCostFunction.cpp Pages: 1 -->
<!--zoomable 207 -->
<svg id="main" version="1.1" xmlns="http://www.w3.org/2000/svg" xmlns:xlink="http://www.w3.org/1999/xlink" xml:space="preserve" onload="init(evt)">
<style type="text/css"><![CDATA[
.edge:hover path { stroke: red; }
.edge:hover polygon { stroke: red; fill: red; }
]]></style>
<script type="text/javascript"><![CDATA[
var edges = document.getElementsByTagName('g');
if (edges && edges.length) {
  for (var i=0;i<edges.length;i++) {
    if (edges[i].id.substr(0,4)=='edge') {
      edges[i].setAttribute('class','edge');
    }
  }
}
]]></script>
        <defs>
                <circle id="rim" cx="0" cy="0" r="7"/>
                <circle id="rim2" cx="0" cy="0" r="3.5"/>
                <g id="zoomPlus">
                        <use xlink:href="#rim" fill="#404040">
                                <set attributeName="fill" to="#808080" begin="zoomplus.mouseover" end="zoomplus.mouseout"/>
                        </use>
                        <path d="M-4,0h8M0,-4v8" fill="none" stroke="white" stroke-width="1.5" pointer-events="none"/>
                </g>
                <g id="zoomMin">
                        <use xlink:href="#rim" fill="#404040">
                                <set attributeName="fill" to="#808080" begin="zoomminus.mouseover" end="zoomminus.mouseout"/>
                        </use>
                        <path d="M-4,0h8" fill="none" stroke="white" stroke-width="1.5" pointer-events="none"/>
                </g>
                <g id="dirArrow">
                        <path fill="none" stroke="white" stroke-width="1.5" d="M0,-3.0v7 M-2.5,-0.5L0,-3.0L2.5,-0.5"/>
                </g>
               <g id="resetDef">
                       <use xlink:href="#rim2" fill="#404040">
                               <set attributeName="fill" to="#808080" begin="reset.mouseover" end="reset.mouseout"/>
                       </use>
               </g>
        </defs>

<script type="text/javascript">
var viewWidth = 710;
var viewHeight = 207;
var sectionId = 'dynsection-0';
</script>
<script xlink:href="svgpan.js"/>
<svg id="graph" class="graph">
<g id="viewport">
<title>src/NearestNeighbourCostFunction.cpp</title>
<polygon fill="white" stroke="none" points="-4,4 -4,-203 705.501,-203 705.501,4 -4,4"/>
<!-- Node1 -->
<g id="node1" class="node"><title>Node1</title>
<polygon fill="#bfbfbf" stroke="black" points="354,-168.5 354,-198.5 487,-198.5 487,-168.5 354,-168.5"/>
<text text-anchor="start" x="362" y="-186.5" font-family="Helvetica,sans-Serif" font-size="10.00">src/NearestNeighbourCost</text>
<text text-anchor="middle" x="420.5" y="-175.5" font-family="Helvetica,sans-Serif" font-size="10.00">Function.cpp</text>
</g>
<!-- Node2 -->
<g id="node2" class="node"><title>Node2</title>
<g id="a_node2"><a xlink:href="_nearest_neighbour_cost_function_8h.html" target="_top" xlink:title="NearestNeighbourCostFunction.h">
<polygon fill="white" stroke="black" points="40.5,-112.5 40.5,-131.5 202.5,-131.5 202.5,-112.5 40.5,-112.5"/>
<text text-anchor="middle" x="121.5" y="-119.5" font-family="Helvetica,sans-Serif" font-size="10.00">NearestNeighbourCostFunction.h</text>
</a>
</g>
</g>
<!-- Node1&#45;&gt;Node2 -->
<g id="edge1" class="edge"><title>Node1&#45;&gt;Node2</title>
<path fill="none" stroke="midnightblue" d="M353.771,-169.221C299.668,-158.455 224.447,-143.486 174.432,-133.533"/>
<polygon fill="midnightblue" stroke="midnightblue" points="174.959,-130.07 164.469,-131.551 173.593,-136.935 174.959,-130.07"/>
</g>
<!-- Node5 -->
<g id="node5" class="node"><title>Node5</title>
<g id="a_node5"><a xlink:href="_building_8h.html" target="_top" xlink:title="Building.h">
<polygon fill="white" stroke="black" points="300,-112.5 300,-131.5 359,-131.5 359,-112.5 300,-112.5"/>
<text text-anchor="middle" x="329.5" y="-119.5" font-family="Helvetica,sans-Serif" font-size="10.00">Building.h</text>
</a>
</g>
</g>
<!-- Node1&#45;&gt;Node5 -->
<g id="edge4" class="edge"><title>Node1&#45;&gt;Node5</title>
<path fill="none" stroke="midnightblue" d="M398.934,-168.399C384.62,-159.04 365.888,-146.792 351.489,-137.377"/>
<polygon fill="midnightblue" stroke="midnightblue" points="353.026,-134.201 342.741,-131.658 349.196,-140.06 353.026,-134.201"/>
</g>
<!-- Node11 -->
<g id="node11" class="node"><title>Node11</title>
<g id="a_node11"><a xlink:href="_client_8h.html" target="_top" xlink:title="Client.h">
<polygon fill="white" stroke="black" points="623.5,-112.5 623.5,-131.5 673.5,-131.5 673.5,-112.5 623.5,-112.5"/>
<text text-anchor="middle" x="648.5" y="-119.5" font-family="Helvetica,sans-Serif" font-size="10.00">Client.h</text>
</a>
</g>
</g>
<!-- Node1&#45;&gt;Node11 -->
<g id="edge12" class="edge"><title>Node1&#45;&gt;Node11</title>
<path fill="none" stroke="midnightblue" d="M474.244,-168.475C517.326,-157.232 576.519,-141.784 613.631,-132.1"/>
<polygon fill="midnightblue" stroke="midnightblue" points="614.689,-135.441 623.481,-129.529 612.921,-128.668 614.689,-135.441"/>
</g>
<!-- Node13 -->
<g id="node13" class="node"><title>Node13</title>
<g id="a_node13"><a xlink:href="_elevator_8h.html" target="_top" xlink:title="Elevator.h">
<polygon fill="white" stroke="black" points="390,-112.5 390,-131.5 451,-131.5 451,-112.5 390,-112.5"/>
<text text-anchor="middle" x="420.5" y="-119.5" font-family="Helvetica,sans-Serif" font-size="10.00">Elevator.h</text>
</a>
</g>
</g>
<!-- Node1&#45;&gt;Node13 -->
<g id="edge15" class="edge"><title>Node1&#45;&gt;Node13</title>
<path fill="none" stroke="midnightblue" d="M420.5,-168.399C420.5,-160.466 420.5,-150.458 420.5,-141.858"/>
<polygon fill="midnightblue" stroke="midnightblue" points="424,-141.658 420.5,-131.658 417,-141.658 424,-141.658"/>
</g>
<!-- Node15 -->
<g id="node15" class="node"><title>Node15</title>
<g id="a_node15"><a xlink:href="_floor_8h.html" target="_top" xlink:title="Floor.h">
<polygon fill="white" stroke="black" points="495,-112.5 495,-131.5 542,-131.5 542,-112.5 495,-112.5"/>
<text text-anchor="middle" x="518.5" y="-119.5" font-family="Helvetica,sans-Serif" font-size="10.00">Floor.h</text>
</a>
</g>
</g>
<!-- Node1&#45;&gt;Node15 -->
<g id="edge20" class="edge"><title>Node1&#45;&gt;Node15</title>
<path fill="none" stroke="midnightblue" d="M443.725,-168.399C459.286,-158.951 479.697,-146.559 495.262,-137.109"/>
<polygon fill="midnightblue" stroke="midnightblue" points="497.509,-139.839 504.24,-131.658 493.876,-133.856 497.509,-139.839"/>
</g>
<!-- Node3 -->
<g id="node3" class="node"><title>Node3</title>
<g id="a_node3"><a xlink:href="_cost_function_8h.html" target="_top" xlink:title="CostFunction.h">
<polygon fill="white" stroke="black" points="0,-56.5 0,-75.5 83,-75.5 83,-56.5 0,-56.5"/>
<text text-anchor="middle" x="41.5" y="-63.5" font-family="Helvetica,sans-Serif" font-size="10.00">CostFunction.h</text>
</a>
</g>
</g>
<!-- Node2&#45;&gt;Node3 -->
<g id="edge2" class="edge"><title>Node2&#45;&gt;Node3</title>
<path fill="none" stroke="midnightblue" d="M108.647,-112.324C96.2836,-103.979 77.3699,-91.2122 62.7628,-81.3524"/>
<polygon fill="midnightblue" stroke="midnightblue" points="64.5682,-78.3483 54.3215,-75.6545 60.6518,-84.1503 64.5682,-78.3483"/>
</g>
<!-- Node4 -->
<g id="node4" class="node"><title>Node4</title>
<polygon fill="white" stroke="#bfbfbf" points="306.5,-0.5 306.5,-19.5 358.5,-19.5 358.5,-0.5 306.5,-0.5"/>
<text text-anchor="middle" x="332.5" y="-7.5" font-family="Helvetica,sans-Serif" font-size="10.00">memory</text>
</g>
<!-- Node3&#45;&gt;Node4 -->
<g id="edge3" class="edge"><title>Node3&#45;&gt;Node4</title>
<path fill="none" stroke="midnightblue" d="M83.1932,-57.2631C140.359,-46.6551 242.133,-27.7692 296.277,-17.7218"/>
<polygon fill="midnightblue" stroke="midnightblue" points="297.25,-21.1011 306.444,-15.8352 295.973,-14.2185 297.25,-21.1011"/>
</g>
<!-- Node5&#45;&gt;Node4 -->
<g id="edge8" class="edge"><title>Node5&#45;&gt;Node4</title>
<path fill="none" stroke="midnightblue" d="M299.637,-118.704C249.384,-114.151 151.341,-102.08 130.5,-76 124.951,-69.056 124.94,-62.9352 130.5,-56 150.843,-30.627 243.425,-18.6364 295.907,-13.7894"/>
<polygon fill="midnightblue" stroke="midnightblue" points="296.492,-17.2515 306.147,-12.8873 295.878,-10.2785 296.492,-17.2515"/>
</g>
<!-- Node6 -->
<g id="node6" class="node"><title>Node6</title>
<g id="a_node6"><a xlink:href="_event_observer_8h.html" target="_top" xlink:title="EventObserver.h">
<polygon fill="white" stroke="black" points="139.5,-56.5 139.5,-75.5 229.5,-75.5 229.5,-56.5 139.5,-56.5"/>
<text text-anchor="middle" x="184.5" y="-63.5" font-family="Helvetica,sans-Serif" font-size="10.00">EventObserver.h</text>
</a>
</g>
</g>
<!-- Node5&#45;&gt;Node6 -->
<g id="edge5" class="edge"><title>Node5&#45;&gt;Node6</title>
<path fill="none" stroke="midnightblue" d="M306.524,-112.444C282.343,-103.438 244.082,-89.1891 216.854,-79.049"/>
<polygon fill="midnightblue" stroke="midnightblue" points="217.961,-75.7265 207.368,-75.5164 215.518,-82.2864 217.961,-75.7265"/>
</g>
<!-- Node7 -->
<g id="node7" class="node"><title>Node7</title>
<polygon fill="white" stroke="#bfbfbf" points="370,-56.5 370,-75.5 405,-75.5 405,-56.5 370,-56.5"/>
<text text-anchor="middle" x="387.5" y="-63.5" font-family="Helvetica,sans-Serif" font-size="10.00">map</text>
</g>
<!-- Node5&#45;&gt;Node7 -->
<g id="edge7" class="edge"><title>Node5&#45;&gt;Node7</title>
<path fill="none" stroke="midnightblue" d="M338.819,-112.324C347.393,-104.341 360.312,-92.3128 370.688,-82.6529"/>
<polygon fill="midnightblue" stroke="midnightblue" points="373.078,-85.2098 378.012,-75.8339 368.308,-80.0865 373.078,-85.2098"/>
</g>
<!-- Node8 -->
<g id="node8" class="node"><title>Node8</title>
<polygon fill="white" stroke="#bfbfbf" points="423.5,-56.5 423.5,-75.5 453.5,-75.5 453.5,-56.5 423.5,-56.5"/>
<text text-anchor="middle" x="438.5" y="-63.5" font-family="Helvetica,sans-Serif" font-size="10.00">set</text>
</g>
<!-- Node5&#45;&gt;Node8 -->
<g id="edge9" class="edge"><title>Node5&#45;&gt;Node8</title>
<path fill="none" stroke="midnightblue" d="M347.013,-112.324C365.3,-103.264 394.106,-88.9933 414.504,-78.8881"/>
<polygon fill="midnightblue" stroke="midnightblue" points="416.08,-82.0131 423.487,-74.4376 412.973,-75.7407 416.08,-82.0131"/>
</g>
<!-- Node9 -->
<g id="node9" class="node"><title>Node9</title>
<polygon fill="white" stroke="#bfbfbf" points="248,-56.5 248,-75.5 289,-75.5 289,-56.5 248,-56.5"/>
<text text-anchor="middle" x="268.5" y="-63.5" font-family="Helvetica,sans-Serif" font-size="10.00">string</text>
</g>
<!-- Node5&#45;&gt;Node9 -->
<g id="edge10" class="edge"><title>Node5&#45;&gt;Node9</title>
<path fill="none" stroke="midnightblue" d="M319.699,-112.324C310.682,-104.341 297.094,-92.3128 286.182,-82.6529"/>
<polygon fill="midnightblue" stroke="midnightblue" points="288.287,-79.8416 278.479,-75.8339 283.647,-85.083 288.287,-79.8416"/>
</g>
<!-- Node10 -->
<g id="node10" class="node"><title>Node10</title>
<polygon fill="white" stroke="#bfbfbf" points="307.5,-56.5 307.5,-75.5 351.5,-75.5 351.5,-56.5 307.5,-56.5"/>
<text text-anchor="middle" x="329.5" y="-63.5" font-family="Helvetica,sans-Serif" font-size="10.00">vector</text>
</g>
<!-- Node5&#45;&gt;Node10 -->
<g id="edge11" class="edge"><title>Node5&#45;&gt;Node10</title>
<path fill="none" stroke="midnightblue" d="M329.5,-112.083C329.5,-105.006 329.5,-94.8611 329.5,-85.9865"/>
<polygon fill="midnightblue" stroke="midnightblue" points="333,-85.751 329.5,-75.7511 326,-85.7511 333,-85.751"/>
</g>
<!-- Node6&#45;&gt;Node4 -->
<g id="edge6" class="edge"><title>Node6&#45;&gt;Node4</title>
<path fill="none" stroke="midnightblue" d="M207.951,-56.4435C232.633,-47.4381 271.685,-33.1891 299.477,-23.049"/>
<polygon fill="midnightblue" stroke="midnightblue" points="300.964,-26.2321 309.159,-19.5164 298.565,-19.6561 300.964,-26.2321"/>
</g>
<!-- Node11&#45;&gt;Node4 -->
<g id="edge14" class="edge"><title>Node11&#45;&gt;Node4</title>
<path fill="none" stroke="midnightblue" d="M662.776,-112.43C682.359,-99.6398 713.317,-75.0237 696.5,-56 674.971,-31.6453 456.192,-17.5125 368.535,-12.7903"/>
<polygon fill="midnightblue" stroke="midnightblue" points="368.688,-9.29357 358.517,-12.261 368.319,-16.2838 368.688,-9.29357"/>
</g>
<!-- Node12 -->
<g id="node12" class="node"><title>Node12</title>
<polygon fill="white" stroke="#bfbfbf" points="610,-56.5 610,-75.5 687,-75.5 687,-56.5 610,-56.5"/>
<text text-anchor="middle" x="648.5" y="-63.5" font-family="Helvetica,sans-Serif" font-size="10.00">glog/logging.h</text>
</g>
<!-- Node11&#45;&gt;Node12 -->
<g id="edge13" class="edge"><title>Node11&#45;&gt;Node12</title>
<path fill="none" stroke="midnightblue" d="M648.5,-112.083C648.5,-105.006 648.5,-94.8611 648.5,-85.9865"/>
<polygon fill="midnightblue" stroke="midnightblue" points="652,-85.751 648.5,-75.7511 645,-85.7511 652,-85.751"/>
</g>
<!-- Node13&#45;&gt;Node4 -->
<g id="edge17" class="edge"><title>Node13&#45;&gt;Node4</title>
<path fill="none" stroke="midnightblue" d="M433.116,-112.424C450.065,-99.8319 476.528,-75.7 462.5,-56 441.433,-26.4145 399.522,-16.0991 368.965,-12.5997"/>
<polygon fill="midnightblue" stroke="midnightblue" points="368.968,-9.0844 358.683,-11.6257 368.308,-16.0532 368.968,-9.0844"/>
</g>
<!-- Node13&#45;&gt;Node7 -->
<g id="edge16" class="edge"><title>Node13&#45;&gt;Node7</title>
<path fill="none" stroke="midnightblue" d="M415.051,-112.083C410.486,-104.613 403.832,-93.7244 398.207,-84.5199"/>
<polygon fill="midnightblue" stroke="midnightblue" points="401.049,-82.4588 392.848,-75.7511 395.076,-86.109 401.049,-82.4588"/>
</g>
<!-- Node13&#45;&gt;Node10 -->
<g id="edge19" class="edge"><title>Node13&#45;&gt;Node10</title>
<path fill="none" stroke="midnightblue" d="M405.879,-112.324C391.551,-103.822 369.487,-90.7288 352.751,-80.7975"/>
<polygon fill="midnightblue" stroke="midnightblue" points="354.47,-77.7478 344.084,-75.6545 350.898,-83.7677 354.47,-77.7478"/>
</g>
<!-- Node14 -->
<g id="node14" class="node"><title>Node14</title>
<polygon fill="white" stroke="#bfbfbf" points="510,-56.5 510,-75.5 553,-75.5 553,-56.5 510,-56.5"/>
<text text-anchor="middle" x="531.5" y="-63.5" font-family="Helvetica,sans-Serif" font-size="10.00">queue</text>
</g>
<!-- Node13&#45;&gt;Node14 -->
<g id="edge18" class="edge"><title>Node13&#45;&gt;Node14</title>
<path fill="none" stroke="midnightblue" d="M438.334,-112.324C456.216,-103.625 483.975,-90.1202 504.546,-80.113"/>
<polygon fill="midnightblue" stroke="midnightblue" points="506.249,-83.1765 513.71,-75.6545 503.187,-76.8819 506.249,-83.1765"/>
</g>
<!-- Node15&#45;&gt;Node4 -->
<g id="edge21" class="edge"><title>Node15&#45;&gt;Node4</title>
<path fill="none" stroke="midnightblue" d="M531.416,-112.402C549.121,-99.575 577.058,-74.9132 561.5,-56 537.51,-26.8375 427.049,-16.2855 368.758,-12.7033"/>
<polygon fill="midnightblue" stroke="midnightblue" points="368.699,-9.19418 358.514,-12.1127 368.296,-16.1826 368.699,-9.19418"/>
</g>
<!-- Node15&#45;&gt;Node8 -->
<g id="edge23" class="edge"><title>Node15&#45;&gt;Node8</title>
<path fill="none" stroke="midnightblue" d="M505.647,-112.324C493.284,-103.979 474.37,-91.2122 459.763,-81.3524"/>
<polygon fill="midnightblue" stroke="midnightblue" points="461.568,-78.3483 451.321,-75.6545 457.652,-84.1503 461.568,-78.3483"/>
</g>
<!-- Node15&#45;&gt;Node14 -->
<g id="edge22" class="edge"><title>Node15&#45;&gt;Node14</title>
<path fill="none" stroke="midnightblue" d="M520.647,-112.083C522.369,-104.927 524.847,-94.6353 527,-85.6911"/>
<polygon fill="midnightblue" stroke="midnightblue" points="530.455,-86.2925 529.393,-75.7511 523.65,-84.6541 530.455,-86.2925"/>
</g>
</g>
</svg>
        <g id="navigator" transform="translate(0 0)" fill="#404254">
                <rect fill="#f2f5e9" fill-opacity="0.5" stroke="#606060" stroke-width=".5" x="0" y="0" width="60" height="60"/>
                <use id="zoomplus" xlink:href="#zoomPlus" x="17" y="9" onmousedown="handleZoom(evt,'in')"/>
                <use id="zoomminus" xlink:href="#zoomMin" x="42" y="9" onmousedown="handleZoom(evt,'out')"/>
                <use id="reset" xlink:href="#resetDef" x="30" y="36" onmousedown="handleReset()"/>
                <g id="arrowUp" xlink:href="#dirArrow" transform="translate(30 24)" onmousedown="handlePan(0,-1)">
                  <use xlink:href="#rim" fill="#404040">
                        <set attributeName="fill" to="#808080" begin="arrowUp.mouseover" end="arrowUp.mouseout"/>
                  </use>
                  <path fill="none" stroke="white" stroke-width="1.5" d="M0,-3.0v7 M-2.5,-0.5L0,-3.0L2.5,-0.5"/>
                </g>
                <g id="arrowRight" xlink:href="#dirArrow" transform="rotate(90) translate(36 -43)" onmousedown="handlePan(1,0)">
                  <use xlink:href="#rim" fill="#404040">
                        <set attributeName="fill" to="#808080" begin="arrowRight.mouseover" end="arrowRight.mouseout"/>
                  </use>
                  <path fill="none" stroke="white" stroke-width="1.5" d="M0,-3.0v7 M-2.5,-0.5L0,-3.0L2.5,-0.5"/>
                </g>
                <g id="arrowDown" xlink:href="#dirArrow" transform="rotate(180) translate(-30 -48)" onmousedown="handlePan(0,1)">
                  <use xlink:href="#rim" fill="#404040">
                        <set attributeName="fill" to="#808080" begin="arrowDown.mouseover" end="arrowDown.mouseout"/>
                  </use>
                  <path fill="none" stroke="white" stroke-width="1.5" d="M0,-3.0v7 M-2.5,-0.5L0,-3.0L2.5,-0.5"/>
                </g>
                <g id="arrowLeft" xlink:href="#dirArrow" transform="rotate(270) translate(-36 17)" onmousedown="handlePan(-1,0)">
                  <use xlink:href="#rim" fill="#404040">
                        <set attributeName="fill" to="#808080" begin="arrowLeft.mouseover" end="arrowLeft.mouseout"/>
                  </use>
                  <path fill="none" stroke="white" stroke-width="1.5" d="M0,-3.0v7 M-2.5,-0.5L0,-3.0L2.5,-0.5"/>
                </g>
        </g>
        <svg viewBox="0 0 15 15" width="100%" height="30px" preserveAspectRatio="xMaxYMin meet">
         <g id="arrow_out" transform="scale(0.3 0.3)">
          <a xlink:href="_nearest_neighbour_cost_function_8cpp__incl_org.svg" target="_base">
           <rect id="button" ry="5" rx="5" y="6" x="6" height="38" width="38"
                fill="#f2f5e9" fill-opacity="0.5" stroke="#606060" stroke-width="1.0"/>
           <path id="arrow"
             d="M 11.500037,31.436501 C 11.940474,20.09759 22.043105,11.32322 32.158766,21.979434 L 37.068811,17.246167 C 37.068811,17.246167 37.088388,32 37.088388,32 L 22.160133,31.978069 C 22.160133,31.978069 26.997745,27.140456 26.997745,27.140456 C 18.528582,18.264221 13.291696,25.230495 11.500037,31.436501 z"
             style="fill:#404040;"/>
          </a>
         </g>
        </svg>
</svg>
