<?xml version="1.0" encoding="UTF-8" standalone="no"?>
<!DOCTYPE svg PUBLIC "-//W3C//DTD SVG 1.1//EN"
 "http://www.w3.org/Graphics/SVG/1.1/DTD/svg11.dtd">
<!-- Generated by graphviz version 2.38.0 (20140413.2041)
 -->
<!-- Title: include/NearestNeighbourCostFunction.h Pages: 1 -->
<svg width="509pt" height="162pt"
 viewBox="0.00 0.00 509.00 162.00" xmlns="http://www.w3.org/2000/svg" xmlns:xlink="http://www.w3.org/1999/xlink">
<g id="graph0" class="graph" transform="scale(1 1) rotate(0) translate(4 158)">
<title>include/NearestNeighbourCostFunction.h</title>
<polygon fill="white" stroke="none" points="-4,4 -4,-158 505,-158 505,4 -4,4"/>
<!-- Node1 -->
<g id="node1" class="node"><title>Node1</title>
<polygon fill="#bfbfbf" stroke="black" points="171,-123.5 171,-153.5 314,-153.5 314,-123.5 171,-123.5"/>
<text text-anchor="start" x="179" y="-141.5" font-family="Ubuntu Mono" font-size="10.00">include/NearestNeighbour</text>
<text text-anchor="middle" x="242.5" y="-130.5" font-family="Ubuntu Mono" font-size="10.00">CostFunction.h</text>
</g>
<!-- Node2 -->
<g id="node2" class="node"><title>Node2</title>
<g id="a_node2"><a xlink:href="_better_nearest_neighbour_cost_function_8cpp.html" target="_top" xlink:title="src/BetterNearestNeighbour\lCostFunction.cpp">
<polygon fill="white" stroke="black" points="0,-56.5 0,-86.5 153,-86.5 153,-56.5 0,-56.5"/>
<text text-anchor="start" x="8" y="-74.5" font-family="Ubuntu Mono" font-size="10.00">src/BetterNearestNeighbour</text>
<text text-anchor="middle" x="76.5" y="-63.5" font-family="Ubuntu Mono" font-size="10.00">CostFunction.cpp</text>
</a>
</g>
</g>
<!-- Node1&#45;&gt;Node2 -->
<g id="edge1" class="edge"><title>Node1&#45;&gt;Node2</title>
<path fill="none" stroke="midnightblue" d="M196.994,-119.682C170.371,-109.257 137.232,-96.2805 112.449,-86.5765"/>
<polygon fill="midnightblue" stroke="midnightblue" points="195.893,-123.009 206.48,-123.396 198.445,-116.491 195.893,-123.009"/>
</g>
<!-- Node3 -->
<g id="node3" class="node"><title>Node3</title>
<g id="a_node3"><a xlink:href="_nearest_neighbour_cost_function_8cpp.html" target="_top" xlink:title="src/NearestNeighbourCost\lFunction.cpp">
<polygon fill="white" stroke="black" points="171,-56.5 171,-86.5 314,-86.5 314,-56.5 171,-56.5"/>
<text text-anchor="start" x="179" y="-74.5" font-family="Ubuntu Mono" font-size="10.00">src/NearestNeighbourCost</text>
<text text-anchor="middle" x="242.5" y="-63.5" font-family="Ubuntu Mono" font-size="10.00">Function.cpp</text>
</a>
</g>
</g>
<!-- Node1&#45;&gt;Node3 -->
<g id="edge2" class="edge"><title>Node1&#45;&gt;Node3</title>
<path fill="none" stroke="midnightblue" d="M242.5,-113.108C242.5,-104.154 242.5,-94.3227 242.5,-86.5765"/>
<polygon fill="midnightblue" stroke="midnightblue" points="239,-113.396 242.5,-123.396 246,-113.396 239,-113.396"/>
</g>
<!-- Node4 -->
<g id="node4" class="node"><title>Node4</title>
<g id="a_node4"><a xlink:href="_cost_function_creator_8h.html" target="_top" xlink:title="include/CostFunctionCreator.h">
<polygon fill="white" stroke="black" points="332,-62 332,-81 501,-81 501,-62 332,-62"/>
<text text-anchor="middle" x="416.5" y="-69" font-family="Ubuntu Mono" font-size="10.00">include/CostFunctionCreator.h</text>
</a>
</g>
</g>
<!-- Node1&#45;&gt;Node4 -->
<g id="edge3" class="edge"><title>Node1&#45;&gt;Node4</title>
<path fill="none" stroke="midnightblue" d="M289.925,-119.784C323.663,-107.181 367.49,-90.8082 393.727,-81.007"/>
<polygon fill="midnightblue" stroke="midnightblue" points="288.398,-116.618 280.255,-123.396 290.848,-123.175 288.398,-116.618"/>
</g>
<!-- Node5 -->
<g id="node5" class="node"><title>Node5</title>
<g id="a_node5"><a xlink:href="_simulator_8cpp.html" target="_top" xlink:title="src/Simulator.cpp">
<polygon fill="white" stroke="black" points="363.5,-0.5 363.5,-19.5 469.5,-19.5 469.5,-0.5 363.5,-0.5"/>
<text text-anchor="middle" x="416.5" y="-7.5" font-family="Ubuntu Mono" font-size="10.00">src/Simulator.cpp</text>
</a>
</g>
</g>
<!-- Node4&#45;&gt;Node5 -->
<g id="edge4" class="edge"><title>Node4&#45;&gt;Node5</title>
<path fill="none" stroke="midnightblue" d="M416.5,-51.8165C416.5,-40.9962 416.5,-27.898 416.5,-19.5091"/>
<polygon fill="midnightblue" stroke="midnightblue" points="413,-51.9751 416.5,-61.9751 420,-51.9751 413,-51.9751"/>
</g>
</g>
</svg>
