<?xml version="1.0" encoding="UTF-8" standalone="no"?>
<!DOCTYPE svg PUBLIC "-//W3C//DTD SVG 1.1//EN"
 "http://www.w3.org/Graphics/SVG/1.1/DTD/svg11.dtd">
<!-- Generated by graphviz version 2.38.0 (20140413.2041)
 -->
<!-- Title: include/PlanningScheduler.h Pages: 1 -->
<svg width="320pt" height="140pt"
 viewBox="0.00 0.00 320.00 140.00" xmlns="http://www.w3.org/2000/svg" xmlns:xlink="http://www.w3.org/1999/xlink">
<g id="graph0" class="graph" transform="scale(1 1) rotate(0) translate(4 136)">
<title>include/PlanningScheduler.h</title>
<polygon fill="white" stroke="none" points="-4,4 -4,-136 316,-136 316,4 -4,4"/>
<!-- Node1 -->
<g id="node1" class="node"><title>Node1</title>
<polygon fill="#bfbfbf" stroke="black" points="117.5,-112.5 117.5,-131.5 257.5,-131.5 257.5,-112.5 117.5,-112.5"/>
<text text-anchor="middle" x="187.5" y="-119.5" font-family="Helvetica,sans-Serif" font-size="10.00">include/PlanningScheduler.h</text>
</g>
<!-- Node2 -->
<g id="node2" class="node"><title>Node2</title>
<g id="a_node2"><a xlink:href="_client_8h.html" target="_top" xlink:title="Client.h">
<polygon fill="white" stroke="black" points="23.5,-56.5 23.5,-75.5 73.5,-75.5 73.5,-56.5 23.5,-56.5"/>
<text text-anchor="middle" x="48.5" y="-63.5" font-family="Helvetica,sans-Serif" font-size="10.00">Client.h</text>
</a>
</g>
</g>
<!-- Node1&#45;&gt;Node2 -->
<g id="edge1" class="edge"><title>Node1&#45;&gt;Node2</title>
<path fill="none" stroke="midnightblue" d="M165.475,-112.444C142.396,-103.478 105.938,-89.314 79.8591,-79.1827"/>
<polygon fill="midnightblue" stroke="midnightblue" points="81.0107,-75.8753 70.4219,-75.5164 78.4758,-82.4002 81.0107,-75.8753"/>
</g>
<!-- Node5 -->
<g id="node5" class="node"><title>Node5</title>
<g id="a_node5"><a xlink:href="_scheduler_8h.html" target="_top" xlink:title="Scheduler.h">
<polygon fill="white" stroke="black" points="91.5,-56.5 91.5,-75.5 159.5,-75.5 159.5,-56.5 91.5,-56.5"/>
<text text-anchor="middle" x="125.5" y="-63.5" font-family="Helvetica,sans-Serif" font-size="10.00">Scheduler.h</text>
</a>
</g>
</g>
<!-- Node1&#45;&gt;Node5 -->
<g id="edge4" class="edge"><title>Node1&#45;&gt;Node5</title>
<path fill="none" stroke="midnightblue" d="M177.539,-112.324C168.373,-104.341 154.563,-92.3128 143.472,-82.6529"/>
<polygon fill="midnightblue" stroke="midnightblue" points="145.482,-79.7624 135.643,-75.8339 140.885,-85.041 145.482,-79.7624"/>
</g>
<!-- Node6 -->
<g id="node6" class="node"><title>Node6</title>
<polygon fill="white" stroke="#bfbfbf" points="165.5,-0.5 165.5,-19.5 209.5,-19.5 209.5,-0.5 165.5,-0.5"/>
<text text-anchor="middle" x="187.5" y="-7.5" font-family="Helvetica,sans-Serif" font-size="10.00">vector</text>
</g>
<!-- Node1&#45;&gt;Node6 -->
<g id="edge9" class="edge"><title>Node1&#45;&gt;Node6</title>
<path fill="none" stroke="midnightblue" d="M187.5,-112.368C187.5,-94.617 187.5,-53.6664 187.5,-29.5974"/>
<polygon fill="midnightblue" stroke="midnightblue" points="191,-29.5914 187.5,-19.5914 184,-29.5915 191,-29.5914"/>
</g>
<!-- Node7 -->
<g id="node7" class="node"><title>Node7</title>
<polygon fill="white" stroke="#bfbfbf" points="216,-56.5 216,-75.5 251,-75.5 251,-56.5 216,-56.5"/>
<text text-anchor="middle" x="233.5" y="-63.5" font-family="Helvetica,sans-Serif" font-size="10.00">map</text>
</g>
<!-- Node1&#45;&gt;Node7 -->
<g id="edge7" class="edge"><title>Node1&#45;&gt;Node7</title>
<path fill="none" stroke="midnightblue" d="M195.096,-112.083C201.727,-104.298 211.521,-92.8015 219.558,-83.3665"/>
<polygon fill="midnightblue" stroke="midnightblue" points="222.225,-85.6332 226.045,-75.7511 216.896,-81.0939 222.225,-85.6332"/>
</g>
<!-- Node8 -->
<g id="node8" class="node"><title>Node8</title>
<polygon fill="white" stroke="#bfbfbf" points="269,-56.5 269,-75.5 312,-75.5 312,-56.5 269,-56.5"/>
<text text-anchor="middle" x="290.5" y="-63.5" font-family="Helvetica,sans-Serif" font-size="10.00">queue</text>
</g>
<!-- Node1&#45;&gt;Node8 -->
<g id="edge8" class="edge"><title>Node1&#45;&gt;Node8</title>
<path fill="none" stroke="midnightblue" d="M204.049,-112.324C220.492,-103.703 245.935,-90.3643 264.968,-80.3855"/>
<polygon fill="midnightblue" stroke="midnightblue" points="266.761,-83.3977 273.992,-75.6545 263.511,-77.198 266.761,-83.3977"/>
</g>
<!-- Node3 -->
<g id="node3" class="node"><title>Node3</title>
<polygon fill="white" stroke="#bfbfbf" points="0,-0.5 0,-19.5 77,-19.5 77,-0.5 0,-0.5"/>
<text text-anchor="middle" x="38.5" y="-7.5" font-family="Helvetica,sans-Serif" font-size="10.00">glog/logging.h</text>
</g>
<!-- Node2&#45;&gt;Node3 -->
<g id="edge2" class="edge"><title>Node2&#45;&gt;Node3</title>
<path fill="none" stroke="midnightblue" d="M46.8487,-56.083C45.5236,-48.9272 43.6176,-38.6353 41.9613,-29.6911"/>
<polygon fill="midnightblue" stroke="midnightblue" points="45.383,-28.9466 40.1206,-19.7511 38.5001,-30.2212 45.383,-28.9466"/>
</g>
<!-- Node4 -->
<g id="node4" class="node"><title>Node4</title>
<polygon fill="white" stroke="#bfbfbf" points="95.5,-0.5 95.5,-19.5 147.5,-19.5 147.5,-0.5 95.5,-0.5"/>
<text text-anchor="middle" x="121.5" y="-7.5" font-family="Helvetica,sans-Serif" font-size="10.00">memory</text>
</g>
<!-- Node2&#45;&gt;Node4 -->
<g id="edge3" class="edge"><title>Node2&#45;&gt;Node4</title>
<path fill="none" stroke="midnightblue" d="M60.2287,-56.324C71.3374,-48.1066 88.2422,-35.6017 101.483,-25.8069"/>
<polygon fill="midnightblue" stroke="midnightblue" points="103.6,-28.5948 109.558,-19.8339 99.4369,-22.9671 103.6,-28.5948"/>
</g>
<!-- Node5&#45;&gt;Node4 -->
<g id="edge5" class="edge"><title>Node5&#45;&gt;Node4</title>
<path fill="none" stroke="midnightblue" d="M124.839,-56.083C124.315,-49.0059 123.564,-38.8611 122.906,-29.9865"/>
<polygon fill="midnightblue" stroke="midnightblue" points="126.377,-29.4652 122.148,-19.7511 119.397,-29.9823 126.377,-29.4652"/>
</g>
<!-- Node5&#45;&gt;Node6 -->
<g id="edge6" class="edge"><title>Node5&#45;&gt;Node6</title>
<path fill="none" stroke="midnightblue" d="M135.461,-56.324C144.627,-48.3414 158.437,-36.3128 169.528,-26.6529"/>
<polygon fill="midnightblue" stroke="midnightblue" points="172.115,-29.041 177.357,-19.8339 167.518,-23.7624 172.115,-29.041"/>
</g>
</g>
</svg>
