<?xml version="1.0" encoding="UTF-8" standalone="no"?>
<!DOCTYPE svg PUBLIC "-//W3C//DTD SVG 1.1//EN"
 "http://www.w3.org/Graphics/SVG/1.1/DTD/svg11.dtd">
<!-- Generated by graphviz version 2.38.0 (20140413.2041)
 -->
<!-- Title: include/PlanningScheduler.h Pages: 1 -->
<svg width="328pt" height="140pt"
 viewBox="0.00 0.00 327.50 140.00" xmlns="http://www.w3.org/2000/svg" xmlns:xlink="http://www.w3.org/1999/xlink">
<g id="graph0" class="graph" transform="scale(1 1) rotate(0) translate(4 136)">
<title>include/PlanningScheduler.h</title>
<polygon fill="white" stroke="none" points="-4,4 -4,-136 323.5,-136 323.5,4 -4,4"/>
<!-- Node1 -->
<g id="node1" class="node"><title>Node1</title>
<polygon fill="#bfbfbf" stroke="black" points="79,-112.5 79,-131.5 237,-131.5 237,-112.5 79,-112.5"/>
<text text-anchor="middle" x="158" y="-119.5" font-family="Ubuntu Mono" font-size="10.00">include/PlanningScheduler.h</text>
</g>
<!-- Node2 -->
<g id="node2" class="node"><title>Node2</title>
<g id="a_node2"><a xlink:href="_planning_scheduler_8cpp.html" target="_top" xlink:title="src/PlanningScheduler.cpp">
<polygon fill="white" stroke="black" points="0,-56.5 0,-75.5 148,-75.5 148,-56.5 0,-56.5"/>
<text text-anchor="middle" x="74" y="-63.5" font-family="Ubuntu Mono" font-size="10.00">src/PlanningScheduler.cpp</text>
</a>
</g>
</g>
<!-- Node1&#45;&gt;Node2 -->
<g id="edge1" class="edge"><title>Node1&#45;&gt;Node2</title>
<path fill="none" stroke="midnightblue" d="M136.068,-106.901C120.665,-96.9986 100.554,-84.0705 87.4626,-75.6545"/>
<polygon fill="midnightblue" stroke="midnightblue" points="134.199,-109.86 144.504,-112.324 137.985,-103.972 134.199,-109.86"/>
</g>
<!-- Node3 -->
<g id="node3" class="node"><title>Node3</title>
<g id="a_node3"><a xlink:href="_scheduler_creator_8h.html" target="_top" xlink:title="include/SchedulerCreator.h">
<polygon fill="white" stroke="black" points="166.5,-56.5 166.5,-75.5 319.5,-75.5 319.5,-56.5 166.5,-56.5"/>
<text text-anchor="middle" x="243" y="-63.5" font-family="Ubuntu Mono" font-size="10.00">include/SchedulerCreator.h</text>
</a>
</g>
</g>
<!-- Node1&#45;&gt;Node3 -->
<g id="edge2" class="edge"><title>Node1&#45;&gt;Node3</title>
<path fill="none" stroke="midnightblue" d="M180.194,-106.901C195.78,-96.9986 216.13,-84.0705 229.377,-75.6545"/>
<polygon fill="midnightblue" stroke="midnightblue" points="178.221,-104.007 171.657,-112.324 181.974,-109.916 178.221,-104.007"/>
</g>
<!-- Node4 -->
<g id="node4" class="node"><title>Node4</title>
<g id="a_node4"><a xlink:href="_simulator_8cpp.html" target="_top" xlink:title="src/Simulator.cpp">
<polygon fill="white" stroke="black" points="190,-0.5 190,-19.5 296,-19.5 296,-0.5 190,-0.5"/>
<text text-anchor="middle" x="243" y="-7.5" font-family="Ubuntu Mono" font-size="10.00">src/Simulator.cpp</text>
</a>
</g>
</g>
<!-- Node3&#45;&gt;Node4 -->
<g id="edge3" class="edge"><title>Node3&#45;&gt;Node4</title>
<path fill="none" stroke="midnightblue" d="M243,-45.8045C243,-36.9102 243,-26.7798 243,-19.7511"/>
<polygon fill="midnightblue" stroke="midnightblue" points="239.5,-46.083 243,-56.083 246.5,-46.083 239.5,-46.083"/>
</g>
</g>
</svg>
