<?xml version="1.0" encoding="UTF-8" standalone="no"?>
<!DOCTYPE svg PUBLIC "-//W3C//DTD SVG 1.1//EN"
 "http://www.w3.org/Graphics/SVG/1.1/DTD/svg11.dtd">
<!-- Generated by graphviz version 2.38.0 (20140413.2041)
 -->
<!-- Title: src/PlanningScheduler.cpp Pages: 1 -->
<svg width="1067pt" height="196pt"
 viewBox="0.00 0.00 1067.15 196.00" xmlns="http://www.w3.org/2000/svg" xmlns:xlink="http://www.w3.org/1999/xlink">
<g id="graph0" class="graph" transform="scale(1 1) rotate(0) translate(4 192)">
<title>src/PlanningScheduler.cpp</title>
<polygon fill="white" stroke="none" points="-4,4 -4,-192 1063.15,-192 1063.15,4 -4,4"/>
<!-- Node1 -->
<g id="node1" class="node"><title>Node1</title>
<polygon fill="#bfbfbf" stroke="black" points="608.15,-168.5 608.15,-187.5 756.15,-187.5 756.15,-168.5 608.15,-168.5"/>
<text text-anchor="middle" x="682.15" y="-175.5" font-family="Ubuntu Mono" font-size="10.00">src/PlanningScheduler.cpp</text>
</g>
<!-- Node2 -->
<g id="node2" class="node"><title>Node2</title>
<g id="a_node2"><a xlink:href="_planning_scheduler_8h.html" target="_top" xlink:title="PlanningScheduler.h">
<polygon fill="white" stroke="black" points="28.1496,-112.5 28.1496,-131.5 144.15,-131.5 144.15,-112.5 28.1496,-112.5"/>
<text text-anchor="middle" x="86.1496" y="-119.5" font-family="Ubuntu Mono" font-size="10.00">PlanningScheduler.h</text>
</a>
</g>
</g>
<!-- Node1&#45;&gt;Node2 -->
<g id="edge1" class="edge"><title>Node1&#45;&gt;Node2</title>
<path fill="none" stroke="midnightblue" d="M607.871,-170.27C491.37,-159.715 267.363,-139.419 154.581,-129.2"/>
<polygon fill="midnightblue" stroke="midnightblue" points="154.625,-125.69 144.35,-128.273 153.993,-132.661 154.625,-125.69"/>
</g>
<!-- Node4 -->
<g id="node4" class="node"><title>Node4</title>
<polygon fill="white" stroke="#bfbfbf" points="510.15,-0.5 510.15,-19.5 558.15,-19.5 558.15,-0.5 510.15,-0.5"/>
<text text-anchor="middle" x="534.15" y="-7.5" font-family="Ubuntu Mono" font-size="10.00">memory</text>
</g>
<!-- Node1&#45;&gt;Node4 -->
<g id="edge29" class="edge"><title>Node1&#45;&gt;Node4</title>
<path fill="none" stroke="midnightblue" d="M725.903,-168.44C798.938,-152.31 932.922,-113.761 882.15,-56 861.587,-32.6071 651.801,-17.872 568.233,-12.8904"/>
<polygon fill="midnightblue" stroke="midnightblue" points="568.415,-9.39516 558.228,-12.3048 568.006,-16.3832 568.415,-9.39516"/>
</g>
<!-- Node7 -->
<g id="node7" class="node"><title>Node7</title>
<g id="a_node7"><a xlink:href="_building_8h.html" target="_top" xlink:title="Building.h">
<polygon fill="white" stroke="black" points="372.65,-112.5 372.65,-131.5 441.65,-131.5 441.65,-112.5 372.65,-112.5"/>
<text text-anchor="middle" x="407.15" y="-119.5" font-family="Ubuntu Mono" font-size="10.00">Building.h</text>
</a>
</g>
</g>
<!-- Node1&#45;&gt;Node7 -->
<g id="edge7" class="edge"><title>Node1&#45;&gt;Node7</title>
<path fill="none" stroke="midnightblue" d="M638.575,-168.444C587.461,-158.407 503.175,-141.856 451.66,-131.74"/>
<polygon fill="midnightblue" stroke="midnightblue" points="452.3,-128.299 441.813,-129.807 450.951,-135.168 452.3,-128.299"/>
</g>
<!-- Node11 -->
<g id="node11" class="node"><title>Node11</title>
<g id="a_node11"><a xlink:href="_elevator_8h.html" target="_top" xlink:title="Elevator.h">
<polygon fill="white" stroke="black" points="206.65,-112.5 206.65,-131.5 275.65,-131.5 275.65,-112.5 206.65,-112.5"/>
<text text-anchor="middle" x="241.15" y="-119.5" font-family="Ubuntu Mono" font-size="10.00">Elevator.h</text>
</a>
</g>
</g>
<!-- Node1&#45;&gt;Node11 -->
<g id="edge15" class="edge"><title>Node1&#45;&gt;Node11</title>
<path fill="none" stroke="midnightblue" d="M612.272,-168.444C520.763,-157.238 362.958,-137.915 285.987,-128.49"/>
<polygon fill="midnightblue" stroke="midnightblue" points="286.029,-124.969 275.677,-127.228 285.178,-131.917 286.029,-124.969"/>
</g>
<!-- Node13 -->
<g id="node13" class="node"><title>Node13</title>
<g id="a_node13"><a xlink:href="_client_8h.html" target="_top" xlink:title="Client.h">
<polygon fill="white" stroke="black" points="725.65,-112.5 725.65,-131.5 784.65,-131.5 784.65,-112.5 725.65,-112.5"/>
<text text-anchor="middle" x="755.15" y="-119.5" font-family="Ubuntu Mono" font-size="10.00">Client.h</text>
</a>
</g>
</g>
<!-- Node1&#45;&gt;Node13 -->
<g id="edge20" class="edge"><title>Node1&#45;&gt;Node13</title>
<path fill="none" stroke="midnightblue" d="M693.878,-168.324C704.987,-160.107 721.892,-147.602 735.133,-137.807"/>
<polygon fill="midnightblue" stroke="midnightblue" points="737.249,-140.595 743.207,-131.834 733.087,-134.967 737.249,-140.595"/>
</g>
<!-- Node15 -->
<g id="node15" class="node"><title>Node15</title>
<g id="a_node15"><a xlink:href="_floor_8h.html" target="_top" xlink:title="Floor.h">
<polygon fill="white" stroke="black" points="560.65,-112.5 560.65,-131.5 613.65,-131.5 613.65,-112.5 560.65,-112.5"/>
<text text-anchor="middle" x="587.15" y="-119.5" font-family="Ubuntu Mono" font-size="10.00">Floor.h</text>
</a>
</g>
</g>
<!-- Node1&#45;&gt;Node15 -->
<g id="edge23" class="edge"><title>Node1&#45;&gt;Node15</title>
<path fill="none" stroke="midnightblue" d="M666.886,-168.324C651.928,-159.822 628.895,-146.729 611.423,-136.797"/>
<polygon fill="midnightblue" stroke="midnightblue" points="612.798,-133.553 602.375,-131.655 609.339,-139.639 612.798,-133.553"/>
</g>
<!-- Node16 -->
<g id="node16" class="node"><title>Node16</title>
<g id="a_node16"><a xlink:href="_cost_function_8h.html" target="_top" xlink:title="CostFunction.h">
<polygon fill="white" stroke="black" points="637.15,-56.5 637.15,-75.5 727.15,-75.5 727.15,-56.5 637.15,-56.5"/>
<text text-anchor="middle" x="682.15" y="-63.5" font-family="Ubuntu Mono" font-size="10.00">CostFunction.h</text>
</a>
</g>
</g>
<!-- Node1&#45;&gt;Node16 -->
<g id="edge27" class="edge"><title>Node1&#45;&gt;Node16</title>
<path fill="none" stroke="midnightblue" d="M682.15,-168.368C682.15,-150.617 682.15,-109.666 682.15,-85.5974"/>
<polygon fill="midnightblue" stroke="midnightblue" points="685.65,-85.5914 682.15,-75.5914 678.65,-85.5915 685.65,-85.5914"/>
</g>
<!-- Node17 -->
<g id="node17" class="node"><title>Node17</title>
<polygon fill="white" stroke="#bfbfbf" points="929.15,-112.5 929.15,-131.5 993.15,-131.5 993.15,-112.5 929.15,-112.5"/>
<text text-anchor="middle" x="961.15" y="-119.5" font-family="Ubuntu Mono" font-size="10.00">algorithm</text>
</g>
<!-- Node1&#45;&gt;Node17 -->
<g id="edge30" class="edge"><title>Node1&#45;&gt;Node17</title>
<path fill="none" stroke="midnightblue" d="M726.39,-168.489C773.263,-159.464 849.432,-144.775 915.15,-132 916.408,-131.755 917.685,-131.507 918.975,-131.256"/>
<polygon fill="midnightblue" stroke="midnightblue" points="919.836,-134.654 928.981,-129.304 918.496,-127.783 919.836,-134.654"/>
</g>
<!-- Node18 -->
<g id="node18" class="node"><title>Node18</title>
<polygon fill="white" stroke="#bfbfbf" points="1011.15,-112.5 1011.15,-131.5 1059.15,-131.5 1059.15,-112.5 1011.15,-112.5"/>
<text text-anchor="middle" x="1035.15" y="-119.5" font-family="Ubuntu Mono" font-size="10.00">limits</text>
</g>
<!-- Node1&#45;&gt;Node18 -->
<g id="edge31" class="edge"><title>Node1&#45;&gt;Node18</title>
<path fill="none" stroke="midnightblue" d="M756.322,-169.265C819.119,-162.1 911.646,-150.097 1001.04,-132.002"/>
<polygon fill="midnightblue" stroke="midnightblue" points="1001.99,-135.381 1011.08,-129.941 1000.58,-128.524 1001.99,-135.381"/>
</g>
<!-- Node3 -->
<g id="node3" class="node"><title>Node3</title>
<g id="a_node3"><a xlink:href="_scheduler_8h.html" target="_top" xlink:title="Scheduler.h">
<polygon fill="white" stroke="black" points="13.1496,-56.5 13.1496,-75.5 87.1496,-75.5 87.1496,-56.5 13.1496,-56.5"/>
<text text-anchor="middle" x="50.1496" y="-63.5" font-family="Ubuntu Mono" font-size="10.00">Scheduler.h</text>
</a>
</g>
</g>
<!-- Node2&#45;&gt;Node3 -->
<g id="edge2" class="edge"><title>Node2&#45;&gt;Node3</title>
<path fill="none" stroke="midnightblue" d="M80.2049,-112.083C75.1723,-104.534 67.8128,-93.4948 61.6361,-84.2298"/>
<polygon fill="midnightblue" stroke="midnightblue" points="64.4429,-82.1301 55.9836,-75.7511 58.6185,-86.0131 64.4429,-82.1301"/>
</g>
<!-- Node5 -->
<g id="node5" class="node"><title>Node5</title>
<polygon fill="white" stroke="#bfbfbf" points="83.1496,-0.5 83.1496,-19.5 131.15,-19.5 131.15,-0.5 83.1496,-0.5"/>
<text text-anchor="middle" x="107.15" y="-7.5" font-family="Ubuntu Mono" font-size="10.00">vector</text>
</g>
<!-- Node2&#45;&gt;Node5 -->
<g id="edge6" class="edge"><title>Node2&#45;&gt;Node5</title>
<path fill="none" stroke="midnightblue" d="M58.3505,-112.482C28.4597,-101.788 -12.6611,-81.6895 4.1496,-56 19.3213,-32.8152 49.3489,-21.5056 73.0858,-16.0306"/>
<polygon fill="midnightblue" stroke="midnightblue" points="74.0513,-19.4054 83.1419,-13.9638 72.6419,-12.5488 74.0513,-19.4054"/>
</g>
<!-- Node6 -->
<g id="node6" class="node"><title>Node6</title>
<polygon fill="white" stroke="#bfbfbf" points="105.15,-56.5 105.15,-75.5 137.15,-75.5 137.15,-56.5 105.15,-56.5"/>
<text text-anchor="middle" x="121.15" y="-63.5" font-family="Ubuntu Mono" font-size="10.00">map</text>
</g>
<!-- Node2&#45;&gt;Node6 -->
<g id="edge5" class="edge"><title>Node2&#45;&gt;Node6</title>
<path fill="none" stroke="midnightblue" d="M91.9291,-112.083C96.822,-104.534 103.977,-93.4948 109.982,-84.2298"/>
<polygon fill="midnightblue" stroke="midnightblue" points="112.976,-86.0463 115.478,-75.7511 107.102,-82.239 112.976,-86.0463"/>
</g>
<!-- Node3&#45;&gt;Node4 -->
<g id="edge3" class="edge"><title>Node3&#45;&gt;Node4</title>
<path fill="none" stroke="midnightblue" d="M87.2566,-57.4397C90.2597,-56.9194 93.252,-56.4314 96.1496,-56 245.683,-33.7372 425.586,-19.0151 499.688,-13.4698"/>
<polygon fill="midnightblue" stroke="midnightblue" points="500.123,-16.9473 509.837,-12.7184 499.606,-9.96636 500.123,-16.9473"/>
</g>
<!-- Node3&#45;&gt;Node5 -->
<g id="edge4" class="edge"><title>Node3&#45;&gt;Node5</title>
<path fill="none" stroke="midnightblue" d="M59.3076,-56.324C67.6511,-48.4196 80.182,-36.5482 90.3265,-26.9377"/>
<polygon fill="midnightblue" stroke="midnightblue" points="92.9725,-29.2522 97.8249,-19.8339 88.1583,-24.1705 92.9725,-29.2522"/>
</g>
<!-- Node7&#45;&gt;Node4 -->
<g id="edge11" class="edge"><title>Node7&#45;&gt;Node4</title>
<path fill="none" stroke="midnightblue" d="M416.171,-112.394C429.493,-99.7652 455.32,-75.5877 478.15,-56 490.1,-45.7467 503.883,-34.662 514.785,-26.0597"/>
<polygon fill="midnightblue" stroke="midnightblue" points="517.113,-28.6823 522.82,-19.7563 512.792,-23.1747 517.113,-28.6823"/>
</g>
<!-- Node7&#45;&gt;Node5 -->
<g id="edge14" class="edge"><title>Node7&#45;&gt;Node5</title>
<path fill="none" stroke="midnightblue" d="M375.865,-112.451C345.89,-104.02 299.521,-90.3448 260.15,-76 215.617,-59.7748 165.256,-37.6171 134.871,-23.8156"/>
<polygon fill="midnightblue" stroke="midnightblue" points="136.291,-20.6163 125.74,-19.6463 133.383,-26.9839 136.291,-20.6163"/>
</g>
<!-- Node7&#45;&gt;Node6 -->
<g id="edge10" class="edge"><title>Node7&#45;&gt;Node6</title>
<path fill="none" stroke="midnightblue" d="M372.366,-114.433C314.272,-103.464 198.795,-81.6603 147.157,-71.9106"/>
<polygon fill="midnightblue" stroke="midnightblue" points="147.627,-68.4374 137.151,-70.0213 146.328,-75.3159 147.627,-68.4374"/>
</g>
<!-- Node8 -->
<g id="node8" class="node"><title>Node8</title>
<g id="a_node8"><a xlink:href="_event_observer_8h.html" target="_top" xlink:title="EventObserver.h">
<polygon fill="white" stroke="black" points="269.65,-56.5 269.65,-75.5 364.65,-75.5 364.65,-56.5 269.65,-56.5"/>
<text text-anchor="middle" x="317.15" y="-63.5" font-family="Ubuntu Mono" font-size="10.00">EventObserver.h</text>
</a>
</g>
</g>
<!-- Node7&#45;&gt;Node8 -->
<g id="edge8" class="edge"><title>Node7&#45;&gt;Node8</title>
<path fill="none" stroke="midnightblue" d="M392.69,-112.324C378.65,-103.9 357.101,-90.9709 340.607,-81.0741"/>
<polygon fill="midnightblue" stroke="midnightblue" points="341.949,-77.7983 331.574,-75.6545 338.348,-83.8007 341.949,-77.7983"/>
</g>
<!-- Node9 -->
<g id="node9" class="node"><title>Node9</title>
<polygon fill="white" stroke="#bfbfbf" points="549.15,-56.5 549.15,-75.5 581.15,-75.5 581.15,-56.5 549.15,-56.5"/>
<text text-anchor="middle" x="565.15" y="-63.5" font-family="Ubuntu Mono" font-size="10.00">set</text>
</g>
<!-- Node7&#45;&gt;Node9 -->
<g id="edge12" class="edge"><title>Node7&#45;&gt;Node9</title>
<path fill="none" stroke="midnightblue" d="M432.467,-112.408C459.048,-103.379 502.054,-88.7433 539.15,-76 539.248,-75.9661 539.347,-75.932 539.447,-75.8979"/>
<polygon fill="midnightblue" stroke="midnightblue" points="540.614,-79.1978 548.926,-72.6289 538.332,-72.5802 540.614,-79.1978"/>
</g>
<!-- Node10 -->
<g id="node10" class="node"><title>Node10</title>
<polygon fill="white" stroke="#bfbfbf" points="383.15,-56.5 383.15,-75.5 431.15,-75.5 431.15,-56.5 383.15,-56.5"/>
<text text-anchor="middle" x="407.15" y="-63.5" font-family="Ubuntu Mono" font-size="10.00">string</text>
</g>
<!-- Node7&#45;&gt;Node10 -->
<g id="edge13" class="edge"><title>Node7&#45;&gt;Node10</title>
<path fill="none" stroke="midnightblue" d="M407.15,-112.083C407.15,-105.006 407.15,-94.8611 407.15,-85.9865"/>
<polygon fill="midnightblue" stroke="midnightblue" points="410.65,-85.751 407.15,-75.7511 403.65,-85.7511 410.65,-85.751"/>
</g>
<!-- Node8&#45;&gt;Node4 -->
<g id="edge9" class="edge"><title>Node8&#45;&gt;Node4</title>
<path fill="none" stroke="midnightblue" d="M351.534,-56.4435C392.211,-46.3211 459.51,-29.5738 500.059,-19.4834"/>
<polygon fill="midnightblue" stroke="midnightblue" points="501.146,-22.8197 510.005,-17.0084 499.455,-16.0269 501.146,-22.8197"/>
</g>
<!-- Node11&#45;&gt;Node4 -->
<g id="edge17" class="edge"><title>Node11&#45;&gt;Node4</title>
<path fill="none" stroke="midnightblue" d="M240.962,-112.329C241.165,-98.2399 243.776,-70.4948 260.15,-56 295.111,-25.051 434.054,-15.1734 499.593,-12.199"/>
<polygon fill="midnightblue" stroke="midnightblue" points="499.983,-15.6857 509.826,-11.764 499.686,-8.69202 499.983,-15.6857"/>
</g>
<!-- Node11&#45;&gt;Node5 -->
<g id="edge19" class="edge"><title>Node11&#45;&gt;Node5</title>
<path fill="none" stroke="midnightblue" d="M230.635,-112.368C207.934,-93.7334 154.089,-49.5324 125.585,-26.1338"/>
<polygon fill="midnightblue" stroke="midnightblue" points="127.566,-23.2311 117.616,-19.5914 123.124,-28.6416 127.566,-23.2311"/>
</g>
<!-- Node11&#45;&gt;Node6 -->
<g id="edge16" class="edge"><title>Node11&#45;&gt;Node6</title>
<path fill="none" stroke="midnightblue" d="M222.135,-112.444C201.756,-103.273 169.293,-88.6646 146.695,-78.4952"/>
<polygon fill="midnightblue" stroke="midnightblue" points="147.937,-75.2162 137.381,-74.3042 145.064,-81.5996 147.937,-75.2162"/>
</g>
<!-- Node12 -->
<g id="node12" class="node"><title>Node12</title>
<polygon fill="white" stroke="#bfbfbf" points="487.65,-56.5 487.65,-75.5 530.65,-75.5 530.65,-56.5 487.65,-56.5"/>
<text text-anchor="middle" x="509.15" y="-63.5" font-family="Ubuntu Mono" font-size="10.00">queue</text>
</g>
<!-- Node11&#45;&gt;Node12 -->
<g id="edge18" class="edge"><title>Node11&#45;&gt;Node12</title>
<path fill="none" stroke="midnightblue" d="M275.911,-113.996C328.404,-103.419 427.122,-83.5279 477.632,-73.3505"/>
<polygon fill="midnightblue" stroke="midnightblue" points="478.533,-76.7394 487.645,-71.333 477.151,-69.8773 478.533,-76.7394"/>
</g>
<!-- Node13&#45;&gt;Node4 -->
<g id="edge22" class="edge"><title>Node13&#45;&gt;Node4</title>
<path fill="none" stroke="midnightblue" d="M755.244,-112.432C754.907,-98.4893 752.108,-70.9508 736.15,-56 712.221,-33.583 619.734,-20.2568 568.61,-14.4535"/>
<polygon fill="midnightblue" stroke="midnightblue" points="568.691,-10.9414 558.368,-13.3288 567.927,-17.8995 568.691,-10.9414"/>
</g>
<!-- Node14 -->
<g id="node14" class="node"><title>Node14</title>
<polygon fill="white" stroke="#bfbfbf" points="783.15,-56.5 783.15,-75.5 873.15,-75.5 873.15,-56.5 783.15,-56.5"/>
<text text-anchor="middle" x="828.15" y="-63.5" font-family="Ubuntu Mono" font-size="10.00">glog/logging.h</text>
</g>
<!-- Node13&#45;&gt;Node14 -->
<g id="edge21" class="edge"><title>Node13&#45;&gt;Node14</title>
<path fill="none" stroke="midnightblue" d="M766.878,-112.324C777.987,-104.107 794.892,-91.6017 808.133,-81.8069"/>
<polygon fill="midnightblue" stroke="midnightblue" points="810.249,-84.5948 816.207,-75.8339 806.087,-78.9671 810.249,-84.5948"/>
</g>
<!-- Node15&#45;&gt;Node4 -->
<g id="edge24" class="edge"><title>Node15&#45;&gt;Node4</title>
<path fill="none" stroke="midnightblue" d="M589.984,-112.494C593.771,-99.5718 599.036,-74.5405 590.15,-56 583.897,-42.9542 571.814,-32.4921 560.467,-24.9506"/>
<polygon fill="midnightblue" stroke="midnightblue" points="562.004,-21.7869 551.651,-19.5351 558.34,-27.7515 562.004,-21.7869"/>
</g>
<!-- Node15&#45;&gt;Node9 -->
<g id="edge26" class="edge"><title>Node15&#45;&gt;Node9</title>
<path fill="none" stroke="midnightblue" d="M583.517,-112.083C580.537,-104.77 576.223,-94.1814 572.525,-85.1034"/>
<polygon fill="midnightblue" stroke="midnightblue" points="575.729,-83.6914 568.715,-75.7511 569.247,-86.3326 575.729,-83.6914"/>
</g>
<!-- Node15&#45;&gt;Node12 -->
<g id="edge25" class="edge"><title>Node15&#45;&gt;Node12</title>
<path fill="none" stroke="midnightblue" d="M574.618,-112.324C562.564,-103.979 544.123,-91.2122 529.881,-81.3524"/>
<polygon fill="midnightblue" stroke="midnightblue" points="531.865,-78.469 521.651,-75.6545 527.88,-84.2243 531.865,-78.469"/>
</g>
<!-- Node16&#45;&gt;Node4 -->
<g id="edge28" class="edge"><title>Node16&#45;&gt;Node4</title>
<path fill="none" stroke="midnightblue" d="M658.699,-56.4435C634.017,-47.4381 594.964,-33.1891 567.173,-23.049"/>
<polygon fill="midnightblue" stroke="midnightblue" points="568.085,-19.6561 557.491,-19.5164 565.685,-26.2321 568.085,-19.6561"/>
</g>
</g>
</svg>
