<?xml version="1.0" encoding="UTF-8" standalone="no"?>
<!DOCTYPE svg PUBLIC "-//W3C//DTD SVG 1.1//EN"
 "http://www.w3.org/Graphics/SVG/1.1/DTD/svg11.dtd">
<!-- Generated by graphviz version 2.38.0 (20140413.2041)
 -->
<!-- Title: src/PlanningScheduler.cpp Pages: 1 -->
<!--zoomable 196 -->
<svg id="main" version="1.1" xmlns="http://www.w3.org/2000/svg" xmlns:xlink="http://www.w3.org/1999/xlink" xml:space="preserve" onload="init(evt)">
<style type="text/css"><![CDATA[
.edge:hover path { stroke: red; }
.edge:hover polygon { stroke: red; fill: red; }
]]></style>
<script type="text/javascript"><![CDATA[
var edges = document.getElementsByTagName('g');
if (edges && edges.length) {
  for (var i=0;i<edges.length;i++) {
    if (edges[i].id.substr(0,4)=='edge') {
      edges[i].setAttribute('class','edge');
    }
  }
}
]]></script>
        <defs>
                <circle id="rim" cx="0" cy="0" r="7"/>
                <circle id="rim2" cx="0" cy="0" r="3.5"/>
                <g id="zoomPlus">
                        <use xlink:href="#rim" fill="#404040">
                                <set attributeName="fill" to="#808080" begin="zoomplus.mouseover" end="zoomplus.mouseout"/>
                        </use>
                        <path d="M-4,0h8M0,-4v8" fill="none" stroke="white" stroke-width="1.5" pointer-events="none"/>
                </g>
                <g id="zoomMin">
                        <use xlink:href="#rim" fill="#404040">
                                <set attributeName="fill" to="#808080" begin="zoomminus.mouseover" end="zoomminus.mouseout"/>
                        </use>
                        <path d="M-4,0h8" fill="none" stroke="white" stroke-width="1.5" pointer-events="none"/>
                </g>
                <g id="dirArrow">
                        <path fill="none" stroke="white" stroke-width="1.5" d="M0,-3.0v7 M-2.5,-0.5L0,-3.0L2.5,-0.5"/>
                </g>
               <g id="resetDef">
                       <use xlink:href="#rim2" fill="#404040">
                               <set attributeName="fill" to="#808080" begin="reset.mouseover" end="reset.mouseout"/>
                       </use>
               </g>
        </defs>

<script type="text/javascript">
var viewWidth = 1017;
var viewHeight = 196;
var sectionId = 'dynsection-0';
</script>
<script xlink:href="svgpan.js"/>
<svg id="graph" class="graph">
<g id="viewport">
<title>src/PlanningScheduler.cpp</title>
<polygon fill="white" stroke="none" points="-4,4 -4,-192 1013.04,-192 1013.04,4 -4,4"/>
<!-- Node1 -->
<g id="node1" class="node"><title>Node1</title>
<polygon fill="#bfbfbf" stroke="black" points="596.541,-168.5 596.541,-187.5 729.541,-187.5 729.541,-168.5 596.541,-168.5"/>
<text text-anchor="middle" x="663.041" y="-175.5" font-family="Helvetica,sans-Serif" font-size="10.00">src/PlanningScheduler.cpp</text>
</g>
<!-- Node2 -->
<g id="node2" class="node"><title>Node2</title>
<g id="a_node2"><a xlink:href="_planning_scheduler_8h.html" target="_top" xlink:title="PlanningScheduler.h">
<polygon fill="white" stroke="black" points="29.0412,-112.5 29.0412,-131.5 135.041,-131.5 135.041,-112.5 29.0412,-112.5"/>
<text text-anchor="middle" x="82.0412" y="-119.5" font-family="Helvetica,sans-Serif" font-size="10.00">PlanningScheduler.h</text>
</a>
</g>
</g>
<!-- Node1&#45;&gt;Node2 -->
<g id="edge1" class="edge"><title>Node1&#45;&gt;Node2</title>
<path fill="none" stroke="midnightblue" d="M596.393,-170.806C483.377,-160.301 255.67,-139.138 145.121,-128.863"/>
<polygon fill="midnightblue" stroke="midnightblue" points="145.398,-125.374 135.117,-127.933 144.75,-132.344 145.398,-125.374"/>
</g>
<!-- Node4 -->
<g id="node4" class="node"><title>Node4</title>
<polygon fill="white" stroke="#bfbfbf" points="493.041,-0.5 493.041,-19.5 545.041,-19.5 545.041,-0.5 493.041,-0.5"/>
<text text-anchor="middle" x="519.041" y="-7.5" font-family="Helvetica,sans-Serif" font-size="10.00">memory</text>
</g>
<!-- Node1&#45;&gt;Node4 -->
<g id="edge29" class="edge"><title>Node1&#45;&gt;Node4</title>
<path fill="none" stroke="midnightblue" d="M701.294,-168.439C768.535,-151.718 896.423,-111.45 848.041,-56 810.394,-12.8528 633.059,-9.57217 555.502,-10.2674"/>
<polygon fill="midnightblue" stroke="midnightblue" points="555.204,-6.77054 545.246,-10.3881 555.286,-13.7701 555.204,-6.77054"/>
</g>
<!-- Node7 -->
<g id="node7" class="node"><title>Node7</title>
<g id="a_node7"><a xlink:href="_building_8h.html" target="_top" xlink:title="Building.h">
<polygon fill="white" stroke="black" points="366.541,-112.5 366.541,-131.5 425.541,-131.5 425.541,-112.5 366.541,-112.5"/>
<text text-anchor="middle" x="396.041" y="-119.5" font-family="Helvetica,sans-Serif" font-size="10.00">Building.h</text>
</a>
</g>
</g>
<!-- Node1&#45;&gt;Node7 -->
<g id="edge7" class="edge"><title>Node1&#45;&gt;Node7</title>
<path fill="none" stroke="midnightblue" d="M620.734,-168.444C569.941,-158.171 485.41,-141.075 435.785,-131.038"/>
<polygon fill="midnightblue" stroke="midnightblue" points="436.245,-127.56 425.75,-129.008 434.857,-134.421 436.245,-127.56"/>
</g>
<!-- Node11 -->
<g id="node11" class="node"><title>Node11</title>
<g id="a_node11"><a xlink:href="_elevator_8h.html" target="_top" xlink:title="Elevator.h">
<polygon fill="white" stroke="black" points="208.541,-112.5 208.541,-131.5 269.541,-131.5 269.541,-112.5 208.541,-112.5"/>
<text text-anchor="middle" x="239.041" y="-119.5" font-family="Helvetica,sans-Serif" font-size="10.00">Elevator.h</text>
</a>
</g>
</g>
<!-- Node1&#45;&gt;Node11 -->
<g id="edge15" class="edge"><title>Node1&#45;&gt;Node11</title>
<path fill="none" stroke="midnightblue" d="M596.325,-168.503C507.524,-157.194 353.196,-137.539 279.921,-128.206"/>
<polygon fill="midnightblue" stroke="midnightblue" points="280.077,-124.698 269.715,-126.907 279.193,-131.642 280.077,-124.698"/>
</g>
<!-- Node13 -->
<g id="node13" class="node"><title>Node13</title>
<g id="a_node13"><a xlink:href="_client_8h.html" target="_top" xlink:title="Client.h">
<polygon fill="white" stroke="black" points="708.041,-112.5 708.041,-131.5 758.041,-131.5 758.041,-112.5 708.041,-112.5"/>
<text text-anchor="middle" x="733.041" y="-119.5" font-family="Helvetica,sans-Serif" font-size="10.00">Client.h</text>
</a>
</g>
</g>
<!-- Node1&#45;&gt;Node13 -->
<g id="edge20" class="edge"><title>Node1&#45;&gt;Node13</title>
<path fill="none" stroke="midnightblue" d="M674.288,-168.324C684.839,-160.185 700.842,-147.839 713.483,-138.087"/>
<polygon fill="midnightblue" stroke="midnightblue" points="715.81,-140.713 721.59,-131.834 711.534,-135.171 715.81,-140.713"/>
</g>
<!-- Node15 -->
<g id="node15" class="node"><title>Node15</title>
<g id="a_node15"><a xlink:href="_floor_8h.html" target="_top" xlink:title="Floor.h">
<polygon fill="white" stroke="black" points="548.541,-112.5 548.541,-131.5 595.541,-131.5 595.541,-112.5 548.541,-112.5"/>
<text text-anchor="middle" x="572.041" y="-119.5" font-family="Helvetica,sans-Serif" font-size="10.00">Floor.h</text>
</a>
</g>
</g>
<!-- Node1&#45;&gt;Node15 -->
<g id="edge23" class="edge"><title>Node1&#45;&gt;Node15</title>
<path fill="none" stroke="midnightblue" d="M648.421,-168.324C634.092,-159.822 612.029,-146.729 595.293,-136.797"/>
<polygon fill="midnightblue" stroke="midnightblue" points="597.012,-133.748 586.626,-131.655 593.439,-139.768 597.012,-133.748"/>
</g>
<!-- Node16 -->
<g id="node16" class="node"><title>Node16</title>
<g id="a_node16"><a xlink:href="_cost_function_8h.html" target="_top" xlink:title="CostFunction.h">
<polygon fill="white" stroke="black" points="621.541,-56.5 621.541,-75.5 704.541,-75.5 704.541,-56.5 621.541,-56.5"/>
<text text-anchor="middle" x="663.041" y="-63.5" font-family="Helvetica,sans-Serif" font-size="10.00">CostFunction.h</text>
</a>
</g>
</g>
<!-- Node1&#45;&gt;Node16 -->
<g id="edge27" class="edge"><title>Node1&#45;&gt;Node16</title>
<path fill="none" stroke="midnightblue" d="M663.041,-168.368C663.041,-150.617 663.041,-109.666 663.041,-85.5974"/>
<polygon fill="midnightblue" stroke="midnightblue" points="666.541,-85.5914 663.041,-75.5914 659.541,-85.5915 666.541,-85.5914"/>
</g>
<!-- Node17 -->
<g id="node17" class="node"><title>Node17</title>
<polygon fill="white" stroke="#bfbfbf" points="895.041,-112.5 895.041,-131.5 951.041,-131.5 951.041,-112.5 895.041,-112.5"/>
<text text-anchor="middle" x="923.041" y="-119.5" font-family="Helvetica,sans-Serif" font-size="10.00">algorithm</text>
</g>
<!-- Node1&#45;&gt;Node17 -->
<g id="edge30" class="edge"><title>Node1&#45;&gt;Node17</title>
<path fill="none" stroke="midnightblue" d="M704.853,-168.467C748.752,-159.484 819.777,-144.887 881.041,-132 882.314,-131.732 883.608,-131.459 884.914,-131.183"/>
<polygon fill="midnightblue" stroke="midnightblue" points="885.98,-134.535 895.033,-129.032 884.524,-127.688 885.98,-134.535"/>
</g>
<!-- Node18 -->
<g id="node18" class="node"><title>Node18</title>
<polygon fill="white" stroke="#bfbfbf" points="969.041,-112.5 969.041,-131.5 1009.04,-131.5 1009.04,-112.5 969.041,-112.5"/>
<text text-anchor="middle" x="989.041" y="-119.5" font-family="Helvetica,sans-Serif" font-size="10.00">limits</text>
</g>
<!-- Node1&#45;&gt;Node18 -->
<g id="edge31" class="edge"><title>Node1&#45;&gt;Node18</title>
<path fill="none" stroke="midnightblue" d="M729.638,-169.819C787.881,-162.878 874.834,-150.923 958.896,-131.971"/>
<polygon fill="midnightblue" stroke="midnightblue" points="959.9,-135.332 968.866,-129.687 958.337,-128.509 959.9,-135.332"/>
</g>
<!-- Node3 -->
<g id="node3" class="node"><title>Node3</title>
<g id="a_node3"><a xlink:href="_scheduler_8h.html" target="_top" xlink:title="Scheduler.h">
<polygon fill="white" stroke="black" points="13.0412,-56.5 13.0412,-75.5 81.0412,-75.5 81.0412,-56.5 13.0412,-56.5"/>
<text text-anchor="middle" x="47.0412" y="-63.5" font-family="Helvetica,sans-Serif" font-size="10.00">Scheduler.h</text>
</a>
</g>
</g>
<!-- Node2&#45;&gt;Node3 -->
<g id="edge2" class="edge"><title>Node2&#45;&gt;Node3</title>
<path fill="none" stroke="midnightblue" d="M76.2617,-112.083C71.3689,-104.534 64.2138,-93.4948 58.2087,-84.2298"/>
<polygon fill="midnightblue" stroke="midnightblue" points="61.0893,-82.239 52.7132,-75.7511 55.2152,-86.0463 61.0893,-82.239"/>
</g>
<!-- Node5 -->
<g id="node5" class="node"><title>Node5</title>
<polygon fill="white" stroke="#bfbfbf" points="83.0412,-0.5 83.0412,-19.5 127.041,-19.5 127.041,-0.5 83.0412,-0.5"/>
<text text-anchor="middle" x="105.041" y="-7.5" font-family="Helvetica,sans-Serif" font-size="10.00">vector</text>
</g>
<!-- Node2&#45;&gt;Node5 -->
<g id="edge6" class="edge"><title>Node2&#45;&gt;Node5</title>
<path fill="none" stroke="midnightblue" d="M56.0231,-112.431C27.4742,-101.551 -12.2763,-81.1341 4.04123,-56 19.1564,-32.7179 49.4206,-21.3801 72.8973,-15.9214"/>
<polygon fill="midnightblue" stroke="midnightblue" points="73.7232,-19.3247 82.8028,-13.8646 72.3,-12.4709 73.7232,-19.3247"/>
</g>
<!-- Node6 -->
<g id="node6" class="node"><title>Node6</title>
<polygon fill="white" stroke="#bfbfbf" points="99.5412,-56.5 99.5412,-75.5 134.541,-75.5 134.541,-56.5 99.5412,-56.5"/>
<text text-anchor="middle" x="117.041" y="-63.5" font-family="Helvetica,sans-Serif" font-size="10.00">map</text>
</g>
<!-- Node2&#45;&gt;Node6 -->
<g id="edge5" class="edge"><title>Node2&#45;&gt;Node6</title>
<path fill="none" stroke="midnightblue" d="M87.8208,-112.083C92.7136,-104.534 99.8687,-93.4948 105.874,-84.2298"/>
<polygon fill="midnightblue" stroke="midnightblue" points="108.867,-86.0463 111.369,-75.7511 102.993,-82.239 108.867,-86.0463"/>
</g>
<!-- Node3&#45;&gt;Node4 -->
<g id="edge3" class="edge"><title>Node3&#45;&gt;Node4</title>
<path fill="none" stroke="midnightblue" d="M81.251,-57.512C84.2172,-56.9624 87.1779,-56.4486 90.0412,-56 234.601,-33.35 408.403,-19.0606 482.596,-13.564"/>
<polygon fill="midnightblue" stroke="midnightblue" points="483.087,-17.0375 492.805,-12.8169 482.576,-10.0562 483.087,-17.0375"/>
</g>
<!-- Node3&#45;&gt;Node5 -->
<g id="edge4" class="edge"><title>Node3&#45;&gt;Node5</title>
<path fill="none" stroke="midnightblue" d="M56.3599,-56.324C64.9338,-48.3414 77.8535,-36.3128 88.2289,-26.6529"/>
<polygon fill="midnightblue" stroke="midnightblue" points="90.619,-29.2098 95.553,-19.8339 85.849,-24.0865 90.619,-29.2098"/>
</g>
<!-- Node7&#45;&gt;Node4 -->
<g id="edge11" class="edge"><title>Node7&#45;&gt;Node4</title>
<path fill="none" stroke="midnightblue" d="M404.641,-112.365C417.35,-99.7002 442.024,-75.4782 464.041,-56 475.707,-45.6793 489.243,-34.5938 499.968,-26.0078"/>
<polygon fill="midnightblue" stroke="midnightblue" points="502.227,-28.6832 507.876,-19.7203 497.87,-23.2039 502.227,-28.6832"/>
</g>
<!-- Node7&#45;&gt;Node5 -->
<g id="edge14" class="edge"><title>Node7&#45;&gt;Node5</title>
<path fill="none" stroke="midnightblue" d="M367.513,-112.488C339.432,-103.924 295.444,-90.0134 258.041,-76 213.658,-59.3713 163.254,-37.3278 132.82,-23.66"/>
<polygon fill="midnightblue" stroke="midnightblue" points="134.228,-20.4556 123.673,-19.5343 131.35,-26.8365 134.228,-20.4556"/>
</g>
<!-- Node7&#45;&gt;Node6 -->
<g id="edge10" class="edge"><title>Node7&#45;&gt;Node6</title>
<path fill="none" stroke="midnightblue" d="M366.447,-115.272C312.129,-104.759 197.267,-82.5276 144.546,-72.3234"/>
<polygon fill="midnightblue" stroke="midnightblue" points="145.057,-68.8575 134.574,-70.3934 143.727,-75.73 145.057,-68.8575"/>
</g>
<!-- Node8 -->
<g id="node8" class="node"><title>Node8</title>
<g id="a_node8"><a xlink:href="_event_observer_8h.html" target="_top" xlink:title="EventObserver.h">
<polygon fill="white" stroke="black" points="267.041,-56.5 267.041,-75.5 357.041,-75.5 357.041,-56.5 267.041,-56.5"/>
<text text-anchor="middle" x="312.041" y="-63.5" font-family="Helvetica,sans-Serif" font-size="10.00">EventObserver.h</text>
</a>
</g>
</g>
<!-- Node7&#45;&gt;Node8 -->
<g id="edge8" class="edge"><title>Node7&#45;&gt;Node8</title>
<path fill="none" stroke="midnightblue" d="M382.545,-112.324C369.442,-103.9 349.329,-90.9709 333.934,-81.0741"/>
<polygon fill="midnightblue" stroke="midnightblue" points="335.808,-78.118 325.504,-75.6545 332.023,-84.0063 335.808,-78.118"/>
</g>
<!-- Node9 -->
<g id="node9" class="node"><title>Node9</title>
<polygon fill="white" stroke="#bfbfbf" points="535.041,-56.5 535.041,-75.5 565.041,-75.5 565.041,-56.5 535.041,-56.5"/>
<text text-anchor="middle" x="550.041" y="-63.5" font-family="Helvetica,sans-Serif" font-size="10.00">set</text>
</g>
<!-- Node7&#45;&gt;Node9 -->
<g id="edge12" class="edge"><title>Node7&#45;&gt;Node9</title>
<path fill="none" stroke="midnightblue" d="M420.797,-112.446C446.785,-103.447 488.823,-88.836 525.041,-76 525.142,-75.9644 525.243,-75.9286 525.344,-75.8928"/>
<polygon fill="midnightblue" stroke="midnightblue" points="526.74,-79.1106 534.979,-72.4497 524.384,-72.5189 526.74,-79.1106"/>
</g>
<!-- Node10 -->
<g id="node10" class="node"><title>Node10</title>
<polygon fill="white" stroke="#bfbfbf" points="375.541,-56.5 375.541,-75.5 416.541,-75.5 416.541,-56.5 375.541,-56.5"/>
<text text-anchor="middle" x="396.041" y="-63.5" font-family="Helvetica,sans-Serif" font-size="10.00">string</text>
</g>
<!-- Node7&#45;&gt;Node10 -->
<g id="edge13" class="edge"><title>Node7&#45;&gt;Node10</title>
<path fill="none" stroke="midnightblue" d="M396.041,-112.083C396.041,-105.006 396.041,-94.8611 396.041,-85.9865"/>
<polygon fill="midnightblue" stroke="midnightblue" points="399.541,-85.751 396.041,-75.7511 392.541,-85.7511 399.541,-85.751"/>
</g>
<!-- Node8&#45;&gt;Node4 -->
<g id="edge9" class="edge"><title>Node8&#45;&gt;Node4</title>
<path fill="none" stroke="midnightblue" d="M344.841,-56.4435C382.515,-46.6156 444.128,-30.5427 483.082,-20.3807"/>
<polygon fill="midnightblue" stroke="midnightblue" points="484.156,-23.7176 492.949,-17.8067 482.389,-16.9443 484.156,-23.7176"/>
</g>
<!-- Node11&#45;&gt;Node4 -->
<g id="edge17" class="edge"><title>Node11&#45;&gt;Node4</title>
<path fill="none" stroke="midnightblue" d="M238.866,-112.344C239.088,-98.2754 241.725,-70.5598 258.041,-56 290.702,-26.855 419.156,-16.1708 482.844,-12.6089"/>
<polygon fill="midnightblue" stroke="midnightblue" points="483.05,-16.103 492.851,-12.0783 482.679,-9.11283 483.05,-16.103"/>
</g>
<!-- Node11&#45;&gt;Node5 -->
<g id="edge19" class="edge"><title>Node11&#45;&gt;Node5</title>
<path fill="none" stroke="midnightblue" d="M228.526,-112.368C205.826,-93.7334 151.981,-49.5324 123.477,-26.1338"/>
<polygon fill="midnightblue" stroke="midnightblue" points="125.457,-23.2311 115.507,-19.5914 121.016,-28.6416 125.457,-23.2311"/>
</g>
<!-- Node11&#45;&gt;Node6 -->
<g id="edge16" class="edge"><title>Node11&#45;&gt;Node6</title>
<path fill="none" stroke="midnightblue" d="M219.71,-112.444C199.251,-103.388 166.813,-89.0302 143.881,-78.8799"/>
<polygon fill="midnightblue" stroke="midnightblue" points="145.258,-75.6621 134.698,-74.8151 142.425,-82.0631 145.258,-75.6621"/>
</g>
<!-- Node12 -->
<g id="node12" class="node"><title>Node12</title>
<polygon fill="white" stroke="#bfbfbf" points="473.541,-56.5 473.541,-75.5 516.541,-75.5 516.541,-56.5 473.541,-56.5"/>
<text text-anchor="middle" x="495.041" y="-63.5" font-family="Helvetica,sans-Serif" font-size="10.00">queue</text>
</g>
<!-- Node11&#45;&gt;Node12 -->
<g id="edge18" class="edge"><title>Node11&#45;&gt;Node12</title>
<path fill="none" stroke="midnightblue" d="M269.667,-114.54C318.608,-104.216 413.965,-84.1019 463.487,-73.6559"/>
<polygon fill="midnightblue" stroke="midnightblue" points="464.263,-77.0693 473.326,-71.5806 462.819,-70.22 464.263,-77.0693"/>
</g>
<!-- Node13&#45;&gt;Node4 -->
<g id="edge22" class="edge"><title>Node13&#45;&gt;Node4</title>
<path fill="none" stroke="midnightblue" d="M732.977,-112.436C732.386,-98.5004 729.108,-70.9711 713.041,-56 690.429,-34.9301 604.782,-21.3419 555.172,-15.0617"/>
<polygon fill="midnightblue" stroke="midnightblue" points="555.521,-11.5783 545.169,-13.8324 554.667,-18.526 555.521,-11.5783"/>
</g>
<!-- Node14 -->
<g id="node14" class="node"><title>Node14</title>
<polygon fill="white" stroke="#bfbfbf" points="761.541,-56.5 761.541,-75.5 838.541,-75.5 838.541,-56.5 761.541,-56.5"/>
<text text-anchor="middle" x="800.041" y="-63.5" font-family="Helvetica,sans-Serif" font-size="10.00">glog/logging.h</text>
</g>
<!-- Node13&#45;&gt;Node14 -->
<g id="edge21" class="edge"><title>Node13&#45;&gt;Node14</title>
<path fill="none" stroke="midnightblue" d="M743.806,-112.324C753.807,-104.263 768.928,-92.0765 780.972,-82.3695"/>
<polygon fill="midnightblue" stroke="midnightblue" points="783.491,-84.8343 789.081,-75.8339 779.098,-79.3841 783.491,-84.8343"/>
</g>
<!-- Node15&#45;&gt;Node4 -->
<g id="edge24" class="edge"><title>Node15&#45;&gt;Node4</title>
<path fill="none" stroke="midnightblue" d="M574.766,-112.071C578.22,-99.0389 582.744,-74.3645 574.041,-56 567.913,-43.0681 556.047,-32.6167 544.901,-25.0528"/>
<polygon fill="midnightblue" stroke="midnightblue" points="546.569,-21.9678 536.239,-19.6136 542.847,-27.8958 546.569,-21.9678"/>
</g>
<!-- Node15&#45;&gt;Node9 -->
<g id="edge26" class="edge"><title>Node15&#45;&gt;Node9</title>
<path fill="none" stroke="midnightblue" d="M568.408,-112.083C565.429,-104.77 561.115,-94.1814 557.417,-85.1034"/>
<polygon fill="midnightblue" stroke="midnightblue" points="560.621,-83.6914 553.606,-75.7511 554.138,-86.3326 560.621,-83.6914"/>
</g>
<!-- Node15&#45;&gt;Node12 -->
<g id="edge25" class="edge"><title>Node15&#45;&gt;Node12</title>
<path fill="none" stroke="midnightblue" d="M559.67,-112.324C547.883,-104.058 529.909,-91.4527 515.906,-81.6322"/>
<polygon fill="midnightblue" stroke="midnightblue" points="517.579,-78.5307 507.382,-75.6545 513.56,-84.2619 517.579,-78.5307"/>
</g>
<!-- Node16&#45;&gt;Node4 -->
<g id="edge28" class="edge"><title>Node16&#45;&gt;Node4</title>
<path fill="none" stroke="midnightblue" d="M640.224,-56.4435C616.209,-47.4381 578.212,-33.1891 551.172,-23.049"/>
<polygon fill="midnightblue" stroke="midnightblue" points="552.344,-19.7506 541.752,-19.5164 549.886,-26.3049 552.344,-19.7506"/>
</g>
</g>
</svg>
        <g id="navigator" transform="translate(0 0)" fill="#404254">
                <rect fill="#f2f5e9" fill-opacity="0.5" stroke="#606060" stroke-width=".5" x="0" y="0" width="60" height="60"/>
                <use id="zoomplus" xlink:href="#zoomPlus" x="17" y="9" onmousedown="handleZoom(evt,'in')"/>
                <use id="zoomminus" xlink:href="#zoomMin" x="42" y="9" onmousedown="handleZoom(evt,'out')"/>
                <use id="reset" xlink:href="#resetDef" x="30" y="36" onmousedown="handleReset()"/>
                <g id="arrowUp" xlink:href="#dirArrow" transform="translate(30 24)" onmousedown="handlePan(0,-1)">
                  <use xlink:href="#rim" fill="#404040">
                        <set attributeName="fill" to="#808080" begin="arrowUp.mouseover" end="arrowUp.mouseout"/>
                  </use>
                  <path fill="none" stroke="white" stroke-width="1.5" d="M0,-3.0v7 M-2.5,-0.5L0,-3.0L2.5,-0.5"/>
                </g>
                <g id="arrowRight" xlink:href="#dirArrow" transform="rotate(90) translate(36 -43)" onmousedown="handlePan(1,0)">
                  <use xlink:href="#rim" fill="#404040">
                        <set attributeName="fill" to="#808080" begin="arrowRight.mouseover" end="arrowRight.mouseout"/>
                  </use>
                  <path fill="none" stroke="white" stroke-width="1.5" d="M0,-3.0v7 M-2.5,-0.5L0,-3.0L2.5,-0.5"/>
                </g>
                <g id="arrowDown" xlink:href="#dirArrow" transform="rotate(180) translate(-30 -48)" onmousedown="handlePan(0,1)">
                  <use xlink:href="#rim" fill="#404040">
                        <set attributeName="fill" to="#808080" begin="arrowDown.mouseover" end="arrowDown.mouseout"/>
                  </use>
                  <path fill="none" stroke="white" stroke-width="1.5" d="M0,-3.0v7 M-2.5,-0.5L0,-3.0L2.5,-0.5"/>
                </g>
                <g id="arrowLeft" xlink:href="#dirArrow" transform="rotate(270) translate(-36 17)" onmousedown="handlePan(-1,0)">
                  <use xlink:href="#rim" fill="#404040">
                        <set attributeName="fill" to="#808080" begin="arrowLeft.mouseover" end="arrowLeft.mouseout"/>
                  </use>
                  <path fill="none" stroke="white" stroke-width="1.5" d="M0,-3.0v7 M-2.5,-0.5L0,-3.0L2.5,-0.5"/>
                </g>
        </g>
        <svg viewBox="0 0 15 15" width="100%" height="30px" preserveAspectRatio="xMaxYMin meet">
         <g id="arrow_out" transform="scale(0.3 0.3)">
          <a xlink:href="_planning_scheduler_8cpp__incl_org.svg" target="_base">
           <rect id="button" ry="5" rx="5" y="6" x="6" height="38" width="38"
                fill="#f2f5e9" fill-opacity="0.5" stroke="#606060" stroke-width="1.0"/>
           <path id="arrow"
             d="M 11.500037,31.436501 C 11.940474,20.09759 22.043105,11.32322 32.158766,21.979434 L 37.068811,17.246167 C 37.068811,17.246167 37.088388,32 37.088388,32 L 22.160133,31.978069 C 22.160133,31.978069 26.997745,27.140456 26.997745,27.140456 C 18.528582,18.264221 13.291696,25.230495 11.500037,31.436501 z"
             style="fill:#404040;"/>
          </a>
         </g>
        </svg>
</svg>
