<?xml version="1.0" encoding="UTF-8" standalone="no"?>
<!DOCTYPE svg PUBLIC "-//W3C//DTD SVG 1.1//EN"
 "http://www.w3.org/Graphics/SVG/1.1/DTD/svg11.dtd">
<!-- Generated by graphviz version 2.38.0 (20140413.2041)
 -->
<!-- Title: include/PlanningScheduler.h Pages: 1 -->
<svg width="189pt" height="140pt"
 viewBox="0.00 0.00 189.00 140.00" xmlns="http://www.w3.org/2000/svg" xmlns:xlink="http://www.w3.org/1999/xlink">
<g id="graph0" class="graph" transform="scale(1 1) rotate(0) translate(4 136)">
<title>include/PlanningScheduler.h</title>
<polygon fill="white" stroke="none" points="-4,4 -4,-136 185,-136 185,4 -4,4"/>
<!-- Node1 -->
<g id="node1" class="node"><title>Node1</title>
<polygon fill="#bfbfbf" stroke="black" points="23,-112.5 23,-131.5 181,-131.5 181,-112.5 23,-112.5"/>
<text text-anchor="middle" x="102" y="-119.5" font-family="Ubuntu Mono" font-size="10.00">include/PlanningScheduler.h</text>
</g>
<!-- Node2 -->
<g id="node2" class="node"><title>Node2</title>
<g id="a_node2"><a xlink:href="_scheduler_8h.html" target="_top" xlink:title="Scheduler.h">
<polygon fill="white" stroke="black" points="0,-56.5 0,-75.5 74,-75.5 74,-56.5 0,-56.5"/>
<text text-anchor="middle" x="37" y="-63.5" font-family="Ubuntu Mono" font-size="10.00">Scheduler.h</text>
</a>
</g>
</g>
<!-- Node1&#45;&gt;Node2 -->
<g id="edge1" class="edge"><title>Node1&#45;&gt;Node2</title>
<path fill="none" stroke="midnightblue" d="M91.5566,-112.324C81.8538,-104.263 67.1847,-92.0765 55.5003,-82.3695"/>
<polygon fill="midnightblue" stroke="midnightblue" points="57.5619,-79.532 47.6334,-75.8339 53.0887,-84.9163 57.5619,-79.532"/>
</g>
<!-- Node4 -->
<g id="node4" class="node"><title>Node4</title>
<polygon fill="white" stroke="#bfbfbf" points="78,-0.5 78,-19.5 126,-19.5 126,-0.5 78,-0.5"/>
<text text-anchor="middle" x="102" y="-7.5" font-family="Ubuntu Mono" font-size="10.00">vector</text>
</g>
<!-- Node1&#45;&gt;Node4 -->
<g id="edge5" class="edge"><title>Node1&#45;&gt;Node4</title>
<path fill="none" stroke="midnightblue" d="M102,-112.368C102,-94.617 102,-53.6664 102,-29.5974"/>
<polygon fill="midnightblue" stroke="midnightblue" points="105.5,-29.5914 102,-19.5914 98.5001,-29.5915 105.5,-29.5914"/>
</g>
<!-- Node5 -->
<g id="node5" class="node"><title>Node5</title>
<polygon fill="white" stroke="#bfbfbf" points="130,-56.5 130,-75.5 162,-75.5 162,-56.5 130,-56.5"/>
<text text-anchor="middle" x="146" y="-63.5" font-family="Ubuntu Mono" font-size="10.00">map</text>
</g>
<!-- Node1&#45;&gt;Node5 -->
<g id="edge4" class="edge"><title>Node1&#45;&gt;Node5</title>
<path fill="none" stroke="midnightblue" d="M109.266,-112.083C115.545,-104.377 124.788,-93.0333 132.431,-83.6531"/>
<polygon fill="midnightblue" stroke="midnightblue" points="135.266,-85.7143 138.869,-75.7511 129.839,-81.2926 135.266,-85.7143"/>
</g>
<!-- Node3 -->
<g id="node3" class="node"><title>Node3</title>
<polygon fill="white" stroke="#bfbfbf" points="12,-0.5 12,-19.5 60,-19.5 60,-0.5 12,-0.5"/>
<text text-anchor="middle" x="36" y="-7.5" font-family="Ubuntu Mono" font-size="10.00">memory</text>
</g>
<!-- Node2&#45;&gt;Node3 -->
<g id="edge2" class="edge"><title>Node2&#45;&gt;Node3</title>
<path fill="none" stroke="midnightblue" d="M36.8349,-56.083C36.7038,-49.0059 36.5159,-38.8611 36.3516,-29.9865"/>
<polygon fill="midnightblue" stroke="midnightblue" points="39.8467,-29.6845 36.1621,-19.7511 32.8479,-29.8142 39.8467,-29.6845"/>
</g>
<!-- Node2&#45;&gt;Node4 -->
<g id="edge3" class="edge"><title>Node2&#45;&gt;Node4</title>
<path fill="none" stroke="midnightblue" d="M47.4434,-56.324C57.1462,-48.2631 71.8153,-36.0765 83.4997,-26.3695"/>
<polygon fill="midnightblue" stroke="midnightblue" points="85.9113,-28.9163 91.3666,-19.8339 81.4381,-23.532 85.9113,-28.9163"/>
</g>
</g>
</svg>
