<?xml version="1.0" encoding="UTF-8" standalone="no"?>
<!DOCTYPE svg PUBLIC "-//W3C//DTD SVG 1.1//EN"
 "http://www.w3.org/Graphics/SVG/1.1/DTD/svg11.dtd">
<!-- Generated by graphviz version 2.38.0 (20140413.2041)
 -->
<!-- Title: src/PlanningScheduler.cpp Pages: 1 -->
<svg width="1136pt" height="196pt"
 viewBox="0.00 0.00 1136.00 196.00" xmlns="http://www.w3.org/2000/svg" xmlns:xlink="http://www.w3.org/1999/xlink">
<g id="graph0" class="graph" transform="scale(1 1) rotate(0) translate(4 192)">
<title>src/PlanningScheduler.cpp</title>
<polygon fill="white" stroke="none" points="-4,4 -4,-192 1132,-192 1132,4 -4,4"/>
<!-- Node1 -->
<g id="node1" class="node"><title>Node1</title>
<polygon fill="#bfbfbf" stroke="black" points="682,-168.5 682,-187.5 815,-187.5 815,-168.5 682,-168.5"/>
<text text-anchor="middle" x="748.5" y="-175.5" font-family="Helvetica,sans-Serif" font-size="10.00">src/PlanningScheduler.cpp</text>
</g>
<!-- Node2 -->
<g id="node2" class="node"><title>Node2</title>
<g id="a_node2"><a xlink:href="_planning_scheduler_8h.html" target="_top" xlink:title="PlanningScheduler.h">
<polygon fill="white" stroke="black" points="137.5,-112.5 137.5,-131.5 243.5,-131.5 243.5,-112.5 137.5,-112.5"/>
<text text-anchor="middle" x="190.5" y="-119.5" font-family="Helvetica,sans-Serif" font-size="10.00">PlanningScheduler.h</text>
</a>
</g>
</g>
<!-- Node1&#45;&gt;Node2 -->
<g id="edge1" class="edge"><title>Node1&#45;&gt;Node2</title>
<path fill="none" stroke="midnightblue" d="M681.746,-170.54C573.263,-160.042 360.154,-139.418 253.883,-129.134"/>
<polygon fill="midnightblue" stroke="midnightblue" points="253.921,-125.621 243.63,-128.142 253.246,-132.589 253.921,-125.621"/>
</g>
<!-- Node10 -->
<g id="node10" class="node"><title>Node10</title>
<g id="a_node10"><a xlink:href="_cost_function_8h.html" target="_top" xlink:title="CostFunction.h">
<polygon fill="white" stroke="black" points="1045,-56.5 1045,-75.5 1128,-75.5 1128,-56.5 1045,-56.5"/>
<text text-anchor="middle" x="1086.5" y="-63.5" font-family="Helvetica,sans-Serif" font-size="10.00">CostFunction.h</text>
</a>
</g>
</g>
<!-- Node1&#45;&gt;Node10 -->
<g id="edge11" class="edge"><title>Node1&#45;&gt;Node10</title>
<path fill="none" stroke="midnightblue" d="M805.093,-168.45C846.008,-161.285 902.177,-149.401 949.5,-132 967.413,-125.413 970.361,-120.397 987.5,-112 1010.71,-100.631 1037.4,-88.5549 1057.21,-79.7782"/>
<polygon fill="midnightblue" stroke="midnightblue" points="1058.88,-82.8683 1066.62,-75.6315 1056.06,-76.4632 1058.88,-82.8683"/>
</g>
<!-- Node11 -->
<g id="node11" class="node"><title>Node11</title>
<g id="a_node11"><a xlink:href="_direction_8h.html" target="_top" xlink:title="Direction.h">
<polygon fill="white" stroke="black" points="639.5,-112.5 639.5,-131.5 703.5,-131.5 703.5,-112.5 639.5,-112.5"/>
<text text-anchor="middle" x="671.5" y="-119.5" font-family="Helvetica,sans-Serif" font-size="10.00">Direction.h</text>
</a>
</g>
</g>
<!-- Node1&#45;&gt;Node11 -->
<g id="edge13" class="edge"><title>Node1&#45;&gt;Node11</title>
<path fill="none" stroke="midnightblue" d="M736.129,-168.324C724.342,-160.058 706.368,-147.453 692.364,-137.632"/>
<polygon fill="midnightblue" stroke="midnightblue" points="694.038,-134.531 683.841,-131.655 690.018,-140.262 694.038,-134.531"/>
</g>
<!-- Node14 -->
<g id="node14" class="node"><title>Node14</title>
<g id="a_node14"><a xlink:href="_building_8h.html" target="_top" xlink:title="Building.h">
<polygon fill="white" stroke="black" points="501,-112.5 501,-131.5 560,-131.5 560,-112.5 501,-112.5"/>
<text text-anchor="middle" x="530.5" y="-119.5" font-family="Helvetica,sans-Serif" font-size="10.00">Building.h</text>
</a>
</g>
</g>
<!-- Node1&#45;&gt;Node14 -->
<g id="edge16" class="edge"><title>Node1&#45;&gt;Node14</title>
<path fill="none" stroke="midnightblue" d="M713.957,-168.444C674.888,-158.766 611.37,-143.032 570.266,-132.85"/>
<polygon fill="midnightblue" stroke="midnightblue" points="570.875,-129.396 560.327,-130.388 569.192,-136.19 570.875,-129.396"/>
</g>
<!-- Node17 -->
<g id="node17" class="node"><title>Node17</title>
<g id="a_node17"><a xlink:href="_elevator_8h.html" target="_top" xlink:title="Elevator.h">
<polygon fill="white" stroke="black" points="300,-112.5 300,-131.5 361,-131.5 361,-112.5 300,-112.5"/>
<text text-anchor="middle" x="330.5" y="-119.5" font-family="Helvetica,sans-Serif" font-size="10.00">Elevator.h</text>
</a>
</g>
</g>
<!-- Node1&#45;&gt;Node17 -->
<g id="edge24" class="edge"><title>Node1&#45;&gt;Node17</title>
<path fill="none" stroke="midnightblue" d="M681.916,-168.803C610.737,-159.978 494.59,-145.399 394.5,-132 386.922,-130.986 378.844,-129.874 371.068,-128.788"/>
<polygon fill="midnightblue" stroke="midnightblue" points="371.479,-125.311 361.089,-127.386 370.505,-132.243 371.479,-125.311"/>
</g>
<!-- Node18 -->
<g id="node18" class="node"><title>Node18</title>
<g id="a_node18"><a xlink:href="_floor_8h.html" target="_top" xlink:title="Floor.h">
<polygon fill="white" stroke="black" points="404,-112.5 404,-131.5 451,-131.5 451,-112.5 404,-112.5"/>
<text text-anchor="middle" x="427.5" y="-119.5" font-family="Helvetica,sans-Serif" font-size="10.00">Floor.h</text>
</a>
</g>
</g>
<!-- Node1&#45;&gt;Node18 -->
<g id="edge29" class="edge"><title>Node1&#45;&gt;Node18</title>
<path fill="none" stroke="midnightblue" d="M697.637,-168.444C631.537,-157.324 517.914,-138.21 461.43,-128.708"/>
<polygon fill="midnightblue" stroke="midnightblue" points="461.691,-125.203 451.249,-126.995 460.529,-132.106 461.691,-125.203"/>
</g>
<!-- Node19 -->
<g id="node19" class="node"><title>Node19</title>
<g id="a_node19"><a xlink:href="_scenario_8h.html" target="_top" xlink:title="Scenario.h">
<polygon fill="white" stroke="black" points="793,-112.5 793,-131.5 856,-131.5 856,-112.5 793,-112.5"/>
<text text-anchor="middle" x="824.5" y="-119.5" font-family="Helvetica,sans-Serif" font-size="10.00">Scenario.h</text>
</a>
</g>
</g>
<!-- Node1&#45;&gt;Node19 -->
<g id="edge33" class="edge"><title>Node1&#45;&gt;Node19</title>
<path fill="none" stroke="midnightblue" d="M760.711,-168.324C772.276,-160.107 789.875,-147.602 803.661,-137.807"/>
<polygon fill="midnightblue" stroke="midnightblue" points="805.943,-140.479 812.067,-131.834 801.888,-134.773 805.943,-140.479"/>
</g>
<!-- Node21 -->
<g id="node21" class="node"><title>Node21</title>
<g id="a_node21"><a xlink:href="_simulator_8h.html" target="_top" xlink:title="Simulator.h">
<polygon fill="white" stroke="black" points="874.5,-112.5 874.5,-131.5 940.5,-131.5 940.5,-112.5 874.5,-112.5"/>
<text text-anchor="middle" x="907.5" y="-119.5" font-family="Helvetica,sans-Serif" font-size="10.00">Simulator.h</text>
</a>
</g>
</g>
<!-- Node1&#45;&gt;Node21 -->
<g id="edge38" class="edge"><title>Node1&#45;&gt;Node21</title>
<path fill="none" stroke="midnightblue" d="M773.694,-168.444C800.443,-159.359 842.903,-144.939 872.805,-134.783"/>
<polygon fill="midnightblue" stroke="midnightblue" points="874.081,-138.046 882.424,-131.516 871.829,-131.418 874.081,-138.046"/>
</g>
<!-- Node23 -->
<g id="node23" class="node"><title>Node23</title>
<g id="a_node23"><a xlink:href="_status_8h.html" target="_top" xlink:title="Status.h">
<polygon fill="white" stroke="black" points="722,-112.5 722,-131.5 775,-131.5 775,-112.5 722,-112.5"/>
<text text-anchor="middle" x="748.5" y="-119.5" font-family="Helvetica,sans-Serif" font-size="10.00">Status.h</text>
</a>
</g>
</g>
<!-- Node1&#45;&gt;Node23 -->
<g id="edge42" class="edge"><title>Node1&#45;&gt;Node23</title>
<path fill="none" stroke="midnightblue" d="M748.5,-168.083C748.5,-161.006 748.5,-150.861 748.5,-141.986"/>
<polygon fill="midnightblue" stroke="midnightblue" points="752,-141.751 748.5,-131.751 745,-141.751 752,-141.751"/>
</g>
<!-- Node24 -->
<g id="node24" class="node"><title>Node24</title>
<polygon fill="white" stroke="#bfbfbf" points="996.5,-112.5 996.5,-131.5 1052.5,-131.5 1052.5,-112.5 996.5,-112.5"/>
<text text-anchor="middle" x="1024.5" y="-119.5" font-family="Helvetica,sans-Serif" font-size="10.00">algorithm</text>
</g>
<!-- Node1&#45;&gt;Node24 -->
<g id="edge45" class="edge"><title>Node1&#45;&gt;Node24</title>
<path fill="none" stroke="midnightblue" d="M794.291,-168.49C841.505,-159.646 917.23,-145.268 982.5,-132 983.733,-131.749 984.986,-131.493 986.251,-131.232"/>
<polygon fill="midnightblue" stroke="midnightblue" points="986.979,-134.655 996.051,-129.181 985.546,-127.804 986.979,-134.655"/>
</g>
<!-- Node25 -->
<g id="node25" class="node"><title>Node25</title>
<polygon fill="white" stroke="#bfbfbf" points="1070.5,-112.5 1070.5,-131.5 1124.5,-131.5 1124.5,-112.5 1070.5,-112.5"/>
<text text-anchor="middle" x="1097.5" y="-119.5" font-family="Helvetica,sans-Serif" font-size="10.00">iostream</text>
</g>
<!-- Node1&#45;&gt;Node25 -->
<g id="edge46" class="edge"><title>Node1&#45;&gt;Node25</title>
<path fill="none" stroke="midnightblue" d="M815.083,-169.43C876.44,-161.998 970.184,-149.498 1060.57,-132.011"/>
<polygon fill="midnightblue" stroke="midnightblue" points="1061.3,-135.436 1070.44,-130.08 1059.95,-128.566 1061.3,-135.436"/>
</g>
<!-- Node3 -->
<g id="node3" class="node"><title>Node3</title>
<g id="a_node3"><a xlink:href="_client_8h.html" target="_top" xlink:title="Client.h">
<polygon fill="white" stroke="black" points="13.5,-56.5 13.5,-75.5 63.5,-75.5 63.5,-56.5 13.5,-56.5"/>
<text text-anchor="middle" x="38.5" y="-63.5" font-family="Helvetica,sans-Serif" font-size="10.00">Client.h</text>
</a>
</g>
</g>
<!-- Node2&#45;&gt;Node3 -->
<g id="edge2" class="edge"><title>Node2&#45;&gt;Node3</title>
<path fill="none" stroke="midnightblue" d="M166.415,-112.444C140.955,-103.399 100.606,-89.064 72.0409,-78.9158"/>
<polygon fill="midnightblue" stroke="midnightblue" points="73.0669,-75.5661 62.4722,-75.5164 70.7235,-82.1622 73.0669,-75.5661"/>
</g>
<!-- Node6 -->
<g id="node6" class="node"><title>Node6</title>
<g id="a_node6"><a xlink:href="_scheduler_8h.html" target="_top" xlink:title="Scheduler.h">
<polygon fill="white" stroke="black" points="119.5,-56.5 119.5,-75.5 187.5,-75.5 187.5,-56.5 119.5,-56.5"/>
<text text-anchor="middle" x="153.5" y="-63.5" font-family="Helvetica,sans-Serif" font-size="10.00">Scheduler.h</text>
</a>
</g>
</g>
<!-- Node2&#45;&gt;Node6 -->
<g id="edge5" class="edge"><title>Node2&#45;&gt;Node6</title>
<path fill="none" stroke="midnightblue" d="M184.39,-112.083C179.218,-104.534 171.654,-93.4948 165.306,-84.2298"/>
<polygon fill="midnightblue" stroke="midnightblue" points="168.036,-82.0221 159.496,-75.7511 162.261,-85.9787 168.036,-82.0221"/>
</g>
<!-- Node7 -->
<g id="node7" class="node"><title>Node7</title>
<polygon fill="white" stroke="#bfbfbf" points="308.5,-0.5 308.5,-19.5 352.5,-19.5 352.5,-0.5 308.5,-0.5"/>
<text text-anchor="middle" x="330.5" y="-7.5" font-family="Helvetica,sans-Serif" font-size="10.00">vector</text>
</g>
<!-- Node2&#45;&gt;Node7 -->
<g id="edge10" class="edge"><title>Node2&#45;&gt;Node7</title>
<path fill="none" stroke="midnightblue" d="M164.552,-112.496C134.341,-101.237 90.9246,-79.9848 110.5,-56 133.783,-27.4725 242.498,-16.5434 297.884,-12.7742"/>
<polygon fill="midnightblue" stroke="midnightblue" points="298.454,-16.245 308.209,-12.1127 298.006,-9.25933 298.454,-16.245"/>
</g>
<!-- Node8 -->
<g id="node8" class="node"><title>Node8</title>
<polygon fill="white" stroke="#bfbfbf" points="267,-56.5 267,-75.5 302,-75.5 302,-56.5 267,-56.5"/>
<text text-anchor="middle" x="284.5" y="-63.5" font-family="Helvetica,sans-Serif" font-size="10.00">map</text>
</g>
<!-- Node2&#45;&gt;Node8 -->
<g id="edge8" class="edge"><title>Node2&#45;&gt;Node8</title>
<path fill="none" stroke="midnightblue" d="M205.603,-112.324C220.403,-103.822 243.194,-90.7288 260.482,-80.7975"/>
<polygon fill="midnightblue" stroke="midnightblue" points="262.507,-83.6707 269.435,-75.6545 259.02,-77.6009 262.507,-83.6707"/>
</g>
<!-- Node9 -->
<g id="node9" class="node"><title>Node9</title>
<polygon fill="white" stroke="#bfbfbf" points="206,-56.5 206,-75.5 249,-75.5 249,-56.5 206,-56.5"/>
<text text-anchor="middle" x="227.5" y="-63.5" font-family="Helvetica,sans-Serif" font-size="10.00">queue</text>
</g>
<!-- Node2&#45;&gt;Node9 -->
<g id="edge9" class="edge"><title>Node2&#45;&gt;Node9</title>
<path fill="none" stroke="midnightblue" d="M196.61,-112.083C201.782,-104.534 209.346,-93.4948 215.694,-84.2298"/>
<polygon fill="midnightblue" stroke="midnightblue" points="218.739,-85.9787 221.504,-75.7511 212.964,-82.0221 218.739,-85.9787"/>
</g>
<!-- Node4 -->
<g id="node4" class="node"><title>Node4</title>
<polygon fill="white" stroke="#bfbfbf" points="0,-0.5 0,-19.5 77,-19.5 77,-0.5 0,-0.5"/>
<text text-anchor="middle" x="38.5" y="-7.5" font-family="Helvetica,sans-Serif" font-size="10.00">glog/logging.h</text>
</g>
<!-- Node3&#45;&gt;Node4 -->
<g id="edge3" class="edge"><title>Node3&#45;&gt;Node4</title>
<path fill="none" stroke="midnightblue" d="M38.5,-56.083C38.5,-49.0059 38.5,-38.8611 38.5,-29.9865"/>
<polygon fill="midnightblue" stroke="midnightblue" points="42.0001,-29.751 38.5,-19.7511 35.0001,-29.7511 42.0001,-29.751"/>
</g>
<!-- Node5 -->
<g id="node5" class="node"><title>Node5</title>
<polygon fill="white" stroke="#bfbfbf" points="504.5,-0.5 504.5,-19.5 556.5,-19.5 556.5,-0.5 504.5,-0.5"/>
<text text-anchor="middle" x="530.5" y="-7.5" font-family="Helvetica,sans-Serif" font-size="10.00">memory</text>
</g>
<!-- Node3&#45;&gt;Node5 -->
<g id="edge4" class="edge"><title>Node3&#45;&gt;Node5</title>
<path fill="none" stroke="midnightblue" d="M63.8109,-61.7255C77.6061,-59.9687 94.9835,-57.8009 110.5,-56 252.485,-39.5209 421.736,-22.0489 494.424,-14.649"/>
<polygon fill="midnightblue" stroke="midnightblue" points="494.838,-18.125 504.433,-13.6316 494.13,-11.1609 494.838,-18.125"/>
</g>
<!-- Node6&#45;&gt;Node5 -->
<g id="edge6" class="edge"><title>Node6&#45;&gt;Node5</title>
<path fill="none" stroke="midnightblue" d="M187.725,-57.6035C190.688,-57.034 193.644,-56.4907 196.5,-56 304.433,-37.4587 433.083,-21.9745 494.458,-14.9886"/>
<polygon fill="midnightblue" stroke="midnightblue" points="494.874,-18.464 504.418,-13.8626 494.088,-11.5083 494.874,-18.464"/>
</g>
<!-- Node6&#45;&gt;Node7 -->
<g id="edge7" class="edge"><title>Node6&#45;&gt;Node7</title>
<path fill="none" stroke="midnightblue" d="M181.546,-56.4435C213.437,-46.7141 265.389,-30.8642 298.745,-20.688"/>
<polygon fill="midnightblue" stroke="midnightblue" points="299.913,-23.9909 308.457,-17.7251 297.871,-17.2955 299.913,-23.9909"/>
</g>
<!-- Node10&#45;&gt;Node5 -->
<g id="edge12" class="edge"><title>Node10&#45;&gt;Node5</title>
<path fill="none" stroke="midnightblue" d="M1044.8,-57.2067C1042,-56.7712 1039.21,-56.3637 1036.5,-56 861.274,-32.4859 650.203,-18.2045 566.87,-13.1147"/>
<polygon fill="midnightblue" stroke="midnightblue" points="566.854,-9.60749 556.661,-12.4984 566.432,-16.5948 566.854,-9.60749"/>
</g>
<!-- Node12 -->
<g id="node12" class="node"><title>Node12</title>
<polygon fill="white" stroke="#bfbfbf" points="726,-56.5 726,-75.5 785,-75.5 785,-56.5 726,-56.5"/>
<text text-anchor="middle" x="755.5" y="-63.5" font-family="Helvetica,sans-Serif" font-size="10.00">stdexcept</text>
</g>
<!-- Node11&#45;&gt;Node12 -->
<g id="edge14" class="edge"><title>Node11&#45;&gt;Node12</title>
<path fill="none" stroke="midnightblue" d="M684.996,-112.324C698.1,-103.9 718.212,-90.9709 733.607,-81.0741"/>
<polygon fill="midnightblue" stroke="midnightblue" points="735.518,-84.0063 742.037,-75.6545 731.733,-78.118 735.518,-84.0063"/>
</g>
<!-- Node13 -->
<g id="node13" class="node"><title>Node13</title>
<polygon fill="white" stroke="#bfbfbf" points="667,-56.5 667,-75.5 708,-75.5 708,-56.5 667,-56.5"/>
<text text-anchor="middle" x="687.5" y="-63.5" font-family="Helvetica,sans-Serif" font-size="10.00">string</text>
</g>
<!-- Node11&#45;&gt;Node13 -->
<g id="edge15" class="edge"><title>Node11&#45;&gt;Node13</title>
<path fill="none" stroke="midnightblue" d="M674.142,-112.083C676.286,-104.849 679.379,-94.4087 682.049,-85.3968"/>
<polygon fill="midnightblue" stroke="midnightblue" points="685.422,-86.3334 684.907,-75.7511 678.71,-84.3447 685.422,-86.3334"/>
</g>
<!-- Node14&#45;&gt;Node5 -->
<g id="edge20" class="edge"><title>Node14&#45;&gt;Node5</title>
<path fill="none" stroke="midnightblue" d="M530.5,-112.368C530.5,-94.617 530.5,-53.6664 530.5,-29.5974"/>
<polygon fill="midnightblue" stroke="midnightblue" points="534,-29.5914 530.5,-19.5914 527,-29.5915 534,-29.5914"/>
</g>
<!-- Node14&#45;&gt;Node7 -->
<g id="edge23" class="edge"><title>Node14&#45;&gt;Node7</title>
<path fill="none" stroke="midnightblue" d="M525.29,-112.499C516.378,-98.6526 496.884,-71.2495 473.5,-56 439.275,-33.6808 393.249,-21.8128 362.767,-15.9712"/>
<polygon fill="midnightblue" stroke="midnightblue" points="363.141,-12.4822 352.678,-14.1491 361.896,-19.3707 363.141,-12.4822"/>
</g>
<!-- Node14&#45;&gt;Node8 -->
<g id="edge19" class="edge"><title>Node14&#45;&gt;Node8</title>
<path fill="none" stroke="midnightblue" d="M500.827,-114.486C452.812,-103.946 358.768,-83.3028 312.11,-73.0608"/>
<polygon fill="midnightblue" stroke="midnightblue" points="312.632,-69.592 302.114,-70.8664 311.131,-76.4292 312.632,-69.592"/>
</g>
<!-- Node14&#45;&gt;Node13 -->
<g id="edge22" class="edge"><title>Node14&#45;&gt;Node13</title>
<path fill="none" stroke="midnightblue" d="M555.377,-112.444C582.912,-102.973 627.307,-87.7032 656.937,-77.512"/>
<polygon fill="midnightblue" stroke="midnightblue" points="658.432,-80.6991 666.75,-74.1368 656.156,-74.0797 658.432,-80.6991"/>
</g>
<!-- Node15 -->
<g id="node15" class="node"><title>Node15</title>
<g id="a_node15"><a xlink:href="_event_observer_8h.html" target="_top" xlink:title="EventObserver.h">
<polygon fill="white" stroke="black" points="558.5,-56.5 558.5,-75.5 648.5,-75.5 648.5,-56.5 558.5,-56.5"/>
<text text-anchor="middle" x="603.5" y="-63.5" font-family="Helvetica,sans-Serif" font-size="10.00">EventObserver.h</text>
</a>
</g>
</g>
<!-- Node14&#45;&gt;Node15 -->
<g id="edge17" class="edge"><title>Node14&#45;&gt;Node15</title>
<path fill="none" stroke="midnightblue" d="M542.229,-112.324C553.337,-104.107 570.242,-91.6017 583.483,-81.8069"/>
<polygon fill="midnightblue" stroke="midnightblue" points="585.6,-84.5948 591.558,-75.8339 581.437,-78.9671 585.6,-84.5948"/>
</g>
<!-- Node16 -->
<g id="node16" class="node"><title>Node16</title>
<polygon fill="white" stroke="#bfbfbf" points="434.5,-56.5 434.5,-75.5 464.5,-75.5 464.5,-56.5 434.5,-56.5"/>
<text text-anchor="middle" x="449.5" y="-63.5" font-family="Helvetica,sans-Serif" font-size="10.00">set</text>
</g>
<!-- Node14&#45;&gt;Node16 -->
<g id="edge21" class="edge"><title>Node14&#45;&gt;Node16</title>
<path fill="none" stroke="midnightblue" d="M517.486,-112.324C504.968,-103.979 485.818,-91.2122 471.029,-81.3524"/>
<polygon fill="midnightblue" stroke="midnightblue" points="472.744,-78.2894 462.482,-75.6545 468.861,-84.1137 472.744,-78.2894"/>
</g>
<!-- Node15&#45;&gt;Node5 -->
<g id="edge18" class="edge"><title>Node15&#45;&gt;Node5</title>
<path fill="none" stroke="midnightblue" d="M591.771,-56.324C580.663,-48.1066 563.758,-35.6017 550.517,-25.8069"/>
<polygon fill="midnightblue" stroke="midnightblue" points="552.563,-22.9671 542.442,-19.8339 548.4,-28.5948 552.563,-22.9671"/>
</g>
<!-- Node17&#45;&gt;Node5 -->
<g id="edge26" class="edge"><title>Node17&#45;&gt;Node5</title>
<path fill="none" stroke="midnightblue" d="M339.821,-112.448C354.836,-99.0144 385.717,-72.7739 415.5,-56 440.835,-41.7312 471.604,-29.951 494.937,-22.0273"/>
<polygon fill="midnightblue" stroke="midnightblue" points="496.056,-25.3437 504.444,-18.8716 493.851,-18.7001 496.056,-25.3437"/>
</g>
<!-- Node17&#45;&gt;Node7 -->
<g id="edge28" class="edge"><title>Node17&#45;&gt;Node7</title>
<path fill="none" stroke="midnightblue" d="M330.5,-112.368C330.5,-94.617 330.5,-53.6664 330.5,-29.5974"/>
<polygon fill="midnightblue" stroke="midnightblue" points="334,-29.5914 330.5,-19.5914 327,-29.5915 334,-29.5914"/>
</g>
<!-- Node17&#45;&gt;Node8 -->
<g id="edge25" class="edge"><title>Node17&#45;&gt;Node8</title>
<path fill="none" stroke="midnightblue" d="M322.904,-112.083C316.273,-104.298 306.479,-92.8015 298.442,-83.3665"/>
<polygon fill="midnightblue" stroke="midnightblue" points="301.104,-81.0939 291.955,-75.7511 295.775,-85.6332 301.104,-81.0939"/>
</g>
<!-- Node17&#45;&gt;Node9 -->
<g id="edge27" class="edge"><title>Node17&#45;&gt;Node9</title>
<path fill="none" stroke="midnightblue" d="M313.951,-112.324C297.508,-103.703 272.065,-90.3643 253.032,-80.3855"/>
<polygon fill="midnightblue" stroke="midnightblue" points="254.489,-77.198 244.008,-75.6545 251.239,-83.3977 254.489,-77.198"/>
</g>
<!-- Node18&#45;&gt;Node5 -->
<g id="edge30" class="edge"><title>Node18&#45;&gt;Node5</title>
<path fill="none" stroke="midnightblue" d="M424.26,-112.146C419.971,-98.7704 414.189,-73.1542 425.5,-56 440.689,-32.9648 470.38,-21.6763 494.325,-16.1703"/>
<polygon fill="midnightblue" stroke="midnightblue" points="495.085,-19.5874 504.176,-14.1471 493.676,-12.7305 495.085,-19.5874"/>
</g>
<!-- Node18&#45;&gt;Node9 -->
<g id="edge31" class="edge"><title>Node18&#45;&gt;Node9</title>
<path fill="none" stroke="midnightblue" d="M403.782,-114.983C372.665,-107.032 316.133,-92.3958 259.019,-76.3681"/>
<polygon fill="midnightblue" stroke="midnightblue" points="259.68,-72.9182 249.105,-73.5735 257.781,-79.6556 259.68,-72.9182"/>
</g>
<!-- Node18&#45;&gt;Node16 -->
<g id="edge32" class="edge"><title>Node18&#45;&gt;Node16</title>
<path fill="none" stroke="midnightblue" d="M431.133,-112.083C434.112,-104.77 438.426,-94.1814 442.125,-85.1034"/>
<polygon fill="midnightblue" stroke="midnightblue" points="445.403,-86.3326 445.935,-75.7511 438.92,-83.6914 445.403,-86.3326"/>
</g>
<!-- Node19&#45;&gt;Node5 -->
<g id="edge35" class="edge"><title>Node19&#45;&gt;Node5</title>
<path fill="none" stroke="midnightblue" d="M828.294,-112.207C833.573,-98.4443 841.052,-71.7604 827.5,-56 794.269,-17.3543 638.636,-11.489 566.892,-10.876"/>
<polygon fill="midnightblue" stroke="midnightblue" points="566.553,-7.37415 556.534,-10.8193 566.514,-14.374 566.553,-7.37415"/>
</g>
<!-- Node19&#45;&gt;Node7 -->
<g id="edge37" class="edge"><title>Node19&#45;&gt;Node7</title>
<path fill="none" stroke="midnightblue" d="M823.085,-112.072C820.279,-97.6123 812.543,-69.3472 793.5,-56 775.835,-43.6185 465.064,-20.5532 362.816,-13.2669"/>
<polygon fill="midnightblue" stroke="midnightblue" points="362.989,-9.77044 352.767,-12.5538 362.494,-16.7529 362.989,-9.77044"/>
</g>
<!-- Node19&#45;&gt;Node13 -->
<g id="edge36" class="edge"><title>Node19&#45;&gt;Node13</title>
<path fill="none" stroke="midnightblue" d="M802.792,-112.444C779.879,-103.412 743.586,-89.1067 717.846,-78.9612"/>
<polygon fill="midnightblue" stroke="midnightblue" points="718.797,-75.5738 708.21,-75.1629 716.23,-82.0862 718.797,-75.5738"/>
</g>
<!-- Node20 -->
<g id="node20" class="node"><title>Node20</title>
<polygon fill="white" stroke="#bfbfbf" points="880,-56.5 880,-75.5 921,-75.5 921,-56.5 880,-56.5"/>
<text text-anchor="middle" x="900.5" y="-63.5" font-family="Helvetica,sans-Serif" font-size="10.00">ctime</text>
</g>
<!-- Node19&#45;&gt;Node20 -->
<g id="edge34" class="edge"><title>Node19&#45;&gt;Node20</title>
<path fill="none" stroke="midnightblue" d="M836.711,-112.324C848.276,-104.107 865.875,-91.6017 879.661,-81.8069"/>
<polygon fill="midnightblue" stroke="midnightblue" points="881.943,-84.4791 888.067,-75.8339 877.888,-78.7729 881.943,-84.4791"/>
</g>
<!-- Node21&#45;&gt;Node5 -->
<g id="edge40" class="edge"><title>Node21&#45;&gt;Node5</title>
<path fill="none" stroke="midnightblue" d="M915.208,-112.346C926.351,-98.7737 944.106,-72.346 929.5,-56 905.516,-29.1595 660.515,-16.3372 566.74,-12.3845"/>
<polygon fill="midnightblue" stroke="midnightblue" points="566.729,-8.88114 556.593,-11.9667 566.441,-15.8752 566.729,-8.88114"/>
</g>
<!-- Node21&#45;&gt;Node20 -->
<g id="edge39" class="edge"><title>Node21&#45;&gt;Node20</title>
<path fill="none" stroke="midnightblue" d="M906.344,-112.083C905.416,-104.927 904.082,-94.6353 902.923,-85.6911"/>
<polygon fill="midnightblue" stroke="midnightblue" points="906.391,-85.2181 901.634,-75.7511 899.449,-86.1181 906.391,-85.2181"/>
</g>
<!-- Node22 -->
<g id="node22" class="node"><title>Node22</title>
<polygon fill="white" stroke="#bfbfbf" points="978,-56.5 978,-75.5 1027,-75.5 1027,-56.5 978,-56.5"/>
<text text-anchor="middle" x="1002.5" y="-63.5" font-family="Helvetica,sans-Serif" font-size="10.00">random</text>
</g>
<!-- Node21&#45;&gt;Node22 -->
<g id="edge41" class="edge"><title>Node21&#45;&gt;Node22</title>
<path fill="none" stroke="midnightblue" d="M922.763,-112.324C937.721,-103.822 960.755,-90.7288 978.227,-80.7975"/>
<polygon fill="midnightblue" stroke="midnightblue" points="980.31,-83.639 987.274,-75.6545 976.851,-77.5534 980.31,-83.639"/>
</g>
<!-- Node23&#45;&gt;Node12 -->
<g id="edge43" class="edge"><title>Node23&#45;&gt;Node12</title>
<path fill="none" stroke="midnightblue" d="M749.656,-112.083C750.584,-104.927 751.918,-94.6353 753.077,-85.6911"/>
<polygon fill="midnightblue" stroke="midnightblue" points="756.551,-86.1181 754.366,-75.7511 749.609,-85.2181 756.551,-86.1181"/>
</g>
<!-- Node23&#45;&gt;Node13 -->
<g id="edge44" class="edge"><title>Node23&#45;&gt;Node13</title>
<path fill="none" stroke="midnightblue" d="M738.699,-112.324C729.682,-104.341 716.094,-92.3128 705.182,-82.6529"/>
<polygon fill="midnightblue" stroke="midnightblue" points="707.287,-79.8416 697.479,-75.8339 702.647,-85.083 707.287,-79.8416"/>
</g>
</g>
</svg>
