<?xml version="1.0" encoding="UTF-8" standalone="no"?>
<!DOCTYPE svg PUBLIC "-//W3C//DTD SVG 1.1//EN"
 "http://www.w3.org/Graphics/SVG/1.1/DTD/svg11.dtd">
<!-- Generated by graphviz version 2.38.0 (20140413.2041)
 -->
<!-- Title: src/RandomCostFunction.cpp Pages: 1 -->
<svg width="268pt" height="196pt"
 viewBox="0.00 0.00 268.00 196.00" xmlns="http://www.w3.org/2000/svg" xmlns:xlink="http://www.w3.org/1999/xlink">
<g id="graph0" class="graph" transform="scale(1 1) rotate(0) translate(4 192)">
<title>src/RandomCostFunction.cpp</title>
<polygon fill="white" stroke="none" points="-4,4 -4,-192 264,-192 264,4 -4,4"/>
<!-- Node1 -->
<g id="node1" class="node"><title>Node1</title>
<polygon fill="#bfbfbf" stroke="black" points="67.5,-168.5 67.5,-187.5 220.5,-187.5 220.5,-168.5 67.5,-168.5"/>
<text text-anchor="middle" x="144" y="-175.5" font-family="Ubuntu Mono" font-size="10.00">src/RandomCostFunction.cpp</text>
</g>
<!-- Node2 -->
<g id="node2" class="node"><title>Node2</title>
<g id="a_node2"><a xlink:href="_random_cost_function_8h.html" target="_top" xlink:title="RandomCostFunction.h">
<polygon fill="white" stroke="black" points="83,-112.5 83,-131.5 205,-131.5 205,-112.5 83,-112.5"/>
<text text-anchor="middle" x="144" y="-119.5" font-family="Ubuntu Mono" font-size="10.00">RandomCostFunction.h</text>
</a>
</g>
</g>
<!-- Node1&#45;&gt;Node2 -->
<g id="edge1" class="edge"><title>Node1&#45;&gt;Node2</title>
<path fill="none" stroke="midnightblue" d="M144,-168.083C144,-161.006 144,-150.861 144,-141.986"/>
<polygon fill="midnightblue" stroke="midnightblue" points="147.5,-141.751 144,-131.751 140.5,-141.751 147.5,-141.751"/>
</g>
<!-- Node3 -->
<g id="node3" class="node"><title>Node3</title>
<g id="a_node3"><a xlink:href="_cost_function_8h.html" target="_top" xlink:title="CostFunction.h">
<polygon fill="white" stroke="black" points="0,-56.5 0,-75.5 90,-75.5 90,-56.5 0,-56.5"/>
<text text-anchor="middle" x="45" y="-63.5" font-family="Ubuntu Mono" font-size="10.00">CostFunction.h</text>
</a>
</g>
</g>
<!-- Node2&#45;&gt;Node3 -->
<g id="edge2" class="edge"><title>Node2&#45;&gt;Node3</title>
<path fill="none" stroke="midnightblue" d="M128.094,-112.324C112.362,-103.743 88.0577,-90.486 69.7911,-80.5224"/>
<polygon fill="midnightblue" stroke="midnightblue" points="71.3216,-77.3704 60.8666,-75.6545 67.9696,-83.5157 71.3216,-77.3704"/>
</g>
<!-- Node4 -->
<g id="node4" class="node"><title>Node4</title>
<polygon fill="white" stroke="#bfbfbf" points="57,-0.5 57,-19.5 105,-19.5 105,-0.5 57,-0.5"/>
<text text-anchor="middle" x="81" y="-7.5" font-family="Ubuntu Mono" font-size="10.00">memory</text>
</g>
<!-- Node2&#45;&gt;Node4 -->
<g id="edge4" class="edge"><title>Node2&#45;&gt;Node4</title>
<path fill="none" stroke="midnightblue" d="M139.056,-112.368C128.706,-94.2957 104.583,-52.1764 90.9124,-28.3074"/>
<polygon fill="midnightblue" stroke="midnightblue" points="93.9276,-26.5295 85.9205,-19.5914 87.8533,-30.0085 93.9276,-26.5295"/>
</g>
<!-- Node5 -->
<g id="node5" class="node"><title>Node5</title>
<polygon fill="white" stroke="#bfbfbf" points="146,-56.5 146,-75.5 194,-75.5 194,-56.5 146,-56.5"/>
<text text-anchor="middle" x="170" y="-63.5" font-family="Ubuntu Mono" font-size="10.00">random</text>
</g>
<!-- Node2&#45;&gt;Node5 -->
<g id="edge5" class="edge"><title>Node2&#45;&gt;Node5</title>
<path fill="none" stroke="midnightblue" d="M148.293,-112.083C151.852,-104.691 157.022,-93.9533 161.424,-84.8111"/>
<polygon fill="midnightblue" stroke="midnightblue" points="164.602,-86.2795 165.787,-75.7511 158.295,-83.2427 164.602,-86.2795"/>
</g>
<!-- Node6 -->
<g id="node6" class="node"><title>Node6</title>
<polygon fill="white" stroke="#bfbfbf" points="212,-56.5 212,-75.5 260,-75.5 260,-56.5 212,-56.5"/>
<text text-anchor="middle" x="236" y="-63.5" font-family="Ubuntu Mono" font-size="10.00">string</text>
</g>
<!-- Node2&#45;&gt;Node6 -->
<g id="edge6" class="edge"><title>Node2&#45;&gt;Node6</title>
<path fill="none" stroke="midnightblue" d="M158.781,-112.324C173.267,-103.822 195.573,-90.7288 212.493,-80.7975"/>
<polygon fill="midnightblue" stroke="midnightblue" points="214.403,-83.735 221.255,-75.6545 210.859,-77.6981 214.403,-83.735"/>
</g>
<!-- Node3&#45;&gt;Node4 -->
<g id="edge3" class="edge"><title>Node3&#45;&gt;Node4</title>
<path fill="none" stroke="midnightblue" d="M50.9447,-56.083C55.9773,-48.5341 63.3368,-37.4948 69.5135,-28.2298"/>
<polygon fill="midnightblue" stroke="midnightblue" points="72.5311,-30.0131 75.1659,-19.7511 66.7067,-26.1301 72.5311,-30.0131"/>
</g>
</g>
</svg>
