<?xml version="1.0" encoding="UTF-8" standalone="no"?>
<!DOCTYPE svg PUBLIC "-//W3C//DTD SVG 1.1//EN"
 "http://www.w3.org/Graphics/SVG/1.1/DTD/svg11.dtd">
<!-- Generated by graphviz version 2.38.0 (20140413.2041)
 -->
<!-- Title: include/RandomCostFunction.h Pages: 1 -->
<svg width="322pt" height="140pt"
 viewBox="0.00 0.00 322.00 140.00" xmlns="http://www.w3.org/2000/svg" xmlns:xlink="http://www.w3.org/1999/xlink">
<g id="graph0" class="graph" transform="scale(1 1) rotate(0) translate(4 136)">
<title>include/RandomCostFunction.h</title>
<polygon fill="white" stroke="none" points="-4,4 -4,-136 318,-136 318,4 -4,4"/>
<!-- Node1 -->
<g id="node1" class="node"><title>Node1</title>
<polygon fill="#bfbfbf" stroke="black" points="79.5,-112.5 79.5,-131.5 233.5,-131.5 233.5,-112.5 79.5,-112.5"/>
<text text-anchor="middle" x="156.5" y="-119.5" font-family="Helvetica,sans-Serif" font-size="10.00">include/RandomCostFunction.h</text>
</g>
<!-- Node2 -->
<g id="node2" class="node"><title>Node2</title>
<g id="a_node2"><a xlink:href="_random_cost_function_8cpp.html" target="_top" xlink:title="src/RandomCostFunction.cpp">
<polygon fill="white" stroke="black" points="0,-56.5 0,-75.5 147,-75.5 147,-56.5 0,-56.5"/>
<text text-anchor="middle" x="73.5" y="-63.5" font-family="Helvetica,sans-Serif" font-size="10.00">src/RandomCostFunction.cpp</text>
</a>
</g>
</g>
<!-- Node1&#45;&gt;Node2 -->
<g id="edge1" class="edge"><title>Node1&#45;&gt;Node2</title>
<path fill="none" stroke="midnightblue" d="M134.401,-106.622C119.238,-96.7574 99.6172,-83.9919 86.8023,-75.6545"/>
<polygon fill="midnightblue" stroke="midnightblue" points="132.874,-109.804 143.165,-112.324 136.691,-103.937 132.874,-109.804"/>
</g>
<!-- Node3 -->
<g id="node3" class="node"><title>Node3</title>
<g id="a_node3"><a xlink:href="_cost_function_creator_8h.html" target="_top" xlink:title="include/CostFunctionCreator.h">
<polygon fill="white" stroke="black" points="165,-56.5 165,-75.5 314,-75.5 314,-56.5 165,-56.5"/>
<text text-anchor="middle" x="239.5" y="-63.5" font-family="Helvetica,sans-Serif" font-size="10.00">include/CostFunctionCreator.h</text>
</a>
</g>
</g>
<!-- Node1&#45;&gt;Node3 -->
<g id="edge2" class="edge"><title>Node1&#45;&gt;Node3</title>
<path fill="none" stroke="midnightblue" d="M178.599,-106.622C193.762,-96.7574 213.383,-83.9919 226.198,-75.6545"/>
<polygon fill="midnightblue" stroke="midnightblue" points="176.309,-103.937 169.835,-112.324 180.126,-109.804 176.309,-103.937"/>
</g>
<!-- Node4 -->
<g id="node4" class="node"><title>Node4</title>
<g id="a_node4"><a xlink:href="_simulator_8cpp.html" target="_top" xlink:title="src/Simulator.cpp">
<polygon fill="white" stroke="black" points="193,-0.5 193,-19.5 286,-19.5 286,-0.5 193,-0.5"/>
<text text-anchor="middle" x="239.5" y="-7.5" font-family="Helvetica,sans-Serif" font-size="10.00">src/Simulator.cpp</text>
</a>
</g>
</g>
<!-- Node3&#45;&gt;Node4 -->
<g id="edge3" class="edge"><title>Node3&#45;&gt;Node4</title>
<path fill="none" stroke="midnightblue" d="M239.5,-45.8045C239.5,-36.9102 239.5,-26.7798 239.5,-19.7511"/>
<polygon fill="midnightblue" stroke="midnightblue" points="236,-46.083 239.5,-56.083 243,-46.083 236,-46.083"/>
</g>
</g>
</svg>
