<?xml version="1.0" encoding="UTF-8" standalone="no"?>
<!DOCTYPE svg PUBLIC "-//W3C//DTD SVG 1.1//EN"
 "http://www.w3.org/Graphics/SVG/1.1/DTD/svg11.dtd">
<!-- Generated by graphviz version 2.38.0 (20140413.2041)
 -->
<!-- Title: include/RandomCostFunction.h Pages: 1 -->
<svg width="256pt" height="140pt"
 viewBox="0.00 0.00 256.00 140.00" xmlns="http://www.w3.org/2000/svg" xmlns:xlink="http://www.w3.org/1999/xlink">
<g id="graph0" class="graph" transform="scale(1 1) rotate(0) translate(4 136)">
<title>include/RandomCostFunction.h</title>
<polygon fill="white" stroke="none" points="-4,4 -4,-136 252,-136 252,4 -4,4"/>
<!-- Node1 -->
<g id="node1" class="node"><title>Node1</title>
<polygon fill="#bfbfbf" stroke="black" points="60.5,-112.5 60.5,-131.5 214.5,-131.5 214.5,-112.5 60.5,-112.5"/>
<text text-anchor="middle" x="137.5" y="-119.5" font-family="Helvetica,sans-Serif" font-size="10.00">include/RandomCostFunction.h</text>
</g>
<!-- Node2 -->
<g id="node2" class="node"><title>Node2</title>
<g id="a_node2"><a xlink:href="_cost_function_8h.html" target="_top" xlink:title="CostFunction.h">
<polygon fill="white" stroke="black" points="0,-56.5 0,-75.5 83,-75.5 83,-56.5 0,-56.5"/>
<text text-anchor="middle" x="41.5" y="-63.5" font-family="Helvetica,sans-Serif" font-size="10.00">CostFunction.h</text>
</a>
</g>
</g>
<!-- Node1&#45;&gt;Node2 -->
<g id="edge1" class="edge"><title>Node1&#45;&gt;Node2</title>
<path fill="none" stroke="midnightblue" d="M122.076,-112.324C106.96,-103.822 83.6846,-90.7288 66.0288,-80.7975"/>
<polygon fill="midnightblue" stroke="midnightblue" points="67.3175,-77.5066 56.8858,-75.6545 63.8856,-83.6077 67.3175,-77.5066"/>
</g>
<!-- Node3 -->
<g id="node3" class="node"><title>Node3</title>
<polygon fill="white" stroke="#bfbfbf" points="50.5,-0.5 50.5,-19.5 102.5,-19.5 102.5,-0.5 50.5,-0.5"/>
<text text-anchor="middle" x="76.5" y="-7.5" font-family="Helvetica,sans-Serif" font-size="10.00">memory</text>
</g>
<!-- Node1&#45;&gt;Node3 -->
<g id="edge3" class="edge"><title>Node1&#45;&gt;Node3</title>
<path fill="none" stroke="midnightblue" d="M132.713,-112.368C122.736,-94.376 99.5415,-52.5503 86.2748,-28.6267"/>
<polygon fill="midnightblue" stroke="midnightblue" points="89.1749,-26.6393 81.2643,-19.5914 83.0532,-30.0342 89.1749,-26.6393"/>
</g>
<!-- Node4 -->
<g id="node4" class="node"><title>Node4</title>
<polygon fill="white" stroke="#bfbfbf" points="140,-56.5 140,-75.5 189,-75.5 189,-56.5 140,-56.5"/>
<text text-anchor="middle" x="164.5" y="-63.5" font-family="Helvetica,sans-Serif" font-size="10.00">random</text>
</g>
<!-- Node1&#45;&gt;Node4 -->
<g id="edge4" class="edge"><title>Node1&#45;&gt;Node4</title>
<path fill="none" stroke="midnightblue" d="M141.959,-112.083C145.654,-104.691 151.023,-93.9533 155.594,-84.8111"/>
<polygon fill="midnightblue" stroke="midnightblue" points="158.783,-86.2606 160.124,-75.7511 152.522,-83.1301 158.783,-86.2606"/>
</g>
<!-- Node5 -->
<g id="node5" class="node"><title>Node5</title>
<polygon fill="white" stroke="#bfbfbf" points="207,-56.5 207,-75.5 248,-75.5 248,-56.5 207,-56.5"/>
<text text-anchor="middle" x="227.5" y="-63.5" font-family="Helvetica,sans-Serif" font-size="10.00">string</text>
</g>
<!-- Node1&#45;&gt;Node5 -->
<g id="edge5" class="edge"><title>Node1&#45;&gt;Node5</title>
<path fill="none" stroke="midnightblue" d="M151.96,-112.324C166,-103.9 187.548,-90.9709 204.043,-81.0741"/>
<polygon fill="midnightblue" stroke="midnightblue" points="206.302,-83.8007 213.076,-75.6545 202.7,-77.7983 206.302,-83.8007"/>
</g>
<!-- Node2&#45;&gt;Node3 -->
<g id="edge2" class="edge"><title>Node2&#45;&gt;Node3</title>
<path fill="none" stroke="midnightblue" d="M47.2795,-56.083C52.1724,-48.5341 59.3274,-37.4948 65.3326,-28.2298"/>
<polygon fill="midnightblue" stroke="midnightblue" points="68.326,-30.0463 70.828,-19.7511 62.452,-26.239 68.326,-30.0463"/>
</g>
</g>
</svg>
