<?xml version="1.0" encoding="UTF-8" standalone="no"?>
<!DOCTYPE svg PUBLIC "-//W3C//DTD SVG 1.1//EN"
 "http://www.w3.org/Graphics/SVG/1.1/DTD/svg11.dtd">
<!-- Generated by graphviz version 2.38.0 (20140413.2041)
 -->
<!-- Title: include/RandomCostFunction.h Pages: 1 -->
<svg width="348pt" height="140pt"
 viewBox="0.00 0.00 348.00 140.00" xmlns="http://www.w3.org/2000/svg" xmlns:xlink="http://www.w3.org/1999/xlink">
<g id="graph0" class="graph" transform="scale(1 1) rotate(0) translate(4 136)">
<title>include/RandomCostFunction.h</title>
<polygon fill="white" stroke="none" points="-4,4 -4,-136 344,-136 344,4 -4,4"/>
<!-- Node1 -->
<g id="node1" class="node"><title>Node1</title>
<polygon fill="#bfbfbf" stroke="black" points="83.5,-112.5 83.5,-131.5 247.5,-131.5 247.5,-112.5 83.5,-112.5"/>
<text text-anchor="middle" x="165.5" y="-119.5" font-family="Ubuntu Mono" font-size="10.00">include/RandomCostFunction.h</text>
</g>
<!-- Node2 -->
<g id="node2" class="node"><title>Node2</title>
<g id="a_node2"><a xlink:href="_random_cost_function_8cpp.html" target="_top" xlink:title="src/RandomCostFunction.cpp">
<polygon fill="white" stroke="black" points="0,-56.5 0,-75.5 153,-75.5 153,-56.5 0,-56.5"/>
<text text-anchor="middle" x="76.5" y="-63.5" font-family="Ubuntu Mono" font-size="10.00">src/RandomCostFunction.cpp</text>
</a>
</g>
</g>
<!-- Node1&#45;&gt;Node2 -->
<g id="edge1" class="edge"><title>Node1&#45;&gt;Node2</title>
<path fill="none" stroke="midnightblue" d="M142.262,-106.901C125.942,-96.9986 104.635,-84.0705 90.7639,-75.6545"/>
<polygon fill="midnightblue" stroke="midnightblue" points="140.836,-110.129 151.201,-112.324 144.467,-104.144 140.836,-110.129"/>
</g>
<!-- Node3 -->
<g id="node3" class="node"><title>Node3</title>
<g id="a_node3"><a xlink:href="_cost_function_creator_8h.html" target="_top" xlink:title="include/CostFunctionCreator.h">
<polygon fill="white" stroke="black" points="171,-56.5 171,-75.5 340,-75.5 340,-56.5 171,-56.5"/>
<text text-anchor="middle" x="255.5" y="-63.5" font-family="Ubuntu Mono" font-size="10.00">include/CostFunctionCreator.h</text>
</a>
</g>
</g>
<!-- Node1&#45;&gt;Node3 -->
<g id="edge2" class="edge"><title>Node1&#45;&gt;Node3</title>
<path fill="none" stroke="midnightblue" d="M188.538,-107.177C205.099,-97.2407 226.918,-84.1492 241.076,-75.6545"/>
<polygon fill="midnightblue" stroke="midnightblue" points="186.734,-104.178 179.96,-112.324 190.336,-110.18 186.734,-104.178"/>
</g>
<!-- Node4 -->
<g id="node4" class="node"><title>Node4</title>
<g id="a_node4"><a xlink:href="_simulator_8cpp.html" target="_top" xlink:title="src/Simulator.cpp">
<polygon fill="white" stroke="black" points="202.5,-0.5 202.5,-19.5 308.5,-19.5 308.5,-0.5 202.5,-0.5"/>
<text text-anchor="middle" x="255.5" y="-7.5" font-family="Ubuntu Mono" font-size="10.00">src/Simulator.cpp</text>
</a>
</g>
</g>
<!-- Node3&#45;&gt;Node4 -->
<g id="edge3" class="edge"><title>Node3&#45;&gt;Node4</title>
<path fill="none" stroke="midnightblue" d="M255.5,-45.8045C255.5,-36.9102 255.5,-26.7798 255.5,-19.7511"/>
<polygon fill="midnightblue" stroke="midnightblue" points="252,-46.083 255.5,-56.083 259,-46.083 252,-46.083"/>
</g>
</g>
</svg>
