<?xml version="1.0" encoding="UTF-8" standalone="no"?>
<!DOCTYPE svg PUBLIC "-//W3C//DTD SVG 1.1//EN"
 "http://www.w3.org/Graphics/SVG/1.1/DTD/svg11.dtd">
<!-- Generated by graphviz version 2.38.0 (20140413.2041)
 -->
<!-- Title: src/Reporter.cpp Pages: 1 -->
<svg width="1038pt" height="196pt"
 viewBox="0.00 0.00 1038.00 196.00" xmlns="http://www.w3.org/2000/svg" xmlns:xlink="http://www.w3.org/1999/xlink">
<g id="graph0" class="graph" transform="scale(1 1) rotate(0) translate(4 192)">
<title>src/Reporter.cpp</title>
<polygon fill="white" stroke="none" points="-4,4 -4,-192 1034,-192 1034,4 -4,4"/>
<!-- Node1 -->
<g id="node1" class="node"><title>Node1</title>
<polygon fill="#bfbfbf" stroke="black" points="535,-168.5 535,-187.5 636,-187.5 636,-168.5 535,-168.5"/>
<text text-anchor="middle" x="585.5" y="-175.5" font-family="Ubuntu Mono" font-size="10.00">src/Reporter.cpp</text>
</g>
<!-- Node2 -->
<g id="node2" class="node"><title>Node2</title>
<g id="a_node2"><a xlink:href="_reporter_8h.html" target="_top" xlink:title="Reporter.h">
<polygon fill="white" stroke="black" points="464,-112.5 464,-131.5 533,-131.5 533,-112.5 464,-112.5"/>
<text text-anchor="middle" x="498.5" y="-119.5" font-family="Ubuntu Mono" font-size="10.00">Reporter.h</text>
</a>
</g>
</g>
<!-- Node1&#45;&gt;Node2 -->
<g id="edge1" class="edge"><title>Node1&#45;&gt;Node2</title>
<path fill="none" stroke="midnightblue" d="M571.522,-168.324C557.95,-159.9 537.12,-146.971 521.175,-137.074"/>
<polygon fill="midnightblue" stroke="midnightblue" points="522.786,-133.954 512.443,-131.655 519.094,-139.902 522.786,-133.954"/>
</g>
<!-- Node7 -->
<g id="node7" class="node"><title>Node7</title>
<g id="a_node7"><a xlink:href="_arrival_8h.html" target="_top" xlink:title="Arrival.h">
<polygon fill="white" stroke="black" points="161.5,-112.5 161.5,-131.5 225.5,-131.5 225.5,-112.5 161.5,-112.5"/>
<text text-anchor="middle" x="193.5" y="-119.5" font-family="Ubuntu Mono" font-size="10.00">Arrival.h</text>
</a>
</g>
</g>
<!-- Node1&#45;&gt;Node7 -->
<g id="edge6" class="edge"><title>Node1&#45;&gt;Node7</title>
<path fill="none" stroke="midnightblue" d="M534.877,-170.861C468.545,-162.684 348.643,-147.447 246.5,-132 243.026,-131.475 239.429,-130.909 235.818,-130.327"/>
<polygon fill="midnightblue" stroke="midnightblue" points="236.138,-126.833 225.702,-128.66 235,-133.739 236.138,-126.833"/>
</g>
<!-- Node9 -->
<g id="node9" class="node"><title>Node9</title>
<g id="a_node9"><a xlink:href="_cost_function_type_8h.html" target="_top" xlink:title="CostFunctionType.h">
<polygon fill="white" stroke="black" points="335,-112.5 335,-131.5 446,-131.5 446,-112.5 335,-112.5"/>
<text text-anchor="middle" x="390.5" y="-119.5" font-family="Ubuntu Mono" font-size="10.00">CostFunctionType.h</text>
</a>
</g>
</g>
<!-- Node1&#45;&gt;Node9 -->
<g id="edge8" class="edge"><title>Node1&#45;&gt;Node9</title>
<path fill="none" stroke="midnightblue" d="M554.602,-168.444C521.226,-159.201 467.906,-144.436 431.151,-134.257"/>
<polygon fill="midnightblue" stroke="midnightblue" points="431.825,-130.812 421.254,-131.516 429.957,-137.558 431.825,-130.812"/>
</g>
<!-- Node12 -->
<g id="node12" class="node"><title>Node12</title>
<g id="a_node12"><a xlink:href="_scheduler_type_8h.html" target="_top" xlink:title="SchedulerType.h">
<polygon fill="white" stroke="black" points="41,-112.5 41,-131.5 136,-131.5 136,-112.5 41,-112.5"/>
<text text-anchor="middle" x="88.5" y="-119.5" font-family="Ubuntu Mono" font-size="10.00">SchedulerType.h</text>
</a>
</g>
</g>
<!-- Node1&#45;&gt;Node12 -->
<g id="edge12" class="edge"><title>Node1&#45;&gt;Node12</title>
<path fill="none" stroke="midnightblue" d="M534.77,-172.328C453.834,-164.738 290.537,-148.873 152.5,-132 150.412,-131.745 148.286,-131.479 146.14,-131.205"/>
<polygon fill="midnightblue" stroke="midnightblue" points="146.376,-127.706 136.006,-129.875 145.466,-134.646 146.376,-127.706"/>
</g>
<!-- Node14 -->
<g id="node14" class="node"><title>Node14</title>
<g id="a_node14"><a xlink:href="_scenario_8h.html" target="_top" xlink:title="Scenario.h">
<polygon fill="white" stroke="black" points="551,-112.5 551,-131.5 620,-131.5 620,-112.5 551,-112.5"/>
<text text-anchor="middle" x="585.5" y="-119.5" font-family="Ubuntu Mono" font-size="10.00">Scenario.h</text>
</a>
</g>
</g>
<!-- Node1&#45;&gt;Node14 -->
<g id="edge15" class="edge"><title>Node1&#45;&gt;Node14</title>
<path fill="none" stroke="midnightblue" d="M585.5,-168.083C585.5,-161.006 585.5,-150.861 585.5,-141.986"/>
<polygon fill="midnightblue" stroke="midnightblue" points="589,-141.751 585.5,-131.751 582,-141.751 589,-141.751"/>
</g>
<!-- Node16 -->
<g id="node16" class="node"><title>Node16</title>
<g id="a_node16"><a xlink:href="_simulator_8h.html" target="_top" xlink:title="Simulator.h">
<polygon fill="white" stroke="black" points="736.5,-112.5 736.5,-131.5 810.5,-131.5 810.5,-112.5 736.5,-112.5"/>
<text text-anchor="middle" x="773.5" y="-119.5" font-family="Ubuntu Mono" font-size="10.00">Simulator.h</text>
</a>
</g>
</g>
<!-- Node1&#45;&gt;Node16 -->
<g id="edge20" class="edge"><title>Node1&#45;&gt;Node16</title>
<path fill="none" stroke="midnightblue" d="M615.289,-168.444C647.329,-159.241 698.433,-144.562 733.853,-134.388"/>
<polygon fill="midnightblue" stroke="midnightblue" points="735.205,-137.641 743.85,-131.516 733.273,-130.913 735.205,-137.641"/>
</g>
<!-- Node18 -->
<g id="node18" class="node"><title>Node18</title>
<g id="a_node18"><a xlink:href="_statistics_8h.html" target="_top" xlink:title="Statistics.h">
<polygon fill="white" stroke="black" points="638.5,-112.5 638.5,-131.5 718.5,-131.5 718.5,-112.5 638.5,-112.5"/>
<text text-anchor="middle" x="678.5" y="-119.5" font-family="Ubuntu Mono" font-size="10.00">Statistics.h</text>
</a>
</g>
</g>
<!-- Node1&#45;&gt;Node18 -->
<g id="edge24" class="edge"><title>Node1&#45;&gt;Node18</title>
<path fill="none" stroke="midnightblue" d="M600.442,-168.324C615.085,-159.822 637.634,-146.729 654.738,-136.797"/>
<polygon fill="midnightblue" stroke="midnightblue" points="656.705,-139.703 663.595,-131.655 653.19,-133.649 656.705,-139.703"/>
</g>
<!-- Node21 -->
<g id="node21" class="node"><title>Node21</title>
<g id="a_node21"><a xlink:href="_trip_8h.html" target="_top" xlink:title="Trip.h">
<polygon fill="white" stroke="black" points="255.5,-112.5 255.5,-131.5 303.5,-131.5 303.5,-112.5 255.5,-112.5"/>
<text text-anchor="middle" x="279.5" y="-119.5" font-family="Ubuntu Mono" font-size="10.00">Trip.h</text>
</a>
</g>
</g>
<!-- Node1&#45;&gt;Node21 -->
<g id="edge32" class="edge"><title>Node1&#45;&gt;Node21</title>
<path fill="none" stroke="midnightblue" d="M534.625,-168.532C482.168,-159.722 398.032,-145.371 325.5,-132 321.759,-131.31 317.85,-130.572 313.959,-129.827"/>
<polygon fill="midnightblue" stroke="midnightblue" points="314.315,-126.331 303.832,-127.863 312.983,-133.203 314.315,-126.331"/>
</g>
<!-- Node22 -->
<g id="node22" class="node"><title>Node22</title>
<polygon fill="white" stroke="#bfbfbf" points="829,-112.5 829,-131.5 882,-131.5 882,-112.5 829,-112.5"/>
<text text-anchor="middle" x="855.5" y="-119.5" font-family="Ubuntu Mono" font-size="10.00">iomanip</text>
</g>
<!-- Node1&#45;&gt;Node22 -->
<g id="edge34" class="edge"><title>Node1&#45;&gt;Node22</title>
<path fill="none" stroke="midnightblue" d="M634.061,-168.466C679.368,-160.323 749.066,-147.336 818.944,-132.024"/>
<polygon fill="midnightblue" stroke="midnightblue" points="819.792,-135.421 828.802,-129.848 818.283,-128.585 819.792,-135.421"/>
</g>
<!-- Node23 -->
<g id="node23" class="node"><title>Node23</title>
<polygon fill="white" stroke="#bfbfbf" points="900,-112.5 900,-131.5 953,-131.5 953,-112.5 900,-112.5"/>
<text text-anchor="middle" x="926.5" y="-119.5" font-family="Ubuntu Mono" font-size="10.00">sstream</text>
</g>
<!-- Node1&#45;&gt;Node23 -->
<g id="edge35" class="edge"><title>Node1&#45;&gt;Node23</title>
<path fill="none" stroke="midnightblue" d="M636.14,-171.217C694.976,-164.129 795.137,-150.922 889.788,-132.182"/>
<polygon fill="midnightblue" stroke="midnightblue" points="890.697,-135.57 899.814,-130.172 889.321,-128.706 890.697,-135.57"/>
</g>
<!-- Node24 -->
<g id="node24" class="node"><title>Node24</title>
<polygon fill="white" stroke="#bfbfbf" points="971,-112.5 971,-131.5 1030,-131.5 1030,-112.5 971,-112.5"/>
<text text-anchor="middle" x="1000.5" y="-119.5" font-family="Ubuntu Mono" font-size="10.00">iostream</text>
</g>
<!-- Node1&#45;&gt;Node24 -->
<g id="edge36" class="edge"><title>Node1&#45;&gt;Node24</title>
<path fill="none" stroke="midnightblue" d="M636.077,-172.806C706.768,-166.537 839.267,-153.314 960.844,-132.135"/>
<polygon fill="midnightblue" stroke="midnightblue" points="961.456,-135.582 970.696,-130.397 960.24,-128.688 961.456,-135.582"/>
</g>
<!-- Node3 -->
<g id="node3" class="node"><title>Node3</title>
<polygon fill="white" stroke="#bfbfbf" points="397.5,-56.5 397.5,-75.5 429.5,-75.5 429.5,-56.5 397.5,-56.5"/>
<text text-anchor="middle" x="413.5" y="-63.5" font-family="Ubuntu Mono" font-size="10.00">map</text>
</g>
<!-- Node2&#45;&gt;Node3 -->
<g id="edge2" class="edge"><title>Node2&#45;&gt;Node3</title>
<path fill="none" stroke="midnightblue" d="M484.843,-112.324C471.584,-103.9 451.232,-90.9709 435.654,-81.0741"/>
<polygon fill="midnightblue" stroke="midnightblue" points="437.44,-78.0626 427.123,-75.6545 433.687,-83.9711 437.44,-78.0626"/>
</g>
<!-- Node4 -->
<g id="node4" class="node"><title>Node4</title>
<polygon fill="white" stroke="#bfbfbf" points="641.5,-0.5 641.5,-19.5 689.5,-19.5 689.5,-0.5 641.5,-0.5"/>
<text text-anchor="middle" x="665.5" y="-7.5" font-family="Ubuntu Mono" font-size="10.00">memory</text>
</g>
<!-- Node2&#45;&gt;Node4 -->
<g id="edge3" class="edge"><title>Node2&#45;&gt;Node4</title>
<path fill="none" stroke="midnightblue" d="M490.679,-112.112C479.85,-98.69 463.06,-73.0152 476.5,-56 495.393,-32.0803 581.816,-19.5054 630.998,-14.1791"/>
<polygon fill="midnightblue" stroke="midnightblue" points="631.596,-17.6359 641.181,-13.122 630.873,-10.6733 631.596,-17.6359"/>
</g>
<!-- Node5 -->
<g id="node5" class="node"><title>Node5</title>
<polygon fill="white" stroke="#bfbfbf" points="485.5,-56.5 485.5,-75.5 533.5,-75.5 533.5,-56.5 485.5,-56.5"/>
<text text-anchor="middle" x="509.5" y="-63.5" font-family="Ubuntu Mono" font-size="10.00">string</text>
</g>
<!-- Node2&#45;&gt;Node5 -->
<g id="edge4" class="edge"><title>Node2&#45;&gt;Node5</title>
<path fill="none" stroke="midnightblue" d="M500.316,-112.083C501.774,-104.927 503.871,-94.6353 505.693,-85.6911"/>
<polygon fill="midnightblue" stroke="midnightblue" points="509.151,-86.2485 507.717,-75.7511 502.292,-84.8512 509.151,-86.2485"/>
</g>
<!-- Node6 -->
<g id="node6" class="node"><title>Node6</title>
<polygon fill="white" stroke="#bfbfbf" points="551.5,-56.5 551.5,-75.5 599.5,-75.5 599.5,-56.5 551.5,-56.5"/>
<text text-anchor="middle" x="575.5" y="-63.5" font-family="Ubuntu Mono" font-size="10.00">vector</text>
</g>
<!-- Node2&#45;&gt;Node6 -->
<g id="edge5" class="edge"><title>Node2&#45;&gt;Node6</title>
<path fill="none" stroke="midnightblue" d="M510.871,-112.324C522.658,-104.058 540.632,-91.4527 554.636,-81.6322"/>
<polygon fill="midnightblue" stroke="midnightblue" points="556.982,-84.2619 563.159,-75.6545 552.962,-78.5307 556.982,-84.2619"/>
</g>
<!-- Node8 -->
<g id="node8" class="node"><title>Node8</title>
<polygon fill="white" stroke="#bfbfbf" points="155,-56.5 155,-75.5 208,-75.5 208,-56.5 155,-56.5"/>
<text text-anchor="middle" x="181.5" y="-63.5" font-family="Ubuntu Mono" font-size="10.00">fstream</text>
</g>
<!-- Node7&#45;&gt;Node8 -->
<g id="edge7" class="edge"><title>Node7&#45;&gt;Node8</title>
<path fill="none" stroke="midnightblue" d="M191.518,-112.083C189.928,-104.927 187.641,-94.6353 185.654,-85.6911"/>
<polygon fill="midnightblue" stroke="midnightblue" points="189.031,-84.7537 183.445,-75.7511 182.197,-86.2722 189.031,-84.7537"/>
</g>
<!-- Node9&#45;&gt;Node5 -->
<g id="edge11" class="edge"><title>Node9&#45;&gt;Node5</title>
<path fill="none" stroke="midnightblue" d="M409.356,-112.444C428.766,-103.636 459.23,-89.8116 481.465,-79.722"/>
<polygon fill="midnightblue" stroke="midnightblue" points="483.072,-82.836 490.732,-75.5164 480.18,-76.4615 483.072,-82.836"/>
</g>
<!-- Node10 -->
<g id="node10" class="node"><title>Node10</title>
<g id="a_node10"><a xlink:href="_missing_cost_function_error_8h.html" target="_top" xlink:title="MissingCostFunctionError.h">
<polygon fill="white" stroke="black" points="226,-56.5 226,-75.5 379,-75.5 379,-56.5 226,-56.5"/>
<text text-anchor="middle" x="302.5" y="-63.5" font-family="Ubuntu Mono" font-size="10.00">MissingCostFunctionError.h</text>
</a>
</g>
</g>
<!-- Node9&#45;&gt;Node10 -->
<g id="edge9" class="edge"><title>Node9&#45;&gt;Node10</title>
<path fill="none" stroke="midnightblue" d="M376.361,-112.324C362.634,-103.9 341.564,-90.9709 325.436,-81.0741"/>
<polygon fill="midnightblue" stroke="midnightblue" points="326.957,-77.9016 316.604,-75.6545 323.296,-83.8678 326.957,-77.9016"/>
</g>
<!-- Node11 -->
<g id="node11" class="node"><title>Node11</title>
<polygon fill="white" stroke="#bfbfbf" points="153.5,-0.5 153.5,-19.5 217.5,-19.5 217.5,-0.5 153.5,-0.5"/>
<text text-anchor="middle" x="185.5" y="-7.5" font-family="Ubuntu Mono" font-size="10.00">stdexcept</text>
</g>
<!-- Node10&#45;&gt;Node11 -->
<g id="edge10" class="edge"><title>Node10&#45;&gt;Node11</title>
<path fill="none" stroke="midnightblue" d="M283.961,-56.4435C264.877,-47.6356 234.925,-33.8116 213.064,-23.722"/>
<polygon fill="midnightblue" stroke="midnightblue" points="214.499,-20.5292 203.952,-19.5164 211.565,-26.8849 214.499,-20.5292"/>
</g>
<!-- Node13 -->
<g id="node13" class="node"><title>Node13</title>
<g id="a_node13"><a xlink:href="_missing_scheduler_error_8h.html" target="_top" xlink:title="MissingSchedulerError.h">
<polygon fill="white" stroke="black" points="0,-56.5 0,-75.5 137,-75.5 137,-56.5 0,-56.5"/>
<text text-anchor="middle" x="68.5" y="-63.5" font-family="Ubuntu Mono" font-size="10.00">MissingSchedulerError.h</text>
</a>
</g>
</g>
<!-- Node12&#45;&gt;Node13 -->
<g id="edge13" class="edge"><title>Node12&#45;&gt;Node13</title>
<path fill="none" stroke="midnightblue" d="M85.1974,-112.083C82.518,-104.849 78.6514,-94.4087 75.3136,-85.3968"/>
<polygon fill="midnightblue" stroke="midnightblue" points="78.4965,-83.9129 71.7411,-75.7511 71.9322,-86.3442 78.4965,-83.9129"/>
</g>
<!-- Node13&#45;&gt;Node11 -->
<g id="edge14" class="edge"><title>Node13&#45;&gt;Node11</title>
<path fill="none" stroke="midnightblue" d="M87.039,-56.4435C106.123,-47.6356 136.075,-33.8116 157.936,-23.722"/>
<polygon fill="midnightblue" stroke="midnightblue" points="159.435,-26.8849 167.048,-19.5164 156.501,-20.5292 159.435,-26.8849"/>
</g>
<!-- Node14&#45;&gt;Node4 -->
<g id="edge17" class="edge"><title>Node14&#45;&gt;Node4</title>
<path fill="none" stroke="midnightblue" d="M591.777,-112.368C604.98,-94.2153 635.826,-51.8015 653.144,-27.9902"/>
<polygon fill="midnightblue" stroke="midnightblue" points="656.201,-29.7374 659.252,-19.5914 650.539,-25.6202 656.201,-29.7374"/>
</g>
<!-- Node14&#45;&gt;Node5 -->
<g id="edge18" class="edge"><title>Node14&#45;&gt;Node5</title>
<path fill="none" stroke="midnightblue" d="M573.289,-112.324C561.724,-104.107 544.125,-91.6017 530.339,-81.8069"/>
<polygon fill="midnightblue" stroke="midnightblue" points="532.112,-78.7729 521.933,-75.8339 528.057,-84.4791 532.112,-78.7729"/>
</g>
<!-- Node14&#45;&gt;Node6 -->
<g id="edge19" class="edge"><title>Node14&#45;&gt;Node6</title>
<path fill="none" stroke="midnightblue" d="M583.849,-112.083C582.524,-104.927 580.618,-94.6353 578.961,-85.6911"/>
<polygon fill="midnightblue" stroke="midnightblue" points="582.383,-84.9466 577.121,-75.7511 575.5,-86.2212 582.383,-84.9466"/>
</g>
<!-- Node15 -->
<g id="node15" class="node"><title>Node15</title>
<polygon fill="white" stroke="#bfbfbf" points="864,-56.5 864,-75.5 907,-75.5 907,-56.5 864,-56.5"/>
<text text-anchor="middle" x="885.5" y="-63.5" font-family="Ubuntu Mono" font-size="10.00">ctime</text>
</g>
<!-- Node14&#45;&gt;Node15 -->
<g id="edge16" class="edge"><title>Node14&#45;&gt;Node15</title>
<path fill="none" stroke="midnightblue" d="M620.06,-113.784C623.248,-113.163 626.432,-112.559 629.5,-112 726.018,-94.4158 753.952,-97.9128 853.997,-75.855"/>
<polygon fill="midnightblue" stroke="midnightblue" points="854.913,-79.2366 863.908,-73.639 853.386,-72.4052 854.913,-79.2366"/>
</g>
<!-- Node16&#45;&gt;Node4 -->
<g id="edge22" class="edge"><title>Node16&#45;&gt;Node4</title>
<path fill="none" stroke="midnightblue" d="M810.747,-113.595C870.1,-101.711 979.782,-79.3658 982.5,-76 988.085,-69.0847 988.327,-62.7126 982.5,-56 946.206,-14.1903 774.453,-10.2006 700.028,-10.4882"/>
<polygon fill="midnightblue" stroke="midnightblue" points="699.757,-6.9899 689.781,-10.5577 699.805,-13.9897 699.757,-6.9899"/>
</g>
<!-- Node16&#45;&gt;Node15 -->
<g id="edge21" class="edge"><title>Node16&#45;&gt;Node15</title>
<path fill="none" stroke="midnightblue" d="M791.495,-112.324C809.538,-103.625 837.547,-90.1202 858.303,-80.113"/>
<polygon fill="midnightblue" stroke="midnightblue" points="860.062,-83.1502 867.55,-75.6545 857.022,-76.8449 860.062,-83.1502"/>
</g>
<!-- Node17 -->
<g id="node17" class="node"><title>Node17</title>
<polygon fill="white" stroke="#bfbfbf" points="925.5,-56.5 925.5,-75.5 973.5,-75.5 973.5,-56.5 925.5,-56.5"/>
<text text-anchor="middle" x="949.5" y="-63.5" font-family="Ubuntu Mono" font-size="10.00">random</text>
</g>
<!-- Node16&#45;&gt;Node17 -->
<g id="edge23" class="edge"><title>Node16&#45;&gt;Node17</title>
<path fill="none" stroke="midnightblue" d="M801.388,-112.444C832.396,-102.93 882.477,-87.5637 915.692,-77.3728"/>
<polygon fill="midnightblue" stroke="midnightblue" points="916.886,-80.6678 925.419,-74.3884 914.832,-73.9757 916.886,-80.6678"/>
</g>
<!-- Node18&#45;&gt;Node4 -->
<g id="edge29" class="edge"><title>Node18&#45;&gt;Node4</title>
<path fill="none" stroke="midnightblue" d="M677.48,-112.368C675.382,-94.617 670.542,-53.6664 667.698,-29.5974"/>
<polygon fill="midnightblue" stroke="midnightblue" points="671.165,-29.1115 666.515,-19.5914 664.213,-29.9331 671.165,-29.1115"/>
</g>
<!-- Node18&#45;&gt;Node5 -->
<g id="edge30" class="edge"><title>Node18&#45;&gt;Node5</title>
<path fill="none" stroke="midnightblue" d="M651.721,-112.444C622.411,-103.078 575.352,-88.0415 543.467,-77.8532"/>
<polygon fill="midnightblue" stroke="midnightblue" points="544.28,-74.4388 533.689,-74.729 542.149,-81.1067 544.28,-74.4388"/>
</g>
<!-- Node18&#45;&gt;Node6 -->
<g id="edge31" class="edge"><title>Node18&#45;&gt;Node6</title>
<path fill="none" stroke="midnightblue" d="M661.951,-112.324C645.508,-103.703 620.065,-90.3643 601.032,-80.3855"/>
<polygon fill="midnightblue" stroke="midnightblue" points="602.489,-77.198 592.008,-75.6545 599.239,-83.3977 602.489,-77.198"/>
</g>
<!-- Node18&#45;&gt;Node15 -->
<g id="edge27" class="edge"><title>Node18&#45;&gt;Node15</title>
<path fill="none" stroke="midnightblue" d="M713.317,-112.449C746.871,-104.131 799.303,-90.9306 853.976,-76.0762"/>
<polygon fill="midnightblue" stroke="midnightblue" points="855.119,-79.3924 863.845,-73.3834 853.276,-72.6393 855.119,-79.3924"/>
</g>
<!-- Node19 -->
<g id="node19" class="node"><title>Node19</title>
<g id="a_node19"><a xlink:href="_event_observer_8h.html" target="_top" xlink:title="EventObserver.h">
<polygon fill="white" stroke="black" points="694,-56.5 694,-75.5 789,-75.5 789,-56.5 694,-56.5"/>
<text text-anchor="middle" x="741.5" y="-63.5" font-family="Ubuntu Mono" font-size="10.00">EventObserver.h</text>
</a>
</g>
</g>
<!-- Node18&#45;&gt;Node19 -->
<g id="edge25" class="edge"><title>Node18&#45;&gt;Node19</title>
<path fill="none" stroke="midnightblue" d="M688.622,-112.324C698.026,-104.263 712.244,-92.0765 723.569,-82.3695"/>
<polygon fill="midnightblue" stroke="midnightblue" points="725.879,-84.9993 731.194,-75.8339 721.323,-79.6844 725.879,-84.9993"/>
</g>
<!-- Node20 -->
<g id="node20" class="node"><title>Node20</title>
<polygon fill="white" stroke="#bfbfbf" points="807.5,-56.5 807.5,-75.5 845.5,-75.5 845.5,-56.5 807.5,-56.5"/>
<text text-anchor="middle" x="826.5" y="-63.5" font-family="Ubuntu Mono" font-size="10.00">list</text>
</g>
<!-- Node18&#45;&gt;Node20 -->
<g id="edge28" class="edge"><title>Node18&#45;&gt;Node20</title>
<path fill="none" stroke="midnightblue" d="M701.951,-112.444C727.939,-102.961 769.861,-87.6657 797.792,-77.4745"/>
<polygon fill="midnightblue" stroke="midnightblue" points="799.2,-80.6866 807.394,-73.971 796.8,-74.1107 799.2,-80.6866"/>
</g>
<!-- Node19&#45;&gt;Node4 -->
<g id="edge26" class="edge"><title>Node19&#45;&gt;Node4</title>
<path fill="none" stroke="midnightblue" d="M729.289,-56.324C717.724,-48.1066 700.125,-35.6017 686.339,-25.8069"/>
<polygon fill="midnightblue" stroke="midnightblue" points="688.112,-22.7729 677.933,-19.8339 684.057,-28.4791 688.112,-22.7729"/>
</g>
<!-- Node21&#45;&gt;Node8 -->
<g id="edge33" class="edge"><title>Node21&#45;&gt;Node8</title>
<path fill="none" stroke="midnightblue" d="M263.755,-112.324C248.181,-103.743 224.123,-90.486 206.041,-80.5224"/>
<polygon fill="midnightblue" stroke="midnightblue" points="207.654,-77.4152 197.206,-75.6545 204.276,-83.546 207.654,-77.4152"/>
</g>
</g>
</svg>
