<?xml version="1.0" encoding="UTF-8" standalone="no"?>
<!DOCTYPE svg PUBLIC "-//W3C//DTD SVG 1.1//EN"
 "http://www.w3.org/Graphics/SVG/1.1/DTD/svg11.dtd">
<!-- Generated by graphviz version 2.38.0 (20140413.2041)
 -->
<!-- Title: src/Reporter.cpp Pages: 1 -->
<!--zoomable 196 -->
<svg id="main" version="1.1" xmlns="http://www.w3.org/2000/svg" xmlns:xlink="http://www.w3.org/1999/xlink" xml:space="preserve" onload="init(evt)">
<style type="text/css"><![CDATA[
.edge:hover path { stroke: red; }
.edge:hover polygon { stroke: red; fill: red; }
]]></style>
<script type="text/javascript"><![CDATA[
var edges = document.getElementsByTagName('g');
if (edges && edges.length) {
  for (var i=0;i<edges.length;i++) {
    if (edges[i].id.substr(0,4)=='edge') {
      edges[i].setAttribute('class','edge');
    }
  }
}
]]></script>
        <defs>
                <circle id="rim" cx="0" cy="0" r="7"/>
                <circle id="rim2" cx="0" cy="0" r="3.5"/>
                <g id="zoomPlus">
                        <use xlink:href="#rim" fill="#404040">
                                <set attributeName="fill" to="#808080" begin="zoomplus.mouseover" end="zoomplus.mouseout"/>
                        </use>
                        <path d="M-4,0h8M0,-4v8" fill="none" stroke="white" stroke-width="1.5" pointer-events="none"/>
                </g>
                <g id="zoomMin">
                        <use xlink:href="#rim" fill="#404040">
                                <set attributeName="fill" to="#808080" begin="zoomminus.mouseover" end="zoomminus.mouseout"/>
                        </use>
                        <path d="M-4,0h8" fill="none" stroke="white" stroke-width="1.5" pointer-events="none"/>
                </g>
                <g id="dirArrow">
                        <path fill="none" stroke="white" stroke-width="1.5" d="M0,-3.0v7 M-2.5,-0.5L0,-3.0L2.5,-0.5"/>
                </g>
               <g id="resetDef">
                       <use xlink:href="#rim2" fill="#404040">
                               <set attributeName="fill" to="#808080" begin="reset.mouseover" end="reset.mouseout"/>
                       </use>
               </g>
        </defs>

<script type="text/javascript">
var viewWidth = 970;
var viewHeight = 196;
var sectionId = 'dynsection-0';
</script>
<script xlink:href="svgpan.js"/>
<svg id="graph" class="graph">
<g id="viewport">
<title>src/Reporter.cpp</title>
<polygon fill="white" stroke="none" points="-4,4 -4,-192 965.5,-192 965.5,4 -4,4"/>
<!-- Node1 -->
<g id="node1" class="node"><title>Node1</title>
<polygon fill="#bfbfbf" stroke="black" points="507,-168.5 507,-187.5 596,-187.5 596,-168.5 507,-168.5"/>
<text text-anchor="middle" x="551.5" y="-175.5" font-family="Helvetica,sans-Serif" font-size="10.00">src/Reporter.cpp</text>
</g>
<!-- Node2 -->
<g id="node2" class="node"><title>Node2</title>
<g id="a_node2"><a xlink:href="_reporter_8h.html" target="_top" xlink:title="Reporter.h">
<polygon fill="white" stroke="black" points="439.5,-112.5 439.5,-131.5 501.5,-131.5 501.5,-112.5 439.5,-112.5"/>
<text text-anchor="middle" x="470.5" y="-119.5" font-family="Helvetica,sans-Serif" font-size="10.00">Reporter.h</text>
</a>
</g>
</g>
<!-- Node1&#45;&gt;Node2 -->
<g id="edge1" class="edge"><title>Node1&#45;&gt;Node2</title>
<path fill="none" stroke="midnightblue" d="M538.486,-168.324C525.968,-159.979 506.818,-147.212 492.029,-137.352"/>
<polygon fill="midnightblue" stroke="midnightblue" points="493.744,-134.289 483.482,-131.655 489.861,-140.114 493.744,-134.289"/>
</g>
<!-- Node7 -->
<g id="node7" class="node"><title>Node7</title>
<g id="a_node7"><a xlink:href="_arrival_8h.html" target="_top" xlink:title="Arrival.h">
<polygon fill="white" stroke="black" points="153,-112.5 153,-131.5 206,-131.5 206,-112.5 153,-112.5"/>
<text text-anchor="middle" x="179.5" y="-119.5" font-family="Helvetica,sans-Serif" font-size="10.00">Arrival.h</text>
</a>
</g>
</g>
<!-- Node1&#45;&gt;Node7 -->
<g id="edge6" class="edge"><title>Node1&#45;&gt;Node7</title>
<path fill="none" stroke="midnightblue" d="M506.999,-171.419C444.627,-163.455 327.713,-148.015 228.5,-132 224.531,-131.359 220.388,-130.655 216.264,-129.93"/>
<polygon fill="midnightblue" stroke="midnightblue" points="216.628,-126.439 206.166,-128.114 215.389,-133.329 216.628,-126.439"/>
</g>
<!-- Node9 -->
<g id="node9" class="node"><title>Node9</title>
<g id="a_node9"><a xlink:href="_cost_function_type_8h.html" target="_top" xlink:title="CostFunctionType.h">
<polygon fill="white" stroke="black" points="316,-112.5 316,-131.5 421,-131.5 421,-112.5 316,-112.5"/>
<text text-anchor="middle" x="368.5" y="-119.5" font-family="Helvetica,sans-Serif" font-size="10.00">CostFunctionType.h</text>
</a>
</g>
</g>
<!-- Node1&#45;&gt;Node9 -->
<g id="edge8" class="edge"><title>Node1&#45;&gt;Node9</title>
<path fill="none" stroke="midnightblue" d="M522.503,-168.444C491.315,-159.241 441.57,-144.562 407.092,-134.388"/>
<polygon fill="midnightblue" stroke="midnightblue" points="407.943,-130.99 397.361,-131.516 405.962,-137.704 407.943,-130.99"/>
</g>
<!-- Node12 -->
<g id="node12" class="node"><title>Node12</title>
<g id="a_node12"><a xlink:href="_scheduler_type_8h.html" target="_top" xlink:title="SchedulerType.h">
<polygon fill="white" stroke="black" points="37.5,-112.5 37.5,-131.5 127.5,-131.5 127.5,-112.5 37.5,-112.5"/>
<text text-anchor="middle" x="82.5" y="-119.5" font-family="Helvetica,sans-Serif" font-size="10.00">SchedulerType.h</text>
</a>
</g>
</g>
<!-- Node1&#45;&gt;Node12 -->
<g id="edge12" class="edge"><title>Node1&#45;&gt;Node12</title>
<path fill="none" stroke="midnightblue" d="M506.76,-172.607C431.611,-165.107 275.315,-148.987 143.5,-132 141.748,-131.774 139.969,-131.54 138.173,-131.3"/>
<polygon fill="midnightblue" stroke="midnightblue" points="138.162,-127.765 127.778,-129.869 137.207,-134.7 138.162,-127.765"/>
</g>
<!-- Node14 -->
<g id="node14" class="node"><title>Node14</title>
<g id="a_node14"><a xlink:href="_scenario_8h.html" target="_top" xlink:title="Scenario.h">
<polygon fill="white" stroke="black" points="520,-112.5 520,-131.5 583,-131.5 583,-112.5 520,-112.5"/>
<text text-anchor="middle" x="551.5" y="-119.5" font-family="Helvetica,sans-Serif" font-size="10.00">Scenario.h</text>
</a>
</g>
</g>
<!-- Node1&#45;&gt;Node14 -->
<g id="edge15" class="edge"><title>Node1&#45;&gt;Node14</title>
<path fill="none" stroke="midnightblue" d="M551.5,-168.083C551.5,-161.006 551.5,-150.861 551.5,-141.986"/>
<polygon fill="midnightblue" stroke="midnightblue" points="555,-141.751 551.5,-131.751 548,-141.751 555,-141.751"/>
</g>
<!-- Node16 -->
<g id="node16" class="node"><title>Node16</title>
<g id="a_node16"><a xlink:href="_simulator_8h.html" target="_top" xlink:title="Simulator.h">
<polygon fill="white" stroke="black" points="685.5,-112.5 685.5,-131.5 751.5,-131.5 751.5,-112.5 685.5,-112.5"/>
<text text-anchor="middle" x="718.5" y="-119.5" font-family="Helvetica,sans-Serif" font-size="10.00">Simulator.h</text>
</a>
</g>
</g>
<!-- Node1&#45;&gt;Node16 -->
<g id="edge20" class="edge"><title>Node1&#45;&gt;Node16</title>
<path fill="none" stroke="midnightblue" d="M577.962,-168.444C606.178,-159.32 651.04,-144.813 682.468,-134.651"/>
<polygon fill="midnightblue" stroke="midnightblue" points="683.724,-137.923 692.162,-131.516 681.57,-131.263 683.724,-137.923"/>
</g>
<!-- Node18 -->
<g id="node18" class="node"><title>Node18</title>
<g id="a_node18"><a xlink:href="_statistics_8h.html" target="_top" xlink:title="Statistics.h">
<polygon fill="white" stroke="black" points="601.5,-112.5 601.5,-131.5 667.5,-131.5 667.5,-112.5 601.5,-112.5"/>
<text text-anchor="middle" x="634.5" y="-119.5" font-family="Helvetica,sans-Serif" font-size="10.00">Statistics.h</text>
</a>
</g>
</g>
<!-- Node1&#45;&gt;Node18 -->
<g id="edge24" class="edge"><title>Node1&#45;&gt;Node18</title>
<path fill="none" stroke="midnightblue" d="M564.835,-168.324C577.662,-159.979 597.285,-147.212 612.44,-137.352"/>
<polygon fill="midnightblue" stroke="midnightblue" points="614.724,-140.042 621.198,-131.655 610.907,-134.174 614.724,-140.042"/>
</g>
<!-- Node21 -->
<g id="node21" class="node"><title>Node21</title>
<g id="a_node21"><a xlink:href="_trip_8h.html" target="_top" xlink:title="Trip.h">
<polygon fill="white" stroke="black" points="238,-112.5 238,-131.5 279,-131.5 279,-112.5 238,-112.5"/>
<text text-anchor="middle" x="258.5" y="-119.5" font-family="Helvetica,sans-Serif" font-size="10.00">Trip.h</text>
</a>
</g>
</g>
<!-- Node1&#45;&gt;Node21 -->
<g id="edge32" class="edge"><title>Node1&#45;&gt;Node21</title>
<path fill="none" stroke="midnightblue" d="M506.784,-168.838C457.662,-159.86 376.446,-144.981 306.5,-132 300.873,-130.956 294.876,-129.836 289.096,-128.754"/>
<polygon fill="midnightblue" stroke="midnightblue" points="289.526,-125.274 279.052,-126.871 288.236,-132.154 289.526,-125.274"/>
</g>
<!-- Node22 -->
<g id="node22" class="node"><title>Node22</title>
<polygon fill="white" stroke="#bfbfbf" points="769.5,-112.5 769.5,-131.5 819.5,-131.5 819.5,-112.5 769.5,-112.5"/>
<text text-anchor="middle" x="794.5" y="-119.5" font-family="Helvetica,sans-Serif" font-size="10.00">iomanip</text>
</g>
<!-- Node1&#45;&gt;Node22 -->
<g id="edge34" class="edge"><title>Node1&#45;&gt;Node22</title>
<path fill="none" stroke="midnightblue" d="M594.062,-168.443C634.239,-160.23 696.399,-147.176 759.201,-132.23"/>
<polygon fill="midnightblue" stroke="midnightblue" points="760.372,-135.548 769.282,-129.815 758.742,-128.741 760.372,-135.548"/>
</g>
<!-- Node23 -->
<g id="node23" class="node"><title>Node23</title>
<polygon fill="white" stroke="#bfbfbf" points="837.5,-112.5 837.5,-131.5 889.5,-131.5 889.5,-112.5 837.5,-112.5"/>
<text text-anchor="middle" x="863.5" y="-119.5" font-family="Helvetica,sans-Serif" font-size="10.00">sstream</text>
</g>
<!-- Node1&#45;&gt;Node23 -->
<g id="edge35" class="edge"><title>Node1&#45;&gt;Node23</title>
<path fill="none" stroke="midnightblue" d="M596.347,-170.99C649.279,-163.615 740.134,-150.074 827.146,-132.133"/>
<polygon fill="midnightblue" stroke="midnightblue" points="828.112,-135.507 837.187,-130.039 826.683,-128.654 828.112,-135.507"/>
</g>
<!-- Node24 -->
<g id="node24" class="node"><title>Node24</title>
<polygon fill="white" stroke="#bfbfbf" points="907.5,-112.5 907.5,-131.5 961.5,-131.5 961.5,-112.5 907.5,-112.5"/>
<text text-anchor="middle" x="934.5" y="-119.5" font-family="Helvetica,sans-Serif" font-size="10.00">iostream</text>
</g>
<!-- Node1&#45;&gt;Node24 -->
<g id="edge36" class="edge"><title>Node1&#45;&gt;Node24</title>
<path fill="none" stroke="midnightblue" d="M596.13,-172.885C660.567,-166.577 783.544,-153.17 897.508,-131.992"/>
<polygon fill="midnightblue" stroke="midnightblue" points="898.268,-135.411 907.448,-130.121 896.973,-128.531 898.268,-135.411"/>
</g>
<!-- Node3 -->
<g id="node3" class="node"><title>Node3</title>
<polygon fill="white" stroke="#bfbfbf" points="366,-56.5 366,-75.5 401,-75.5 401,-56.5 366,-56.5"/>
<text text-anchor="middle" x="383.5" y="-63.5" font-family="Helvetica,sans-Serif" font-size="10.00">map</text>
</g>
<!-- Node2&#45;&gt;Node3 -->
<g id="edge2" class="edge"><title>Node2&#45;&gt;Node3</title>
<path fill="none" stroke="midnightblue" d="M456.522,-112.324C442.95,-103.9 422.12,-90.9709 406.175,-81.0741"/>
<polygon fill="midnightblue" stroke="midnightblue" points="407.786,-77.9544 397.443,-75.6545 404.094,-83.9019 407.786,-77.9544"/>
</g>
<!-- Node4 -->
<g id="node4" class="node"><title>Node4</title>
<polygon fill="white" stroke="#bfbfbf" points="601.5,-0.5 601.5,-19.5 653.5,-19.5 653.5,-0.5 601.5,-0.5"/>
<text text-anchor="middle" x="627.5" y="-7.5" font-family="Helvetica,sans-Serif" font-size="10.00">memory</text>
</g>
<!-- Node2&#45;&gt;Node4 -->
<g id="edge3" class="edge"><title>Node2&#45;&gt;Node4</title>
<path fill="none" stroke="midnightblue" d="M462.706,-112.133C451.912,-98.7386 435.167,-73.0992 448.5,-56 465.856,-33.7405 544.098,-20.8063 591.205,-14.9045"/>
<polygon fill="midnightblue" stroke="midnightblue" points="591.81,-18.357 601.319,-13.6851 590.972,-11.4073 591.81,-18.357"/>
</g>
<!-- Node5 -->
<g id="node5" class="node"><title>Node5</title>
<polygon fill="white" stroke="#bfbfbf" points="458,-56.5 458,-75.5 499,-75.5 499,-56.5 458,-56.5"/>
<text text-anchor="middle" x="478.5" y="-63.5" font-family="Helvetica,sans-Serif" font-size="10.00">string</text>
</g>
<!-- Node2&#45;&gt;Node5 -->
<g id="edge4" class="edge"><title>Node2&#45;&gt;Node5</title>
<path fill="none" stroke="midnightblue" d="M471.821,-112.083C472.881,-104.927 474.406,-94.6353 475.731,-85.6911"/>
<polygon fill="midnightblue" stroke="midnightblue" points="479.2,-86.1561 477.204,-75.7511 472.276,-85.1302 479.2,-86.1561"/>
</g>
<!-- Node6 -->
<g id="node6" class="node"><title>Node6</title>
<polygon fill="white" stroke="#bfbfbf" points="517.5,-56.5 517.5,-75.5 561.5,-75.5 561.5,-56.5 517.5,-56.5"/>
<text text-anchor="middle" x="539.5" y="-63.5" font-family="Helvetica,sans-Serif" font-size="10.00">vector</text>
</g>
<!-- Node2&#45;&gt;Node6 -->
<g id="edge5" class="edge"><title>Node2&#45;&gt;Node6</title>
<path fill="none" stroke="midnightblue" d="M481.586,-112.324C491.986,-104.185 507.761,-91.8395 520.222,-82.0874"/>
<polygon fill="midnightblue" stroke="midnightblue" points="522.494,-84.7533 528.212,-75.8339 518.18,-79.2407 522.494,-84.7533"/>
</g>
<!-- Node8 -->
<g id="node8" class="node"><title>Node8</title>
<polygon fill="white" stroke="#bfbfbf" points="141.5,-56.5 141.5,-75.5 191.5,-75.5 191.5,-56.5 141.5,-56.5"/>
<text text-anchor="middle" x="166.5" y="-63.5" font-family="Helvetica,sans-Serif" font-size="10.00">fstream</text>
</g>
<!-- Node7&#45;&gt;Node8 -->
<g id="edge7" class="edge"><title>Node7&#45;&gt;Node8</title>
<path fill="none" stroke="midnightblue" d="M177.353,-112.083C175.631,-104.927 173.153,-94.6353 171,-85.6911"/>
<polygon fill="midnightblue" stroke="midnightblue" points="174.35,-84.6541 168.607,-75.7511 167.545,-86.2925 174.35,-84.6541"/>
</g>
<!-- Node9&#45;&gt;Node5 -->
<g id="edge11" class="edge"><title>Node9&#45;&gt;Node5</title>
<path fill="none" stroke="midnightblue" d="M386.173,-112.324C403.894,-103.625 431.403,-90.1202 451.788,-80.113"/>
<polygon fill="midnightblue" stroke="midnightblue" points="453.436,-83.2031 460.87,-75.6545 450.351,-76.9195 453.436,-83.2031"/>
</g>
<!-- Node10 -->
<g id="node10" class="node"><title>Node10</title>
<g id="a_node10"><a xlink:href="_missing_cost_function_error_8h.html" target="_top" xlink:title="MissingCostFunctionError.h">
<polygon fill="white" stroke="black" points="209.5,-56.5 209.5,-75.5 347.5,-75.5 347.5,-56.5 209.5,-56.5"/>
<text text-anchor="middle" x="278.5" y="-63.5" font-family="Helvetica,sans-Serif" font-size="10.00">MissingCostFunctionError.h</text>
</a>
</g>
</g>
<!-- Node9&#45;&gt;Node10 -->
<g id="edge9" class="edge"><title>Node9&#45;&gt;Node10</title>
<path fill="none" stroke="midnightblue" d="M354.04,-112.324C340,-103.9 318.452,-90.9709 301.957,-81.0741"/>
<polygon fill="midnightblue" stroke="midnightblue" points="303.3,-77.7983 292.924,-75.6545 299.698,-83.8007 303.3,-77.7983"/>
</g>
<!-- Node11 -->
<g id="node11" class="node"><title>Node11</title>
<polygon fill="white" stroke="#bfbfbf" points="141,-0.5 141,-19.5 200,-19.5 200,-0.5 141,-0.5"/>
<text text-anchor="middle" x="170.5" y="-7.5" font-family="Helvetica,sans-Serif" font-size="10.00">stdexcept</text>
</g>
<!-- Node10&#45;&gt;Node11 -->
<g id="edge10" class="edge"><title>Node10&#45;&gt;Node11</title>
<path fill="none" stroke="midnightblue" d="M261.148,-56.324C243.828,-47.6641 216.985,-34.2424 196.998,-24.249"/>
<polygon fill="midnightblue" stroke="midnightblue" points="198.319,-20.9962 187.809,-19.6545 195.188,-27.2572 198.319,-20.9962"/>
</g>
<!-- Node13 -->
<g id="node13" class="node"><title>Node13</title>
<g id="a_node13"><a xlink:href="_missing_scheduler_error_8h.html" target="_top" xlink:title="MissingSchedulerError.h">
<polygon fill="white" stroke="black" points="0,-56.5 0,-75.5 123,-75.5 123,-56.5 0,-56.5"/>
<text text-anchor="middle" x="61.5" y="-63.5" font-family="Helvetica,sans-Serif" font-size="10.00">MissingSchedulerError.h</text>
</a>
</g>
</g>
<!-- Node12&#45;&gt;Node13 -->
<g id="edge13" class="edge"><title>Node12&#45;&gt;Node13</title>
<path fill="none" stroke="midnightblue" d="M79.0323,-112.083C76.1883,-104.77 72.0705,-94.1814 68.5402,-85.1034"/>
<polygon fill="midnightblue" stroke="midnightblue" points="71.7897,-83.8025 64.9032,-75.7511 65.2657,-86.3397 71.7897,-83.8025"/>
</g>
<!-- Node13&#45;&gt;Node11 -->
<g id="edge14" class="edge"><title>Node13&#45;&gt;Node11</title>
<path fill="none" stroke="midnightblue" d="M79.0127,-56.324C96.5724,-47.6247 123.831,-34.1202 144.031,-24.113"/>
<polygon fill="midnightblue" stroke="midnightblue" points="145.624,-27.23 153.031,-19.6545 142.516,-20.9575 145.624,-27.23"/>
</g>
<!-- Node14&#45;&gt;Node4 -->
<g id="edge17" class="edge"><title>Node14&#45;&gt;Node4</title>
<path fill="none" stroke="midnightblue" d="M557.464,-112.368C570.006,-94.2153 599.31,-51.8015 615.761,-27.9902"/>
<polygon fill="midnightblue" stroke="midnightblue" points="618.759,-29.8083 621.564,-19.5914 613,-25.8292 618.759,-29.8083"/>
</g>
<!-- Node14&#45;&gt;Node5 -->
<g id="edge18" class="edge"><title>Node14&#45;&gt;Node5</title>
<path fill="none" stroke="midnightblue" d="M539.771,-112.324C528.663,-104.107 511.758,-91.6017 498.517,-81.8069"/>
<polygon fill="midnightblue" stroke="midnightblue" points="500.563,-78.9671 490.442,-75.8339 496.4,-84.5948 500.563,-78.9671"/>
</g>
<!-- Node14&#45;&gt;Node6 -->
<g id="edge19" class="edge"><title>Node14&#45;&gt;Node6</title>
<path fill="none" stroke="midnightblue" d="M549.518,-112.083C547.928,-104.927 545.641,-94.6353 543.654,-85.6911"/>
<polygon fill="midnightblue" stroke="midnightblue" points="547.031,-84.7537 541.445,-75.7511 540.197,-86.2722 547.031,-84.7537"/>
</g>
<!-- Node15 -->
<g id="node15" class="node"><title>Node15</title>
<polygon fill="white" stroke="#bfbfbf" points="811,-56.5 811,-75.5 852,-75.5 852,-56.5 811,-56.5"/>
<text text-anchor="middle" x="831.5" y="-63.5" font-family="Helvetica,sans-Serif" font-size="10.00">ctime</text>
</g>
<!-- Node14&#45;&gt;Node15 -->
<g id="edge16" class="edge"><title>Node14&#45;&gt;Node15</title>
<path fill="none" stroke="midnightblue" d="M583.254,-113.878C586.374,-113.223 589.496,-112.587 592.5,-112 682.352,-94.4464 708.682,-97.8245 801.223,-76.0609"/>
<polygon fill="midnightblue" stroke="midnightblue" points="802.083,-79.454 810.997,-73.7277 800.458,-72.6453 802.083,-79.454"/>
</g>
<!-- Node16&#45;&gt;Node4 -->
<g id="edge22" class="edge"><title>Node16&#45;&gt;Node4</title>
<path fill="none" stroke="midnightblue" d="M751.775,-113.87C810.989,-101.181 928.5,-76 928.5,-76 934.088,-69.0874 934.302,-62.7341 928.5,-56 894.723,-16.7983 736.431,-11.2411 663.93,-10.7933"/>
<polygon fill="midnightblue" stroke="midnightblue" points="663.892,-7.2933 653.881,-10.761 663.87,-14.2933 663.892,-7.2933"/>
</g>
<!-- Node16&#45;&gt;Node15 -->
<g id="edge21" class="edge"><title>Node16&#45;&gt;Node15</title>
<path fill="none" stroke="midnightblue" d="M736.405,-112.444C754.754,-103.675 783.505,-89.9355 804.594,-79.8579"/>
<polygon fill="midnightblue" stroke="midnightblue" points="806.165,-82.9862 813.679,-75.5164 803.147,-76.6703 806.165,-82.9862"/>
</g>
<!-- Node17 -->
<g id="node17" class="node"><title>Node17</title>
<polygon fill="white" stroke="#bfbfbf" points="870,-56.5 870,-75.5 919,-75.5 919,-56.5 870,-56.5"/>
<text text-anchor="middle" x="894.5" y="-63.5" font-family="Helvetica,sans-Serif" font-size="10.00">random</text>
</g>
<!-- Node16&#45;&gt;Node17 -->
<g id="edge23" class="edge"><title>Node16&#45;&gt;Node17</title>
<path fill="none" stroke="midnightblue" d="M746.388,-112.444C777.22,-102.984 826.911,-87.7377 860.126,-77.5465"/>
<polygon fill="midnightblue" stroke="midnightblue" points="861.333,-80.8373 869.867,-74.558 859.28,-74.1452 861.333,-80.8373"/>
</g>
<!-- Node18&#45;&gt;Node4 -->
<g id="edge29" class="edge"><title>Node18&#45;&gt;Node4</title>
<path fill="none" stroke="midnightblue" d="M633.951,-112.368C632.821,-94.617 630.215,-53.6664 628.683,-29.5974"/>
<polygon fill="midnightblue" stroke="midnightblue" points="632.175,-29.3489 628.047,-19.5914 625.189,-29.7935 632.175,-29.3489"/>
</g>
<!-- Node18&#45;&gt;Node5 -->
<g id="edge30" class="edge"><title>Node18&#45;&gt;Node5</title>
<path fill="none" stroke="midnightblue" d="M609.781,-112.444C582.422,-102.973 538.309,-87.7032 508.868,-77.512"/>
<polygon fill="midnightblue" stroke="midnightblue" points="509.712,-74.1005 499.117,-74.1368 507.422,-80.7154 509.712,-74.1005"/>
</g>
<!-- Node18&#45;&gt;Node6 -->
<g id="edge31" class="edge"><title>Node18&#45;&gt;Node6</title>
<path fill="none" stroke="midnightblue" d="M619.237,-112.324C604.279,-103.822 581.245,-90.7288 563.773,-80.7975"/>
<polygon fill="midnightblue" stroke="midnightblue" points="565.149,-77.5534 554.726,-75.6545 561.69,-83.639 565.149,-77.5534"/>
</g>
<!-- Node18&#45;&gt;Node15 -->
<g id="edge27" class="edge"><title>Node18&#45;&gt;Node15</title>
<path fill="none" stroke="midnightblue" d="M667.758,-112.502C699.737,-104.241 749.659,-91.1079 801.28,-76.2792"/>
<polygon fill="midnightblue" stroke="midnightblue" points="802.298,-79.6283 810.935,-73.4914 800.356,-72.903 802.298,-79.6283"/>
</g>
<!-- Node19 -->
<g id="node19" class="node"><title>Node19</title>
<g id="a_node19"><a xlink:href="_event_observer_8h.html" target="_top" xlink:title="EventObserver.h">
<polygon fill="white" stroke="black" points="655.5,-56.5 655.5,-75.5 745.5,-75.5 745.5,-56.5 655.5,-56.5"/>
<text text-anchor="middle" x="700.5" y="-63.5" font-family="Helvetica,sans-Serif" font-size="10.00">EventObserver.h</text>
</a>
</g>
</g>
<!-- Node18&#45;&gt;Node19 -->
<g id="edge25" class="edge"><title>Node18&#45;&gt;Node19</title>
<path fill="none" stroke="midnightblue" d="M645.104,-112.324C654.956,-104.263 669.851,-92.0765 681.715,-82.3695"/>
<polygon fill="midnightblue" stroke="midnightblue" points="684.18,-84.8752 689.703,-75.8339 679.747,-79.4575 684.18,-84.8752"/>
</g>
<!-- Node20 -->
<g id="node20" class="node"><title>Node20</title>
<polygon fill="white" stroke="#bfbfbf" points="764,-56.5 764,-75.5 793,-75.5 793,-56.5 764,-56.5"/>
<text text-anchor="middle" x="778.5" y="-63.5" font-family="Helvetica,sans-Serif" font-size="10.00">list</text>
</g>
<!-- Node18&#45;&gt;Node20 -->
<g id="edge28" class="edge"><title>Node18&#45;&gt;Node20</title>
<path fill="none" stroke="midnightblue" d="M657.317,-112.444C683.758,-102.528 727.15,-86.2564 754.204,-76.1111"/>
<polygon fill="midnightblue" stroke="midnightblue" points="755.569,-79.3372 763.703,-72.5488 753.111,-72.7829 755.569,-79.3372"/>
</g>
<!-- Node19&#45;&gt;Node4 -->
<g id="edge26" class="edge"><title>Node19&#45;&gt;Node4</title>
<path fill="none" stroke="midnightblue" d="M688.771,-56.324C677.663,-48.1066 660.758,-35.6017 647.517,-25.8069"/>
<polygon fill="midnightblue" stroke="midnightblue" points="649.563,-22.9671 639.442,-19.8339 645.4,-28.5948 649.563,-22.9671"/>
</g>
<!-- Node21&#45;&gt;Node8 -->
<g id="edge33" class="edge"><title>Node21&#45;&gt;Node8</title>
<path fill="none" stroke="midnightblue" d="M243.719,-112.324C229.233,-103.822 206.927,-90.7288 190.007,-80.7975"/>
<polygon fill="midnightblue" stroke="midnightblue" points="191.641,-77.6981 181.245,-75.6545 188.097,-83.735 191.641,-77.6981"/>
</g>
</g>
</svg>
        <g id="navigator" transform="translate(0 0)" fill="#404254">
                <rect fill="#f2f5e9" fill-opacity="0.5" stroke="#606060" stroke-width=".5" x="0" y="0" width="60" height="60"/>
                <use id="zoomplus" xlink:href="#zoomPlus" x="17" y="9" onmousedown="handleZoom(evt,'in')"/>
                <use id="zoomminus" xlink:href="#zoomMin" x="42" y="9" onmousedown="handleZoom(evt,'out')"/>
                <use id="reset" xlink:href="#resetDef" x="30" y="36" onmousedown="handleReset()"/>
                <g id="arrowUp" xlink:href="#dirArrow" transform="translate(30 24)" onmousedown="handlePan(0,-1)">
                  <use xlink:href="#rim" fill="#404040">
                        <set attributeName="fill" to="#808080" begin="arrowUp.mouseover" end="arrowUp.mouseout"/>
                  </use>
                  <path fill="none" stroke="white" stroke-width="1.5" d="M0,-3.0v7 M-2.5,-0.5L0,-3.0L2.5,-0.5"/>
                </g>
                <g id="arrowRight" xlink:href="#dirArrow" transform="rotate(90) translate(36 -43)" onmousedown="handlePan(1,0)">
                  <use xlink:href="#rim" fill="#404040">
                        <set attributeName="fill" to="#808080" begin="arrowRight.mouseover" end="arrowRight.mouseout"/>
                  </use>
                  <path fill="none" stroke="white" stroke-width="1.5" d="M0,-3.0v7 M-2.5,-0.5L0,-3.0L2.5,-0.5"/>
                </g>
                <g id="arrowDown" xlink:href="#dirArrow" transform="rotate(180) translate(-30 -48)" onmousedown="handlePan(0,1)">
                  <use xlink:href="#rim" fill="#404040">
                        <set attributeName="fill" to="#808080" begin="arrowDown.mouseover" end="arrowDown.mouseout"/>
                  </use>
                  <path fill="none" stroke="white" stroke-width="1.5" d="M0,-3.0v7 M-2.5,-0.5L0,-3.0L2.5,-0.5"/>
                </g>
                <g id="arrowLeft" xlink:href="#dirArrow" transform="rotate(270) translate(-36 17)" onmousedown="handlePan(-1,0)">
                  <use xlink:href="#rim" fill="#404040">
                        <set attributeName="fill" to="#808080" begin="arrowLeft.mouseover" end="arrowLeft.mouseout"/>
                  </use>
                  <path fill="none" stroke="white" stroke-width="1.5" d="M0,-3.0v7 M-2.5,-0.5L0,-3.0L2.5,-0.5"/>
                </g>
        </g>
        <svg viewBox="0 0 15 15" width="100%" height="30px" preserveAspectRatio="xMaxYMin meet">
         <g id="arrow_out" transform="scale(0.3 0.3)">
          <a xlink:href="_reporter_8cpp__incl_org.svg" target="_base">
           <rect id="button" ry="5" rx="5" y="6" x="6" height="38" width="38"
                fill="#f2f5e9" fill-opacity="0.5" stroke="#606060" stroke-width="1.0"/>
           <path id="arrow"
             d="M 11.500037,31.436501 C 11.940474,20.09759 22.043105,11.32322 32.158766,21.979434 L 37.068811,17.246167 C 37.068811,17.246167 37.088388,32 37.088388,32 L 22.160133,31.978069 C 22.160133,31.978069 26.997745,27.140456 26.997745,27.140456 C 18.528582,18.264221 13.291696,25.230495 11.500037,31.436501 z"
             style="fill:#404040;"/>
          </a>
         </g>
        </svg>
</svg>
