<?xml version="1.0" encoding="UTF-8" standalone="no"?>
<!DOCTYPE svg PUBLIC "-//W3C//DTD SVG 1.1//EN"
 "http://www.w3.org/Graphics/SVG/1.1/DTD/svg11.dtd">
<!-- Generated by graphviz version 2.38.0 (20140413.2041)
 -->
<!-- Title: src/Reporter.cpp Pages: 1 -->
<!--zoomable 196 -->
<svg id="main" version="1.1" xmlns="http://www.w3.org/2000/svg" xmlns:xlink="http://www.w3.org/1999/xlink" xml:space="preserve" onload="init(evt)">
<style type="text/css"><![CDATA[
.edge:hover path { stroke: red; }
.edge:hover polygon { stroke: red; fill: red; }
]]></style>
<script type="text/javascript"><![CDATA[
var edges = document.getElementsByTagName('g');
if (edges && edges.length) {
  for (var i=0;i<edges.length;i++) {
    if (edges[i].id.substr(0,4)=='edge') {
      edges[i].setAttribute('class','edge');
    }
  }
}
]]></script>
        <defs>
                <circle id="rim" cx="0" cy="0" r="7"/>
                <circle id="rim2" cx="0" cy="0" r="3.5"/>
                <g id="zoomPlus">
                        <use xlink:href="#rim" fill="#404040">
                                <set attributeName="fill" to="#808080" begin="zoomplus.mouseover" end="zoomplus.mouseout"/>
                        </use>
                        <path d="M-4,0h8M0,-4v8" fill="none" stroke="white" stroke-width="1.5" pointer-events="none"/>
                </g>
                <g id="zoomMin">
                        <use xlink:href="#rim" fill="#404040">
                                <set attributeName="fill" to="#808080" begin="zoomminus.mouseover" end="zoomminus.mouseout"/>
                        </use>
                        <path d="M-4,0h8" fill="none" stroke="white" stroke-width="1.5" pointer-events="none"/>
                </g>
                <g id="dirArrow">
                        <path fill="none" stroke="white" stroke-width="1.5" d="M0,-3.0v7 M-2.5,-0.5L0,-3.0L2.5,-0.5"/>
                </g>
               <g id="resetDef">
                       <use xlink:href="#rim2" fill="#404040">
                               <set attributeName="fill" to="#808080" begin="reset.mouseover" end="reset.mouseout"/>
                       </use>
               </g>
        </defs>

<script type="text/javascript">
var viewWidth = 1085;
var viewHeight = 196;
var sectionId = 'dynsection-0';
</script>
<script xlink:href="svgpan.js"/>
<svg id="graph" class="graph">
<g id="viewport">
<title>src/Reporter.cpp</title>
<polygon fill="white" stroke="none" points="-4,4 -4,-192 1081,-192 1081,4 -4,4"/>
<!-- Node1 -->
<g id="node1" class="node"><title>Node1</title>
<polygon fill="#bfbfbf" stroke="black" points="582.5,-168.5 582.5,-187.5 671.5,-187.5 671.5,-168.5 582.5,-168.5"/>
<text text-anchor="middle" x="627" y="-175.5" font-family="Helvetica,sans-Serif" font-size="10.00">src/Reporter.cpp</text>
</g>
<!-- Node2 -->
<g id="node2" class="node"><title>Node2</title>
<g id="a_node2"><a xlink:href="_reporter_8h.html" target="_top" xlink:title="Reporter.h">
<polygon fill="white" stroke="black" points="555,-112.5 555,-131.5 617,-131.5 617,-112.5 555,-112.5"/>
<text text-anchor="middle" x="586" y="-119.5" font-family="Helvetica,sans-Serif" font-size="10.00">Reporter.h</text>
</a>
</g>
</g>
<!-- Node1&#45;&gt;Node2 -->
<g id="edge1" class="edge"><title>Node1&#45;&gt;Node2</title>
<path fill="none" stroke="midnightblue" d="M620.23,-168.083C614.438,-160.455 605.942,-149.264 598.862,-139.941"/>
<polygon fill="midnightblue" stroke="midnightblue" points="601.479,-137.599 592.644,-131.751 595.904,-141.832 601.479,-137.599"/>
</g>
<!-- Node7 -->
<g id="node7" class="node"><title>Node7</title>
<g id="a_node7"><a xlink:href="_arrival_8h.html" target="_top" xlink:title="Arrival.h">
<polygon fill="white" stroke="black" points="138.5,-112.5 138.5,-131.5 191.5,-131.5 191.5,-112.5 138.5,-112.5"/>
<text text-anchor="middle" x="165" y="-119.5" font-family="Helvetica,sans-Serif" font-size="10.00">Arrival.h</text>
</a>
</g>
</g>
<!-- Node1&#45;&gt;Node7 -->
<g id="edge6" class="edge"><title>Node1&#45;&gt;Node7</title>
<path fill="none" stroke="midnightblue" d="M582.421,-172.263C509.071,-164.395 358.361,-147.918 231,-132 221.477,-130.81 211.193,-129.446 201.642,-128.145"/>
<polygon fill="midnightblue" stroke="midnightblue" points="202.02,-124.664 191.636,-126.77 201.067,-131.599 202.02,-124.664"/>
</g>
<!-- Node9 -->
<g id="node9" class="node"><title>Node9</title>
<g id="a_node9"><a xlink:href="_clock_8h.html" target="_top" xlink:title="Clock.h">
<polygon fill="white" stroke="black" points="487,-112.5 487,-131.5 537,-131.5 537,-112.5 487,-112.5"/>
<text text-anchor="middle" x="512" y="-119.5" font-family="Helvetica,sans-Serif" font-size="10.00">Clock.h</text>
</a>
</g>
</g>
<!-- Node1&#45;&gt;Node9 -->
<g id="edge8" class="edge"><title>Node1&#45;&gt;Node9</title>
<path fill="none" stroke="midnightblue" d="M608.778,-168.444C590.104,-159.675 560.844,-145.935 539.383,-135.858"/>
<polygon fill="midnightblue" stroke="midnightblue" points="540.676,-132.599 530.137,-131.516 537.701,-138.935 540.676,-132.599"/>
</g>
<!-- Node11 -->
<g id="node11" class="node"><title>Node11</title>
<g id="a_node11"><a xlink:href="_cost_function_type_8h.html" target="_top" xlink:title="CostFunctionType.h">
<polygon fill="white" stroke="black" points="363.5,-112.5 363.5,-131.5 468.5,-131.5 468.5,-112.5 363.5,-112.5"/>
<text text-anchor="middle" x="416" y="-119.5" font-family="Helvetica,sans-Serif" font-size="10.00">CostFunctionType.h</text>
</a>
</g>
</g>
<!-- Node1&#45;&gt;Node11 -->
<g id="edge13" class="edge"><title>Node1&#45;&gt;Node11</title>
<path fill="none" stroke="midnightblue" d="M593.566,-168.444C557.144,-159.122 498.77,-144.183 458.971,-133.997"/>
<polygon fill="midnightblue" stroke="midnightblue" points="459.833,-130.605 449.277,-131.516 458.097,-137.387 459.833,-130.605"/>
</g>
<!-- Node14 -->
<g id="node14" class="node"><title>Node14</title>
<g id="a_node14"><a xlink:href="_scheduler_type_8h.html" target="_top" xlink:title="SchedulerType.h">
<polygon fill="white" stroke="black" points="240,-112.5 240,-131.5 330,-131.5 330,-112.5 240,-112.5"/>
<text text-anchor="middle" x="285" y="-119.5" font-family="Helvetica,sans-Serif" font-size="10.00">SchedulerType.h</text>
</a>
</g>
</g>
<!-- Node1&#45;&gt;Node14 -->
<g id="edge17" class="edge"><title>Node1&#45;&gt;Node14</title>
<path fill="none" stroke="midnightblue" d="M582.289,-169.94C520.118,-160.124 407.625,-142.362 340.269,-131.727"/>
<polygon fill="midnightblue" stroke="midnightblue" points="340.69,-128.25 330.266,-130.147 339.598,-135.164 340.69,-128.25"/>
</g>
<!-- Node16 -->
<g id="node16" class="node"><title>Node16</title>
<g id="a_node16"><a xlink:href="_scenario_8h.html" target="_top" xlink:title="Scenario.h">
<polygon fill="white" stroke="black" points="719.5,-112.5 719.5,-131.5 782.5,-131.5 782.5,-112.5 719.5,-112.5"/>
<text text-anchor="middle" x="751" y="-119.5" font-family="Helvetica,sans-Serif" font-size="10.00">Scenario.h</text>
</a>
</g>
</g>
<!-- Node1&#45;&gt;Node16 -->
<g id="edge20" class="edge"><title>Node1&#45;&gt;Node16</title>
<path fill="none" stroke="midnightblue" d="M646.648,-168.444C666.965,-159.596 698.903,-145.687 722.098,-135.586"/>
<polygon fill="midnightblue" stroke="midnightblue" points="723.673,-138.718 731.444,-131.516 720.878,-132.3 723.673,-138.718"/>
</g>
<!-- Node18 -->
<g id="node18" class="node"><title>Node18</title>
<g id="a_node18"><a xlink:href="_simulator_8h.html" target="_top" xlink:title="Simulator.h">
<polygon fill="white" stroke="black" points="801,-112.5 801,-131.5 867,-131.5 867,-112.5 801,-112.5"/>
<text text-anchor="middle" x="834" y="-119.5" font-family="Helvetica,sans-Serif" font-size="10.00">Simulator.h</text>
</a>
</g>
</g>
<!-- Node1&#45;&gt;Node18 -->
<g id="edge25" class="edge"><title>Node1&#45;&gt;Node18</title>
<path fill="none" stroke="midnightblue" d="M659.8,-168.444C695.38,-159.162 752.314,-144.309 791.347,-134.127"/>
<polygon fill="midnightblue" stroke="midnightblue" points="792.561,-137.427 801.354,-131.516 790.794,-130.654 792.561,-137.427"/>
</g>
<!-- Node20 -->
<g id="node20" class="node"><title>Node20</title>
<g id="a_node20"><a xlink:href="_statistics_8h.html" target="_top" xlink:title="Statistics.h">
<polygon fill="white" stroke="black" points="635,-112.5 635,-131.5 701,-131.5 701,-112.5 635,-112.5"/>
<text text-anchor="middle" x="668" y="-119.5" font-family="Helvetica,sans-Serif" font-size="10.00">Statistics.h</text>
</a>
</g>
</g>
<!-- Node1&#45;&gt;Node20 -->
<g id="edge29" class="edge"><title>Node1&#45;&gt;Node20</title>
<path fill="none" stroke="midnightblue" d="M633.77,-168.083C639.562,-160.455 648.058,-149.264 655.138,-139.941"/>
<polygon fill="midnightblue" stroke="midnightblue" points="658.096,-141.832 661.356,-131.751 652.521,-137.599 658.096,-141.832"/>
</g>
<!-- Node22 -->
<g id="node22" class="node"><title>Node22</title>
<g id="a_node22"><a xlink:href="_trip_8h.html" target="_top" xlink:title="Trip.h">
<polygon fill="white" stroke="black" points="19.5,-112.5 19.5,-131.5 60.5,-131.5 60.5,-112.5 19.5,-112.5"/>
<text text-anchor="middle" x="40" y="-119.5" font-family="Helvetica,sans-Serif" font-size="10.00">Trip.h</text>
</a>
</g>
</g>
<!-- Node1&#45;&gt;Node22 -->
<g id="edge36" class="edge"><title>Node1&#45;&gt;Node22</title>
<path fill="none" stroke="midnightblue" d="M582.345,-173.126C495.166,-165.526 296.214,-148.009 129,-132 109.668,-130.149 87.9872,-127.959 70.8643,-126.203"/>
<polygon fill="midnightblue" stroke="midnightblue" points="71.1596,-122.715 60.8537,-125.172 70.4426,-129.678 71.1596,-122.715"/>
</g>
<!-- Node23 -->
<g id="node23" class="node"><title>Node23</title>
<polygon fill="white" stroke="#bfbfbf" points="885,-112.5 885,-131.5 935,-131.5 935,-112.5 885,-112.5"/>
<text text-anchor="middle" x="910" y="-119.5" font-family="Helvetica,sans-Serif" font-size="10.00">iomanip</text>
</g>
<!-- Node1&#45;&gt;Node23 -->
<g id="edge38" class="edge"><title>Node1&#45;&gt;Node23</title>
<path fill="none" stroke="midnightblue" d="M671.745,-170.021C719.703,-162.294 798.255,-148.933 874.973,-132.09"/>
<polygon fill="midnightblue" stroke="midnightblue" points="875.799,-135.492 884.804,-129.91 874.283,-128.658 875.799,-135.492"/>
</g>
<!-- Node24 -->
<g id="node24" class="node"><title>Node24</title>
<polygon fill="white" stroke="#bfbfbf" points="953,-112.5 953,-131.5 1005,-131.5 1005,-112.5 953,-112.5"/>
<text text-anchor="middle" x="979" y="-119.5" font-family="Helvetica,sans-Serif" font-size="10.00">sstream</text>
</g>
<!-- Node1&#45;&gt;Node24 -->
<g id="edge39" class="edge"><title>Node1&#45;&gt;Node24</title>
<path fill="none" stroke="midnightblue" d="M671.625,-172.243C731.302,-165.535 840.54,-152.045 942.824,-132.051"/>
<polygon fill="midnightblue" stroke="midnightblue" points="943.569,-135.472 952.698,-130.096 942.209,-128.605 943.569,-135.472"/>
</g>
<!-- Node25 -->
<g id="node25" class="node"><title>Node25</title>
<polygon fill="white" stroke="#bfbfbf" points="1023,-112.5 1023,-131.5 1077,-131.5 1077,-112.5 1023,-112.5"/>
<text text-anchor="middle" x="1050" y="-119.5" font-family="Helvetica,sans-Serif" font-size="10.00">iostream</text>
</g>
<!-- Node1&#45;&gt;Node25 -->
<g id="edge40" class="edge"><title>Node1&#45;&gt;Node25</title>
<path fill="none" stroke="midnightblue" d="M671.678,-173.693C742.173,-168.062 883.643,-155.098 1012.88,-131.986"/>
<polygon fill="midnightblue" stroke="midnightblue" points="1013.74,-135.388 1022.95,-130.159 1012.49,-128.5 1013.74,-135.388"/>
</g>
<!-- Node3 -->
<g id="node3" class="node"><title>Node3</title>
<polygon fill="white" stroke="#bfbfbf" points="512.5,-56.5 512.5,-75.5 547.5,-75.5 547.5,-56.5 512.5,-56.5"/>
<text text-anchor="middle" x="530" y="-63.5" font-family="Helvetica,sans-Serif" font-size="10.00">map</text>
</g>
<!-- Node2&#45;&gt;Node3 -->
<g id="edge2" class="edge"><title>Node2&#45;&gt;Node3</title>
<path fill="none" stroke="midnightblue" d="M577.003,-112.324C568.806,-104.42 556.494,-92.5482 546.528,-82.9377"/>
<polygon fill="midnightblue" stroke="midnightblue" points="548.789,-80.2558 539.161,-75.8339 543.93,-85.2947 548.789,-80.2558"/>
</g>
<!-- Node4 -->
<g id="node4" class="node"><title>Node4</title>
<polygon fill="white" stroke="#bfbfbf" points="682,-0.5 682,-19.5 734,-19.5 734,-0.5 682,-0.5"/>
<text text-anchor="middle" x="708" y="-7.5" font-family="Helvetica,sans-Serif" font-size="10.00">memory</text>
</g>
<!-- Node2&#45;&gt;Node4 -->
<g id="edge3" class="edge"><title>Node2&#45;&gt;Node4</title>
<path fill="none" stroke="midnightblue" d="M594.623,-112.391C607.361,-99.759 632.071,-75.5772 654,-56 665.379,-45.841 678.521,-34.8741 688.99,-26.3103"/>
<polygon fill="midnightblue" stroke="midnightblue" points="691.506,-28.7757 697.059,-19.7524 687.091,-23.3435 691.506,-28.7757"/>
</g>
<!-- Node5 -->
<g id="node5" class="node"><title>Node5</title>
<polygon fill="white" stroke="#bfbfbf" points="565.5,-56.5 565.5,-75.5 606.5,-75.5 606.5,-56.5 565.5,-56.5"/>
<text text-anchor="middle" x="586" y="-63.5" font-family="Helvetica,sans-Serif" font-size="10.00">string</text>
</g>
<!-- Node2&#45;&gt;Node5 -->
<g id="edge4" class="edge"><title>Node2&#45;&gt;Node5</title>
<path fill="none" stroke="midnightblue" d="M586,-112.083C586,-105.006 586,-94.8611 586,-85.9865"/>
<polygon fill="midnightblue" stroke="midnightblue" points="589.5,-85.751 586,-75.7511 582.5,-85.7511 589.5,-85.751"/>
</g>
<!-- Node6 -->
<g id="node6" class="node"><title>Node6</title>
<polygon fill="white" stroke="#bfbfbf" points="663,-56.5 663,-75.5 707,-75.5 707,-56.5 663,-56.5"/>
<text text-anchor="middle" x="685" y="-63.5" font-family="Helvetica,sans-Serif" font-size="10.00">vector</text>
</g>
<!-- Node2&#45;&gt;Node6 -->
<g id="edge5" class="edge"><title>Node2&#45;&gt;Node6</title>
<path fill="none" stroke="midnightblue" d="M601.906,-112.324C617.638,-103.743 641.942,-90.486 660.209,-80.5224"/>
<polygon fill="midnightblue" stroke="midnightblue" points="662.03,-83.5157 669.133,-75.6545 658.678,-77.3704 662.03,-83.5157"/>
</g>
<!-- Node8 -->
<g id="node8" class="node"><title>Node8</title>
<polygon fill="white" stroke="#bfbfbf" points="0,-56.5 0,-75.5 50,-75.5 50,-56.5 0,-56.5"/>
<text text-anchor="middle" x="25" y="-63.5" font-family="Helvetica,sans-Serif" font-size="10.00">fstream</text>
</g>
<!-- Node7&#45;&gt;Node8 -->
<g id="edge7" class="edge"><title>Node7&#45;&gt;Node8</title>
<path fill="none" stroke="midnightblue" d="M142.817,-112.444C119.572,-103.478 82.8512,-89.314 56.5848,-79.1827"/>
<polygon fill="midnightblue" stroke="midnightblue" points="57.6692,-75.8497 47.0796,-75.5164 55.1501,-82.3807 57.6692,-75.8497"/>
</g>
<!-- Node9&#45;&gt;Node4 -->
<g id="edge11" class="edge"><title>Node9&#45;&gt;Node4</title>
<path fill="none" stroke="midnightblue" d="M486.731,-112.966C453.992,-102.307 400.437,-83.9158 395,-76 389.968,-68.6728 389.179,-62.7178 395,-56 430.38,-15.1699 596.371,-10.5231 671.225,-10.5567"/>
<polygon fill="midnightblue" stroke="midnightblue" points="671.57,-14.0578 681.582,-10.5918 671.594,-7.05781 671.57,-14.0578"/>
</g>
<!-- Node9&#45;&gt;Node5 -->
<g id="edge12" class="edge"><title>Node9&#45;&gt;Node5</title>
<path fill="none" stroke="midnightblue" d="M523.889,-112.324C535.15,-104.107 552.287,-91.6017 565.709,-81.8069"/>
<polygon fill="midnightblue" stroke="midnightblue" points="567.88,-84.5559 573.894,-75.8339 563.753,-78.9014 567.88,-84.5559"/>
</g>
<!-- Node10 -->
<g id="node10" class="node"><title>Node10</title>
<g id="a_node10"><a xlink:href="_event_observer_8h.html" target="_top" xlink:title="EventObserver.h">
<polygon fill="white" stroke="black" points="404,-56.5 404,-75.5 494,-75.5 494,-56.5 404,-56.5"/>
<text text-anchor="middle" x="449" y="-63.5" font-family="Helvetica,sans-Serif" font-size="10.00">EventObserver.h</text>
</a>
</g>
</g>
<!-- Node9&#45;&gt;Node10 -->
<g id="edge9" class="edge"><title>Node9&#45;&gt;Node10</title>
<path fill="none" stroke="midnightblue" d="M501.878,-112.324C492.474,-104.263 478.256,-92.0765 466.931,-82.3695"/>
<polygon fill="midnightblue" stroke="midnightblue" points="469.177,-79.6844 459.306,-75.8339 464.621,-84.9993 469.177,-79.6844"/>
</g>
<!-- Node10&#45;&gt;Node4 -->
<g id="edge10" class="edge"><title>Node10&#45;&gt;Node4</title>
<path fill="none" stroke="midnightblue" d="M490.039,-56.4435C540.138,-45.9982 624.071,-28.4986 671.843,-18.5385"/>
<polygon fill="midnightblue" stroke="midnightblue" points="672.672,-21.9411 681.747,-16.4736 671.243,-15.0884 672.672,-21.9411"/>
</g>
<!-- Node11&#45;&gt;Node5 -->
<g id="edge16" class="edge"><title>Node11&#45;&gt;Node5</title>
<path fill="none" stroke="midnightblue" d="M442.937,-112.444C473.604,-102.702 523.585,-86.826 555.617,-76.6512"/>
<polygon fill="midnightblue" stroke="midnightblue" points="556.867,-79.9263 565.339,-73.5631 554.748,-73.2548 556.867,-79.9263"/>
</g>
<!-- Node12 -->
<g id="node12" class="node"><title>Node12</title>
<g id="a_node12"><a xlink:href="_missing_cost_function_error_8h.html" target="_top" xlink:title="MissingCostFunctionError.h">
<polygon fill="white" stroke="black" points="210,-56.5 210,-75.5 348,-75.5 348,-56.5 210,-56.5"/>
<text text-anchor="middle" x="279" y="-63.5" font-family="Helvetica,sans-Serif" font-size="10.00">MissingCostFunctionError.h</text>
</a>
</g>
</g>
<!-- Node11&#45;&gt;Node12 -->
<g id="edge14" class="edge"><title>Node11&#45;&gt;Node12</title>
<path fill="none" stroke="midnightblue" d="M394.292,-112.444C371.645,-103.517 335.928,-89.4387 310.248,-79.3168"/>
<polygon fill="midnightblue" stroke="midnightblue" points="311.193,-75.9273 300.606,-75.5164 308.626,-82.4397 311.193,-75.9273"/>
</g>
<!-- Node13 -->
<g id="node13" class="node"><title>Node13</title>
<polygon fill="white" stroke="#bfbfbf" points="175.5,-0.5 175.5,-19.5 234.5,-19.5 234.5,-0.5 175.5,-0.5"/>
<text text-anchor="middle" x="205" y="-7.5" font-family="Helvetica,sans-Serif" font-size="10.00">stdexcept</text>
</g>
<!-- Node12&#45;&gt;Node13 -->
<g id="edge15" class="edge"><title>Node12&#45;&gt;Node13</title>
<path fill="none" stroke="midnightblue" d="M267.111,-56.324C255.85,-48.1066 238.713,-35.6017 225.291,-25.8069"/>
<polygon fill="midnightblue" stroke="midnightblue" points="227.247,-22.9014 217.106,-19.8339 223.12,-28.5559 227.247,-22.9014"/>
</g>
<!-- Node15 -->
<g id="node15" class="node"><title>Node15</title>
<g id="a_node15"><a xlink:href="_missing_scheduler_error_8h.html" target="_top" xlink:title="MissingSchedulerError.h">
<polygon fill="white" stroke="black" points="68.5,-56.5 68.5,-75.5 191.5,-75.5 191.5,-56.5 68.5,-56.5"/>
<text text-anchor="middle" x="130" y="-63.5" font-family="Helvetica,sans-Serif" font-size="10.00">MissingSchedulerError.h</text>
</a>
</g>
</g>
<!-- Node14&#45;&gt;Node15 -->
<g id="edge18" class="edge"><title>Node14&#45;&gt;Node15</title>
<path fill="none" stroke="midnightblue" d="M260.44,-112.444C234.477,-103.399 193.332,-89.064 164.203,-78.9158"/>
<polygon fill="midnightblue" stroke="midnightblue" points="165.04,-75.5013 154.445,-75.5164 162.737,-82.1116 165.04,-75.5013"/>
</g>
<!-- Node15&#45;&gt;Node13 -->
<g id="edge19" class="edge"><title>Node15&#45;&gt;Node13</title>
<path fill="none" stroke="midnightblue" d="M142.05,-56.324C153.463,-48.1066 170.831,-35.6017 184.435,-25.8069"/>
<polygon fill="midnightblue" stroke="midnightblue" points="186.66,-28.5174 192.731,-19.8339 182.57,-22.8366 186.66,-28.5174"/>
</g>
<!-- Node16&#45;&gt;Node4 -->
<g id="edge22" class="edge"><title>Node16&#45;&gt;Node4</title>
<path fill="none" stroke="midnightblue" d="M782.197,-112.462C811.385,-103.768 851.828,-89.6619 861,-76 865.955,-68.62 866.325,-63.1171 861,-56 847,-37.2889 784.938,-23.6877 744.285,-16.5931"/>
<polygon fill="midnightblue" stroke="midnightblue" points="744.645,-13.1044 734.201,-14.8893 743.478,-20.0065 744.645,-13.1044"/>
</g>
<!-- Node16&#45;&gt;Node5 -->
<g id="edge23" class="edge"><title>Node16&#45;&gt;Node5</title>
<path fill="none" stroke="midnightblue" d="M724.855,-112.444C695.464,-102.825 647.795,-87.2238 616.669,-77.0372"/>
<polygon fill="midnightblue" stroke="midnightblue" points="617.391,-73.5907 606.798,-73.8067 615.213,-80.2435 617.391,-73.5907"/>
</g>
<!-- Node16&#45;&gt;Node6 -->
<g id="edge24" class="edge"><title>Node16&#45;&gt;Node6</title>
<path fill="none" stroke="midnightblue" d="M740.396,-112.324C730.544,-104.263 715.649,-92.0765 703.785,-82.3695"/>
<polygon fill="midnightblue" stroke="midnightblue" points="705.753,-79.4575 695.797,-75.8339 701.32,-84.8752 705.753,-79.4575"/>
</g>
<!-- Node17 -->
<g id="node17" class="node"><title>Node17</title>
<polygon fill="white" stroke="#bfbfbf" points="810.5,-56.5 810.5,-75.5 851.5,-75.5 851.5,-56.5 810.5,-56.5"/>
<text text-anchor="middle" x="831" y="-63.5" font-family="Helvetica,sans-Serif" font-size="10.00">ctime</text>
</g>
<!-- Node16&#45;&gt;Node17 -->
<g id="edge21" class="edge"><title>Node16&#45;&gt;Node17</title>
<path fill="none" stroke="midnightblue" d="M763.853,-112.324C776.216,-103.979 795.13,-91.2122 809.737,-81.3524"/>
<polygon fill="midnightblue" stroke="midnightblue" points="811.848,-84.1503 818.179,-75.6545 807.932,-78.3483 811.848,-84.1503"/>
</g>
<!-- Node18&#45;&gt;Node4 -->
<g id="edge27" class="edge"><title>Node18&#45;&gt;Node4</title>
<path fill="none" stroke="midnightblue" d="M846.515,-112.5C863.679,-99.7972 890.805,-75.2924 876,-56 860.088,-35.2649 788.867,-21.9948 744.42,-15.5758"/>
<polygon fill="midnightblue" stroke="midnightblue" points="744.677,-12.0778 734.289,-14.1638 743.71,-19.0108 744.677,-12.0778"/>
</g>
<!-- Node18&#45;&gt;Node17 -->
<g id="edge26" class="edge"><title>Node18&#45;&gt;Node17</title>
<path fill="none" stroke="midnightblue" d="M833.505,-112.083C833.111,-105.006 832.548,-94.8611 832.055,-85.9865"/>
<polygon fill="midnightblue" stroke="midnightblue" points="835.536,-85.5415 831.486,-75.7511 828.546,-85.9299 835.536,-85.5415"/>
</g>
<!-- Node19 -->
<g id="node19" class="node"><title>Node19</title>
<polygon fill="white" stroke="#bfbfbf" points="946.5,-56.5 946.5,-75.5 995.5,-75.5 995.5,-56.5 946.5,-56.5"/>
<text text-anchor="middle" x="971" y="-63.5" font-family="Helvetica,sans-Serif" font-size="10.00">random</text>
</g>
<!-- Node18&#45;&gt;Node19 -->
<g id="edge28" class="edge"><title>Node18&#45;&gt;Node19</title>
<path fill="none" stroke="midnightblue" d="M855.708,-112.444C878.355,-103.517 914.072,-89.4387 939.752,-79.3168"/>
<polygon fill="midnightblue" stroke="midnightblue" points="941.374,-82.4397 949.394,-75.5164 938.807,-75.9273 941.374,-82.4397"/>
</g>
<!-- Node20&#45;&gt;Node4 -->
<g id="edge33" class="edge"><title>Node20&#45;&gt;Node4</title>
<path fill="none" stroke="midnightblue" d="M693.354,-112.475C718.707,-103.375 755.046,-88.5684 763,-76 775.065,-56.9351 753.194,-37.499 733.564,-24.9108"/>
<polygon fill="midnightblue" stroke="midnightblue" points="735.201,-21.8108 724.832,-19.6348 731.581,-27.8021 735.201,-21.8108"/>
</g>
<!-- Node20&#45;&gt;Node5 -->
<g id="edge34" class="edge"><title>Node20&#45;&gt;Node5</title>
<path fill="none" stroke="midnightblue" d="M654.825,-112.324C642.153,-103.979 622.767,-91.2122 607.794,-81.3524"/>
<polygon fill="midnightblue" stroke="midnightblue" points="609.419,-78.2313 599.142,-75.6545 605.569,-84.0776 609.419,-78.2313"/>
</g>
<!-- Node20&#45;&gt;Node6 -->
<g id="edge35" class="edge"><title>Node20&#45;&gt;Node6</title>
<path fill="none" stroke="midnightblue" d="M670.807,-112.083C673.085,-104.849 676.371,-94.4087 679.208,-85.3968"/>
<polygon fill="midnightblue" stroke="midnightblue" points="682.581,-86.3406 682.245,-75.7511 675.904,-84.2385 682.581,-86.3406"/>
</g>
<!-- Node20&#45;&gt;Node10 -->
<g id="edge30" class="edge"><title>Node20&#45;&gt;Node10</title>
<path fill="none" stroke="midnightblue" d="M634.739,-112.799C597.044,-103.504 535.419,-88.3088 493.582,-77.9928"/>
<polygon fill="midnightblue" stroke="midnightblue" points="494.209,-74.5426 483.662,-75.5467 492.533,-81.339 494.209,-74.5426"/>
</g>
<!-- Node20&#45;&gt;Node17 -->
<g id="edge31" class="edge"><title>Node20&#45;&gt;Node17</title>
<path fill="none" stroke="midnightblue" d="M693.828,-112.444C722.862,-102.825 769.954,-87.2238 800.703,-77.0372"/>
<polygon fill="midnightblue" stroke="midnightblue" points="802.062,-80.2739 810.454,-73.8067 799.861,-73.6291 802.062,-80.2739"/>
</g>
<!-- Node21 -->
<g id="node21" class="node"><title>Node21</title>
<polygon fill="white" stroke="#bfbfbf" points="724.5,-56.5 724.5,-75.5 753.5,-75.5 753.5,-56.5 724.5,-56.5"/>
<text text-anchor="middle" x="739" y="-63.5" font-family="Helvetica,sans-Serif" font-size="10.00">list</text>
</g>
<!-- Node20&#45;&gt;Node21 -->
<g id="edge32" class="edge"><title>Node20&#45;&gt;Node21</title>
<path fill="none" stroke="midnightblue" d="M679.407,-112.324C690.109,-104.185 706.341,-91.8395 719.163,-82.0874"/>
<polygon fill="midnightblue" stroke="midnightblue" points="721.544,-84.6734 727.385,-75.8339 717.307,-79.1018 721.544,-84.6734"/>
</g>
<!-- Node22&#45;&gt;Node8 -->
<g id="edge37" class="edge"><title>Node22&#45;&gt;Node8</title>
<path fill="none" stroke="midnightblue" d="M37.5231,-112.083C35.5135,-104.849 32.6135,-94.4087 30.1102,-85.3968"/>
<polygon fill="midnightblue" stroke="midnightblue" points="33.4797,-84.4495 27.4309,-75.7511 26.7351,-86.323 33.4797,-84.4495"/>
</g>
</g>
</svg>
        <g id="navigator" transform="translate(0 0)" fill="#404254">
                <rect fill="#f2f5e9" fill-opacity="0.5" stroke="#606060" stroke-width=".5" x="0" y="0" width="60" height="60"/>
                <use id="zoomplus" xlink:href="#zoomPlus" x="17" y="9" onmousedown="handleZoom(evt,'in')"/>
                <use id="zoomminus" xlink:href="#zoomMin" x="42" y="9" onmousedown="handleZoom(evt,'out')"/>
                <use id="reset" xlink:href="#resetDef" x="30" y="36" onmousedown="handleReset()"/>
                <g id="arrowUp" xlink:href="#dirArrow" transform="translate(30 24)" onmousedown="handlePan(0,-1)">
                  <use xlink:href="#rim" fill="#404040">
                        <set attributeName="fill" to="#808080" begin="arrowUp.mouseover" end="arrowUp.mouseout"/>
                  </use>
                  <path fill="none" stroke="white" stroke-width="1.5" d="M0,-3.0v7 M-2.5,-0.5L0,-3.0L2.5,-0.5"/>
                </g>
                <g id="arrowRight" xlink:href="#dirArrow" transform="rotate(90) translate(36 -43)" onmousedown="handlePan(1,0)">
                  <use xlink:href="#rim" fill="#404040">
                        <set attributeName="fill" to="#808080" begin="arrowRight.mouseover" end="arrowRight.mouseout"/>
                  </use>
                  <path fill="none" stroke="white" stroke-width="1.5" d="M0,-3.0v7 M-2.5,-0.5L0,-3.0L2.5,-0.5"/>
                </g>
                <g id="arrowDown" xlink:href="#dirArrow" transform="rotate(180) translate(-30 -48)" onmousedown="handlePan(0,1)">
                  <use xlink:href="#rim" fill="#404040">
                        <set attributeName="fill" to="#808080" begin="arrowDown.mouseover" end="arrowDown.mouseout"/>
                  </use>
                  <path fill="none" stroke="white" stroke-width="1.5" d="M0,-3.0v7 M-2.5,-0.5L0,-3.0L2.5,-0.5"/>
                </g>
                <g id="arrowLeft" xlink:href="#dirArrow" transform="rotate(270) translate(-36 17)" onmousedown="handlePan(-1,0)">
                  <use xlink:href="#rim" fill="#404040">
                        <set attributeName="fill" to="#808080" begin="arrowLeft.mouseover" end="arrowLeft.mouseout"/>
                  </use>
                  <path fill="none" stroke="white" stroke-width="1.5" d="M0,-3.0v7 M-2.5,-0.5L0,-3.0L2.5,-0.5"/>
                </g>
        </g>
        <svg viewBox="0 0 15 15" width="100%" height="30px" preserveAspectRatio="xMaxYMin meet">
         <g id="arrow_out" transform="scale(0.3 0.3)">
          <a xlink:href="_reporter_8cpp__incl_org.svg" target="_base">
           <rect id="button" ry="5" rx="5" y="6" x="6" height="38" width="38"
                fill="#f2f5e9" fill-opacity="0.5" stroke="#606060" stroke-width="1.0"/>
           <path id="arrow"
             d="M 11.500037,31.436501 C 11.940474,20.09759 22.043105,11.32322 32.158766,21.979434 L 37.068811,17.246167 C 37.068811,17.246167 37.088388,32 37.088388,32 L 22.160133,31.978069 C 22.160133,31.978069 26.997745,27.140456 26.997745,27.140456 C 18.528582,18.264221 13.291696,25.230495 11.500037,31.436501 z"
             style="fill:#404040;"/>
          </a>
         </g>
        </svg>
</svg>
