<?xml version="1.0" encoding="UTF-8" standalone="no"?>
<!DOCTYPE svg PUBLIC "-//W3C//DTD SVG 1.1//EN"
 "http://www.w3.org/Graphics/SVG/1.1/DTD/svg11.dtd">
<!-- Generated by graphviz version 2.38.0 (20140413.2041)
 -->
<!-- Title: include/Reporter.h Pages: 1 -->
<svg width="238pt" height="84pt"
 viewBox="0.00 0.00 238.00 84.00" xmlns="http://www.w3.org/2000/svg" xmlns:xlink="http://www.w3.org/1999/xlink">
<g id="graph0" class="graph" transform="scale(1 1) rotate(0) translate(4 80)">
<title>include/Reporter.h</title>
<polygon fill="white" stroke="none" points="-4,4 -4,-80 234,-80 234,4 -4,4"/>
<!-- Node1 -->
<g id="node1" class="node"><title>Node1</title>
<polygon fill="#bfbfbf" stroke="black" points="51.5,-56.5 51.5,-75.5 162.5,-75.5 162.5,-56.5 51.5,-56.5"/>
<text text-anchor="middle" x="107" y="-63.5" font-family="Ubuntu Mono" font-size="10.00">include/Reporter.h</text>
</g>
<!-- Node2 -->
<g id="node2" class="node"><title>Node2</title>
<polygon fill="white" stroke="#bfbfbf" points="0,-0.5 0,-19.5 32,-19.5 32,-0.5 0,-0.5"/>
<text text-anchor="middle" x="16" y="-7.5" font-family="Ubuntu Mono" font-size="10.00">map</text>
</g>
<!-- Node1&#45;&gt;Node2 -->
<g id="edge1" class="edge"><title>Node1&#45;&gt;Node2</title>
<path fill="none" stroke="midnightblue" d="M92.3793,-56.324C78.0511,-47.8215 55.9875,-34.7288 39.2513,-24.7975"/>
<polygon fill="midnightblue" stroke="midnightblue" points="40.9704,-21.7478 30.5844,-19.6545 37.3982,-27.7677 40.9704,-21.7478"/>
</g>
<!-- Node3 -->
<g id="node3" class="node"><title>Node3</title>
<polygon fill="white" stroke="#bfbfbf" points="50,-0.5 50,-19.5 98,-19.5 98,-0.5 50,-0.5"/>
<text text-anchor="middle" x="74" y="-7.5" font-family="Ubuntu Mono" font-size="10.00">memory</text>
</g>
<!-- Node1&#45;&gt;Node3 -->
<g id="edge2" class="edge"><title>Node1&#45;&gt;Node3</title>
<path fill="none" stroke="midnightblue" d="M101.551,-56.083C96.9855,-48.6127 90.3316,-37.7244 84.7066,-28.5199"/>
<polygon fill="midnightblue" stroke="midnightblue" points="87.5489,-26.4588 79.3479,-19.7511 81.5759,-30.109 87.5489,-26.4588"/>
</g>
<!-- Node4 -->
<g id="node4" class="node"><title>Node4</title>
<polygon fill="white" stroke="#bfbfbf" points="116,-0.5 116,-19.5 164,-19.5 164,-0.5 116,-0.5"/>
<text text-anchor="middle" x="140" y="-7.5" font-family="Ubuntu Mono" font-size="10.00">string</text>
</g>
<!-- Node1&#45;&gt;Node4 -->
<g id="edge3" class="edge"><title>Node1&#45;&gt;Node4</title>
<path fill="none" stroke="midnightblue" d="M112.449,-56.083C117.014,-48.6127 123.668,-37.7244 129.293,-28.5199"/>
<polygon fill="midnightblue" stroke="midnightblue" points="132.424,-30.109 134.652,-19.7511 126.451,-26.4588 132.424,-30.109"/>
</g>
<!-- Node5 -->
<g id="node5" class="node"><title>Node5</title>
<polygon fill="white" stroke="#bfbfbf" points="182,-0.5 182,-19.5 230,-19.5 230,-0.5 182,-0.5"/>
<text text-anchor="middle" x="206" y="-7.5" font-family="Ubuntu Mono" font-size="10.00">vector</text>
</g>
<!-- Node1&#45;&gt;Node5 -->
<g id="edge4" class="edge"><title>Node1&#45;&gt;Node5</title>
<path fill="none" stroke="midnightblue" d="M122.906,-56.324C138.638,-47.7428 162.942,-34.486 181.209,-24.5224"/>
<polygon fill="midnightblue" stroke="midnightblue" points="183.03,-27.5157 190.133,-19.6545 179.678,-21.3704 183.03,-27.5157"/>
</g>
</g>
</svg>
