<?xml version="1.0" encoding="UTF-8" standalone="no"?>
<!DOCTYPE svg PUBLIC "-//W3C//DTD SVG 1.1//EN"
 "http://www.w3.org/Graphics/SVG/1.1/DTD/svg11.dtd">
<!-- Generated by graphviz version 2.38.0 (20140413.2041)
 -->
<!-- Title: include/Scenario.h Pages: 1 -->
<svg width="997pt" height="84pt"
 viewBox="0.00 0.00 996.50 84.00" xmlns="http://www.w3.org/2000/svg" xmlns:xlink="http://www.w3.org/1999/xlink">
<g id="graph0" class="graph" transform="scale(1 1) rotate(0) translate(4 80)">
<title>include/Scenario.h</title>
<polygon fill="white" stroke="none" points="-4,4 -4,-80 992.5,-80 992.5,4 -4,4"/>
<!-- Node1 -->
<g id="node1" class="node"><title>Node1</title>
<polygon fill="#bfbfbf" stroke="black" points="435.5,-56.5 435.5,-75.5 532.5,-75.5 532.5,-56.5 435.5,-56.5"/>
<text text-anchor="middle" x="484" y="-63.5" font-family="Helvetica,sans-Serif" font-size="10.00">include/Scenario.h</text>
</g>
<!-- Node2 -->
<g id="node2" class="node"><title>Node2</title>
<g id="a_node2"><a xlink:href="_elevator_8cpp.html" target="_top" xlink:title="src/Elevator.cpp">
<polygon fill="white" stroke="black" points="0,-0.5 0,-19.5 88,-19.5 88,-0.5 0,-0.5"/>
<text text-anchor="middle" x="44" y="-7.5" font-family="Helvetica,sans-Serif" font-size="10.00">src/Elevator.cpp</text>
</a>
</g>
</g>
<!-- Node1&#45;&gt;Node2 -->
<g id="edge1" class="edge"><title>Node1&#45;&gt;Node2</title>
<path fill="none" stroke="midnightblue" d="M425.01,-59.1129C349.02,-51.3063 212.912,-36.5691 97,-20 94.1358,-19.5906 91.1882,-19.1484 88.2192,-18.6873"/>
<polygon fill="midnightblue" stroke="midnightblue" points="425.021,-62.6322 435.325,-60.1679 425.733,-55.6685 425.021,-62.6322"/>
</g>
<!-- Node3 -->
<g id="node3" class="node"><title>Node3</title>
<g id="a_node3"><a xlink:href="_event_factory_8cpp.html" target="_top" xlink:title="src/EventFactory.cpp">
<polygon fill="white" stroke="black" points="106,-0.5 106,-19.5 216,-19.5 216,-0.5 106,-0.5"/>
<text text-anchor="middle" x="161" y="-7.5" font-family="Helvetica,sans-Serif" font-size="10.00">src/EventFactory.cpp</text>
</a>
</g>
</g>
<!-- Node1&#45;&gt;Node3 -->
<g id="edge2" class="edge"><title>Node1&#45;&gt;Node3</title>
<path fill="none" stroke="midnightblue" d="M425.059,-55.1461C364.083,-44.9519 269.835,-29.1953 211.972,-19.5216"/>
<polygon fill="midnightblue" stroke="midnightblue" points="424.854,-58.6603 435.294,-56.8572 426.008,-51.7561 424.854,-58.6603"/>
</g>
<!-- Node4 -->
<g id="node4" class="node"><title>Node4</title>
<g id="a_node4"><a xlink:href="_floor_8cpp.html" target="_top" xlink:title="src/Floor.cpp">
<polygon fill="white" stroke="black" points="234,-0.5 234,-19.5 308,-19.5 308,-0.5 234,-0.5"/>
<text text-anchor="middle" x="271" y="-7.5" font-family="Helvetica,sans-Serif" font-size="10.00">src/Floor.cpp</text>
</a>
</g>
</g>
<!-- Node1&#45;&gt;Node4 -->
<g id="edge3" class="edge"><title>Node1&#45;&gt;Node4</title>
<path fill="none" stroke="midnightblue" d="M440.449,-53.959C400.219,-43.7598 341.297,-28.8217 304.593,-19.5164"/>
<polygon fill="midnightblue" stroke="midnightblue" points="439.696,-57.3787 450.25,-56.4435 441.416,-50.5933 439.696,-57.3787"/>
</g>
<!-- Node5 -->
<g id="node5" class="node"><title>Node5</title>
<g id="a_node5"><a xlink:href="main_8cpp.html" target="_top" xlink:title="src/main.cpp">
<polygon fill="white" stroke="black" points="326.5,-0.5 326.5,-19.5 399.5,-19.5 399.5,-0.5 326.5,-0.5"/>
<text text-anchor="middle" x="363" y="-7.5" font-family="Helvetica,sans-Serif" font-size="10.00">src/main.cpp</text>
</a>
</g>
</g>
<!-- Node1&#45;&gt;Node5 -->
<g id="edge4" class="edge"><title>Node1&#45;&gt;Node5</title>
<path fill="none" stroke="midnightblue" d="M455.694,-52.3678C433.035,-42.2553 401.874,-28.3486 382.083,-19.5164"/>
<polygon fill="midnightblue" stroke="midnightblue" points="454.269,-55.5643 464.827,-56.4435 457.122,-49.1719 454.269,-55.5643"/>
</g>
<!-- Node6 -->
<g id="node6" class="node"><title>Node6</title>
<g id="a_node6"><a xlink:href="_planning_scheduler_8cpp.html" target="_top" xlink:title="src/PlanningScheduler.cpp">
<polygon fill="white" stroke="black" points="417.5,-0.5 417.5,-19.5 550.5,-19.5 550.5,-0.5 417.5,-0.5"/>
<text text-anchor="middle" x="484" y="-7.5" font-family="Helvetica,sans-Serif" font-size="10.00">src/PlanningScheduler.cpp</text>
</a>
</g>
</g>
<!-- Node1&#45;&gt;Node6 -->
<g id="edge5" class="edge"><title>Node1&#45;&gt;Node6</title>
<path fill="none" stroke="midnightblue" d="M484,-45.8045C484,-36.9102 484,-26.7798 484,-19.7511"/>
<polygon fill="midnightblue" stroke="midnightblue" points="480.5,-46.083 484,-56.083 487.5,-46.083 480.5,-46.083"/>
</g>
<!-- Node7 -->
<g id="node7" class="node"><title>Node7</title>
<g id="a_node7"><a xlink:href="_reporter_8cpp.html" target="_top" xlink:title="src/Reporter.cpp">
<polygon fill="white" stroke="black" points="568.5,-0.5 568.5,-19.5 657.5,-19.5 657.5,-0.5 568.5,-0.5"/>
<text text-anchor="middle" x="613" y="-7.5" font-family="Helvetica,sans-Serif" font-size="10.00">src/Reporter.cpp</text>
</a>
</g>
</g>
<!-- Node1&#45;&gt;Node7 -->
<g id="edge6" class="edge"><title>Node1&#45;&gt;Node7</title>
<path fill="none" stroke="midnightblue" d="M513.854,-52.503C538.038,-42.3795 571.462,-28.388 592.655,-19.5164"/>
<polygon fill="midnightblue" stroke="midnightblue" points="512.313,-49.3536 504.44,-56.4435 515.016,-55.8106 512.313,-49.3536"/>
</g>
<!-- Node8 -->
<g id="node8" class="node"><title>Node8</title>
<g id="a_node8"><a xlink:href="_scenario_8cpp.html" target="_top" xlink:title="src/Scenario.cpp">
<polygon fill="white" stroke="black" points="676,-0.5 676,-19.5 766,-19.5 766,-0.5 676,-0.5"/>
<text text-anchor="middle" x="721" y="-7.5" font-family="Helvetica,sans-Serif" font-size="10.00">src/Scenario.cpp</text>
</a>
</g>
</g>
<!-- Node1&#45;&gt;Node8 -->
<g id="edge7" class="edge"><title>Node1&#45;&gt;Node8</title>
<path fill="none" stroke="midnightblue" d="M531.324,-54.2172C576.108,-44.0134 642.436,-28.9006 683.622,-19.5164"/>
<polygon fill="midnightblue" stroke="midnightblue" points="530.526,-50.8094 521.553,-56.4435 532.081,-57.6345 530.526,-50.8094"/>
</g>
<!-- Node9 -->
<g id="node9" class="node"><title>Node9</title>
<g id="a_node9"><a xlink:href="_simulator_8cpp.html" target="_top" xlink:title="src/Simulator.cpp">
<polygon fill="white" stroke="black" points="784.5,-0.5 784.5,-19.5 877.5,-19.5 877.5,-0.5 784.5,-0.5"/>
<text text-anchor="middle" x="831" y="-7.5" font-family="Helvetica,sans-Serif" font-size="10.00">src/Simulator.cpp</text>
</a>
</g>
</g>
<!-- Node1&#45;&gt;Node9 -->
<g id="edge8" class="edge"><title>Node1&#45;&gt;Node9</title>
<path fill="none" stroke="midnightblue" d="M542.881,-55.9994C601.675,-46.9874 694.612,-32.6752 775,-20 778.015,-19.5246 781.122,-19.0323 784.252,-18.5342"/>
<polygon fill="midnightblue" stroke="midnightblue" points="542.025,-52.5896 532.67,-57.5638 543.085,-59.5089 542.025,-52.5896"/>
</g>
<!-- Node10 -->
<g id="node10" class="node"><title>Node10</title>
<g id="a_node10"><a xlink:href="_statistics_8cpp.html" target="_top" xlink:title="src/Statistics.cpp">
<polygon fill="white" stroke="black" points="895.5,-0.5 895.5,-19.5 988.5,-19.5 988.5,-0.5 895.5,-0.5"/>
<text text-anchor="middle" x="942" y="-7.5" font-family="Helvetica,sans-Serif" font-size="10.00">src/Statistics.cpp</text>
</a>
</g>
</g>
<!-- Node1&#45;&gt;Node10 -->
<g id="edge9" class="edge"><title>Node1&#45;&gt;Node10</title>
<path fill="none" stroke="midnightblue" d="M542.987,-59.3645C621.611,-51.6355 765.021,-36.7793 887,-20 889.684,-19.6308 892.439,-19.2347 895.217,-18.822"/>
<polygon fill="midnightblue" stroke="midnightblue" points="542.408,-55.9043 532.796,-60.3619 543.09,-62.871 542.408,-55.9043"/>
</g>
</g>
</svg>
