<?xml version="1.0" encoding="UTF-8" standalone="no"?>
<!DOCTYPE svg PUBLIC "-//W3C//DTD SVG 1.1//EN"
 "http://www.w3.org/Graphics/SVG/1.1/DTD/svg11.dtd">
<!-- Generated by graphviz version 2.38.0 (20140413.2041)
 -->
<!-- Title: include/Scenario.h Pages: 1 -->
<svg width="943pt" height="84pt"
 viewBox="0.00 0.00 943.00 84.00" xmlns="http://www.w3.org/2000/svg" xmlns:xlink="http://www.w3.org/1999/xlink">
<g id="graph0" class="graph" transform="scale(1 1) rotate(0) translate(4 80)">
<title>include/Scenario.h</title>
<polygon fill="white" stroke="none" points="-4,4 -4,-80 939,-80 939,4 -4,4"/>
<!-- Node1 -->
<g id="node1" class="node"><title>Node1</title>
<polygon fill="#bfbfbf" stroke="black" points="402,-56.5 402,-75.5 513,-75.5 513,-56.5 402,-56.5"/>
<text text-anchor="middle" x="457.5" y="-63.5" font-family="Ubuntu Mono" font-size="10.00">include/Scenario.h</text>
</g>
<!-- Node2 -->
<g id="node2" class="node"><title>Node2</title>
<g id="a_node2"><a xlink:href="_elevator_8cpp.html" target="_top" xlink:title="src/Elevator.cpp">
<polygon fill="white" stroke="black" points="0,-0.5 0,-19.5 101,-19.5 101,-0.5 0,-0.5"/>
<text text-anchor="middle" x="50.5" y="-7.5" font-family="Ubuntu Mono" font-size="10.00">src/Elevator.cpp</text>
</a>
</g>
</g>
<!-- Node1&#45;&gt;Node2 -->
<g id="edge1" class="edge"><title>Node1&#45;&gt;Node2</title>
<path fill="none" stroke="midnightblue" d="M391.888,-56.8866C322.073,-48.161 208.412,-33.6907 110.5,-20 107.475,-19.577 104.365,-19.1343 101.229,-18.6819"/>
<polygon fill="midnightblue" stroke="midnightblue" points="391.507,-60.3661 401.863,-58.1315 392.374,-53.42 391.507,-60.3661"/>
</g>
<!-- Node3 -->
<g id="node3" class="node"><title>Node3</title>
<g id="a_node3"><a xlink:href="_event_factory_8cpp.html" target="_top" xlink:title="src/EventFactory.cpp">
<polygon fill="white" stroke="black" points="119.5,-0.5 119.5,-19.5 241.5,-19.5 241.5,-0.5 119.5,-0.5"/>
<text text-anchor="middle" x="180.5" y="-7.5" font-family="Ubuntu Mono" font-size="10.00">src/EventFactory.cpp</text>
</a>
</g>
</g>
<!-- Node1&#45;&gt;Node3 -->
<g id="edge2" class="edge"><title>Node1&#45;&gt;Node3</title>
<path fill="none" stroke="midnightblue" d="M403.503,-54.4734C351.152,-44.2678 272.728,-28.9794 224.186,-19.5164"/>
<polygon fill="midnightblue" stroke="midnightblue" points="403.124,-57.9654 413.609,-56.4435 404.463,-51.0947 403.124,-57.9654"/>
</g>
<!-- Node4 -->
<g id="node4" class="node"><title>Node4</title>
<g id="a_node4"><a xlink:href="_floor_8cpp.html" target="_top" xlink:title="src/Floor.cpp">
<polygon fill="white" stroke="black" points="260,-0.5 260,-19.5 345,-19.5 345,-0.5 260,-0.5"/>
<text text-anchor="middle" x="302.5" y="-7.5" font-family="Ubuntu Mono" font-size="10.00">src/Floor.cpp</text>
</a>
</g>
</g>
<!-- Node1&#45;&gt;Node4 -->
<g id="edge3" class="edge"><title>Node1&#45;&gt;Node4</title>
<path fill="none" stroke="midnightblue" d="M423.168,-53.0392C394.003,-42.8786 352.863,-28.5457 326.945,-19.5164"/>
<polygon fill="midnightblue" stroke="midnightblue" points="422.345,-56.4587 432.94,-56.4435 424.648,-49.8484 422.345,-56.4587"/>
</g>
<!-- Node5 -->
<g id="node5" class="node"><title>Node5</title>
<g id="a_node5"><a xlink:href="main_8cpp.html" target="_top" xlink:title="src/main.cpp">
<polygon fill="white" stroke="black" points="363.5,-0.5 363.5,-19.5 443.5,-19.5 443.5,-0.5 363.5,-0.5"/>
<text text-anchor="middle" x="403.5" y="-7.5" font-family="Ubuntu Mono" font-size="10.00">src/main.cpp</text>
</a>
</g>
</g>
<!-- Node1&#45;&gt;Node5 -->
<g id="edge4" class="edge"><title>Node1&#45;&gt;Node5</title>
<path fill="none" stroke="midnightblue" d="M441.502,-49.0024C431.933,-39.4329 420.139,-27.6389 412.251,-19.7511"/>
<polygon fill="midnightblue" stroke="midnightblue" points="439.037,-51.4868 448.583,-56.083 443.987,-46.537 439.037,-51.4868"/>
</g>
<!-- Node6 -->
<g id="node6" class="node"><title>Node6</title>
<g id="a_node6"><a xlink:href="_reporter_8cpp.html" target="_top" xlink:title="src/Reporter.cpp">
<polygon fill="white" stroke="black" points="462,-0.5 462,-19.5 563,-19.5 563,-0.5 462,-0.5"/>
<text text-anchor="middle" x="512.5" y="-7.5" font-family="Ubuntu Mono" font-size="10.00">src/Reporter.cpp</text>
</a>
</g>
</g>
<!-- Node1&#45;&gt;Node6 -->
<g id="edge5" class="edge"><title>Node1&#45;&gt;Node6</title>
<path fill="none" stroke="midnightblue" d="M473.794,-49.0024C483.541,-39.4329 495.553,-27.6389 503.587,-19.7511"/>
<polygon fill="midnightblue" stroke="midnightblue" points="471.266,-46.5796 466.582,-56.083 476.17,-51.5746 471.266,-46.5796"/>
</g>
<!-- Node7 -->
<g id="node7" class="node"><title>Node7</title>
<g id="a_node7"><a xlink:href="_scenario_8cpp.html" target="_top" xlink:title="src/Scenario.cpp">
<polygon fill="white" stroke="black" points="581,-0.5 581,-19.5 682,-19.5 682,-0.5 581,-0.5"/>
<text text-anchor="middle" x="631.5" y="-7.5" font-family="Ubuntu Mono" font-size="10.00">src/Scenario.cpp</text>
</a>
</g>
</g>
<!-- Node1&#45;&gt;Node7 -->
<g id="edge6" class="edge"><title>Node1&#45;&gt;Node7</title>
<path fill="none" stroke="midnightblue" d="M494.761,-53.4363C527.567,-43.2551 574.583,-28.664 604.058,-19.5164"/>
<polygon fill="midnightblue" stroke="midnightblue" points="493.584,-50.1368 485.071,-56.4435 495.659,-56.8222 493.584,-50.1368"/>
</g>
<!-- Node8 -->
<g id="node8" class="node"><title>Node8</title>
<g id="a_node8"><a xlink:href="_simulator_8cpp.html" target="_top" xlink:title="src/Simulator.cpp">
<polygon fill="white" stroke="black" points="700.5,-0.5 700.5,-19.5 806.5,-19.5 806.5,-0.5 700.5,-0.5"/>
<text text-anchor="middle" x="753.5" y="-7.5" font-family="Ubuntu Mono" font-size="10.00">src/Simulator.cpp</text>
</a>
</g>
</g>
<!-- Node1&#45;&gt;Node8 -->
<g id="edge7" class="edge"><title>Node1&#45;&gt;Node8</title>
<path fill="none" stroke="midnightblue" d="M514.503,-54.6007C570.444,-44.3953 654.73,-29.0189 706.817,-19.5164"/>
<polygon fill="midnightblue" stroke="midnightblue" points="513.612,-51.2056 504.402,-56.4435 514.868,-58.0919 513.612,-51.2056"/>
</g>
<!-- Node9 -->
<g id="node9" class="node"><title>Node9</title>
<g id="a_node9"><a xlink:href="_statistics_8cpp.html" target="_top" xlink:title="src/Statistics.cpp">
<polygon fill="white" stroke="black" points="824,-0.5 824,-19.5 935,-19.5 935,-0.5 824,-0.5"/>
<text text-anchor="middle" x="879.5" y="-7.5" font-family="Ubuntu Mono" font-size="10.00">src/Statistics.cpp</text>
</a>
</g>
</g>
<!-- Node1&#45;&gt;Node9 -->
<g id="edge8" class="edge"><title>Node1&#45;&gt;Node9</title>
<path fill="none" stroke="midnightblue" d="M523.289,-57.0238C595.13,-48.2454 713.557,-33.5742 815.5,-20 818.169,-19.6446 820.901,-19.2767 823.659,-18.9018"/>
<polygon fill="midnightblue" stroke="midnightblue" points="522.537,-53.5895 513.035,-58.2754 523.385,-60.5379 522.537,-53.5895"/>
</g>
</g>
</svg>
