<?xml version="1.0" encoding="UTF-8" standalone="no"?>
<!DOCTYPE svg PUBLIC "-//W3C//DTD SVG 1.1//EN"
 "http://www.w3.org/Graphics/SVG/1.1/DTD/svg11.dtd">
<!-- Generated by graphviz version 2.38.0 (20140413.2041)
 -->
<!-- Title: include/Scenario.h Pages: 1 -->
<svg width="250pt" height="84pt"
 viewBox="0.00 0.00 249.50 84.00" xmlns="http://www.w3.org/2000/svg" xmlns:xlink="http://www.w3.org/1999/xlink">
<g id="graph0" class="graph" transform="scale(1 1) rotate(0) translate(4 80)">
<title>include/Scenario.h</title>
<polygon fill="white" stroke="none" points="-4,4 -4,-80 245.5,-80 245.5,4 -4,4"/>
<!-- Node1 -->
<g id="node1" class="node"><title>Node1</title>
<polygon fill="#bfbfbf" stroke="black" points="63,-56.5 63,-75.5 174,-75.5 174,-56.5 63,-56.5"/>
<text text-anchor="middle" x="118.5" y="-63.5" font-family="Ubuntu Mono" font-size="10.00">include/Scenario.h</text>
</g>
<!-- Node2 -->
<g id="node2" class="node"><title>Node2</title>
<polygon fill="white" stroke="#bfbfbf" points="0,-0.5 0,-19.5 43,-19.5 43,-0.5 0,-0.5"/>
<text text-anchor="middle" x="21.5" y="-7.5" font-family="Ubuntu Mono" font-size="10.00">ctime</text>
</g>
<!-- Node1&#45;&gt;Node2 -->
<g id="edge1" class="edge"><title>Node1&#45;&gt;Node2</title>
<path fill="none" stroke="midnightblue" d="M102.915,-56.324C87.5009,-47.7428 63.6878,-34.486 45.7903,-24.5224"/>
<polygon fill="midnightblue" stroke="midnightblue" points="47.4858,-21.4606 37.0461,-19.6545 44.0809,-27.5767 47.4858,-21.4606"/>
</g>
<!-- Node3 -->
<g id="node3" class="node"><title>Node3</title>
<polygon fill="white" stroke="#bfbfbf" points="61.5,-0.5 61.5,-19.5 109.5,-19.5 109.5,-0.5 61.5,-0.5"/>
<text text-anchor="middle" x="85.5" y="-7.5" font-family="Ubuntu Mono" font-size="10.00">memory</text>
</g>
<!-- Node1&#45;&gt;Node3 -->
<g id="edge2" class="edge"><title>Node1&#45;&gt;Node3</title>
<path fill="none" stroke="midnightblue" d="M113.051,-56.083C108.486,-48.6127 101.832,-37.7244 96.2066,-28.5199"/>
<polygon fill="midnightblue" stroke="midnightblue" points="99.0489,-26.4588 90.8479,-19.7511 93.0759,-30.109 99.0489,-26.4588"/>
</g>
<!-- Node4 -->
<g id="node4" class="node"><title>Node4</title>
<polygon fill="white" stroke="#bfbfbf" points="127.5,-0.5 127.5,-19.5 175.5,-19.5 175.5,-0.5 127.5,-0.5"/>
<text text-anchor="middle" x="151.5" y="-7.5" font-family="Ubuntu Mono" font-size="10.00">string</text>
</g>
<!-- Node1&#45;&gt;Node4 -->
<g id="edge3" class="edge"><title>Node1&#45;&gt;Node4</title>
<path fill="none" stroke="midnightblue" d="M123.949,-56.083C128.514,-48.6127 135.168,-37.7244 140.793,-28.5199"/>
<polygon fill="midnightblue" stroke="midnightblue" points="143.924,-30.109 146.152,-19.7511 137.951,-26.4588 143.924,-30.109"/>
</g>
<!-- Node5 -->
<g id="node5" class="node"><title>Node5</title>
<polygon fill="white" stroke="#bfbfbf" points="193.5,-0.5 193.5,-19.5 241.5,-19.5 241.5,-0.5 193.5,-0.5"/>
<text text-anchor="middle" x="217.5" y="-7.5" font-family="Ubuntu Mono" font-size="10.00">vector</text>
</g>
<!-- Node1&#45;&gt;Node5 -->
<g id="edge4" class="edge"><title>Node1&#45;&gt;Node5</title>
<path fill="none" stroke="midnightblue" d="M134.406,-56.324C150.138,-47.7428 174.442,-34.486 192.709,-24.5224"/>
<polygon fill="midnightblue" stroke="midnightblue" points="194.53,-27.5157 201.633,-19.6545 191.178,-21.3704 194.53,-27.5157"/>
</g>
</g>
</svg>
