<?xml version="1.0" encoding="UTF-8" standalone="no"?>
<!DOCTYPE svg PUBLIC "-//W3C//DTD SVG 1.1//EN"
 "http://www.w3.org/Graphics/SVG/1.1/DTD/svg11.dtd">
<!-- Generated by graphviz version 2.38.0 (20140413.2041)
 -->
<!-- Title: include/Scenario.h Pages: 1 -->
<svg width="846pt" height="84pt"
 viewBox="0.00 0.00 845.50 84.00" xmlns="http://www.w3.org/2000/svg" xmlns:xlink="http://www.w3.org/1999/xlink">
<g id="graph0" class="graph" transform="scale(1 1) rotate(0) translate(4 80)">
<title>include/Scenario.h</title>
<polygon fill="white" stroke="none" points="-4,4 -4,-80 841.5,-80 841.5,4 -4,4"/>
<!-- Node1 -->
<g id="node1" class="node"><title>Node1</title>
<polygon fill="#bfbfbf" stroke="black" points="363.5,-56.5 363.5,-75.5 460.5,-75.5 460.5,-56.5 363.5,-56.5"/>
<text text-anchor="middle" x="412" y="-63.5" font-family="Helvetica,sans-Serif" font-size="10.00">include/Scenario.h</text>
</g>
<!-- Node2 -->
<g id="node2" class="node"><title>Node2</title>
<g id="a_node2"><a xlink:href="_elevator_8cpp.html" target="_top" xlink:title="src/Elevator.cpp">
<polygon fill="white" stroke="black" points="0,-0.5 0,-19.5 88,-19.5 88,-0.5 0,-0.5"/>
<text text-anchor="middle" x="44" y="-7.5" font-family="Helvetica,sans-Serif" font-size="10.00">src/Elevator.cpp</text>
</a>
</g>
</g>
<!-- Node1&#45;&gt;Node2 -->
<g id="edge1" class="edge"><title>Node1&#45;&gt;Node2</title>
<path fill="none" stroke="midnightblue" d="M353.182,-57.0683C289.855,-48.4184 186.186,-33.9403 97,-20 94.1414,-19.5532 91.198,-19.0826 88.2322,-18.6006"/>
<polygon fill="midnightblue" stroke="midnightblue" points="352.993,-60.5748 363.374,-58.4576 353.939,-53.6389 352.993,-60.5748"/>
</g>
<!-- Node3 -->
<g id="node3" class="node"><title>Node3</title>
<g id="a_node3"><a xlink:href="_event_factory_8cpp.html" target="_top" xlink:title="src/EventFactory.cpp">
<polygon fill="white" stroke="black" points="106,-0.5 106,-19.5 216,-19.5 216,-0.5 106,-0.5"/>
<text text-anchor="middle" x="161" y="-7.5" font-family="Helvetica,sans-Serif" font-size="10.00">src/EventFactory.cpp</text>
</a>
</g>
</g>
<!-- Node1&#45;&gt;Node3 -->
<g id="edge2" class="edge"><title>Node1&#45;&gt;Node3</title>
<path fill="none" stroke="midnightblue" d="M362.179,-54.2815C314.747,-44.0769 244.296,-28.9203 200.586,-19.5164"/>
<polygon fill="midnightblue" stroke="midnightblue" points="361.716,-57.7619 372.228,-56.4435 363.188,-50.9185 361.716,-57.7619"/>
</g>
<!-- Node4 -->
<g id="node4" class="node"><title>Node4</title>
<g id="a_node4"><a xlink:href="_floor_8cpp.html" target="_top" xlink:title="src/Floor.cpp">
<polygon fill="white" stroke="black" points="234,-0.5 234,-19.5 308,-19.5 308,-0.5 234,-0.5"/>
<text text-anchor="middle" x="271" y="-7.5" font-family="Helvetica,sans-Serif" font-size="10.00">src/Floor.cpp</text>
</a>
</g>
</g>
<!-- Node1&#45;&gt;Node4 -->
<g id="edge3" class="edge"><title>Node1&#45;&gt;Node4</title>
<path fill="none" stroke="midnightblue" d="M380.071,-52.772C353.586,-42.6287 316.608,-28.4669 293.237,-19.5164"/>
<polygon fill="midnightblue" stroke="midnightblue" points="379.068,-56.1355 389.658,-56.4435 381.571,-49.5985 379.068,-56.1355"/>
</g>
<!-- Node5 -->
<g id="node5" class="node"><title>Node5</title>
<g id="a_node5"><a xlink:href="main_8cpp.html" target="_top" xlink:title="src/main.cpp">
<polygon fill="white" stroke="black" points="326.5,-0.5 326.5,-19.5 399.5,-19.5 399.5,-0.5 326.5,-0.5"/>
<text text-anchor="middle" x="363" y="-7.5" font-family="Helvetica,sans-Serif" font-size="10.00">src/main.cpp</text>
</a>
</g>
</g>
<!-- Node1&#45;&gt;Node5 -->
<g id="edge4" class="edge"><title>Node1&#45;&gt;Node5</title>
<path fill="none" stroke="midnightblue" d="M396.966,-48.4314C388.378,-38.9673 377.957,-27.4827 370.941,-19.7511"/>
<polygon fill="midnightblue" stroke="midnightblue" points="394.597,-51.0293 403.909,-56.083 399.781,-46.3254 394.597,-51.0293"/>
</g>
<!-- Node6 -->
<g id="node6" class="node"><title>Node6</title>
<g id="a_node6"><a xlink:href="_reporter_8cpp.html" target="_top" xlink:title="src/Reporter.cpp">
<polygon fill="white" stroke="black" points="417.5,-0.5 417.5,-19.5 506.5,-19.5 506.5,-0.5 417.5,-0.5"/>
<text text-anchor="middle" x="462" y="-7.5" font-family="Helvetica,sans-Serif" font-size="10.00">src/Reporter.cpp</text>
</a>
</g>
</g>
<!-- Node1&#45;&gt;Node6 -->
<g id="edge5" class="edge"><title>Node1&#45;&gt;Node6</title>
<path fill="none" stroke="midnightblue" d="M427.076,-48.7175C435.889,-39.1997 446.666,-27.5608 453.897,-19.7511"/>
<polygon fill="midnightblue" stroke="midnightblue" points="424.482,-46.3674 420.256,-56.083 429.619,-51.1233 424.482,-46.3674"/>
</g>
<!-- Node7 -->
<g id="node7" class="node"><title>Node7</title>
<g id="a_node7"><a xlink:href="_scenario_8cpp.html" target="_top" xlink:title="src/Scenario.cpp">
<polygon fill="white" stroke="black" points="525,-0.5 525,-19.5 615,-19.5 615,-0.5 525,-0.5"/>
<text text-anchor="middle" x="570" y="-7.5" font-family="Helvetica,sans-Serif" font-size="10.00">src/Scenario.cpp</text>
</a>
</g>
</g>
<!-- Node1&#45;&gt;Node7 -->
<g id="edge6" class="edge"><title>Node1&#45;&gt;Node7</title>
<path fill="none" stroke="midnightblue" d="M446.608,-53.172C476.359,-43.0039 518.547,-28.5852 545.082,-19.5164"/>
<polygon fill="midnightblue" stroke="midnightblue" points="445.366,-49.8975 437.036,-56.4435 447.63,-56.5213 445.366,-49.8975"/>
</g>
<!-- Node8 -->
<g id="node8" class="node"><title>Node8</title>
<g id="a_node8"><a xlink:href="_simulator_8cpp.html" target="_top" xlink:title="src/Simulator.cpp">
<polygon fill="white" stroke="black" points="633.5,-0.5 633.5,-19.5 726.5,-19.5 726.5,-0.5 633.5,-0.5"/>
<text text-anchor="middle" x="680" y="-7.5" font-family="Helvetica,sans-Serif" font-size="10.00">src/Simulator.cpp</text>
</a>
</g>
</g>
<!-- Node1&#45;&gt;Node8 -->
<g id="edge7" class="edge"><title>Node1&#45;&gt;Node8</title>
<path fill="none" stroke="midnightblue" d="M464.56,-54.4096C515.209,-44.2042 590.867,-28.9597 637.733,-19.5164"/>
<polygon fill="midnightblue" stroke="midnightblue" points="463.577,-51.0372 454.465,-56.4435 464.96,-57.8993 463.577,-51.0372"/>
</g>
<!-- Node9 -->
<g id="node9" class="node"><title>Node9</title>
<g id="a_node9"><a xlink:href="_statistics_8cpp.html" target="_top" xlink:title="src/Statistics.cpp">
<polygon fill="white" stroke="black" points="744.5,-0.5 744.5,-19.5 837.5,-19.5 837.5,-0.5 744.5,-0.5"/>
<text text-anchor="middle" x="791" y="-7.5" font-family="Helvetica,sans-Serif" font-size="10.00">src/Statistics.cpp</text>
</a>
</g>
</g>
<!-- Node1&#45;&gt;Node9 -->
<g id="edge8" class="edge"><title>Node1&#45;&gt;Node9</title>
<path fill="none" stroke="midnightblue" d="M470.68,-57.2843C535.631,-48.6428 643.391,-34.0061 736,-20 738.679,-19.5949 741.429,-19.1707 744.204,-18.7365"/>
<polygon fill="midnightblue" stroke="midnightblue" points="470.084,-53.8326 460.632,-58.6188 471.005,-60.7717 470.084,-53.8326"/>
</g>
</g>
</svg>
