<?xml version="1.0" encoding="UTF-8" standalone="no"?>
<!DOCTYPE svg PUBLIC "-//W3C//DTD SVG 1.1//EN"
 "http://www.w3.org/Graphics/SVG/1.1/DTD/svg11.dtd">
<!-- Generated by graphviz version 2.38.0 (20140413.2041)
 -->
<!-- Title: src/Scenario.cpp Pages: 1 -->
<svg width="861pt" height="196pt"
 viewBox="0.00 0.00 861.00 196.00" xmlns="http://www.w3.org/2000/svg" xmlns:xlink="http://www.w3.org/1999/xlink">
<g id="graph0" class="graph" transform="scale(1 1) rotate(0) translate(4 192)">
<title>src/Scenario.cpp</title>
<polygon fill="white" stroke="none" points="-4,4 -4,-192 857,-192 857,4 -4,4"/>
<!-- Node1 -->
<g id="node1" class="node"><title>Node1</title>
<polygon fill="#bfbfbf" stroke="black" points="388,-168.5 388,-187.5 489,-187.5 489,-168.5 388,-168.5"/>
<text text-anchor="middle" x="438.5" y="-175.5" font-family="Ubuntu Mono" font-size="10.00">src/Scenario.cpp</text>
</g>
<!-- Node2 -->
<g id="node2" class="node"><title>Node2</title>
<g id="a_node2"><a xlink:href="_scenario_8h.html" target="_top" xlink:title="Scenario.h">
<polygon fill="white" stroke="black" points="404,-112.5 404,-131.5 473,-131.5 473,-112.5 404,-112.5"/>
<text text-anchor="middle" x="438.5" y="-119.5" font-family="Ubuntu Mono" font-size="10.00">Scenario.h</text>
</a>
</g>
</g>
<!-- Node1&#45;&gt;Node2 -->
<g id="edge1" class="edge"><title>Node1&#45;&gt;Node2</title>
<path fill="none" stroke="midnightblue" d="M438.5,-168.083C438.5,-161.006 438.5,-150.861 438.5,-141.986"/>
<polygon fill="midnightblue" stroke="midnightblue" points="442,-141.751 438.5,-131.751 435,-141.751 442,-141.751"/>
</g>
<!-- Node7 -->
<g id="node7" class="node"><title>Node7</title>
<g id="a_node7"><a xlink:href="_cost_function_type_8h.html" target="_top" xlink:title="CostFunctionType.h">
<polygon fill="white" stroke="black" points="275,-112.5 275,-131.5 386,-131.5 386,-112.5 275,-112.5"/>
<text text-anchor="middle" x="330.5" y="-119.5" font-family="Ubuntu Mono" font-size="10.00">CostFunctionType.h</text>
</a>
</g>
</g>
<!-- Node1&#45;&gt;Node7 -->
<g id="edge6" class="edge"><title>Node1&#45;&gt;Node7</title>
<path fill="none" stroke="midnightblue" d="M421.148,-168.324C403.828,-159.664 376.985,-146.242 356.998,-136.249"/>
<polygon fill="midnightblue" stroke="midnightblue" points="358.319,-132.996 347.809,-131.655 355.188,-139.257 358.319,-132.996"/>
</g>
<!-- Node8 -->
<g id="node8" class="node"><title>Node8</title>
<g id="a_node8"><a xlink:href="_missing_cost_function_error_8h.html" target="_top" xlink:title="MissingCostFunctionError.h">
<polygon fill="white" stroke="black" points="155,-56.5 155,-75.5 308,-75.5 308,-56.5 155,-56.5"/>
<text text-anchor="middle" x="231.5" y="-63.5" font-family="Ubuntu Mono" font-size="10.00">MissingCostFunctionError.h</text>
</a>
</g>
</g>
<!-- Node1&#45;&gt;Node8 -->
<g id="edge22" class="edge"><title>Node1&#45;&gt;Node8</title>
<path fill="none" stroke="midnightblue" d="M387.832,-174.623C350.498,-170.497 300.361,-159.713 265.5,-132 250.579,-120.138 241.484,-99.9282 236.502,-85.1862"/>
<polygon fill="midnightblue" stroke="midnightblue" points="239.847,-84.1561 233.577,-75.6156 233.153,-86.2019 239.847,-84.1561"/>
</g>
<!-- Node10 -->
<g id="node10" class="node"><title>Node10</title>
<g id="a_node10"><a xlink:href="_scheduler_type_8h.html" target="_top" xlink:title="SchedulerType.h">
<polygon fill="white" stroke="black" points="37,-112.5 37,-131.5 132,-131.5 132,-112.5 37,-112.5"/>
<text text-anchor="middle" x="84.5" y="-119.5" font-family="Ubuntu Mono" font-size="10.00">SchedulerType.h</text>
</a>
</g>
</g>
<!-- Node1&#45;&gt;Node10 -->
<g id="edge10" class="edge"><title>Node1&#45;&gt;Node10</title>
<path fill="none" stroke="midnightblue" d="M387.78,-169.263C322.771,-159.346 210.338,-142.196 142.15,-131.794"/>
<polygon fill="midnightblue" stroke="midnightblue" points="142.424,-128.296 132.011,-130.247 141.369,-135.215 142.424,-128.296"/>
</g>
<!-- Node11 -->
<g id="node11" class="node"><title>Node11</title>
<g id="a_node11"><a xlink:href="_missing_scheduler_error_8h.html" target="_top" xlink:title="MissingSchedulerError.h">
<polygon fill="white" stroke="black" points="0,-56.5 0,-75.5 137,-75.5 137,-56.5 0,-56.5"/>
<text text-anchor="middle" x="68.5" y="-63.5" font-family="Ubuntu Mono" font-size="10.00">MissingSchedulerError.h</text>
</a>
</g>
</g>
<!-- Node1&#45;&gt;Node11 -->
<g id="edge23" class="edge"><title>Node1&#45;&gt;Node11</title>
<path fill="none" stroke="midnightblue" d="M395.175,-168.489C355.795,-160.378 296.265,-147.177 245.5,-132 193.118,-116.34 133.748,-93.4474 98.8038,-79.4248"/>
<polygon fill="midnightblue" stroke="midnightblue" points="99.7827,-76.0455 89.1996,-75.5469 97.1619,-82.5364 99.7827,-76.0455"/>
</g>
<!-- Node12 -->
<g id="node12" class="node"><title>Node12</title>
<g id="a_node12"><a xlink:href="_elevator_8h.html" target="_top" xlink:title="Elevator.h">
<polygon fill="white" stroke="black" points="491,-112.5 491,-131.5 560,-131.5 560,-112.5 491,-112.5"/>
<text text-anchor="middle" x="525.5" y="-119.5" font-family="Ubuntu Mono" font-size="10.00">Elevator.h</text>
</a>
</g>
</g>
<!-- Node1&#45;&gt;Node12 -->
<g id="edge13" class="edge"><title>Node1&#45;&gt;Node12</title>
<path fill="none" stroke="midnightblue" d="M452.478,-168.324C466.05,-159.9 486.88,-146.971 502.825,-137.074"/>
<polygon fill="midnightblue" stroke="midnightblue" points="504.906,-139.902 511.557,-131.655 501.214,-133.954 504.906,-139.902"/>
</g>
<!-- Node15 -->
<g id="node15" class="node"><title>Node15</title>
<g id="a_node15"><a xlink:href="_floor_8h.html" target="_top" xlink:title="Floor.h">
<polygon fill="white" stroke="black" points="578,-112.5 578,-131.5 631,-131.5 631,-112.5 578,-112.5"/>
<text text-anchor="middle" x="604.5" y="-119.5" font-family="Ubuntu Mono" font-size="10.00">Floor.h</text>
</a>
</g>
</g>
<!-- Node1&#45;&gt;Node15 -->
<g id="edge18" class="edge"><title>Node1&#45;&gt;Node15</title>
<path fill="none" stroke="midnightblue" d="M464.803,-168.444C492.851,-159.32 537.444,-144.813 568.684,-134.651"/>
<polygon fill="midnightblue" stroke="midnightblue" points="569.893,-137.938 578.32,-131.516 567.728,-131.282 569.893,-137.938"/>
</g>
<!-- Node17 -->
<g id="node17" class="node"><title>Node17</title>
<polygon fill="white" stroke="#bfbfbf" points="649.5,-112.5 649.5,-131.5 739.5,-131.5 739.5,-112.5 649.5,-112.5"/>
<text text-anchor="middle" x="694.5" y="-119.5" font-family="Ubuntu Mono" font-size="10.00">glog/logging.h</text>
</g>
<!-- Node1&#45;&gt;Node17 -->
<g id="edge24" class="edge"><title>Node1&#45;&gt;Node17</title>
<path fill="none" stroke="midnightblue" d="M479.064,-168.444C523.816,-159.004 595.883,-143.802 644.195,-133.611"/>
<polygon fill="midnightblue" stroke="midnightblue" points="645.064,-137.005 654.126,-131.516 643.619,-130.156 645.064,-137.005"/>
</g>
<!-- Node18 -->
<g id="node18" class="node"><title>Node18</title>
<polygon fill="white" stroke="#bfbfbf" points="758,-112.5 758,-131.5 853,-131.5 853,-112.5 758,-112.5"/>
<text text-anchor="middle" x="805.5" y="-119.5" font-family="Ubuntu Mono" font-size="10.00">yaml&#45;cpp/yaml.h</text>
</g>
<!-- Node1&#45;&gt;Node18 -->
<g id="edge25" class="edge"><title>Node1&#45;&gt;Node18</title>
<path fill="none" stroke="midnightblue" d="M489.001,-169.866C548.343,-161.439 650.055,-146.859 747.86,-132.081"/>
<polygon fill="midnightblue" stroke="midnightblue" points="748.558,-135.515 757.921,-130.558 747.51,-128.594 748.558,-135.515"/>
</g>
<!-- Node3 -->
<g id="node3" class="node"><title>Node3</title>
<polygon fill="white" stroke="#bfbfbf" points="393,-56.5 393,-75.5 436,-75.5 436,-56.5 393,-56.5"/>
<text text-anchor="middle" x="414.5" y="-63.5" font-family="Ubuntu Mono" font-size="10.00">ctime</text>
</g>
<!-- Node2&#45;&gt;Node3 -->
<g id="edge2" class="edge"><title>Node2&#45;&gt;Node3</title>
<path fill="none" stroke="midnightblue" d="M434.537,-112.083C431.287,-104.77 426.581,-94.1814 422.546,-85.1034"/>
<polygon fill="midnightblue" stroke="midnightblue" points="425.649,-83.4677 418.389,-75.7511 419.252,-86.3107 425.649,-83.4677"/>
</g>
<!-- Node4 -->
<g id="node4" class="node"><title>Node4</title>
<polygon fill="white" stroke="#bfbfbf" points="570.5,-56.5 570.5,-75.5 618.5,-75.5 618.5,-56.5 570.5,-56.5"/>
<text text-anchor="middle" x="594.5" y="-63.5" font-family="Ubuntu Mono" font-size="10.00">memory</text>
</g>
<!-- Node2&#45;&gt;Node4 -->
<g id="edge3" class="edge"><title>Node2&#45;&gt;Node4</title>
<path fill="none" stroke="midnightblue" d="M463.219,-112.444C489.502,-103.345 531.247,-88.8952 560.593,-78.7372"/>
<polygon fill="midnightblue" stroke="midnightblue" points="562.105,-81.9176 570.41,-75.339 559.815,-75.3027 562.105,-81.9176"/>
</g>
<!-- Node5 -->
<g id="node5" class="node"><title>Node5</title>
<polygon fill="white" stroke="#bfbfbf" points="326.5,-56.5 326.5,-75.5 374.5,-75.5 374.5,-56.5 326.5,-56.5"/>
<text text-anchor="middle" x="350.5" y="-63.5" font-family="Ubuntu Mono" font-size="10.00">string</text>
</g>
<!-- Node2&#45;&gt;Node5 -->
<g id="edge4" class="edge"><title>Node2&#45;&gt;Node5</title>
<path fill="none" stroke="midnightblue" d="M424.361,-112.324C410.634,-103.9 389.564,-90.9709 373.436,-81.0741"/>
<polygon fill="midnightblue" stroke="midnightblue" points="374.957,-77.9016 364.604,-75.6545 371.296,-83.8678 374.957,-77.9016"/>
</g>
<!-- Node6 -->
<g id="node6" class="node"><title>Node6</title>
<polygon fill="white" stroke="#bfbfbf" points="454.5,-56.5 454.5,-75.5 502.5,-75.5 502.5,-56.5 454.5,-56.5"/>
<text text-anchor="middle" x="478.5" y="-63.5" font-family="Ubuntu Mono" font-size="10.00">vector</text>
</g>
<!-- Node2&#45;&gt;Node6 -->
<g id="edge5" class="edge"><title>Node2&#45;&gt;Node6</title>
<path fill="none" stroke="midnightblue" d="M445.105,-112.083C450.755,-104.455 459.045,-93.2645 465.951,-83.9408"/>
<polygon fill="midnightblue" stroke="midnightblue" points="468.878,-85.87 472.018,-75.7511 463.253,-81.7034 468.878,-85.87"/>
</g>
<!-- Node7&#45;&gt;Node5 -->
<g id="edge9" class="edge"><title>Node7&#45;&gt;Node5</title>
<path fill="none" stroke="midnightblue" d="M333.803,-112.083C336.482,-104.849 340.349,-94.4087 343.686,-85.3968"/>
<polygon fill="midnightblue" stroke="midnightblue" points="347.068,-86.3442 347.259,-75.7511 340.504,-83.9129 347.068,-86.3442"/>
</g>
<!-- Node7&#45;&gt;Node8 -->
<g id="edge7" class="edge"><title>Node7&#45;&gt;Node8</title>
<path fill="none" stroke="midnightblue" d="M314.594,-112.324C298.862,-103.743 274.558,-90.486 256.291,-80.5224"/>
<polygon fill="midnightblue" stroke="midnightblue" points="257.822,-77.3704 247.367,-75.6545 254.47,-83.5157 257.822,-77.3704"/>
</g>
<!-- Node9 -->
<g id="node9" class="node"><title>Node9</title>
<polygon fill="white" stroke="#bfbfbf" points="117.5,-0.5 117.5,-19.5 181.5,-19.5 181.5,-0.5 117.5,-0.5"/>
<text text-anchor="middle" x="149.5" y="-7.5" font-family="Ubuntu Mono" font-size="10.00">stdexcept</text>
</g>
<!-- Node8&#45;&gt;Node9 -->
<g id="edge8" class="edge"><title>Node8&#45;&gt;Node9</title>
<path fill="none" stroke="midnightblue" d="M218.325,-56.324C205.653,-47.979 186.267,-35.2122 171.294,-25.3524"/>
<polygon fill="midnightblue" stroke="midnightblue" points="172.919,-22.2313 162.642,-19.6545 169.069,-28.0776 172.919,-22.2313"/>
</g>
<!-- Node10&#45;&gt;Node11 -->
<g id="edge11" class="edge"><title>Node10&#45;&gt;Node11</title>
<path fill="none" stroke="midnightblue" d="M81.8579,-112.083C79.7144,-104.849 76.6211,-94.4087 73.9509,-85.3968"/>
<polygon fill="midnightblue" stroke="midnightblue" points="77.2897,-84.3447 71.0929,-75.7511 70.5781,-86.3334 77.2897,-84.3447"/>
</g>
<!-- Node11&#45;&gt;Node9 -->
<g id="edge12" class="edge"><title>Node11&#45;&gt;Node9</title>
<path fill="none" stroke="midnightblue" d="M81.5141,-56.324C94.0316,-47.979 113.182,-35.2122 127.971,-25.3524"/>
<polygon fill="midnightblue" stroke="midnightblue" points="130.139,-28.1137 136.518,-19.6545 126.256,-22.2894 130.139,-28.1137"/>
</g>
<!-- Node12&#45;&gt;Node4 -->
<g id="edge15" class="edge"><title>Node12&#45;&gt;Node4</title>
<path fill="none" stroke="midnightblue" d="M536.586,-112.324C546.986,-104.185 562.761,-91.8395 575.222,-82.0874"/>
<polygon fill="midnightblue" stroke="midnightblue" points="577.494,-84.7533 583.212,-75.8339 573.18,-79.2407 577.494,-84.7533"/>
</g>
<!-- Node12&#45;&gt;Node6 -->
<g id="edge17" class="edge"><title>Node12&#45;&gt;Node6</title>
<path fill="none" stroke="midnightblue" d="M517.739,-112.083C510.963,-104.298 500.957,-92.8015 492.745,-83.3665"/>
<polygon fill="midnightblue" stroke="midnightblue" points="495.322,-80.9963 486.117,-75.7511 490.042,-85.592 495.322,-80.9963"/>
</g>
<!-- Node13 -->
<g id="node13" class="node"><title>Node13</title>
<polygon fill="white" stroke="#bfbfbf" points="520.5,-56.5 520.5,-75.5 552.5,-75.5 552.5,-56.5 520.5,-56.5"/>
<text text-anchor="middle" x="536.5" y="-63.5" font-family="Ubuntu Mono" font-size="10.00">map</text>
</g>
<!-- Node12&#45;&gt;Node13 -->
<g id="edge14" class="edge"><title>Node12&#45;&gt;Node13</title>
<path fill="none" stroke="midnightblue" d="M527.316,-112.083C528.774,-104.927 530.871,-94.6353 532.693,-85.6911"/>
<polygon fill="midnightblue" stroke="midnightblue" points="536.151,-86.2485 534.717,-75.7511 529.292,-84.8512 536.151,-86.2485"/>
</g>
<!-- Node14 -->
<g id="node14" class="node"><title>Node14</title>
<polygon fill="white" stroke="#bfbfbf" points="637,-56.5 637,-75.5 680,-75.5 680,-56.5 637,-56.5"/>
<text text-anchor="middle" x="658.5" y="-63.5" font-family="Ubuntu Mono" font-size="10.00">queue</text>
</g>
<!-- Node12&#45;&gt;Node14 -->
<g id="edge16" class="edge"><title>Node12&#45;&gt;Node14</title>
<path fill="none" stroke="midnightblue" d="M546.574,-112.444C568.56,-103.517 603.234,-89.4387 628.164,-79.3168"/>
<polygon fill="midnightblue" stroke="midnightblue" points="629.576,-82.5213 637.524,-75.5164 626.942,-76.0355 629.576,-82.5213"/>
</g>
<!-- Node15&#45;&gt;Node4 -->
<g id="edge19" class="edge"><title>Node15&#45;&gt;Node4</title>
<path fill="none" stroke="midnightblue" d="M602.849,-112.083C601.524,-104.927 599.618,-94.6353 597.961,-85.6911"/>
<polygon fill="midnightblue" stroke="midnightblue" points="601.383,-84.9466 596.121,-75.7511 594.5,-86.2212 601.383,-84.9466"/>
</g>
<!-- Node15&#45;&gt;Node14 -->
<g id="edge20" class="edge"><title>Node15&#45;&gt;Node14</title>
<path fill="none" stroke="midnightblue" d="M613.417,-112.083C621.28,-104.22 632.931,-92.5688 642.419,-83.0813"/>
<polygon fill="midnightblue" stroke="midnightblue" points="645.153,-85.2971 649.749,-75.7511 640.203,-80.3473 645.153,-85.2971"/>
</g>
<!-- Node16 -->
<g id="node16" class="node"><title>Node16</title>
<polygon fill="white" stroke="#bfbfbf" points="698.5,-56.5 698.5,-75.5 730.5,-75.5 730.5,-56.5 698.5,-56.5"/>
<text text-anchor="middle" x="714.5" y="-63.5" font-family="Ubuntu Mono" font-size="10.00">set</text>
</g>
<!-- Node15&#45;&gt;Node16 -->
<g id="edge21" class="edge"><title>Node15&#45;&gt;Node16</title>
<path fill="none" stroke="midnightblue" d="M622.173,-112.324C640.314,-103.419 668.711,-89.4783 689.224,-79.4084"/>
<polygon fill="midnightblue" stroke="midnightblue" points="690.87,-82.4993 698.304,-74.9507 687.785,-76.2156 690.87,-82.4993"/>
</g>
</g>
</svg>
