<?xml version="1.0" encoding="UTF-8" standalone="no"?>
<!DOCTYPE svg PUBLIC "-//W3C//DTD SVG 1.1//EN"
 "http://www.w3.org/Graphics/SVG/1.1/DTD/svg11.dtd">
<!-- Generated by graphviz version 2.38.0 (20140413.2041)
 -->
<!-- Title: src/Scenario.cpp Pages: 1 -->
<svg width="797pt" height="196pt"
 viewBox="0.00 0.00 797.00 196.00" xmlns="http://www.w3.org/2000/svg" xmlns:xlink="http://www.w3.org/1999/xlink">
<g id="graph0" class="graph" transform="scale(1 1) rotate(0) translate(4 192)">
<title>src/Scenario.cpp</title>
<polygon fill="white" stroke="none" points="-4,4 -4,-192 793,-192 793,4 -4,4"/>
<!-- Node1 -->
<g id="node1" class="node"><title>Node1</title>
<polygon fill="#bfbfbf" stroke="black" points="366.5,-168.5 366.5,-187.5 456.5,-187.5 456.5,-168.5 366.5,-168.5"/>
<text text-anchor="middle" x="411.5" y="-175.5" font-family="Helvetica,sans-Serif" font-size="10.00">src/Scenario.cpp</text>
</g>
<!-- Node2 -->
<g id="node2" class="node"><title>Node2</title>
<g id="a_node2"><a xlink:href="_scenario_8h.html" target="_top" xlink:title="Scenario.h">
<polygon fill="white" stroke="black" points="380,-112.5 380,-131.5 443,-131.5 443,-112.5 380,-112.5"/>
<text text-anchor="middle" x="411.5" y="-119.5" font-family="Helvetica,sans-Serif" font-size="10.00">Scenario.h</text>
</a>
</g>
</g>
<!-- Node1&#45;&gt;Node2 -->
<g id="edge1" class="edge"><title>Node1&#45;&gt;Node2</title>
<path fill="none" stroke="midnightblue" d="M411.5,-168.083C411.5,-161.006 411.5,-150.861 411.5,-141.986"/>
<polygon fill="midnightblue" stroke="midnightblue" points="415,-141.751 411.5,-131.751 408,-141.751 415,-141.751"/>
</g>
<!-- Node7 -->
<g id="node7" class="node"><title>Node7</title>
<g id="a_node7"><a xlink:href="_cost_function_type_8h.html" target="_top" xlink:title="CostFunctionType.h">
<polygon fill="white" stroke="black" points="257,-112.5 257,-131.5 362,-131.5 362,-112.5 257,-112.5"/>
<text text-anchor="middle" x="309.5" y="-119.5" font-family="Helvetica,sans-Serif" font-size="10.00">CostFunctionType.h</text>
</a>
</g>
</g>
<!-- Node1&#45;&gt;Node7 -->
<g id="edge6" class="edge"><title>Node1&#45;&gt;Node7</title>
<path fill="none" stroke="midnightblue" d="M395.112,-168.324C378.829,-159.703 353.633,-146.364 334.784,-136.386"/>
<polygon fill="midnightblue" stroke="midnightblue" points="336.323,-133.24 325.847,-131.655 333.048,-139.427 336.323,-133.24"/>
</g>
<!-- Node8 -->
<g id="node8" class="node"><title>Node8</title>
<g id="a_node8"><a xlink:href="_missing_cost_function_error_8h.html" target="_top" xlink:title="MissingCostFunctionError.h">
<polygon fill="white" stroke="black" points="141.5,-56.5 141.5,-75.5 279.5,-75.5 279.5,-56.5 141.5,-56.5"/>
<text text-anchor="middle" x="210.5" y="-63.5" font-family="Helvetica,sans-Serif" font-size="10.00">MissingCostFunctionError.h</text>
</a>
</g>
</g>
<!-- Node1&#45;&gt;Node8 -->
<g id="edge22" class="edge"><title>Node1&#45;&gt;Node8</title>
<path fill="none" stroke="midnightblue" d="M366.263,-173.956C330.76,-169.514 281.772,-158.629 247.5,-132 232.153,-120.076 222.104,-99.8762 216.404,-85.1537"/>
<polygon fill="midnightblue" stroke="midnightblue" points="219.655,-83.849 213.009,-75.5981 213.059,-86.1929 219.655,-83.849"/>
</g>
<!-- Node10 -->
<g id="node10" class="node"><title>Node10</title>
<g id="a_node10"><a xlink:href="_scheduler_type_8h.html" target="_top" xlink:title="SchedulerType.h">
<polygon fill="white" stroke="black" points="29.5,-112.5 29.5,-131.5 119.5,-131.5 119.5,-112.5 29.5,-112.5"/>
<text text-anchor="middle" x="74.5" y="-119.5" font-family="Helvetica,sans-Serif" font-size="10.00">SchedulerType.h</text>
</a>
</g>
</g>
<!-- Node1&#45;&gt;Node10 -->
<g id="edge10" class="edge"><title>Node1&#45;&gt;Node10</title>
<path fill="none" stroke="midnightblue" d="M366.4,-169.773C305.197,-159.966 195.911,-142.455 129.823,-131.865"/>
<polygon fill="midnightblue" stroke="midnightblue" points="130.029,-128.353 119.601,-130.227 128.922,-135.265 130.029,-128.353"/>
</g>
<!-- Node11 -->
<g id="node11" class="node"><title>Node11</title>
<g id="a_node11"><a xlink:href="_missing_scheduler_error_8h.html" target="_top" xlink:title="MissingSchedulerError.h">
<polygon fill="white" stroke="black" points="0,-56.5 0,-75.5 123,-75.5 123,-56.5 0,-56.5"/>
<text text-anchor="middle" x="61.5" y="-63.5" font-family="Helvetica,sans-Serif" font-size="10.00">MissingSchedulerError.h</text>
</a>
</g>
</g>
<!-- Node1&#45;&gt;Node11 -->
<g id="edge23" class="edge"><title>Node1&#45;&gt;Node11</title>
<path fill="none" stroke="midnightblue" d="M369.168,-168.429C331.375,-160.37 274.71,-147.28 226.5,-132 177.693,-116.53 122.669,-93.7302 90.1015,-79.6513"/>
<polygon fill="midnightblue" stroke="midnightblue" points="91.3129,-76.3614 80.7469,-75.5797 88.5192,-82.7798 91.3129,-76.3614"/>
</g>
<!-- Node12 -->
<g id="node12" class="node"><title>Node12</title>
<g id="a_node12"><a xlink:href="_elevator_8h.html" target="_top" xlink:title="Elevator.h">
<polygon fill="white" stroke="black" points="461,-112.5 461,-131.5 522,-131.5 522,-112.5 461,-112.5"/>
<text text-anchor="middle" x="491.5" y="-119.5" font-family="Helvetica,sans-Serif" font-size="10.00">Elevator.h</text>
</a>
</g>
</g>
<!-- Node1&#45;&gt;Node12 -->
<g id="edge13" class="edge"><title>Node1&#45;&gt;Node12</title>
<path fill="none" stroke="midnightblue" d="M424.353,-168.324C436.716,-159.979 455.63,-147.212 470.237,-137.352"/>
<polygon fill="midnightblue" stroke="midnightblue" points="472.348,-140.15 478.679,-131.655 468.432,-134.348 472.348,-140.15"/>
</g>
<!-- Node15 -->
<g id="node15" class="node"><title>Node15</title>
<g id="a_node15"><a xlink:href="_floor_8h.html" target="_top" xlink:title="Floor.h">
<polygon fill="white" stroke="black" points="540,-112.5 540,-131.5 587,-131.5 587,-112.5 540,-112.5"/>
<text text-anchor="middle" x="563.5" y="-119.5" font-family="Helvetica,sans-Serif" font-size="10.00">Floor.h</text>
</a>
</g>
</g>
<!-- Node1&#45;&gt;Node15 -->
<g id="edge18" class="edge"><title>Node1&#45;&gt;Node15</title>
<path fill="none" stroke="midnightblue" d="M435.585,-168.444C461.045,-159.399 501.394,-145.064 529.959,-134.916"/>
<polygon fill="midnightblue" stroke="midnightblue" points="531.277,-138.162 539.528,-131.516 528.933,-131.566 531.277,-138.162"/>
</g>
<!-- Node17 -->
<g id="node17" class="node"><title>Node17</title>
<polygon fill="white" stroke="#bfbfbf" points="605,-112.5 605,-131.5 682,-131.5 682,-112.5 605,-112.5"/>
<text text-anchor="middle" x="643.5" y="-119.5" font-family="Helvetica,sans-Serif" font-size="10.00">glog/logging.h</text>
</g>
<!-- Node1&#45;&gt;Node17 -->
<g id="edge24" class="edge"><title>Node1&#45;&gt;Node17</title>
<path fill="none" stroke="midnightblue" d="M448.261,-168.444C488.563,-159.063 553.309,-143.993 597.085,-133.804"/>
<polygon fill="midnightblue" stroke="midnightblue" points="597.965,-137.192 606.911,-131.516 596.378,-130.375 597.965,-137.192"/>
</g>
<!-- Node18 -->
<g id="node18" class="node"><title>Node18</title>
<polygon fill="white" stroke="#bfbfbf" points="700,-112.5 700,-131.5 789,-131.5 789,-112.5 700,-112.5"/>
<text text-anchor="middle" x="744.5" y="-119.5" font-family="Helvetica,sans-Serif" font-size="10.00">yaml&#45;cpp/yaml.h</text>
</g>
<!-- Node1&#45;&gt;Node18 -->
<g id="edge25" class="edge"><title>Node1&#45;&gt;Node18</title>
<path fill="none" stroke="midnightblue" d="M456.62,-169.874C509.976,-161.42 601.744,-146.793 690.057,-132.228"/>
<polygon fill="midnightblue" stroke="midnightblue" points="690.676,-135.673 699.972,-130.591 689.535,-128.767 690.676,-135.673"/>
</g>
<!-- Node3 -->
<g id="node3" class="node"><title>Node3</title>
<polygon fill="white" stroke="#bfbfbf" points="357,-56.5 357,-75.5 398,-75.5 398,-56.5 357,-56.5"/>
<text text-anchor="middle" x="377.5" y="-63.5" font-family="Helvetica,sans-Serif" font-size="10.00">ctime</text>
</g>
<!-- Node2&#45;&gt;Node3 -->
<g id="edge2" class="edge"><title>Node2&#45;&gt;Node3</title>
<path fill="none" stroke="midnightblue" d="M405.886,-112.083C401.133,-104.534 394.182,-93.4948 388.348,-84.2298"/>
<polygon fill="midnightblue" stroke="midnightblue" points="391.3,-82.3486 383.01,-75.7511 385.376,-86.0783 391.3,-82.3486"/>
</g>
<!-- Node4 -->
<g id="node4" class="node"><title>Node4</title>
<polygon fill="white" stroke="#bfbfbf" points="532.5,-56.5 532.5,-75.5 584.5,-75.5 584.5,-56.5 532.5,-56.5"/>
<text text-anchor="middle" x="558.5" y="-63.5" font-family="Helvetica,sans-Serif" font-size="10.00">memory</text>
</g>
<!-- Node2&#45;&gt;Node4 -->
<g id="edge3" class="edge"><title>Node2&#45;&gt;Node4</title>
<path fill="none" stroke="midnightblue" d="M434.793,-112.444C459.307,-103.438 498.096,-89.1891 525.7,-79.049"/>
<polygon fill="midnightblue" stroke="midnightblue" points="527.137,-82.25 535.316,-75.5164 524.723,-75.6793 527.137,-82.25"/>
</g>
<!-- Node5 -->
<g id="node5" class="node"><title>Node5</title>
<polygon fill="white" stroke="#bfbfbf" points="298,-56.5 298,-75.5 339,-75.5 339,-56.5 298,-56.5"/>
<text text-anchor="middle" x="318.5" y="-63.5" font-family="Helvetica,sans-Serif" font-size="10.00">string</text>
</g>
<!-- Node2&#45;&gt;Node5 -->
<g id="edge4" class="edge"><title>Node2&#45;&gt;Node5</title>
<path fill="none" stroke="midnightblue" d="M396.558,-112.324C381.915,-103.822 359.366,-90.7288 342.262,-80.7975"/>
<polygon fill="midnightblue" stroke="midnightblue" points="343.81,-77.6491 333.405,-75.6545 340.295,-83.7027 343.81,-77.6491"/>
</g>
<!-- Node6 -->
<g id="node6" class="node"><title>Node6</title>
<polygon fill="white" stroke="#bfbfbf" points="416.5,-56.5 416.5,-75.5 460.5,-75.5 460.5,-56.5 416.5,-56.5"/>
<text text-anchor="middle" x="438.5" y="-63.5" font-family="Helvetica,sans-Serif" font-size="10.00">vector</text>
</g>
<!-- Node2&#45;&gt;Node6 -->
<g id="edge5" class="edge"><title>Node2&#45;&gt;Node6</title>
<path fill="none" stroke="midnightblue" d="M415.959,-112.083C419.654,-104.691 425.023,-93.9533 429.594,-84.8111"/>
<polygon fill="midnightblue" stroke="midnightblue" points="432.783,-86.2606 434.124,-75.7511 426.522,-83.1301 432.783,-86.2606"/>
</g>
<!-- Node7&#45;&gt;Node5 -->
<g id="edge9" class="edge"><title>Node7&#45;&gt;Node5</title>
<path fill="none" stroke="midnightblue" d="M310.986,-112.083C312.179,-104.927 313.894,-94.6353 315.385,-85.6911"/>
<polygon fill="midnightblue" stroke="midnightblue" points="318.85,-86.1904 317.041,-75.7511 311.945,-85.0396 318.85,-86.1904"/>
</g>
<!-- Node7&#45;&gt;Node8 -->
<g id="edge7" class="edge"><title>Node7&#45;&gt;Node8</title>
<path fill="none" stroke="midnightblue" d="M293.594,-112.324C277.862,-103.743 253.558,-90.486 235.291,-80.5224"/>
<polygon fill="midnightblue" stroke="midnightblue" points="236.822,-77.3704 226.367,-75.6545 233.47,-83.5157 236.822,-77.3704"/>
</g>
<!-- Node9 -->
<g id="node9" class="node"><title>Node9</title>
<polygon fill="white" stroke="#bfbfbf" points="106,-0.5 106,-19.5 165,-19.5 165,-0.5 106,-0.5"/>
<text text-anchor="middle" x="135.5" y="-7.5" font-family="Helvetica,sans-Serif" font-size="10.00">stdexcept</text>
</g>
<!-- Node8&#45;&gt;Node9 -->
<g id="edge8" class="edge"><title>Node8&#45;&gt;Node9</title>
<path fill="none" stroke="midnightblue" d="M198.45,-56.324C187.037,-48.1066 169.669,-35.6017 156.065,-25.8069"/>
<polygon fill="midnightblue" stroke="midnightblue" points="157.93,-22.8366 147.769,-19.8339 153.84,-28.5174 157.93,-22.8366"/>
</g>
<!-- Node10&#45;&gt;Node11 -->
<g id="edge11" class="edge"><title>Node10&#45;&gt;Node11</title>
<path fill="none" stroke="midnightblue" d="M72.3533,-112.083C70.6306,-104.927 68.1529,-94.6353 65.9997,-85.6911"/>
<polygon fill="midnightblue" stroke="midnightblue" points="69.3501,-84.6541 63.6067,-75.7511 62.5446,-86.2925 69.3501,-84.6541"/>
</g>
<!-- Node11&#45;&gt;Node9 -->
<g id="edge12" class="edge"><title>Node11&#45;&gt;Node9</title>
<path fill="none" stroke="midnightblue" d="M73.3894,-56.324C84.6502,-48.1066 101.787,-35.6017 115.209,-25.8069"/>
<polygon fill="midnightblue" stroke="midnightblue" points="117.38,-28.5559 123.394,-19.8339 113.253,-22.9014 117.38,-28.5559"/>
</g>
<!-- Node12&#45;&gt;Node4 -->
<g id="edge15" class="edge"><title>Node12&#45;&gt;Node4</title>
<path fill="none" stroke="midnightblue" d="M502.265,-112.324C512.266,-104.263 527.387,-92.0765 539.43,-82.3695"/>
<polygon fill="midnightblue" stroke="midnightblue" points="541.95,-84.8343 547.539,-75.8339 537.557,-79.3841 541.95,-84.8343"/>
</g>
<!-- Node12&#45;&gt;Node6 -->
<g id="edge17" class="edge"><title>Node12&#45;&gt;Node6</title>
<path fill="none" stroke="midnightblue" d="M482.748,-112.083C475.03,-104.22 463.595,-92.5688 454.283,-83.0813"/>
<polygon fill="midnightblue" stroke="midnightblue" points="456.592,-80.4363 447.089,-75.7511 451.596,-85.3396 456.592,-80.4363"/>
</g>
<!-- Node13 -->
<g id="node13" class="node"><title>Node13</title>
<polygon fill="white" stroke="#bfbfbf" points="479,-56.5 479,-75.5 514,-75.5 514,-56.5 479,-56.5"/>
<text text-anchor="middle" x="496.5" y="-63.5" font-family="Helvetica,sans-Serif" font-size="10.00">map</text>
</g>
<!-- Node12&#45;&gt;Node13 -->
<g id="edge14" class="edge"><title>Node12&#45;&gt;Node13</title>
<path fill="none" stroke="midnightblue" d="M492.326,-112.083C492.981,-105.006 493.92,-94.8611 494.742,-85.9865"/>
<polygon fill="midnightblue" stroke="midnightblue" points="498.253,-86.0312 495.69,-75.7511 491.283,-85.3858 498.253,-86.0312"/>
</g>
<!-- Node14 -->
<g id="node14" class="node"><title>Node14</title>
<polygon fill="white" stroke="#bfbfbf" points="603,-56.5 603,-75.5 646,-75.5 646,-56.5 603,-56.5"/>
<text text-anchor="middle" x="624.5" y="-63.5" font-family="Helvetica,sans-Serif" font-size="10.00">queue</text>
</g>
<!-- Node12&#45;&gt;Node14 -->
<g id="edge16" class="edge"><title>Node12&#45;&gt;Node14</title>
<path fill="none" stroke="midnightblue" d="M512.574,-112.444C534.56,-103.517 569.234,-89.4387 594.164,-79.3168"/>
<polygon fill="midnightblue" stroke="midnightblue" points="595.576,-82.5213 603.524,-75.5164 592.942,-76.0355 595.576,-82.5213"/>
</g>
<!-- Node15&#45;&gt;Node4 -->
<g id="edge19" class="edge"><title>Node15&#45;&gt;Node4</title>
<path fill="none" stroke="midnightblue" d="M562.674,-112.083C562.019,-105.006 561.08,-94.8611 560.258,-85.9865"/>
<polygon fill="midnightblue" stroke="midnightblue" points="563.717,-85.3858 559.31,-75.7511 556.747,-86.0312 563.717,-85.3858"/>
</g>
<!-- Node15&#45;&gt;Node14 -->
<g id="edge20" class="edge"><title>Node15&#45;&gt;Node14</title>
<path fill="none" stroke="midnightblue" d="M573.301,-112.324C582.318,-104.341 595.906,-92.3128 606.818,-82.6529"/>
<polygon fill="midnightblue" stroke="midnightblue" points="609.353,-85.083 614.521,-75.8339 604.713,-79.8416 609.353,-85.083"/>
</g>
<!-- Node16 -->
<g id="node16" class="node"><title>Node16</title>
<polygon fill="white" stroke="#bfbfbf" points="664.5,-56.5 664.5,-75.5 694.5,-75.5 694.5,-56.5 664.5,-56.5"/>
<text text-anchor="middle" x="679.5" y="-63.5" font-family="Helvetica,sans-Serif" font-size="10.00">set</text>
</g>
<!-- Node15&#45;&gt;Node16 -->
<g id="edge21" class="edge"><title>Node15&#45;&gt;Node16</title>
<path fill="none" stroke="midnightblue" d="M581.881,-112.444C601.603,-103.262 633.033,-88.6313 654.881,-78.4605"/>
<polygon fill="midnightblue" stroke="midnightblue" points="656.58,-81.5302 664.169,-74.1368 653.626,-75.1841 656.58,-81.5302"/>
</g>
</g>
</svg>
