<?xml version="1.0" encoding="UTF-8" standalone="no"?>
<!DOCTYPE svg PUBLIC "-//W3C//DTD SVG 1.1//EN"
 "http://www.w3.org/Graphics/SVG/1.1/DTD/svg11.dtd">
<!-- Generated by graphviz version 2.38.0 (20140413.2041)
 -->
<!-- Title: include/Scenario.h Pages: 1 -->
<svg width="242pt" height="84pt"
 viewBox="0.00 0.00 241.50 84.00" xmlns="http://www.w3.org/2000/svg" xmlns:xlink="http://www.w3.org/1999/xlink">
<g id="graph0" class="graph" transform="scale(1 1) rotate(0) translate(4 80)">
<title>include/Scenario.h</title>
<polygon fill="white" stroke="none" points="-4,4 -4,-80 237.5,-80 237.5,4 -4,4"/>
<!-- Node1 -->
<g id="node1" class="node"><title>Node1</title>
<polygon fill="#bfbfbf" stroke="black" points="69,-56.5 69,-75.5 166,-75.5 166,-56.5 69,-56.5"/>
<text text-anchor="middle" x="117.5" y="-63.5" font-family="Helvetica,sans-Serif" font-size="10.00">include/Scenario.h</text>
</g>
<!-- Node2 -->
<g id="node2" class="node"><title>Node2</title>
<polygon fill="white" stroke="#bfbfbf" points="0,-0.5 0,-19.5 41,-19.5 41,-0.5 0,-0.5"/>
<text text-anchor="middle" x="20.5" y="-7.5" font-family="Helvetica,sans-Serif" font-size="10.00">ctime</text>
</g>
<!-- Node1&#45;&gt;Node2 -->
<g id="edge1" class="edge"><title>Node1&#45;&gt;Node2</title>
<path fill="none" stroke="midnightblue" d="M101.915,-56.324C86.5009,-47.7428 62.6878,-34.486 44.7903,-24.5224"/>
<polygon fill="midnightblue" stroke="midnightblue" points="46.4858,-21.4606 36.0461,-19.6545 43.0809,-27.5767 46.4858,-21.4606"/>
</g>
<!-- Node3 -->
<g id="node3" class="node"><title>Node3</title>
<polygon fill="white" stroke="#bfbfbf" points="59.5,-0.5 59.5,-19.5 111.5,-19.5 111.5,-0.5 59.5,-0.5"/>
<text text-anchor="middle" x="85.5" y="-7.5" font-family="Helvetica,sans-Serif" font-size="10.00">memory</text>
</g>
<!-- Node1&#45;&gt;Node3 -->
<g id="edge2" class="edge"><title>Node1&#45;&gt;Node3</title>
<path fill="none" stroke="midnightblue" d="M112.216,-56.083C107.789,-48.6127 101.337,-37.7244 95.8821,-28.5199"/>
<polygon fill="midnightblue" stroke="midnightblue" points="98.7949,-26.5697 90.6858,-19.7511 92.7729,-30.1383 98.7949,-26.5697"/>
</g>
<!-- Node4 -->
<g id="node4" class="node"><title>Node4</title>
<polygon fill="white" stroke="#bfbfbf" points="130,-0.5 130,-19.5 171,-19.5 171,-0.5 130,-0.5"/>
<text text-anchor="middle" x="150.5" y="-7.5" font-family="Helvetica,sans-Serif" font-size="10.00">string</text>
</g>
<!-- Node1&#45;&gt;Node4 -->
<g id="edge3" class="edge"><title>Node1&#45;&gt;Node4</title>
<path fill="none" stroke="midnightblue" d="M122.949,-56.083C127.514,-48.6127 134.168,-37.7244 139.793,-28.5199"/>
<polygon fill="midnightblue" stroke="midnightblue" points="142.924,-30.109 145.152,-19.7511 136.951,-26.4588 142.924,-30.109"/>
</g>
<!-- Node5 -->
<g id="node5" class="node"><title>Node5</title>
<polygon fill="white" stroke="#bfbfbf" points="189.5,-0.5 189.5,-19.5 233.5,-19.5 233.5,-0.5 189.5,-0.5"/>
<text text-anchor="middle" x="211.5" y="-7.5" font-family="Helvetica,sans-Serif" font-size="10.00">vector</text>
</g>
<!-- Node1&#45;&gt;Node5 -->
<g id="edge4" class="edge"><title>Node1&#45;&gt;Node5</title>
<path fill="none" stroke="midnightblue" d="M132.603,-56.324C147.403,-47.8215 170.194,-34.7288 187.482,-24.7975"/>
<polygon fill="midnightblue" stroke="midnightblue" points="189.507,-27.6707 196.435,-19.6545 186.02,-21.6009 189.507,-27.6707"/>
</g>
</g>
</svg>
