<?xml version="1.0" encoding="UTF-8" standalone="no"?>
<!DOCTYPE svg PUBLIC "-//W3C//DTD SVG 1.1//EN"
 "http://www.w3.org/Graphics/SVG/1.1/DTD/svg11.dtd">
<!-- Generated by graphviz version 2.38.0 (20140413.2041)
 -->
<!-- Title: include/Scheduler.h Pages: 1 -->
<svg width="124pt" height="84pt"
 viewBox="0.00 0.00 124.00 84.00" xmlns="http://www.w3.org/2000/svg" xmlns:xlink="http://www.w3.org/1999/xlink">
<g id="graph0" class="graph" transform="scale(1 1) rotate(0) translate(4 80)">
<title>include/Scheduler.h</title>
<polygon fill="white" stroke="none" points="-4,4 -4,-80 120,-80 120,4 -4,4"/>
<!-- Node1 -->
<g id="node1" class="node"><title>Node1</title>
<polygon fill="#bfbfbf" stroke="black" points="-7.10543e-15,-56.5 -7.10543e-15,-75.5 116,-75.5 116,-56.5 -7.10543e-15,-56.5"/>
<text text-anchor="middle" x="58" y="-63.5" font-family="Ubuntu Mono" font-size="10.00">include/Scheduler.h</text>
</g>
<!-- Node2 -->
<g id="node2" class="node"><title>Node2</title>
<polygon fill="white" stroke="#bfbfbf" points="1,-0.5 1,-19.5 49,-19.5 49,-0.5 1,-0.5"/>
<text text-anchor="middle" x="25" y="-7.5" font-family="Ubuntu Mono" font-size="10.00">memory</text>
</g>
<!-- Node1&#45;&gt;Node2 -->
<g id="edge1" class="edge"><title>Node1&#45;&gt;Node2</title>
<path fill="none" stroke="midnightblue" d="M52.5507,-56.083C47.9855,-48.6127 41.3316,-37.7244 35.7066,-28.5199"/>
<polygon fill="midnightblue" stroke="midnightblue" points="38.5489,-26.4588 30.3479,-19.7511 32.5759,-30.109 38.5489,-26.4588"/>
</g>
<!-- Node3 -->
<g id="node3" class="node"><title>Node3</title>
<polygon fill="white" stroke="#bfbfbf" points="67,-0.5 67,-19.5 115,-19.5 115,-0.5 67,-0.5"/>
<text text-anchor="middle" x="91" y="-7.5" font-family="Ubuntu Mono" font-size="10.00">vector</text>
</g>
<!-- Node1&#45;&gt;Node3 -->
<g id="edge2" class="edge"><title>Node1&#45;&gt;Node3</title>
<path fill="none" stroke="midnightblue" d="M63.4493,-56.083C68.0145,-48.6127 74.6684,-37.7244 80.2934,-28.5199"/>
<polygon fill="midnightblue" stroke="midnightblue" points="83.4241,-30.109 85.6521,-19.7511 77.4511,-26.4588 83.4241,-30.109"/>
</g>
</g>
</svg>
