<?xml version="1.0" encoding="UTF-8" standalone="no"?>
<!DOCTYPE svg PUBLIC "-//W3C//DTD SVG 1.1//EN"
 "http://www.w3.org/Graphics/SVG/1.1/DTD/svg11.dtd">
<!-- Generated by graphviz version 2.38.0 (20140413.2041)
 -->
<!-- Title: include/SchedulerCreator.h Pages: 1 -->
<svg width="439pt" height="196pt"
 viewBox="0.00 0.00 438.50 196.00" xmlns="http://www.w3.org/2000/svg" xmlns:xlink="http://www.w3.org/1999/xlink">
<g id="graph0" class="graph" transform="scale(1 1) rotate(0) translate(4 192)">
<title>include/SchedulerCreator.h</title>
<polygon fill="white" stroke="none" points="-4,4 -4,-192 434.5,-192 434.5,4 -4,4"/>
<!-- Node1 -->
<g id="node1" class="node"><title>Node1</title>
<polygon fill="#bfbfbf" stroke="black" points="59,-168.5 59,-187.5 193,-187.5 193,-168.5 59,-168.5"/>
<text text-anchor="middle" x="126" y="-175.5" font-family="Helvetica,sans-Serif" font-size="10.00">include/SchedulerCreator.h</text>
</g>
<!-- Node2 -->
<g id="node2" class="node"><title>Node2</title>
<g id="a_node2"><a xlink:href="_planning_scheduler_8h.html" target="_top" xlink:title="PlanningScheduler.h">
<polygon fill="white" stroke="black" points="133,-112.5 133,-131.5 239,-131.5 239,-112.5 133,-112.5"/>
<text text-anchor="middle" x="186" y="-119.5" font-family="Helvetica,sans-Serif" font-size="10.00">PlanningScheduler.h</text>
</a>
</g>
</g>
<!-- Node1&#45;&gt;Node2 -->
<g id="edge1" class="edge"><title>Node1&#45;&gt;Node2</title>
<path fill="none" stroke="midnightblue" d="M135.64,-168.324C144.51,-160.341 157.875,-148.313 168.608,-138.653"/>
<polygon fill="midnightblue" stroke="midnightblue" points="171.093,-141.125 176.185,-131.834 166.41,-135.922 171.093,-141.125"/>
</g>
<!-- Node6 -->
<g id="node6" class="node"><title>Node6</title>
<g id="a_node6"><a xlink:href="_scheduler_8h.html" target="_top" xlink:title="Scheduler.h">
<polygon fill="white" stroke="black" points="0,-56.5 0,-75.5 68,-75.5 68,-56.5 0,-56.5"/>
<text text-anchor="middle" x="34" y="-63.5" font-family="Helvetica,sans-Serif" font-size="10.00">Scheduler.h</text>
</a>
</g>
</g>
<!-- Node1&#45;&gt;Node6 -->
<g id="edge11" class="edge"><title>Node1&#45;&gt;Node6</title>
<path fill="none" stroke="midnightblue" d="M65.5186,-168.469C43.6816,-162.144 21.1846,-151.139 8,-132 -2.39215,-116.915 8.46449,-97.0618 19.1518,-83.2841"/>
<polygon fill="midnightblue" stroke="midnightblue" points="21.8591,-85.5026 25.5928,-75.5874 16.4909,-81.0101 21.8591,-85.5026"/>
</g>
<!-- Node10 -->
<g id="node10" class="node"><title>Node10</title>
<g id="a_node10"><a xlink:href="_scheduler_type_8h.html" target="_top" xlink:title="SchedulerType.h">
<polygon fill="white" stroke="black" points="290,-112.5 290,-131.5 380,-131.5 380,-112.5 290,-112.5"/>
<text text-anchor="middle" x="335" y="-119.5" font-family="Helvetica,sans-Serif" font-size="10.00">SchedulerType.h</text>
</a>
</g>
</g>
<!-- Node1&#45;&gt;Node10 -->
<g id="edge12" class="edge"><title>Node1&#45;&gt;Node10</title>
<path fill="none" stroke="midnightblue" d="M159.117,-168.444C195.118,-159.142 252.77,-144.246 292.186,-134.062"/>
<polygon fill="midnightblue" stroke="midnightblue" points="293.232,-137.407 302.038,-131.516 291.481,-130.629 293.232,-137.407"/>
</g>
<!-- Node13 -->
<g id="node13" class="node"><title>Node13</title>
<g id="a_node13"><a xlink:href="_simple_scheduler_8h.html" target="_top" xlink:title="SimpleScheduler.h">
<polygon fill="white" stroke="black" points="17,-112.5 17,-131.5 115,-131.5 115,-112.5 17,-112.5"/>
<text text-anchor="middle" x="66" y="-119.5" font-family="Helvetica,sans-Serif" font-size="10.00">SimpleScheduler.h</text>
</a>
</g>
</g>
<!-- Node1&#45;&gt;Node13 -->
<g id="edge15" class="edge"><title>Node1&#45;&gt;Node13</title>
<path fill="none" stroke="midnightblue" d="M116.36,-168.324C107.49,-160.341 94.1253,-148.313 83.3921,-138.653"/>
<polygon fill="midnightblue" stroke="midnightblue" points="85.5898,-135.922 75.8154,-131.834 80.907,-141.125 85.5898,-135.922"/>
</g>
<!-- Node3 -->
<g id="node3" class="node"><title>Node3</title>
<g id="a_node3"><a xlink:href="_client_8h.html" target="_top" xlink:title="Client.h">
<polygon fill="white" stroke="black" points="239,-56.5 239,-75.5 289,-75.5 289,-56.5 239,-56.5"/>
<text text-anchor="middle" x="264" y="-63.5" font-family="Helvetica,sans-Serif" font-size="10.00">Client.h</text>
</a>
</g>
</g>
<!-- Node2&#45;&gt;Node3 -->
<g id="edge2" class="edge"><title>Node2&#45;&gt;Node3</title>
<path fill="none" stroke="midnightblue" d="M198.532,-112.324C210.586,-103.979 229.027,-91.2122 243.269,-81.3524"/>
<polygon fill="midnightblue" stroke="midnightblue" points="245.269,-84.2243 251.499,-75.6545 241.285,-78.469 245.269,-84.2243"/>
</g>
<!-- Node2&#45;&gt;Node6 -->
<g id="edge5" class="edge"><title>Node2&#45;&gt;Node6</title>
<path fill="none" stroke="midnightblue" d="M161.915,-112.444C136.455,-103.399 96.1062,-89.064 67.5409,-78.9158"/>
<polygon fill="midnightblue" stroke="midnightblue" points="68.5669,-75.5661 57.9722,-75.5164 66.2235,-82.1622 68.5669,-75.5661"/>
</g>
<!-- Node7 -->
<g id="node7" class="node"><title>Node7</title>
<polygon fill="white" stroke="#bfbfbf" points="32,-0.5 32,-19.5 76,-19.5 76,-0.5 32,-0.5"/>
<text text-anchor="middle" x="54" y="-7.5" font-family="Helvetica,sans-Serif" font-size="10.00">vector</text>
</g>
<!-- Node2&#45;&gt;Node7 -->
<g id="edge10" class="edge"><title>Node2&#45;&gt;Node7</title>
<path fill="none" stroke="midnightblue" d="M189.862,-112.47C195.287,-99.0671 203.214,-72.8676 191,-56 178.572,-38.8364 122.671,-24.6945 86.2279,-17.0834"/>
<polygon fill="midnightblue" stroke="midnightblue" points="86.561,-13.5799 76.0651,-15.0238 85.1706,-20.4404 86.561,-13.5799"/>
</g>
<!-- Node8 -->
<g id="node8" class="node"><title>Node8</title>
<polygon fill="white" stroke="#bfbfbf" points="86.5,-56.5 86.5,-75.5 121.5,-75.5 121.5,-56.5 86.5,-56.5"/>
<text text-anchor="middle" x="104" y="-63.5" font-family="Helvetica,sans-Serif" font-size="10.00">map</text>
</g>
<!-- Node2&#45;&gt;Node8 -->
<g id="edge8" class="edge"><title>Node2&#45;&gt;Node8</title>
<path fill="none" stroke="midnightblue" d="M172.825,-112.324C160.153,-103.979 140.767,-91.2122 125.794,-81.3524"/>
<polygon fill="midnightblue" stroke="midnightblue" points="127.419,-78.2313 117.142,-75.6545 123.569,-84.0776 127.419,-78.2313"/>
</g>
<!-- Node9 -->
<g id="node9" class="node"><title>Node9</title>
<polygon fill="white" stroke="#bfbfbf" points="139.5,-56.5 139.5,-75.5 182.5,-75.5 182.5,-56.5 139.5,-56.5"/>
<text text-anchor="middle" x="161" y="-63.5" font-family="Helvetica,sans-Serif" font-size="10.00">queue</text>
</g>
<!-- Node2&#45;&gt;Node9 -->
<g id="edge9" class="edge"><title>Node2&#45;&gt;Node9</title>
<path fill="none" stroke="midnightblue" d="M181.872,-112.083C178.486,-104.77 173.584,-94.1814 169.381,-85.1034"/>
<polygon fill="midnightblue" stroke="midnightblue" points="172.429,-83.3553 165.051,-75.7511 166.077,-86.2962 172.429,-83.3553"/>
</g>
<!-- Node4 -->
<g id="node4" class="node"><title>Node4</title>
<polygon fill="white" stroke="#bfbfbf" points="225.5,-0.5 225.5,-19.5 302.5,-19.5 302.5,-0.5 225.5,-0.5"/>
<text text-anchor="middle" x="264" y="-7.5" font-family="Helvetica,sans-Serif" font-size="10.00">glog/logging.h</text>
</g>
<!-- Node3&#45;&gt;Node4 -->
<g id="edge3" class="edge"><title>Node3&#45;&gt;Node4</title>
<path fill="none" stroke="midnightblue" d="M264,-56.083C264,-49.0059 264,-38.8611 264,-29.9865"/>
<polygon fill="midnightblue" stroke="midnightblue" points="267.5,-29.751 264,-19.7511 260.5,-29.7511 267.5,-29.751"/>
</g>
<!-- Node5 -->
<g id="node5" class="node"><title>Node5</title>
<polygon fill="white" stroke="#bfbfbf" points="134,-0.5 134,-19.5 186,-19.5 186,-0.5 134,-0.5"/>
<text text-anchor="middle" x="160" y="-7.5" font-family="Helvetica,sans-Serif" font-size="10.00">memory</text>
</g>
<!-- Node3&#45;&gt;Node5 -->
<g id="edge4" class="edge"><title>Node3&#45;&gt;Node5</title>
<path fill="none" stroke="midnightblue" d="M247.291,-56.324C230.688,-47.7034 204.998,-34.3643 185.78,-24.3855"/>
<polygon fill="midnightblue" stroke="midnightblue" points="187.156,-21.1565 176.668,-19.6545 183.93,-27.3689 187.156,-21.1565"/>
</g>
<!-- Node6&#45;&gt;Node5 -->
<g id="edge6" class="edge"><title>Node6&#45;&gt;Node5</title>
<path fill="none" stroke="midnightblue" d="M53.9651,-56.4435C74.6091,-47.5961 107.063,-33.6875 130.632,-23.5865"/>
<polygon fill="midnightblue" stroke="midnightblue" points="132.316,-26.6727 140.128,-19.5164 129.558,-20.2387 132.316,-26.6727"/>
</g>
<!-- Node6&#45;&gt;Node7 -->
<g id="edge7" class="edge"><title>Node6&#45;&gt;Node7</title>
<path fill="none" stroke="midnightblue" d="M37.3026,-56.083C39.982,-48.8486 43.8486,-38.4087 47.1864,-29.3968"/>
<polygon fill="midnightblue" stroke="midnightblue" points="50.5678,-30.3442 50.7589,-19.7511 44.0035,-27.9129 50.5678,-30.3442"/>
</g>
<!-- Node11 -->
<g id="node11" class="node"><title>Node11</title>
<g id="a_node11"><a xlink:href="_missing_scheduler_error_8h.html" target="_top" xlink:title="MissingSchedulerError.h">
<polygon fill="white" stroke="black" points="307.5,-56.5 307.5,-75.5 430.5,-75.5 430.5,-56.5 307.5,-56.5"/>
<text text-anchor="middle" x="369" y="-63.5" font-family="Helvetica,sans-Serif" font-size="10.00">MissingSchedulerError.h</text>
</a>
</g>
</g>
<!-- Node10&#45;&gt;Node11 -->
<g id="edge13" class="edge"><title>Node10&#45;&gt;Node11</title>
<path fill="none" stroke="midnightblue" d="M340.614,-112.083C345.367,-104.534 352.318,-93.4948 358.152,-84.2298"/>
<polygon fill="midnightblue" stroke="midnightblue" points="361.124,-86.0783 363.49,-75.7511 355.2,-82.3486 361.124,-86.0783"/>
</g>
<!-- Node12 -->
<g id="node12" class="node"><title>Node12</title>
<polygon fill="white" stroke="#bfbfbf" points="339.5,-0.5 339.5,-19.5 398.5,-19.5 398.5,-0.5 339.5,-0.5"/>
<text text-anchor="middle" x="369" y="-7.5" font-family="Helvetica,sans-Serif" font-size="10.00">stdexcept</text>
</g>
<!-- Node11&#45;&gt;Node12 -->
<g id="edge14" class="edge"><title>Node11&#45;&gt;Node12</title>
<path fill="none" stroke="midnightblue" d="M369,-56.083C369,-49.0059 369,-38.8611 369,-29.9865"/>
<polygon fill="midnightblue" stroke="midnightblue" points="372.5,-29.751 369,-19.7511 365.5,-29.7511 372.5,-29.751"/>
</g>
<!-- Node13&#45;&gt;Node6 -->
<g id="edge16" class="edge"><title>Node13&#45;&gt;Node6</title>
<path fill="none" stroke="midnightblue" d="M60.7159,-112.083C56.289,-104.613 49.8367,-93.7244 44.3821,-84.5199"/>
<polygon fill="midnightblue" stroke="midnightblue" points="47.2949,-82.5697 39.1858,-75.7511 41.2729,-86.1383 47.2949,-82.5697"/>
</g>
</g>
</svg>
