<?xml version="1.0" encoding="UTF-8" standalone="no"?>
<!DOCTYPE svg PUBLIC "-//W3C//DTD SVG 1.1//EN"
 "http://www.w3.org/Graphics/SVG/1.1/DTD/svg11.dtd">
<!-- Generated by graphviz version 2.38.0 (20140413.2041)
 -->
<!-- Title: include/Scheduler.h Pages: 1 -->
<svg width="605pt" height="196pt"
 viewBox="0.00 0.00 604.50 196.00" xmlns="http://www.w3.org/2000/svg" xmlns:xlink="http://www.w3.org/1999/xlink">
<g id="graph0" class="graph" transform="scale(1 1) rotate(0) translate(4 192)">
<title>include/Scheduler.h</title>
<polygon fill="white" stroke="none" points="-4,4 -4,-192 600.5,-192 600.5,4 -4,4"/>
<!-- Node1 -->
<g id="node1" class="node"><title>Node1</title>
<polygon fill="#bfbfbf" stroke="black" points="237,-168.5 237,-187.5 339,-187.5 339,-168.5 237,-168.5"/>
<text text-anchor="middle" x="288" y="-175.5" font-family="Helvetica,sans-Serif" font-size="10.00">include/Scheduler.h</text>
</g>
<!-- Node2 -->
<g id="node2" class="node"><title>Node2</title>
<g id="a_node2"><a xlink:href="_building_8cpp.html" target="_top" xlink:title="src/Building.cpp">
<polygon fill="white" stroke="black" points="0,-112.5 0,-131.5 86,-131.5 86,-112.5 0,-112.5"/>
<text text-anchor="middle" x="43" y="-119.5" font-family="Helvetica,sans-Serif" font-size="10.00">src/Building.cpp</text>
</a>
</g>
</g>
<!-- Node1&#45;&gt;Node2 -->
<g id="edge1" class="edge"><title>Node1&#45;&gt;Node2</title>
<path fill="none" stroke="midnightblue" d="M239.37,-166.281C193.071,-156.077 124.305,-140.92 81.6394,-131.516"/>
<polygon fill="midnightblue" stroke="midnightblue" points="238.66,-169.709 249.179,-168.444 240.167,-162.873 238.66,-169.709"/>
</g>
<!-- Node3 -->
<g id="node3" class="node"><title>Node3</title>
<g id="a_node3"><a xlink:href="_scheduler_8cpp.html" target="_top" xlink:title="src/Scheduler.cpp">
<polygon fill="white" stroke="black" points="104.5,-112.5 104.5,-131.5 199.5,-131.5 199.5,-112.5 104.5,-112.5"/>
<text text-anchor="middle" x="152" y="-119.5" font-family="Helvetica,sans-Serif" font-size="10.00">src/Scheduler.cpp</text>
</a>
</g>
</g>
<!-- Node1&#45;&gt;Node3 -->
<g id="edge2" class="edge"><title>Node1&#45;&gt;Node3</title>
<path fill="none" stroke="midnightblue" d="M256.865,-164.638C231.343,-154.504 195.891,-140.427 173.449,-131.516"/>
<polygon fill="midnightblue" stroke="midnightblue" points="255.865,-168.006 266.45,-168.444 258.448,-161.5 255.865,-168.006"/>
</g>
<!-- Node4 -->
<g id="node4" class="node"><title>Node4</title>
<g id="a_node4"><a xlink:href="_planning_scheduler_8h.html" target="_top" xlink:title="include/PlanningScheduler.h">
<polygon fill="white" stroke="black" points="218,-112.5 218,-131.5 358,-131.5 358,-112.5 218,-112.5"/>
<text text-anchor="middle" x="288" y="-119.5" font-family="Helvetica,sans-Serif" font-size="10.00">include/PlanningScheduler.h</text>
</a>
</g>
</g>
<!-- Node1&#45;&gt;Node4 -->
<g id="edge3" class="edge"><title>Node1&#45;&gt;Node4</title>
<path fill="none" stroke="midnightblue" d="M288,-157.805C288,-148.91 288,-138.78 288,-131.751"/>
<polygon fill="midnightblue" stroke="midnightblue" points="284.5,-158.083 288,-168.083 291.5,-158.083 284.5,-158.083"/>
</g>
<!-- Node6 -->
<g id="node6" class="node"><title>Node6</title>
<g id="a_node6"><a xlink:href="_scheduler_creator_8h.html" target="_top" xlink:title="include/SchedulerCreator.h">
<polygon fill="white" stroke="black" points="319,-56.5 319,-75.5 453,-75.5 453,-56.5 319,-56.5"/>
<text text-anchor="middle" x="386" y="-63.5" font-family="Helvetica,sans-Serif" font-size="10.00">include/SchedulerCreator.h</text>
</a>
</g>
</g>
<!-- Node1&#45;&gt;Node6 -->
<g id="edge7" class="edge"><title>Node1&#45;&gt;Node6</title>
<path fill="none" stroke="midnightblue" d="M322.547,-164.379C338.135,-157.092 355.574,-146.461 367,-132 380.412,-115.026 384.359,-88.8732 385.519,-75.5047"/>
<polygon fill="midnightblue" stroke="midnightblue" points="320.91,-161.274 313.15,-168.488 323.715,-167.688 320.91,-161.274"/>
</g>
<!-- Node8 -->
<g id="node8" class="node"><title>Node8</title>
<g id="a_node8"><a xlink:href="_simple_scheduler_8h.html" target="_top" xlink:title="include/SimpleScheduler.h">
<polygon fill="white" stroke="black" points="414,-112.5 414,-131.5 546,-131.5 546,-112.5 414,-112.5"/>
<text text-anchor="middle" x="480" y="-119.5" font-family="Helvetica,sans-Serif" font-size="10.00">include/SimpleScheduler.h</text>
</a>
</g>
</g>
<!-- Node1&#45;&gt;Node8 -->
<g id="edge8" class="edge"><title>Node1&#45;&gt;Node8</title>
<path fill="none" stroke="midnightblue" d="M328.183,-165.699C364.419,-155.507 416.914,-140.743 449.719,-131.516"/>
<polygon fill="midnightblue" stroke="midnightblue" points="327.102,-162.367 318.423,-168.444 328.997,-169.105 327.102,-162.367"/>
</g>
<!-- Node5 -->
<g id="node5" class="node"><title>Node5</title>
<g id="a_node5"><a xlink:href="_planning_scheduler_8cpp.html" target="_top" xlink:title="src/PlanningScheduler.cpp">
<polygon fill="white" stroke="black" points="167.5,-56.5 167.5,-75.5 300.5,-75.5 300.5,-56.5 167.5,-56.5"/>
<text text-anchor="middle" x="234" y="-63.5" font-family="Helvetica,sans-Serif" font-size="10.00">src/PlanningScheduler.cpp</text>
</a>
</g>
</g>
<!-- Node4&#45;&gt;Node5 -->
<g id="edge4" class="edge"><title>Node4&#45;&gt;Node5</title>
<path fill="none" stroke="midnightblue" d="M272.002,-105.002C262.433,-95.4329 250.639,-83.6389 242.751,-75.7511"/>
<polygon fill="midnightblue" stroke="midnightblue" points="269.537,-107.487 279.083,-112.083 274.487,-102.537 269.537,-107.487"/>
</g>
<!-- Node4&#45;&gt;Node6 -->
<g id="edge5" class="edge"><title>Node4&#45;&gt;Node6</title>
<path fill="none" stroke="midnightblue" d="M312.586,-107.453C330.678,-97.4835 354.735,-84.2279 370.294,-75.6545"/>
<polygon fill="midnightblue" stroke="midnightblue" points="310.815,-104.432 303.745,-112.324 314.193,-110.563 310.815,-104.432"/>
</g>
<!-- Node7 -->
<g id="node7" class="node"><title>Node7</title>
<g id="a_node7"><a xlink:href="_simulator_8cpp.html" target="_top" xlink:title="src/Simulator.cpp">
<polygon fill="white" stroke="black" points="339.5,-0.5 339.5,-19.5 432.5,-19.5 432.5,-0.5 339.5,-0.5"/>
<text text-anchor="middle" x="386" y="-7.5" font-family="Helvetica,sans-Serif" font-size="10.00">src/Simulator.cpp</text>
</a>
</g>
</g>
<!-- Node6&#45;&gt;Node7 -->
<g id="edge6" class="edge"><title>Node6&#45;&gt;Node7</title>
<path fill="none" stroke="midnightblue" d="M386,-45.8045C386,-36.9102 386,-26.7798 386,-19.7511"/>
<polygon fill="midnightblue" stroke="midnightblue" points="382.5,-46.083 386,-56.083 389.5,-46.083 382.5,-46.083"/>
</g>
<!-- Node8&#45;&gt;Node6 -->
<g id="edge10" class="edge"><title>Node8&#45;&gt;Node6</title>
<path fill="none" stroke="midnightblue" d="M455.938,-107.177C438.641,-97.2407 415.852,-84.1492 401.065,-75.6545"/>
<polygon fill="midnightblue" stroke="midnightblue" points="454.483,-110.378 464.897,-112.324 457.97,-104.308 454.483,-110.378"/>
</g>
<!-- Node9 -->
<g id="node9" class="node"><title>Node9</title>
<g id="a_node9"><a xlink:href="_simple_scheduler_8cpp.html" target="_top" xlink:title="src/SimpleScheduler.cpp">
<polygon fill="white" stroke="black" points="471.5,-56.5 471.5,-75.5 596.5,-75.5 596.5,-56.5 471.5,-56.5"/>
<text text-anchor="middle" x="534" y="-63.5" font-family="Helvetica,sans-Serif" font-size="10.00">src/SimpleScheduler.cpp</text>
</a>
</g>
</g>
<!-- Node8&#45;&gt;Node9 -->
<g id="edge9" class="edge"><title>Node8&#45;&gt;Node9</title>
<path fill="none" stroke="midnightblue" d="M495.998,-105.002C505.567,-95.4329 517.361,-83.6389 525.249,-75.7511"/>
<polygon fill="midnightblue" stroke="midnightblue" points="493.513,-102.537 488.917,-112.083 498.463,-107.487 493.513,-102.537"/>
</g>
</g>
</svg>
