<?xml version="1.0" encoding="UTF-8" standalone="no"?>
<!DOCTYPE svg PUBLIC "-//W3C//DTD SVG 1.1//EN"
 "http://www.w3.org/Graphics/SVG/1.1/DTD/svg11.dtd">
<!-- Generated by graphviz version 2.38.0 (20140413.2041)
 -->
<!-- Title: src/Scheduler.cpp Pages: 1 -->
<svg width="487pt" height="196pt"
 viewBox="0.00 0.00 487.16 196.00" xmlns="http://www.w3.org/2000/svg" xmlns:xlink="http://www.w3.org/1999/xlink">
<g id="graph0" class="graph" transform="scale(1 1) rotate(0) translate(4 192)">
<title>src/Scheduler.cpp</title>
<polygon fill="white" stroke="none" points="-4,4 -4,-192 483.165,-192 483.165,4 -4,4"/>
<!-- Node1 -->
<g id="node1" class="node"><title>Node1</title>
<polygon fill="#bfbfbf" stroke="black" points="286.5,-168.5 286.5,-187.5 392.5,-187.5 392.5,-168.5 286.5,-168.5"/>
<text text-anchor="middle" x="339.5" y="-175.5" font-family="Ubuntu Mono" font-size="10.00">src/Scheduler.cpp</text>
</g>
<!-- Node2 -->
<g id="node2" class="node"><title>Node2</title>
<g id="a_node2"><a xlink:href="_scheduler_8h.html" target="_top" xlink:title="Scheduler.h">
<polygon fill="white" stroke="black" points="404.5,-112.5 404.5,-131.5 478.5,-131.5 478.5,-112.5 404.5,-112.5"/>
<text text-anchor="middle" x="441.5" y="-119.5" font-family="Ubuntu Mono" font-size="10.00">Scheduler.h</text>
</a>
</g>
</g>
<!-- Node1&#45;&gt;Node2 -->
<g id="edge1" class="edge"><title>Node1&#45;&gt;Node2</title>
<path fill="none" stroke="midnightblue" d="M355.888,-168.324C372.171,-159.703 397.367,-146.364 416.216,-136.386"/>
<polygon fill="midnightblue" stroke="midnightblue" points="417.952,-139.427 425.153,-131.655 414.677,-133.24 417.952,-139.427"/>
</g>
<!-- Node5 -->
<g id="node5" class="node"><title>Node5</title>
<g id="a_node5"><a xlink:href="_building_8h.html" target="_top" xlink:title="Building.h">
<polygon fill="white" stroke="black" points="205,-112.5 205,-131.5 274,-131.5 274,-112.5 205,-112.5"/>
<text text-anchor="middle" x="239.5" y="-119.5" font-family="Ubuntu Mono" font-size="10.00">Building.h</text>
</a>
</g>
</g>
<!-- Node1&#45;&gt;Node5 -->
<g id="edge4" class="edge"><title>Node1&#45;&gt;Node5</title>
<path fill="none" stroke="midnightblue" d="M323.433,-168.324C307.542,-159.743 282.993,-146.486 264.542,-136.522"/>
<polygon fill="midnightblue" stroke="midnightblue" points="265.989,-133.326 255.527,-131.655 262.663,-139.486 265.989,-133.326"/>
</g>
<!-- Node10 -->
<g id="node10" class="node"><title>Node10</title>
<g id="a_node10"><a xlink:href="_elevator_8h.html" target="_top" xlink:title="Elevator.h">
<polygon fill="white" stroke="black" points="305,-112.5 305,-131.5 374,-131.5 374,-112.5 305,-112.5"/>
<text text-anchor="middle" x="339.5" y="-119.5" font-family="Ubuntu Mono" font-size="10.00">Elevator.h</text>
</a>
</g>
</g>
<!-- Node1&#45;&gt;Node10 -->
<g id="edge12" class="edge"><title>Node1&#45;&gt;Node10</title>
<path fill="none" stroke="midnightblue" d="M339.5,-168.083C339.5,-161.006 339.5,-150.861 339.5,-141.986"/>
<polygon fill="midnightblue" stroke="midnightblue" points="343,-141.751 339.5,-131.751 336,-141.751 343,-141.751"/>
</g>
<!-- Node3 -->
<g id="node3" class="node"><title>Node3</title>
<polygon fill="white" stroke="#bfbfbf" points="259.5,-0.5 259.5,-19.5 307.5,-19.5 307.5,-0.5 259.5,-0.5"/>
<text text-anchor="middle" x="283.5" y="-7.5" font-family="Ubuntu Mono" font-size="10.00">memory</text>
</g>
<!-- Node2&#45;&gt;Node3 -->
<g id="edge2" class="edge"><title>Node2&#45;&gt;Node3</title>
<path fill="none" stroke="midnightblue" d="M451.762,-112.373C466.087,-99.2931 488.798,-74.0583 474.5,-56 455.3,-31.7502 367.241,-19.2612 317.668,-14.0495"/>
<polygon fill="midnightblue" stroke="midnightblue" points="318.013,-10.5666 307.712,-13.0462 317.311,-17.5313 318.013,-10.5666"/>
</g>
<!-- Node4 -->
<g id="node4" class="node"><title>Node4</title>
<polygon fill="white" stroke="#bfbfbf" points="417.5,-56.5 417.5,-75.5 465.5,-75.5 465.5,-56.5 417.5,-56.5"/>
<text text-anchor="middle" x="441.5" y="-63.5" font-family="Ubuntu Mono" font-size="10.00">vector</text>
</g>
<!-- Node2&#45;&gt;Node4 -->
<g id="edge3" class="edge"><title>Node2&#45;&gt;Node4</title>
<path fill="none" stroke="midnightblue" d="M441.5,-112.083C441.5,-105.006 441.5,-94.8611 441.5,-85.9865"/>
<polygon fill="midnightblue" stroke="midnightblue" points="445,-85.751 441.5,-75.7511 438,-85.7511 445,-85.751"/>
</g>
<!-- Node5&#45;&gt;Node3 -->
<g id="edge8" class="edge"><title>Node5&#45;&gt;Node3</title>
<path fill="none" stroke="midnightblue" d="M241.372,-112.378C244.263,-99.7291 250.342,-75.5269 258.5,-56 262.462,-46.5166 267.909,-36.4726 272.708,-28.2853"/>
<polygon fill="midnightblue" stroke="midnightblue" points="275.737,-30.0404 277.915,-19.6719 269.746,-26.4188 275.737,-30.0404"/>
</g>
<!-- Node5&#45;&gt;Node4 -->
<g id="edge11" class="edge"><title>Node5&#45;&gt;Node4</title>
<path fill="none" stroke="midnightblue" d="M271.914,-112.431C303.952,-103.948 354.627,-90.4933 407.466,-76.2675"/>
<polygon fill="midnightblue" stroke="midnightblue" points="408.609,-79.5845 417.354,-73.6033 406.788,-72.8256 408.609,-79.5845"/>
</g>
<!-- Node6 -->
<g id="node6" class="node"><title>Node6</title>
<g id="a_node6"><a xlink:href="_event_observer_8h.html" target="_top" xlink:title="EventObserver.h">
<polygon fill="white" stroke="black" points="0,-56.5 0,-75.5 95,-75.5 95,-56.5 0,-56.5"/>
<text text-anchor="middle" x="47.5" y="-63.5" font-family="Ubuntu Mono" font-size="10.00">EventObserver.h</text>
</a>
</g>
</g>
<!-- Node5&#45;&gt;Node6 -->
<g id="edge5" class="edge"><title>Node5&#45;&gt;Node6</title>
<path fill="none" stroke="midnightblue" d="M209.077,-112.444C176.215,-103.201 123.715,-88.4356 87.5256,-78.2572"/>
<polygon fill="midnightblue" stroke="midnightblue" points="88.3548,-74.8547 77.7806,-75.5164 86.4595,-81.5932 88.3548,-74.8547"/>
</g>
<!-- Node7 -->
<g id="node7" class="node"><title>Node7</title>
<polygon fill="white" stroke="#bfbfbf" points="267.5,-56.5 267.5,-75.5 299.5,-75.5 299.5,-56.5 267.5,-56.5"/>
<text text-anchor="middle" x="283.5" y="-63.5" font-family="Ubuntu Mono" font-size="10.00">map</text>
</g>
<!-- Node5&#45;&gt;Node7 -->
<g id="edge7" class="edge"><title>Node5&#45;&gt;Node7</title>
<path fill="none" stroke="midnightblue" d="M246.766,-112.083C253.045,-104.377 262.288,-93.0333 269.931,-83.6531"/>
<polygon fill="midnightblue" stroke="midnightblue" points="272.766,-85.7143 276.369,-75.7511 267.339,-81.2926 272.766,-85.7143"/>
</g>
<!-- Node8 -->
<g id="node8" class="node"><title>Node8</title>
<polygon fill="white" stroke="#bfbfbf" points="113.5,-56.5 113.5,-75.5 145.5,-75.5 145.5,-56.5 113.5,-56.5"/>
<text text-anchor="middle" x="129.5" y="-63.5" font-family="Ubuntu Mono" font-size="10.00">set</text>
</g>
<!-- Node5&#45;&gt;Node8 -->
<g id="edge9" class="edge"><title>Node5&#45;&gt;Node8</title>
<path fill="none" stroke="midnightblue" d="M221.827,-112.324C203.686,-103.419 175.289,-89.4783 154.776,-79.4084"/>
<polygon fill="midnightblue" stroke="midnightblue" points="156.215,-76.2156 145.696,-74.9507 153.13,-82.4993 156.215,-76.2156"/>
</g>
<!-- Node9 -->
<g id="node9" class="node"><title>Node9</title>
<polygon fill="white" stroke="#bfbfbf" points="163.5,-56.5 163.5,-75.5 211.5,-75.5 211.5,-56.5 163.5,-56.5"/>
<text text-anchor="middle" x="187.5" y="-63.5" font-family="Ubuntu Mono" font-size="10.00">string</text>
</g>
<!-- Node5&#45;&gt;Node9 -->
<g id="edge10" class="edge"><title>Node5&#45;&gt;Node9</title>
<path fill="none" stroke="midnightblue" d="M230.913,-112.083C223.341,-104.22 212.122,-92.5688 202.986,-83.0813"/>
<polygon fill="midnightblue" stroke="midnightblue" points="205.385,-80.5266 195.927,-75.7511 200.342,-85.3821 205.385,-80.5266"/>
</g>
<!-- Node6&#45;&gt;Node3 -->
<g id="edge6" class="edge"><title>Node6&#45;&gt;Node3</title>
<path fill="none" stroke="midnightblue" d="M84.8949,-56.4435C130.137,-46.0915 205.662,-28.8104 249.38,-18.807"/>
<polygon fill="midnightblue" stroke="midnightblue" points="250.282,-22.1912 259.25,-16.5488 248.721,-15.3675 250.282,-22.1912"/>
</g>
<!-- Node10&#45;&gt;Node3 -->
<g id="edge14" class="edge"><title>Node10&#45;&gt;Node3</title>
<path fill="none" stroke="midnightblue" d="M335.46,-112.083C329.702,-99.4782 318.699,-75.7798 308.5,-56 303.731,-46.7509 298.128,-36.606 293.437,-28.2937"/>
<polygon fill="midnightblue" stroke="midnightblue" points="296.443,-26.499 288.453,-19.541 290.36,-29.9628 296.443,-26.499"/>
</g>
<!-- Node10&#45;&gt;Node4 -->
<g id="edge16" class="edge"><title>Node10&#45;&gt;Node4</title>
<path fill="none" stroke="midnightblue" d="M355.888,-112.324C372.171,-103.703 397.367,-90.3643 416.216,-80.3855"/>
<polygon fill="midnightblue" stroke="midnightblue" points="417.952,-83.4267 425.153,-75.6545 414.677,-77.2402 417.952,-83.4267"/>
</g>
<!-- Node10&#45;&gt;Node7 -->
<g id="edge13" class="edge"><title>Node10&#45;&gt;Node7</title>
<path fill="none" stroke="midnightblue" d="M330.503,-112.324C322.306,-104.42 309.994,-92.5482 300.028,-82.9377"/>
<polygon fill="midnightblue" stroke="midnightblue" points="302.289,-80.2558 292.661,-75.8339 297.43,-85.2947 302.289,-80.2558"/>
</g>
<!-- Node11 -->
<g id="node11" class="node"><title>Node11</title>
<polygon fill="white" stroke="#bfbfbf" points="356,-56.5 356,-75.5 399,-75.5 399,-56.5 356,-56.5"/>
<text text-anchor="middle" x="377.5" y="-63.5" font-family="Ubuntu Mono" font-size="10.00">queue</text>
</g>
<!-- Node10&#45;&gt;Node11 -->
<g id="edge15" class="edge"><title>Node10&#45;&gt;Node11</title>
<path fill="none" stroke="midnightblue" d="M345.775,-112.083C351.142,-104.455 359.018,-93.2645 365.579,-83.9408"/>
<polygon fill="midnightblue" stroke="midnightblue" points="368.449,-85.9434 371.342,-75.7511 362.725,-81.9149 368.449,-85.9434"/>
</g>
</g>
</svg>
