<?xml version="1.0" encoding="UTF-8" standalone="no"?>
<!DOCTYPE svg PUBLIC "-//W3C//DTD SVG 1.1//EN"
 "http://www.w3.org/Graphics/SVG/1.1/DTD/svg11.dtd">
<!-- Generated by graphviz version 2.38.0 (20140413.2041)
 -->
<!-- Title: include/SchedulerType.h Pages: 1 -->
<svg width="567pt" height="140pt"
 viewBox="0.00 0.00 567.00 140.00" xmlns="http://www.w3.org/2000/svg" xmlns:xlink="http://www.w3.org/1999/xlink">
<g id="graph0" class="graph" transform="scale(1 1) rotate(0) translate(4 136)">
<title>include/SchedulerType.h</title>
<polygon fill="white" stroke="none" points="-4,4 -4,-136 563,-136 563,4 -4,4"/>
<!-- Node1 -->
<g id="node1" class="node"><title>Node1</title>
<polygon fill="#bfbfbf" stroke="black" points="180,-112.5 180,-131.5 317,-131.5 317,-112.5 180,-112.5"/>
<text text-anchor="middle" x="248.5" y="-119.5" font-family="Ubuntu Mono" font-size="10.00">include/SchedulerType.h</text>
</g>
<!-- Node2 -->
<g id="node2" class="node"><title>Node2</title>
<g id="a_node2"><a xlink:href="_reporter_8cpp.html" target="_top" xlink:title="src/Reporter.cpp">
<polygon fill="white" stroke="black" points="0,-56.5 0,-75.5 101,-75.5 101,-56.5 0,-56.5"/>
<text text-anchor="middle" x="50.5" y="-63.5" font-family="Ubuntu Mono" font-size="10.00">src/Reporter.cpp</text>
</a>
</g>
</g>
<!-- Node1&#45;&gt;Node2 -->
<g id="edge1" class="edge"><title>Node1&#45;&gt;Node2</title>
<path fill="none" stroke="midnightblue" d="M207.062,-109.699C169.693,-99.507 115.557,-84.7429 81.7269,-75.5164"/>
<polygon fill="midnightblue" stroke="midnightblue" points="206.558,-113.189 217.126,-112.444 208.4,-106.436 206.558,-113.189"/>
</g>
<!-- Node3 -->
<g id="node3" class="node"><title>Node3</title>
<g id="a_node3"><a xlink:href="_scenario_8cpp.html" target="_top" xlink:title="src/Scenario.cpp">
<polygon fill="white" stroke="black" points="119,-56.5 119,-75.5 220,-75.5 220,-56.5 119,-56.5"/>
<text text-anchor="middle" x="169.5" y="-63.5" font-family="Ubuntu Mono" font-size="10.00">src/Scenario.cpp</text>
</a>
</g>
</g>
<!-- Node1&#45;&gt;Node3 -->
<g id="edge2" class="edge"><title>Node1&#45;&gt;Node3</title>
<path fill="none" stroke="midnightblue" d="M227.466,-106.622C213.034,-96.7574 194.359,-83.9919 182.161,-75.6545"/>
<polygon fill="midnightblue" stroke="midnightblue" points="225.577,-109.57 235.807,-112.324 229.527,-103.791 225.577,-109.57"/>
</g>
<!-- Node4 -->
<g id="node4" class="node"><title>Node4</title>
<g id="a_node4"><a xlink:href="_simulator_8cpp.html" target="_top" xlink:title="src/Simulator.cpp">
<polygon fill="white" stroke="black" points="312.5,-0.5 312.5,-19.5 418.5,-19.5 418.5,-0.5 312.5,-0.5"/>
<text text-anchor="middle" x="365.5" y="-7.5" font-family="Ubuntu Mono" font-size="10.00">src/Simulator.cpp</text>
</a>
</g>
</g>
<!-- Node1&#45;&gt;Node4 -->
<g id="edge3" class="edge"><title>Node1&#45;&gt;Node4</title>
<path fill="none" stroke="midnightblue" d="M250.163,-102.267C252.31,-88.0888 257.23,-68.9161 268.5,-56 284.489,-37.6761 309.515,-26.3221 330.141,-19.6029"/>
<polygon fill="midnightblue" stroke="midnightblue" points="246.669,-102.009 248.967,-112.352 253.62,-102.834 246.669,-102.009"/>
</g>
<!-- Node5 -->
<g id="node5" class="node"><title>Node5</title>
<g id="a_node5"><a xlink:href="_statistics_8cpp.html" target="_top" xlink:title="src/Statistics.cpp">
<polygon fill="white" stroke="black" points="277,-56.5 277,-75.5 388,-75.5 388,-56.5 277,-56.5"/>
<text text-anchor="middle" x="332.5" y="-63.5" font-family="Ubuntu Mono" font-size="10.00">src/Statistics.cpp</text>
</a>
</g>
</g>
<!-- Node1&#45;&gt;Node5 -->
<g id="edge4" class="edge"><title>Node1&#45;&gt;Node5</title>
<path fill="none" stroke="midnightblue" d="M270.432,-106.901C285.835,-96.9986 305.946,-84.0705 319.037,-75.6545"/>
<polygon fill="midnightblue" stroke="midnightblue" points="268.515,-103.972 261.996,-112.324 272.301,-109.86 268.515,-103.972"/>
</g>
<!-- Node6 -->
<g id="node6" class="node"><title>Node6</title>
<g id="a_node6"><a xlink:href="_scheduler_creator_8h.html" target="_top" xlink:title="include/SchedulerCreator.h">
<polygon fill="white" stroke="black" points="406,-56.5 406,-75.5 559,-75.5 559,-56.5 406,-56.5"/>
<text text-anchor="middle" x="482.5" y="-63.5" font-family="Ubuntu Mono" font-size="10.00">include/SchedulerCreator.h</text>
</a>
</g>
</g>
<!-- Node1&#45;&gt;Node6 -->
<g id="edge5" class="edge"><title>Node1&#45;&gt;Node6</title>
<path fill="none" stroke="midnightblue" d="M295.504,-110.153C339.717,-99.95 405.016,-84.8809 445.595,-75.5164"/>
<polygon fill="midnightblue" stroke="midnightblue" points="294.535,-106.784 285.578,-112.444 296.109,-113.605 294.535,-106.784"/>
</g>
<!-- Node6&#45;&gt;Node4 -->
<g id="edge6" class="edge"><title>Node6&#45;&gt;Node4</title>
<path fill="none" stroke="midnightblue" d="M454.836,-52.2321C432.951,-42.1312 403.003,-28.3091 383.952,-19.5164"/>
<polygon fill="midnightblue" stroke="midnightblue" points="453.415,-55.4308 463.961,-56.4435 456.348,-49.075 453.415,-55.4308"/>
</g>
</g>
</svg>
