<?xml version="1.0" encoding="UTF-8" standalone="no"?>
<!DOCTYPE svg PUBLIC "-//W3C//DTD SVG 1.1//EN"
 "http://www.w3.org/Graphics/SVG/1.1/DTD/svg11.dtd">
<!-- Generated by graphviz version 2.38.0 (20140413.2041)
 -->
<!-- Title: src/Scheduler.cpp Pages: 1 -->
<svg width="474pt" height="196pt"
 viewBox="0.00 0.00 473.69 196.00" xmlns="http://www.w3.org/2000/svg" xmlns:xlink="http://www.w3.org/1999/xlink">
<g id="graph0" class="graph" transform="scale(1 1) rotate(0) translate(4 192)">
<title>src/Scheduler.cpp</title>
<polygon fill="white" stroke="none" points="-4,4 -4,-192 469.691,-192 469.691,4 -4,4"/>
<!-- Node1 -->
<g id="node1" class="node"><title>Node1</title>
<polygon fill="#bfbfbf" stroke="black" points="284.5,-168.5 284.5,-187.5 379.5,-187.5 379.5,-168.5 284.5,-168.5"/>
<text text-anchor="middle" x="332" y="-175.5" font-family="Helvetica,sans-Serif" font-size="10.00">src/Scheduler.cpp</text>
</g>
<!-- Node2 -->
<g id="node2" class="node"><title>Node2</title>
<g id="a_node2"><a xlink:href="_scheduler_8h.html" target="_top" xlink:title="Scheduler.h">
<polygon fill="white" stroke="black" points="396,-112.5 396,-131.5 464,-131.5 464,-112.5 396,-112.5"/>
<text text-anchor="middle" x="430" y="-119.5" font-family="Helvetica,sans-Serif" font-size="10.00">Scheduler.h</text>
</a>
</g>
</g>
<!-- Node1&#45;&gt;Node2 -->
<g id="edge1" class="edge"><title>Node1&#45;&gt;Node2</title>
<path fill="none" stroke="midnightblue" d="M347.745,-168.324C363.319,-159.743 387.377,-146.486 405.459,-136.522"/>
<polygon fill="midnightblue" stroke="midnightblue" points="407.224,-139.546 414.294,-131.655 403.846,-133.415 407.224,-139.546"/>
</g>
<!-- Node5 -->
<g id="node5" class="node"><title>Node5</title>
<g id="a_node5"><a xlink:href="_building_8h.html" target="_top" xlink:title="Building.h">
<polygon fill="white" stroke="black" points="196.5,-112.5 196.5,-131.5 255.5,-131.5 255.5,-112.5 196.5,-112.5"/>
<text text-anchor="middle" x="226" y="-119.5" font-family="Helvetica,sans-Serif" font-size="10.00">Building.h</text>
</a>
</g>
</g>
<!-- Node1&#45;&gt;Node5 -->
<g id="edge4" class="edge"><title>Node1&#45;&gt;Node5</title>
<path fill="none" stroke="midnightblue" d="M314.969,-168.324C297.97,-159.664 271.624,-146.242 252.007,-136.249"/>
<polygon fill="midnightblue" stroke="midnightblue" points="253.488,-133.075 242.988,-131.655 250.31,-139.312 253.488,-133.075"/>
</g>
<!-- Node10 -->
<g id="node10" class="node"><title>Node10</title>
<g id="a_node10"><a xlink:href="_elevator_8h.html" target="_top" xlink:title="Elevator.h">
<polygon fill="white" stroke="black" points="301.5,-112.5 301.5,-131.5 362.5,-131.5 362.5,-112.5 301.5,-112.5"/>
<text text-anchor="middle" x="332" y="-119.5" font-family="Helvetica,sans-Serif" font-size="10.00">Elevator.h</text>
</a>
</g>
</g>
<!-- Node1&#45;&gt;Node10 -->
<g id="edge12" class="edge"><title>Node1&#45;&gt;Node10</title>
<path fill="none" stroke="midnightblue" d="M332,-168.083C332,-161.006 332,-150.861 332,-141.986"/>
<polygon fill="midnightblue" stroke="midnightblue" points="335.5,-141.751 332,-131.751 328.5,-141.751 335.5,-141.751"/>
</g>
<!-- Node3 -->
<g id="node3" class="node"><title>Node3</title>
<polygon fill="white" stroke="#bfbfbf" points="246,-0.5 246,-19.5 298,-19.5 298,-0.5 246,-0.5"/>
<text text-anchor="middle" x="272" y="-7.5" font-family="Helvetica,sans-Serif" font-size="10.00">memory</text>
</g>
<!-- Node2&#45;&gt;Node3 -->
<g id="edge2" class="edge"><title>Node2&#45;&gt;Node3</title>
<path fill="none" stroke="midnightblue" d="M439.809,-112.322C453.485,-99.1762 475.104,-73.8562 461,-56 442.311,-32.339 357.546,-19.7788 308.111,-14.3545"/>
<polygon fill="midnightblue" stroke="midnightblue" points="308.447,-10.8705 298.135,-13.3038 307.714,-17.832 308.447,-10.8705"/>
</g>
<!-- Node4 -->
<g id="node4" class="node"><title>Node4</title>
<polygon fill="white" stroke="#bfbfbf" points="408,-56.5 408,-75.5 452,-75.5 452,-56.5 408,-56.5"/>
<text text-anchor="middle" x="430" y="-63.5" font-family="Helvetica,sans-Serif" font-size="10.00">vector</text>
</g>
<!-- Node2&#45;&gt;Node4 -->
<g id="edge3" class="edge"><title>Node2&#45;&gt;Node4</title>
<path fill="none" stroke="midnightblue" d="M430,-112.083C430,-105.006 430,-94.8611 430,-85.9865"/>
<polygon fill="midnightblue" stroke="midnightblue" points="433.5,-85.751 430,-75.7511 426.5,-85.7511 433.5,-85.751"/>
</g>
<!-- Node5&#45;&gt;Node3 -->
<g id="edge8" class="edge"><title>Node5&#45;&gt;Node3</title>
<path fill="none" stroke="midnightblue" d="M227.995,-112.366C231.068,-99.7017 237.505,-75.4807 246,-56 250.148,-46.4888 255.816,-36.4419 260.801,-28.26"/>
<polygon fill="midnightblue" stroke="midnightblue" points="263.851,-29.9849 266.208,-19.6556 257.924,-26.2604 263.851,-29.9849"/>
</g>
<!-- Node5&#45;&gt;Node4 -->
<g id="edge11" class="edge"><title>Node5&#45;&gt;Node4</title>
<path fill="none" stroke="midnightblue" d="M255.762,-113.529C288.33,-105.294 342.32,-91.471 397.687,-76.3087"/>
<polygon fill="midnightblue" stroke="midnightblue" points="398.956,-79.5897 407.67,-73.564 397.1,-72.8402 398.956,-79.5897"/>
</g>
<!-- Node6 -->
<g id="node6" class="node"><title>Node6</title>
<g id="a_node6"><a xlink:href="_event_observer_8h.html" target="_top" xlink:title="EventObserver.h">
<polygon fill="white" stroke="black" points="0,-56.5 0,-75.5 90,-75.5 90,-56.5 0,-56.5"/>
<text text-anchor="middle" x="45" y="-63.5" font-family="Helvetica,sans-Serif" font-size="10.00">EventObserver.h</text>
</a>
</g>
</g>
<!-- Node5&#45;&gt;Node6 -->
<g id="edge5" class="edge"><title>Node5&#45;&gt;Node6</title>
<path fill="none" stroke="midnightblue" d="M197.32,-112.444C166.473,-103.241 117.272,-88.5617 83.1707,-78.3879"/>
<polygon fill="midnightblue" stroke="midnightblue" points="84.1291,-75.0215 73.5458,-75.5164 82.1278,-81.7293 84.1291,-75.0215"/>
</g>
<!-- Node7 -->
<g id="node7" class="node"><title>Node7</title>
<polygon fill="white" stroke="#bfbfbf" points="254.5,-56.5 254.5,-75.5 289.5,-75.5 289.5,-56.5 254.5,-56.5"/>
<text text-anchor="middle" x="272" y="-63.5" font-family="Helvetica,sans-Serif" font-size="10.00">map</text>
</g>
<!-- Node5&#45;&gt;Node7 -->
<g id="edge7" class="edge"><title>Node5&#45;&gt;Node7</title>
<path fill="none" stroke="midnightblue" d="M233.596,-112.083C240.227,-104.298 250.021,-92.8015 258.058,-83.3665"/>
<polygon fill="midnightblue" stroke="midnightblue" points="260.725,-85.6332 264.545,-75.7511 255.396,-81.0939 260.725,-85.6332"/>
</g>
<!-- Node8 -->
<g id="node8" class="node"><title>Node8</title>
<polygon fill="white" stroke="#bfbfbf" points="108,-56.5 108,-75.5 138,-75.5 138,-56.5 108,-56.5"/>
<text text-anchor="middle" x="123" y="-63.5" font-family="Helvetica,sans-Serif" font-size="10.00">set</text>
</g>
<!-- Node5&#45;&gt;Node8 -->
<g id="edge9" class="edge"><title>Node5&#45;&gt;Node8</title>
<path fill="none" stroke="midnightblue" d="M209.451,-112.324C192.619,-103.499 166.356,-89.7302 147.191,-79.6827"/>
<polygon fill="midnightblue" stroke="midnightblue" points="148.647,-76.4942 138.165,-74.9507 145.397,-82.6938 148.647,-76.4942"/>
</g>
<!-- Node9 -->
<g id="node9" class="node"><title>Node9</title>
<polygon fill="white" stroke="#bfbfbf" points="156.5,-56.5 156.5,-75.5 197.5,-75.5 197.5,-56.5 156.5,-56.5"/>
<text text-anchor="middle" x="177" y="-63.5" font-family="Helvetica,sans-Serif" font-size="10.00">string</text>
</g>
<!-- Node5&#45;&gt;Node9 -->
<g id="edge10" class="edge"><title>Node5&#45;&gt;Node9</title>
<path fill="none" stroke="midnightblue" d="M217.909,-112.083C210.845,-104.298 200.412,-92.8015 191.851,-83.3665"/>
<polygon fill="midnightblue" stroke="midnightblue" points="194.253,-80.8047 184.941,-75.7511 189.069,-85.5087 194.253,-80.8047"/>
</g>
<!-- Node6&#45;&gt;Node3 -->
<g id="edge6" class="edge"><title>Node6&#45;&gt;Node3</title>
<path fill="none" stroke="midnightblue" d="M80.9688,-56.4435C123.355,-46.3606 193.373,-29.7042 235.841,-19.6016"/>
<polygon fill="midnightblue" stroke="midnightblue" points="236.835,-22.9631 245.753,-17.2437 235.215,-16.1531 236.835,-22.9631"/>
</g>
<!-- Node10&#45;&gt;Node3 -->
<g id="edge14" class="edge"><title>Node10&#45;&gt;Node3</title>
<path fill="none" stroke="midnightblue" d="M327.916,-112.486C321.86,-99.9718 310.023,-75.9357 299,-56 293.867,-46.7163 287.817,-36.5683 282.747,-28.2629"/>
<polygon fill="midnightblue" stroke="midnightblue" points="285.586,-26.1975 277.359,-19.5215 279.627,-29.8708 285.586,-26.1975"/>
</g>
<!-- Node10&#45;&gt;Node4 -->
<g id="edge16" class="edge"><title>Node10&#45;&gt;Node4</title>
<path fill="none" stroke="midnightblue" d="M347.745,-112.324C363.319,-103.743 387.377,-90.486 405.459,-80.5224"/>
<polygon fill="midnightblue" stroke="midnightblue" points="407.224,-83.546 414.294,-75.6545 403.846,-77.4152 407.224,-83.546"/>
</g>
<!-- Node10&#45;&gt;Node7 -->
<g id="edge13" class="edge"><title>Node10&#45;&gt;Node7</title>
<path fill="none" stroke="midnightblue" d="M322.36,-112.324C313.49,-104.341 300.125,-92.3128 289.392,-82.6529"/>
<polygon fill="midnightblue" stroke="midnightblue" points="291.59,-79.922 281.815,-75.8339 286.907,-85.1251 291.59,-79.922"/>
</g>
<!-- Node11 -->
<g id="node11" class="node"><title>Node11</title>
<polygon fill="white" stroke="#bfbfbf" points="346.5,-56.5 346.5,-75.5 389.5,-75.5 389.5,-56.5 346.5,-56.5"/>
<text text-anchor="middle" x="368" y="-63.5" font-family="Helvetica,sans-Serif" font-size="10.00">queue</text>
</g>
<!-- Node10&#45;&gt;Node11 -->
<g id="edge15" class="edge"><title>Node10&#45;&gt;Node11</title>
<path fill="none" stroke="midnightblue" d="M337.945,-112.083C342.977,-104.534 350.337,-93.4948 356.513,-84.2298"/>
<polygon fill="midnightblue" stroke="midnightblue" points="359.531,-86.0131 362.166,-75.7511 353.707,-82.1301 359.531,-86.0131"/>
</g>
</g>
</svg>
