<?xml version="1.0" encoding="UTF-8" standalone="no"?>
<!DOCTYPE svg PUBLIC "-//W3C//DTD SVG 1.1//EN"
 "http://www.w3.org/Graphics/SVG/1.1/DTD/svg11.dtd">
<!-- Generated by graphviz version 2.38.0 (20140413.2041)
 -->
<!-- Title: include/SchedulerType.h Pages: 1 -->
<svg width="508pt" height="140pt"
 viewBox="0.00 0.00 507.50 140.00" xmlns="http://www.w3.org/2000/svg" xmlns:xlink="http://www.w3.org/1999/xlink">
<g id="graph0" class="graph" transform="scale(1 1) rotate(0) translate(4 136)">
<title>include/SchedulerType.h</title>
<polygon fill="white" stroke="none" points="-4,4 -4,-136 503.5,-136 503.5,4 -4,4"/>
<!-- Node1 -->
<g id="node1" class="node"><title>Node1</title>
<polygon fill="#bfbfbf" stroke="black" points="163.5,-112.5 163.5,-131.5 287.5,-131.5 287.5,-112.5 163.5,-112.5"/>
<text text-anchor="middle" x="225.5" y="-119.5" font-family="Helvetica,sans-Serif" font-size="10.00">include/SchedulerType.h</text>
</g>
<!-- Node2 -->
<g id="node2" class="node"><title>Node2</title>
<g id="a_node2"><a xlink:href="_reporter_8cpp.html" target="_top" xlink:title="src/Reporter.cpp">
<polygon fill="white" stroke="black" points="0,-56.5 0,-75.5 89,-75.5 89,-56.5 0,-56.5"/>
<text text-anchor="middle" x="44.5" y="-63.5" font-family="Helvetica,sans-Serif" font-size="10.00">src/Reporter.cpp</text>
</a>
</g>
</g>
<!-- Node1&#45;&gt;Node2 -->
<g id="edge1" class="edge"><title>Node1&#45;&gt;Node2</title>
<path fill="none" stroke="midnightblue" d="M187.181,-109.568C153.036,-99.381 103.839,-84.7034 73.0458,-75.5164"/>
<polygon fill="midnightblue" stroke="midnightblue" points="186.237,-112.938 196.82,-112.444 188.238,-106.231 186.237,-112.938"/>
</g>
<!-- Node3 -->
<g id="node3" class="node"><title>Node3</title>
<g id="a_node3"><a xlink:href="_scenario_8cpp.html" target="_top" xlink:title="src/Scenario.cpp">
<polygon fill="white" stroke="black" points="107.5,-56.5 107.5,-75.5 197.5,-75.5 197.5,-56.5 107.5,-56.5"/>
<text text-anchor="middle" x="152.5" y="-63.5" font-family="Helvetica,sans-Serif" font-size="10.00">src/Scenario.cpp</text>
</a>
</g>
</g>
<!-- Node1&#45;&gt;Node3 -->
<g id="edge2" class="edge"><title>Node1&#45;&gt;Node3</title>
<path fill="none" stroke="midnightblue" d="M205.358,-106.101C192.221,-96.3824 175.518,-84.0269 164.442,-75.8339"/>
<polygon fill="midnightblue" stroke="midnightblue" points="203.65,-109.191 213.771,-112.324 207.813,-103.563 203.65,-109.191"/>
</g>
<!-- Node4 -->
<g id="node4" class="node"><title>Node4</title>
<g id="a_node4"><a xlink:href="_simulator_8cpp.html" target="_top" xlink:title="src/Simulator.cpp">
<polygon fill="white" stroke="black" points="282,-0.5 282,-19.5 375,-19.5 375,-0.5 282,-0.5"/>
<text text-anchor="middle" x="328.5" y="-7.5" font-family="Helvetica,sans-Serif" font-size="10.00">src/Simulator.cpp</text>
</a>
</g>
</g>
<!-- Node1&#45;&gt;Node4 -->
<g id="edge3" class="edge"><title>Node1&#45;&gt;Node4</title>
<path fill="none" stroke="midnightblue" d="M227.392,-102.461C229.664,-88.3879 234.638,-69.2616 245.5,-56 259.937,-38.3736 283.166,-26.6217 301.383,-19.5615"/>
<polygon fill="midnightblue" stroke="midnightblue" points="223.912,-102.087 226.09,-112.456 230.853,-102.992 223.912,-102.087"/>
</g>
<!-- Node5 -->
<g id="node5" class="node"><title>Node5</title>
<g id="a_node5"><a xlink:href="_statistics_8cpp.html" target="_top" xlink:title="src/Statistics.cpp">
<polygon fill="white" stroke="black" points="254,-56.5 254,-75.5 347,-75.5 347,-56.5 254,-56.5"/>
<text text-anchor="middle" x="300.5" y="-63.5" font-family="Helvetica,sans-Serif" font-size="10.00">src/Statistics.cpp</text>
</a>
</g>
</g>
<!-- Node1&#45;&gt;Node5 -->
<g id="edge4" class="edge"><title>Node1&#45;&gt;Node5</title>
<path fill="none" stroke="midnightblue" d="M245.805,-106.38C259.361,-96.6204 276.742,-84.1057 288.231,-75.8339"/>
<polygon fill="midnightblue" stroke="midnightblue" points="243.62,-103.641 237.55,-112.324 247.71,-109.321 243.62,-103.641"/>
</g>
<!-- Node6 -->
<g id="node6" class="node"><title>Node6</title>
<g id="a_node6"><a xlink:href="_scheduler_creator_8h.html" target="_top" xlink:title="include/SchedulerCreator.h">
<polygon fill="white" stroke="black" points="365.5,-56.5 365.5,-75.5 499.5,-75.5 499.5,-56.5 365.5,-56.5"/>
<text text-anchor="middle" x="432.5" y="-63.5" font-family="Helvetica,sans-Serif" font-size="10.00">include/SchedulerCreator.h</text>
</a>
</g>
</g>
<!-- Node1&#45;&gt;Node6 -->
<g id="edge5" class="edge"><title>Node1&#45;&gt;Node6</title>
<path fill="none" stroke="midnightblue" d="M268.322,-109.829C307.406,-99.6333 364.335,-84.7823 399.854,-75.5164"/>
<polygon fill="midnightblue" stroke="midnightblue" points="267.092,-106.533 258.3,-112.444 268.859,-113.306 267.092,-106.533"/>
</g>
<!-- Node6&#45;&gt;Node4 -->
<g id="edge6" class="edge"><title>Node6&#45;&gt;Node4</title>
<path fill="none" stroke="midnightblue" d="M406.672,-51.5895C387.443,-41.6052 361.755,-28.2672 345.168,-19.6545"/>
<polygon fill="midnightblue" stroke="midnightblue" points="405.303,-54.822 415.791,-56.324 408.529,-48.6095 405.303,-54.822"/>
</g>
</g>
</svg>
