<?xml version="1.0" encoding="UTF-8" standalone="no"?>
<!DOCTYPE svg PUBLIC "-//W3C//DTD SVG 1.1//EN"
 "http://www.w3.org/Graphics/SVG/1.1/DTD/svg11.dtd">
<!-- Generated by graphviz version 2.38.0 (20140413.2041)
 -->
<!-- Title: include/SchedulerCreator.h Pages: 1 -->
<svg width="367pt" height="196pt"
 viewBox="0.00 0.00 367.46 196.00" xmlns="http://www.w3.org/2000/svg" xmlns:xlink="http://www.w3.org/1999/xlink">
<g id="graph0" class="graph" transform="scale(1 1) rotate(0) translate(4 192)">
<title>include/SchedulerCreator.h</title>
<polygon fill="white" stroke="none" points="-4,4 -4,-192 363.464,-192 363.464,4 -4,4"/>
<!-- Node1 -->
<g id="node1" class="node"><title>Node1</title>
<polygon fill="#bfbfbf" stroke="black" points="54.964,-168.5 54.964,-187.5 188.964,-187.5 188.964,-168.5 54.964,-168.5"/>
<text text-anchor="middle" x="121.964" y="-175.5" font-family="Helvetica,sans-Serif" font-size="10.00">include/SchedulerCreator.h</text>
</g>
<!-- Node2 -->
<g id="node2" class="node"><title>Node2</title>
<g id="a_node2"><a xlink:href="_planning_scheduler_8h.html" target="_top" xlink:title="PlanningScheduler.h">
<polygon fill="white" stroke="black" points="128.964,-112.5 128.964,-131.5 234.964,-131.5 234.964,-112.5 128.964,-112.5"/>
<text text-anchor="middle" x="181.964" y="-119.5" font-family="Helvetica,sans-Serif" font-size="10.00">PlanningScheduler.h</text>
</a>
</g>
</g>
<!-- Node1&#45;&gt;Node2 -->
<g id="edge1" class="edge"><title>Node1&#45;&gt;Node2</title>
<path fill="none" stroke="midnightblue" d="M131.604,-168.324C140.474,-160.341 153.839,-148.313 164.572,-138.653"/>
<polygon fill="midnightblue" stroke="midnightblue" points="167.057,-141.125 172.149,-131.834 162.374,-135.922 167.057,-141.125"/>
</g>
<!-- Node3 -->
<g id="node3" class="node"><title>Node3</title>
<g id="a_node3"><a xlink:href="_scheduler_8h.html" target="_top" xlink:title="Scheduler.h">
<polygon fill="white" stroke="black" points="28.964,-56.5 28.964,-75.5 96.964,-75.5 96.964,-56.5 28.964,-56.5"/>
<text text-anchor="middle" x="62.964" y="-63.5" font-family="Helvetica,sans-Serif" font-size="10.00">Scheduler.h</text>
</a>
</g>
</g>
<!-- Node1&#45;&gt;Node3 -->
<g id="edge7" class="edge"><title>Node1&#45;&gt;Node3</title>
<path fill="none" stroke="midnightblue" d="M61.4827,-168.469C39.6456,-162.144 17.1487,-151.139 3.96405,-132 -9.35065,-112.672 14.7047,-93.0762 35.9875,-80.5289"/>
<polygon fill="midnightblue" stroke="midnightblue" points="37.7914,-83.5304 44.8219,-75.6044 34.3831,-77.4162 37.7914,-83.5304"/>
</g>
<!-- Node7 -->
<g id="node7" class="node"><title>Node7</title>
<g id="a_node7"><a xlink:href="_scheduler_type_8h.html" target="_top" xlink:title="SchedulerType.h">
<polygon fill="white" stroke="black" points="252.964,-112.5 252.964,-131.5 342.964,-131.5 342.964,-112.5 252.964,-112.5"/>
<text text-anchor="middle" x="297.964" y="-119.5" font-family="Helvetica,sans-Serif" font-size="10.00">SchedulerType.h</text>
</a>
</g>
</g>
<!-- Node1&#45;&gt;Node7 -->
<g id="edge8" class="edge"><title>Node1&#45;&gt;Node7</title>
<path fill="none" stroke="midnightblue" d="M149.852,-168.444C179.718,-159.28 227.279,-144.688 260.42,-134.519"/>
<polygon fill="midnightblue" stroke="midnightblue" points="261.673,-137.796 270.207,-131.516 259.62,-131.104 261.673,-137.796"/>
</g>
<!-- Node10 -->
<g id="node10" class="node"><title>Node10</title>
<g id="a_node10"><a xlink:href="_simple_scheduler_8h.html" target="_top" xlink:title="SimpleScheduler.h">
<polygon fill="white" stroke="black" points="12.964,-112.5 12.964,-131.5 110.964,-131.5 110.964,-112.5 12.964,-112.5"/>
<text text-anchor="middle" x="61.964" y="-119.5" font-family="Helvetica,sans-Serif" font-size="10.00">SimpleScheduler.h</text>
</a>
</g>
</g>
<!-- Node1&#45;&gt;Node10 -->
<g id="edge11" class="edge"><title>Node1&#45;&gt;Node10</title>
<path fill="none" stroke="midnightblue" d="M112.324,-168.324C103.454,-160.341 90.0893,-148.313 79.3561,-138.653"/>
<polygon fill="midnightblue" stroke="midnightblue" points="81.5538,-135.922 71.7795,-131.834 76.8711,-141.125 81.5538,-135.922"/>
</g>
<!-- Node2&#45;&gt;Node3 -->
<g id="edge2" class="edge"><title>Node2&#45;&gt;Node3</title>
<path fill="none" stroke="midnightblue" d="M163.108,-112.444C143.698,-103.636 113.234,-89.8116 90.9995,-79.722"/>
<polygon fill="midnightblue" stroke="midnightblue" points="92.2843,-76.4615 81.7317,-75.5164 89.3917,-82.836 92.2843,-76.4615"/>
</g>
<!-- Node5 -->
<g id="node5" class="node"><title>Node5</title>
<polygon fill="white" stroke="#bfbfbf" points="107.964,-0.5 107.964,-19.5 151.964,-19.5 151.964,-0.5 107.964,-0.5"/>
<text text-anchor="middle" x="129.964" y="-7.5" font-family="Helvetica,sans-Serif" font-size="10.00">vector</text>
</g>
<!-- Node2&#45;&gt;Node5 -->
<g id="edge6" class="edge"><title>Node2&#45;&gt;Node5</title>
<path fill="none" stroke="midnightblue" d="M176.117,-112.289C170.304,-103.405 161.354,-89.102 154.964,-76 147.511,-60.7184 140.702,-42.612 136.079,-29.3954"/>
<polygon fill="midnightblue" stroke="midnightblue" points="139.283,-27.9483 132.743,-19.613 132.658,-30.2075 139.283,-27.9483"/>
</g>
<!-- Node6 -->
<g id="node6" class="node"><title>Node6</title>
<polygon fill="white" stroke="#bfbfbf" points="164.464,-56.5 164.464,-75.5 199.464,-75.5 199.464,-56.5 164.464,-56.5"/>
<text text-anchor="middle" x="181.964" y="-63.5" font-family="Helvetica,sans-Serif" font-size="10.00">map</text>
</g>
<!-- Node2&#45;&gt;Node6 -->
<g id="edge5" class="edge"><title>Node2&#45;&gt;Node6</title>
<path fill="none" stroke="midnightblue" d="M181.964,-112.083C181.964,-105.006 181.964,-94.8611 181.964,-85.9865"/>
<polygon fill="midnightblue" stroke="midnightblue" points="185.464,-85.751 181.964,-75.7511 178.464,-85.7511 185.464,-85.751"/>
</g>
<!-- Node4 -->
<g id="node4" class="node"><title>Node4</title>
<polygon fill="white" stroke="#bfbfbf" points="36.964,-0.5 36.964,-19.5 88.964,-19.5 88.964,-0.5 36.964,-0.5"/>
<text text-anchor="middle" x="62.964" y="-7.5" font-family="Helvetica,sans-Serif" font-size="10.00">memory</text>
</g>
<!-- Node3&#45;&gt;Node4 -->
<g id="edge3" class="edge"><title>Node3&#45;&gt;Node4</title>
<path fill="none" stroke="midnightblue" d="M62.964,-56.083C62.964,-49.0059 62.964,-38.8611 62.964,-29.9865"/>
<polygon fill="midnightblue" stroke="midnightblue" points="66.4641,-29.751 62.964,-19.7511 59.4641,-29.7511 66.4641,-29.751"/>
</g>
<!-- Node3&#45;&gt;Node5 -->
<g id="edge4" class="edge"><title>Node3&#45;&gt;Node5</title>
<path fill="none" stroke="midnightblue" d="M73.7288,-56.324C83.7302,-48.2631 98.8506,-36.0765 110.895,-26.3695"/>
<polygon fill="midnightblue" stroke="midnightblue" points="113.414,-28.8343 119.003,-19.8339 109.021,-23.3841 113.414,-28.8343"/>
</g>
<!-- Node8 -->
<g id="node8" class="node"><title>Node8</title>
<g id="a_node8"><a xlink:href="_missing_scheduler_error_8h.html" target="_top" xlink:title="MissingSchedulerError.h">
<polygon fill="white" stroke="black" points="236.464,-56.5 236.464,-75.5 359.464,-75.5 359.464,-56.5 236.464,-56.5"/>
<text text-anchor="middle" x="297.964" y="-63.5" font-family="Helvetica,sans-Serif" font-size="10.00">MissingSchedulerError.h</text>
</a>
</g>
</g>
<!-- Node7&#45;&gt;Node8 -->
<g id="edge9" class="edge"><title>Node7&#45;&gt;Node8</title>
<path fill="none" stroke="midnightblue" d="M297.964,-112.083C297.964,-105.006 297.964,-94.8611 297.964,-85.9865"/>
<polygon fill="midnightblue" stroke="midnightblue" points="301.464,-85.751 297.964,-75.7511 294.464,-85.7511 301.464,-85.751"/>
</g>
<!-- Node9 -->
<g id="node9" class="node"><title>Node9</title>
<polygon fill="white" stroke="#bfbfbf" points="268.464,-0.5 268.464,-19.5 327.464,-19.5 327.464,-0.5 268.464,-0.5"/>
<text text-anchor="middle" x="297.964" y="-7.5" font-family="Helvetica,sans-Serif" font-size="10.00">stdexcept</text>
</g>
<!-- Node8&#45;&gt;Node9 -->
<g id="edge10" class="edge"><title>Node8&#45;&gt;Node9</title>
<path fill="none" stroke="midnightblue" d="M297.964,-56.083C297.964,-49.0059 297.964,-38.8611 297.964,-29.9865"/>
<polygon fill="midnightblue" stroke="midnightblue" points="301.464,-29.751 297.964,-19.7511 294.464,-29.7511 301.464,-29.751"/>
</g>
<!-- Node10&#45;&gt;Node3 -->
<g id="edge12" class="edge"><title>Node10&#45;&gt;Node3</title>
<path fill="none" stroke="midnightblue" d="M62.1292,-112.083C62.2602,-105.006 62.4481,-94.8611 62.6124,-85.9865"/>
<polygon fill="midnightblue" stroke="midnightblue" points="66.1161,-85.8142 62.802,-75.7511 59.1173,-85.6845 66.1161,-85.8142"/>
</g>
</g>
</svg>
