<?xml version="1.0" encoding="UTF-8" standalone="no"?>
<!DOCTYPE svg PUBLIC "-//W3C//DTD SVG 1.1//EN"
 "http://www.w3.org/Graphics/SVG/1.1/DTD/svg11.dtd">
<!-- Generated by graphviz version 2.38.0 (20140413.2041)
 -->
<!-- Title: include/Scheduler.h Pages: 1 -->
<svg width="669pt" height="196pt"
 viewBox="0.00 0.00 669.00 196.00" xmlns="http://www.w3.org/2000/svg" xmlns:xlink="http://www.w3.org/1999/xlink">
<g id="graph0" class="graph" transform="scale(1 1) rotate(0) translate(4 192)">
<title>include/Scheduler.h</title>
<polygon fill="white" stroke="none" points="-4,4 -4,-192 665,-192 665,4 -4,4"/>
<!-- Node1 -->
<g id="node1" class="node"><title>Node1</title>
<polygon fill="#bfbfbf" stroke="black" points="264.5,-168.5 264.5,-187.5 380.5,-187.5 380.5,-168.5 264.5,-168.5"/>
<text text-anchor="middle" x="322.5" y="-175.5" font-family="Ubuntu Mono" font-size="10.00">include/Scheduler.h</text>
</g>
<!-- Node2 -->
<g id="node2" class="node"><title>Node2</title>
<g id="a_node2"><a xlink:href="_building_8cpp.html" target="_top" xlink:title="src/Building.cpp">
<polygon fill="white" stroke="black" points="0,-112.5 0,-131.5 101,-131.5 101,-112.5 0,-112.5"/>
<text text-anchor="middle" x="50.5" y="-119.5" font-family="Ubuntu Mono" font-size="10.00">src/Building.cpp</text>
</a>
</g>
</g>
<!-- Node1&#45;&gt;Node2 -->
<g id="edge1" class="edge"><title>Node1&#45;&gt;Node2</title>
<path fill="none" stroke="midnightblue" d="M269.477,-166.473C218.071,-156.268 141.063,-140.979 93.3976,-131.516"/>
<polygon fill="midnightblue" stroke="midnightblue" points="268.911,-169.929 279.401,-168.444 270.274,-163.063 268.911,-169.929"/>
</g>
<!-- Node3 -->
<g id="node3" class="node"><title>Node3</title>
<g id="a_node3"><a xlink:href="_scheduler_8cpp.html" target="_top" xlink:title="src/Scheduler.cpp">
<polygon fill="white" stroke="black" points="119.5,-112.5 119.5,-131.5 225.5,-131.5 225.5,-112.5 119.5,-112.5"/>
<text text-anchor="middle" x="172.5" y="-119.5" font-family="Ubuntu Mono" font-size="10.00">src/Scheduler.cpp</text>
</a>
</g>
</g>
<!-- Node1&#45;&gt;Node3 -->
<g id="edge2" class="edge"><title>Node1&#45;&gt;Node3</title>
<path fill="none" stroke="midnightblue" d="M289.275,-165.039C261.052,-154.879 221.238,-140.546 196.157,-131.516"/>
<polygon fill="midnightblue" stroke="midnightblue" points="288.138,-168.349 298.732,-168.444 290.509,-161.763 288.138,-168.349"/>
</g>
<!-- Node4 -->
<g id="node4" class="node"><title>Node4</title>
<g id="a_node4"><a xlink:href="_planning_scheduler_8h.html" target="_top" xlink:title="include/PlanningScheduler.h">
<polygon fill="white" stroke="black" points="243.5,-112.5 243.5,-131.5 401.5,-131.5 401.5,-112.5 243.5,-112.5"/>
<text text-anchor="middle" x="322.5" y="-119.5" font-family="Ubuntu Mono" font-size="10.00">include/PlanningScheduler.h</text>
</a>
</g>
</g>
<!-- Node1&#45;&gt;Node4 -->
<g id="edge3" class="edge"><title>Node1&#45;&gt;Node4</title>
<path fill="none" stroke="midnightblue" d="M322.5,-157.805C322.5,-148.91 322.5,-138.78 322.5,-131.751"/>
<polygon fill="midnightblue" stroke="midnightblue" points="319,-158.083 322.5,-168.083 326,-158.083 319,-158.083"/>
</g>
<!-- Node6 -->
<g id="node6" class="node"><title>Node6</title>
<g id="a_node6"><a xlink:href="_scheduler_creator_8h.html" target="_top" xlink:title="include/SchedulerCreator.h">
<polygon fill="white" stroke="black" points="353,-56.5 353,-75.5 506,-75.5 506,-56.5 353,-56.5"/>
<text text-anchor="middle" x="429.5" y="-63.5" font-family="Ubuntu Mono" font-size="10.00">include/SchedulerCreator.h</text>
</a>
</g>
</g>
<!-- Node1&#45;&gt;Node6 -->
<g id="edge7" class="edge"><title>Node1&#45;&gt;Node6</title>
<path fill="none" stroke="midnightblue" d="M362.319,-164.676C379.318,-157.586 398.064,-147.03 410.5,-132 424.291,-115.333 428.073,-89.0457 429.109,-75.5775"/>
<polygon fill="midnightblue" stroke="midnightblue" points="360.63,-161.578 352.574,-168.459 363.163,-168.103 360.63,-161.578"/>
</g>
<!-- Node8 -->
<g id="node8" class="node"><title>Node8</title>
<g id="a_node8"><a xlink:href="_simple_scheduler_8h.html" target="_top" xlink:title="include/SimpleScheduler.h">
<polygon fill="white" stroke="black" points="457.5,-112.5 457.5,-131.5 605.5,-131.5 605.5,-112.5 457.5,-112.5"/>
<text text-anchor="middle" x="531.5" y="-119.5" font-family="Ubuntu Mono" font-size="10.00">include/SimpleScheduler.h</text>
</a>
</g>
</g>
<!-- Node1&#45;&gt;Node8 -->
<g id="edge8" class="edge"><title>Node1&#45;&gt;Node8</title>
<path fill="none" stroke="midnightblue" d="M365.484,-165.894C404.952,-155.697 462.6,-140.802 498.538,-131.516"/>
<polygon fill="midnightblue" stroke="midnightblue" points="364.423,-162.553 355.617,-168.444 366.174,-169.331 364.423,-162.553"/>
</g>
<!-- Node5 -->
<g id="node5" class="node"><title>Node5</title>
<g id="a_node5"><a xlink:href="_planning_scheduler_8cpp.html" target="_top" xlink:title="src/PlanningScheduler.cpp">
<polygon fill="white" stroke="black" points="186.5,-56.5 186.5,-75.5 334.5,-75.5 334.5,-56.5 186.5,-56.5"/>
<text text-anchor="middle" x="260.5" y="-63.5" font-family="Ubuntu Mono" font-size="10.00">src/PlanningScheduler.cpp</text>
</a>
</g>
</g>
<!-- Node4&#45;&gt;Node5 -->
<g id="edge4" class="edge"><title>Node4&#45;&gt;Node5</title>
<path fill="none" stroke="midnightblue" d="M304.746,-105.537C293.692,-95.9087 279.869,-83.8694 270.643,-75.8339"/>
<polygon fill="midnightblue" stroke="midnightblue" points="302.699,-108.395 312.539,-112.324 307.297,-103.117 302.699,-108.395"/>
</g>
<!-- Node4&#45;&gt;Node6 -->
<g id="edge5" class="edge"><title>Node4&#45;&gt;Node6</title>
<path fill="none" stroke="midnightblue" d="M348.802,-107.726C368.615,-97.7271 395.207,-84.3065 412.351,-75.6545"/>
<polygon fill="midnightblue" stroke="midnightblue" points="347.042,-104.694 339.691,-112.324 350.196,-110.943 347.042,-104.694"/>
</g>
<!-- Node7 -->
<g id="node7" class="node"><title>Node7</title>
<g id="a_node7"><a xlink:href="_simulator_8cpp.html" target="_top" xlink:title="src/Simulator.cpp">
<polygon fill="white" stroke="black" points="376.5,-0.5 376.5,-19.5 482.5,-19.5 482.5,-0.5 376.5,-0.5"/>
<text text-anchor="middle" x="429.5" y="-7.5" font-family="Ubuntu Mono" font-size="10.00">src/Simulator.cpp</text>
</a>
</g>
</g>
<!-- Node6&#45;&gt;Node7 -->
<g id="edge6" class="edge"><title>Node6&#45;&gt;Node7</title>
<path fill="none" stroke="midnightblue" d="M429.5,-45.8045C429.5,-36.9102 429.5,-26.7798 429.5,-19.7511"/>
<polygon fill="midnightblue" stroke="midnightblue" points="426,-46.083 429.5,-56.083 433,-46.083 426,-46.083"/>
</g>
<!-- Node8&#45;&gt;Node6 -->
<g id="edge10" class="edge"><title>Node8&#45;&gt;Node6</title>
<path fill="none" stroke="midnightblue" d="M506.169,-107.59C487.31,-97.6052 462.116,-84.2672 445.847,-75.6545"/>
<polygon fill="midnightblue" stroke="midnightblue" points="504.636,-110.738 515.112,-112.324 507.912,-104.552 504.636,-110.738"/>
</g>
<!-- Node9 -->
<g id="node9" class="node"><title>Node9</title>
<g id="a_node9"><a xlink:href="_simple_scheduler_8cpp.html" target="_top" xlink:title="src/SimpleScheduler.cpp">
<polygon fill="white" stroke="black" points="524,-56.5 524,-75.5 661,-75.5 661,-56.5 524,-56.5"/>
<text text-anchor="middle" x="592.5" y="-63.5" font-family="Ubuntu Mono" font-size="10.00">src/SimpleScheduler.cpp</text>
</a>
</g>
</g>
<!-- Node8&#45;&gt;Node9 -->
<g id="edge9" class="edge"><title>Node8&#45;&gt;Node9</title>
<path fill="none" stroke="midnightblue" d="M548.967,-105.537C559.844,-95.9087 573.444,-83.8694 582.521,-75.8339"/>
<polygon fill="midnightblue" stroke="midnightblue" points="546.468,-103.075 541.301,-112.324 551.108,-108.316 546.468,-103.075"/>
</g>
</g>
</svg>
