<?xml version="1.0" encoding="UTF-8" standalone="no"?>
<!DOCTYPE svg PUBLIC "-//W3C//DTD SVG 1.1//EN"
 "http://www.w3.org/Graphics/SVG/1.1/DTD/svg11.dtd">
<!-- Generated by graphviz version 2.38.0 (20140413.2041)
 -->
<!-- Title: include/SchedulerCreator.h Pages: 1 -->
<svg width="396pt" height="196pt"
 viewBox="0.00 0.00 395.61 196.00" xmlns="http://www.w3.org/2000/svg" xmlns:xlink="http://www.w3.org/1999/xlink">
<g id="graph0" class="graph" transform="scale(1 1) rotate(0) translate(4 192)">
<title>include/SchedulerCreator.h</title>
<polygon fill="white" stroke="none" points="-4,4 -4,-192 391.61,-192 391.61,4 -4,4"/>
<!-- Node1 -->
<g id="node1" class="node"><title>Node1</title>
<polygon fill="#bfbfbf" stroke="black" points="53.6099,-168.5 53.6099,-187.5 206.61,-187.5 206.61,-168.5 53.6099,-168.5"/>
<text text-anchor="middle" x="130.11" y="-175.5" font-family="Ubuntu Mono" font-size="10.00">include/SchedulerCreator.h</text>
</g>
<!-- Node2 -->
<g id="node2" class="node"><title>Node2</title>
<g id="a_node2"><a xlink:href="_planning_scheduler_8h.html" target="_top" xlink:title="PlanningScheduler.h">
<polygon fill="white" stroke="black" points="137.11,-112.5 137.11,-131.5 253.11,-131.5 253.11,-112.5 137.11,-112.5"/>
<text text-anchor="middle" x="195.11" y="-119.5" font-family="Ubuntu Mono" font-size="10.00">PlanningScheduler.h</text>
</a>
</g>
</g>
<!-- Node1&#45;&gt;Node2 -->
<g id="edge1" class="edge"><title>Node1&#45;&gt;Node2</title>
<path fill="none" stroke="midnightblue" d="M140.553,-168.324C150.256,-160.263 164.925,-148.077 176.61,-138.369"/>
<polygon fill="midnightblue" stroke="midnightblue" points="179.021,-140.916 184.476,-131.834 174.548,-135.532 179.021,-140.916"/>
</g>
<!-- Node3 -->
<g id="node3" class="node"><title>Node3</title>
<g id="a_node3"><a xlink:href="_scheduler_8h.html" target="_top" xlink:title="Scheduler.h">
<polygon fill="white" stroke="black" points="31.1099,-56.5 31.1099,-75.5 105.11,-75.5 105.11,-56.5 31.1099,-56.5"/>
<text text-anchor="middle" x="68.1099" y="-63.5" font-family="Ubuntu Mono" font-size="10.00">Scheduler.h</text>
</a>
</g>
</g>
<!-- Node1&#45;&gt;Node3 -->
<g id="edge7" class="edge"><title>Node1&#45;&gt;Node3</title>
<path fill="none" stroke="midnightblue" d="M62.0043,-168.482C39.8653,-162.117 17.5574,-151.082 4.10988,-132 -9.92164,-112.089 16.0101,-92.6402 38.9492,-80.2855"/>
<polygon fill="midnightblue" stroke="midnightblue" points="40.8257,-83.2576 48.1479,-75.6002 37.6487,-77.0201 40.8257,-83.2576"/>
</g>
<!-- Node7 -->
<g id="node7" class="node"><title>Node7</title>
<g id="a_node7"><a xlink:href="_scheduler_type_8h.html" target="_top" xlink:title="SchedulerType.h">
<polygon fill="white" stroke="black" points="271.61,-112.5 271.61,-131.5 366.61,-131.5 366.61,-112.5 271.61,-112.5"/>
<text text-anchor="middle" x="319.11" y="-119.5" font-family="Ubuntu Mono" font-size="10.00">SchedulerType.h</text>
</a>
</g>
</g>
<!-- Node1&#45;&gt;Node7 -->
<g id="edge8" class="edge"><title>Node1&#45;&gt;Node7</title>
<path fill="none" stroke="midnightblue" d="M160.057,-168.444C192.268,-159.241 243.644,-144.562 279.252,-134.388"/>
<polygon fill="midnightblue" stroke="midnightblue" points="280.649,-137.629 289.302,-131.516 278.726,-130.898 280.649,-137.629"/>
</g>
<!-- Node10 -->
<g id="node10" class="node"><title>Node10</title>
<g id="a_node10"><a xlink:href="_simple_scheduler_8h.html" target="_top" xlink:title="SimpleScheduler.h">
<polygon fill="white" stroke="black" points="13.1099,-112.5 13.1099,-131.5 119.11,-131.5 119.11,-112.5 13.1099,-112.5"/>
<text text-anchor="middle" x="66.1099" y="-119.5" font-family="Ubuntu Mono" font-size="10.00">SimpleScheduler.h</text>
</a>
</g>
</g>
<!-- Node1&#45;&gt;Node10 -->
<g id="edge11" class="edge"><title>Node1&#45;&gt;Node10</title>
<path fill="none" stroke="midnightblue" d="M119.827,-168.324C110.274,-160.263 95.8302,-148.077 84.3255,-138.369"/>
<polygon fill="midnightblue" stroke="midnightblue" points="86.4797,-135.608 76.5797,-131.834 81.9656,-140.958 86.4797,-135.608"/>
</g>
<!-- Node2&#45;&gt;Node3 -->
<g id="edge2" class="edge"><title>Node2&#45;&gt;Node3</title>
<path fill="none" stroke="midnightblue" d="M174.986,-112.444C154.086,-103.557 121.175,-89.5632 97.3938,-79.4514"/>
<polygon fill="midnightblue" stroke="midnightblue" points="98.7115,-76.2085 88.1393,-75.5164 95.9724,-82.6504 98.7115,-76.2085"/>
</g>
<!-- Node5 -->
<g id="node5" class="node"><title>Node5</title>
<polygon fill="white" stroke="#bfbfbf" points="113.11,-0.5 113.11,-19.5 161.11,-19.5 161.11,-0.5 113.11,-0.5"/>
<text text-anchor="middle" x="137.11" y="-7.5" font-family="Ubuntu Mono" font-size="10.00">vector</text>
</g>
<!-- Node2&#45;&gt;Node5 -->
<g id="edge6" class="edge"><title>Node2&#45;&gt;Node5</title>
<path fill="none" stroke="midnightblue" d="M190.221,-112.425C185.11,-103.409 176.904,-88.7852 170.11,-76 161.769,-60.3031 152.647,-42.2646 146.112,-29.1787"/>
<polygon fill="midnightblue" stroke="midnightblue" points="149.077,-27.2804 141.49,-19.8853 142.809,-30.3977 149.077,-27.2804"/>
</g>
<!-- Node6 -->
<g id="node6" class="node"><title>Node6</title>
<polygon fill="white" stroke="#bfbfbf" points="179.11,-56.5 179.11,-75.5 211.11,-75.5 211.11,-56.5 179.11,-56.5"/>
<text text-anchor="middle" x="195.11" y="-63.5" font-family="Ubuntu Mono" font-size="10.00">map</text>
</g>
<!-- Node2&#45;&gt;Node6 -->
<g id="edge5" class="edge"><title>Node2&#45;&gt;Node6</title>
<path fill="none" stroke="midnightblue" d="M195.11,-112.083C195.11,-105.006 195.11,-94.8611 195.11,-85.9865"/>
<polygon fill="midnightblue" stroke="midnightblue" points="198.61,-85.751 195.11,-75.7511 191.61,-85.7511 198.61,-85.751"/>
</g>
<!-- Node4 -->
<g id="node4" class="node"><title>Node4</title>
<polygon fill="white" stroke="#bfbfbf" points="44.1099,-0.5 44.1099,-19.5 92.1099,-19.5 92.1099,-0.5 44.1099,-0.5"/>
<text text-anchor="middle" x="68.1099" y="-7.5" font-family="Ubuntu Mono" font-size="10.00">memory</text>
</g>
<!-- Node3&#45;&gt;Node4 -->
<g id="edge3" class="edge"><title>Node3&#45;&gt;Node4</title>
<path fill="none" stroke="midnightblue" d="M68.1099,-56.083C68.1099,-49.0059 68.1099,-38.8611 68.1099,-29.9865"/>
<polygon fill="midnightblue" stroke="midnightblue" points="71.61,-29.751 68.1099,-19.7511 64.61,-29.7511 71.61,-29.751"/>
</g>
<!-- Node3&#45;&gt;Node5 -->
<g id="edge4" class="edge"><title>Node3&#45;&gt;Node5</title>
<path fill="none" stroke="midnightblue" d="M79.1959,-56.324C89.5959,-48.1849 105.371,-35.8395 117.831,-26.0874"/>
<polygon fill="midnightblue" stroke="midnightblue" points="120.104,-28.7533 125.822,-19.8339 115.79,-23.2407 120.104,-28.7533"/>
</g>
<!-- Node8 -->
<g id="node8" class="node"><title>Node8</title>
<g id="a_node8"><a xlink:href="_missing_scheduler_error_8h.html" target="_top" xlink:title="MissingSchedulerError.h">
<polygon fill="white" stroke="black" points="250.61,-56.5 250.61,-75.5 387.61,-75.5 387.61,-56.5 250.61,-56.5"/>
<text text-anchor="middle" x="319.11" y="-63.5" font-family="Ubuntu Mono" font-size="10.00">MissingSchedulerError.h</text>
</a>
</g>
</g>
<!-- Node7&#45;&gt;Node8 -->
<g id="edge9" class="edge"><title>Node7&#45;&gt;Node8</title>
<path fill="none" stroke="midnightblue" d="M319.11,-112.083C319.11,-105.006 319.11,-94.8611 319.11,-85.9865"/>
<polygon fill="midnightblue" stroke="midnightblue" points="322.61,-85.751 319.11,-75.7511 315.61,-85.7511 322.61,-85.751"/>
</g>
<!-- Node9 -->
<g id="node9" class="node"><title>Node9</title>
<polygon fill="white" stroke="#bfbfbf" points="287.11,-0.5 287.11,-19.5 351.11,-19.5 351.11,-0.5 287.11,-0.5"/>
<text text-anchor="middle" x="319.11" y="-7.5" font-family="Ubuntu Mono" font-size="10.00">stdexcept</text>
</g>
<!-- Node8&#45;&gt;Node9 -->
<g id="edge10" class="edge"><title>Node8&#45;&gt;Node9</title>
<path fill="none" stroke="midnightblue" d="M319.11,-56.083C319.11,-49.0059 319.11,-38.8611 319.11,-29.9865"/>
<polygon fill="midnightblue" stroke="midnightblue" points="322.61,-29.751 319.11,-19.7511 315.61,-29.7511 322.61,-29.751"/>
</g>
<!-- Node10&#45;&gt;Node3 -->
<g id="edge12" class="edge"><title>Node10&#45;&gt;Node3</title>
<path fill="none" stroke="midnightblue" d="M66.4401,-112.083C66.7023,-105.006 67.078,-94.8611 67.4067,-85.9865"/>
<polygon fill="midnightblue" stroke="midnightblue" points="70.9132,-85.8738 67.7858,-75.7511 63.918,-85.6147 70.9132,-85.8738"/>
</g>
</g>
</svg>
