<?xml version="1.0" encoding="UTF-8" standalone="no"?>
<!DOCTYPE svg PUBLIC "-//W3C//DTD SVG 1.1//EN"
 "http://www.w3.org/Graphics/SVG/1.1/DTD/svg11.dtd">
<!-- Generated by graphviz version 2.38.0 (20140413.2041)
 -->
<!-- Title: src/SimpleScheduler.cpp Pages: 1 -->
<!--zoomable 196 -->
<svg id="main" version="1.1" xmlns="http://www.w3.org/2000/svg" xmlns:xlink="http://www.w3.org/1999/xlink" xml:space="preserve" onload="init(evt)">
<style type="text/css"><![CDATA[
.edge:hover path { stroke: red; }
.edge:hover polygon { stroke: red; fill: red; }
]]></style>
<script type="text/javascript"><![CDATA[
var edges = document.getElementsByTagName('g');
if (edges && edges.length) {
  for (var i=0;i<edges.length;i++) {
    if (edges[i].id.substr(0,4)=='edge') {
      edges[i].setAttribute('class','edge');
    }
  }
}
]]></script>
        <defs>
                <circle id="rim" cx="0" cy="0" r="7"/>
                <circle id="rim2" cx="0" cy="0" r="3.5"/>
                <g id="zoomPlus">
                        <use xlink:href="#rim" fill="#404040">
                                <set attributeName="fill" to="#808080" begin="zoomplus.mouseover" end="zoomplus.mouseout"/>
                        </use>
                        <path d="M-4,0h8M0,-4v8" fill="none" stroke="white" stroke-width="1.5" pointer-events="none"/>
                </g>
                <g id="zoomMin">
                        <use xlink:href="#rim" fill="#404040">
                                <set attributeName="fill" to="#808080" begin="zoomminus.mouseover" end="zoomminus.mouseout"/>
                        </use>
                        <path d="M-4,0h8" fill="none" stroke="white" stroke-width="1.5" pointer-events="none"/>
                </g>
                <g id="dirArrow">
                        <path fill="none" stroke="white" stroke-width="1.5" d="M0,-3.0v7 M-2.5,-0.5L0,-3.0L2.5,-0.5"/>
                </g>
               <g id="resetDef">
                       <use xlink:href="#rim2" fill="#404040">
                               <set attributeName="fill" to="#808080" begin="reset.mouseover" end="reset.mouseout"/>
                       </use>
               </g>
        </defs>

<script type="text/javascript">
var viewWidth = 802;
var viewHeight = 196;
var sectionId = 'dynsection-0';
</script>
<script xlink:href="svgpan.js"/>
<svg id="graph" class="graph">
<g id="viewport">
<title>src/SimpleScheduler.cpp</title>
<polygon fill="white" stroke="none" points="-4,4 -4,-192 797.783,-192 797.783,4 -4,4"/>
<!-- Node1 -->
<g id="node1" class="node"><title>Node1</title>
<polygon fill="#bfbfbf" stroke="black" points="454.283,-168.5 454.283,-187.5 579.283,-187.5 579.283,-168.5 454.283,-168.5"/>
<text text-anchor="middle" x="516.783" y="-175.5" font-family="Helvetica,sans-Serif" font-size="10.00">src/SimpleScheduler.cpp</text>
</g>
<!-- Node2 -->
<g id="node2" class="node"><title>Node2</title>
<g id="a_node2"><a xlink:href="_simple_scheduler_8h.html" target="_top" xlink:title="SimpleScheduler.h">
<polygon fill="white" stroke="black" points="65.7826,-112.5 65.7826,-131.5 163.783,-131.5 163.783,-112.5 65.7826,-112.5"/>
<text text-anchor="middle" x="114.783" y="-119.5" font-family="Helvetica,sans-Serif" font-size="10.00">SimpleScheduler.h</text>
</a>
</g>
</g>
<!-- Node1&#45;&gt;Node2 -->
<g id="edge1" class="edge"><title>Node1&#45;&gt;Node2</title>
<path fill="none" stroke="midnightblue" d="M453.97,-168.562C377.411,-158.279 249.012,-141.031 174.082,-130.966"/>
<polygon fill="midnightblue" stroke="midnightblue" points="174.252,-127.457 163.875,-129.594 173.32,-134.395 174.252,-127.457"/>
</g>
<!-- Node6 -->
<g id="node6" class="node"><title>Node6</title>
<g id="a_node6"><a xlink:href="_building_8h.html" target="_top" xlink:title="Building.h">
<polygon fill="white" stroke="black" points="248.283,-112.5 248.283,-131.5 307.283,-131.5 307.283,-112.5 248.283,-112.5"/>
<text text-anchor="middle" x="277.783" y="-119.5" font-family="Helvetica,sans-Serif" font-size="10.00">Building.h</text>
</a>
</g>
</g>
<!-- Node1&#45;&gt;Node6 -->
<g id="edge5" class="edge"><title>Node1&#45;&gt;Node6</title>
<path fill="none" stroke="midnightblue" d="M478.912,-168.444C434.83,-158.483 362.359,-142.109 317.501,-131.974"/>
<polygon fill="midnightblue" stroke="midnightblue" points="318.073,-128.515 307.547,-129.725 316.53,-135.343 318.073,-128.515"/>
</g>
<!-- Node11 -->
<g id="node11" class="node"><title>Node11</title>
<g id="a_node11"><a xlink:href="_client_8h.html" target="_top" xlink:title="Client.h">
<polygon fill="white" stroke="black" points="583.783,-112.5 583.783,-131.5 633.783,-131.5 633.783,-112.5 583.783,-112.5"/>
<text text-anchor="middle" x="608.783" y="-119.5" font-family="Helvetica,sans-Serif" font-size="10.00">Client.h</text>
</a>
</g>
</g>
<!-- Node1&#45;&gt;Node11 -->
<g id="edge13" class="edge"><title>Node1&#45;&gt;Node11</title>
<path fill="none" stroke="midnightblue" d="M531.564,-168.324C546.05,-159.822 568.356,-146.729 585.276,-136.797"/>
<polygon fill="midnightblue" stroke="midnightblue" points="587.185,-139.735 594.038,-131.655 583.642,-133.698 587.185,-139.735"/>
</g>
<!-- Node13 -->
<g id="node13" class="node"><title>Node13</title>
<g id="a_node13"><a xlink:href="_cost_function_8h.html" target="_top" xlink:title="CostFunction.h">
<polygon fill="white" stroke="black" points="652.283,-112.5 652.283,-131.5 735.283,-131.5 735.283,-112.5 652.283,-112.5"/>
<text text-anchor="middle" x="693.783" y="-119.5" font-family="Helvetica,sans-Serif" font-size="10.00">CostFunction.h</text>
</a>
</g>
</g>
<!-- Node1&#45;&gt;Node13 -->
<g id="edge16" class="edge"><title>Node1&#45;&gt;Node13</title>
<path fill="none" stroke="midnightblue" d="M544.829,-168.444C574.864,-159.28 622.696,-144.688 656.025,-134.519"/>
<polygon fill="midnightblue" stroke="midnightblue" points="657.324,-137.782 665.868,-131.516 655.281,-131.087 657.324,-137.782"/>
</g>
<!-- Node14 -->
<g id="node14" class="node"><title>Node14</title>
<g id="a_node14"><a xlink:href="_elevator_8h.html" target="_top" xlink:title="Elevator.h">
<polygon fill="white" stroke="black" points="414.283,-112.5 414.283,-131.5 475.283,-131.5 475.283,-112.5 414.283,-112.5"/>
<text text-anchor="middle" x="444.783" y="-119.5" font-family="Helvetica,sans-Serif" font-size="10.00">Elevator.h</text>
</a>
</g>
</g>
<!-- Node1&#45;&gt;Node14 -->
<g id="edge18" class="edge"><title>Node1&#45;&gt;Node14</title>
<path fill="none" stroke="midnightblue" d="M505.215,-168.324C494.362,-160.185 477.902,-147.839 464.899,-138.087"/>
<polygon fill="midnightblue" stroke="midnightblue" points="466.661,-135.034 456.561,-131.834 462.461,-140.634 466.661,-135.034"/>
</g>
<!-- Node16 -->
<g id="node16" class="node"><title>Node16</title>
<g id="a_node16"><a xlink:href="_floor_8h.html" target="_top" xlink:title="Floor.h">
<polygon fill="white" stroke="black" points="493.283,-112.5 493.283,-131.5 540.283,-131.5 540.283,-112.5 493.283,-112.5"/>
<text text-anchor="middle" x="516.783" y="-119.5" font-family="Helvetica,sans-Serif" font-size="10.00">Floor.h</text>
</a>
</g>
</g>
<!-- Node1&#45;&gt;Node16 -->
<g id="edge23" class="edge"><title>Node1&#45;&gt;Node16</title>
<path fill="none" stroke="midnightblue" d="M516.783,-168.083C516.783,-161.006 516.783,-150.861 516.783,-141.986"/>
<polygon fill="midnightblue" stroke="midnightblue" points="520.283,-141.751 516.783,-131.751 513.283,-141.751 520.283,-141.751"/>
</g>
<!-- Node17 -->
<g id="node17" class="node"><title>Node17</title>
<polygon fill="white" stroke="#bfbfbf" points="753.783,-112.5 753.783,-131.5 793.783,-131.5 793.783,-112.5 753.783,-112.5"/>
<text text-anchor="middle" x="773.783" y="-119.5" font-family="Helvetica,sans-Serif" font-size="10.00">limits</text>
</g>
<!-- Node1&#45;&gt;Node17 -->
<g id="edge27" class="edge"><title>Node1&#45;&gt;Node17</title>
<path fill="none" stroke="midnightblue" d="M568.292,-168.443C612.463,-160.743 677.962,-148.468 743.49,-132.12"/>
<polygon fill="midnightblue" stroke="midnightblue" points="744.741,-135.414 753.579,-129.57 743.026,-128.627 744.741,-135.414"/>
</g>
<!-- Node3 -->
<g id="node3" class="node"><title>Node3</title>
<g id="a_node3"><a xlink:href="_scheduler_8h.html" target="_top" xlink:title="Scheduler.h">
<polygon fill="white" stroke="black" points="13.7826,-56.5 13.7826,-75.5 81.7826,-75.5 81.7826,-56.5 13.7826,-56.5"/>
<text text-anchor="middle" x="47.7826" y="-63.5" font-family="Helvetica,sans-Serif" font-size="10.00">Scheduler.h</text>
</a>
</g>
</g>
<!-- Node2&#45;&gt;Node3 -->
<g id="edge2" class="edge"><title>Node2&#45;&gt;Node3</title>
<path fill="none" stroke="midnightblue" d="M104.018,-112.324C94.0164,-104.263 78.896,-92.0765 66.8521,-82.3695"/>
<polygon fill="midnightblue" stroke="midnightblue" points="68.7255,-79.3841 58.7432,-75.8339 64.3328,-84.8343 68.7255,-79.3841"/>
</g>
<!-- Node4 -->
<g id="node4" class="node"><title>Node4</title>
<polygon fill="white" stroke="#bfbfbf" points="429.783,-0.5 429.783,-19.5 481.783,-19.5 481.783,-0.5 429.783,-0.5"/>
<text text-anchor="middle" x="455.783" y="-7.5" font-family="Helvetica,sans-Serif" font-size="10.00">memory</text>
</g>
<!-- Node3&#45;&gt;Node4 -->
<g id="edge3" class="edge"><title>Node3&#45;&gt;Node4</title>
<path fill="none" stroke="midnightblue" d="M82.0015,-57.5685C84.9656,-57.0066 87.9234,-56.4746 90.7826,-56 210.41,-36.1423 353.436,-20.9807 419.297,-14.4772"/>
<polygon fill="midnightblue" stroke="midnightblue" points="419.95,-17.93 429.562,-13.4722 419.268,-10.9633 419.95,-17.93"/>
</g>
<!-- Node5 -->
<g id="node5" class="node"><title>Node5</title>
<polygon fill="white" stroke="#bfbfbf" points="25.7826,-0.5 25.7826,-19.5 69.7826,-19.5 69.7826,-0.5 25.7826,-0.5"/>
<text text-anchor="middle" x="47.7826" y="-7.5" font-family="Helvetica,sans-Serif" font-size="10.00">vector</text>
</g>
<!-- Node3&#45;&gt;Node5 -->
<g id="edge4" class="edge"><title>Node3&#45;&gt;Node5</title>
<path fill="none" stroke="midnightblue" d="M47.7826,-56.083C47.7826,-49.0059 47.7826,-38.8611 47.7826,-29.9865"/>
<polygon fill="midnightblue" stroke="midnightblue" points="51.2827,-29.751 47.7826,-19.7511 44.2827,-29.7511 51.2827,-29.751"/>
</g>
<!-- Node6&#45;&gt;Node4 -->
<g id="edge9" class="edge"><title>Node6&#45;&gt;Node4</title>
<path fill="none" stroke="midnightblue" d="M277.8,-112.082C278.326,-98.1465 281.42,-71.2309 296.783,-56 329.51,-23.5525 383.773,-14.1077 419.657,-11.5735"/>
<polygon fill="midnightblue" stroke="midnightblue" points="419.92,-15.0644 429.708,-11.0096 419.528,-8.07535 419.92,-15.0644"/>
</g>
<!-- Node6&#45;&gt;Node5 -->
<g id="edge12" class="edge"><title>Node6&#45;&gt;Node5</title>
<path fill="none" stroke="midnightblue" d="M248.061,-118.258C180.584,-111.735 20.4399,-94.4495 4.78257,-76 -8.83555,-59.9534 9.97011,-39.4098 26.8254,-25.7582"/>
<polygon fill="midnightblue" stroke="midnightblue" points="28.979,-28.5174 34.7926,-19.66 24.7244,-22.9588 28.979,-28.5174"/>
</g>
<!-- Node7 -->
<g id="node7" class="node"><title>Node7</title>
<g id="a_node7"><a xlink:href="_event_observer_8h.html" target="_top" xlink:title="EventObserver.h">
<polygon fill="white" stroke="black" points="159.783,-56.5 159.783,-75.5 249.783,-75.5 249.783,-56.5 159.783,-56.5"/>
<text text-anchor="middle" x="204.783" y="-63.5" font-family="Helvetica,sans-Serif" font-size="10.00">EventObserver.h</text>
</a>
</g>
</g>
<!-- Node6&#45;&gt;Node7 -->
<g id="edge6" class="edge"><title>Node6&#45;&gt;Node7</title>
<path fill="none" stroke="midnightblue" d="M266.054,-112.324C254.945,-104.107 238.04,-91.6017 224.799,-81.8069"/>
<polygon fill="midnightblue" stroke="midnightblue" points="226.846,-78.9671 216.725,-75.8339 222.683,-84.5948 226.846,-78.9671"/>
</g>
<!-- Node8 -->
<g id="node8" class="node"><title>Node8</title>
<polygon fill="white" stroke="#bfbfbf" points="306.283,-56.5 306.283,-75.5 341.283,-75.5 341.283,-56.5 306.283,-56.5"/>
<text text-anchor="middle" x="323.783" y="-63.5" font-family="Helvetica,sans-Serif" font-size="10.00">map</text>
</g>
<!-- Node6&#45;&gt;Node8 -->
<g id="edge8" class="edge"><title>Node6&#45;&gt;Node8</title>
<path fill="none" stroke="midnightblue" d="M285.379,-112.083C292.01,-104.298 301.804,-92.8015 309.841,-83.3665"/>
<polygon fill="midnightblue" stroke="midnightblue" points="312.508,-85.6332 316.328,-75.7511 307.179,-81.0939 312.508,-85.6332"/>
</g>
<!-- Node9 -->
<g id="node9" class="node"><title>Node9</title>
<polygon fill="white" stroke="#bfbfbf" points="359.783,-56.5 359.783,-75.5 389.783,-75.5 389.783,-56.5 359.783,-56.5"/>
<text text-anchor="middle" x="374.783" y="-63.5" font-family="Helvetica,sans-Serif" font-size="10.00">set</text>
</g>
<!-- Node6&#45;&gt;Node9 -->
<g id="edge10" class="edge"><title>Node6&#45;&gt;Node9</title>
<path fill="none" stroke="midnightblue" d="M293.367,-112.324C308.873,-103.692 332.877,-90.3289 350.809,-80.3459"/>
<polygon fill="midnightblue" stroke="midnightblue" points="352.521,-83.3987 359.556,-75.4765 349.117,-77.2825 352.521,-83.3987"/>
</g>
<!-- Node10 -->
<g id="node10" class="node"><title>Node10</title>
<polygon fill="white" stroke="#bfbfbf" points="100.283,-56.5 100.283,-75.5 141.283,-75.5 141.283,-56.5 100.283,-56.5"/>
<text text-anchor="middle" x="120.783" y="-63.5" font-family="Helvetica,sans-Serif" font-size="10.00">string</text>
</g>
<!-- Node6&#45;&gt;Node10 -->
<g id="edge11" class="edge"><title>Node6&#45;&gt;Node10</title>
<path fill="none" stroke="midnightblue" d="M252.905,-112.444C225.371,-102.973 180.975,-87.7032 151.345,-77.512"/>
<polygon fill="midnightblue" stroke="midnightblue" points="152.127,-74.0797 141.532,-74.1368 149.85,-80.6991 152.127,-74.0797"/>
</g>
<!-- Node7&#45;&gt;Node4 -->
<g id="edge7" class="edge"><title>Node7&#45;&gt;Node4</title>
<path fill="none" stroke="midnightblue" d="M244.554,-56.4435C292.747,-46.0754 373.246,-28.7569 419.71,-18.7606"/>
<polygon fill="midnightblue" stroke="midnightblue" points="420.6,-22.1494 429.64,-16.6243 419.127,-15.306 420.6,-22.1494"/>
</g>
<!-- Node11&#45;&gt;Node4 -->
<g id="edge15" class="edge"><title>Node11&#45;&gt;Node4</title>
<path fill="none" stroke="midnightblue" d="M627.556,-112.327C651.276,-100.2 687.044,-77.2689 669.783,-56 647.812,-28.9294 547.218,-17.5395 492.123,-13.2641"/>
<polygon fill="midnightblue" stroke="midnightblue" points="492.301,-9.76786 482.071,-12.5239 491.787,-16.749 492.301,-9.76786"/>
</g>
<!-- Node12 -->
<g id="node12" class="node"><title>Node12</title>
<polygon fill="white" stroke="#bfbfbf" points="584.283,-56.5 584.283,-75.5 661.283,-75.5 661.283,-56.5 584.283,-56.5"/>
<text text-anchor="middle" x="622.783" y="-63.5" font-family="Helvetica,sans-Serif" font-size="10.00">glog/logging.h</text>
</g>
<!-- Node11&#45;&gt;Node12 -->
<g id="edge14" class="edge"><title>Node11&#45;&gt;Node12</title>
<path fill="none" stroke="midnightblue" d="M611.094,-112.083C612.95,-104.927 615.618,-94.6353 617.937,-85.6911"/>
<polygon fill="midnightblue" stroke="midnightblue" points="621.392,-86.3094 620.514,-75.7511 614.616,-84.5527 621.392,-86.3094"/>
</g>
<!-- Node13&#45;&gt;Node4 -->
<g id="edge17" class="edge"><title>Node13&#45;&gt;Node4</title>
<path fill="none" stroke="midnightblue" d="M695.785,-112.118C698.344,-98.2315 700.908,-71.3821 686.783,-56 661.091,-28.0234 550.87,-16.9478 492.455,-12.9806"/>
<polygon fill="midnightblue" stroke="midnightblue" points="492.386,-9.46908 482.182,-12.3201 491.937,-16.4547 492.386,-9.46908"/>
</g>
<!-- Node14&#45;&gt;Node4 -->
<g id="edge20" class="edge"><title>Node14&#45;&gt;Node4</title>
<path fill="none" stroke="midnightblue" d="M445.646,-112.368C447.421,-94.617 451.516,-53.6664 453.923,-29.5974"/>
<polygon fill="midnightblue" stroke="midnightblue" points="457.411,-29.8901 454.923,-19.5914 450.446,-29.1935 457.411,-29.8901"/>
</g>
<!-- Node14&#45;&gt;Node5 -->
<g id="edge22" class="edge"><title>Node14&#45;&gt;Node5</title>
<path fill="none" stroke="midnightblue" d="M441.289,-112.049C435.118,-97.5577 420.822,-69.2473 398.783,-56 345.458,-23.9474 156.803,-14.4452 80.3348,-11.8743"/>
<polygon fill="midnightblue" stroke="midnightblue" points="80.0019,-8.36207 69.896,-11.5434 79.7801,-15.3586 80.0019,-8.36207"/>
</g>
<!-- Node14&#45;&gt;Node8 -->
<g id="edge19" class="edge"><title>Node14&#45;&gt;Node8</title>
<path fill="none" stroke="midnightblue" d="M425.61,-112.444C405.409,-103.428 373.433,-89.1583 350.708,-79.0161"/>
<polygon fill="midnightblue" stroke="midnightblue" points="351.852,-75.6944 341.294,-74.8151 349,-82.0867 351.852,-75.6944"/>
</g>
<!-- Node15 -->
<g id="node15" class="node"><title>Node15</title>
<polygon fill="white" stroke="#bfbfbf" points="484.283,-56.5 484.283,-75.5 527.283,-75.5 527.283,-56.5 484.283,-56.5"/>
<text text-anchor="middle" x="505.783" y="-63.5" font-family="Helvetica,sans-Serif" font-size="10.00">queue</text>
</g>
<!-- Node14&#45;&gt;Node15 -->
<g id="edge21" class="edge"><title>Node14&#45;&gt;Node15</title>
<path fill="none" stroke="midnightblue" d="M454.583,-112.324C463.601,-104.341 477.189,-92.3128 488.101,-82.6529"/>
<polygon fill="midnightblue" stroke="midnightblue" points="490.636,-85.083 495.804,-75.8339 485.996,-79.8416 490.636,-85.083"/>
</g>
<!-- Node16&#45;&gt;Node4 -->
<g id="edge24" class="edge"><title>Node16&#45;&gt;Node4</title>
<path fill="none" stroke="midnightblue" d="M523.335,-112.476C532.425,-99.5314 546.585,-74.4706 535.783,-56 526.166,-39.5567 508.087,-28.6579 491.545,-21.7109"/>
<polygon fill="midnightblue" stroke="midnightblue" points="492.649,-18.3856 482.059,-18.0653 490.138,-24.9197 492.649,-18.3856"/>
</g>
<!-- Node16&#45;&gt;Node9 -->
<g id="edge26" class="edge"><title>Node16&#45;&gt;Node9</title>
<path fill="none" stroke="midnightblue" d="M494.282,-112.444C468.486,-102.634 426.328,-86.6019 399.598,-76.4369"/>
<polygon fill="midnightblue" stroke="midnightblue" points="400.766,-73.1367 390.175,-72.8536 398.278,-79.6795 400.766,-73.1367"/>
</g>
<!-- Node16&#45;&gt;Node15 -->
<g id="edge25" class="edge"><title>Node16&#45;&gt;Node15</title>
<path fill="none" stroke="midnightblue" d="M514.966,-112.083C513.508,-104.927 511.412,-94.6353 509.59,-85.6911"/>
<polygon fill="midnightblue" stroke="midnightblue" points="512.991,-84.8512 507.565,-75.7511 506.132,-86.2485 512.991,-84.8512"/>
</g>
</g>
</svg>
        <g id="navigator" transform="translate(0 0)" fill="#404254">
                <rect fill="#f2f5e9" fill-opacity="0.5" stroke="#606060" stroke-width=".5" x="0" y="0" width="60" height="60"/>
                <use id="zoomplus" xlink:href="#zoomPlus" x="17" y="9" onmousedown="handleZoom(evt,'in')"/>
                <use id="zoomminus" xlink:href="#zoomMin" x="42" y="9" onmousedown="handleZoom(evt,'out')"/>
                <use id="reset" xlink:href="#resetDef" x="30" y="36" onmousedown="handleReset()"/>
                <g id="arrowUp" xlink:href="#dirArrow" transform="translate(30 24)" onmousedown="handlePan(0,-1)">
                  <use xlink:href="#rim" fill="#404040">
                        <set attributeName="fill" to="#808080" begin="arrowUp.mouseover" end="arrowUp.mouseout"/>
                  </use>
                  <path fill="none" stroke="white" stroke-width="1.5" d="M0,-3.0v7 M-2.5,-0.5L0,-3.0L2.5,-0.5"/>
                </g>
                <g id="arrowRight" xlink:href="#dirArrow" transform="rotate(90) translate(36 -43)" onmousedown="handlePan(1,0)">
                  <use xlink:href="#rim" fill="#404040">
                        <set attributeName="fill" to="#808080" begin="arrowRight.mouseover" end="arrowRight.mouseout"/>
                  </use>
                  <path fill="none" stroke="white" stroke-width="1.5" d="M0,-3.0v7 M-2.5,-0.5L0,-3.0L2.5,-0.5"/>
                </g>
                <g id="arrowDown" xlink:href="#dirArrow" transform="rotate(180) translate(-30 -48)" onmousedown="handlePan(0,1)">
                  <use xlink:href="#rim" fill="#404040">
                        <set attributeName="fill" to="#808080" begin="arrowDown.mouseover" end="arrowDown.mouseout"/>
                  </use>
                  <path fill="none" stroke="white" stroke-width="1.5" d="M0,-3.0v7 M-2.5,-0.5L0,-3.0L2.5,-0.5"/>
                </g>
                <g id="arrowLeft" xlink:href="#dirArrow" transform="rotate(270) translate(-36 17)" onmousedown="handlePan(-1,0)">
                  <use xlink:href="#rim" fill="#404040">
                        <set attributeName="fill" to="#808080" begin="arrowLeft.mouseover" end="arrowLeft.mouseout"/>
                  </use>
                  <path fill="none" stroke="white" stroke-width="1.5" d="M0,-3.0v7 M-2.5,-0.5L0,-3.0L2.5,-0.5"/>
                </g>
        </g>
        <svg viewBox="0 0 15 15" width="100%" height="30px" preserveAspectRatio="xMaxYMin meet">
         <g id="arrow_out" transform="scale(0.3 0.3)">
          <a xlink:href="_simple_scheduler_8cpp__incl_org.svg" target="_base">
           <rect id="button" ry="5" rx="5" y="6" x="6" height="38" width="38"
                fill="#f2f5e9" fill-opacity="0.5" stroke="#606060" stroke-width="1.0"/>
           <path id="arrow"
             d="M 11.500037,31.436501 C 11.940474,20.09759 22.043105,11.32322 32.158766,21.979434 L 37.068811,17.246167 C 37.068811,17.246167 37.088388,32 37.088388,32 L 22.160133,31.978069 C 22.160133,31.978069 26.997745,27.140456 26.997745,27.140456 C 18.528582,18.264221 13.291696,25.230495 11.500037,31.436501 z"
             style="fill:#404040;"/>
          </a>
         </g>
        </svg>
</svg>
