<?xml version="1.0" encoding="UTF-8" standalone="no"?>
<!DOCTYPE svg PUBLIC "-//W3C//DTD SVG 1.1//EN"
 "http://www.w3.org/Graphics/SVG/1.1/DTD/svg11.dtd">
<!-- Generated by graphviz version 2.38.0 (20140413.2041)
 -->
<!-- Title: include/SimpleScheduler.h Pages: 1 -->
<svg width="156pt" height="140pt"
 viewBox="0.00 0.00 156.00 140.00" xmlns="http://www.w3.org/2000/svg" xmlns:xlink="http://www.w3.org/1999/xlink">
<g id="graph0" class="graph" transform="scale(1 1) rotate(0) translate(4 136)">
<title>include/SimpleScheduler.h</title>
<polygon fill="white" stroke="none" points="-4,4 -4,-136 152,-136 152,4 -4,4"/>
<!-- Node1 -->
<g id="node1" class="node"><title>Node1</title>
<polygon fill="#bfbfbf" stroke="black" points="0,-112.5 0,-131.5 148,-131.5 148,-112.5 0,-112.5"/>
<text text-anchor="middle" x="74" y="-119.5" font-family="Ubuntu Mono" font-size="10.00">include/SimpleScheduler.h</text>
</g>
<!-- Node2 -->
<g id="node2" class="node"><title>Node2</title>
<g id="a_node2"><a xlink:href="_scheduler_8h.html" target="_top" xlink:title="Scheduler.h">
<polygon fill="white" stroke="black" points="37,-56.5 37,-75.5 111,-75.5 111,-56.5 37,-56.5"/>
<text text-anchor="middle" x="74" y="-63.5" font-family="Ubuntu Mono" font-size="10.00">Scheduler.h</text>
</a>
</g>
</g>
<!-- Node1&#45;&gt;Node2 -->
<g id="edge1" class="edge"><title>Node1&#45;&gt;Node2</title>
<path fill="none" stroke="midnightblue" d="M74,-112.083C74,-105.006 74,-94.8611 74,-85.9865"/>
<polygon fill="midnightblue" stroke="midnightblue" points="77.5001,-85.751 74,-75.7511 70.5001,-85.7511 77.5001,-85.751"/>
</g>
<!-- Node3 -->
<g id="node3" class="node"><title>Node3</title>
<polygon fill="white" stroke="#bfbfbf" points="17,-0.5 17,-19.5 65,-19.5 65,-0.5 17,-0.5"/>
<text text-anchor="middle" x="41" y="-7.5" font-family="Ubuntu Mono" font-size="10.00">memory</text>
</g>
<!-- Node2&#45;&gt;Node3 -->
<g id="edge2" class="edge"><title>Node2&#45;&gt;Node3</title>
<path fill="none" stroke="midnightblue" d="M68.5507,-56.083C63.9855,-48.6127 57.3316,-37.7244 51.7066,-28.5199"/>
<polygon fill="midnightblue" stroke="midnightblue" points="54.5489,-26.4588 46.3479,-19.7511 48.5759,-30.109 54.5489,-26.4588"/>
</g>
<!-- Node4 -->
<g id="node4" class="node"><title>Node4</title>
<polygon fill="white" stroke="#bfbfbf" points="83,-0.5 83,-19.5 131,-19.5 131,-0.5 83,-0.5"/>
<text text-anchor="middle" x="107" y="-7.5" font-family="Ubuntu Mono" font-size="10.00">vector</text>
</g>
<!-- Node2&#45;&gt;Node4 -->
<g id="edge3" class="edge"><title>Node2&#45;&gt;Node4</title>
<path fill="none" stroke="midnightblue" d="M79.4493,-56.083C84.0145,-48.6127 90.6684,-37.7244 96.2934,-28.5199"/>
<polygon fill="midnightblue" stroke="midnightblue" points="99.4241,-30.109 101.652,-19.7511 93.4511,-26.4588 99.4241,-30.109"/>
</g>
</g>
</svg>
