<?xml version="1.0" encoding="UTF-8" standalone="no"?>
<!DOCTYPE svg PUBLIC "-//W3C//DTD SVG 1.1//EN"
 "http://www.w3.org/Graphics/SVG/1.1/DTD/svg11.dtd">
<!-- Generated by graphviz version 2.38.0 (20140413.2041)
 -->
<!-- Title: include/SimpleScheduler.h Pages: 1 -->
<svg width="316pt" height="140pt"
 viewBox="0.00 0.00 316.00 140.00" xmlns="http://www.w3.org/2000/svg" xmlns:xlink="http://www.w3.org/1999/xlink">
<g id="graph0" class="graph" transform="scale(1 1) rotate(0) translate(4 136)">
<title>include/SimpleScheduler.h</title>
<polygon fill="white" stroke="none" points="-4,4 -4,-136 312,-136 312,4 -4,4"/>
<!-- Node1 -->
<g id="node1" class="node"><title>Node1</title>
<polygon fill="#bfbfbf" stroke="black" points="75.5,-112.5 75.5,-131.5 223.5,-131.5 223.5,-112.5 75.5,-112.5"/>
<text text-anchor="middle" x="149.5" y="-119.5" font-family="Ubuntu Mono" font-size="10.00">include/SimpleScheduler.h</text>
</g>
<!-- Node2 -->
<g id="node2" class="node"><title>Node2</title>
<g id="a_node2"><a xlink:href="_simple_scheduler_8cpp.html" target="_top" xlink:title="src/SimpleScheduler.cpp">
<polygon fill="white" stroke="black" points="0,-56.5 0,-75.5 137,-75.5 137,-56.5 0,-56.5"/>
<text text-anchor="middle" x="68.5" y="-63.5" font-family="Ubuntu Mono" font-size="10.00">src/SimpleScheduler.cpp</text>
</a>
</g>
</g>
<!-- Node1&#45;&gt;Node2 -->
<g id="edge1" class="edge"><title>Node1&#45;&gt;Node2</title>
<path fill="none" stroke="midnightblue" d="M127.933,-106.622C113.136,-96.7574 93.9878,-83.9919 81.4818,-75.6545"/>
<polygon fill="midnightblue" stroke="midnightblue" points="126.224,-109.689 136.486,-112.324 130.107,-103.865 126.224,-109.689"/>
</g>
<!-- Node3 -->
<g id="node3" class="node"><title>Node3</title>
<g id="a_node3"><a xlink:href="_scheduler_creator_8h.html" target="_top" xlink:title="include/SchedulerCreator.h">
<polygon fill="white" stroke="black" points="155,-56.5 155,-75.5 308,-75.5 308,-56.5 155,-56.5"/>
<text text-anchor="middle" x="231.5" y="-63.5" font-family="Ubuntu Mono" font-size="10.00">include/SchedulerCreator.h</text>
</a>
</g>
</g>
<!-- Node1&#45;&gt;Node3 -->
<g id="edge2" class="edge"><title>Node1&#45;&gt;Node3</title>
<path fill="none" stroke="midnightblue" d="M171.333,-106.622C186.313,-96.7574 205.697,-83.9919 218.358,-75.6545"/>
<polygon fill="midnightblue" stroke="midnightblue" points="169.101,-103.901 162.675,-112.324 172.951,-109.747 169.101,-103.901"/>
</g>
<!-- Node4 -->
<g id="node4" class="node"><title>Node4</title>
<g id="a_node4"><a xlink:href="_simulator_8cpp.html" target="_top" xlink:title="src/Simulator.cpp">
<polygon fill="white" stroke="black" points="178.5,-0.5 178.5,-19.5 284.5,-19.5 284.5,-0.5 178.5,-0.5"/>
<text text-anchor="middle" x="231.5" y="-7.5" font-family="Ubuntu Mono" font-size="10.00">src/Simulator.cpp</text>
</a>
</g>
</g>
<!-- Node3&#45;&gt;Node4 -->
<g id="edge3" class="edge"><title>Node3&#45;&gt;Node4</title>
<path fill="none" stroke="midnightblue" d="M231.5,-45.8045C231.5,-36.9102 231.5,-26.7798 231.5,-19.7511"/>
<polygon fill="midnightblue" stroke="midnightblue" points="228,-46.083 231.5,-56.083 235,-46.083 228,-46.083"/>
</g>
</g>
</svg>
