<?xml version="1.0" encoding="UTF-8" standalone="no"?>
<!DOCTYPE svg PUBLIC "-//W3C//DTD SVG 1.1//EN"
 "http://www.w3.org/Graphics/SVG/1.1/DTD/svg11.dtd">
<!-- Generated by graphviz version 2.38.0 (20140413.2041)
 -->
<!-- Title: include/Simulator.h Pages: 1 -->
<svg width="674pt" height="84pt"
 viewBox="0.00 0.00 673.50 84.00" xmlns="http://www.w3.org/2000/svg" xmlns:xlink="http://www.w3.org/1999/xlink">
<g id="graph0" class="graph" transform="scale(1 1) rotate(0) translate(4 80)">
<title>include/Simulator.h</title>
<polygon fill="white" stroke="none" points="-4,4 -4,-80 669.5,-80 669.5,4 -4,4"/>
<!-- Node1 -->
<g id="node1" class="node"><title>Node1</title>
<polygon fill="#bfbfbf" stroke="black" points="272.5,-56.5 272.5,-75.5 388.5,-75.5 388.5,-56.5 272.5,-56.5"/>
<text text-anchor="middle" x="330.5" y="-63.5" font-family="Ubuntu Mono" font-size="10.00">include/Simulator.h</text>
</g>
<!-- Node2 -->
<g id="node2" class="node"><title>Node2</title>
<g id="a_node2"><a xlink:href="_building_8cpp.html" target="_top" xlink:title="src/Building.cpp">
<polygon fill="white" stroke="black" points="0,-0.5 0,-19.5 101,-19.5 101,-0.5 0,-0.5"/>
<text text-anchor="middle" x="50.5" y="-7.5" font-family="Ubuntu Mono" font-size="10.00">src/Building.cpp</text>
</a>
</g>
</g>
<!-- Node1&#45;&gt;Node2 -->
<g id="edge1" class="edge"><title>Node1&#45;&gt;Node2</title>
<path fill="none" stroke="midnightblue" d="M276.248,-54.5371C223.33,-44.3316 143.829,-28.9992 94.6593,-19.5164"/>
<polygon fill="midnightblue" stroke="midnightblue" points="275.651,-57.9865 286.133,-56.4435 276.977,-51.1131 275.651,-57.9865"/>
</g>
<!-- Node3 -->
<g id="node3" class="node"><title>Node3</title>
<g id="a_node3"><a xlink:href="_elevator_8cpp.html" target="_top" xlink:title="src/Elevator.cpp">
<polygon fill="white" stroke="black" points="119,-0.5 119,-19.5 220,-19.5 220,-0.5 119,-0.5"/>
<text text-anchor="middle" x="169.5" y="-7.5" font-family="Ubuntu Mono" font-size="10.00">src/Elevator.cpp</text>
</a>
</g>
</g>
<!-- Node1&#45;&gt;Node3 -->
<g id="edge2" class="edge"><title>Node1&#45;&gt;Node3</title>
<path fill="none" stroke="midnightblue" d="M295.235,-53.172C264.919,-43.0039 221.93,-28.5852 194.892,-19.5164"/>
<polygon fill="midnightblue" stroke="midnightblue" points="294.395,-56.5819 304.989,-56.4435 296.621,-49.9452 294.395,-56.5819"/>
</g>
<!-- Node4 -->
<g id="node4" class="node"><title>Node4</title>
<g id="a_node4"><a xlink:href="_floor_8cpp.html" target="_top" xlink:title="src/Floor.cpp">
<polygon fill="white" stroke="black" points="238,-0.5 238,-19.5 323,-19.5 323,-0.5 238,-0.5"/>
<text text-anchor="middle" x="280.5" y="-7.5" font-family="Ubuntu Mono" font-size="10.00">src/Floor.cpp</text>
</a>
</g>
</g>
<!-- Node1&#45;&gt;Node4 -->
<g id="edge3" class="edge"><title>Node1&#45;&gt;Node4</title>
<path fill="none" stroke="midnightblue" d="M315.424,-48.7175C306.611,-39.1997 295.834,-27.5608 288.603,-19.7511"/>
<polygon fill="midnightblue" stroke="midnightblue" points="312.881,-51.1233 322.244,-56.083 318.018,-46.3674 312.881,-51.1233"/>
</g>
<!-- Node5 -->
<g id="node5" class="node"><title>Node5</title>
<g id="a_node5"><a xlink:href="main_8cpp.html" target="_top" xlink:title="src/main.cpp">
<polygon fill="white" stroke="black" points="341.5,-0.5 341.5,-19.5 421.5,-19.5 421.5,-0.5 341.5,-0.5"/>
<text text-anchor="middle" x="381.5" y="-7.5" font-family="Ubuntu Mono" font-size="10.00">src/main.cpp</text>
</a>
</g>
</g>
<!-- Node1&#45;&gt;Node5 -->
<g id="edge4" class="edge"><title>Node1&#45;&gt;Node5</title>
<path fill="none" stroke="midnightblue" d="M345.878,-48.7175C354.867,-39.1997 365.859,-27.5608 373.235,-19.7511"/>
<polygon fill="midnightblue" stroke="midnightblue" points="343.243,-46.4096 338.922,-56.083 348.332,-51.216 343.243,-46.4096"/>
</g>
<!-- Node6 -->
<g id="node6" class="node"><title>Node6</title>
<g id="a_node6"><a xlink:href="_reporter_8cpp.html" target="_top" xlink:title="src/Reporter.cpp">
<polygon fill="white" stroke="black" points="440,-0.5 440,-19.5 541,-19.5 541,-0.5 440,-0.5"/>
<text text-anchor="middle" x="490.5" y="-7.5" font-family="Ubuntu Mono" font-size="10.00">src/Reporter.cpp</text>
</a>
</g>
</g>
<!-- Node1&#45;&gt;Node6 -->
<g id="edge5" class="edge"><title>Node1&#45;&gt;Node6</title>
<path fill="none" stroke="midnightblue" d="M365.546,-53.172C395.674,-43.0039 438.396,-28.5852 465.266,-19.5164"/>
<polygon fill="midnightblue" stroke="midnightblue" points="364.208,-49.9295 355.852,-56.4435 366.447,-56.5619 364.208,-49.9295"/>
</g>
<!-- Node7 -->
<g id="node7" class="node"><title>Node7</title>
<g id="a_node7"><a xlink:href="_simulator_8cpp.html" target="_top" xlink:title="src/Simulator.cpp">
<polygon fill="white" stroke="black" points="559.5,-0.5 559.5,-19.5 665.5,-19.5 665.5,-0.5 559.5,-0.5"/>
<text text-anchor="middle" x="612.5" y="-7.5" font-family="Ubuntu Mono" font-size="10.00">src/Simulator.cpp</text>
</a>
</g>
</g>
<!-- Node1&#45;&gt;Node7 -->
<g id="edge6" class="edge"><title>Node1&#45;&gt;Node7</title>
<path fill="none" stroke="midnightblue" d="M385.139,-54.5371C438.435,-44.3316 518.504,-28.9992 568.025,-19.5164"/>
<polygon fill="midnightblue" stroke="midnightblue" points="384.347,-51.1252 375.184,-56.4435 385.664,-58.0003 384.347,-51.1252"/>
</g>
</g>
</svg>
