<?xml version="1.0" encoding="UTF-8" standalone="no"?>
<!DOCTYPE svg PUBLIC "-//W3C//DTD SVG 1.1//EN"
 "http://www.w3.org/Graphics/SVG/1.1/DTD/svg11.dtd">
<!-- Generated by graphviz version 2.38.0 (20140413.2041)
 -->
<!-- Title: include/Simulator.h Pages: 1 -->
<svg width="753pt" height="84pt"
 viewBox="0.00 0.00 752.50 84.00" xmlns="http://www.w3.org/2000/svg" xmlns:xlink="http://www.w3.org/1999/xlink">
<g id="graph0" class="graph" transform="scale(1 1) rotate(0) translate(4 80)">
<title>include/Simulator.h</title>
<polygon fill="white" stroke="none" points="-4,4 -4,-80 748.5,-80 748.5,4 -4,4"/>
<!-- Node1 -->
<g id="node1" class="node"><title>Node1</title>
<polygon fill="#bfbfbf" stroke="black" points="289,-56.5 289,-75.5 389,-75.5 389,-56.5 289,-56.5"/>
<text text-anchor="middle" x="339" y="-63.5" font-family="Helvetica,sans-Serif" font-size="10.00">include/Simulator.h</text>
</g>
<!-- Node2 -->
<g id="node2" class="node"><title>Node2</title>
<g id="a_node2"><a xlink:href="_building_8cpp.html" target="_top" xlink:title="src/Building.cpp">
<polygon fill="white" stroke="black" points="0,-0.5 0,-19.5 86,-19.5 86,-0.5 0,-0.5"/>
<text text-anchor="middle" x="43" y="-7.5" font-family="Helvetica,sans-Serif" font-size="10.00">src/Building.cpp</text>
</a>
</g>
</g>
<!-- Node1&#45;&gt;Node2 -->
<g id="edge1" class="edge"><title>Node1&#45;&gt;Node2</title>
<path fill="none" stroke="midnightblue" d="M282.137,-54.6263C224.974,-44.198 138.112,-28.3516 86.3121,-18.9015"/>
<polygon fill="midnightblue" stroke="midnightblue" points="281.632,-58.0919 292.098,-56.4435 282.888,-51.2056 281.632,-58.0919"/>
</g>
<!-- Node3 -->
<g id="node3" class="node"><title>Node3</title>
<g id="a_node3"><a xlink:href="_elevator_8cpp.html" target="_top" xlink:title="src/Elevator.cpp">
<polygon fill="white" stroke="black" points="104,-0.5 104,-19.5 192,-19.5 192,-0.5 104,-0.5"/>
<text text-anchor="middle" x="148" y="-7.5" font-family="Helvetica,sans-Serif" font-size="10.00">src/Elevator.cpp</text>
</a>
</g>
</g>
<!-- Node1&#45;&gt;Node3 -->
<g id="edge2" class="edge"><title>Node1&#45;&gt;Node3</title>
<path fill="none" stroke="midnightblue" d="M299.027,-53.6986C262.979,-43.507 210.757,-28.7429 178.123,-19.5164"/>
<polygon fill="midnightblue" stroke="midnightblue" points="298.16,-57.0909 308.735,-56.4435 300.065,-50.3549 298.16,-57.0909"/>
</g>
<!-- Node4 -->
<g id="node4" class="node"><title>Node4</title>
<g id="a_node4"><a xlink:href="_floor_8cpp.html" target="_top" xlink:title="src/Floor.cpp">
<polygon fill="white" stroke="black" points="210,-0.5 210,-19.5 284,-19.5 284,-0.5 210,-0.5"/>
<text text-anchor="middle" x="247" y="-7.5" font-family="Helvetica,sans-Serif" font-size="10.00">src/Floor.cpp</text>
</a>
</g>
</g>
<!-- Node1&#45;&gt;Node4 -->
<g id="edge3" class="edge"><title>Node1&#45;&gt;Node4</title>
<path fill="none" stroke="midnightblue" d="M315.45,-51.1774C298.521,-41.2407 276.217,-28.1492 261.745,-19.6545"/>
<polygon fill="midnightblue" stroke="midnightblue" points="313.823,-54.2804 324.219,-56.324 317.366,-48.2435 313.823,-54.2804"/>
</g>
<!-- Node5 -->
<g id="node5" class="node"><title>Node5</title>
<g id="a_node5"><a xlink:href="main_8cpp.html" target="_top" xlink:title="src/main.cpp">
<polygon fill="white" stroke="black" points="302.5,-0.5 302.5,-19.5 375.5,-19.5 375.5,-0.5 302.5,-0.5"/>
<text text-anchor="middle" x="339" y="-7.5" font-family="Helvetica,sans-Serif" font-size="10.00">src/main.cpp</text>
</a>
</g>
</g>
<!-- Node1&#45;&gt;Node5 -->
<g id="edge4" class="edge"><title>Node1&#45;&gt;Node5</title>
<path fill="none" stroke="midnightblue" d="M339,-45.8045C339,-36.9102 339,-26.7798 339,-19.7511"/>
<polygon fill="midnightblue" stroke="midnightblue" points="335.5,-46.083 339,-56.083 342.5,-46.083 335.5,-46.083"/>
</g>
<!-- Node6 -->
<g id="node6" class="node"><title>Node6</title>
<g id="a_node6"><a xlink:href="_planning_scheduler_8cpp.html" target="_top" xlink:title="src/PlanningScheduler.cpp">
<polygon fill="white" stroke="black" points="393.5,-0.5 393.5,-19.5 526.5,-19.5 526.5,-0.5 393.5,-0.5"/>
<text text-anchor="middle" x="460" y="-7.5" font-family="Helvetica,sans-Serif" font-size="10.00">src/PlanningScheduler.cpp</text>
</a>
</g>
</g>
<!-- Node1&#45;&gt;Node6 -->
<g id="edge5" class="edge"><title>Node1&#45;&gt;Node6</title>
<path fill="none" stroke="midnightblue" d="M367.306,-52.3678C389.965,-42.2553 421.126,-28.3486 440.917,-19.5164"/>
<polygon fill="midnightblue" stroke="midnightblue" points="365.878,-49.1719 358.173,-56.4435 368.731,-55.5643 365.878,-49.1719"/>
</g>
<!-- Node7 -->
<g id="node7" class="node"><title>Node7</title>
<g id="a_node7"><a xlink:href="_reporter_8cpp.html" target="_top" xlink:title="src/Reporter.cpp">
<polygon fill="white" stroke="black" points="544.5,-0.5 544.5,-19.5 633.5,-19.5 633.5,-0.5 544.5,-0.5"/>
<text text-anchor="middle" x="589" y="-7.5" font-family="Helvetica,sans-Serif" font-size="10.00">src/Reporter.cpp</text>
</a>
</g>
</g>
<!-- Node1&#45;&gt;Node7 -->
<g id="edge6" class="edge"><title>Node1&#45;&gt;Node7</title>
<path fill="none" stroke="midnightblue" d="M388.623,-54.2815C435.866,-44.0769 506.036,-28.9203 549.572,-19.5164"/>
<polygon fill="midnightblue" stroke="midnightblue" points="387.649,-50.9111 378.613,-56.4435 389.127,-57.7533 387.649,-50.9111"/>
</g>
<!-- Node8 -->
<g id="node8" class="node"><title>Node8</title>
<g id="a_node8"><a xlink:href="_simulator_8cpp.html" target="_top" xlink:title="src/Simulator.cpp">
<polygon fill="white" stroke="black" points="651.5,-0.5 651.5,-19.5 744.5,-19.5 744.5,-0.5 651.5,-0.5"/>
<text text-anchor="middle" x="698" y="-7.5" font-family="Helvetica,sans-Serif" font-size="10.00">src/Simulator.cpp</text>
</a>
</g>
</g>
<!-- Node1&#45;&gt;Node8 -->
<g id="edge7" class="edge"><title>Node1&#45;&gt;Node8</title>
<path fill="none" stroke="midnightblue" d="M399.339,-56.3448C460.709,-47.4766 558.532,-33.162 643,-20 645.772,-19.568 648.623,-19.1184 651.497,-18.6607"/>
<polygon fill="midnightblue" stroke="midnightblue" points="398.461,-52.9351 389.063,-57.8279 399.461,-59.8633 398.461,-52.9351"/>
</g>
</g>
</svg>
