<?xml version="1.0" encoding="UTF-8" standalone="no"?>
<!DOCTYPE svg PUBLIC "-//W3C//DTD SVG 1.1//EN"
 "http://www.w3.org/Graphics/SVG/1.1/DTD/svg11.dtd">
<!-- Generated by graphviz version 2.38.0 (20140413.2041)
 -->
<!-- Title: src/SimpleScheduler.cpp Pages: 1 -->
<svg width="844pt" height="196pt"
 viewBox="0.00 0.00 843.87 196.00" xmlns="http://www.w3.org/2000/svg" xmlns:xlink="http://www.w3.org/1999/xlink">
<g id="graph0" class="graph" transform="scale(1 1) rotate(0) translate(4 192)">
<title>src/SimpleScheduler.cpp</title>
<polygon fill="white" stroke="none" points="-4,4 -4,-192 839.873,-192 839.873,4 -4,4"/>
<!-- Node1 -->
<g id="node1" class="node"><title>Node1</title>
<polygon fill="#bfbfbf" stroke="black" points="465.373,-168.5 465.373,-187.5 602.373,-187.5 602.373,-168.5 465.373,-168.5"/>
<text text-anchor="middle" x="533.873" y="-175.5" font-family="Ubuntu Mono" font-size="10.00">src/SimpleScheduler.cpp</text>
</g>
<!-- Node2 -->
<g id="node2" class="node"><title>Node2</title>
<g id="a_node2"><a xlink:href="_simple_scheduler_8h.html" target="_top" xlink:title="SimpleScheduler.h">
<polygon fill="white" stroke="black" points="67.8734,-112.5 67.8734,-131.5 173.873,-131.5 173.873,-112.5 67.8734,-112.5"/>
<text text-anchor="middle" x="120.873" y="-119.5" font-family="Ubuntu Mono" font-size="10.00">SimpleScheduler.h</text>
</a>
</g>
</g>
<!-- Node1&#45;&gt;Node2 -->
<g id="edge1" class="edge"><title>Node1&#45;&gt;Node2</title>
<path fill="none" stroke="midnightblue" d="M468.432,-168.444C390.504,-158.254 261.236,-141.352 184.235,-131.285"/>
<polygon fill="midnightblue" stroke="midnightblue" points="184.558,-127.797 174.188,-129.971 183.65,-134.738 184.558,-127.797"/>
</g>
<!-- Node6 -->
<g id="node6" class="node"><title>Node6</title>
<g id="a_node6"><a xlink:href="_building_8h.html" target="_top" xlink:title="Building.h">
<polygon fill="white" stroke="black" points="261.373,-112.5 261.373,-131.5 330.373,-131.5 330.373,-112.5 261.373,-112.5"/>
<text text-anchor="middle" x="295.873" y="-119.5" font-family="Ubuntu Mono" font-size="10.00">Building.h</text>
</a>
</g>
</g>
<!-- Node1&#45;&gt;Node6 -->
<g id="edge5" class="edge"><title>Node1&#45;&gt;Node6</title>
<path fill="none" stroke="midnightblue" d="M496.162,-168.444C453.877,-158.85 385.363,-143.304 340.46,-133.116"/>
<polygon fill="midnightblue" stroke="midnightblue" points="341.225,-129.701 330.699,-130.902 339.676,-136.528 341.225,-129.701"/>
</g>
<!-- Node11 -->
<g id="node11" class="node"><title>Node11</title>
<g id="a_node11"><a xlink:href="_client_8h.html" target="_top" xlink:title="Client.h">
<polygon fill="white" stroke="black" points="602.373,-112.5 602.373,-131.5 661.373,-131.5 661.373,-112.5 602.373,-112.5"/>
<text text-anchor="middle" x="631.873" y="-119.5" font-family="Ubuntu Mono" font-size="10.00">Client.h</text>
</a>
</g>
</g>
<!-- Node1&#45;&gt;Node11 -->
<g id="edge13" class="edge"><title>Node1&#45;&gt;Node11</title>
<path fill="none" stroke="midnightblue" d="M549.619,-168.324C565.192,-159.743 589.251,-146.486 607.333,-136.522"/>
<polygon fill="midnightblue" stroke="midnightblue" points="609.098,-139.546 616.167,-131.655 605.72,-133.415 609.098,-139.546"/>
</g>
<!-- Node13 -->
<g id="node13" class="node"><title>Node13</title>
<g id="a_node13"><a xlink:href="_cost_function_8h.html" target="_top" xlink:title="CostFunction.h">
<polygon fill="white" stroke="black" points="679.873,-112.5 679.873,-131.5 769.873,-131.5 769.873,-112.5 679.873,-112.5"/>
<text text-anchor="middle" x="724.873" y="-119.5" font-family="Ubuntu Mono" font-size="10.00">CostFunction.h</text>
</a>
</g>
</g>
<!-- Node1&#45;&gt;Node13 -->
<g id="edge16" class="edge"><title>Node1&#45;&gt;Node13</title>
<path fill="none" stroke="midnightblue" d="M564.138,-168.444C596.829,-159.201 649.055,-144.436 685.056,-134.257"/>
<polygon fill="midnightblue" stroke="midnightblue" points="686.08,-137.605 694.75,-131.516 684.175,-130.869 686.08,-137.605"/>
</g>
<!-- Node14 -->
<g id="node14" class="node"><title>Node14</title>
<g id="a_node14"><a xlink:href="_elevator_8h.html" target="_top" xlink:title="Elevator.h">
<polygon fill="white" stroke="black" points="420.373,-112.5 420.373,-131.5 489.373,-131.5 489.373,-112.5 420.373,-112.5"/>
<text text-anchor="middle" x="454.873" y="-119.5" font-family="Ubuntu Mono" font-size="10.00">Elevator.h</text>
</a>
</g>
</g>
<!-- Node1&#45;&gt;Node14 -->
<g id="edge18" class="edge"><title>Node1&#45;&gt;Node14</title>
<path fill="none" stroke="midnightblue" d="M521.181,-168.324C508.972,-159.979 490.295,-147.212 475.87,-137.352"/>
<polygon fill="midnightblue" stroke="midnightblue" points="477.765,-134.408 467.535,-131.655 473.815,-140.187 477.765,-134.408"/>
</g>
<!-- Node16 -->
<g id="node16" class="node"><title>Node16</title>
<g id="a_node16"><a xlink:href="_floor_8h.html" target="_top" xlink:title="Floor.h">
<polygon fill="white" stroke="black" points="507.373,-112.5 507.373,-131.5 560.373,-131.5 560.373,-112.5 507.373,-112.5"/>
<text text-anchor="middle" x="533.873" y="-119.5" font-family="Ubuntu Mono" font-size="10.00">Floor.h</text>
</a>
</g>
</g>
<!-- Node1&#45;&gt;Node16 -->
<g id="edge23" class="edge"><title>Node1&#45;&gt;Node16</title>
<path fill="none" stroke="midnightblue" d="M533.873,-168.083C533.873,-161.006 533.873,-150.861 533.873,-141.986"/>
<polygon fill="midnightblue" stroke="midnightblue" points="537.373,-141.751 533.873,-131.751 530.373,-141.751 537.373,-141.751"/>
</g>
<!-- Node17 -->
<g id="node17" class="node"><title>Node17</title>
<polygon fill="white" stroke="#bfbfbf" points="787.873,-112.5 787.873,-131.5 835.873,-131.5 835.873,-112.5 787.873,-112.5"/>
<text text-anchor="middle" x="811.873" y="-119.5" font-family="Ubuntu Mono" font-size="10.00">limits</text>
</g>
<!-- Node1&#45;&gt;Node17 -->
<g id="edge27" class="edge"><title>Node1&#45;&gt;Node17</title>
<path fill="none" stroke="midnightblue" d="M587.669,-168.465C635.249,-160.612 706.738,-148.076 777.765,-132.1"/>
<polygon fill="midnightblue" stroke="midnightblue" points="778.807,-135.453 787.782,-129.823 777.255,-128.627 778.807,-135.453"/>
</g>
<!-- Node3 -->
<g id="node3" class="node"><title>Node3</title>
<g id="a_node3"><a xlink:href="_scheduler_8h.html" target="_top" xlink:title="Scheduler.h">
<polygon fill="white" stroke="black" points="13.8734,-56.5 13.8734,-75.5 87.8734,-75.5 87.8734,-56.5 13.8734,-56.5"/>
<text text-anchor="middle" x="50.8734" y="-63.5" font-family="Ubuntu Mono" font-size="10.00">Scheduler.h</text>
</a>
</g>
</g>
<!-- Node2&#45;&gt;Node3 -->
<g id="edge2" class="edge"><title>Node2&#45;&gt;Node3</title>
<path fill="none" stroke="midnightblue" d="M109.627,-112.324C99.076,-104.185 83.0727,-91.8395 70.4312,-82.0874"/>
<polygon fill="midnightblue" stroke="midnightblue" points="72.3804,-79.1707 62.3247,-75.8339 68.1048,-84.7132 72.3804,-79.1707"/>
</g>
<!-- Node4 -->
<g id="node4" class="node"><title>Node4</title>
<polygon fill="white" stroke="#bfbfbf" points="447.873,-0.5 447.873,-19.5 495.873,-19.5 495.873,-0.5 447.873,-0.5"/>
<text text-anchor="middle" x="471.873" y="-7.5" font-family="Ubuntu Mono" font-size="10.00">memory</text>
</g>
<!-- Node3&#45;&gt;Node4 -->
<g id="edge3" class="edge"><title>Node3&#45;&gt;Node4</title>
<path fill="none" stroke="midnightblue" d="M87.9888,-57.4944C90.99,-56.9619 93.9796,-56.4561 96.8734,-56 221.733,-36.3214 371.183,-20.7633 437.393,-14.2782"/>
<polygon fill="midnightblue" stroke="midnightblue" points="438.044,-17.7315 447.659,-13.2804 437.367,-10.7644 438.044,-17.7315"/>
</g>
<!-- Node5 -->
<g id="node5" class="node"><title>Node5</title>
<polygon fill="white" stroke="#bfbfbf" points="26.8734,-0.5 26.8734,-19.5 74.8734,-19.5 74.8734,-0.5 26.8734,-0.5"/>
<text text-anchor="middle" x="50.8734" y="-7.5" font-family="Ubuntu Mono" font-size="10.00">vector</text>
</g>
<!-- Node3&#45;&gt;Node5 -->
<g id="edge4" class="edge"><title>Node3&#45;&gt;Node5</title>
<path fill="none" stroke="midnightblue" d="M50.8734,-56.083C50.8734,-49.0059 50.8734,-38.8611 50.8734,-29.9865"/>
<polygon fill="midnightblue" stroke="midnightblue" points="54.3735,-29.751 50.8734,-19.7511 47.3735,-29.7511 54.3735,-29.751"/>
</g>
<!-- Node6&#45;&gt;Node4 -->
<g id="edge9" class="edge"><title>Node6&#45;&gt;Node4</title>
<path fill="none" stroke="midnightblue" d="M295.897,-112.088C296.431,-98.1609 299.537,-71.2565 314.873,-56 347.574,-23.4705 402.11,-14.1118 437.527,-11.6115"/>
<polygon fill="midnightblue" stroke="midnightblue" points="438.069,-15.0869 447.859,-11.0376 437.681,-8.09764 438.069,-15.0869"/>
</g>
<!-- Node6&#45;&gt;Node5 -->
<g id="edge12" class="edge"><title>Node6&#45;&gt;Node5</title>
<path fill="none" stroke="midnightblue" d="M261.203,-118.148C187.667,-111.749 21.4052,-95.2848 4.8734,-76 -9.12215,-59.6738 10.8723,-39.1904 28.7187,-25.6291"/>
<polygon fill="midnightblue" stroke="midnightblue" points="31.067,-28.2517 37.1487,-19.5763 26.9843,-22.5656 31.067,-28.2517"/>
</g>
<!-- Node7 -->
<g id="node7" class="node"><title>Node7</title>
<g id="a_node7"><a xlink:href="_event_observer_8h.html" target="_top" xlink:title="EventObserver.h">
<polygon fill="white" stroke="black" points="172.373,-56.5 172.373,-75.5 267.373,-75.5 267.373,-56.5 172.373,-56.5"/>
<text text-anchor="middle" x="219.873" y="-63.5" font-family="Ubuntu Mono" font-size="10.00">EventObserver.h</text>
</a>
</g>
</g>
<!-- Node6&#45;&gt;Node7 -->
<g id="edge6" class="edge"><title>Node6&#45;&gt;Node7</title>
<path fill="none" stroke="midnightblue" d="M283.663,-112.324C272.098,-104.107 254.498,-91.6017 240.713,-81.8069"/>
<polygon fill="midnightblue" stroke="midnightblue" points="242.485,-78.7729 232.306,-75.8339 238.431,-84.4791 242.485,-78.7729"/>
</g>
<!-- Node8 -->
<g id="node8" class="node"><title>Node8</title>
<polygon fill="white" stroke="#bfbfbf" points="323.873,-56.5 323.873,-75.5 355.873,-75.5 355.873,-56.5 323.873,-56.5"/>
<text text-anchor="middle" x="339.873" y="-63.5" font-family="Ubuntu Mono" font-size="10.00">map</text>
</g>
<!-- Node6&#45;&gt;Node8 -->
<g id="edge8" class="edge"><title>Node6&#45;&gt;Node8</title>
<path fill="none" stroke="midnightblue" d="M303.139,-112.083C309.418,-104.377 318.661,-93.0333 326.304,-83.6531"/>
<polygon fill="midnightblue" stroke="midnightblue" points="329.139,-85.7143 332.743,-75.7511 323.713,-81.2926 329.139,-85.7143"/>
</g>
<!-- Node9 -->
<g id="node9" class="node"><title>Node9</title>
<polygon fill="white" stroke="#bfbfbf" points="373.873,-56.5 373.873,-75.5 405.873,-75.5 405.873,-56.5 373.873,-56.5"/>
<text text-anchor="middle" x="389.873" y="-63.5" font-family="Ubuntu Mono" font-size="10.00">set</text>
</g>
<!-- Node6&#45;&gt;Node9 -->
<g id="edge10" class="edge"><title>Node6&#45;&gt;Node9</title>
<path fill="none" stroke="midnightblue" d="M310.976,-112.324C325.777,-103.822 348.568,-90.7288 365.856,-80.7975"/>
<polygon fill="midnightblue" stroke="midnightblue" points="367.881,-83.6707 374.808,-75.6545 364.394,-77.6009 367.881,-83.6707"/>
</g>
<!-- Node10 -->
<g id="node10" class="node"><title>Node10</title>
<polygon fill="white" stroke="#bfbfbf" points="105.873,-56.5 105.873,-75.5 153.873,-75.5 153.873,-56.5 105.873,-56.5"/>
<text text-anchor="middle" x="129.873" y="-63.5" font-family="Ubuntu Mono" font-size="10.00">string</text>
</g>
<!-- Node6&#45;&gt;Node10 -->
<g id="edge11" class="edge"><title>Node6&#45;&gt;Node10</title>
<path fill="none" stroke="midnightblue" d="M269.57,-112.444C240.863,-103.105 194.821,-88.1276 163.507,-77.9409"/>
<polygon fill="midnightblue" stroke="midnightblue" points="164.49,-74.5803 153.898,-74.8151 162.324,-81.2369 164.49,-74.5803"/>
</g>
<!-- Node7&#45;&gt;Node4 -->
<g id="edge7" class="edge"><title>Node7&#45;&gt;Node4</title>
<path fill="none" stroke="midnightblue" d="M259.804,-56.4435C308.962,-45.9095 391.602,-28.2009 437.87,-18.2865"/>
<polygon fill="midnightblue" stroke="midnightblue" points="438.669,-21.6949 447.713,-16.1772 437.202,-14.8502 438.669,-21.6949"/>
</g>
<!-- Node11&#45;&gt;Node4 -->
<g id="edge15" class="edge"><title>Node11&#45;&gt;Node4</title>
<path fill="none" stroke="midnightblue" d="M652.716,-112.382C678.519,-100.499 716.976,-78.0429 698.873,-56 674.87,-26.7706 563.385,-16.1946 506.083,-12.6447"/>
<polygon fill="midnightblue" stroke="midnightblue" points="506.234,-9.14765 496.048,-12.0607 505.827,-16.1358 506.234,-9.14765"/>
</g>
<!-- Node12 -->
<g id="node12" class="node"><title>Node12</title>
<polygon fill="white" stroke="#bfbfbf" points="599.873,-56.5 599.873,-75.5 689.873,-75.5 689.873,-56.5 599.873,-56.5"/>
<text text-anchor="middle" x="644.873" y="-63.5" font-family="Ubuntu Mono" font-size="10.00">glog/logging.h</text>
</g>
<!-- Node11&#45;&gt;Node12 -->
<g id="edge14" class="edge"><title>Node11&#45;&gt;Node12</title>
<path fill="none" stroke="midnightblue" d="M634.02,-112.083C635.743,-104.927 638.22,-94.6353 640.374,-85.6911"/>
<polygon fill="midnightblue" stroke="midnightblue" points="643.829,-86.2925 642.767,-75.7511 637.023,-84.6541 643.829,-86.2925"/>
</g>
<!-- Node13&#45;&gt;Node4 -->
<g id="edge17" class="edge"><title>Node13&#45;&gt;Node4</title>
<path fill="none" stroke="midnightblue" d="M726.576,-112.063C728.672,-98.1013 730.36,-71.1506 715.873,-56 687.58,-26.4097 566.775,-15.952 506.443,-12.5285"/>
<polygon fill="midnightblue" stroke="midnightblue" points="506.435,-9.02317 496.263,-11.9853 506.062,-16.0132 506.435,-9.02317"/>
</g>
<!-- Node14&#45;&gt;Node4 -->
<g id="edge20" class="edge"><title>Node14&#45;&gt;Node4</title>
<path fill="none" stroke="midnightblue" d="M456.207,-112.368C458.951,-94.617 465.28,-53.6664 468.999,-29.5974"/>
<polygon fill="midnightblue" stroke="midnightblue" points="472.477,-30.0087 470.546,-19.5914 465.559,-28.9395 472.477,-30.0087"/>
</g>
<!-- Node14&#45;&gt;Node5 -->
<g id="edge22" class="edge"><title>Node14&#45;&gt;Node5</title>
<path fill="none" stroke="midnightblue" d="M452.188,-112.066C447.328,-97.5984 435.608,-69.3218 414.873,-56 360.656,-21.1661 164.616,-13.2843 84.9181,-11.5109"/>
<polygon fill="midnightblue" stroke="midnightblue" points="84.9795,-8.01149 74.9103,-11.3071 84.8369,-15.01 84.9795,-8.01149"/>
</g>
<!-- Node14&#45;&gt;Node8 -->
<g id="edge19" class="edge"><title>Node14&#45;&gt;Node8</title>
<path fill="none" stroke="midnightblue" d="M436.651,-112.444C417.429,-103.417 386.987,-89.1229 365.383,-78.9785"/>
<polygon fill="midnightblue" stroke="midnightblue" points="366.69,-75.7257 356.151,-74.6433 363.715,-82.0619 366.69,-75.7257"/>
</g>
<!-- Node15 -->
<g id="node15" class="node"><title>Node15</title>
<polygon fill="white" stroke="#bfbfbf" points="500.373,-56.5 500.373,-75.5 543.373,-75.5 543.373,-56.5 500.373,-56.5"/>
<text text-anchor="middle" x="521.873" y="-63.5" font-family="Ubuntu Mono" font-size="10.00">queue</text>
</g>
<!-- Node14&#45;&gt;Node15 -->
<g id="edge21" class="edge"><title>Node14&#45;&gt;Node15</title>
<path fill="none" stroke="midnightblue" d="M465.638,-112.324C475.64,-104.263 490.76,-92.0765 502.804,-82.3695"/>
<polygon fill="midnightblue" stroke="midnightblue" points="505.323,-84.8343 510.913,-75.8339 500.93,-79.3841 505.323,-84.8343"/>
</g>
<!-- Node16&#45;&gt;Node4 -->
<g id="edge24" class="edge"><title>Node16&#45;&gt;Node4</title>
<path fill="none" stroke="midnightblue" d="M540.213,-112.458C548.996,-99.4883 562.632,-74.396 551.873,-56 541.92,-38.9818 522.903,-27.9025 505.907,-20.9967"/>
<polygon fill="midnightblue" stroke="midnightblue" points="506.81,-17.5987 496.217,-17.3995 504.374,-24.1611 506.81,-17.5987"/>
</g>
<!-- Node16&#45;&gt;Node9 -->
<g id="edge26" class="edge"><title>Node16&#45;&gt;Node9</title>
<path fill="none" stroke="midnightblue" d="M511.056,-112.444C485.037,-102.686 442.604,-86.7741 415.477,-76.6014"/>
<polygon fill="midnightblue" stroke="midnightblue" points="416.488,-73.2426 405.896,-73.0084 414.03,-79.7969 416.488,-73.2426"/>
</g>
<!-- Node16&#45;&gt;Node15 -->
<g id="edge25" class="edge"><title>Node16&#45;&gt;Node15</title>
<path fill="none" stroke="midnightblue" d="M531.892,-112.083C530.302,-104.927 528.015,-94.6353 526.027,-85.6911"/>
<polygon fill="midnightblue" stroke="midnightblue" points="529.404,-84.7537 523.818,-75.7511 522.571,-86.2722 529.404,-84.7537"/>
</g>
</g>
</svg>
