<?xml version="1.0" encoding="UTF-8" standalone="no"?>
<!DOCTYPE svg PUBLIC "-//W3C//DTD SVG 1.1//EN"
 "http://www.w3.org/Graphics/SVG/1.1/DTD/svg11.dtd">
<!-- Generated by graphviz version 2.38.0 (20140413.2041)
 -->
<!-- Title: include/Simulator.h Pages: 1 -->
<svg width="184pt" height="84pt"
 viewBox="0.00 0.00 183.50 84.00" xmlns="http://www.w3.org/2000/svg" xmlns:xlink="http://www.w3.org/1999/xlink">
<g id="graph0" class="graph" transform="scale(1 1) rotate(0) translate(4 80)">
<title>include/Simulator.h</title>
<polygon fill="white" stroke="none" points="-4,4 -4,-80 179.5,-80 179.5,4 -4,4"/>
<!-- Node1 -->
<g id="node1" class="node"><title>Node1</title>
<polygon fill="#bfbfbf" stroke="black" points="27.5,-56.5 27.5,-75.5 143.5,-75.5 143.5,-56.5 27.5,-56.5"/>
<text text-anchor="middle" x="85.5" y="-63.5" font-family="Ubuntu Mono" font-size="10.00">include/Simulator.h</text>
</g>
<!-- Node2 -->
<g id="node2" class="node"><title>Node2</title>
<polygon fill="white" stroke="#bfbfbf" points="0,-0.5 0,-19.5 43,-19.5 43,-0.5 0,-0.5"/>
<text text-anchor="middle" x="21.5" y="-7.5" font-family="Ubuntu Mono" font-size="10.00">ctime</text>
</g>
<!-- Node1&#45;&gt;Node2 -->
<g id="edge1" class="edge"><title>Node1&#45;&gt;Node2</title>
<path fill="none" stroke="midnightblue" d="M75.2173,-56.324C65.6637,-48.2631 51.2203,-36.0765 39.7157,-26.3695"/>
<polygon fill="midnightblue" stroke="midnightblue" points="41.8698,-23.6076 31.9698,-19.8339 37.3557,-28.9577 41.8698,-23.6076"/>
</g>
<!-- Node3 -->
<g id="node3" class="node"><title>Node3</title>
<polygon fill="white" stroke="#bfbfbf" points="61.5,-0.5 61.5,-19.5 109.5,-19.5 109.5,-0.5 61.5,-0.5"/>
<text text-anchor="middle" x="85.5" y="-7.5" font-family="Ubuntu Mono" font-size="10.00">memory</text>
</g>
<!-- Node1&#45;&gt;Node3 -->
<g id="edge2" class="edge"><title>Node1&#45;&gt;Node3</title>
<path fill="none" stroke="midnightblue" d="M85.5,-56.083C85.5,-49.0059 85.5,-38.8611 85.5,-29.9865"/>
<polygon fill="midnightblue" stroke="midnightblue" points="89.0001,-29.751 85.5,-19.7511 82.0001,-29.7511 89.0001,-29.751"/>
</g>
<!-- Node4 -->
<g id="node4" class="node"><title>Node4</title>
<polygon fill="white" stroke="#bfbfbf" points="127.5,-0.5 127.5,-19.5 175.5,-19.5 175.5,-0.5 127.5,-0.5"/>
<text text-anchor="middle" x="151.5" y="-7.5" font-family="Ubuntu Mono" font-size="10.00">random</text>
</g>
<!-- Node1&#45;&gt;Node4 -->
<g id="edge3" class="edge"><title>Node1&#45;&gt;Node4</title>
<path fill="none" stroke="midnightblue" d="M96.104,-56.324C105.956,-48.2631 120.851,-36.0765 132.715,-26.3695"/>
<polygon fill="midnightblue" stroke="midnightblue" points="135.18,-28.8752 140.703,-19.8339 130.747,-23.4575 135.18,-28.8752"/>
</g>
</g>
</svg>
