<?xml version="1.0" encoding="UTF-8" standalone="no"?>
<!DOCTYPE svg PUBLIC "-//W3C//DTD SVG 1.1//EN"
 "http://www.w3.org/Graphics/SVG/1.1/DTD/svg11.dtd">
<!-- Generated by graphviz version 2.38.0 (20140413.2041)
 -->
<!-- Title: include/SimpleScheduler.h Pages: 1 -->
<svg width="140pt" height="140pt"
 viewBox="0.00 0.00 140.00 140.00" xmlns="http://www.w3.org/2000/svg" xmlns:xlink="http://www.w3.org/1999/xlink">
<g id="graph0" class="graph" transform="scale(1 1) rotate(0) translate(4 136)">
<title>include/SimpleScheduler.h</title>
<polygon fill="white" stroke="none" points="-4,4 -4,-136 136,-136 136,4 -4,4"/>
<!-- Node1 -->
<g id="node1" class="node"><title>Node1</title>
<polygon fill="#bfbfbf" stroke="black" points="0,-112.5 0,-131.5 132,-131.5 132,-112.5 0,-112.5"/>
<text text-anchor="middle" x="66" y="-119.5" font-family="Helvetica,sans-Serif" font-size="10.00">include/SimpleScheduler.h</text>
</g>
<!-- Node2 -->
<g id="node2" class="node"><title>Node2</title>
<g id="a_node2"><a xlink:href="_scheduler_8h.html" target="_top" xlink:title="Scheduler.h">
<polygon fill="white" stroke="black" points="32,-56.5 32,-75.5 100,-75.5 100,-56.5 32,-56.5"/>
<text text-anchor="middle" x="66" y="-63.5" font-family="Helvetica,sans-Serif" font-size="10.00">Scheduler.h</text>
</a>
</g>
</g>
<!-- Node1&#45;&gt;Node2 -->
<g id="edge1" class="edge"><title>Node1&#45;&gt;Node2</title>
<path fill="none" stroke="midnightblue" d="M66,-112.083C66,-105.006 66,-94.8611 66,-85.9865"/>
<polygon fill="midnightblue" stroke="midnightblue" points="69.5001,-85.751 66,-75.7511 62.5001,-85.7511 69.5001,-85.751"/>
</g>
<!-- Node3 -->
<g id="node3" class="node"><title>Node3</title>
<polygon fill="white" stroke="#bfbfbf" points="7,-0.5 7,-19.5 59,-19.5 59,-0.5 7,-0.5"/>
<text text-anchor="middle" x="33" y="-7.5" font-family="Helvetica,sans-Serif" font-size="10.00">memory</text>
</g>
<!-- Node2&#45;&gt;Node3 -->
<g id="edge2" class="edge"><title>Node2&#45;&gt;Node3</title>
<path fill="none" stroke="midnightblue" d="M60.5507,-56.083C55.9855,-48.6127 49.3316,-37.7244 43.7066,-28.5199"/>
<polygon fill="midnightblue" stroke="midnightblue" points="46.5489,-26.4588 38.3479,-19.7511 40.5759,-30.109 46.5489,-26.4588"/>
</g>
<!-- Node4 -->
<g id="node4" class="node"><title>Node4</title>
<polygon fill="white" stroke="#bfbfbf" points="77,-0.5 77,-19.5 121,-19.5 121,-0.5 77,-0.5"/>
<text text-anchor="middle" x="99" y="-7.5" font-family="Helvetica,sans-Serif" font-size="10.00">vector</text>
</g>
<!-- Node2&#45;&gt;Node4 -->
<g id="edge3" class="edge"><title>Node2&#45;&gt;Node4</title>
<path fill="none" stroke="midnightblue" d="M71.4493,-56.083C76.0145,-48.6127 82.6684,-37.7244 88.2934,-28.5199"/>
<polygon fill="midnightblue" stroke="midnightblue" points="91.4241,-30.109 93.6521,-19.7511 85.4511,-26.4588 91.4241,-30.109"/>
</g>
</g>
</svg>
