<?xml version="1.0" encoding="UTF-8" standalone="no"?>
<!DOCTYPE svg PUBLIC "-//W3C//DTD SVG 1.1//EN"
 "http://www.w3.org/Graphics/SVG/1.1/DTD/svg11.dtd">
<!-- Generated by graphviz version 2.38.0 (20140413.2041)
 -->
<!-- Title: include/Statistics.h Pages: 1 -->
<svg width="392pt" height="140pt"
 viewBox="0.00 0.00 391.50 140.00" xmlns="http://www.w3.org/2000/svg" xmlns:xlink="http://www.w3.org/1999/xlink">
<g id="graph0" class="graph" transform="scale(1 1) rotate(0) translate(4 136)">
<title>include/Statistics.h</title>
<polygon fill="white" stroke="none" points="-4,4 -4,-136 387.5,-136 387.5,4 -4,4"/>
<!-- Node1 -->
<g id="node1" class="node"><title>Node1</title>
<polygon fill="#bfbfbf" stroke="black" points="141.5,-112.5 141.5,-131.5 263.5,-131.5 263.5,-112.5 141.5,-112.5"/>
<text text-anchor="middle" x="202.5" y="-119.5" font-family="Ubuntu Mono" font-size="10.00">include/Statistics.h</text>
</g>
<!-- Node2 -->
<g id="node2" class="node"><title>Node2</title>
<g id="a_node2"><a xlink:href="_event_observer_8h.html" target="_top" xlink:title="EventObserver.h">
<polygon fill="white" stroke="black" points="0,-56.5 0,-75.5 95,-75.5 95,-56.5 0,-56.5"/>
<text text-anchor="middle" x="47.5" y="-63.5" font-family="Ubuntu Mono" font-size="10.00">EventObserver.h</text>
</a>
</g>
</g>
<!-- Node1&#45;&gt;Node2 -->
<g id="edge1" class="edge"><title>Node1&#45;&gt;Node2</title>
<path fill="none" stroke="midnightblue" d="M177.94,-112.444C151.977,-103.399 110.832,-89.064 81.7029,-78.9158"/>
<polygon fill="midnightblue" stroke="midnightblue" points="82.5401,-75.5013 71.9453,-75.5164 80.2371,-82.1116 82.5401,-75.5013"/>
</g>
<!-- Node3 -->
<g id="node3" class="node"><title>Node3</title>
<polygon fill="white" stroke="#bfbfbf" points="61.5,-0.5 61.5,-19.5 109.5,-19.5 109.5,-0.5 61.5,-0.5"/>
<text text-anchor="middle" x="85.5" y="-7.5" font-family="Ubuntu Mono" font-size="10.00">memory</text>
</g>
<!-- Node1&#45;&gt;Node3 -->
<g id="edge5" class="edge"><title>Node1&#45;&gt;Node3</title>
<path fill="none" stroke="midnightblue" d="M189.747,-112.345C177.409,-103.729 158.436,-89.8282 143.5,-76 127.113,-60.8283 110.334,-41.5341 99.0672,-27.9202"/>
<polygon fill="midnightblue" stroke="midnightblue" points="101.553,-25.4298 92.5185,-19.8947 96.1289,-29.8554 101.553,-25.4298"/>
</g>
<!-- Node4 -->
<g id="node4" class="node"><title>Node4</title>
<polygon fill="white" stroke="#bfbfbf" points="152,-56.5 152,-75.5 195,-75.5 195,-56.5 152,-56.5"/>
<text text-anchor="middle" x="173.5" y="-63.5" font-family="Ubuntu Mono" font-size="10.00">ctime</text>
</g>
<!-- Node1&#45;&gt;Node4 -->
<g id="edge3" class="edge"><title>Node1&#45;&gt;Node4</title>
<path fill="none" stroke="midnightblue" d="M197.711,-112.083C193.742,-104.691 187.975,-93.9533 183.065,-84.8111"/>
<polygon fill="midnightblue" stroke="midnightblue" points="186.014,-82.9051 178.2,-75.7511 179.847,-86.217 186.014,-82.9051"/>
</g>
<!-- Node5 -->
<g id="node5" class="node"><title>Node5</title>
<polygon fill="white" stroke="#bfbfbf" points="213.5,-56.5 213.5,-75.5 251.5,-75.5 251.5,-56.5 213.5,-56.5"/>
<text text-anchor="middle" x="232.5" y="-63.5" font-family="Ubuntu Mono" font-size="10.00">list</text>
</g>
<!-- Node1&#45;&gt;Node5 -->
<g id="edge4" class="edge"><title>Node1&#45;&gt;Node5</title>
<path fill="none" stroke="midnightblue" d="M207.454,-112.083C211.604,-104.613 217.653,-93.7244 222.767,-84.5199"/>
<polygon fill="midnightblue" stroke="midnightblue" points="225.841,-86.1924 227.638,-75.7511 219.722,-82.7929 225.841,-86.1924"/>
</g>
<!-- Node6 -->
<g id="node6" class="node"><title>Node6</title>
<polygon fill="white" stroke="#bfbfbf" points="269.5,-56.5 269.5,-75.5 317.5,-75.5 317.5,-56.5 269.5,-56.5"/>
<text text-anchor="middle" x="293.5" y="-63.5" font-family="Ubuntu Mono" font-size="10.00">string</text>
</g>
<!-- Node1&#45;&gt;Node6 -->
<g id="edge6" class="edge"><title>Node1&#45;&gt;Node6</title>
<path fill="none" stroke="midnightblue" d="M217.121,-112.324C231.449,-103.822 253.513,-90.7288 270.249,-80.7975"/>
<polygon fill="midnightblue" stroke="midnightblue" points="272.102,-83.7677 278.916,-75.6545 268.53,-77.7478 272.102,-83.7677"/>
</g>
<!-- Node7 -->
<g id="node7" class="node"><title>Node7</title>
<polygon fill="white" stroke="#bfbfbf" points="335.5,-56.5 335.5,-75.5 383.5,-75.5 383.5,-56.5 335.5,-56.5"/>
<text text-anchor="middle" x="359.5" y="-63.5" font-family="Ubuntu Mono" font-size="10.00">vector</text>
</g>
<!-- Node1&#45;&gt;Node7 -->
<g id="edge7" class="edge"><title>Node1&#45;&gt;Node7</title>
<path fill="none" stroke="midnightblue" d="M227.377,-112.444C253.945,-103.306 296.209,-88.7689 325.761,-78.6044"/>
<polygon fill="midnightblue" stroke="midnightblue" points="326.937,-81.9012 335.255,-75.339 324.66,-75.2818 326.937,-81.9012"/>
</g>
<!-- Node2&#45;&gt;Node3 -->
<g id="edge2" class="edge"><title>Node2&#45;&gt;Node3</title>
<path fill="none" stroke="midnightblue" d="M53.7749,-56.083C59.1425,-48.4554 67.0176,-37.2645 73.5787,-27.9408"/>
<polygon fill="midnightblue" stroke="midnightblue" points="76.4492,-29.9434 79.3418,-19.7511 70.7245,-25.9149 76.4492,-29.9434"/>
</g>
</g>
</svg>
