<?xml version="1.0" encoding="UTF-8" standalone="no"?>
<!DOCTYPE svg PUBLIC "-//W3C//DTD SVG 1.1//EN"
 "http://www.w3.org/Graphics/SVG/1.1/DTD/svg11.dtd">
<!-- Generated by graphviz version 2.38.0 (20140413.2041)
 -->
<!-- Title: src/Statistics.cpp Pages: 1 -->
<svg width="1283pt" height="252pt"
 viewBox="0.00 0.00 1283.00 252.00" xmlns="http://www.w3.org/2000/svg" xmlns:xlink="http://www.w3.org/1999/xlink">
<g id="graph0" class="graph" transform="scale(1 1) rotate(0) translate(4 248)">
<title>src/Statistics.cpp</title>
<polygon fill="white" stroke="none" points="-4,4 -4,-248 1279,-248 1279,4 -4,4"/>
<!-- Node1 -->
<g id="node1" class="node"><title>Node1</title>
<polygon fill="#bfbfbf" stroke="black" points="720,-224.5 720,-243.5 831,-243.5 831,-224.5 720,-224.5"/>
<text text-anchor="middle" x="775.5" y="-231.5" font-family="Ubuntu Mono" font-size="10.00">src/Statistics.cpp</text>
</g>
<!-- Node2 -->
<g id="node2" class="node"><title>Node2</title>
<g id="a_node2"><a xlink:href="_statistics_8h.html" target="_top" xlink:title="Statistics.h">
<polygon fill="white" stroke="black" points="424.5,-168.5 424.5,-187.5 504.5,-187.5 504.5,-168.5 424.5,-168.5"/>
<text text-anchor="middle" x="464.5" y="-175.5" font-family="Ubuntu Mono" font-size="10.00">Statistics.h</text>
</a>
</g>
</g>
<!-- Node1&#45;&gt;Node2 -->
<g id="edge1" class="edge"><title>Node1&#45;&gt;Node2</title>
<path fill="none" stroke="midnightblue" d="M726.221,-224.444C668.377,-214.4 572.97,-197.834 514.722,-187.72"/>
<polygon fill="midnightblue" stroke="midnightblue" points="515.099,-184.233 504.648,-185.971 513.901,-191.13 515.099,-184.233"/>
</g>
<!-- Node9 -->
<g id="node9" class="node"><title>Node9</title>
<g id="a_node9"><a xlink:href="_arrival_8h.html" target="_top" xlink:title="Arrival.h">
<polygon fill="white" stroke="black" points="1012.5,-168.5 1012.5,-187.5 1076.5,-187.5 1076.5,-168.5 1012.5,-168.5"/>
<text text-anchor="middle" x="1044.5" y="-175.5" font-family="Ubuntu Mono" font-size="10.00">Arrival.h</text>
</a>
</g>
</g>
<!-- Node1&#45;&gt;Node9 -->
<g id="edge9" class="edge"><title>Node1&#45;&gt;Node9</title>
<path fill="none" stroke="midnightblue" d="M819.482,-224.489C865.242,-215.586 938.952,-201.107 1002.5,-188 1002.6,-187.979 1002.7,-187.959 1002.8,-187.938"/>
<polygon fill="midnightblue" stroke="midnightblue" points="1003.33,-191.402 1012.41,-185.93 1001.9,-184.55 1003.33,-191.402"/>
</g>
<!-- Node11 -->
<g id="node11" class="node"><title>Node11</title>
<g id="a_node11"><a xlink:href="_client_8h.html" target="_top" xlink:title="Client.h">
<polygon fill="white" stroke="black" points="207,-168.5 207,-187.5 266,-187.5 266,-168.5 207,-168.5"/>
<text text-anchor="middle" x="236.5" y="-175.5" font-family="Ubuntu Mono" font-size="10.00">Client.h</text>
</a>
</g>
</g>
<!-- Node1&#45;&gt;Node11 -->
<g id="edge11" class="edge"><title>Node1&#45;&gt;Node11</title>
<path fill="none" stroke="midnightblue" d="M719.848,-227.424C610.702,-216.49 370.953,-192.47 276.18,-182.975"/>
<polygon fill="midnightblue" stroke="midnightblue" points="276.446,-179.485 266.147,-181.97 275.749,-186.45 276.446,-179.485"/>
</g>
<!-- Node12 -->
<g id="node12" class="node"><title>Node12</title>
<polygon fill="white" stroke="#bfbfbf" points="109.5,-112.5 109.5,-131.5 199.5,-131.5 199.5,-112.5 109.5,-112.5"/>
<text text-anchor="middle" x="154.5" y="-119.5" font-family="Ubuntu Mono" font-size="10.00">glog/logging.h</text>
</g>
<!-- Node1&#45;&gt;Node12 -->
<g id="edge48" class="edge"><title>Node1&#45;&gt;Node12</title>
<path fill="none" stroke="midnightblue" d="M719.621,-231.423C583.343,-227.186 241.791,-214.072 197.5,-188 179.689,-177.516 167.824,-156.401 161.15,-141.075"/>
<polygon fill="midnightblue" stroke="midnightblue" points="164.318,-139.572 157.35,-131.591 157.82,-142.175 164.318,-139.572"/>
</g>
<!-- Node13 -->
<g id="node13" class="node"><title>Node13</title>
<g id="a_node13"><a xlink:href="_client_arrival_8h.html" target="_top" xlink:title="ClientArrival.h">
<polygon fill="white" stroke="black" points="55,-168.5 55,-187.5 150,-187.5 150,-168.5 55,-168.5"/>
<text text-anchor="middle" x="102.5" y="-175.5" font-family="Ubuntu Mono" font-size="10.00">ClientArrival.h</text>
</a>
</g>
</g>
<!-- Node1&#45;&gt;Node13 -->
<g id="edge14" class="edge"><title>Node1&#45;&gt;Node13</title>
<path fill="none" stroke="midnightblue" d="M719.779,-230.217C612.216,-224.552 368.567,-210.298 164.5,-188 163.192,-187.857 161.87,-187.708 160.537,-187.553"/>
<polygon fill="midnightblue" stroke="midnightblue" points="160.539,-184.026 150.184,-186.268 159.677,-190.973 160.539,-184.026"/>
</g>
<!-- Node14 -->
<g id="node14" class="node"><title>Node14</title>
<g id="a_node14"><a xlink:href="_event_8h.html" target="_top" xlink:title="Event.h">
<polygon fill="white" stroke="black" points="0,-112.5 0,-131.5 53,-131.5 53,-112.5 0,-112.5"/>
<text text-anchor="middle" x="26.5" y="-119.5" font-family="Ubuntu Mono" font-size="10.00">Event.h</text>
</a>
</g>
</g>
<!-- Node1&#45;&gt;Node14 -->
<g id="edge34" class="edge"><title>Node1&#45;&gt;Node14</title>
<path fill="none" stroke="midnightblue" d="M719.752,-233.193C558.174,-233.254 97.7412,-229.729 45.5,-188 31.8844,-177.124 27.666,-157.053 26.5274,-142.08"/>
<polygon fill="midnightblue" stroke="midnightblue" points="30.0168,-141.726 26.1524,-131.861 23.0215,-141.982 30.0168,-141.726"/>
</g>
<!-- Node17 -->
<g id="node17" class="node"><title>Node17</title>
<g id="a_node17"><a xlink:href="_scheduler_type_8h.html" target="_top" xlink:title="SchedulerType.h">
<polygon fill="white" stroke="black" points="899,-168.5 899,-187.5 994,-187.5 994,-168.5 899,-168.5"/>
<text text-anchor="middle" x="946.5" y="-175.5" font-family="Ubuntu Mono" font-size="10.00">SchedulerType.h</text>
</a>
</g>
</g>
<!-- Node1&#45;&gt;Node17 -->
<g id="edge22" class="edge"><title>Node1&#45;&gt;Node17</title>
<path fill="none" stroke="midnightblue" d="M802.595,-224.444C831.488,-215.32 877.425,-200.813 909.605,-190.651"/>
<polygon fill="midnightblue" stroke="midnightblue" points="911.049,-193.865 919.531,-187.516 908.941,-187.19 911.049,-193.865"/>
</g>
<!-- Node19 -->
<g id="node19" class="node"><title>Node19</title>
<g id="a_node19"><a xlink:href="_cost_function_type_8h.html" target="_top" xlink:title="CostFunctionType.h">
<polygon fill="white" stroke="black" points="944,-112.5 944,-131.5 1055,-131.5 1055,-112.5 944,-112.5"/>
<text text-anchor="middle" x="999.5" y="-119.5" font-family="Ubuntu Mono" font-size="10.00">CostFunctionType.h</text>
</a>
</g>
</g>
<!-- Node1&#45;&gt;Node19 -->
<g id="edge25" class="edge"><title>Node1&#45;&gt;Node19</title>
<path fill="none" stroke="midnightblue" d="M789.225,-224.398C810.33,-211.35 852.222,-186.157 889.5,-168 914.755,-155.699 944.26,-143.754 966.352,-135.266"/>
<polygon fill="midnightblue" stroke="midnightblue" points="967.835,-138.446 975.938,-131.62 965.347,-131.903 967.835,-138.446"/>
</g>
<!-- Node21 -->
<g id="node21" class="node"><title>Node21</title>
<g id="a_node21"><a xlink:href="_elevator_8h.html" target="_top" xlink:title="Elevator.h">
<polygon fill="white" stroke="black" points="702,-168.5 702,-187.5 771,-187.5 771,-168.5 702,-168.5"/>
<text text-anchor="middle" x="736.5" y="-175.5" font-family="Ubuntu Mono" font-size="10.00">Elevator.h</text>
</a>
</g>
</g>
<!-- Node1&#45;&gt;Node21 -->
<g id="edge29" class="edge"><title>Node1&#45;&gt;Node21</title>
<path fill="none" stroke="midnightblue" d="M769.06,-224.083C763.551,-216.455 755.469,-205.264 748.735,-195.941"/>
<polygon fill="midnightblue" stroke="midnightblue" points="751.513,-193.809 742.82,-187.751 745.838,-197.907 751.513,-193.809"/>
</g>
<!-- Node24 -->
<g id="node24" class="node"><title>Node24</title>
<g id="a_node24"><a xlink:href="_floor_8h.html" target="_top" xlink:title="Floor.h">
<polygon fill="white" stroke="black" points="789,-168.5 789,-187.5 842,-187.5 842,-168.5 789,-168.5"/>
<text text-anchor="middle" x="815.5" y="-175.5" font-family="Ubuntu Mono" font-size="10.00">Floor.h</text>
</a>
</g>
</g>
<!-- Node1&#45;&gt;Node24 -->
<g id="edge35" class="edge"><title>Node1&#45;&gt;Node24</title>
<path fill="none" stroke="midnightblue" d="M782.105,-224.083C787.755,-216.455 796.045,-205.264 802.951,-195.941"/>
<polygon fill="midnightblue" stroke="midnightblue" points="805.878,-197.87 809.018,-187.751 800.253,-193.703 805.878,-197.87"/>
</g>
<!-- Node26 -->
<g id="node26" class="node"><title>Node26</title>
<g id="a_node26"><a xlink:href="_scenario_8h.html" target="_top" xlink:title="Scenario.h">
<polygon fill="white" stroke="black" points="591,-168.5 591,-187.5 660,-187.5 660,-168.5 591,-168.5"/>
<text text-anchor="middle" x="625.5" y="-175.5" font-family="Ubuntu Mono" font-size="10.00">Scenario.h</text>
</a>
</g>
</g>
<!-- Node1&#45;&gt;Node26 -->
<g id="edge39" class="edge"><title>Node1&#45;&gt;Node26</title>
<path fill="none" stroke="midnightblue" d="M751.732,-224.444C726.607,-215.399 686.789,-201.064 658.6,-190.916"/>
<polygon fill="midnightblue" stroke="midnightblue" points="659.751,-187.611 649.157,-187.516 657.38,-194.197 659.751,-187.611"/>
</g>
<!-- Node27 -->
<g id="node27" class="node"><title>Node27</title>
<g id="a_node27"><a xlink:href="_trip_8h.html" target="_top" xlink:title="Trip.h">
<polygon fill="white" stroke="black" points="1094.5,-168.5 1094.5,-187.5 1142.5,-187.5 1142.5,-168.5 1094.5,-168.5"/>
<text text-anchor="middle" x="1118.5" y="-175.5" font-family="Ubuntu Mono" font-size="10.00">Trip.h</text>
</a>
</g>
</g>
<!-- Node1&#45;&gt;Node27 -->
<g id="edge44" class="edge"><title>Node1&#45;&gt;Node27</title>
<path fill="none" stroke="midnightblue" d="M831.015,-227.013C891.194,-220.061 990.195,-207.28 1084.45,-188"/>
<polygon fill="midnightblue" stroke="midnightblue" points="1085.35,-191.387 1094.43,-185.929 1083.93,-184.533 1085.35,-191.387"/>
</g>
<!-- Node28 -->
<g id="node28" class="node"><title>Node28</title>
<polygon fill="white" stroke="#bfbfbf" points="1161,-168.5 1161,-187.5 1204,-187.5 1204,-168.5 1161,-168.5"/>
<text text-anchor="middle" x="1182.5" y="-175.5" font-family="Ubuntu Mono" font-size="10.00">cmath</text>
</g>
<!-- Node1&#45;&gt;Node28 -->
<g id="edge46" class="edge"><title>Node1&#45;&gt;Node28</title>
<path fill="none" stroke="midnightblue" d="M831.063,-229.204C902.819,-223.672 1031.63,-211.602 1150.9,-187.787"/>
<polygon fill="midnightblue" stroke="midnightblue" points="1151.83,-191.169 1160.93,-185.75 1150.44,-184.309 1151.83,-191.169"/>
</g>
<!-- Node29 -->
<g id="node29" class="node"><title>Node29</title>
<polygon fill="white" stroke="#bfbfbf" points="1222,-168.5 1222,-187.5 1275,-187.5 1275,-168.5 1222,-168.5"/>
<text text-anchor="middle" x="1248.5" y="-175.5" font-family="Ubuntu Mono" font-size="10.00">cstdlib</text>
</g>
<!-- Node1&#45;&gt;Node29 -->
<g id="edge47" class="edge"><title>Node1&#45;&gt;Node29</title>
<path fill="none" stroke="midnightblue" d="M831.184,-229.95C912.785,-224.894 1069.73,-212.944 1211.65,-188.104"/>
<polygon fill="midnightblue" stroke="midnightblue" points="1212.6,-191.489 1221.84,-186.294 1211.38,-184.597 1212.6,-191.489"/>
</g>
<!-- Node3 -->
<g id="node3" class="node"><title>Node3</title>
<g id="a_node3"><a xlink:href="_event_observer_8h.html" target="_top" xlink:title="EventObserver.h">
<polygon fill="white" stroke="black" points="332,-112.5 332,-131.5 427,-131.5 427,-112.5 332,-112.5"/>
<text text-anchor="middle" x="379.5" y="-119.5" font-family="Ubuntu Mono" font-size="10.00">EventObserver.h</text>
</a>
</g>
</g>
<!-- Node2&#45;&gt;Node3 -->
<g id="edge2" class="edge"><title>Node2&#45;&gt;Node3</title>
<path fill="none" stroke="midnightblue" d="M450.843,-168.324C437.584,-159.9 417.232,-146.971 401.654,-137.074"/>
<polygon fill="midnightblue" stroke="midnightblue" points="403.44,-134.063 393.123,-131.655 399.687,-139.971 403.44,-134.063"/>
</g>
<!-- Node4 -->
<g id="node4" class="node"><title>Node4</title>
<polygon fill="white" stroke="#bfbfbf" points="355.5,-56.5 355.5,-75.5 403.5,-75.5 403.5,-56.5 355.5,-56.5"/>
<text text-anchor="middle" x="379.5" y="-63.5" font-family="Ubuntu Mono" font-size="10.00">memory</text>
</g>
<!-- Node2&#45;&gt;Node4 -->
<g id="edge6" class="edge"><title>Node2&#45;&gt;Node4</title>
<path fill="none" stroke="midnightblue" d="M424.403,-176.43C391.127,-173.569 345.644,-163.613 322.5,-132 308.768,-113.244 332.514,-93.3919 353.416,-80.6347"/>
<polygon fill="midnightblue" stroke="midnightblue" points="355.176,-83.66 362.082,-75.6256 351.673,-77.5995 355.176,-83.66"/>
</g>
<!-- Node5 -->
<g id="node5" class="node"><title>Node5</title>
<polygon fill="white" stroke="#bfbfbf" points="502,-112.5 502,-131.5 545,-131.5 545,-112.5 502,-112.5"/>
<text text-anchor="middle" x="523.5" y="-119.5" font-family="Ubuntu Mono" font-size="10.00">ctime</text>
</g>
<!-- Node2&#45;&gt;Node5 -->
<g id="edge4" class="edge"><title>Node2&#45;&gt;Node5</title>
<path fill="none" stroke="midnightblue" d="M473.979,-168.324C482.701,-160.341 495.843,-148.313 506.398,-138.653"/>
<polygon fill="midnightblue" stroke="midnightblue" points="508.834,-141.167 513.848,-131.834 504.108,-136.004 508.834,-141.167"/>
</g>
<!-- Node6 -->
<g id="node6" class="node"><title>Node6</title>
<polygon fill="white" stroke="#bfbfbf" points="445.5,-112.5 445.5,-131.5 483.5,-131.5 483.5,-112.5 445.5,-112.5"/>
<text text-anchor="middle" x="464.5" y="-119.5" font-family="Ubuntu Mono" font-size="10.00">list</text>
</g>
<!-- Node2&#45;&gt;Node6 -->
<g id="edge5" class="edge"><title>Node2&#45;&gt;Node6</title>
<path fill="none" stroke="midnightblue" d="M464.5,-168.083C464.5,-161.006 464.5,-150.861 464.5,-141.986"/>
<polygon fill="midnightblue" stroke="midnightblue" points="468,-141.751 464.5,-131.751 461,-141.751 468,-141.751"/>
</g>
<!-- Node7 -->
<g id="node7" class="node"><title>Node7</title>
<polygon fill="white" stroke="#bfbfbf" points="241.5,-0.5 241.5,-19.5 289.5,-19.5 289.5,-0.5 241.5,-0.5"/>
<text text-anchor="middle" x="265.5" y="-7.5" font-family="Ubuntu Mono" font-size="10.00">string</text>
</g>
<!-- Node2&#45;&gt;Node7 -->
<g id="edge7" class="edge"><title>Node2&#45;&gt;Node7</title>
<path fill="none" stroke="midnightblue" d="M424.485,-174.41C391.276,-170.262 344.752,-159.553 314.5,-132 284.444,-104.626 272.451,-56.2069 267.964,-29.6744"/>
<polygon fill="midnightblue" stroke="midnightblue" points="271.422,-29.1346 266.469,-19.7684 264.5,-30.1786 271.422,-29.1346"/>
</g>
<!-- Node8 -->
<g id="node8" class="node"><title>Node8</title>
<polygon fill="white" stroke="#bfbfbf" points="601.5,-112.5 601.5,-131.5 649.5,-131.5 649.5,-112.5 601.5,-112.5"/>
<text text-anchor="middle" x="625.5" y="-119.5" font-family="Ubuntu Mono" font-size="10.00">vector</text>
</g>
<!-- Node2&#45;&gt;Node8 -->
<g id="edge8" class="edge"><title>Node2&#45;&gt;Node8</title>
<path fill="none" stroke="midnightblue" d="M490.011,-168.444C517.494,-159.226 561.358,-144.513 591.696,-134.338"/>
<polygon fill="midnightblue" stroke="midnightblue" points="593.055,-137.574 601.423,-131.075 590.829,-130.937 593.055,-137.574"/>
</g>
<!-- Node3&#45;&gt;Node4 -->
<g id="edge3" class="edge"><title>Node3&#45;&gt;Node4</title>
<path fill="none" stroke="midnightblue" d="M379.5,-112.083C379.5,-105.006 379.5,-94.8611 379.5,-85.9865"/>
<polygon fill="midnightblue" stroke="midnightblue" points="383,-85.751 379.5,-75.7511 376,-85.7511 383,-85.751"/>
</g>
<!-- Node10 -->
<g id="node10" class="node"><title>Node10</title>
<polygon fill="white" stroke="#bfbfbf" points="1112,-112.5 1112,-131.5 1165,-131.5 1165,-112.5 1112,-112.5"/>
<text text-anchor="middle" x="1138.5" y="-119.5" font-family="Ubuntu Mono" font-size="10.00">fstream</text>
</g>
<!-- Node9&#45;&gt;Node10 -->
<g id="edge10" class="edge"><title>Node9&#45;&gt;Node10</title>
<path fill="none" stroke="midnightblue" d="M1059.6,-168.324C1074.4,-159.822 1097.19,-146.729 1114.48,-136.797"/>
<polygon fill="midnightblue" stroke="midnightblue" points="1116.51,-139.671 1123.43,-131.655 1113.02,-133.601 1116.51,-139.671"/>
</g>
<!-- Node11&#45;&gt;Node4 -->
<g id="edge13" class="edge"><title>Node11&#45;&gt;Node4</title>
<path fill="none" stroke="midnightblue" d="M246.364,-168.293C260.942,-155.538 289.244,-131.206 314.5,-112 328.566,-101.304 344.925,-89.9841 357.712,-81.3737"/>
<polygon fill="midnightblue" stroke="midnightblue" points="359.938,-84.0961 366.308,-75.6305 356.049,-78.2757 359.938,-84.0961"/>
</g>
<!-- Node11&#45;&gt;Node12 -->
<g id="edge12" class="edge"><title>Node11&#45;&gt;Node12</title>
<path fill="none" stroke="midnightblue" d="M223.325,-168.324C210.653,-159.979 191.267,-147.212 176.294,-137.352"/>
<polygon fill="midnightblue" stroke="midnightblue" points="177.919,-134.231 167.642,-131.655 174.069,-140.078 177.919,-134.231"/>
</g>
<!-- Node13&#45;&gt;Node4 -->
<g id="edge21" class="edge"><title>Node13&#45;&gt;Node4</title>
<path fill="none" stroke="midnightblue" d="M98.9181,-168.22C93.9569,-154.475 87.0309,-127.816 100.5,-112 116.234,-93.5247 274.285,-76.7291 345.282,-70.0515"/>
<polygon fill="midnightblue" stroke="midnightblue" points="345.863,-73.5127 355.497,-69.1042 345.217,-66.5427 345.863,-73.5127"/>
</g>
<!-- Node13&#45;&gt;Node12 -->
<g id="edge20" class="edge"><title>Node13&#45;&gt;Node12</title>
<path fill="none" stroke="midnightblue" d="M111.087,-168.083C118.659,-160.22 129.878,-148.569 139.014,-139.081"/>
<polygon fill="midnightblue" stroke="midnightblue" points="141.658,-141.382 146.073,-131.751 136.615,-136.527 141.658,-141.382"/>
</g>
<!-- Node13&#45;&gt;Node14 -->
<g id="edge15" class="edge"><title>Node13&#45;&gt;Node14</title>
<path fill="none" stroke="midnightblue" d="M90.2893,-168.324C78.7241,-160.107 61.1246,-147.602 47.3393,-137.807"/>
<polygon fill="midnightblue" stroke="midnightblue" points="49.112,-134.773 38.9329,-131.834 45.0575,-140.479 49.112,-134.773"/>
</g>
<!-- Node14&#45;&gt;Node7 -->
<g id="edge19" class="edge"><title>Node14&#45;&gt;Node7</title>
<path fill="none" stroke="midnightblue" d="M42.4513,-112.348C66.4603,-99.4523 113.449,-74.7037 154.5,-56 180.709,-44.0588 211.049,-31.8666 233.379,-23.1903"/>
<polygon fill="midnightblue" stroke="midnightblue" points="234.658,-26.4483 242.727,-19.5817 232.137,-19.918 234.658,-26.4483"/>
</g>
<!-- Node15 -->
<g id="node15" class="node"><title>Node15</title>
<g id="a_node15"><a xlink:href="_event_type_8h.html" target="_top" xlink:title="EventType.h">
<polygon fill="white" stroke="black" points="163.5,-56.5 163.5,-75.5 237.5,-75.5 237.5,-56.5 163.5,-56.5"/>
<text text-anchor="middle" x="200.5" y="-63.5" font-family="Ubuntu Mono" font-size="10.00">EventType.h</text>
</a>
</g>
</g>
<!-- Node14&#45;&gt;Node15 -->
<g id="edge16" class="edge"><title>Node14&#45;&gt;Node15</title>
<path fill="none" stroke="midnightblue" d="M53.3062,-112.681C82.7658,-103.538 130.287,-88.7904 163.334,-78.5344"/>
<polygon fill="midnightblue" stroke="midnightblue" points="164.576,-81.8137 173.089,-75.5069 162.501,-75.1282 164.576,-81.8137"/>
</g>
<!-- Node15&#45;&gt;Node7 -->
<g id="edge18" class="edge"><title>Node15&#45;&gt;Node7</title>
<path fill="none" stroke="midnightblue" d="M210.943,-56.324C220.646,-48.2631 235.315,-36.0765 247,-26.3695"/>
<polygon fill="midnightblue" stroke="midnightblue" points="249.411,-28.9163 254.867,-19.8339 244.938,-23.532 249.411,-28.9163"/>
</g>
<!-- Node16 -->
<g id="node16" class="node"><title>Node16</title>
<polygon fill="white" stroke="#bfbfbf" points="888.5,-0.5 888.5,-19.5 952.5,-19.5 952.5,-0.5 888.5,-0.5"/>
<text text-anchor="middle" x="920.5" y="-7.5" font-family="Ubuntu Mono" font-size="10.00">stdexcept</text>
</g>
<!-- Node15&#45;&gt;Node16 -->
<g id="edge17" class="edge"><title>Node15&#45;&gt;Node16</title>
<path fill="none" stroke="midnightblue" d="M237.694,-62.2104C359.812,-53.0516 748.07,-23.9323 877.814,-14.2015"/>
<polygon fill="midnightblue" stroke="midnightblue" points="878.421,-17.6658 888.131,-13.4277 877.897,-10.6854 878.421,-17.6658"/>
</g>
<!-- Node18 -->
<g id="node18" class="node"><title>Node18</title>
<g id="a_node18"><a xlink:href="_missing_scheduler_error_8h.html" target="_top" xlink:title="MissingSchedulerError.h">
<polygon fill="white" stroke="black" points="1015,-56.5 1015,-75.5 1152,-75.5 1152,-56.5 1015,-56.5"/>
<text text-anchor="middle" x="1083.5" y="-63.5" font-family="Ubuntu Mono" font-size="10.00">MissingSchedulerError.h</text>
</a>
</g>
</g>
<!-- Node17&#45;&gt;Node18 -->
<g id="edge23" class="edge"><title>Node17&#45;&gt;Node18</title>
<path fill="none" stroke="midnightblue" d="M994.217,-168.872C1017.96,-162.538 1045.38,-151.408 1063.5,-132 1075.2,-119.47 1080.06,-100.245 1082.08,-85.95"/>
<polygon fill="midnightblue" stroke="midnightblue" points="1085.58,-86.0786 1083.16,-75.7643 1078.62,-85.3376 1085.58,-86.0786"/>
</g>
<!-- Node18&#45;&gt;Node16 -->
<g id="edge24" class="edge"><title>Node18&#45;&gt;Node16</title>
<path fill="none" stroke="midnightblue" d="M1057.67,-56.4435C1030.25,-47.3591 986.723,-32.9388 956.068,-22.7831"/>
<polygon fill="midnightblue" stroke="midnightblue" points="956.8,-19.3389 946.207,-19.5164 954.599,-25.9837 956.8,-19.3389"/>
</g>
<!-- Node19&#45;&gt;Node7 -->
<g id="edge28" class="edge"><title>Node19&#45;&gt;Node7</title>
<path fill="none" stroke="midnightblue" d="M964.612,-112.413C907.741,-98.6923 791.365,-71.7695 691.5,-56 546.864,-33.1607 372.717,-18.8344 300.011,-13.4364"/>
<polygon fill="midnightblue" stroke="midnightblue" points="299.863,-9.91618 289.634,-12.6757 299.351,-16.8975 299.863,-9.91618"/>
</g>
<!-- Node20 -->
<g id="node20" class="node"><title>Node20</title>
<g id="a_node20"><a xlink:href="_missing_cost_function_error_8h.html" target="_top" xlink:title="MissingCostFunctionError.h">
<polygon fill="white" stroke="black" points="844,-56.5 844,-75.5 997,-75.5 997,-56.5 844,-56.5"/>
<text text-anchor="middle" x="920.5" y="-63.5" font-family="Ubuntu Mono" font-size="10.00">MissingCostFunctionError.h</text>
</a>
</g>
</g>
<!-- Node19&#45;&gt;Node20 -->
<g id="edge26" class="edge"><title>Node19&#45;&gt;Node20</title>
<path fill="none" stroke="midnightblue" d="M986.807,-112.324C974.599,-103.979 955.922,-91.2122 941.497,-81.3524"/>
<polygon fill="midnightblue" stroke="midnightblue" points="943.392,-78.4082 933.161,-75.6545 939.442,-84.1871 943.392,-78.4082"/>
</g>
<!-- Node20&#45;&gt;Node16 -->
<g id="edge27" class="edge"><title>Node20&#45;&gt;Node16</title>
<path fill="none" stroke="midnightblue" d="M920.5,-56.083C920.5,-49.0059 920.5,-38.8611 920.5,-29.9865"/>
<polygon fill="midnightblue" stroke="midnightblue" points="924,-29.751 920.5,-19.7511 917,-29.7511 924,-29.751"/>
</g>
<!-- Node21&#45;&gt;Node4 -->
<g id="edge31" class="edge"><title>Node21&#45;&gt;Node4</title>
<path fill="none" stroke="midnightblue" d="M728.886,-168.126C715.994,-153.744 688.339,-125.588 658.5,-112 576.453,-74.6366 468.448,-67.7262 414.019,-66.8016"/>
<polygon fill="midnightblue" stroke="midnightblue" points="413.91,-63.3003 403.871,-66.6893 413.832,-70.2999 413.91,-63.3003"/>
</g>
<!-- Node21&#45;&gt;Node8 -->
<g id="edge33" class="edge"><title>Node21&#45;&gt;Node8</title>
<path fill="none" stroke="midnightblue" d="M718.666,-168.324C700.784,-159.625 673.025,-146.12 652.454,-136.113"/>
<polygon fill="midnightblue" stroke="midnightblue" points="653.813,-132.882 643.29,-131.655 650.751,-139.177 653.813,-132.882"/>
</g>
<!-- Node22 -->
<g id="node22" class="node"><title>Node22</title>
<polygon fill="white" stroke="#bfbfbf" points="743.5,-112.5 743.5,-131.5 775.5,-131.5 775.5,-112.5 743.5,-112.5"/>
<text text-anchor="middle" x="759.5" y="-119.5" font-family="Ubuntu Mono" font-size="10.00">map</text>
</g>
<!-- Node21&#45;&gt;Node22 -->
<g id="edge30" class="edge"><title>Node21&#45;&gt;Node22</title>
<path fill="none" stroke="midnightblue" d="M740.298,-168.083C743.413,-160.77 747.923,-150.181 751.789,-141.103"/>
<polygon fill="midnightblue" stroke="midnightblue" points="755.074,-142.323 755.773,-131.751 748.634,-139.58 755.074,-142.323"/>
</g>
<!-- Node23 -->
<g id="node23" class="node"><title>Node23</title>
<polygon fill="white" stroke="#bfbfbf" points="794,-112.5 794,-131.5 837,-131.5 837,-112.5 794,-112.5"/>
<text text-anchor="middle" x="815.5" y="-119.5" font-family="Ubuntu Mono" font-size="10.00">queue</text>
</g>
<!-- Node21&#45;&gt;Node23 -->
<g id="edge32" class="edge"><title>Node21&#45;&gt;Node23</title>
<path fill="none" stroke="midnightblue" d="M749.193,-168.324C761.401,-159.979 780.078,-147.212 794.503,-137.352"/>
<polygon fill="midnightblue" stroke="midnightblue" points="796.558,-140.187 802.839,-131.655 792.608,-134.408 796.558,-140.187"/>
</g>
<!-- Node24&#45;&gt;Node4 -->
<g id="edge36" class="edge"><title>Node24&#45;&gt;Node4</title>
<path fill="none" stroke="midnightblue" d="M824.933,-168.485C838.65,-155.102 860.874,-128.93 845.5,-112 816.574,-80.1456 516.658,-70.1997 413.854,-67.7134"/>
<polygon fill="midnightblue" stroke="midnightblue" points="413.78,-64.2108 403.701,-67.4768 413.617,-71.2089 413.78,-64.2108"/>
</g>
<!-- Node24&#45;&gt;Node23 -->
<g id="edge37" class="edge"><title>Node24&#45;&gt;Node23</title>
<path fill="none" stroke="midnightblue" d="M815.5,-168.083C815.5,-161.006 815.5,-150.861 815.5,-141.986"/>
<polygon fill="midnightblue" stroke="midnightblue" points="819,-141.751 815.5,-131.751 812,-141.751 819,-141.751"/>
</g>
<!-- Node25 -->
<g id="node25" class="node"><title>Node25</title>
<polygon fill="white" stroke="#bfbfbf" points="893.5,-112.5 893.5,-131.5 925.5,-131.5 925.5,-112.5 893.5,-112.5"/>
<text text-anchor="middle" x="909.5" y="-119.5" font-family="Ubuntu Mono" font-size="10.00">set</text>
</g>
<!-- Node24&#45;&gt;Node25 -->
<g id="edge38" class="edge"><title>Node24&#45;&gt;Node25</title>
<path fill="none" stroke="midnightblue" d="M830.603,-168.324C845.403,-159.822 868.194,-146.729 885.482,-136.797"/>
<polygon fill="midnightblue" stroke="midnightblue" points="887.507,-139.671 894.435,-131.655 884.02,-133.601 887.507,-139.671"/>
</g>
<!-- Node26&#45;&gt;Node4 -->
<g id="edge41" class="edge"><title>Node26&#45;&gt;Node4</title>
<path fill="none" stroke="midnightblue" d="M618.481,-168.408C606.592,-154.431 581.082,-126.844 553.5,-112 508.612,-87.8426 450.152,-76.1915 413.724,-70.9227"/>
<polygon fill="midnightblue" stroke="midnightblue" points="413.996,-67.4275 403.615,-69.5432 413.05,-74.3632 413.996,-67.4275"/>
</g>
<!-- Node26&#45;&gt;Node5 -->
<g id="edge40" class="edge"><title>Node26&#45;&gt;Node5</title>
<path fill="none" stroke="midnightblue" d="M609.112,-168.324C592.829,-159.703 567.633,-146.364 548.784,-136.386"/>
<polygon fill="midnightblue" stroke="midnightblue" points="550.323,-133.24 539.847,-131.655 547.048,-139.427 550.323,-133.24"/>
</g>
<!-- Node26&#45;&gt;Node7 -->
<g id="edge42" class="edge"><title>Node26&#45;&gt;Node7</title>
<path fill="none" stroke="midnightblue" d="M635.716,-168.409C649.981,-155.376 672.615,-130.202 658.5,-112 614.105,-54.7529 387.379,-24.2996 299.948,-14.5382"/>
<polygon fill="midnightblue" stroke="midnightblue" points="300.08,-11.0319 289.758,-13.4244 299.319,-17.9904 300.08,-11.0319"/>
</g>
<!-- Node26&#45;&gt;Node8 -->
<g id="edge43" class="edge"><title>Node26&#45;&gt;Node8</title>
<path fill="none" stroke="midnightblue" d="M625.5,-168.083C625.5,-161.006 625.5,-150.861 625.5,-141.986"/>
<polygon fill="midnightblue" stroke="midnightblue" points="629,-141.751 625.5,-131.751 622,-141.751 629,-141.751"/>
</g>
<!-- Node27&#45;&gt;Node10 -->
<g id="edge45" class="edge"><title>Node27&#45;&gt;Node10</title>
<path fill="none" stroke="midnightblue" d="M1121.8,-168.083C1124.48,-160.849 1128.35,-150.409 1131.69,-141.397"/>
<polygon fill="midnightblue" stroke="midnightblue" points="1135.07,-142.344 1135.26,-131.751 1128.5,-139.913 1135.07,-142.344"/>
</g>
</g>
</svg>
