<?xml version="1.0" encoding="UTF-8" standalone="no"?>
<!DOCTYPE svg PUBLIC "-//W3C//DTD SVG 1.1//EN"
 "http://www.w3.org/Graphics/SVG/1.1/DTD/svg11.dtd">
<!-- Generated by graphviz version 2.38.0 (20140413.2041)
 -->
<!-- Title: include/Statistics.h Pages: 1 -->
<svg width="364pt" height="140pt"
 viewBox="0.00 0.00 364.00 140.00" xmlns="http://www.w3.org/2000/svg" xmlns:xlink="http://www.w3.org/1999/xlink">
<g id="graph0" class="graph" transform="scale(1 1) rotate(0) translate(4 136)">
<title>include/Statistics.h</title>
<polygon fill="white" stroke="none" points="-4,4 -4,-136 360,-136 360,4 -4,4"/>
<!-- Node1 -->
<g id="node1" class="node"><title>Node1</title>
<polygon fill="#bfbfbf" stroke="black" points="143,-112.5 143,-131.5 243,-131.5 243,-112.5 143,-112.5"/>
<text text-anchor="middle" x="193" y="-119.5" font-family="Helvetica,sans-Serif" font-size="10.00">include/Statistics.h</text>
</g>
<!-- Node2 -->
<g id="node2" class="node"><title>Node2</title>
<g id="a_node2"><a xlink:href="_event_observer_8h.html" target="_top" xlink:title="EventObserver.h">
<polygon fill="white" stroke="black" points="0,-56.5 0,-75.5 90,-75.5 90,-56.5 0,-56.5"/>
<text text-anchor="middle" x="45" y="-63.5" font-family="Helvetica,sans-Serif" font-size="10.00">EventObserver.h</text>
</a>
</g>
</g>
<!-- Node1&#45;&gt;Node2 -->
<g id="edge1" class="edge"><title>Node1&#45;&gt;Node2</title>
<path fill="none" stroke="midnightblue" d="M169.549,-112.444C144.867,-103.438 105.815,-89.1891 78.0233,-79.049"/>
<polygon fill="midnightblue" stroke="midnightblue" points="78.9352,-75.6561 68.3413,-75.5164 76.5359,-82.2321 78.9352,-75.6561"/>
</g>
<!-- Node3 -->
<g id="node3" class="node"><title>Node3</title>
<polygon fill="white" stroke="#bfbfbf" points="55,-0.5 55,-19.5 107,-19.5 107,-0.5 55,-0.5"/>
<text text-anchor="middle" x="81" y="-7.5" font-family="Helvetica,sans-Serif" font-size="10.00">memory</text>
</g>
<!-- Node1&#45;&gt;Node3 -->
<g id="edge5" class="edge"><title>Node1&#45;&gt;Node3</title>
<path fill="none" stroke="midnightblue" d="M181.153,-112.221C169.683,-103.513 152.017,-89.5461 138,-76 122.064,-60.5994 105.548,-41.3403 94.4235,-27.7972"/>
<polygon fill="midnightblue" stroke="midnightblue" points="96.9702,-25.381 87.9516,-19.8209 91.5345,-29.7915 96.9702,-25.381"/>
</g>
<!-- Node4 -->
<g id="node4" class="node"><title>Node4</title>
<polygon fill="white" stroke="#bfbfbf" points="146.5,-56.5 146.5,-75.5 187.5,-75.5 187.5,-56.5 146.5,-56.5"/>
<text text-anchor="middle" x="167" y="-63.5" font-family="Helvetica,sans-Serif" font-size="10.00">ctime</text>
</g>
<!-- Node1&#45;&gt;Node4 -->
<g id="edge3" class="edge"><title>Node1&#45;&gt;Node4</title>
<path fill="none" stroke="midnightblue" d="M188.707,-112.083C185.148,-104.691 179.978,-93.9533 175.576,-84.8111"/>
<polygon fill="midnightblue" stroke="midnightblue" points="178.705,-83.2427 171.213,-75.7511 172.398,-86.2795 178.705,-83.2427"/>
</g>
<!-- Node5 -->
<g id="node5" class="node"><title>Node5</title>
<polygon fill="white" stroke="#bfbfbf" points="205.5,-56.5 205.5,-75.5 234.5,-75.5 234.5,-56.5 205.5,-56.5"/>
<text text-anchor="middle" x="220" y="-63.5" font-family="Helvetica,sans-Serif" font-size="10.00">list</text>
</g>
<!-- Node1&#45;&gt;Node5 -->
<g id="edge4" class="edge"><title>Node1&#45;&gt;Node5</title>
<path fill="none" stroke="midnightblue" d="M197.459,-112.083C201.154,-104.691 206.523,-93.9533 211.094,-84.8111"/>
<polygon fill="midnightblue" stroke="midnightblue" points="214.283,-86.2606 215.624,-75.7511 208.022,-83.1301 214.283,-86.2606"/>
</g>
<!-- Node6 -->
<g id="node6" class="node"><title>Node6</title>
<polygon fill="white" stroke="#bfbfbf" points="252.5,-56.5 252.5,-75.5 293.5,-75.5 293.5,-56.5 252.5,-56.5"/>
<text text-anchor="middle" x="273" y="-63.5" font-family="Helvetica,sans-Serif" font-size="10.00">string</text>
</g>
<!-- Node1&#45;&gt;Node6 -->
<g id="edge6" class="edge"><title>Node1&#45;&gt;Node6</title>
<path fill="none" stroke="midnightblue" d="M205.853,-112.324C218.216,-103.979 237.13,-91.2122 251.737,-81.3524"/>
<polygon fill="midnightblue" stroke="midnightblue" points="253.848,-84.1503 260.179,-75.6545 249.932,-78.3483 253.848,-84.1503"/>
</g>
<!-- Node7 -->
<g id="node7" class="node"><title>Node7</title>
<polygon fill="white" stroke="#bfbfbf" points="312,-56.5 312,-75.5 356,-75.5 356,-56.5 312,-56.5"/>
<text text-anchor="middle" x="334" y="-63.5" font-family="Helvetica,sans-Serif" font-size="10.00">vector</text>
</g>
<!-- Node1&#45;&gt;Node7 -->
<g id="edge7" class="edge"><title>Node1&#45;&gt;Node7</title>
<path fill="none" stroke="midnightblue" d="M215.342,-112.444C238.753,-103.478 275.736,-89.314 302.19,-79.1827"/>
<polygon fill="midnightblue" stroke="midnightblue" points="303.676,-82.3615 311.763,-75.5164 301.172,-75.8245 303.676,-82.3615"/>
</g>
<!-- Node2&#45;&gt;Node3 -->
<g id="edge2" class="edge"><title>Node2&#45;&gt;Node3</title>
<path fill="none" stroke="midnightblue" d="M50.9447,-56.083C55.9773,-48.5341 63.3368,-37.4948 69.5135,-28.2298"/>
<polygon fill="midnightblue" stroke="midnightblue" points="72.5311,-30.0131 75.1659,-19.7511 66.7067,-26.1301 72.5311,-30.0131"/>
</g>
</g>
</svg>
