<?xml version="1.0" encoding="UTF-8" standalone="no"?>
<!DOCTYPE svg PUBLIC "-//W3C//DTD SVG 1.1//EN"
 "http://www.w3.org/Graphics/SVG/1.1/DTD/svg11.dtd">
<!-- Generated by graphviz version 2.38.0 (20140413.2041)
 -->
<!-- Title: include/Statistics.h Pages: 1 -->
<svg width="481pt" height="84pt"
 viewBox="0.00 0.00 481.00 84.00" xmlns="http://www.w3.org/2000/svg" xmlns:xlink="http://www.w3.org/1999/xlink">
<g id="graph0" class="graph" transform="scale(1 1) rotate(0) translate(4 80)">
<title>include/Statistics.h</title>
<polygon fill="white" stroke="none" points="-4,4 -4,-80 477,-80 477,4 -4,4"/>
<!-- Node1 -->
<g id="node1" class="node"><title>Node1</title>
<polygon fill="#bfbfbf" stroke="black" points="169.5,-56.5 169.5,-75.5 291.5,-75.5 291.5,-56.5 169.5,-56.5"/>
<text text-anchor="middle" x="230.5" y="-63.5" font-family="Ubuntu Mono" font-size="10.00">include/Statistics.h</text>
</g>
<!-- Node2 -->
<g id="node2" class="node"><title>Node2</title>
<g id="a_node2"><a xlink:href="_building_8cpp.html" target="_top" xlink:title="src/Building.cpp">
<polygon fill="white" stroke="black" points="0,-0.5 0,-19.5 101,-19.5 101,-0.5 0,-0.5"/>
<text text-anchor="middle" x="50.5" y="-7.5" font-family="Ubuntu Mono" font-size="10.00">src/Building.cpp</text>
</a>
</g>
</g>
<!-- Node1&#45;&gt;Node2 -->
<g id="edge1" class="edge"><title>Node1&#45;&gt;Node2</title>
<path fill="none" stroke="midnightblue" d="M192.392,-53.5677C158.437,-43.381 109.511,-28.7034 78.8881,-19.5164"/>
<polygon fill="midnightblue" stroke="midnightblue" points="191.394,-56.9224 201.978,-56.4435 193.406,-50.2176 191.394,-56.9224"/>
</g>
<!-- Node3 -->
<g id="node3" class="node"><title>Node3</title>
<g id="a_node3"><a xlink:href="_reporter_8cpp.html" target="_top" xlink:title="src/Reporter.cpp">
<polygon fill="white" stroke="black" points="119,-0.5 119,-19.5 220,-19.5 220,-0.5 119,-0.5"/>
<text text-anchor="middle" x="169.5" y="-7.5" font-family="Ubuntu Mono" font-size="10.00">src/Reporter.cpp</text>
</a>
</g>
</g>
<!-- Node1&#45;&gt;Node3 -->
<g id="edge2" class="edge"><title>Node1&#45;&gt;Node3</title>
<path fill="none" stroke="midnightblue" d="M213.033,-49.5372C202.156,-39.9087 188.556,-27.8694 179.479,-19.8339"/>
<polygon fill="midnightblue" stroke="midnightblue" points="210.892,-52.3162 220.699,-56.324 215.532,-47.0749 210.892,-52.3162"/>
</g>
<!-- Node4 -->
<g id="node4" class="node"><title>Node4</title>
<g id="a_node4"><a xlink:href="_simulator_8cpp.html" target="_top" xlink:title="src/Simulator.cpp">
<polygon fill="white" stroke="black" points="238.5,-0.5 238.5,-19.5 344.5,-19.5 344.5,-0.5 238.5,-0.5"/>
<text text-anchor="middle" x="291.5" y="-7.5" font-family="Ubuntu Mono" font-size="10.00">src/Simulator.cpp</text>
</a>
</g>
</g>
<!-- Node1&#45;&gt;Node4 -->
<g id="edge3" class="edge"><title>Node1&#45;&gt;Node4</title>
<path fill="none" stroke="midnightblue" d="M247.967,-49.5372C258.844,-39.9087 272.444,-27.8694 281.521,-19.8339"/>
<polygon fill="midnightblue" stroke="midnightblue" points="245.468,-47.0749 240.301,-56.324 250.108,-52.3162 245.468,-47.0749"/>
</g>
<!-- Node5 -->
<g id="node5" class="node"><title>Node5</title>
<g id="a_node5"><a xlink:href="_statistics_8cpp.html" target="_top" xlink:title="src/Statistics.cpp">
<polygon fill="white" stroke="black" points="362,-0.5 362,-19.5 473,-19.5 473,-0.5 362,-0.5"/>
<text text-anchor="middle" x="417.5" y="-7.5" font-family="Ubuntu Mono" font-size="10.00">src/Statistics.cpp</text>
</a>
</g>
</g>
<!-- Node1&#45;&gt;Node5 -->
<g id="edge4" class="edge"><title>Node1&#45;&gt;Node5</title>
<path fill="none" stroke="midnightblue" d="M270.09,-53.5677C305.366,-43.381 356.194,-28.7034 388.008,-19.5164"/>
<polygon fill="midnightblue" stroke="midnightblue" points="268.767,-50.3065 260.131,-56.4435 270.709,-57.0317 268.767,-50.3065"/>
</g>
</g>
</svg>
