<?xml version="1.0" encoding="UTF-8" standalone="no"?>
<!DOCTYPE svg PUBLIC "-//W3C//DTD SVG 1.1//EN"
 "http://www.w3.org/Graphics/SVG/1.1/DTD/svg11.dtd">
<!-- Generated by graphviz version 2.38.0 (20140413.2041)
 -->
<!-- Title: src/Statistics.cpp Pages: 1 -->
<svg width="1217pt" height="252pt"
 viewBox="0.00 0.00 1216.50 252.00" xmlns="http://www.w3.org/2000/svg" xmlns:xlink="http://www.w3.org/1999/xlink">
<g id="graph0" class="graph" transform="scale(1 1) rotate(0) translate(4 248)">
<title>src/Statistics.cpp</title>
<polygon fill="white" stroke="none" points="-4,4 -4,-248 1212.5,-248 1212.5,4 -4,4"/>
<!-- Node1 -->
<g id="node1" class="node"><title>Node1</title>
<polygon fill="#bfbfbf" stroke="black" points="699.5,-224.5 699.5,-243.5 792.5,-243.5 792.5,-224.5 699.5,-224.5"/>
<text text-anchor="middle" x="746" y="-231.5" font-family="Helvetica,sans-Serif" font-size="10.00">src/Statistics.cpp</text>
</g>
<!-- Node2 -->
<g id="node2" class="node"><title>Node2</title>
<g id="a_node2"><a xlink:href="_statistics_8h.html" target="_top" xlink:title="Statistics.h">
<polygon fill="white" stroke="black" points="406,-168.5 406,-187.5 472,-187.5 472,-168.5 406,-168.5"/>
<text text-anchor="middle" x="439" y="-175.5" font-family="Helvetica,sans-Serif" font-size="10.00">Statistics.h</text>
</a>
</g>
</g>
<!-- Node1&#45;&gt;Node2 -->
<g id="edge1" class="edge"><title>Node1&#45;&gt;Node2</title>
<path fill="none" stroke="midnightblue" d="M699.373,-224.799C640.473,-214.438 539.894,-196.747 482.51,-186.653"/>
<polygon fill="midnightblue" stroke="midnightblue" points="482.773,-183.146 472.317,-184.86 481.56,-190.04 482.773,-183.146"/>
</g>
<!-- Node9 -->
<g id="node9" class="node"><title>Node9</title>
<g id="a_node9"><a xlink:href="_arrival_8h.html" target="_top" xlink:title="Arrival.h">
<polygon fill="white" stroke="black" points="970.5,-168.5 970.5,-187.5 1023.5,-187.5 1023.5,-168.5 970.5,-168.5"/>
<text text-anchor="middle" x="997" y="-175.5" font-family="Helvetica,sans-Serif" font-size="10.00">Arrival.h</text>
</a>
</g>
</g>
<!-- Node1&#45;&gt;Node9 -->
<g id="edge9" class="edge"><title>Node1&#45;&gt;Node9</title>
<path fill="none" stroke="midnightblue" d="M789.347,-224.439C830.721,-216.154 895.051,-202.975 960.247,-188.103"/>
<polygon fill="midnightblue" stroke="midnightblue" points="961.327,-191.446 970.291,-185.799 959.762,-184.623 961.327,-191.446"/>
</g>
<!-- Node11 -->
<g id="node11" class="node"><title>Node11</title>
<g id="a_node11"><a xlink:href="_client_8h.html" target="_top" xlink:title="Client.h">
<polygon fill="white" stroke="black" points="187,-168.5 187,-187.5 237,-187.5 237,-168.5 187,-168.5"/>
<text text-anchor="middle" x="212" y="-175.5" font-family="Helvetica,sans-Serif" font-size="10.00">Client.h</text>
</a>
</g>
</g>
<!-- Node1&#45;&gt;Node11 -->
<g id="edge11" class="edge"><title>Node1&#45;&gt;Node11</title>
<path fill="none" stroke="midnightblue" d="M699.079,-228.255C593.704,-217.599 340.228,-191.967 247.094,-182.549"/>
<polygon fill="midnightblue" stroke="midnightblue" points="247.359,-179.058 237.058,-181.534 246.655,-186.022 247.359,-179.058"/>
</g>
<!-- Node12 -->
<g id="node12" class="node"><title>Node12</title>
<polygon fill="white" stroke="#bfbfbf" points="106.5,-112.5 106.5,-131.5 183.5,-131.5 183.5,-112.5 106.5,-112.5"/>
<text text-anchor="middle" x="145" y="-119.5" font-family="Helvetica,sans-Serif" font-size="10.00">glog/logging.h</text>
</g>
<!-- Node1&#45;&gt;Node12 -->
<g id="edge48" class="edge"><title>Node1&#45;&gt;Node12</title>
<path fill="none" stroke="midnightblue" d="M699.478,-231.902C571.512,-228.525 220.895,-216.723 178,-188 162.091,-177.347 153.461,-156.586 149.062,-141.383"/>
<polygon fill="midnightblue" stroke="midnightblue" points="152.412,-140.354 146.563,-131.52 145.626,-142.073 152.412,-140.354"/>
</g>
<!-- Node13 -->
<g id="node13" class="node"><title>Node13</title>
<g id="a_node13"><a xlink:href="_client_arrival_8h.html" target="_top" xlink:title="ClientArrival.h">
<polygon fill="white" stroke="black" points="53,-168.5 53,-187.5 131,-187.5 131,-168.5 53,-168.5"/>
<text text-anchor="middle" x="92" y="-175.5" font-family="Helvetica,sans-Serif" font-size="10.00">ClientArrival.h</text>
</a>
</g>
</g>
<!-- Node1&#45;&gt;Node13 -->
<g id="edge14" class="edge"><title>Node1&#45;&gt;Node13</title>
<path fill="none" stroke="midnightblue" d="M699.481,-231.001C598.329,-226.328 350.905,-213.135 145,-188 143.723,-187.844 142.43,-187.679 141.127,-187.506"/>
<polygon fill="midnightblue" stroke="midnightblue" points="141.411,-184.011 131.014,-186.05 140.413,-190.939 141.411,-184.011"/>
</g>
<!-- Node14 -->
<g id="node14" class="node"><title>Node14</title>
<g id="a_node14"><a xlink:href="_event_8h.html" target="_top" xlink:title="Event.h">
<polygon fill="white" stroke="black" points="0,-112.5 0,-131.5 50,-131.5 50,-112.5 0,-112.5"/>
<text text-anchor="middle" x="25" y="-119.5" font-family="Helvetica,sans-Serif" font-size="10.00">Event.h</text>
</a>
</g>
</g>
<!-- Node1&#45;&gt;Node14 -->
<g id="edge34" class="edge"><title>Node1&#45;&gt;Node14</title>
<path fill="none" stroke="midnightblue" d="M699.372,-233.061C550.753,-232.841 94.9705,-228.816 44,-188 30.3977,-177.108 26.1772,-157.039 25.0345,-142.071"/>
<polygon fill="midnightblue" stroke="midnightblue" points="28.5239,-141.72 24.6561,-131.856 21.5287,-141.979 28.5239,-141.72"/>
</g>
<!-- Node17 -->
<g id="node17" class="node"><title>Node17</title>
<g id="a_node17"><a xlink:href="_scheduler_type_8h.html" target="_top" xlink:title="SchedulerType.h">
<polygon fill="white" stroke="black" points="862,-168.5 862,-187.5 952,-187.5 952,-168.5 862,-168.5"/>
<text text-anchor="middle" x="907" y="-175.5" font-family="Helvetica,sans-Serif" font-size="10.00">SchedulerType.h</text>
</a>
</g>
</g>
<!-- Node1&#45;&gt;Node17 -->
<g id="edge22" class="edge"><title>Node1&#45;&gt;Node17</title>
<path fill="none" stroke="midnightblue" d="M771.511,-224.444C798.596,-215.359 841.59,-200.939 871.869,-190.783"/>
<polygon fill="midnightblue" stroke="midnightblue" points="873.24,-194.015 881.608,-187.516 871.014,-187.378 873.24,-194.015"/>
</g>
<!-- Node19 -->
<g id="node19" class="node"><title>Node19</title>
<g id="a_node19"><a xlink:href="_cost_function_type_8h.html" target="_top" xlink:title="CostFunctionType.h">
<polygon fill="white" stroke="black" points="908.5,-112.5 908.5,-131.5 1013.5,-131.5 1013.5,-112.5 908.5,-112.5"/>
<text text-anchor="middle" x="961" y="-119.5" font-family="Helvetica,sans-Serif" font-size="10.00">CostFunctionType.h</text>
</a>
</g>
</g>
<!-- Node1&#45;&gt;Node19 -->
<g id="edge25" class="edge"><title>Node1&#45;&gt;Node19</title>
<path fill="none" stroke="midnightblue" d="M758.814,-224.34C778.532,-211.217 817.737,-185.928 853,-168 877.652,-155.467 906.63,-143.537 928.359,-135.113"/>
<polygon fill="midnightblue" stroke="midnightblue" points="929.705,-138.346 937.792,-131.5 927.201,-131.809 929.705,-138.346"/>
</g>
<!-- Node21 -->
<g id="node21" class="node"><title>Node21</title>
<g id="a_node21"><a xlink:href="_elevator_8h.html" target="_top" xlink:title="Elevator.h">
<polygon fill="white" stroke="black" points="679.5,-168.5 679.5,-187.5 740.5,-187.5 740.5,-168.5 679.5,-168.5"/>
<text text-anchor="middle" x="710" y="-175.5" font-family="Helvetica,sans-Serif" font-size="10.00">Elevator.h</text>
</a>
</g>
</g>
<!-- Node1&#45;&gt;Node21 -->
<g id="edge29" class="edge"><title>Node1&#45;&gt;Node21</title>
<path fill="none" stroke="midnightblue" d="M740.055,-224.083C735.023,-216.534 727.663,-205.495 721.487,-196.23"/>
<polygon fill="midnightblue" stroke="midnightblue" points="724.293,-194.13 715.834,-187.751 718.469,-198.013 724.293,-194.13"/>
</g>
<!-- Node24 -->
<g id="node24" class="node"><title>Node24</title>
<g id="a_node24"><a xlink:href="_floor_8h.html" target="_top" xlink:title="Floor.h">
<polygon fill="white" stroke="black" points="758.5,-168.5 758.5,-187.5 805.5,-187.5 805.5,-168.5 758.5,-168.5"/>
<text text-anchor="middle" x="782" y="-175.5" font-family="Helvetica,sans-Serif" font-size="10.00">Floor.h</text>
</a>
</g>
</g>
<!-- Node1&#45;&gt;Node24 -->
<g id="edge35" class="edge"><title>Node1&#45;&gt;Node24</title>
<path fill="none" stroke="midnightblue" d="M751.945,-224.083C756.977,-216.534 764.337,-205.495 770.513,-196.23"/>
<polygon fill="midnightblue" stroke="midnightblue" points="773.531,-198.013 776.166,-187.751 767.707,-194.13 773.531,-198.013"/>
</g>
<!-- Node26 -->
<g id="node26" class="node"><title>Node26</title>
<g id="a_node26"><a xlink:href="_scenario_8h.html" target="_top" xlink:title="Scenario.h">
<polygon fill="white" stroke="black" points="559.5,-168.5 559.5,-187.5 622.5,-187.5 622.5,-168.5 559.5,-168.5"/>
<text text-anchor="middle" x="591" y="-175.5" font-family="Helvetica,sans-Serif" font-size="10.00">Scenario.h</text>
</a>
</g>
</g>
<!-- Node1&#45;&gt;Node26 -->
<g id="edge39" class="edge"><title>Node1&#45;&gt;Node26</title>
<path fill="none" stroke="midnightblue" d="M721.44,-224.444C695.477,-215.399 654.332,-201.064 625.203,-190.916"/>
<polygon fill="midnightblue" stroke="midnightblue" points="626.04,-187.501 615.445,-187.516 623.737,-194.112 626.04,-187.501"/>
</g>
<!-- Node27 -->
<g id="node27" class="node"><title>Node27</title>
<g id="a_node27"><a xlink:href="_trip_8h.html" target="_top" xlink:title="Trip.h">
<polygon fill="white" stroke="black" points="1041.5,-168.5 1041.5,-187.5 1082.5,-187.5 1082.5,-168.5 1041.5,-168.5"/>
<text text-anchor="middle" x="1062" y="-175.5" font-family="Helvetica,sans-Serif" font-size="10.00">Trip.h</text>
</a>
</g>
</g>
<!-- Node1&#45;&gt;Node27 -->
<g id="edge44" class="edge"><title>Node1&#45;&gt;Node27</title>
<path fill="none" stroke="midnightblue" d="M792.935,-227.596C847.898,-220.83 941.788,-207.91 1031.64,-187.795"/>
<polygon fill="midnightblue" stroke="midnightblue" points="1032.46,-191.196 1041.44,-185.567 1030.91,-184.37 1032.46,-191.196"/>
</g>
<!-- Node28 -->
<g id="node28" class="node"><title>Node28</title>
<polygon fill="white" stroke="#bfbfbf" points="1101,-168.5 1101,-187.5 1145,-187.5 1145,-168.5 1101,-168.5"/>
<text text-anchor="middle" x="1123" y="-175.5" font-family="Helvetica,sans-Serif" font-size="10.00">cmath</text>
</g>
<!-- Node1&#45;&gt;Node28 -->
<g id="edge46" class="edge"><title>Node1&#45;&gt;Node28</title>
<path fill="none" stroke="midnightblue" d="M792.55,-229.229C857.387,-223.476 978.639,-210.907 1090.64,-188.004"/>
<polygon fill="midnightblue" stroke="midnightblue" points="1091.67,-191.363 1100.75,-185.902 1090.25,-184.51 1091.67,-191.363"/>
</g>
<!-- Node29 -->
<g id="node29" class="node"><title>Node29</title>
<polygon fill="white" stroke="#bfbfbf" points="1163.5,-168.5 1163.5,-187.5 1208.5,-187.5 1208.5,-168.5 1163.5,-168.5"/>
<text text-anchor="middle" x="1186" y="-175.5" font-family="Helvetica,sans-Serif" font-size="10.00">cstdlib</text>
</g>
<!-- Node1&#45;&gt;Node29 -->
<g id="edge47" class="edge"><title>Node1&#45;&gt;Node29</title>
<path fill="none" stroke="midnightblue" d="M792.57,-230.361C866.866,-225.608 1016.86,-213.788 1153.18,-187.832"/>
<polygon fill="midnightblue" stroke="midnightblue" points="1154.23,-191.193 1163.38,-185.857 1152.9,-184.321 1154.23,-191.193"/>
</g>
<!-- Node3 -->
<g id="node3" class="node"><title>Node3</title>
<g id="a_node3"><a xlink:href="_event_observer_8h.html" target="_top" xlink:title="EventObserver.h">
<polygon fill="white" stroke="black" points="316,-112.5 316,-131.5 406,-131.5 406,-112.5 316,-112.5"/>
<text text-anchor="middle" x="361" y="-119.5" font-family="Helvetica,sans-Serif" font-size="10.00">EventObserver.h</text>
</a>
</g>
</g>
<!-- Node2&#45;&gt;Node3 -->
<g id="edge2" class="edge"><title>Node2&#45;&gt;Node3</title>
<path fill="none" stroke="midnightblue" d="M426.468,-168.324C414.414,-159.979 395.973,-147.212 381.731,-137.352"/>
<polygon fill="midnightblue" stroke="midnightblue" points="383.715,-134.469 373.501,-131.655 379.731,-140.224 383.715,-134.469"/>
</g>
<!-- Node4 -->
<g id="node4" class="node"><title>Node4</title>
<polygon fill="white" stroke="#bfbfbf" points="335,-56.5 335,-75.5 387,-75.5 387,-56.5 335,-56.5"/>
<text text-anchor="middle" x="361" y="-63.5" font-family="Helvetica,sans-Serif" font-size="10.00">memory</text>
</g>
<!-- Node2&#45;&gt;Node4 -->
<g id="edge6" class="edge"><title>Node2&#45;&gt;Node4</title>
<path fill="none" stroke="midnightblue" d="M405.862,-175.97C374.611,-173.022 329.333,-163.208 307,-132 293.821,-113.584 316.168,-93.7443 335.99,-80.8935"/>
<polygon fill="midnightblue" stroke="midnightblue" points="338.081,-83.717 344.783,-75.5111 334.427,-77.7467 338.081,-83.717"/>
</g>
<!-- Node5 -->
<g id="node5" class="node"><title>Node5</title>
<polygon fill="white" stroke="#bfbfbf" points="471.5,-112.5 471.5,-131.5 512.5,-131.5 512.5,-112.5 471.5,-112.5"/>
<text text-anchor="middle" x="492" y="-119.5" font-family="Helvetica,sans-Serif" font-size="10.00">ctime</text>
</g>
<!-- Node2&#45;&gt;Node5 -->
<g id="edge4" class="edge"><title>Node2&#45;&gt;Node5</title>
<path fill="none" stroke="midnightblue" d="M447.752,-168.083C455.47,-160.22 466.905,-148.569 476.217,-139.081"/>
<polygon fill="midnightblue" stroke="midnightblue" points="478.904,-141.34 483.411,-131.751 473.908,-136.436 478.904,-141.34"/>
</g>
<!-- Node6 -->
<g id="node6" class="node"><title>Node6</title>
<polygon fill="white" stroke="#bfbfbf" points="424.5,-112.5 424.5,-131.5 453.5,-131.5 453.5,-112.5 424.5,-112.5"/>
<text text-anchor="middle" x="439" y="-119.5" font-family="Helvetica,sans-Serif" font-size="10.00">list</text>
</g>
<!-- Node2&#45;&gt;Node6 -->
<g id="edge5" class="edge"><title>Node2&#45;&gt;Node6</title>
<path fill="none" stroke="midnightblue" d="M439,-168.083C439,-161.006 439,-150.861 439,-141.986"/>
<polygon fill="midnightblue" stroke="midnightblue" points="442.5,-141.751 439,-131.751 435.5,-141.751 442.5,-141.751"/>
</g>
<!-- Node7 -->
<g id="node7" class="node"><title>Node7</title>
<polygon fill="white" stroke="#bfbfbf" points="229.5,-0.5 229.5,-19.5 270.5,-19.5 270.5,-0.5 229.5,-0.5"/>
<text text-anchor="middle" x="250" y="-7.5" font-family="Helvetica,sans-Serif" font-size="10.00">string</text>
</g>
<!-- Node2&#45;&gt;Node7 -->
<g id="edge7" class="edge"><title>Node2&#45;&gt;Node7</title>
<path fill="none" stroke="midnightblue" d="M405.836,-174.142C374.9,-169.83 329.246,-159.029 300,-132 270.191,-104.451 257.64,-56.4593 252.774,-29.9496"/>
<polygon fill="midnightblue" stroke="midnightblue" points="256.169,-29.0249 251.088,-19.7279 249.262,-30.1642 256.169,-29.0249"/>
</g>
<!-- Node8 -->
<g id="node8" class="node"><title>Node8</title>
<polygon fill="white" stroke="#bfbfbf" points="569,-112.5 569,-131.5 613,-131.5 613,-112.5 569,-112.5"/>
<text text-anchor="middle" x="591" y="-119.5" font-family="Helvetica,sans-Serif" font-size="10.00">vector</text>
</g>
<!-- Node2&#45;&gt;Node8 -->
<g id="edge8" class="edge"><title>Node2&#45;&gt;Node8</title>
<path fill="none" stroke="midnightblue" d="M463.085,-168.444C488.994,-159.239 530.323,-144.556 558.96,-134.383"/>
<polygon fill="midnightblue" stroke="midnightblue" points="560.263,-137.634 568.514,-130.988 557.92,-131.038 560.263,-137.634"/>
</g>
<!-- Node3&#45;&gt;Node4 -->
<g id="edge3" class="edge"><title>Node3&#45;&gt;Node4</title>
<path fill="none" stroke="midnightblue" d="M361,-112.083C361,-105.006 361,-94.8611 361,-85.9865"/>
<polygon fill="midnightblue" stroke="midnightblue" points="364.5,-85.751 361,-75.7511 357.5,-85.7511 364.5,-85.751"/>
</g>
<!-- Node10 -->
<g id="node10" class="node"><title>Node10</title>
<polygon fill="white" stroke="#bfbfbf" points="1070,-112.5 1070,-131.5 1120,-131.5 1120,-112.5 1070,-112.5"/>
<text text-anchor="middle" x="1095" y="-119.5" font-family="Helvetica,sans-Serif" font-size="10.00">fstream</text>
</g>
<!-- Node9&#45;&gt;Node10 -->
<g id="edge10" class="edge"><title>Node9&#45;&gt;Node10</title>
<path fill="none" stroke="midnightblue" d="M1012.75,-168.324C1028.32,-159.743 1052.38,-146.486 1070.46,-136.522"/>
<polygon fill="midnightblue" stroke="midnightblue" points="1072.22,-139.546 1079.29,-131.655 1068.85,-133.415 1072.22,-139.546"/>
</g>
<!-- Node11&#45;&gt;Node4 -->
<g id="edge13" class="edge"><title>Node11&#45;&gt;Node4</title>
<path fill="none" stroke="midnightblue" d="M223.671,-168.376C240.521,-155.925 272.647,-132.191 300,-112 313.668,-101.91 329.063,-90.5536 340.968,-81.7732"/>
<polygon fill="midnightblue" stroke="midnightblue" points="343.334,-84.3771 349.304,-75.6247 339.179,-78.7435 343.334,-84.3771"/>
</g>
<!-- Node11&#45;&gt;Node12 -->
<g id="edge12" class="edge"><title>Node11&#45;&gt;Node12</title>
<path fill="none" stroke="midnightblue" d="M201.235,-168.324C191.234,-160.263 176.113,-148.077 164.07,-138.369"/>
<polygon fill="midnightblue" stroke="midnightblue" points="165.943,-135.384 155.961,-131.834 161.55,-140.834 165.943,-135.384"/>
</g>
<!-- Node13&#45;&gt;Node4 -->
<g id="edge21" class="edge"><title>Node13&#45;&gt;Node4</title>
<path fill="none" stroke="midnightblue" d="M89.6341,-168.119C86.5237,-154.235 82.9675,-127.388 97,-112 112.198,-95.3347 256.028,-78.0798 324.761,-70.7035"/>
<polygon fill="midnightblue" stroke="midnightblue" points="325.15,-74.182 334.725,-69.6471 324.412,-67.2211 325.15,-74.182"/>
</g>
<!-- Node13&#45;&gt;Node12 -->
<g id="edge20" class="edge"><title>Node13&#45;&gt;Node12</title>
<path fill="none" stroke="midnightblue" d="M100.752,-168.083C108.47,-160.22 119.905,-148.569 129.217,-139.081"/>
<polygon fill="midnightblue" stroke="midnightblue" points="131.904,-141.34 136.411,-131.751 126.908,-136.436 131.904,-141.34"/>
</g>
<!-- Node13&#45;&gt;Node14 -->
<g id="edge15" class="edge"><title>Node13&#45;&gt;Node14</title>
<path fill="none" stroke="midnightblue" d="M81.2353,-168.324C71.2339,-160.263 56.1135,-148.077 44.0695,-138.369"/>
<polygon fill="midnightblue" stroke="midnightblue" points="45.9429,-135.384 35.9606,-131.834 41.5502,-140.834 45.9429,-135.384"/>
</g>
<!-- Node14&#45;&gt;Node7 -->
<g id="edge19" class="edge"><title>Node14&#45;&gt;Node7</title>
<path fill="none" stroke="midnightblue" d="M38.9961,-112.438C60.5102,-99.4432 103.189,-74.3181 141,-56 167.043,-43.383 197.558,-30.9797 219.667,-22.4007"/>
<polygon fill="midnightblue" stroke="midnightblue" points="221.108,-25.5962 229.187,-18.7411 218.597,-19.0623 221.108,-25.5962"/>
</g>
<!-- Node15 -->
<g id="node15" class="node"><title>Node15</title>
<g id="a_node15"><a xlink:href="_event_type_8h.html" target="_top" xlink:title="EventType.h">
<polygon fill="white" stroke="black" points="150,-56.5 150,-75.5 222,-75.5 222,-56.5 150,-56.5"/>
<text text-anchor="middle" x="186" y="-63.5" font-family="Helvetica,sans-Serif" font-size="10.00">EventType.h</text>
</a>
</g>
</g>
<!-- Node14&#45;&gt;Node15 -->
<g id="edge16" class="edge"><title>Node14&#45;&gt;Node15</title>
<path fill="none" stroke="midnightblue" d="M50.1562,-112.562C77.1719,-103.501 120.306,-89.0342 150.708,-78.837"/>
<polygon fill="midnightblue" stroke="midnightblue" points="152.121,-82.0548 160.489,-75.5565 149.895,-75.4181 152.121,-82.0548"/>
</g>
<!-- Node15&#45;&gt;Node7 -->
<g id="edge18" class="edge"><title>Node15&#45;&gt;Node7</title>
<path fill="none" stroke="midnightblue" d="M196.283,-56.324C205.836,-48.2631 220.28,-36.0765 231.784,-26.3695"/>
<polygon fill="midnightblue" stroke="midnightblue" points="234.144,-28.9577 239.53,-19.8339 229.63,-23.6076 234.144,-28.9577"/>
</g>
<!-- Node16 -->
<g id="node16" class="node"><title>Node16</title>
<polygon fill="white" stroke="#bfbfbf" points="863.5,-0.5 863.5,-19.5 922.5,-19.5 922.5,-0.5 863.5,-0.5"/>
<text text-anchor="middle" x="893" y="-7.5" font-family="Helvetica,sans-Serif" font-size="10.00">stdexcept</text>
</g>
<!-- Node15&#45;&gt;Node16 -->
<g id="edge17" class="edge"><title>Node15&#45;&gt;Node16</title>
<path fill="none" stroke="midnightblue" d="M222.032,-62.2479C341.928,-53.0903 726.944,-23.6832 852.787,-14.0714"/>
<polygon fill="midnightblue" stroke="midnightblue" points="853.412,-17.534 863.117,-13.2825 852.879,-10.5543 853.412,-17.534"/>
</g>
<!-- Node18 -->
<g id="node18" class="node"><title>Node18</title>
<g id="a_node18"><a xlink:href="_missing_scheduler_error_8h.html" target="_top" xlink:title="MissingSchedulerError.h">
<polygon fill="white" stroke="black" points="980.5,-56.5 980.5,-75.5 1103.5,-75.5 1103.5,-56.5 980.5,-56.5"/>
<text text-anchor="middle" x="1042" y="-63.5" font-family="Helvetica,sans-Serif" font-size="10.00">MissingSchedulerError.h</text>
</a>
</g>
</g>
<!-- Node17&#45;&gt;Node18 -->
<g id="edge23" class="edge"><title>Node17&#45;&gt;Node18</title>
<path fill="none" stroke="midnightblue" d="M952.199,-169.14C975.923,-162.832 1003.77,-151.642 1022,-132 1033.66,-119.436 1038.53,-100.216 1040.56,-85.9309"/>
<polygon fill="midnightblue" stroke="midnightblue" points="1044.06,-86.0709 1041.65,-75.7541 1037.1,-85.3227 1044.06,-86.0709"/>
</g>
<!-- Node18&#45;&gt;Node16 -->
<g id="edge24" class="edge"><title>Node18&#45;&gt;Node16</title>
<path fill="none" stroke="midnightblue" d="M1018.39,-56.4435C993.542,-47.4381 954.226,-33.1891 926.246,-23.049"/>
<polygon fill="midnightblue" stroke="midnightblue" points="927.093,-19.6332 916.499,-19.5164 924.708,-26.2144 927.093,-19.6332"/>
</g>
<!-- Node19&#45;&gt;Node7 -->
<g id="edge28" class="edge"><title>Node19&#45;&gt;Node7</title>
<path fill="none" stroke="midnightblue" d="M926.333,-112.467C869.823,-98.8232 754.191,-72.0056 655,-56 516.112,-33.5888 348.615,-18.8418 280.764,-13.3752"/>
<polygon fill="midnightblue" stroke="midnightblue" points="280.996,-9.8827 270.75,-12.5778 280.441,-16.8606 280.996,-9.8827"/>
</g>
<!-- Node20 -->
<g id="node20" class="node"><title>Node20</title>
<g id="a_node20"><a xlink:href="_missing_cost_function_error_8h.html" target="_top" xlink:title="MissingCostFunctionError.h">
<polygon fill="white" stroke="black" points="824,-56.5 824,-75.5 962,-75.5 962,-56.5 824,-56.5"/>
<text text-anchor="middle" x="893" y="-63.5" font-family="Helvetica,sans-Serif" font-size="10.00">MissingCostFunctionError.h</text>
</a>
</g>
</g>
<!-- Node19&#45;&gt;Node20 -->
<g id="edge26" class="edge"><title>Node19&#45;&gt;Node20</title>
<path fill="none" stroke="midnightblue" d="M950.075,-112.324C939.825,-104.185 924.279,-91.8395 911.999,-82.0874"/>
<polygon fill="midnightblue" stroke="midnightblue" points="914.132,-79.3119 904.124,-75.8339 909.779,-84.7937 914.132,-79.3119"/>
</g>
<!-- Node20&#45;&gt;Node16 -->
<g id="edge27" class="edge"><title>Node20&#45;&gt;Node16</title>
<path fill="none" stroke="midnightblue" d="M893,-56.083C893,-49.0059 893,-38.8611 893,-29.9865"/>
<polygon fill="midnightblue" stroke="midnightblue" points="896.5,-29.751 893,-19.7511 889.5,-29.7511 896.5,-29.751"/>
</g>
<!-- Node21&#45;&gt;Node4 -->
<g id="edge31" class="edge"><title>Node21&#45;&gt;Node4</title>
<path fill="none" stroke="midnightblue" d="M701.147,-168.189C686.223,-153.898 654.491,-125.87 622,-112 546.434,-79.7423 449.197,-70.5922 397.358,-68.0075"/>
<polygon fill="midnightblue" stroke="midnightblue" points="397.458,-64.5086 387.312,-67.5614 397.147,-71.5017 397.458,-64.5086"/>
</g>
<!-- Node21&#45;&gt;Node8 -->
<g id="edge33" class="edge"><title>Node21&#45;&gt;Node8</title>
<path fill="none" stroke="midnightblue" d="M691.144,-168.444C671.734,-159.636 641.27,-145.812 619.035,-135.722"/>
<polygon fill="midnightblue" stroke="midnightblue" points="620.32,-132.462 609.768,-131.516 617.428,-138.836 620.32,-132.462"/>
</g>
<!-- Node22 -->
<g id="node22" class="node"><title>Node22</title>
<polygon fill="white" stroke="#bfbfbf" points="707.5,-112.5 707.5,-131.5 742.5,-131.5 742.5,-112.5 707.5,-112.5"/>
<text text-anchor="middle" x="725" y="-119.5" font-family="Helvetica,sans-Serif" font-size="10.00">map</text>
</g>
<!-- Node21&#45;&gt;Node22 -->
<g id="edge30" class="edge"><title>Node21&#45;&gt;Node22</title>
<path fill="none" stroke="midnightblue" d="M712.477,-168.083C714.486,-160.849 717.386,-150.409 719.89,-141.397"/>
<polygon fill="midnightblue" stroke="midnightblue" points="723.265,-142.323 722.569,-131.751 716.52,-140.449 723.265,-142.323"/>
</g>
<!-- Node23 -->
<g id="node23" class="node"><title>Node23</title>
<polygon fill="white" stroke="#bfbfbf" points="760.5,-112.5 760.5,-131.5 803.5,-131.5 803.5,-112.5 760.5,-112.5"/>
<text text-anchor="middle" x="782" y="-119.5" font-family="Helvetica,sans-Serif" font-size="10.00">queue</text>
</g>
<!-- Node21&#45;&gt;Node23 -->
<g id="edge32" class="edge"><title>Node21&#45;&gt;Node23</title>
<path fill="none" stroke="midnightblue" d="M721.568,-168.324C732.42,-160.185 748.881,-147.839 761.883,-138.087"/>
<polygon fill="midnightblue" stroke="midnightblue" points="764.321,-140.634 770.221,-131.834 760.121,-135.034 764.321,-140.634"/>
</g>
<!-- Node24&#45;&gt;Node4 -->
<g id="edge36" class="edge"><title>Node24&#45;&gt;Node4</title>
<path fill="none" stroke="midnightblue" d="M791.426,-168.491C805.135,-155.116 827.347,-128.954 812,-112 784.332,-81.4338 499.687,-70.7548 397.375,-67.8871"/>
<polygon fill="midnightblue" stroke="midnightblue" points="397.309,-64.3841 387.217,-67.6114 397.119,-71.3815 397.309,-64.3841"/>
</g>
<!-- Node24&#45;&gt;Node23 -->
<g id="edge37" class="edge"><title>Node24&#45;&gt;Node23</title>
<path fill="none" stroke="midnightblue" d="M782,-168.083C782,-161.006 782,-150.861 782,-141.986"/>
<polygon fill="midnightblue" stroke="midnightblue" points="785.5,-141.751 782,-131.751 778.5,-141.751 785.5,-141.751"/>
</g>
<!-- Node25 -->
<g id="node25" class="node"><title>Node25</title>
<polygon fill="white" stroke="#bfbfbf" points="860,-112.5 860,-131.5 890,-131.5 890,-112.5 860,-112.5"/>
<text text-anchor="middle" x="875" y="-119.5" font-family="Helvetica,sans-Serif" font-size="10.00">set</text>
</g>
<!-- Node24&#45;&gt;Node25 -->
<g id="edge38" class="edge"><title>Node24&#45;&gt;Node25</title>
<path fill="none" stroke="midnightblue" d="M796.942,-168.324C811.585,-159.822 834.134,-146.729 851.238,-136.797"/>
<polygon fill="midnightblue" stroke="midnightblue" points="853.205,-139.703 860.095,-131.655 849.69,-133.649 853.205,-139.703"/>
</g>
<!-- Node26&#45;&gt;Node4 -->
<g id="edge41" class="edge"><title>Node26&#45;&gt;Node4</title>
<path fill="none" stroke="midnightblue" d="M584.195,-168.463C572.665,-154.567 547.902,-127.093 521,-112 481.659,-89.9286 430.702,-78.0327 396.985,-72.1153"/>
<polygon fill="midnightblue" stroke="midnightblue" points="397.547,-68.6607 387.107,-70.4662 396.394,-75.5652 397.547,-68.6607"/>
</g>
<!-- Node26&#45;&gt;Node5 -->
<g id="edge40" class="edge"><title>Node26&#45;&gt;Node5</title>
<path fill="none" stroke="midnightblue" d="M575.094,-168.324C559.362,-159.743 535.058,-146.486 516.791,-136.522"/>
<polygon fill="midnightblue" stroke="midnightblue" points="518.322,-133.37 507.867,-131.655 514.97,-139.516 518.322,-133.37"/>
</g>
<!-- Node26&#45;&gt;Node7 -->
<g id="edge42" class="edge"><title>Node26&#45;&gt;Node7</title>
<path fill="none" stroke="midnightblue" d="M600.738,-168.377C614.322,-155.303 635.822,-130.075 622,-112 579.886,-56.9272 362.257,-24.8402 280.812,-14.6078"/>
<polygon fill="midnightblue" stroke="midnightblue" points="281.046,-11.1103 270.693,-13.3616 280.19,-18.0578 281.046,-11.1103"/>
</g>
<!-- Node26&#45;&gt;Node8 -->
<g id="edge43" class="edge"><title>Node26&#45;&gt;Node8</title>
<path fill="none" stroke="midnightblue" d="M591,-168.083C591,-161.006 591,-150.861 591,-141.986"/>
<polygon fill="midnightblue" stroke="midnightblue" points="594.5,-141.751 591,-131.751 587.5,-141.751 594.5,-141.751"/>
</g>
<!-- Node27&#45;&gt;Node10 -->
<g id="edge45" class="edge"><title>Node27&#45;&gt;Node10</title>
<path fill="none" stroke="midnightblue" d="M1067.45,-168.083C1072.01,-160.613 1078.67,-149.724 1084.29,-140.52"/>
<polygon fill="midnightblue" stroke="midnightblue" points="1087.42,-142.109 1089.65,-131.751 1081.45,-138.459 1087.42,-142.109"/>
</g>
</g>
</svg>
