<?xml version="1.0" encoding="UTF-8" standalone="no"?>
<!DOCTYPE svg PUBLIC "-//W3C//DTD SVG 1.1//EN"
 "http://www.w3.org/Graphics/SVG/1.1/DTD/svg11.dtd">
<!-- Generated by graphviz version 2.38.0 (20140413.2041)
 -->
<!-- Title: include/Status.h Pages: 1 -->
<svg width="399pt" height="95pt"
 viewBox="0.00 0.00 399.00 95.00" xmlns="http://www.w3.org/2000/svg" xmlns:xlink="http://www.w3.org/1999/xlink">
<g id="graph0" class="graph" transform="scale(1 1) rotate(0) translate(4 91)">
<title>include/Status.h</title>
<polygon fill="white" stroke="none" points="-4,4 -4,-91 395,-91 395,4 -4,4"/>
<!-- Node1 -->
<g id="node1" class="node"><title>Node1</title>
<polygon fill="#bfbfbf" stroke="black" points="171,-67.5 171,-86.5 272,-86.5 272,-67.5 171,-67.5"/>
<text text-anchor="middle" x="221.5" y="-74.5" font-family="Ubuntu Mono" font-size="10.00">include/Status.h</text>
</g>
<!-- Node2 -->
<g id="node2" class="node"><title>Node2</title>
<g id="a_node2"><a xlink:href="_better_nearest_neighbour_cost_function_8cpp.html" target="_top" xlink:title="src/BetterNearestNeighbour\lCostFunction.cpp">
<polygon fill="white" stroke="black" points="0,-0.5 0,-30.5 153,-30.5 153,-0.5 0,-0.5"/>
<text text-anchor="start" x="8" y="-18.5" font-family="Ubuntu Mono" font-size="10.00">src/BetterNearestNeighbour</text>
<text text-anchor="middle" x="76.5" y="-7.5" font-family="Ubuntu Mono" font-size="10.00">CostFunction.cpp</text>
</a>
</g>
</g>
<!-- Node1&#45;&gt;Node2 -->
<g id="edge1" class="edge"><title>Node1&#45;&gt;Node2</title>
<path fill="none" stroke="midnightblue" d="M191.257,-63.5899C167.746,-53.9425 135.128,-40.5575 110.674,-30.523"/>
<polygon fill="midnightblue" stroke="midnightblue" points="190.145,-66.9168 200.725,-67.4751 192.802,-60.4408 190.145,-66.9168"/>
</g>
<!-- Node3 -->
<g id="node3" class="node"><title>Node3</title>
<g id="a_node3"><a xlink:href="_building_8cpp.html" target="_top" xlink:title="src/Building.cpp">
<polygon fill="white" stroke="black" points="171,-6 171,-25 272,-25 272,-6 171,-6"/>
<text text-anchor="middle" x="221.5" y="-13" font-family="Ubuntu Mono" font-size="10.00">src/Building.cpp</text>
</a>
</g>
</g>
<!-- Node1&#45;&gt;Node3 -->
<g id="edge2" class="edge"><title>Node1&#45;&gt;Node3</title>
<path fill="none" stroke="midnightblue" d="M221.5,-57.3165C221.5,-46.4962 221.5,-33.398 221.5,-25.0091"/>
<polygon fill="midnightblue" stroke="midnightblue" points="218,-57.4751 221.5,-67.4751 225,-57.4751 218,-57.4751"/>
</g>
<!-- Node4 -->
<g id="node4" class="node"><title>Node4</title>
<g id="a_node4"><a xlink:href="_elevator_8cpp.html" target="_top" xlink:title="src/Elevator.cpp">
<polygon fill="white" stroke="black" points="290,-6 290,-25 391,-25 391,-6 290,-6"/>
<text text-anchor="middle" x="340.5" y="-13" font-family="Ubuntu Mono" font-size="10.00">src/Elevator.cpp</text>
</a>
</g>
</g>
<!-- Node1&#45;&gt;Node4 -->
<g id="edge3" class="edge"><title>Node1&#45;&gt;Node4</title>
<path fill="none" stroke="midnightblue" d="M247.767,-62.8665C270.831,-51.3347 303.702,-34.8992 323.482,-25.0091"/>
<polygon fill="midnightblue" stroke="midnightblue" points="245.929,-59.8724 238.55,-67.4751 249.059,-66.1334 245.929,-59.8724"/>
</g>
</g>
</svg>
