<?xml version="1.0" encoding="UTF-8" standalone="no"?>
<!DOCTYPE svg PUBLIC "-//W3C//DTD SVG 1.1//EN"
 "http://www.w3.org/Graphics/SVG/1.1/DTD/svg11.dtd">
<!-- Generated by graphviz version 2.38.0 (20140413.2041)
 -->
<!-- Title: include/StopManager.h Pages: 1 -->
<svg width="156pt" height="84pt"
 viewBox="0.00 0.00 156.00 84.00" xmlns="http://www.w3.org/2000/svg" xmlns:xlink="http://www.w3.org/1999/xlink">
<g id="graph0" class="graph" transform="scale(1 1) rotate(0) translate(4 80)">
<title>include/StopManager.h</title>
<polygon fill="white" stroke="none" points="-4,4 -4,-80 152,-80 152,4 -4,4"/>
<!-- Node1 -->
<g id="node1" class="node"><title>Node1</title>
<polygon fill="#bfbfbf" stroke="black" points="10.5,-56.5 10.5,-75.5 137.5,-75.5 137.5,-56.5 10.5,-56.5"/>
<text text-anchor="middle" x="74" y="-63.5" font-family="Ubuntu Mono" font-size="10.00">include/StopManager.h</text>
</g>
<!-- Node2 -->
<g id="node2" class="node"><title>Node2</title>
<polygon fill="white" stroke="#bfbfbf" points="0,-0.5 0,-19.5 32,-19.5 32,-0.5 0,-0.5"/>
<text text-anchor="middle" x="16" y="-7.5" font-family="Ubuntu Mono" font-size="10.00">map</text>
</g>
<!-- Node1&#45;&gt;Node2 -->
<g id="edge1" class="edge"><title>Node1&#45;&gt;Node2</title>
<path fill="none" stroke="midnightblue" d="M64.6813,-56.324C56.1074,-48.3414 43.1878,-36.3128 32.8124,-26.6529"/>
<polygon fill="midnightblue" stroke="midnightblue" points="35.1922,-24.0865 25.4883,-19.8339 30.4223,-29.2098 35.1922,-24.0865"/>
</g>
<!-- Node3 -->
<g id="node3" class="node"><title>Node3</title>
<polygon fill="white" stroke="#bfbfbf" points="50,-0.5 50,-19.5 98,-19.5 98,-0.5 50,-0.5"/>
<text text-anchor="middle" x="74" y="-7.5" font-family="Ubuntu Mono" font-size="10.00">memory</text>
</g>
<!-- Node1&#45;&gt;Node3 -->
<g id="edge2" class="edge"><title>Node1&#45;&gt;Node3</title>
<path fill="none" stroke="midnightblue" d="M74,-56.083C74,-49.0059 74,-38.8611 74,-29.9865"/>
<polygon fill="midnightblue" stroke="midnightblue" points="77.5001,-29.751 74,-19.7511 70.5001,-29.7511 77.5001,-29.751"/>
</g>
<!-- Node4 -->
<g id="node4" class="node"><title>Node4</title>
<polygon fill="white" stroke="#bfbfbf" points="116,-0.5 116,-19.5 148,-19.5 148,-0.5 116,-0.5"/>
<text text-anchor="middle" x="132" y="-7.5" font-family="Ubuntu Mono" font-size="10.00">set</text>
</g>
<!-- Node1&#45;&gt;Node4 -->
<g id="edge3" class="edge"><title>Node1&#45;&gt;Node4</title>
<path fill="none" stroke="midnightblue" d="M83.3187,-56.324C91.8926,-48.3414 104.812,-36.3128 115.188,-26.6529"/>
<polygon fill="midnightblue" stroke="midnightblue" points="117.578,-29.2098 122.512,-19.8339 112.808,-24.0865 117.578,-29.2098"/>
</g>
</g>
</svg>
