<?xml version="1.0" encoding="UTF-8" standalone="no"?>
<!DOCTYPE svg PUBLIC "-//W3C//DTD SVG 1.1//EN"
 "http://www.w3.org/Graphics/SVG/1.1/DTD/svg11.dtd">
<!-- Generated by graphviz version 2.38.0 (20140413.2041)
 -->
<!-- Title: include/StopManager.h Pages: 1 -->
<svg width="194pt" height="140pt"
 viewBox="0.00 0.00 193.50 140.00" xmlns="http://www.w3.org/2000/svg" xmlns:xlink="http://www.w3.org/1999/xlink">
<g id="graph0" class="graph" transform="scale(1 1) rotate(0) translate(4 136)">
<title>include/StopManager.h</title>
<polygon fill="white" stroke="none" points="-4,4 -4,-136 189.5,-136 189.5,4 -4,4"/>
<!-- Node1 -->
<g id="node1" class="node"><title>Node1</title>
<polygon fill="#bfbfbf" stroke="black" points="31.5,-112.5 31.5,-131.5 147.5,-131.5 147.5,-112.5 31.5,-112.5"/>
<text text-anchor="middle" x="89.5" y="-119.5" font-family="Helvetica,sans-Serif" font-size="10.00">include/StopManager.h</text>
</g>
<!-- Node2 -->
<g id="node2" class="node"><title>Node2</title>
<polygon fill="white" stroke="#bfbfbf" points="0,-56.5 0,-75.5 35,-75.5 35,-56.5 0,-56.5"/>
<text text-anchor="middle" x="17.5" y="-63.5" font-family="Helvetica,sans-Serif" font-size="10.00">map</text>
</g>
<!-- Node1&#45;&gt;Node2 -->
<g id="edge1" class="edge"><title>Node1&#45;&gt;Node2</title>
<path fill="none" stroke="midnightblue" d="M77.932,-112.324C67.0798,-104.185 50.6193,-91.8395 37.6166,-82.0874"/>
<polygon fill="midnightblue" stroke="midnightblue" points="39.3786,-79.0339 29.2785,-75.8339 35.1785,-84.6339 39.3786,-79.0339"/>
</g>
<!-- Node3 -->
<g id="node3" class="node"><title>Node3</title>
<polygon fill="white" stroke="#bfbfbf" points="23.5,-0.5 23.5,-19.5 75.5,-19.5 75.5,-0.5 23.5,-0.5"/>
<text text-anchor="middle" x="49.5" y="-7.5" font-family="Helvetica,sans-Serif" font-size="10.00">memory</text>
</g>
<!-- Node1&#45;&gt;Node3 -->
<g id="edge2" class="edge"><title>Node1&#45;&gt;Node3</title>
<path fill="none" stroke="midnightblue" d="M86.3613,-112.368C79.877,-94.5366 64.8801,-53.2953 56.1443,-29.2717"/>
<polygon fill="midnightblue" stroke="midnightblue" points="59.3309,-27.7932 52.6242,-19.5914 52.7524,-30.1855 59.3309,-27.7932"/>
</g>
<!-- Node4 -->
<g id="node4" class="node"><title>Node4</title>
<polygon fill="white" stroke="#bfbfbf" points="155.5,-0.5 155.5,-19.5 185.5,-19.5 185.5,-0.5 155.5,-0.5"/>
<text text-anchor="middle" x="170.5" y="-7.5" font-family="Helvetica,sans-Serif" font-size="10.00">set</text>
</g>
<!-- Node1&#45;&gt;Node4 -->
<g id="edge3" class="edge"><title>Node1&#45;&gt;Node4</title>
<path fill="none" stroke="midnightblue" d="M105.081,-112.373C118.078,-104.454 136.232,-91.6008 147.5,-76 157.565,-62.0644 163.576,-43.3088 166.913,-29.5265"/>
<polygon fill="midnightblue" stroke="midnightblue" points="170.339,-30.2418 169.043,-19.7266 163.499,-28.7551 170.339,-30.2418"/>
</g>
<!-- Node5 -->
<g id="node5" class="node"><title>Node5</title>
<g id="a_node5"><a xlink:href="_floor_8h.html" target="_top" xlink:title="Floor.h">
<polygon fill="white" stroke="black" points="92,-56.5 92,-75.5 139,-75.5 139,-56.5 92,-56.5"/>
<text text-anchor="middle" x="115.5" y="-63.5" font-family="Helvetica,sans-Serif" font-size="10.00">Floor.h</text>
</a>
</g>
</g>
<!-- Node1&#45;&gt;Node5 -->
<g id="edge4" class="edge"><title>Node1&#45;&gt;Node5</title>
<path fill="none" stroke="midnightblue" d="M93.7934,-112.083C97.3523,-104.691 102.522,-93.9533 106.924,-84.8111"/>
<polygon fill="midnightblue" stroke="midnightblue" points="110.102,-86.2795 111.287,-75.7511 103.795,-83.2427 110.102,-86.2795"/>
</g>
<!-- Node5&#45;&gt;Node3 -->
<g id="edge5" class="edge"><title>Node5&#45;&gt;Node3</title>
<path fill="none" stroke="midnightblue" d="M104.896,-56.324C95.0438,-48.2631 80.1491,-36.0765 68.2849,-26.3695"/>
<polygon fill="midnightblue" stroke="midnightblue" points="70.2529,-23.4575 60.297,-19.8339 65.8202,-28.8752 70.2529,-23.4575"/>
</g>
<!-- Node5&#45;&gt;Node4 -->
<g id="edge7" class="edge"><title>Node5&#45;&gt;Node4</title>
<path fill="none" stroke="midnightblue" d="M124.582,-56.083C132.671,-48.1409 144.695,-36.3354 154.41,-26.7973"/>
<polygon fill="midnightblue" stroke="midnightblue" points="156.903,-29.2545 161.587,-19.7511 151.999,-24.2595 156.903,-29.2545"/>
</g>
<!-- Node6 -->
<g id="node6" class="node"><title>Node6</title>
<polygon fill="white" stroke="#bfbfbf" points="94,-0.5 94,-19.5 137,-19.5 137,-0.5 94,-0.5"/>
<text text-anchor="middle" x="115.5" y="-7.5" font-family="Helvetica,sans-Serif" font-size="10.00">queue</text>
</g>
<!-- Node5&#45;&gt;Node6 -->
<g id="edge6" class="edge"><title>Node5&#45;&gt;Node6</title>
<path fill="none" stroke="midnightblue" d="M115.5,-56.083C115.5,-49.0059 115.5,-38.8611 115.5,-29.9865"/>
<polygon fill="midnightblue" stroke="midnightblue" points="119,-29.751 115.5,-19.7511 112,-29.7511 119,-29.751"/>
</g>
</g>
</svg>
