<?xml version="1.0" encoding="UTF-8" standalone="no"?>
<!DOCTYPE svg PUBLIC "-//W3C//DTD SVG 1.1//EN"
 "http://www.w3.org/Graphics/SVG/1.1/DTD/svg11.dtd">
<!-- Generated by graphviz version 2.38.0 (20140413.2041)
 -->
<!-- Title: include/StopManager.h Pages: 1 -->
<svg width="244pt" height="84pt"
 viewBox="0.00 0.00 243.50 84.00" xmlns="http://www.w3.org/2000/svg" xmlns:xlink="http://www.w3.org/1999/xlink">
<g id="graph0" class="graph" transform="scale(1 1) rotate(0) translate(4 80)">
<title>include/StopManager.h</title>
<polygon fill="white" stroke="none" points="-4,4 -4,-80 239.5,-80 239.5,4 -4,4"/>
<!-- Node1 -->
<g id="node1" class="node"><title>Node1</title>
<polygon fill="#bfbfbf" stroke="black" points="50,-56.5 50,-75.5 177,-75.5 177,-56.5 50,-56.5"/>
<text text-anchor="middle" x="113.5" y="-63.5" font-family="Ubuntu Mono" font-size="10.00">include/StopManager.h</text>
</g>
<!-- Node2 -->
<g id="node2" class="node"><title>Node2</title>
<g id="a_node2"><a xlink:href="_building_8cpp.html" target="_top" xlink:title="src/Building.cpp">
<polygon fill="white" stroke="black" points="0,-0.5 0,-19.5 101,-19.5 101,-0.5 0,-0.5"/>
<text text-anchor="middle" x="50.5" y="-7.5" font-family="Ubuntu Mono" font-size="10.00">src/Building.cpp</text>
</a>
</g>
</g>
<!-- Node1&#45;&gt;Node2 -->
<g id="edge1" class="edge"><title>Node1&#45;&gt;Node2</title>
<path fill="none" stroke="midnightblue" d="M95.4601,-49.5372C84.2269,-39.9087 70.1809,-27.8694 60.8062,-19.8339"/>
<polygon fill="midnightblue" stroke="midnightblue" points="93.5076,-52.4734 103.378,-56.324 98.0632,-47.1586 93.5076,-52.4734"/>
</g>
<!-- Node3 -->
<g id="node3" class="node"><title>Node3</title>
<g id="a_node3"><a xlink:href="_stop_manager_8cpp.html" target="_top" xlink:title="src/StopManager.cpp">
<polygon fill="white" stroke="black" points="119.5,-0.5 119.5,-19.5 235.5,-19.5 235.5,-0.5 119.5,-0.5"/>
<text text-anchor="middle" x="177.5" y="-7.5" font-family="Ubuntu Mono" font-size="10.00">src/StopManager.cpp</text>
</a>
</g>
</g>
<!-- Node1&#45;&gt;Node3 -->
<g id="edge2" class="edge"><title>Node1&#45;&gt;Node3</title>
<path fill="none" stroke="midnightblue" d="M131.491,-49.8197C142.958,-40.1452 157.413,-27.9481 167.03,-19.8339"/>
<polygon fill="midnightblue" stroke="midnightblue" points="129.169,-47.2002 123.783,-56.324 133.683,-52.5502 129.169,-47.2002"/>
</g>
</g>
</svg>
