<?xml version="1.0" encoding="UTF-8" standalone="no"?>
<!DOCTYPE svg PUBLIC "-//W3C//DTD SVG 1.1//EN"
 "http://www.w3.org/Graphics/SVG/1.1/DTD/svg11.dtd">
<!-- Generated by graphviz version 2.38.0 (20140413.2041)
 -->
<!-- Title: src/StopManager.cpp Pages: 1 -->
<svg width="451pt" height="140pt"
 viewBox="0.00 0.00 451.00 140.00" xmlns="http://www.w3.org/2000/svg" xmlns:xlink="http://www.w3.org/1999/xlink">
<g id="graph0" class="graph" transform="scale(1 1) rotate(0) translate(4 136)">
<title>src/StopManager.cpp</title>
<polygon fill="white" stroke="none" points="-4,4 -4,-136 447,-136 447,4 -4,4"/>
<!-- Node1 -->
<g id="node1" class="node"><title>Node1</title>
<polygon fill="#bfbfbf" stroke="black" points="186.5,-112.5 186.5,-131.5 296.5,-131.5 296.5,-112.5 186.5,-112.5"/>
<text text-anchor="middle" x="241.5" y="-119.5" font-family="Helvetica,sans-Serif" font-size="10.00">src/StopManager.cpp</text>
</g>
<!-- Node2 -->
<g id="node2" class="node"><title>Node2</title>
<g id="a_node2"><a xlink:href="_stop_manager_8h.html" target="_top" xlink:title="StopManager.h">
<polygon fill="white" stroke="black" points="38,-56.5 38,-75.5 121,-75.5 121,-56.5 38,-56.5"/>
<text text-anchor="middle" x="79.5" y="-63.5" font-family="Helvetica,sans-Serif" font-size="10.00">StopManager.h</text>
</a>
</g>
</g>
<!-- Node1&#45;&gt;Node2 -->
<g id="edge1" class="edge"><title>Node1&#45;&gt;Node2</title>
<path fill="none" stroke="midnightblue" d="M215.831,-112.444C188.577,-103.359 145.316,-88.9388 114.849,-78.7831"/>
<polygon fill="midnightblue" stroke="midnightblue" points="115.643,-75.3584 105.049,-75.5164 113.429,-81.9992 115.643,-75.3584"/>
</g>
<!-- Node6 -->
<g id="node6" class="node"><title>Node6</title>
<g id="a_node6"><a xlink:href="_direction_8h.html" target="_top" xlink:title="Direction.h">
<polygon fill="white" stroke="black" points="283.5,-56.5 283.5,-75.5 347.5,-75.5 347.5,-56.5 283.5,-56.5"/>
<text text-anchor="middle" x="315.5" y="-63.5" font-family="Helvetica,sans-Serif" font-size="10.00">Direction.h</text>
</a>
</g>
</g>
<!-- Node1&#45;&gt;Node6 -->
<g id="edge5" class="edge"><title>Node1&#45;&gt;Node6</title>
<path fill="none" stroke="midnightblue" d="M253.389,-112.324C264.65,-104.107 281.787,-91.6017 295.209,-81.8069"/>
<polygon fill="midnightblue" stroke="midnightblue" points="297.38,-84.5559 303.394,-75.8339 293.253,-78.9014 297.38,-84.5559"/>
</g>
<!-- Node9 -->
<g id="node9" class="node"><title>Node9</title>
<g id="a_node9"><a xlink:href="_elevator_8h.html" target="_top" xlink:title="Elevator.h">
<polygon fill="white" stroke="black" points="139,-56.5 139,-75.5 200,-75.5 200,-56.5 139,-56.5"/>
<text text-anchor="middle" x="169.5" y="-63.5" font-family="Helvetica,sans-Serif" font-size="10.00">Elevator.h</text>
</a>
</g>
</g>
<!-- Node1&#45;&gt;Node9 -->
<g id="edge8" class="edge"><title>Node1&#45;&gt;Node9</title>
<path fill="none" stroke="midnightblue" d="M229.932,-112.324C219.08,-104.185 202.619,-91.8395 189.617,-82.0874"/>
<polygon fill="midnightblue" stroke="midnightblue" points="191.379,-79.0339 181.279,-75.8339 187.179,-84.6339 191.379,-79.0339"/>
</g>
<!-- Node12 -->
<g id="node12" class="node"><title>Node12</title>
<g id="a_node12"><a xlink:href="_floor_8h.html" target="_top" xlink:title="Floor.h">
<polygon fill="white" stroke="black" points="218,-56.5 218,-75.5 265,-75.5 265,-56.5 218,-56.5"/>
<text text-anchor="middle" x="241.5" y="-63.5" font-family="Helvetica,sans-Serif" font-size="10.00">Floor.h</text>
</a>
</g>
</g>
<!-- Node1&#45;&gt;Node12 -->
<g id="edge13" class="edge"><title>Node1&#45;&gt;Node12</title>
<path fill="none" stroke="midnightblue" d="M241.5,-112.083C241.5,-105.006 241.5,-94.8611 241.5,-85.9865"/>
<polygon fill="midnightblue" stroke="midnightblue" points="245,-85.751 241.5,-75.7511 238,-85.7511 245,-85.751"/>
</g>
<!-- Node13 -->
<g id="node13" class="node"><title>Node13</title>
<polygon fill="white" stroke="#bfbfbf" points="366,-56.5 366,-75.5 443,-75.5 443,-56.5 366,-56.5"/>
<text text-anchor="middle" x="404.5" y="-63.5" font-family="Helvetica,sans-Serif" font-size="10.00">glog/logging.h</text>
</g>
<!-- Node1&#45;&gt;Node13 -->
<g id="edge17" class="edge"><title>Node1&#45;&gt;Node13</title>
<path fill="none" stroke="midnightblue" d="M267.328,-112.444C294.749,-103.359 338.277,-88.9388 368.932,-78.7831"/>
<polygon fill="midnightblue" stroke="midnightblue" points="370.401,-81.9837 378.793,-75.5164 368.2,-75.3389 370.401,-81.9837"/>
</g>
<!-- Node3 -->
<g id="node3" class="node"><title>Node3</title>
<polygon fill="white" stroke="#bfbfbf" points="0,-0.5 0,-19.5 35,-19.5 35,-0.5 0,-0.5"/>
<text text-anchor="middle" x="17.5" y="-7.5" font-family="Helvetica,sans-Serif" font-size="10.00">map</text>
</g>
<!-- Node2&#45;&gt;Node3 -->
<g id="edge2" class="edge"><title>Node2&#45;&gt;Node3</title>
<path fill="none" stroke="midnightblue" d="M69.5386,-56.324C60.3734,-48.3414 46.5628,-36.3128 35.4718,-26.6529"/>
<polygon fill="midnightblue" stroke="midnightblue" points="37.4822,-23.7624 27.6426,-19.8339 32.8847,-29.041 37.4822,-23.7624"/>
</g>
<!-- Node4 -->
<g id="node4" class="node"><title>Node4</title>
<polygon fill="white" stroke="#bfbfbf" points="53.5,-0.5 53.5,-19.5 105.5,-19.5 105.5,-0.5 53.5,-0.5"/>
<text text-anchor="middle" x="79.5" y="-7.5" font-family="Helvetica,sans-Serif" font-size="10.00">memory</text>
</g>
<!-- Node2&#45;&gt;Node4 -->
<g id="edge3" class="edge"><title>Node2&#45;&gt;Node4</title>
<path fill="none" stroke="midnightblue" d="M79.5,-56.083C79.5,-49.0059 79.5,-38.8611 79.5,-29.9865"/>
<polygon fill="midnightblue" stroke="midnightblue" points="83.0001,-29.751 79.5,-19.7511 76.0001,-29.7511 83.0001,-29.751"/>
</g>
<!-- Node5 -->
<g id="node5" class="node"><title>Node5</title>
<polygon fill="white" stroke="#bfbfbf" points="123.5,-0.5 123.5,-19.5 153.5,-19.5 153.5,-0.5 123.5,-0.5"/>
<text text-anchor="middle" x="138.5" y="-7.5" font-family="Helvetica,sans-Serif" font-size="10.00">set</text>
</g>
<!-- Node2&#45;&gt;Node5 -->
<g id="edge4" class="edge"><title>Node2&#45;&gt;Node5</title>
<path fill="none" stroke="midnightblue" d="M88.9794,-56.324C97.7011,-48.3414 110.843,-36.3128 121.398,-26.6529"/>
<polygon fill="midnightblue" stroke="midnightblue" points="123.834,-29.1674 128.848,-19.8339 119.108,-24.0036 123.834,-29.1674"/>
</g>
<!-- Node7 -->
<g id="node7" class="node"><title>Node7</title>
<polygon fill="white" stroke="#bfbfbf" points="354,-0.5 354,-19.5 413,-19.5 413,-0.5 354,-0.5"/>
<text text-anchor="middle" x="383.5" y="-7.5" font-family="Helvetica,sans-Serif" font-size="10.00">stdexcept</text>
</g>
<!-- Node6&#45;&gt;Node7 -->
<g id="edge6" class="edge"><title>Node6&#45;&gt;Node7</title>
<path fill="none" stroke="midnightblue" d="M326.425,-56.324C336.675,-48.1849 352.221,-35.8395 364.501,-26.0874"/>
<polygon fill="midnightblue" stroke="midnightblue" points="366.721,-28.7937 372.376,-19.8339 362.368,-23.3119 366.721,-28.7937"/>
</g>
<!-- Node8 -->
<g id="node8" class="node"><title>Node8</title>
<polygon fill="white" stroke="#bfbfbf" points="295,-0.5 295,-19.5 336,-19.5 336,-0.5 295,-0.5"/>
<text text-anchor="middle" x="315.5" y="-7.5" font-family="Helvetica,sans-Serif" font-size="10.00">string</text>
</g>
<!-- Node6&#45;&gt;Node8 -->
<g id="edge7" class="edge"><title>Node6&#45;&gt;Node8</title>
<path fill="none" stroke="midnightblue" d="M315.5,-56.083C315.5,-49.0059 315.5,-38.8611 315.5,-29.9865"/>
<polygon fill="midnightblue" stroke="midnightblue" points="319,-29.751 315.5,-19.7511 312,-29.7511 319,-29.751"/>
</g>
<!-- Node9&#45;&gt;Node3 -->
<g id="edge9" class="edge"><title>Node9&#45;&gt;Node3</title>
<path fill="none" stroke="midnightblue" d="M145.415,-56.4435C118.128,-46.7494 73.7378,-30.9792 45.0825,-20.799"/>
<polygon fill="midnightblue" stroke="midnightblue" points="45.8927,-17.3726 35.298,-17.323 43.5493,-23.9687 45.8927,-17.3726"/>
</g>
<!-- Node9&#45;&gt;Node4 -->
<g id="edge10" class="edge"><title>Node9&#45;&gt;Node4</title>
<path fill="none" stroke="midnightblue" d="M155.04,-56.324C141,-47.9002 119.452,-34.9709 102.957,-25.0741"/>
<polygon fill="midnightblue" stroke="midnightblue" points="104.3,-21.7983 93.9242,-19.6545 100.698,-27.8007 104.3,-21.7983"/>
</g>
<!-- Node10 -->
<g id="node10" class="node"><title>Node10</title>
<polygon fill="white" stroke="#bfbfbf" points="234,-0.5 234,-19.5 277,-19.5 277,-0.5 234,-0.5"/>
<text text-anchor="middle" x="255.5" y="-7.5" font-family="Helvetica,sans-Serif" font-size="10.00">queue</text>
</g>
<!-- Node9&#45;&gt;Node10 -->
<g id="edge11" class="edge"><title>Node9&#45;&gt;Node10</title>
<path fill="none" stroke="midnightblue" d="M183.317,-56.324C196.733,-47.9002 217.324,-34.9709 233.086,-25.0741"/>
<polygon fill="midnightblue" stroke="midnightblue" points="235.109,-27.9364 241.717,-19.6545 231.387,-22.0081 235.109,-27.9364"/>
</g>
<!-- Node11 -->
<g id="node11" class="node"><title>Node11</title>
<polygon fill="white" stroke="#bfbfbf" points="171.5,-0.5 171.5,-19.5 215.5,-19.5 215.5,-0.5 171.5,-0.5"/>
<text text-anchor="middle" x="193.5" y="-7.5" font-family="Helvetica,sans-Serif" font-size="10.00">vector</text>
</g>
<!-- Node9&#45;&gt;Node11 -->
<g id="edge12" class="edge"><title>Node9&#45;&gt;Node11</title>
<path fill="none" stroke="midnightblue" d="M173.463,-56.083C176.713,-48.77 181.419,-38.1814 185.454,-29.1034"/>
<polygon fill="midnightblue" stroke="midnightblue" points="188.748,-30.3107 189.611,-19.7511 182.351,-27.4677 188.748,-30.3107"/>
</g>
<!-- Node12&#45;&gt;Node4 -->
<g id="edge14" class="edge"><title>Node12&#45;&gt;Node4</title>
<path fill="none" stroke="midnightblue" d="M217.944,-57.1479C190.863,-48.1209 146.132,-33.2105 114.865,-22.7885"/>
<polygon fill="midnightblue" stroke="midnightblue" points="115.82,-19.4175 105.227,-19.5756 113.607,-26.0583 115.82,-19.4175"/>
</g>
<!-- Node12&#45;&gt;Node5 -->
<g id="edge16" class="edge"><title>Node12&#45;&gt;Node5</title>
<path fill="none" stroke="midnightblue" d="M224.951,-56.324C208.119,-47.4994 181.856,-33.7302 162.691,-23.6827"/>
<polygon fill="midnightblue" stroke="midnightblue" points="164.147,-20.4942 153.665,-18.9507 160.897,-26.6938 164.147,-20.4942"/>
</g>
<!-- Node12&#45;&gt;Node10 -->
<g id="edge15" class="edge"><title>Node12&#45;&gt;Node10</title>
<path fill="none" stroke="midnightblue" d="M243.812,-56.083C245.667,-48.9272 248.335,-38.6353 250.654,-29.6911"/>
<polygon fill="midnightblue" stroke="midnightblue" points="254.109,-30.3094 253.231,-19.7511 247.334,-28.5527 254.109,-30.3094"/>
</g>
</g>
</svg>
