<?xml version="1.0" encoding="UTF-8" standalone="no"?>
<!DOCTYPE svg PUBLIC "-//W3C//DTD SVG 1.1//EN"
 "http://www.w3.org/Graphics/SVG/1.1/DTD/svg11.dtd">
<!-- Generated by graphviz version 2.38.0 (20140413.2041)
 -->
<!-- Title: src/StopManager.cpp Pages: 1 -->
<svg width="467pt" height="196pt"
 viewBox="0.00 0.00 466.50 196.00" xmlns="http://www.w3.org/2000/svg" xmlns:xlink="http://www.w3.org/1999/xlink">
<g id="graph0" class="graph" transform="scale(1 1) rotate(0) translate(4 192)">
<title>src/StopManager.cpp</title>
<polygon fill="white" stroke="none" points="-4,4 -4,-192 462.5,-192 462.5,4 -4,4"/>
<!-- Node1 -->
<g id="node1" class="node"><title>Node1</title>
<polygon fill="#bfbfbf" stroke="black" points="173,-168.5 173,-187.5 283,-187.5 283,-168.5 173,-168.5"/>
<text text-anchor="middle" x="228" y="-175.5" font-family="Helvetica,sans-Serif" font-size="10.00">src/StopManager.cpp</text>
</g>
<!-- Node2 -->
<g id="node2" class="node"><title>Node2</title>
<g id="a_node2"><a xlink:href="_stop_manager_8h.html" target="_top" xlink:title="StopManager.h">
<polygon fill="white" stroke="black" points="47.5,-112.5 47.5,-131.5 130.5,-131.5 130.5,-112.5 47.5,-112.5"/>
<text text-anchor="middle" x="89" y="-119.5" font-family="Helvetica,sans-Serif" font-size="10.00">StopManager.h</text>
</a>
</g>
</g>
<!-- Node1&#45;&gt;Node2 -->
<g id="edge1" class="edge"><title>Node1&#45;&gt;Node2</title>
<path fill="none" stroke="midnightblue" d="M205.975,-168.444C182.896,-159.478 146.438,-145.314 120.359,-135.183"/>
<polygon fill="midnightblue" stroke="midnightblue" points="121.511,-131.875 110.922,-131.516 118.976,-138.4 121.511,-131.875"/>
</g>
<!-- Node6 -->
<g id="node6" class="node"><title>Node6</title>
<g id="a_node6"><a xlink:href="_floor_8h.html" target="_top" xlink:title="Floor.h">
<polygon fill="white" stroke="black" points="65.5,-56.5 65.5,-75.5 112.5,-75.5 112.5,-56.5 65.5,-56.5"/>
<text text-anchor="middle" x="89" y="-63.5" font-family="Helvetica,sans-Serif" font-size="10.00">Floor.h</text>
</a>
</g>
</g>
<!-- Node1&#45;&gt;Node6 -->
<g id="edge17" class="edge"><title>Node1&#45;&gt;Node6</title>
<path fill="none" stroke="midnightblue" d="M217.093,-168.368C193.443,-149.653 137.209,-105.151 107.743,-81.8324"/>
<polygon fill="midnightblue" stroke="midnightblue" points="109.87,-79.0525 99.8564,-75.5914 105.526,-84.5416 109.87,-79.0525"/>
</g>
<!-- Node8 -->
<g id="node8" class="node"><title>Node8</title>
<g id="a_node8"><a xlink:href="_direction_8h.html" target="_top" xlink:title="Direction.h">
<polygon fill="white" stroke="black" points="299,-112.5 299,-131.5 363,-131.5 363,-112.5 299,-112.5"/>
<text text-anchor="middle" x="331" y="-119.5" font-family="Helvetica,sans-Serif" font-size="10.00">Direction.h</text>
</a>
</g>
</g>
<!-- Node1&#45;&gt;Node8 -->
<g id="edge9" class="edge"><title>Node1&#45;&gt;Node8</title>
<path fill="none" stroke="midnightblue" d="M244.549,-168.324C260.992,-159.703 286.435,-146.364 305.468,-136.386"/>
<polygon fill="midnightblue" stroke="midnightblue" points="307.261,-139.398 314.492,-131.655 304.011,-133.198 307.261,-139.398"/>
</g>
<!-- Node11 -->
<g id="node11" class="node"><title>Node11</title>
<g id="a_node11"><a xlink:href="_elevator_8h.html" target="_top" xlink:title="Elevator.h">
<polygon fill="white" stroke="black" points="197.5,-112.5 197.5,-131.5 258.5,-131.5 258.5,-112.5 197.5,-112.5"/>
<text text-anchor="middle" x="228" y="-119.5" font-family="Helvetica,sans-Serif" font-size="10.00">Elevator.h</text>
</a>
</g>
</g>
<!-- Node1&#45;&gt;Node11 -->
<g id="edge12" class="edge"><title>Node1&#45;&gt;Node11</title>
<path fill="none" stroke="midnightblue" d="M228,-168.083C228,-161.006 228,-150.861 228,-141.986"/>
<polygon fill="midnightblue" stroke="midnightblue" points="231.5,-141.751 228,-131.751 224.5,-141.751 231.5,-141.751"/>
</g>
<!-- Node13 -->
<g id="node13" class="node"><title>Node13</title>
<polygon fill="white" stroke="#bfbfbf" points="381.5,-112.5 381.5,-131.5 458.5,-131.5 458.5,-112.5 381.5,-112.5"/>
<text text-anchor="middle" x="420" y="-119.5" font-family="Helvetica,sans-Serif" font-size="10.00">glog/logging.h</text>
</g>
<!-- Node1&#45;&gt;Node13 -->
<g id="edge18" class="edge"><title>Node1&#45;&gt;Node13</title>
<path fill="none" stroke="midnightblue" d="M258.423,-168.444C291.285,-159.201 343.785,-144.436 379.974,-134.257"/>
<polygon fill="midnightblue" stroke="midnightblue" points="381.04,-137.593 389.719,-131.516 379.145,-130.855 381.04,-137.593"/>
</g>
<!-- Node3 -->
<g id="node3" class="node"><title>Node3</title>
<polygon fill="white" stroke="#bfbfbf" points="130.5,-56.5 130.5,-75.5 165.5,-75.5 165.5,-56.5 130.5,-56.5"/>
<text text-anchor="middle" x="148" y="-63.5" font-family="Helvetica,sans-Serif" font-size="10.00">map</text>
</g>
<!-- Node2&#45;&gt;Node3 -->
<g id="edge2" class="edge"><title>Node2&#45;&gt;Node3</title>
<path fill="none" stroke="midnightblue" d="M98.4794,-112.324C107.201,-104.341 120.343,-92.3128 130.898,-82.6529"/>
<polygon fill="midnightblue" stroke="midnightblue" points="133.334,-85.1674 138.348,-75.8339 128.608,-80.0036 133.334,-85.1674"/>
</g>
<!-- Node4 -->
<g id="node4" class="node"><title>Node4</title>
<polygon fill="white" stroke="#bfbfbf" points="63,-0.5 63,-19.5 115,-19.5 115,-0.5 63,-0.5"/>
<text text-anchor="middle" x="89" y="-7.5" font-family="Helvetica,sans-Serif" font-size="10.00">memory</text>
</g>
<!-- Node2&#45;&gt;Node4 -->
<g id="edge3" class="edge"><title>Node2&#45;&gt;Node4</title>
<path fill="none" stroke="midnightblue" d="M79.3159,-112.126C67.2664,-99.9531 49.07,-77.1687 56,-56 59.4899,-45.3397 66.5731,-35.1174 73.2855,-27.1175"/>
<polygon fill="midnightblue" stroke="midnightblue" points="75.9044,-29.4395 79.9802,-19.66 70.6954,-24.7633 75.9044,-29.4395"/>
</g>
<!-- Node5 -->
<g id="node5" class="node"><title>Node5</title>
<polygon fill="white" stroke="#bfbfbf" points="0,-0.5 0,-19.5 30,-19.5 30,-0.5 0,-0.5"/>
<text text-anchor="middle" x="15" y="-7.5" font-family="Helvetica,sans-Serif" font-size="10.00">set</text>
</g>
<!-- Node2&#45;&gt;Node5 -->
<g id="edge4" class="edge"><title>Node2&#45;&gt;Node5</title>
<path fill="none" stroke="midnightblue" d="M80.8939,-112.445C72.8078,-103.681 60.2854,-89.4703 51,-76 40.4985,-60.7655 30.4632,-42.1968 23.6685,-28.813"/>
<polygon fill="midnightblue" stroke="midnightblue" points="26.7378,-27.1245 19.1503,-19.73 20.4705,-30.2423 26.7378,-27.1245"/>
</g>
<!-- Node2&#45;&gt;Node6 -->
<g id="edge5" class="edge"><title>Node2&#45;&gt;Node6</title>
<path fill="none" stroke="midnightblue" d="M89,-112.083C89,-105.006 89,-94.8611 89,-85.9865"/>
<polygon fill="midnightblue" stroke="midnightblue" points="92.5001,-85.751 89,-75.7511 85.5001,-85.7511 92.5001,-85.751"/>
</g>
<!-- Node6&#45;&gt;Node4 -->
<g id="edge6" class="edge"><title>Node6&#45;&gt;Node4</title>
<path fill="none" stroke="midnightblue" d="M89,-56.083C89,-49.0059 89,-38.8611 89,-29.9865"/>
<polygon fill="midnightblue" stroke="midnightblue" points="92.5001,-29.751 89,-19.7511 85.5001,-29.7511 92.5001,-29.751"/>
</g>
<!-- Node6&#45;&gt;Node5 -->
<g id="edge8" class="edge"><title>Node6&#45;&gt;Node5</title>
<path fill="none" stroke="midnightblue" d="M77.1106,-56.324C65.8498,-48.1066 48.7134,-35.6017 35.2909,-25.8069"/>
<polygon fill="midnightblue" stroke="midnightblue" points="37.2468,-22.9014 27.1057,-19.8339 33.1205,-28.5559 37.2468,-22.9014"/>
</g>
<!-- Node7 -->
<g id="node7" class="node"><title>Node7</title>
<polygon fill="white" stroke="#bfbfbf" points="171.5,-0.5 171.5,-19.5 214.5,-19.5 214.5,-0.5 171.5,-0.5"/>
<text text-anchor="middle" x="193" y="-7.5" font-family="Helvetica,sans-Serif" font-size="10.00">queue</text>
</g>
<!-- Node6&#45;&gt;Node7 -->
<g id="edge7" class="edge"><title>Node6&#45;&gt;Node7</title>
<path fill="none" stroke="midnightblue" d="M105.709,-56.324C122.312,-47.7034 148.002,-34.3643 167.22,-24.3855"/>
<polygon fill="midnightblue" stroke="midnightblue" points="169.07,-27.3689 176.332,-19.6545 165.844,-21.1565 169.07,-27.3689"/>
</g>
<!-- Node9 -->
<g id="node9" class="node"><title>Node9</title>
<polygon fill="white" stroke="#bfbfbf" points="381.5,-56.5 381.5,-75.5 440.5,-75.5 440.5,-56.5 381.5,-56.5"/>
<text text-anchor="middle" x="411" y="-63.5" font-family="Helvetica,sans-Serif" font-size="10.00">stdexcept</text>
</g>
<!-- Node8&#45;&gt;Node9 -->
<g id="edge10" class="edge"><title>Node8&#45;&gt;Node9</title>
<path fill="none" stroke="midnightblue" d="M343.853,-112.324C356.216,-103.979 375.13,-91.2122 389.737,-81.3524"/>
<polygon fill="midnightblue" stroke="midnightblue" points="391.848,-84.1503 398.179,-75.6545 387.932,-78.3483 391.848,-84.1503"/>
</g>
<!-- Node10 -->
<g id="node10" class="node"><title>Node10</title>
<polygon fill="white" stroke="#bfbfbf" points="322.5,-56.5 322.5,-75.5 363.5,-75.5 363.5,-56.5 322.5,-56.5"/>
<text text-anchor="middle" x="343" y="-63.5" font-family="Helvetica,sans-Serif" font-size="10.00">string</text>
</g>
<!-- Node8&#45;&gt;Node10 -->
<g id="edge11" class="edge"><title>Node8&#45;&gt;Node10</title>
<path fill="none" stroke="midnightblue" d="M332.982,-112.083C334.572,-104.927 336.859,-94.6353 338.846,-85.6911"/>
<polygon fill="midnightblue" stroke="midnightblue" points="342.303,-86.2722 341.055,-75.7511 335.469,-84.7537 342.303,-86.2722"/>
</g>
<!-- Node11&#45;&gt;Node3 -->
<g id="edge13" class="edge"><title>Node11&#45;&gt;Node3</title>
<path fill="none" stroke="midnightblue" d="M215.147,-112.324C202.784,-103.979 183.87,-91.2122 169.263,-81.3524"/>
<polygon fill="midnightblue" stroke="midnightblue" points="171.068,-78.3483 160.821,-75.6545 167.152,-84.1503 171.068,-78.3483"/>
</g>
<!-- Node11&#45;&gt;Node4 -->
<g id="edge14" class="edge"><title>Node11&#45;&gt;Node4</title>
<path fill="none" stroke="midnightblue" d="M222.267,-112.067C213.275,-98.5863 194.724,-72.8358 174,-56 157.749,-42.7986 137.026,-31.7335 120.11,-23.8791"/>
<polygon fill="midnightblue" stroke="midnightblue" points="121.208,-20.536 110.652,-19.6337 118.342,-26.9221 121.208,-20.536"/>
</g>
<!-- Node11&#45;&gt;Node7 -->
<g id="edge15" class="edge"><title>Node11&#45;&gt;Node7</title>
<path fill="none" stroke="midnightblue" d="M225.348,-112.148C221.578,-99.6207 214.414,-76.0136 208,-56 205.169,-47.1664 201.925,-37.3944 199.18,-29.2199"/>
<polygon fill="midnightblue" stroke="midnightblue" points="202.45,-27.9625 195.935,-19.6073 195.818,-30.2015 202.45,-27.9625"/>
</g>
<!-- Node12 -->
<g id="node12" class="node"><title>Node12</title>
<polygon fill="white" stroke="#bfbfbf" points="260,-56.5 260,-75.5 304,-75.5 304,-56.5 260,-56.5"/>
<text text-anchor="middle" x="282" y="-63.5" font-family="Helvetica,sans-Serif" font-size="10.00">vector</text>
</g>
<!-- Node11&#45;&gt;Node12 -->
<g id="edge16" class="edge"><title>Node11&#45;&gt;Node12</title>
<path fill="none" stroke="midnightblue" d="M236.917,-112.083C244.78,-104.22 256.431,-92.5688 265.919,-83.0813"/>
<polygon fill="midnightblue" stroke="midnightblue" points="268.653,-85.2971 273.249,-75.7511 263.703,-80.3473 268.653,-85.2971"/>
</g>
</g>
</svg>
