<?xml version="1.0" encoding="UTF-8" standalone="no"?>
<!DOCTYPE svg PUBLIC "-//W3C//DTD SVG 1.1//EN"
 "http://www.w3.org/Graphics/SVG/1.1/DTD/svg11.dtd">
<!-- Generated by graphviz version 2.38.0 (20140413.2041)
 -->
<!-- Title: src/StopManager.cpp Pages: 1 -->
<svg width="480pt" height="140pt"
 viewBox="0.00 0.00 480.00 140.00" xmlns="http://www.w3.org/2000/svg" xmlns:xlink="http://www.w3.org/1999/xlink">
<g id="graph0" class="graph" transform="scale(1 1) rotate(0) translate(4 136)">
<title>src/StopManager.cpp</title>
<polygon fill="white" stroke="none" points="-4,4 -4,-136 476,-136 476,4 -4,4"/>
<!-- Node1 -->
<g id="node1" class="node"><title>Node1</title>
<polygon fill="#bfbfbf" stroke="black" points="187,-112.5 187,-131.5 303,-131.5 303,-112.5 187,-112.5"/>
<text text-anchor="middle" x="245" y="-119.5" font-family="Ubuntu Mono" font-size="10.00">src/StopManager.cpp</text>
</g>
<!-- Node2 -->
<g id="node2" class="node"><title>Node2</title>
<g id="a_node2"><a xlink:href="_stop_manager_8h.html" target="_top" xlink:title="StopManager.h">
<polygon fill="white" stroke="black" points="28.5,-56.5 28.5,-75.5 113.5,-75.5 113.5,-56.5 28.5,-56.5"/>
<text text-anchor="middle" x="71" y="-63.5" font-family="Ubuntu Mono" font-size="10.00">StopManager.h</text>
</a>
</g>
</g>
<!-- Node1&#45;&gt;Node2 -->
<g id="edge1" class="edge"><title>Node1&#45;&gt;Node2</title>
<path fill="none" stroke="midnightblue" d="M217.429,-112.444C187.903,-103.28 140.882,-88.6876 108.117,-78.5192"/>
<polygon fill="midnightblue" stroke="midnightblue" points="109.03,-75.1378 98.4418,-75.5164 106.955,-81.8232 109.03,-75.1378"/>
</g>
<!-- Node6 -->
<g id="node6" class="node"><title>Node6</title>
<g id="a_node6"><a xlink:href="_direction_8h.html" target="_top" xlink:title="Direction.h">
<polygon fill="white" stroke="black" points="290,-56.5 290,-75.5 364,-75.5 364,-56.5 290,-56.5"/>
<text text-anchor="middle" x="327" y="-63.5" font-family="Ubuntu Mono" font-size="10.00">Direction.h</text>
</a>
</g>
</g>
<!-- Node1&#45;&gt;Node6 -->
<g id="edge5" class="edge"><title>Node1&#45;&gt;Node6</title>
<path fill="none" stroke="midnightblue" d="M258.175,-112.324C270.847,-103.979 290.233,-91.2122 305.206,-81.3524"/>
<polygon fill="midnightblue" stroke="midnightblue" points="307.431,-84.0776 313.858,-75.6545 303.581,-78.2313 307.431,-84.0776"/>
</g>
<!-- Node9 -->
<g id="node9" class="node"><title>Node9</title>
<g id="a_node9"><a xlink:href="_elevator_8h.html" target="_top" xlink:title="Elevator.h">
<polygon fill="white" stroke="black" points="131.5,-56.5 131.5,-75.5 200.5,-75.5 200.5,-56.5 131.5,-56.5"/>
<text text-anchor="middle" x="166" y="-63.5" font-family="Ubuntu Mono" font-size="10.00">Elevator.h</text>
</a>
</g>
</g>
<!-- Node1&#45;&gt;Node9 -->
<g id="edge8" class="edge"><title>Node1&#45;&gt;Node9</title>
<path fill="none" stroke="midnightblue" d="M232.307,-112.324C220.099,-103.979 201.422,-91.2122 186.997,-81.3524"/>
<polygon fill="midnightblue" stroke="midnightblue" points="188.892,-78.4082 178.661,-75.6545 184.942,-84.1871 188.892,-78.4082"/>
</g>
<!-- Node12 -->
<g id="node12" class="node"><title>Node12</title>
<g id="a_node12"><a xlink:href="_floor_8h.html" target="_top" xlink:title="Floor.h">
<polygon fill="white" stroke="black" points="218.5,-56.5 218.5,-75.5 271.5,-75.5 271.5,-56.5 218.5,-56.5"/>
<text text-anchor="middle" x="245" y="-63.5" font-family="Ubuntu Mono" font-size="10.00">Floor.h</text>
</a>
</g>
</g>
<!-- Node1&#45;&gt;Node12 -->
<g id="edge13" class="edge"><title>Node1&#45;&gt;Node12</title>
<path fill="none" stroke="midnightblue" d="M245,-112.083C245,-105.006 245,-94.8611 245,-85.9865"/>
<polygon fill="midnightblue" stroke="midnightblue" points="248.5,-85.751 245,-75.7511 241.5,-85.7511 248.5,-85.751"/>
</g>
<!-- Node13 -->
<g id="node13" class="node"><title>Node13</title>
<polygon fill="white" stroke="#bfbfbf" points="382,-56.5 382,-75.5 472,-75.5 472,-56.5 382,-56.5"/>
<text text-anchor="middle" x="427" y="-63.5" font-family="Ubuntu Mono" font-size="10.00">glog/logging.h</text>
</g>
<!-- Node1&#45;&gt;Node13 -->
<g id="edge17" class="edge"><title>Node1&#45;&gt;Node13</title>
<path fill="none" stroke="midnightblue" d="M273.838,-112.444C304.856,-103.241 354.329,-88.5617 388.618,-78.3879"/>
<polygon fill="midnightblue" stroke="midnightblue" points="389.705,-81.7164 398.296,-75.5164 387.714,-75.0055 389.705,-81.7164"/>
</g>
<!-- Node3 -->
<g id="node3" class="node"><title>Node3</title>
<polygon fill="white" stroke="#bfbfbf" points="0,-0.5 0,-19.5 32,-19.5 32,-0.5 0,-0.5"/>
<text text-anchor="middle" x="16" y="-7.5" font-family="Ubuntu Mono" font-size="10.00">map</text>
</g>
<!-- Node2&#45;&gt;Node3 -->
<g id="edge2" class="edge"><title>Node2&#45;&gt;Node3</title>
<path fill="none" stroke="midnightblue" d="M61.9179,-56.083C53.8287,-48.1409 41.8046,-36.3354 32.0898,-26.7973"/>
<polygon fill="midnightblue" stroke="midnightblue" points="34.5009,-24.2595 24.9131,-19.7511 29.5967,-29.2545 34.5009,-24.2595"/>
</g>
<!-- Node4 -->
<g id="node4" class="node"><title>Node4</title>
<polygon fill="white" stroke="#bfbfbf" points="50,-0.5 50,-19.5 98,-19.5 98,-0.5 50,-0.5"/>
<text text-anchor="middle" x="74" y="-7.5" font-family="Ubuntu Mono" font-size="10.00">memory</text>
</g>
<!-- Node2&#45;&gt;Node4 -->
<g id="edge3" class="edge"><title>Node2&#45;&gt;Node4</title>
<path fill="none" stroke="midnightblue" d="M71.4954,-56.083C71.8886,-49.0059 72.4522,-38.8611 72.9452,-29.9865"/>
<polygon fill="midnightblue" stroke="midnightblue" points="76.4536,-29.9299 73.5138,-19.7511 69.4644,-29.5415 76.4536,-29.9299"/>
</g>
<!-- Node5 -->
<g id="node5" class="node"><title>Node5</title>
<polygon fill="white" stroke="#bfbfbf" points="116,-0.5 116,-19.5 148,-19.5 148,-0.5 116,-0.5"/>
<text text-anchor="middle" x="132" y="-7.5" font-family="Ubuntu Mono" font-size="10.00">set</text>
</g>
<!-- Node2&#45;&gt;Node5 -->
<g id="edge4" class="edge"><title>Node2&#45;&gt;Node5</title>
<path fill="none" stroke="midnightblue" d="M80.8007,-56.324C89.8181,-48.3414 103.406,-36.3128 114.318,-26.6529"/>
<polygon fill="midnightblue" stroke="midnightblue" points="116.853,-29.083 122.021,-19.8339 112.213,-23.8416 116.853,-29.083"/>
</g>
<!-- Node7 -->
<g id="node7" class="node"><title>Node7</title>
<polygon fill="white" stroke="#bfbfbf" points="363,-0.5 363,-19.5 427,-19.5 427,-0.5 363,-0.5"/>
<text text-anchor="middle" x="395" y="-7.5" font-family="Ubuntu Mono" font-size="10.00">stdexcept</text>
</g>
<!-- Node6&#45;&gt;Node7 -->
<g id="edge6" class="edge"><title>Node6&#45;&gt;Node7</title>
<path fill="none" stroke="midnightblue" d="M337.925,-56.324C348.175,-48.1849 363.721,-35.8395 376.001,-26.0874"/>
<polygon fill="midnightblue" stroke="midnightblue" points="378.221,-28.7937 383.876,-19.8339 373.868,-23.3119 378.221,-28.7937"/>
</g>
<!-- Node8 -->
<g id="node8" class="node"><title>Node8</title>
<polygon fill="white" stroke="#bfbfbf" points="297,-0.5 297,-19.5 345,-19.5 345,-0.5 297,-0.5"/>
<text text-anchor="middle" x="321" y="-7.5" font-family="Ubuntu Mono" font-size="10.00">string</text>
</g>
<!-- Node6&#45;&gt;Node8 -->
<g id="edge7" class="edge"><title>Node6&#45;&gt;Node8</title>
<path fill="none" stroke="midnightblue" d="M326.009,-56.083C325.214,-48.9272 324.071,-38.6353 323.077,-29.6911"/>
<polygon fill="midnightblue" stroke="midnightblue" points="326.555,-29.3034 321.972,-19.7511 319.598,-30.0765 326.555,-29.3034"/>
</g>
<!-- Node9&#45;&gt;Node3 -->
<g id="edge9" class="edge"><title>Node9&#45;&gt;Node3</title>
<path fill="none" stroke="midnightblue" d="M142.232,-56.4435C114.863,-46.5905 70.057,-30.4605 41.8415,-20.3029"/>
<polygon fill="midnightblue" stroke="midnightblue" points="42.8543,-16.9477 32.2599,-16.8536 40.4832,-23.5339 42.8543,-16.9477"/>
</g>
<!-- Node9&#45;&gt;Node4 -->
<g id="edge10" class="edge"><title>Node9&#45;&gt;Node4</title>
<path fill="none" stroke="midnightblue" d="M151.219,-56.324C136.733,-47.8215 114.427,-34.7288 97.5068,-24.7975"/>
<polygon fill="midnightblue" stroke="midnightblue" points="99.1406,-21.6981 88.7447,-19.6545 95.5972,-27.735 99.1406,-21.6981"/>
</g>
<!-- Node10 -->
<g id="node10" class="node"><title>Node10</title>
<polygon fill="white" stroke="#bfbfbf" points="232.5,-0.5 232.5,-19.5 275.5,-19.5 275.5,-0.5 232.5,-0.5"/>
<text text-anchor="middle" x="254" y="-7.5" font-family="Ubuntu Mono" font-size="10.00">queue</text>
</g>
<!-- Node9&#45;&gt;Node10 -->
<g id="edge11" class="edge"><title>Node9&#45;&gt;Node10</title>
<path fill="none" stroke="midnightblue" d="M180.139,-56.324C193.866,-47.9002 214.936,-34.9709 231.064,-25.0741"/>
<polygon fill="midnightblue" stroke="midnightblue" points="233.204,-27.8678 239.896,-19.6545 229.543,-21.9016 233.204,-27.8678"/>
</g>
<!-- Node11 -->
<g id="node11" class="node"><title>Node11</title>
<polygon fill="white" stroke="#bfbfbf" points="166,-0.5 166,-19.5 214,-19.5 214,-0.5 166,-0.5"/>
<text text-anchor="middle" x="190" y="-7.5" font-family="Ubuntu Mono" font-size="10.00">vector</text>
</g>
<!-- Node9&#45;&gt;Node11 -->
<g id="edge12" class="edge"><title>Node9&#45;&gt;Node11</title>
<path fill="none" stroke="midnightblue" d="M169.963,-56.083C173.213,-48.77 177.919,-38.1814 181.954,-29.1034"/>
<polygon fill="midnightblue" stroke="midnightblue" points="185.248,-30.3107 186.111,-19.7511 178.851,-27.4677 185.248,-30.3107"/>
</g>
<!-- Node12&#45;&gt;Node4 -->
<g id="edge14" class="edge"><title>Node12&#45;&gt;Node4</title>
<path fill="none" stroke="midnightblue" d="M218.281,-56.5625C188.531,-47.1675 140.376,-31.9608 107.971,-21.7278"/>
<polygon fill="midnightblue" stroke="midnightblue" points="108.637,-18.2677 98.0471,-18.5938 106.529,-24.9427 108.637,-18.2677"/>
</g>
<!-- Node12&#45;&gt;Node5 -->
<g id="edge16" class="edge"><title>Node12&#45;&gt;Node5</title>
<path fill="none" stroke="midnightblue" d="M227.095,-56.4435C208.314,-47.4688 178.636,-33.2861 157.431,-23.1528"/>
<polygon fill="midnightblue" stroke="midnightblue" points="158.886,-19.9689 148.354,-18.8151 155.867,-26.2848 158.886,-19.9689"/>
</g>
<!-- Node12&#45;&gt;Node10 -->
<g id="edge15" class="edge"><title>Node12&#45;&gt;Node10</title>
<path fill="none" stroke="midnightblue" d="M246.486,-56.083C247.679,-48.9272 249.394,-38.6353 250.885,-29.6911"/>
<polygon fill="midnightblue" stroke="midnightblue" points="254.35,-30.1904 252.541,-19.7511 247.445,-29.0396 254.35,-30.1904"/>
</g>
</g>
</svg>
