<?xml version="1.0" encoding="UTF-8" standalone="no"?>
<!DOCTYPE svg PUBLIC "-//W3C//DTD SVG 1.1//EN"
 "http://www.w3.org/Graphics/SVG/1.1/DTD/svg11.dtd">
<!-- Generated by graphviz version 2.38.0 (20140413.2041)
 -->
<!-- Title: include/Trip.h Pages: 1 -->
<svg width="399pt" height="84pt"
 viewBox="0.00 0.00 399.00 84.00" xmlns="http://www.w3.org/2000/svg" xmlns:xlink="http://www.w3.org/1999/xlink">
<g id="graph0" class="graph" transform="scale(1 1) rotate(0) translate(4 80)">
<title>include/Trip.h</title>
<polygon fill="white" stroke="none" points="-4,4 -4,-80 395,-80 395,4 -4,4"/>
<!-- Node1 -->
<g id="node1" class="node"><title>Node1</title>
<polygon fill="#bfbfbf" stroke="black" points="165.5,-56.5 165.5,-75.5 240.5,-75.5 240.5,-56.5 165.5,-56.5"/>
<text text-anchor="middle" x="203" y="-63.5" font-family="Helvetica,sans-Serif" font-size="10.00">include/Trip.h</text>
</g>
<!-- Node2 -->
<g id="node2" class="node"><title>Node2</title>
<g id="a_node2"><a xlink:href="_building_8cpp.html" target="_top" xlink:title="src/Building.cpp">
<polygon fill="white" stroke="black" points="0,-0.5 0,-19.5 86,-19.5 86,-0.5 0,-0.5"/>
<text text-anchor="middle" x="43" y="-7.5" font-family="Helvetica,sans-Serif" font-size="10.00">src/Building.cpp</text>
</a>
</g>
</g>
<!-- Node1&#45;&gt;Node2 -->
<g id="edge1" class="edge"><title>Node1&#45;&gt;Node2</title>
<path fill="none" stroke="midnightblue" d="M167.954,-53.172C137.826,-43.0039 95.1042,-28.5852 68.2339,-19.5164"/>
<polygon fill="midnightblue" stroke="midnightblue" points="167.053,-56.5619 177.648,-56.4435 169.292,-49.9295 167.053,-56.5619"/>
</g>
<!-- Node3 -->
<g id="node3" class="node"><title>Node3</title>
<g id="a_node3"><a xlink:href="_reporter_8cpp.html" target="_top" xlink:title="src/Reporter.cpp">
<polygon fill="white" stroke="black" points="104.5,-0.5 104.5,-19.5 193.5,-19.5 193.5,-0.5 104.5,-0.5"/>
<text text-anchor="middle" x="149" y="-7.5" font-family="Helvetica,sans-Serif" font-size="10.00">src/Reporter.cpp</text>
</a>
</g>
</g>
<!-- Node1&#45;&gt;Node3 -->
<g id="edge2" class="edge"><title>Node1&#45;&gt;Node3</title>
<path fill="none" stroke="midnightblue" d="M187.002,-49.0024C177.433,-39.4329 165.639,-27.6389 157.751,-19.7511"/>
<polygon fill="midnightblue" stroke="midnightblue" points="184.537,-51.4868 194.083,-56.083 189.487,-46.537 184.537,-51.4868"/>
</g>
<!-- Node4 -->
<g id="node4" class="node"><title>Node4</title>
<g id="a_node4"><a xlink:href="_statistics_8cpp.html" target="_top" xlink:title="src/Statistics.cpp">
<polygon fill="white" stroke="black" points="211.5,-0.5 211.5,-19.5 304.5,-19.5 304.5,-0.5 211.5,-0.5"/>
<text text-anchor="middle" x="258" y="-7.5" font-family="Helvetica,sans-Serif" font-size="10.00">src/Statistics.cpp</text>
</a>
</g>
</g>
<!-- Node1&#45;&gt;Node4 -->
<g id="edge3" class="edge"><title>Node1&#45;&gt;Node4</title>
<path fill="none" stroke="midnightblue" d="M219.294,-49.0024C229.041,-39.4329 241.053,-27.6389 249.087,-19.7511"/>
<polygon fill="midnightblue" stroke="midnightblue" points="216.766,-46.5796 212.082,-56.083 221.67,-51.5746 216.766,-46.5796"/>
</g>
<!-- Node5 -->
<g id="node5" class="node"><title>Node5</title>
<g id="a_node5"><a xlink:href="_trip_8cpp.html" target="_top" xlink:title="src/Trip.cpp">
<polygon fill="white" stroke="black" points="323,-0.5 323,-19.5 391,-19.5 391,-0.5 323,-0.5"/>
<text text-anchor="middle" x="357" y="-7.5" font-family="Helvetica,sans-Serif" font-size="10.00">src/Trip.cpp</text>
</a>
</g>
</g>
<!-- Node1&#45;&gt;Node5 -->
<g id="edge4" class="edge"><title>Node1&#45;&gt;Node5</title>
<path fill="none" stroke="midnightblue" d="M237.111,-53.0392C266.087,-42.8786 306.962,-28.5457 332.712,-19.5164"/>
<polygon fill="midnightblue" stroke="midnightblue" points="235.68,-49.8317 227.402,-56.4435 237.997,-56.4373 235.68,-49.8317"/>
</g>
</g>
</svg>
