<?xml version="1.0" encoding="UTF-8" standalone="no"?>
<!DOCTYPE svg PUBLIC "-//W3C//DTD SVG 1.1//EN"
 "http://www.w3.org/Graphics/SVG/1.1/DTD/svg11.dtd">
<!-- Generated by graphviz version 2.38.0 (20140413.2041)
 -->
<!-- Title: include/Trip.h Pages: 1 -->
<svg width="456pt" height="84pt"
 viewBox="0.00 0.00 455.50 84.00" xmlns="http://www.w3.org/2000/svg" xmlns:xlink="http://www.w3.org/1999/xlink">
<g id="graph0" class="graph" transform="scale(1 1) rotate(0) translate(4 80)">
<title>include/Trip.h</title>
<polygon fill="white" stroke="none" points="-4,4 -4,-80 451.5,-80 451.5,4 -4,4"/>
<!-- Node1 -->
<g id="node1" class="node"><title>Node1</title>
<polygon fill="#bfbfbf" stroke="black" points="186.5,-56.5 186.5,-75.5 276.5,-75.5 276.5,-56.5 186.5,-56.5"/>
<text text-anchor="middle" x="231.5" y="-63.5" font-family="Ubuntu Mono" font-size="10.00">include/Trip.h</text>
</g>
<!-- Node2 -->
<g id="node2" class="node"><title>Node2</title>
<g id="a_node2"><a xlink:href="_building_8cpp.html" target="_top" xlink:title="src/Building.cpp">
<polygon fill="white" stroke="black" points="0,-0.5 0,-19.5 101,-19.5 101,-0.5 0,-0.5"/>
<text text-anchor="middle" x="50.5" y="-7.5" font-family="Ubuntu Mono" font-size="10.00">src/Building.cpp</text>
</a>
</g>
</g>
<!-- Node1&#45;&gt;Node2 -->
<g id="edge1" class="edge"><title>Node1&#45;&gt;Node2</title>
<path fill="none" stroke="midnightblue" d="M193.181,-53.5677C159.036,-43.381 109.839,-28.7034 79.0458,-19.5164"/>
<polygon fill="midnightblue" stroke="midnightblue" points="192.237,-56.9385 202.82,-56.4435 194.238,-50.2306 192.237,-56.9385"/>
</g>
<!-- Node3 -->
<g id="node3" class="node"><title>Node3</title>
<g id="a_node3"><a xlink:href="_reporter_8cpp.html" target="_top" xlink:title="src/Reporter.cpp">
<polygon fill="white" stroke="black" points="119,-0.5 119,-19.5 220,-19.5 220,-0.5 119,-0.5"/>
<text text-anchor="middle" x="169.5" y="-7.5" font-family="Ubuntu Mono" font-size="10.00">src/Reporter.cpp</text>
</a>
</g>
</g>
<!-- Node1&#45;&gt;Node3 -->
<g id="edge2" class="edge"><title>Node1&#45;&gt;Node3</title>
<path fill="none" stroke="midnightblue" d="M213.746,-49.5372C202.692,-39.9087 188.869,-27.8694 179.643,-19.8339"/>
<polygon fill="midnightblue" stroke="midnightblue" points="211.699,-52.3954 221.539,-56.324 216.297,-47.1168 211.699,-52.3954"/>
</g>
<!-- Node4 -->
<g id="node4" class="node"><title>Node4</title>
<g id="a_node4"><a xlink:href="_statistics_8cpp.html" target="_top" xlink:title="src/Statistics.cpp">
<polygon fill="white" stroke="black" points="238,-0.5 238,-19.5 349,-19.5 349,-0.5 238,-0.5"/>
<text text-anchor="middle" x="293.5" y="-7.5" font-family="Ubuntu Mono" font-size="10.00">src/Statistics.cpp</text>
</a>
</g>
</g>
<!-- Node1&#45;&gt;Node4 -->
<g id="edge3" class="edge"><title>Node1&#45;&gt;Node4</title>
<path fill="none" stroke="midnightblue" d="M249.254,-49.5372C260.308,-39.9087 274.131,-27.8694 283.357,-19.8339"/>
<polygon fill="midnightblue" stroke="midnightblue" points="246.703,-47.1168 241.461,-56.324 251.301,-52.3954 246.703,-47.1168"/>
</g>
<!-- Node5 -->
<g id="node5" class="node"><title>Node5</title>
<g id="a_node5"><a xlink:href="_trip_8cpp.html" target="_top" xlink:title="src/Trip.cpp">
<polygon fill="white" stroke="black" points="367.5,-0.5 367.5,-19.5 447.5,-19.5 447.5,-0.5 367.5,-0.5"/>
<text text-anchor="middle" x="407.5" y="-7.5" font-family="Ubuntu Mono" font-size="10.00">src/Trip.cpp</text>
</a>
</g>
</g>
<!-- Node1&#45;&gt;Node5 -->
<g id="edge4" class="edge"><title>Node1&#45;&gt;Node5</title>
<path fill="none" stroke="midnightblue" d="M269.189,-53.4363C302.372,-43.2551 349.928,-28.664 379.743,-19.5164"/>
<polygon fill="midnightblue" stroke="midnightblue" points="267.921,-50.1642 259.388,-56.4435 269.975,-56.8563 267.921,-50.1642"/>
</g>
</g>
</svg>
