<?xml version="1.0" encoding="UTF-8" standalone="no"?>
<!DOCTYPE svg PUBLIC "-//W3C//DTD SVG 1.1//EN"
 "http://www.w3.org/Graphics/SVG/1.1/DTD/svg11.dtd">
<!-- Generated by graphviz version 2.38.0 (20140413.2041)
 -->
<!-- Title: src/WeightedCostFunction.cpp Pages: 1 -->
<svg width="446pt" height="196pt"
 viewBox="0.00 0.00 445.50 196.00" xmlns="http://www.w3.org/2000/svg" xmlns:xlink="http://www.w3.org/1999/xlink">
<g id="graph0" class="graph" transform="scale(1 1) rotate(0) translate(4 192)">
<title>src/WeightedCostFunction.cpp</title>
<polygon fill="white" stroke="none" points="-4,4 -4,-192 441.5,-192 441.5,4 -4,4"/>
<!-- Node1 -->
<g id="node1" class="node"><title>Node1</title>
<polygon fill="#bfbfbf" stroke="black" points="153.5,-168.5 153.5,-187.5 305.5,-187.5 305.5,-168.5 153.5,-168.5"/>
<text text-anchor="middle" x="229.5" y="-175.5" font-family="Helvetica,sans-Serif" font-size="10.00">src/WeightedCostFunction.cpp</text>
</g>
<!-- Node2 -->
<g id="node2" class="node"><title>Node2</title>
<g id="a_node2"><a xlink:href="_weighted_cost_function_8h.html" target="_top" xlink:title="WeightedCostFunction.h">
<polygon fill="white" stroke="black" points="0,-112.5 0,-131.5 125,-131.5 125,-112.5 0,-112.5"/>
<text text-anchor="middle" x="62.5" y="-119.5" font-family="Helvetica,sans-Serif" font-size="10.00">WeightedCostFunction.h</text>
</a>
</g>
</g>
<!-- Node1&#45;&gt;Node2 -->
<g id="edge1" class="edge"><title>Node1&#45;&gt;Node2</title>
<path fill="none" stroke="midnightblue" d="M203.038,-168.444C174.822,-159.32 129.96,-144.813 98.5315,-134.651"/>
<polygon fill="midnightblue" stroke="midnightblue" points="99.4296,-131.263 88.8378,-131.516 97.2759,-137.923 99.4296,-131.263"/>
</g>
<!-- Node5 -->
<g id="node5" class="node"><title>Node5</title>
<g id="a_node5"><a xlink:href="_client_8h.html" target="_top" xlink:title="Client.h">
<polygon fill="white" stroke="black" points="158.5,-112.5 158.5,-131.5 208.5,-131.5 208.5,-112.5 158.5,-112.5"/>
<text text-anchor="middle" x="183.5" y="-119.5" font-family="Helvetica,sans-Serif" font-size="10.00">Client.h</text>
</a>
</g>
</g>
<!-- Node1&#45;&gt;Node5 -->
<g id="edge4" class="edge"><title>Node1&#45;&gt;Node5</title>
<path fill="none" stroke="midnightblue" d="M221.904,-168.083C215.273,-160.298 205.479,-148.801 197.442,-139.367"/>
<polygon fill="midnightblue" stroke="midnightblue" points="200.104,-137.094 190.955,-131.751 194.775,-141.633 200.104,-137.094"/>
</g>
<!-- Node7 -->
<g id="node7" class="node"><title>Node7</title>
<g id="a_node7"><a xlink:href="_elevator_8h.html" target="_top" xlink:title="Elevator.h">
<polygon fill="white" stroke="black" points="246,-112.5 246,-131.5 307,-131.5 307,-112.5 246,-112.5"/>
<text text-anchor="middle" x="276.5" y="-119.5" font-family="Helvetica,sans-Serif" font-size="10.00">Elevator.h</text>
</a>
</g>
</g>
<!-- Node1&#45;&gt;Node7 -->
<g id="edge7" class="edge"><title>Node1&#45;&gt;Node7</title>
<path fill="none" stroke="midnightblue" d="M237.261,-168.083C244.037,-160.298 254.043,-148.801 262.255,-139.367"/>
<polygon fill="midnightblue" stroke="midnightblue" points="264.958,-141.592 268.883,-131.751 259.678,-136.996 264.958,-141.592"/>
</g>
<!-- Node11 -->
<g id="node11" class="node"><title>Node11</title>
<polygon fill="white" stroke="#bfbfbf" points="325.5,-112.5 325.5,-131.5 369.5,-131.5 369.5,-112.5 325.5,-112.5"/>
<text text-anchor="middle" x="347.5" y="-119.5" font-family="Helvetica,sans-Serif" font-size="10.00">cmath</text>
</g>
<!-- Node1&#45;&gt;Node11 -->
<g id="edge12" class="edge"><title>Node1&#45;&gt;Node11</title>
<path fill="none" stroke="midnightblue" d="M248.197,-168.444C267.444,-159.636 297.652,-145.812 319.7,-135.722"/>
<polygon fill="midnightblue" stroke="midnightblue" points="321.253,-138.86 328.89,-131.516 318.34,-132.495 321.253,-138.86"/>
</g>
<!-- Node3 -->
<g id="node3" class="node"><title>Node3</title>
<g id="a_node3"><a xlink:href="_cost_function_8h.html" target="_top" xlink:title="CostFunction.h">
<polygon fill="white" stroke="black" points="5,-56.5 5,-75.5 88,-75.5 88,-56.5 5,-56.5"/>
<text text-anchor="middle" x="46.5" y="-63.5" font-family="Helvetica,sans-Serif" font-size="10.00">CostFunction.h</text>
</a>
</g>
</g>
<!-- Node2&#45;&gt;Node3 -->
<g id="edge2" class="edge"><title>Node2&#45;&gt;Node3</title>
<path fill="none" stroke="midnightblue" d="M59.8579,-112.083C57.7144,-104.849 54.6211,-94.4087 51.9509,-85.3968"/>
<polygon fill="midnightblue" stroke="midnightblue" points="55.2897,-84.3447 49.0929,-75.7511 48.5781,-86.3334 55.2897,-84.3447"/>
</g>
<!-- Node4 -->
<g id="node4" class="node"><title>Node4</title>
<polygon fill="white" stroke="#bfbfbf" points="90.5,-0.5 90.5,-19.5 142.5,-19.5 142.5,-0.5 90.5,-0.5"/>
<text text-anchor="middle" x="116.5" y="-7.5" font-family="Helvetica,sans-Serif" font-size="10.00">memory</text>
</g>
<!-- Node3&#45;&gt;Node4 -->
<g id="edge3" class="edge"><title>Node3&#45;&gt;Node4</title>
<path fill="none" stroke="midnightblue" d="M57.7467,-56.324C68.2974,-48.1849 84.3007,-35.8395 96.9422,-26.0874"/>
<polygon fill="midnightblue" stroke="midnightblue" points="99.2686,-28.7132 105.049,-19.8339 94.993,-23.1707 99.2686,-28.7132"/>
</g>
<!-- Node5&#45;&gt;Node4 -->
<g id="edge6" class="edge"><title>Node5&#45;&gt;Node4</title>
<path fill="none" stroke="midnightblue" d="M171.098,-112.399C160.209,-104.228 144.71,-90.9875 135.5,-76 126.748,-61.7573 121.857,-43.284 119.237,-29.6734"/>
<polygon fill="midnightblue" stroke="midnightblue" points="122.65,-28.863 117.537,-19.5838 115.748,-30.0265 122.65,-28.863"/>
</g>
<!-- Node6 -->
<g id="node6" class="node"><title>Node6</title>
<polygon fill="white" stroke="#bfbfbf" points="145,-56.5 145,-75.5 222,-75.5 222,-56.5 145,-56.5"/>
<text text-anchor="middle" x="183.5" y="-63.5" font-family="Helvetica,sans-Serif" font-size="10.00">glog/logging.h</text>
</g>
<!-- Node5&#45;&gt;Node6 -->
<g id="edge5" class="edge"><title>Node5&#45;&gt;Node6</title>
<path fill="none" stroke="midnightblue" d="M183.5,-112.083C183.5,-105.006 183.5,-94.8611 183.5,-85.9865"/>
<polygon fill="midnightblue" stroke="midnightblue" points="187,-85.751 183.5,-75.7511 180,-85.7511 187,-85.751"/>
</g>
<!-- Node7&#45;&gt;Node4 -->
<g id="edge9" class="edge"><title>Node7&#45;&gt;Node4</title>
<path fill="none" stroke="midnightblue" d="M272.379,-112.194C265.519,-98.4133 250.51,-71.7053 230.5,-56 207.506,-37.9529 176.363,-26.3164 152.437,-19.4073"/>
<polygon fill="midnightblue" stroke="midnightblue" points="153.24,-15.9982 142.67,-16.7307 151.39,-22.7493 153.24,-15.9982"/>
</g>
<!-- Node8 -->
<g id="node8" class="node"><title>Node8</title>
<polygon fill="white" stroke="#bfbfbf" points="279,-56.5 279,-75.5 314,-75.5 314,-56.5 279,-56.5"/>
<text text-anchor="middle" x="296.5" y="-63.5" font-family="Helvetica,sans-Serif" font-size="10.00">map</text>
</g>
<!-- Node7&#45;&gt;Node8 -->
<g id="edge8" class="edge"><title>Node7&#45;&gt;Node8</title>
<path fill="none" stroke="midnightblue" d="M279.803,-112.083C282.482,-104.849 286.349,-94.4087 289.686,-85.3968"/>
<polygon fill="midnightblue" stroke="midnightblue" points="293.068,-86.3442 293.259,-75.7511 286.504,-83.9129 293.068,-86.3442"/>
</g>
<!-- Node9 -->
<g id="node9" class="node"><title>Node9</title>
<polygon fill="white" stroke="#bfbfbf" points="332,-56.5 332,-75.5 375,-75.5 375,-56.5 332,-56.5"/>
<text text-anchor="middle" x="353.5" y="-63.5" font-family="Helvetica,sans-Serif" font-size="10.00">queue</text>
</g>
<!-- Node7&#45;&gt;Node9 -->
<g id="edge10" class="edge"><title>Node7&#45;&gt;Node9</title>
<path fill="none" stroke="midnightblue" d="M288.871,-112.324C300.658,-104.058 318.632,-91.4527 332.636,-81.6322"/>
<polygon fill="midnightblue" stroke="midnightblue" points="334.982,-84.2619 341.159,-75.6545 330.962,-78.5307 334.982,-84.2619"/>
</g>
<!-- Node10 -->
<g id="node10" class="node"><title>Node10</title>
<polygon fill="white" stroke="#bfbfbf" points="393.5,-56.5 393.5,-75.5 437.5,-75.5 437.5,-56.5 393.5,-56.5"/>
<text text-anchor="middle" x="415.5" y="-63.5" font-family="Helvetica,sans-Serif" font-size="10.00">vector</text>
</g>
<!-- Node7&#45;&gt;Node10 -->
<g id="edge11" class="edge"><title>Node7&#45;&gt;Node10</title>
<path fill="none" stroke="midnightblue" d="M298.525,-112.444C321.604,-103.478 358.062,-89.314 384.141,-79.1827"/>
<polygon fill="midnightblue" stroke="midnightblue" points="385.524,-82.4002 393.578,-75.5164 382.989,-75.8753 385.524,-82.4002"/>
</g>
</g>
</svg>
