<?xml version="1.0" encoding="UTF-8" standalone="no"?>
<!DOCTYPE svg PUBLIC "-//W3C//DTD SVG 1.1//EN"
 "http://www.w3.org/Graphics/SVG/1.1/DTD/svg11.dtd">
<!-- Generated by graphviz version 2.38.0 (20140413.2041)
 -->
<!-- Title: include/WeightedCostFunction.h Pages: 1 -->
<svg width="182pt" height="140pt"
 viewBox="0.00 0.00 182.00 140.00" xmlns="http://www.w3.org/2000/svg" xmlns:xlink="http://www.w3.org/1999/xlink">
<g id="graph0" class="graph" transform="scale(1 1) rotate(0) translate(4 136)">
<title>include/WeightedCostFunction.h</title>
<polygon fill="white" stroke="none" points="-4,4 -4,-136 178,-136 178,4 -4,4"/>
<!-- Node1 -->
<g id="node1" class="node"><title>Node1</title>
<polygon fill="#bfbfbf" stroke="black" points="0,-112.5 0,-131.5 174,-131.5 174,-112.5 0,-112.5"/>
<text text-anchor="middle" x="87" y="-119.5" font-family="Ubuntu Mono" font-size="10.00">include/WeightedCostFunction.h</text>
</g>
<!-- Node2 -->
<g id="node2" class="node"><title>Node2</title>
<g id="a_node2"><a xlink:href="_cost_function_8h.html" target="_top" xlink:title="CostFunction.h">
<polygon fill="white" stroke="black" points="42,-56.5 42,-75.5 132,-75.5 132,-56.5 42,-56.5"/>
<text text-anchor="middle" x="87" y="-63.5" font-family="Ubuntu Mono" font-size="10.00">CostFunction.h</text>
</a>
</g>
</g>
<!-- Node1&#45;&gt;Node2 -->
<g id="edge1" class="edge"><title>Node1&#45;&gt;Node2</title>
<path fill="none" stroke="midnightblue" d="M87,-112.083C87,-105.006 87,-94.8611 87,-85.9865"/>
<polygon fill="midnightblue" stroke="midnightblue" points="90.5001,-85.751 87,-75.7511 83.5001,-85.7511 90.5001,-85.751"/>
</g>
<!-- Node3 -->
<g id="node3" class="node"><title>Node3</title>
<polygon fill="white" stroke="#bfbfbf" points="63,-0.5 63,-19.5 111,-19.5 111,-0.5 63,-0.5"/>
<text text-anchor="middle" x="87" y="-7.5" font-family="Ubuntu Mono" font-size="10.00">memory</text>
</g>
<!-- Node2&#45;&gt;Node3 -->
<g id="edge2" class="edge"><title>Node2&#45;&gt;Node3</title>
<path fill="none" stroke="midnightblue" d="M87,-56.083C87,-49.0059 87,-38.8611 87,-29.9865"/>
<polygon fill="midnightblue" stroke="midnightblue" points="90.5001,-29.751 87,-19.7511 83.5001,-29.7511 90.5001,-29.751"/>
</g>
</g>
</svg>
