<?xml version="1.0" encoding="UTF-8" standalone="no"?>
<!DOCTYPE svg PUBLIC "-//W3C//DTD SVG 1.1//EN"
 "http://www.w3.org/Graphics/SVG/1.1/DTD/svg11.dtd">
<!-- Generated by graphviz version 2.38.0 (20140413.2041)
 -->
<!-- Title: include/WeightedCostFunction.h Pages: 1 -->
<svg width="360pt" height="140pt"
 viewBox="0.00 0.00 359.50 140.00" xmlns="http://www.w3.org/2000/svg" xmlns:xlink="http://www.w3.org/1999/xlink">
<g id="graph0" class="graph" transform="scale(1 1) rotate(0) translate(4 136)">
<title>include/WeightedCostFunction.h</title>
<polygon fill="white" stroke="none" points="-4,4 -4,-136 355.5,-136 355.5,4 -4,4"/>
<!-- Node1 -->
<g id="node1" class="node"><title>Node1</title>
<polygon fill="#bfbfbf" stroke="black" points="87,-112.5 87,-131.5 261,-131.5 261,-112.5 87,-112.5"/>
<text text-anchor="middle" x="174" y="-119.5" font-family="Ubuntu Mono" font-size="10.00">include/WeightedCostFunction.h</text>
</g>
<!-- Node2 -->
<g id="node2" class="node"><title>Node2</title>
<g id="a_node2"><a xlink:href="_weighted_cost_function_8cpp.html" target="_top" xlink:title="src/WeightedCostFunction.cpp">
<polygon fill="white" stroke="black" points="0,-56.5 0,-75.5 164,-75.5 164,-56.5 0,-56.5"/>
<text text-anchor="middle" x="82" y="-63.5" font-family="Ubuntu Mono" font-size="10.00">src/WeightedCostFunction.cpp</text>
</a>
</g>
</g>
<!-- Node1&#45;&gt;Node2 -->
<g id="edge1" class="edge"><title>Node1&#45;&gt;Node2</title>
<path fill="none" stroke="midnightblue" d="M150.45,-107.177C133.521,-97.2407 111.217,-84.1492 96.7447,-75.6545"/>
<polygon fill="midnightblue" stroke="midnightblue" points="148.823,-110.28 159.219,-112.324 152.366,-104.243 148.823,-110.28"/>
</g>
<!-- Node3 -->
<g id="node3" class="node"><title>Node3</title>
<g id="a_node3"><a xlink:href="_cost_function_creator_8h.html" target="_top" xlink:title="include/CostFunctionCreator.h">
<polygon fill="white" stroke="black" points="182.5,-56.5 182.5,-75.5 351.5,-75.5 351.5,-56.5 182.5,-56.5"/>
<text text-anchor="middle" x="267" y="-63.5" font-family="Ubuntu Mono" font-size="10.00">include/CostFunctionCreator.h</text>
</a>
</g>
</g>
<!-- Node1&#45;&gt;Node3 -->
<g id="edge2" class="edge"><title>Node1&#45;&gt;Node3</title>
<path fill="none" stroke="midnightblue" d="M197.806,-107.177C214.919,-97.2407 237.465,-84.1492 252.095,-75.6545"/>
<polygon fill="midnightblue" stroke="midnightblue" points="195.832,-104.276 188.942,-112.324 199.347,-110.329 195.832,-104.276"/>
</g>
<!-- Node4 -->
<g id="node4" class="node"><title>Node4</title>
<g id="a_node4"><a xlink:href="_simulator_8cpp.html" target="_top" xlink:title="src/Simulator.cpp">
<polygon fill="white" stroke="black" points="214,-0.5 214,-19.5 320,-19.5 320,-0.5 214,-0.5"/>
<text text-anchor="middle" x="267" y="-7.5" font-family="Ubuntu Mono" font-size="10.00">src/Simulator.cpp</text>
</a>
</g>
</g>
<!-- Node3&#45;&gt;Node4 -->
<g id="edge3" class="edge"><title>Node3&#45;&gt;Node4</title>
<path fill="none" stroke="midnightblue" d="M267,-45.8045C267,-36.9102 267,-26.7798 267,-19.7511"/>
<polygon fill="midnightblue" stroke="midnightblue" points="263.5,-46.083 267,-56.083 270.5,-46.083 263.5,-46.083"/>
</g>
</g>
</svg>
