<?xml version="1.0" encoding="UTF-8" standalone="no"?>
<!DOCTYPE svg PUBLIC "-//W3C//DTD SVG 1.1//EN"
 "http://www.w3.org/Graphics/SVG/1.1/DTD/svg11.dtd">
<!-- Generated by graphviz version 2.38.0 (20140413.2041)
 -->
<!-- Title: src/WeightedCostFunction.cpp Pages: 1 -->
<svg width="465pt" height="196pt"
 viewBox="0.00 0.00 465.00 196.00" xmlns="http://www.w3.org/2000/svg" xmlns:xlink="http://www.w3.org/1999/xlink">
<g id="graph0" class="graph" transform="scale(1 1) rotate(0) translate(4 192)">
<title>src/WeightedCostFunction.cpp</title>
<polygon fill="white" stroke="none" points="-4,4 -4,-192 461,-192 461,4 -4,4"/>
<!-- Node1 -->
<g id="node1" class="node"><title>Node1</title>
<polygon fill="#bfbfbf" stroke="black" points="163,-168.5 163,-187.5 327,-187.5 327,-168.5 163,-168.5"/>
<text text-anchor="middle" x="245" y="-175.5" font-family="Ubuntu Mono" font-size="10.00">src/WeightedCostFunction.cpp</text>
</g>
<!-- Node2 -->
<g id="node2" class="node"><title>Node2</title>
<g id="a_node2"><a xlink:href="_weighted_cost_function_8h.html" target="_top" xlink:title="WeightedCostFunction.h">
<polygon fill="white" stroke="black" points="0,-112.5 0,-131.5 132,-131.5 132,-112.5 0,-112.5"/>
<text text-anchor="middle" x="66" y="-119.5" font-family="Ubuntu Mono" font-size="10.00">WeightedCostFunction.h</text>
</a>
</g>
</g>
<!-- Node1&#45;&gt;Node2 -->
<g id="edge1" class="edge"><title>Node1&#45;&gt;Node2</title>
<path fill="none" stroke="midnightblue" d="M216.637,-168.444C186.262,-159.28 137.89,-144.688 104.184,-134.519"/>
<polygon fill="midnightblue" stroke="midnightblue" points="104.815,-131.054 94.2304,-131.516 102.793,-137.756 104.815,-131.054"/>
</g>
<!-- Node5 -->
<g id="node5" class="node"><title>Node5</title>
<g id="a_node5"><a xlink:href="_client_8h.html" target="_top" xlink:title="Client.h">
<polygon fill="white" stroke="black" points="166.5,-112.5 166.5,-131.5 225.5,-131.5 225.5,-112.5 166.5,-112.5"/>
<text text-anchor="middle" x="196" y="-119.5" font-family="Ubuntu Mono" font-size="10.00">Client.h</text>
</a>
</g>
</g>
<!-- Node1&#45;&gt;Node5 -->
<g id="edge4" class="edge"><title>Node1&#45;&gt;Node5</title>
<path fill="none" stroke="midnightblue" d="M236.909,-168.083C229.845,-160.298 219.412,-148.801 210.851,-139.367"/>
<polygon fill="midnightblue" stroke="midnightblue" points="213.253,-136.805 203.941,-131.751 208.069,-141.509 213.253,-136.805"/>
</g>
<!-- Node7 -->
<g id="node7" class="node"><title>Node7</title>
<g id="a_node7"><a xlink:href="_elevator_8h.html" target="_top" xlink:title="Elevator.h">
<polygon fill="white" stroke="black" points="260.5,-112.5 260.5,-131.5 329.5,-131.5 329.5,-112.5 260.5,-112.5"/>
<text text-anchor="middle" x="295" y="-119.5" font-family="Ubuntu Mono" font-size="10.00">Elevator.h</text>
</a>
</g>
</g>
<!-- Node1&#45;&gt;Node7 -->
<g id="edge7" class="edge"><title>Node1&#45;&gt;Node7</title>
<path fill="none" stroke="midnightblue" d="M253.256,-168.083C260.465,-160.298 271.11,-148.801 279.846,-139.367"/>
<polygon fill="midnightblue" stroke="midnightblue" points="282.671,-141.467 286.897,-131.751 277.535,-136.711 282.671,-141.467"/>
</g>
<!-- Node11 -->
<g id="node11" class="node"><title>Node11</title>
<polygon fill="white" stroke="#bfbfbf" points="347.5,-112.5 347.5,-131.5 390.5,-131.5 390.5,-112.5 347.5,-112.5"/>
<text text-anchor="middle" x="369" y="-119.5" font-family="Ubuntu Mono" font-size="10.00">cmath</text>
</g>
<!-- Node1&#45;&gt;Node11 -->
<g id="edge12" class="edge"><title>Node1&#45;&gt;Node11</title>
<path fill="none" stroke="midnightblue" d="M264.648,-168.444C284.965,-159.596 316.903,-145.687 340.098,-135.586"/>
<polygon fill="midnightblue" stroke="midnightblue" points="341.673,-138.718 349.444,-131.516 338.878,-132.3 341.673,-138.718"/>
</g>
<!-- Node3 -->
<g id="node3" class="node"><title>Node3</title>
<g id="a_node3"><a xlink:href="_cost_function_8h.html" target="_top" xlink:title="CostFunction.h">
<polygon fill="white" stroke="black" points="5,-56.5 5,-75.5 95,-75.5 95,-56.5 5,-56.5"/>
<text text-anchor="middle" x="50" y="-63.5" font-family="Ubuntu Mono" font-size="10.00">CostFunction.h</text>
</a>
</g>
</g>
<!-- Node2&#45;&gt;Node3 -->
<g id="edge2" class="edge"><title>Node2&#45;&gt;Node3</title>
<path fill="none" stroke="midnightblue" d="M63.3579,-112.083C61.2144,-104.849 58.1211,-94.4087 55.4509,-85.3968"/>
<polygon fill="midnightblue" stroke="midnightblue" points="58.7897,-84.3447 52.5929,-75.7511 52.0781,-86.3334 58.7897,-84.3447"/>
</g>
<!-- Node4 -->
<g id="node4" class="node"><title>Node4</title>
<polygon fill="white" stroke="#bfbfbf" points="99,-0.5 99,-19.5 147,-19.5 147,-0.5 99,-0.5"/>
<text text-anchor="middle" x="123" y="-7.5" font-family="Ubuntu Mono" font-size="10.00">memory</text>
</g>
<!-- Node3&#45;&gt;Node4 -->
<g id="edge3" class="edge"><title>Node3&#45;&gt;Node4</title>
<path fill="none" stroke="midnightblue" d="M61.7287,-56.324C72.8374,-48.1066 89.7422,-35.6017 102.983,-25.8069"/>
<polygon fill="midnightblue" stroke="midnightblue" points="105.1,-28.5948 111.058,-19.8339 100.937,-22.9671 105.1,-28.5948"/>
</g>
<!-- Node5&#45;&gt;Node4 -->
<g id="edge6" class="edge"><title>Node5&#45;&gt;Node4</title>
<path fill="none" stroke="midnightblue" d="M181.54,-112.435C169.299,-104.469 152.169,-91.5136 142,-76 132.836,-62.019 127.99,-43.5167 125.493,-29.8286"/>
<polygon fill="midnightblue" stroke="midnightblue" points="128.907,-29.0071 123.904,-19.6678 121.991,-30.0884 128.907,-29.0071"/>
</g>
<!-- Node6 -->
<g id="node6" class="node"><title>Node6</title>
<polygon fill="white" stroke="#bfbfbf" points="151,-56.5 151,-75.5 241,-75.5 241,-56.5 151,-56.5"/>
<text text-anchor="middle" x="196" y="-63.5" font-family="Ubuntu Mono" font-size="10.00">glog/logging.h</text>
</g>
<!-- Node5&#45;&gt;Node6 -->
<g id="edge5" class="edge"><title>Node5&#45;&gt;Node6</title>
<path fill="none" stroke="midnightblue" d="M196,-112.083C196,-105.006 196,-94.8611 196,-85.9865"/>
<polygon fill="midnightblue" stroke="midnightblue" points="199.5,-85.751 196,-75.7511 192.5,-85.7511 199.5,-85.751"/>
</g>
<!-- Node7&#45;&gt;Node4 -->
<g id="edge9" class="edge"><title>Node7&#45;&gt;Node4</title>
<path fill="none" stroke="midnightblue" d="M291.084,-112.108C284.531,-98.2087 270.06,-71.3416 250,-56 222.485,-34.9573 184.308,-23.2018 157.01,-17.03"/>
<polygon fill="midnightblue" stroke="midnightblue" points="157.634,-13.5846 147.125,-14.9303 156.18,-20.4318 157.634,-13.5846"/>
</g>
<!-- Node8 -->
<g id="node8" class="node"><title>Node8</title>
<polygon fill="white" stroke="#bfbfbf" points="297,-56.5 297,-75.5 329,-75.5 329,-56.5 297,-56.5"/>
<text text-anchor="middle" x="313" y="-63.5" font-family="Ubuntu Mono" font-size="10.00">map</text>
</g>
<!-- Node7&#45;&gt;Node8 -->
<g id="edge8" class="edge"><title>Node7&#45;&gt;Node8</title>
<path fill="none" stroke="midnightblue" d="M297.972,-112.083C300.384,-104.849 303.864,-94.4087 306.868,-85.3968"/>
<polygon fill="midnightblue" stroke="midnightblue" points="310.241,-86.3447 310.083,-75.7511 303.6,-84.1311 310.241,-86.3447"/>
</g>
<!-- Node9 -->
<g id="node9" class="node"><title>Node9</title>
<polygon fill="white" stroke="#bfbfbf" points="347.5,-56.5 347.5,-75.5 390.5,-75.5 390.5,-56.5 347.5,-56.5"/>
<text text-anchor="middle" x="369" y="-63.5" font-family="Ubuntu Mono" font-size="10.00">queue</text>
</g>
<!-- Node7&#45;&gt;Node9 -->
<g id="edge10" class="edge"><title>Node7&#45;&gt;Node9</title>
<path fill="none" stroke="midnightblue" d="M306.889,-112.324C318.15,-104.107 335.287,-91.6017 348.709,-81.8069"/>
<polygon fill="midnightblue" stroke="midnightblue" points="350.88,-84.5559 356.894,-75.8339 346.753,-78.9014 350.88,-84.5559"/>
</g>
<!-- Node10 -->
<g id="node10" class="node"><title>Node10</title>
<polygon fill="white" stroke="#bfbfbf" points="409,-56.5 409,-75.5 457,-75.5 457,-56.5 409,-56.5"/>
<text text-anchor="middle" x="433" y="-63.5" font-family="Ubuntu Mono" font-size="10.00">vector</text>
</g>
<!-- Node7&#45;&gt;Node10 -->
<g id="edge11" class="edge"><title>Node7&#45;&gt;Node10</title>
<path fill="none" stroke="midnightblue" d="M316.867,-112.444C339.779,-103.478 375.975,-89.314 401.866,-79.1827"/>
<polygon fill="midnightblue" stroke="midnightblue" points="403.199,-82.4198 411.236,-75.5164 400.648,-75.9011 403.199,-82.4198"/>
</g>
</g>
</svg>
