<?xml version="1.0" encoding="UTF-8" standalone="no"?>
<!DOCTYPE svg PUBLIC "-//W3C//DTD SVG 1.1//EN"
 "http://www.w3.org/Graphics/SVG/1.1/DTD/svg11.dtd">
<!-- Generated by graphviz version 2.38.0 (20140413.2041)
 -->
<!-- Title: ClientArrival Pages: 1 -->
<svg width="114pt" height="259pt"
 viewBox="0.00 0.00 114.00 259.00" xmlns="http://www.w3.org/2000/svg" xmlns:xlink="http://www.w3.org/1999/xlink">
<g id="graph0" class="graph" transform="scale(1 1) rotate(0) translate(4 255)">
<title>ClientArrival</title>
<polygon fill="white" stroke="none" points="-4,4 -4,-255 110,-255 110,4 -4,4"/>
<!-- Node1 -->
<g id="node1" class="node"><title>Node1</title>
<polygon fill="#bfbfbf" stroke="black" points="-7.10543e-15,-0.5 -7.10543e-15,-79.5 106,-79.5 106,-0.5 -7.10543e-15,-0.5"/>
<text text-anchor="middle" x="53" y="-67.5" font-family="Ubuntu Mono" font-size="10.00">ClientArrival</text>
<polyline fill="none" stroke="black" points="-7.10543e-15,-60.5 106,-60.5 "/>
<text text-anchor="middle" x="53" y="-48.5" font-family="Ubuntu Mono" font-size="10.00"> </text>
<polyline fill="none" stroke="black" points="-7.10543e-15,-41.5 106,-41.5 "/>
<text text-anchor="start" x="8" y="-29.5" font-family="Ubuntu Mono" font-size="10.00">+ ClientArrival()</text>
<text text-anchor="start" x="8" y="-18.5" font-family="Ubuntu Mono" font-size="10.00">+ getClient()</text>
<text text-anchor="start" x="8" y="-7.5" font-family="Ubuntu Mono" font-size="10.00">+ str()</text>
</g>
<!-- Node2 -->
<g id="node2" class="node"><title>Node2</title>
<g id="a_node2"><a xlink:href="class_event.html" target="_top" xlink:title="{Event\n|+ totalEvents\l# _id\l# _time\l# _type\l|+ Event()\l+ getId()\l+ getTime()\l+ getType()\l+ str()\l}">
<polygon fill="white" stroke="black" points="10.5,-116.5 10.5,-250.5 95.5,-250.5 95.5,-116.5 10.5,-116.5"/>
<text text-anchor="middle" x="53" y="-238.5" font-family="Ubuntu Mono" font-size="10.00">Event</text>
<polyline fill="none" stroke="black" points="10.5,-231.5 95.5,-231.5 "/>
<text text-anchor="start" x="18.5" y="-219.5" font-family="Ubuntu Mono" font-size="10.00">+ totalEvents</text>
<text text-anchor="start" x="18.5" y="-208.5" font-family="Ubuntu Mono" font-size="10.00"># _id</text>
<text text-anchor="start" x="18.5" y="-197.5" font-family="Ubuntu Mono" font-size="10.00"># _time</text>
<text text-anchor="start" x="18.5" y="-186.5" font-family="Ubuntu Mono" font-size="10.00"># _type</text>
<polyline fill="none" stroke="black" points="10.5,-179.5 95.5,-179.5 "/>
<text text-anchor="start" x="18.5" y="-167.5" font-family="Ubuntu Mono" font-size="10.00">+ Event()</text>
<text text-anchor="start" x="18.5" y="-156.5" font-family="Ubuntu Mono" font-size="10.00">+ getId()</text>
<text text-anchor="start" x="18.5" y="-145.5" font-family="Ubuntu Mono" font-size="10.00">+ getTime()</text>
<text text-anchor="start" x="18.5" y="-134.5" font-family="Ubuntu Mono" font-size="10.00">+ getType()</text>
<text text-anchor="start" x="18.5" y="-123.5" font-family="Ubuntu Mono" font-size="10.00">+ str()</text>
</a>
</g>
</g>
<!-- Node2&#45;&gt;Node1 -->
<g id="edge1" class="edge"><title>Node2&#45;&gt;Node1</title>
<path fill="none" stroke="midnightblue" d="M53,-106.03C53,-96.9466 53,-87.9896 53,-79.7634"/>
<polygon fill="none" stroke="midnightblue" points="49.5001,-106.307 53,-116.307 56.5001,-106.307 49.5001,-106.307"/>
</g>
</g>
</svg>
