<?xml version="1.0" encoding="UTF-8" standalone="no"?>
<!DOCTYPE svg PUBLIC "-//W3C//DTD SVG 1.1//EN"
 "http://www.w3.org/Graphics/SVG/1.1/DTD/svg11.dtd">
<!-- Generated by graphviz version 2.38.0 (20140413.2041)
 -->
<!-- Title: Floor::create Pages: 1 -->
<svg width="403pt" height="28pt"
 viewBox="0.00 0.00 403.00 28.00" xmlns="http://www.w3.org/2000/svg" xmlns:xlink="http://www.w3.org/1999/xlink">
<g id="graph0" class="graph" transform="scale(1 1) rotate(0) translate(4 24)">
<title>Floor::create</title>
<polygon fill="white" stroke="none" points="-4,4 -4,-24 399,-24 399,4 -4,4"/>
<!-- Node1 -->
<g id="node1" class="node"><title>Node1</title>
<polygon fill="#bfbfbf" stroke="black" points="0,-0.5 0,-19.5 85,-19.5 85,-0.5 0,-0.5"/>
<text text-anchor="middle" x="42.5" y="-7.5" font-family="Ubuntu Mono" font-size="10.00">Floor::create</text>
</g>
<!-- Node2 -->
<g id="node2" class="node"><title>Node2</title>
<g id="a_node2"><a xlink:href="class_simulator.html#a7a8ed7267e6892f0d16c9ffe8b16a353" target="_top" xlink:title="Simulator::createBuilding">
<polygon fill="white" stroke="black" points="121,-0.5 121,-19.5 269,-19.5 269,-0.5 121,-0.5"/>
<text text-anchor="middle" x="195" y="-7.5" font-family="Ubuntu Mono" font-size="10.00">Simulator::createBuilding</text>
</a>
</g>
</g>
<!-- Node1&#45;&gt;Node2 -->
<g id="edge1" class="edge"><title>Node1&#45;&gt;Node2</title>
<path fill="none" stroke="midnightblue" d="M95.236,-10C103.504,-10 112.192,-10 120.844,-10"/>
<polygon fill="midnightblue" stroke="midnightblue" points="95.0232,-6.5001 85.0232,-10 95.0231,-13.5001 95.0232,-6.5001"/>
</g>
<!-- Node3 -->
<g id="node3" class="node"><title>Node3</title>
<g id="a_node3"><a xlink:href="class_simulator.html#aa2de7e32b04cc3e8fc60aec23997621b" target="_top" xlink:title="Simulator::run">
<polygon fill="white" stroke="black" points="305,-0.5 305,-19.5 395,-19.5 395,-0.5 305,-0.5"/>
<text text-anchor="middle" x="350" y="-7.5" font-family="Ubuntu Mono" font-size="10.00">Simulator::run</text>
</a>
</g>
</g>
<!-- Node2&#45;&gt;Node3 -->
<g id="edge2" class="edge"><title>Node2&#45;&gt;Node3</title>
<path fill="none" stroke="midnightblue" d="M279.585,-10C288.268,-10 296.827,-10 304.812,-10"/>
<polygon fill="midnightblue" stroke="midnightblue" points="279.363,-6.5001 269.363,-10 279.363,-13.5001 279.363,-6.5001"/>
</g>
</g>
</svg>
