<?xml version="1.0" encoding="UTF-8" standalone="no"?>
<!DOCTYPE svg PUBLIC "-//W3C//DTD SVG 1.1//EN"
 "http://www.w3.org/Graphics/SVG/1.1/DTD/svg11.dtd">
<!-- Generated by graphviz version 2.38.0 (20140413.2041)
 -->
<!-- Title: Event Pages: 1 -->
<svg width="216pt" height="259pt"
 viewBox="0.00 0.00 215.50 259.00" xmlns="http://www.w3.org/2000/svg" xmlns:xlink="http://www.w3.org/1999/xlink">
<g id="graph0" class="graph" transform="scale(1 1) rotate(0) translate(4 255)">
<title>Event</title>
<polygon fill="white" stroke="none" points="-4,4 -4,-255 211.5,-255 211.5,4 -4,4"/>
<!-- Node1 -->
<g id="node1" class="node"><title>Node1</title>
<polygon fill="#bfbfbf" stroke="black" points="61,-116.5 61,-250.5 136,-250.5 136,-116.5 61,-116.5"/>
<text text-anchor="middle" x="98.5" y="-238.5" font-family="Helvetica,sans-Serif" font-size="10.00">Event</text>
<polyline fill="none" stroke="black" points="61,-231.5 136,-231.5 "/>
<text text-anchor="start" x="69" y="-219.5" font-family="Helvetica,sans-Serif" font-size="10.00">+ totalEvents</text>
<text text-anchor="start" x="69" y="-208.5" font-family="Helvetica,sans-Serif" font-size="10.00"># _id</text>
<text text-anchor="start" x="69" y="-197.5" font-family="Helvetica,sans-Serif" font-size="10.00"># _time</text>
<text text-anchor="start" x="69" y="-186.5" font-family="Helvetica,sans-Serif" font-size="10.00"># _type</text>
<polyline fill="none" stroke="black" points="61,-179.5 136,-179.5 "/>
<text text-anchor="start" x="69" y="-167.5" font-family="Helvetica,sans-Serif" font-size="10.00">+ Event()</text>
<text text-anchor="start" x="69" y="-156.5" font-family="Helvetica,sans-Serif" font-size="10.00">+ getId()</text>
<text text-anchor="start" x="69" y="-145.5" font-family="Helvetica,sans-Serif" font-size="10.00">+ getTime()</text>
<text text-anchor="start" x="69" y="-134.5" font-family="Helvetica,sans-Serif" font-size="10.00">+ getType()</text>
<text text-anchor="start" x="69" y="-123.5" font-family="Helvetica,sans-Serif" font-size="10.00">+ str()</text>
</g>
<!-- Node2 -->
<g id="node2" class="node"><title>Node2</title>
<g id="a_node2"><a xlink:href="class_client_arrival.html" target="_top" xlink:title="{ClientArrival\n||+ ClientArrival()\l+ getClient()\l+ str()\l}">
<polygon fill="white" stroke="black" points="0,-0.5 0,-79.5 85,-79.5 85,-0.5 0,-0.5"/>
<text text-anchor="middle" x="42.5" y="-67.5" font-family="Helvetica,sans-Serif" font-size="10.00">ClientArrival</text>
<polyline fill="none" stroke="black" points="0,-60.5 85,-60.5 "/>
<text text-anchor="middle" x="42.5" y="-48.5" font-family="Helvetica,sans-Serif" font-size="10.00"> </text>
<polyline fill="none" stroke="black" points="0,-41.5 85,-41.5 "/>
<text text-anchor="start" x="8" y="-29.5" font-family="Helvetica,sans-Serif" font-size="10.00">+ ClientArrival()</text>
<text text-anchor="start" x="8" y="-18.5" font-family="Helvetica,sans-Serif" font-size="10.00">+ getClient()</text>
<text text-anchor="start" x="8" y="-7.5" font-family="Helvetica,sans-Serif" font-size="10.00">+ str()</text>
</a>
</g>
</g>
<!-- Node1&#45;&gt;Node2 -->
<g id="edge1" class="edge"><title>Node1&#45;&gt;Node2</title>
<path fill="none" stroke="midnightblue" d="M68.5843,-106.91C64.8704,-97.5252 61.2016,-88.255 57.841,-79.7634"/>
<polygon fill="none" stroke="midnightblue" points="65.3692,-108.297 72.3036,-116.307 71.878,-105.721 65.3692,-108.297"/>
</g>
<!-- Node3 -->
<g id="node3" class="node"><title>Node3</title>
<g id="a_node3"><a xlink:href="class_finish_simulation.html" target="_top" xlink:title="{FinishSimulation\n||+ FinishSimulation()\l+ str()\l}">
<polygon fill="white" stroke="black" points="103.5,-6 103.5,-74 207.5,-74 207.5,-6 103.5,-6"/>
<text text-anchor="middle" x="155.5" y="-62" font-family="Helvetica,sans-Serif" font-size="10.00">FinishSimulation</text>
<polyline fill="none" stroke="black" points="103.5,-55 207.5,-55 "/>
<text text-anchor="middle" x="155.5" y="-43" font-family="Helvetica,sans-Serif" font-size="10.00"> </text>
<polyline fill="none" stroke="black" points="103.5,-36 207.5,-36 "/>
<text text-anchor="start" x="111.5" y="-24" font-family="Helvetica,sans-Serif" font-size="10.00">+ FinishSimulation()</text>
<text text-anchor="start" x="111.5" y="-13" font-family="Helvetica,sans-Serif" font-size="10.00">+ str()</text>
</a>
</g>
</g>
<!-- Node1&#45;&gt;Node3 -->
<g id="edge2" class="edge"><title>Node1&#45;&gt;Node3</title>
<path fill="none" stroke="midnightblue" d="M128.909,-107.011C133.572,-95.4343 138.167,-84.0279 142.191,-74.0387"/>
<polygon fill="none" stroke="midnightblue" points="125.654,-105.724 125.164,-116.307 132.147,-108.339 125.654,-105.724"/>
</g>
</g>
</svg>
