<?xml version="1.0" encoding="UTF-8" standalone="no"?>
<!DOCTYPE svg PUBLIC "-//W3C//DTD SVG 1.1//EN"
 "http://www.w3.org/Graphics/SVG/1.1/DTD/svg11.dtd">
<!-- Generated by graphviz version 2.38.0 (20140413.2041)
 -->
<!-- Title: EventObserver Pages: 1 -->
<svg width="399pt" height="270pt"
 viewBox="0.00 0.00 398.50 270.00" xmlns="http://www.w3.org/2000/svg" xmlns:xlink="http://www.w3.org/1999/xlink">
<g id="graph0" class="graph" transform="scale(1 1) rotate(0) translate(4 266)">
<title>EventObserver</title>
<polygon fill="white" stroke="none" points="-4,4 -4,-266 394.5,-266 394.5,4 -4,4"/>
<!-- Node1 -->
<g id="node1" class="node"><title>Node1</title>
<polygon fill="#bfbfbf" stroke="black" points="155.5,-204.5 155.5,-261.5 240.5,-261.5 240.5,-204.5 155.5,-204.5"/>
<text text-anchor="middle" x="198" y="-249.5" font-family="Ubuntu Mono" font-size="10.00">EventObserver</text>
<polyline fill="none" stroke="black" points="155.5,-242.5 240.5,-242.5 "/>
<text text-anchor="middle" x="198" y="-230.5" font-family="Ubuntu Mono" font-size="10.00"> </text>
<polyline fill="none" stroke="black" points="155.5,-223.5 240.5,-223.5 "/>
<text text-anchor="start" x="163.5" y="-211.5" font-family="Ubuntu Mono" font-size="10.00">+ notify()</text>
</g>
<!-- Node2 -->
<g id="node2" class="node"><title>Node2</title>
<g id="a_node2"><a xlink:href="class_building.html" target="_top" xlink:title="{Building\n||+ Building()\l+ ~Building()\l+ getElevators()\l+ getFloors()\l+ getFloor()\l+ getElevator()\l+ notify()\l+ initializeArrivals()\l}">
<polygon fill="white" stroke="black" points="0,-17 0,-151 132,-151 132,-17 0,-17"/>
<text text-anchor="middle" x="66" y="-139" font-family="Ubuntu Mono" font-size="10.00">Building</text>
<polyline fill="none" stroke="black" points="0,-132 132,-132 "/>
<text text-anchor="middle" x="66" y="-120" font-family="Ubuntu Mono" font-size="10.00"> </text>
<polyline fill="none" stroke="black" points="0,-113 132,-113 "/>
<text text-anchor="start" x="8" y="-101" font-family="Ubuntu Mono" font-size="10.00">+ Building()</text>
<text text-anchor="start" x="8" y="-90" font-family="Ubuntu Mono" font-size="10.00">+ ~Building()</text>
<text text-anchor="start" x="8" y="-79" font-family="Ubuntu Mono" font-size="10.00">+ getElevators()</text>
<text text-anchor="start" x="8" y="-68" font-family="Ubuntu Mono" font-size="10.00">+ getFloors()</text>
<text text-anchor="start" x="8" y="-57" font-family="Ubuntu Mono" font-size="10.00">+ getFloor()</text>
<text text-anchor="start" x="8" y="-46" font-family="Ubuntu Mono" font-size="10.00">+ getElevator()</text>
<text text-anchor="start" x="8" y="-35" font-family="Ubuntu Mono" font-size="10.00">+ notify()</text>
<text text-anchor="start" x="8" y="-24" font-family="Ubuntu Mono" font-size="10.00">+ initializeArrivals()</text>
</a>
</g>
</g>
<!-- Node1&#45;&gt;Node2 -->
<g id="edge1" class="edge"><title>Node1&#45;&gt;Node2</title>
<path fill="none" stroke="midnightblue" d="M166.228,-196.618C153.975,-182.973 139.546,-166.904 125.512,-151.275"/>
<polygon fill="none" stroke="midnightblue" points="163.886,-199.248 173.172,-204.35 169.095,-194.571 163.886,-199.248"/>
</g>
<!-- Node3 -->
<g id="node3" class="node"><title>Node3</title>
<g id="a_node3"><a xlink:href="class_clock.html" target="_top" xlink:title="{Clock\n||+ Clock()\l+ ~Clock()\l+ currentTime()\l+ advanceTo()\l+ advanceBy()\l+ notify()\l+ str()\l}">
<polygon fill="white" stroke="black" points="150.5,-22.5 150.5,-145.5 245.5,-145.5 245.5,-22.5 150.5,-22.5"/>
<text text-anchor="middle" x="198" y="-133.5" font-family="Ubuntu Mono" font-size="10.00">Clock</text>
<polyline fill="none" stroke="black" points="150.5,-126.5 245.5,-126.5 "/>
<text text-anchor="middle" x="198" y="-114.5" font-family="Ubuntu Mono" font-size="10.00"> </text>
<polyline fill="none" stroke="black" points="150.5,-107.5 245.5,-107.5 "/>
<text text-anchor="start" x="158.5" y="-95.5" font-family="Ubuntu Mono" font-size="10.00">+ Clock()</text>
<text text-anchor="start" x="158.5" y="-84.5" font-family="Ubuntu Mono" font-size="10.00">+ ~Clock()</text>
<text text-anchor="start" x="158.5" y="-73.5" font-family="Ubuntu Mono" font-size="10.00">+ currentTime()</text>
<text text-anchor="start" x="158.5" y="-62.5" font-family="Ubuntu Mono" font-size="10.00">+ advanceTo()</text>
<text text-anchor="start" x="158.5" y="-51.5" font-family="Ubuntu Mono" font-size="10.00">+ advanceBy()</text>
<text text-anchor="start" x="158.5" y="-40.5" font-family="Ubuntu Mono" font-size="10.00">+ notify()</text>
<text text-anchor="start" x="158.5" y="-29.5" font-family="Ubuntu Mono" font-size="10.00">+ str()</text>
</a>
</g>
</g>
<!-- Node1&#45;&gt;Node3 -->
<g id="edge2" class="edge"><title>Node1&#45;&gt;Node3</title>
<path fill="none" stroke="midnightblue" d="M198,-194.11C198,-179.369 198,-162.108 198,-145.721"/>
<polygon fill="none" stroke="midnightblue" points="194.5,-194.35 198,-204.35 201.5,-194.35 194.5,-194.35"/>
</g>
<!-- Node4 -->
<g id="node4" class="node"><title>Node4</title>
<g id="a_node4"><a xlink:href="class_statistics.html" target="_top" xlink:title="{Statistics\n||+ Statistics()\l+ ~Statistics()\l+ keepRunning()\l+ getScenario()\l+ getClientsArrived()\l+ getClientsServed()\l+ getTotalWT()\l+ getTotalJT()\l+ getAvgWT()\l+ getAvgJT()\land 8 more...\l}">
<polygon fill="white" stroke="black" points="263.5,-0.5 263.5,-167.5 390.5,-167.5 390.5,-0.5 263.5,-0.5"/>
<text text-anchor="middle" x="327" y="-155.5" font-family="Ubuntu Mono" font-size="10.00">Statistics</text>
<polyline fill="none" stroke="black" points="263.5,-148.5 390.5,-148.5 "/>
<text text-anchor="middle" x="327" y="-136.5" font-family="Ubuntu Mono" font-size="10.00"> </text>
<polyline fill="none" stroke="black" points="263.5,-129.5 390.5,-129.5 "/>
<text text-anchor="start" x="271.5" y="-117.5" font-family="Ubuntu Mono" font-size="10.00">+ Statistics()</text>
<text text-anchor="start" x="271.5" y="-106.5" font-family="Ubuntu Mono" font-size="10.00">+ ~Statistics()</text>
<text text-anchor="start" x="271.5" y="-95.5" font-family="Ubuntu Mono" font-size="10.00">+ keepRunning()</text>
<text text-anchor="start" x="271.5" y="-84.5" font-family="Ubuntu Mono" font-size="10.00">+ getScenario()</text>
<text text-anchor="start" x="271.5" y="-73.5" font-family="Ubuntu Mono" font-size="10.00">+ getClientsArrived()</text>
<text text-anchor="start" x="271.5" y="-62.5" font-family="Ubuntu Mono" font-size="10.00">+ getClientsServed()</text>
<text text-anchor="start" x="271.5" y="-51.5" font-family="Ubuntu Mono" font-size="10.00">+ getTotalWT()</text>
<text text-anchor="start" x="271.5" y="-40.5" font-family="Ubuntu Mono" font-size="10.00">+ getTotalJT()</text>
<text text-anchor="start" x="271.5" y="-29.5" font-family="Ubuntu Mono" font-size="10.00">+ getAvgWT()</text>
<text text-anchor="start" x="271.5" y="-18.5" font-family="Ubuntu Mono" font-size="10.00">+ getAvgJT()</text>
<text text-anchor="start" x="271.5" y="-7.5" font-family="Ubuntu Mono" font-size="10.00">and 8 more...</text>
</a>
</g>
</g>
<!-- Node1&#45;&gt;Node4 -->
<g id="edge3" class="edge"><title>Node1&#45;&gt;Node4</title>
<path fill="none" stroke="midnightblue" d="M229.563,-196.727C237.862,-187.407 246.789,-177.342 255,-168 257.771,-164.848 260.597,-161.625 263.449,-158.366"/>
<polygon fill="none" stroke="midnightblue" points="226.811,-194.555 222.769,-204.348 232.036,-199.213 226.811,-194.555"/>
</g>
</g>
</svg>
