<?xml version="1.0" encoding="UTF-8" standalone="no"?>
<!DOCTYPE svg PUBLIC "-//W3C//DTD SVG 1.1//EN"
 "http://www.w3.org/Graphics/SVG/1.1/DTD/svg11.dtd">
<!-- Generated by graphviz version 2.38.0 (20140413.2041)
 -->
<!-- Title: Simulator Pages: 1 -->
<svg width="145pt" height="270pt"
 viewBox="0.00 0.00 145.00 270.00" xmlns="http://www.w3.org/2000/svg" xmlns:xlink="http://www.w3.org/1999/xlink">
<g id="graph0" class="graph" transform="scale(1 1) rotate(0) translate(4 266)">
<title>Simulator</title>
<polygon fill="white" stroke="none" points="-4,4 -4,-266 141,-266 141,4 -4,4"/>
<!-- Node1 -->
<g id="node1" class="node"><title>Node1</title>
<polygon fill="#bfbfbf" stroke="black" points="2.5,-0.5 2.5,-156.5 134.5,-156.5 134.5,-0.5 2.5,-0.5"/>
<text text-anchor="middle" x="68.5" y="-144.5" font-family="Ubuntu Mono" font-size="10.00">Simulator</text>
<polyline fill="none" stroke="black" points="2.5,-137.5 134.5,-137.5 "/>
<text text-anchor="middle" x="68.5" y="-125.5" font-family="Ubuntu Mono" font-size="10.00"> </text>
<polyline fill="none" stroke="black" points="2.5,-118.5 134.5,-118.5 "/>
<text text-anchor="start" x="10.5" y="-106.5" font-family="Ubuntu Mono" font-size="10.00">+ Simulator()</text>
<text text-anchor="start" x="10.5" y="-95.5" font-family="Ubuntu Mono" font-size="10.00">+ ~Simulator()</text>
<text text-anchor="start" x="10.5" y="-84.5" font-family="Ubuntu Mono" font-size="10.00">+ createBuilding()</text>
<text text-anchor="start" x="10.5" y="-73.5" font-family="Ubuntu Mono" font-size="10.00">+ getScenario()</text>
<text text-anchor="start" x="10.5" y="-62.5" font-family="Ubuntu Mono" font-size="10.00">+ getStatistics()</text>
<text text-anchor="start" x="10.5" y="-51.5" font-family="Ubuntu Mono" font-size="10.00">+ getClock()</text>
<text text-anchor="start" x="10.5" y="-40.5" font-family="Ubuntu Mono" font-size="10.00">+ getEventQueue()</text>
<text text-anchor="start" x="10.5" y="-29.5" font-family="Ubuntu Mono" font-size="10.00">+ getEventDispatcher()</text>
<text text-anchor="start" x="10.5" y="-18.5" font-family="Ubuntu Mono" font-size="10.00">+ getRandomEngine()</text>
<text text-anchor="start" x="10.5" y="-7.5" font-family="Ubuntu Mono" font-size="10.00">+ run()</text>
</g>
<!-- Node2 -->
<g id="node2" class="node"><title>Node2</title>
<polygon fill="white" stroke="#bfbfbf" points="0,-193.5 0,-261.5 137,-261.5 137,-193.5 0,-193.5"/>
<text text-anchor="start" x="8" y="-249.5" font-family="Ubuntu Mono" font-size="10.00">std::enable_shared</text>
<text text-anchor="middle" x="68.5" y="-238.5" font-family="Ubuntu Mono" font-size="10.00">_from_this&lt; Simulator &gt;</text>
<polyline fill="none" stroke="#bfbfbf" points="0,-231.5 137,-231.5 "/>
<text text-anchor="middle" x="68.5" y="-219.5" font-family="Ubuntu Mono" font-size="10.00"> </text>
<polyline fill="none" stroke="#bfbfbf" points="0,-212.5 137,-212.5 "/>
<text text-anchor="middle" x="68.5" y="-200.5" font-family="Ubuntu Mono" font-size="10.00"> </text>
</g>
<!-- Node2&#45;&gt;Node1 -->
<g id="edge1" class="edge"><title>Node2&#45;&gt;Node1</title>
<path fill="none" stroke="midnightblue" d="M68.5,-183C68.5,-174.7 68.5,-165.784 68.5,-156.792"/>
<polygon fill="none" stroke="midnightblue" points="65.0001,-183.143 68.5,-193.143 72.0001,-183.143 65.0001,-183.143"/>
</g>
</g>
</svg>
