<?xml version="1.0" encoding="UTF-8" standalone="no"?>
<!DOCTYPE svg PUBLIC "-//W3C//DTD SVG 1.1//EN"
 "http://www.w3.org/Graphics/SVG/1.1/DTD/svg11.dtd">
<!-- Generated by graphviz version 2.38.0 (20140413.2041)
 -->
<!-- Title: Simulator::run Pages: 1 -->
<svg width="421pt" height="230pt"
 viewBox="0.00 0.00 421.00 230.00" xmlns="http://www.w3.org/2000/svg" xmlns:xlink="http://www.w3.org/1999/xlink">
<g id="graph0" class="graph" transform="scale(1 1) rotate(0) translate(4 226)">
<title>Simulator::run</title>
<polygon fill="white" stroke="none" points="-4,4 -4,-226 417,-226 417,4 -4,4"/>
<!-- Node1 -->
<g id="node1" class="node"><title>Node1</title>
<polygon fill="#bfbfbf" stroke="black" points="0,-145.5 0,-164.5 77,-164.5 77,-145.5 0,-145.5"/>
<text text-anchor="middle" x="38.5" y="-152.5" font-family="Helvetica,sans-Serif" font-size="10.00">Simulator::run</text>
</g>
<!-- Node2 -->
<g id="node2" class="node"><title>Node2</title>
<g id="a_node2"><a xlink:href="namespace_helpers.html#a6623afaa6548aa85a5a1bfd019e1e55f" target="_top" xlink:title="Helpers::schedulerName">
<polygon fill="white" stroke="black" points="281,-202.5 281,-221.5 406,-221.5 406,-202.5 281,-202.5"/>
<text text-anchor="middle" x="343.5" y="-209.5" font-family="Helvetica,sans-Serif" font-size="10.00">Helpers::schedulerName</text>
</a>
</g>
</g>
<!-- Node1&#45;&gt;Node2 -->
<g id="edge1" class="edge"><title>Node1&#45;&gt;Node2</title>
<path fill="none" stroke="midnightblue" d="M66.449,-164.544C80.233,-169.14 97.3603,-174.418 113,-178 165.197,-189.956 225.074,-198.664 270.578,-204.272"/>
<polygon fill="midnightblue" stroke="midnightblue" points="270.298,-207.764 280.646,-205.492 271.139,-200.815 270.298,-207.764"/>
</g>
<!-- Node3 -->
<g id="node3" class="node"><title>Node3</title>
<g id="a_node3"><a xlink:href="namespace_helpers.html#a51b4991513657bea83b1ad43c778aec7" target="_top" xlink:title="Helpers::costFunctionName">
<polygon fill="white" stroke="black" points="274,-164.5 274,-183.5 413,-183.5 413,-164.5 274,-164.5"/>
<text text-anchor="middle" x="343.5" y="-171.5" font-family="Helvetica,sans-Serif" font-size="10.00">Helpers::costFunctionName</text>
</a>
</g>
</g>
<!-- Node1&#45;&gt;Node3 -->
<g id="edge2" class="edge"><title>Node1&#45;&gt;Node3</title>
<path fill="none" stroke="midnightblue" d="M77.2625,-157.368C123.677,-160.278 203.656,-165.294 263.683,-169.058"/>
<polygon fill="midnightblue" stroke="midnightblue" points="263.691,-172.565 273.89,-169.698 264.129,-165.579 263.691,-172.565"/>
</g>
<!-- Node4 -->
<g id="node4" class="node"><title>Node4</title>
<g id="a_node4"><a xlink:href="class_client.html#ab2013c01e67c3edb773c359c5df22acb" target="_top" xlink:title="Client::resetIds">
<polygon fill="white" stroke="black" points="134,-88.5 134,-107.5 217,-107.5 217,-88.5 134,-88.5"/>
<text text-anchor="middle" x="175.5" y="-95.5" font-family="Helvetica,sans-Serif" font-size="10.00">Client::resetIds</text>
</a>
</g>
</g>
<!-- Node1&#45;&gt;Node4 -->
<g id="edge3" class="edge"><title>Node1&#45;&gt;Node4</title>
<path fill="none" stroke="midnightblue" d="M56.0297,-145.375C70.6691,-137.115 92.7916,-125.269 113,-117 118.433,-114.777 124.226,-112.666 130.002,-110.715"/>
<polygon fill="midnightblue" stroke="midnightblue" points="131.208,-114.004 139.641,-107.591 129.049,-107.345 131.208,-114.004"/>
</g>
<!-- Node5 -->
<g id="node5" class="node"><title>Node5</title>
<g id="a_node5"><a xlink:href="class_simulator.html#a7a8ed7267e6892f0d16c9ffe8b16a353" target="_top" xlink:title="Simulator::createBuilding">
<polygon fill="white" stroke="black" points="113,-126.5 113,-145.5 238,-145.5 238,-126.5 113,-126.5"/>
<text text-anchor="middle" x="175.5" y="-133.5" font-family="Helvetica,sans-Serif" font-size="10.00">Simulator::createBuilding</text>
</a>
</g>
</g>
<!-- Node1&#45;&gt;Node5 -->
<g id="edge4" class="edge"><title>Node1&#45;&gt;Node5</title>
<path fill="none" stroke="midnightblue" d="M77.105,-149.707C85.1543,-148.575 93.9144,-147.342 102.772,-146.095"/>
<polygon fill="midnightblue" stroke="midnightblue" points="103.366,-149.546 112.781,-144.686 102.391,-142.614 103.366,-149.546"/>
</g>
<!-- Node5&#45;&gt;Node2 -->
<g id="edge9" class="edge"><title>Node5&#45;&gt;Node2</title>
<path fill="none" stroke="midnightblue" d="M190.429,-145.711C208.825,-158.16 242.573,-179.72 274,-193 279.535,-195.339 285.442,-197.475 291.38,-199.402"/>
<polygon fill="midnightblue" stroke="midnightblue" points="290.755,-202.87 301.341,-202.444 292.8,-196.176 290.755,-202.87"/>
</g>
<!-- Node5&#45;&gt;Node3 -->
<g id="edge10" class="edge"><title>Node5&#45;&gt;Node3</title>
<path fill="none" stroke="midnightblue" d="M218.389,-145.589C240.393,-150.626 267.555,-156.844 290.852,-162.177"/>
<polygon fill="midnightblue" stroke="midnightblue" points="290.384,-165.66 300.912,-164.48 291.946,-158.837 290.384,-165.66"/>
</g>
<!-- Node6 -->
<g id="node6" class="node"><title>Node6</title>
<g id="a_node6"><a xlink:href="class_floor.html#a294df3a0179a79c3a9a2765418368d03" target="_top" xlink:title="Floor::create">
<polygon fill="white" stroke="black" points="308,-38.5 308,-57.5 379,-57.5 379,-38.5 308,-38.5"/>
<text text-anchor="middle" x="343.5" y="-45.5" font-family="Helvetica,sans-Serif" font-size="10.00">Floor::create</text>
</a>
</g>
</g>
<!-- Node5&#45;&gt;Node6 -->
<g id="edge5" class="edge"><title>Node5&#45;&gt;Node6</title>
<path fill="none" stroke="midnightblue" d="M220.195,-126.399C226.494,-123.932 232.646,-120.848 238,-117 260.235,-101.018 251.535,-82.657 274,-67 281.132,-62.0296 289.525,-58.3559 297.945,-55.6417"/>
<polygon fill="midnightblue" stroke="midnightblue" points="299.091,-58.9552 307.768,-52.8761 297.194,-52.2172 299.091,-58.9552"/>
</g>
<!-- Node7 -->
<g id="node7" class="node"><title>Node7</title>
<g id="a_node7"><a xlink:href="class_elevator.html#a6a5d8cb3159ee98e343042df0ff7f2ba" target="_top" xlink:title="Elevator::create">
<polygon fill="white" stroke="black" points="300.5,-0.5 300.5,-19.5 386.5,-19.5 386.5,-0.5 300.5,-0.5"/>
<text text-anchor="middle" x="343.5" y="-7.5" font-family="Helvetica,sans-Serif" font-size="10.00">Elevator::create</text>
</a>
</g>
</g>
<!-- Node5&#45;&gt;Node7 -->
<g id="edge6" class="edge"><title>Node5&#45;&gt;Node7</title>
<path fill="none" stroke="midnightblue" d="M223.561,-126.363C228.825,-123.916 233.795,-120.847 238,-117 269.175,-88.4734 242.413,-57.0705 274,-29 278.843,-24.696 284.581,-21.3583 290.642,-18.7714"/>
<polygon fill="midnightblue" stroke="midnightblue" points="292.118,-21.9607 300.352,-15.2936 289.758,-15.3706 292.118,-21.9607"/>
</g>
<!-- Node8 -->
<g id="node8" class="node"><title>Node8</title>
<g id="a_node8"><a xlink:href="class_scheduler_creator.html#a091006529e65ae50ce7bb8e97b6494dc" target="_top" xlink:title="SchedulerCreator::create">
<polygon fill="white" stroke="black" points="281,-126.5 281,-145.5 406,-145.5 406,-126.5 281,-126.5"/>
<text text-anchor="middle" x="343.5" y="-133.5" font-family="Helvetica,sans-Serif" font-size="10.00">SchedulerCreator::create</text>
</a>
</g>
</g>
<!-- Node5&#45;&gt;Node8 -->
<g id="edge7" class="edge"><title>Node5&#45;&gt;Node8</title>
<path fill="none" stroke="midnightblue" d="M238.312,-136C248.86,-136 259.898,-136 270.679,-136"/>
<polygon fill="midnightblue" stroke="midnightblue" points="270.913,-139.5 280.913,-136 270.913,-132.5 270.913,-139.5"/>
</g>
<!-- Node9 -->
<g id="node9" class="node"><title>Node9</title>
<g id="a_node9"><a xlink:href="class_cost_function_creator.html#a2f73ed3b5e34c2cfa891849ab62adda5" target="_top" xlink:title="CostFunctionCreator\l::create">
<polygon fill="white" stroke="black" points="290,-77 290,-107 397,-107 397,-77 290,-77"/>
<text text-anchor="start" x="298" y="-95" font-family="Helvetica,sans-Serif" font-size="10.00">CostFunctionCreator</text>
<text text-anchor="middle" x="343.5" y="-84" font-family="Helvetica,sans-Serif" font-size="10.00">::create</text>
</a>
</g>
</g>
<!-- Node5&#45;&gt;Node9 -->
<g id="edge8" class="edge"><title>Node5&#45;&gt;Node9</title>
<path fill="none" stroke="midnightblue" d="M212.52,-126.453C232.206,-121.235 257.149,-114.623 279.91,-108.59"/>
<polygon fill="midnightblue" stroke="midnightblue" points="281.077,-111.902 289.847,-105.956 279.284,-105.135 281.077,-111.902"/>
</g>
</g>
</svg>
