<?xml version="1.0" encoding="UTF-8" standalone="no"?>
<!DOCTYPE svg PUBLIC "-//W3C//DTD SVG 1.1//EN"
 "http://www.w3.org/Graphics/SVG/1.1/DTD/svg11.dtd">
<!-- Generated by graphviz version 2.38.0 (20140413.2041)
 -->
<!-- Title: BetterNearestNeighbourCostFunction Pages: 1 -->
<svg width="161pt" height="171pt"
 viewBox="0.00 0.00 161.00 171.00" xmlns="http://www.w3.org/2000/svg" xmlns:xlink="http://www.w3.org/1999/xlink">
<g id="graph0" class="graph" transform="scale(1 1) rotate(0) translate(4 167)">
<title>BetterNearestNeighbourCostFunction</title>
<polygon fill="white" stroke="none" points="-4,4 -4,-167 157,-167 157,4 -4,4"/>
<!-- Node1 -->
<g id="node1" class="node"><title>Node1</title>
<polygon fill="#bfbfbf" stroke="black" points="0,-0.5 0,-68.5 153,-68.5 153,-0.5 0,-0.5"/>
<text text-anchor="start" x="8" y="-56.5" font-family="Ubuntu Mono" font-size="10.00">BetterNearestNeighbourCost</text>
<text text-anchor="middle" x="76.5" y="-45.5" font-family="Ubuntu Mono" font-size="10.00">Function</text>
<polyline fill="none" stroke="black" points="0,-38.5 153,-38.5 "/>
<text text-anchor="middle" x="76.5" y="-26.5" font-family="Ubuntu Mono" font-size="10.00"> </text>
<polyline fill="none" stroke="black" points="0,-19.5 153,-19.5 "/>
<text text-anchor="start" x="8" y="-7.5" font-family="Ubuntu Mono" font-size="10.00">+ calculate()</text>
</g>
<!-- Node2 -->
<g id="node2" class="node"><title>Node2</title>
<g id="a_node2"><a xlink:href="class_cost_function.html" target="_top" xlink:title="{CostFunction\n||+ calculate()\l}">
<polygon fill="white" stroke="black" points="34,-105.5 34,-162.5 119,-162.5 119,-105.5 34,-105.5"/>
<text text-anchor="middle" x="76.5" y="-150.5" font-family="Ubuntu Mono" font-size="10.00">CostFunction</text>
<polyline fill="none" stroke="black" points="34,-143.5 119,-143.5 "/>
<text text-anchor="middle" x="76.5" y="-131.5" font-family="Ubuntu Mono" font-size="10.00"> </text>
<polyline fill="none" stroke="black" points="34,-124.5 119,-124.5 "/>
<text text-anchor="start" x="42" y="-112.5" font-family="Ubuntu Mono" font-size="10.00">+ calculate()</text>
</a>
</g>
</g>
<!-- Node2&#45;&gt;Node1 -->
<g id="edge1" class="edge"><title>Node2&#45;&gt;Node1</title>
<path fill="none" stroke="midnightblue" d="M76.5,-95.0631C76.5,-86.3933 76.5,-77.2431 76.5,-68.7855"/>
<polygon fill="none" stroke="midnightblue" points="73.0001,-95.3212 76.5,-105.321 80.0001,-95.3212 73.0001,-95.3212"/>
</g>
</g>
</svg>
