<?xml version="1.0" encoding="UTF-8" standalone="no"?>
<!DOCTYPE svg PUBLIC "-//W3C//DTD SVG 1.1//EN"
 "http://www.w3.org/Graphics/SVG/1.1/DTD/svg11.dtd">
<!-- Generated by graphviz version 2.38.0 (20140413.2041)
 -->
<!-- Title: Elevator Pages: 1 -->
<svg width="208pt" height="336pt"
 viewBox="0.00 0.00 208.00 336.00" xmlns="http://www.w3.org/2000/svg" xmlns:xlink="http://www.w3.org/1999/xlink">
<g id="graph0" class="graph" transform="scale(1 1) rotate(0) translate(4 332)">
<title>Elevator</title>
<polygon fill="white" stroke="none" points="-4,4 -4,-332 204,-332 204,4 -4,4"/>
<!-- Node1 -->
<g id="node1" class="node"><title>Node1</title>
<polygon fill="#bfbfbf" stroke="black" points="0,-0.5 0,-222.5 200,-222.5 200,-0.5 0,-0.5"/>
<text text-anchor="middle" x="100" y="-210.5" font-family="Ubuntu Mono" font-size="10.00">Elevator</text>
<polyline fill="none" stroke="black" points="0,-203.5 200,-203.5 "/>
<text text-anchor="middle" x="100" y="-191.5" font-family="Ubuntu Mono" font-size="10.00"> </text>
<polyline fill="none" stroke="black" points="0,-184.5 200,-184.5 "/>
<text text-anchor="start" x="8" y="-172.5" font-family="Ubuntu Mono" font-size="10.00">+ Elevator()</text>
<text text-anchor="start" x="8" y="-161.5" font-family="Ubuntu Mono" font-size="10.00">+ ~Elevator()</text>
<text text-anchor="start" x="8" y="-150.5" font-family="Ubuntu Mono" font-size="10.00">+ getNumber()</text>
<text text-anchor="start" x="8" y="-139.5" font-family="Ubuntu Mono" font-size="10.00">+ getCapacity()</text>
<text text-anchor="start" x="8" y="-128.5" font-family="Ubuntu Mono" font-size="10.00">+ getLocation()</text>
<text text-anchor="start" x="8" y="-117.5" font-family="Ubuntu Mono" font-size="10.00">+ getOccupation()</text>
<text text-anchor="start" x="8" y="-106.5" font-family="Ubuntu Mono" font-size="10.00">+ getDestination()</text>
<text text-anchor="start" x="8" y="-95.5" font-family="Ubuntu Mono" font-size="10.00">+ getStatus()</text>
<text text-anchor="start" x="8" y="-84.5" font-family="Ubuntu Mono" font-size="10.00">+ getDirection()</text>
<text text-anchor="start" x="8" y="-73.5" font-family="Ubuntu Mono" font-size="10.00">+ getPassengers()</text>
<text text-anchor="start" x="8" y="-62.5" font-family="Ubuntu Mono" font-size="10.00">+ setDestination()</text>
<text text-anchor="start" x="8" y="-51.5" font-family="Ubuntu Mono" font-size="10.00">+ canEnter()</text>
<text text-anchor="start" x="8" y="-40.5" font-family="Ubuntu Mono" font-size="10.00">+ addPassenger()</text>
<text text-anchor="start" x="8" y="-29.5" font-family="Ubuntu Mono" font-size="10.00">+ move()</text>
<text text-anchor="start" x="8" y="-18.5" font-family="Ubuntu Mono" font-size="10.00">+ dropPassengersToCurrentLocation()</text>
<text text-anchor="start" x="8" y="-7.5" font-family="Ubuntu Mono" font-size="10.00">+ create()</text>
</g>
<!-- Node2 -->
<g id="node2" class="node"><title>Node2</title>
<polygon fill="white" stroke="#bfbfbf" points="34,-259.5 34,-327.5 166,-327.5 166,-259.5 34,-259.5"/>
<text text-anchor="start" x="42" y="-315.5" font-family="Ubuntu Mono" font-size="10.00">std::enable_shared</text>
<text text-anchor="middle" x="100" y="-304.5" font-family="Ubuntu Mono" font-size="10.00">_from_this&lt; Elevator &gt;</text>
<polyline fill="none" stroke="#bfbfbf" points="34,-297.5 166,-297.5 "/>
<text text-anchor="middle" x="100" y="-285.5" font-family="Ubuntu Mono" font-size="10.00"> </text>
<polyline fill="none" stroke="#bfbfbf" points="34,-278.5 166,-278.5 "/>
<text text-anchor="middle" x="100" y="-266.5" font-family="Ubuntu Mono" font-size="10.00"> </text>
</g>
<!-- Node2&#45;&gt;Node1 -->
<g id="edge1" class="edge"><title>Node2&#45;&gt;Node1</title>
<path fill="none" stroke="midnightblue" d="M100,-249.349C100,-241.006 100,-231.919 100,-222.525"/>
<polygon fill="none" stroke="midnightblue" points="96.5001,-249.485 100,-259.485 103.5,-249.485 96.5001,-249.485"/>
</g>
</g>
</svg>
