<?xml version="1.0" encoding="UTF-8" standalone="no"?>
<!DOCTYPE svg PUBLIC "-//W3C//DTD SVG 1.1//EN"
 "http://www.w3.org/Graphics/SVG/1.1/DTD/svg11.dtd">
<!-- Generated by graphviz version 2.38.0 (20140413.2041)
 -->
<!-- Title: Event::str Pages: 1 -->
<svg width="231pt" height="104pt"
 viewBox="0.00 0.00 231.00 104.00" xmlns="http://www.w3.org/2000/svg" xmlns:xlink="http://www.w3.org/1999/xlink">
<g id="graph0" class="graph" transform="scale(1 1) rotate(0) translate(4 100)">
<title>Event::str</title>
<polygon fill="white" stroke="none" points="-4,4 -4,-100 227,-100 227,4 -4,4"/>
<!-- Node1 -->
<g id="node1" class="node"><title>Node1</title>
<polygon fill="#bfbfbf" stroke="black" points="0,-38.5 0,-57.5 59,-57.5 59,-38.5 0,-38.5"/>
<text text-anchor="middle" x="29.5" y="-45.5" font-family="Helvetica,sans-Serif" font-size="10.00">Event::str</text>
</g>
<!-- Node2 -->
<g id="node2" class="node"><title>Node2</title>
<g id="a_node2"><a xlink:href="class_event.html#a973b98b35d66d83449ee370f17b8f987" target="_top" xlink:title="Event::getId">
<polygon fill="white" stroke="black" points="124,-76.5 124,-95.5 194,-95.5 194,-76.5 124,-76.5"/>
<text text-anchor="middle" x="159" y="-83.5" font-family="Helvetica,sans-Serif" font-size="10.00">Event::getId</text>
</a>
</g>
</g>
<!-- Node1&#45;&gt;Node2 -->
<g id="edge1" class="edge"><title>Node1&#45;&gt;Node2</title>
<path fill="none" stroke="midnightblue" d="M59.1135,-56.5279C75.917,-61.536 97.4569,-67.9558 116.141,-73.5245"/>
<polygon fill="midnightblue" stroke="midnightblue" points="115.311,-76.9292 125.895,-76.4313 117.311,-70.2208 115.311,-76.9292"/>
</g>
<!-- Node3 -->
<g id="node3" class="node"><title>Node3</title>
<g id="a_node3"><a xlink:href="namespace_helpers.html#a1c283431309b064cf935b645e1cb2dee" target="_top" xlink:title="Helpers::eventTypeName">
<polygon fill="white" stroke="black" points="95,-38.5 95,-57.5 223,-57.5 223,-38.5 95,-38.5"/>
<text text-anchor="middle" x="159" y="-45.5" font-family="Helvetica,sans-Serif" font-size="10.00">Helpers::eventTypeName</text>
</a>
</g>
</g>
<!-- Node1&#45;&gt;Node3 -->
<g id="edge2" class="edge"><title>Node1&#45;&gt;Node3</title>
<path fill="none" stroke="midnightblue" d="M59.1135,-48C66.8484,-48 75.587,-48 84.5887,-48"/>
<polygon fill="midnightblue" stroke="midnightblue" points="84.8242,-51.5001 94.8242,-48 84.8241,-44.5001 84.8242,-51.5001"/>
</g>
<!-- Node4 -->
<g id="node4" class="node"><title>Node4</title>
<g id="a_node4"><a xlink:href="class_event.html#ab0c2e30730d5859851f3126258c0126e" target="_top" xlink:title="Event::getType">
<polygon fill="white" stroke="black" points="117.5,-0.5 117.5,-19.5 200.5,-19.5 200.5,-0.5 117.5,-0.5"/>
<text text-anchor="middle" x="159" y="-7.5" font-family="Helvetica,sans-Serif" font-size="10.00">Event::getType</text>
</a>
</g>
</g>
<!-- Node1&#45;&gt;Node4 -->
<g id="edge3" class="edge"><title>Node1&#45;&gt;Node4</title>
<path fill="none" stroke="midnightblue" d="M59.1135,-39.4721C75.917,-34.464 97.4569,-28.0442 116.141,-22.4755"/>
<polygon fill="midnightblue" stroke="midnightblue" points="117.311,-25.7792 125.895,-19.5687 115.311,-19.0708 117.311,-25.7792"/>
</g>
</g>
</svg>
