<?xml version="1.0" encoding="UTF-8" standalone="no"?>
<!DOCTYPE svg PUBLIC "-//W3C//DTD SVG 1.1//EN"
 "http://www.w3.org/Graphics/SVG/1.1/DTD/svg11.dtd">
<!-- Generated by graphviz version 2.38.0 (20140413.2041)
 -->
<!-- Title: CostFunction Pages: 1 -->
<svg width="758pt" height="171pt"
 viewBox="0.00 0.00 757.50 171.00" xmlns="http://www.w3.org/2000/svg" xmlns:xlink="http://www.w3.org/1999/xlink">
<g id="graph0" class="graph" transform="scale(1 1) rotate(0) translate(4 167)">
<title>CostFunction</title>
<polygon fill="white" stroke="none" points="-4,4 -4,-167 753.5,-167 753.5,4 -4,4"/>
<!-- Node1 -->
<g id="node1" class="node"><title>Node1</title>
<polygon fill="#bfbfbf" stroke="black" points="335,-105.5 335,-162.5 420,-162.5 420,-105.5 335,-105.5"/>
<text text-anchor="middle" x="377.5" y="-150.5" font-family="Ubuntu Mono" font-size="10.00">CostFunction</text>
<polyline fill="none" stroke="black" points="335,-143.5 420,-143.5 "/>
<text text-anchor="middle" x="377.5" y="-131.5" font-family="Ubuntu Mono" font-size="10.00"> </text>
<polyline fill="none" stroke="black" points="335,-124.5 420,-124.5 "/>
<text text-anchor="start" x="343" y="-112.5" font-family="Ubuntu Mono" font-size="10.00">+ calculate()</text>
</g>
<!-- Node2 -->
<g id="node2" class="node"><title>Node2</title>
<g id="a_node2"><a xlink:href="class_better_nearest_neighbour_cost_function.html" target="_top" xlink:title="{BetterNearestNeighbourCost\lFunction\n||+ calculate()\l}">
<polygon fill="white" stroke="black" points="0,-0.5 0,-68.5 153,-68.5 153,-0.5 0,-0.5"/>
<text text-anchor="start" x="8" y="-56.5" font-family="Ubuntu Mono" font-size="10.00">BetterNearestNeighbourCost</text>
<text text-anchor="middle" x="76.5" y="-45.5" font-family="Ubuntu Mono" font-size="10.00">Function</text>
<polyline fill="none" stroke="black" points="0,-38.5 153,-38.5 "/>
<text text-anchor="middle" x="76.5" y="-26.5" font-family="Ubuntu Mono" font-size="10.00"> </text>
<polyline fill="none" stroke="black" points="0,-19.5 153,-19.5 "/>
<text text-anchor="start" x="8" y="-7.5" font-family="Ubuntu Mono" font-size="10.00">+ calculate()</text>
</a>
</g>
</g>
<!-- Node1&#45;&gt;Node2 -->
<g id="edge1" class="edge"><title>Node1&#45;&gt;Node2</title>
<path fill="none" stroke="midnightblue" d="M324.898,-118.646C281.133,-106.392 217.353,-87.8124 162.5,-69 159.469,-67.9604 156.386,-66.8787 153.279,-65.768"/>
<polygon fill="none" stroke="midnightblue" points="324.175,-122.078 334.747,-121.391 326.054,-115.335 324.175,-122.078"/>
</g>
<!-- Node3 -->
<g id="node3" class="node"><title>Node3</title>
<g id="a_node3"><a xlink:href="class_dummy_cost_function.html" target="_top" xlink:title="{DummyCostFunction\n||+ calculate()\l}">
<polygon fill="white" stroke="black" points="171.5,-6 171.5,-63 277.5,-63 277.5,-6 171.5,-6"/>
<text text-anchor="middle" x="224.5" y="-51" font-family="Ubuntu Mono" font-size="10.00">DummyCostFunction</text>
<polyline fill="none" stroke="black" points="171.5,-44 277.5,-44 "/>
<text text-anchor="middle" x="224.5" y="-32" font-family="Ubuntu Mono" font-size="10.00"> </text>
<polyline fill="none" stroke="black" points="171.5,-25 277.5,-25 "/>
<text text-anchor="start" x="179.5" y="-13" font-family="Ubuntu Mono" font-size="10.00">+ calculate()</text>
</a>
</g>
</g>
<!-- Node1&#45;&gt;Node3 -->
<g id="edge2" class="edge"><title>Node1&#45;&gt;Node3</title>
<path fill="none" stroke="midnightblue" d="M326.326,-100.389C307.303,-88.2669 285.926,-74.6437 267.687,-63.0212"/>
<polygon fill="none" stroke="midnightblue" points="324.567,-103.418 334.881,-105.841 328.329,-97.515 324.567,-103.418"/>
</g>
<!-- Node4 -->
<g id="node4" class="node"><title>Node4</title>
<g id="a_node4"><a xlink:href="class_nearest_neighbour_cost_function.html" target="_top" xlink:title="{NearestNeighbourCostFunction\n||+ calculate()\l}">
<polygon fill="white" stroke="black" points="295.5,-6 295.5,-63 459.5,-63 459.5,-6 295.5,-6"/>
<text text-anchor="middle" x="377.5" y="-51" font-family="Ubuntu Mono" font-size="10.00">NearestNeighbourCostFunction</text>
<polyline fill="none" stroke="black" points="295.5,-44 459.5,-44 "/>
<text text-anchor="middle" x="377.5" y="-32" font-family="Ubuntu Mono" font-size="10.00"> </text>
<polyline fill="none" stroke="black" points="295.5,-25 459.5,-25 "/>
<text text-anchor="start" x="303.5" y="-13" font-family="Ubuntu Mono" font-size="10.00">+ calculate()</text>
</a>
</g>
</g>
<!-- Node1&#45;&gt;Node4 -->
<g id="edge3" class="edge"><title>Node1&#45;&gt;Node4</title>
<path fill="none" stroke="midnightblue" d="M377.5,-95.0433C377.5,-84.4474 377.5,-73.1352 377.5,-63.248"/>
<polygon fill="none" stroke="midnightblue" points="374,-95.3212 377.5,-105.321 381,-95.3212 374,-95.3212"/>
</g>
<!-- Node5 -->
<g id="node5" class="node"><title>Node5</title>
<g id="a_node5"><a xlink:href="class_random_cost_function.html" target="_top" xlink:title="{RandomCostFunction\n||+ RandomCostFunction()\l+ calculate()\l}">
<polygon fill="white" stroke="black" points="477.5,-0.5 477.5,-68.5 609.5,-68.5 609.5,-0.5 477.5,-0.5"/>
<text text-anchor="middle" x="543.5" y="-56.5" font-family="Ubuntu Mono" font-size="10.00">RandomCostFunction</text>
<polyline fill="none" stroke="black" points="477.5,-49.5 609.5,-49.5 "/>
<text text-anchor="middle" x="543.5" y="-37.5" font-family="Ubuntu Mono" font-size="10.00"> </text>
<polyline fill="none" stroke="black" points="477.5,-30.5 609.5,-30.5 "/>
<text text-anchor="start" x="485.5" y="-18.5" font-family="Ubuntu Mono" font-size="10.00">+ RandomCostFunction()</text>
<text text-anchor="start" x="485.5" y="-7.5" font-family="Ubuntu Mono" font-size="10.00">+ calculate()</text>
</a>
</g>
</g>
<!-- Node1&#45;&gt;Node5 -->
<g id="edge4" class="edge"><title>Node1&#45;&gt;Node5</title>
<path fill="none" stroke="midnightblue" d="M429.074,-102.708C447.488,-91.8928 468.322,-79.6558 487.119,-68.6153"/>
<polygon fill="none" stroke="midnightblue" points="427.099,-99.8088 420.249,-107.891 430.644,-105.845 427.099,-99.8088"/>
</g>
<!-- Node6 -->
<g id="node6" class="node"><title>Node6</title>
<g id="a_node6"><a xlink:href="class_weighted_cost_function.html" target="_top" xlink:title="{WeightedCostFunction\n||+ calculate()\l}">
<polygon fill="white" stroke="black" points="627.5,-6 627.5,-63 749.5,-63 749.5,-6 627.5,-6"/>
<text text-anchor="middle" x="688.5" y="-51" font-family="Ubuntu Mono" font-size="10.00">WeightedCostFunction</text>
<polyline fill="none" stroke="black" points="627.5,-44 749.5,-44 "/>
<text text-anchor="middle" x="688.5" y="-32" font-family="Ubuntu Mono" font-size="10.00"> </text>
<polyline fill="none" stroke="black" points="627.5,-25 749.5,-25 "/>
<text text-anchor="start" x="635.5" y="-13" font-family="Ubuntu Mono" font-size="10.00">+ calculate()</text>
</a>
</g>
</g>
<!-- Node1&#45;&gt;Node6 -->
<g id="edge5" class="edge"><title>Node1&#45;&gt;Node6</title>
<path fill="none" stroke="midnightblue" d="M429.859,-122.069C479.271,-111.06 555.034,-92.3802 618.5,-69 623.304,-67.2302 628.224,-65.2477 633.12,-63.1547"/>
<polygon fill="none" stroke="midnightblue" points="429.047,-118.664 420.034,-124.234 430.553,-125.5 429.047,-118.664"/>
</g>
</g>
</svg>
