<?xml version="1.0" encoding="UTF-8" standalone="no"?>
<!DOCTYPE svg PUBLIC "-//W3C//DTD SVG 1.1//EN"
 "http://www.w3.org/Graphics/SVG/1.1/DTD/svg11.dtd">
<!-- Generated by graphviz version 2.38.0 (20140413.2041)
 -->
<!-- Title: FinishSimulation Pages: 1 -->
<svg width="112pt" height="248pt"
 viewBox="0.00 0.00 112.00 248.00" xmlns="http://www.w3.org/2000/svg" xmlns:xlink="http://www.w3.org/1999/xlink">
<g id="graph0" class="graph" transform="scale(1 1) rotate(0) translate(4 244)">
<title>FinishSimulation</title>
<polygon fill="white" stroke="none" points="-4,4 -4,-244 108,-244 108,4 -4,4"/>
<!-- Node1 -->
<g id="node1" class="node"><title>Node1</title>
<polygon fill="#bfbfbf" stroke="black" points="0,-0.5 0,-68.5 104,-68.5 104,-0.5 0,-0.5"/>
<text text-anchor="middle" x="52" y="-56.5" font-family="Helvetica,sans-Serif" font-size="10.00">FinishSimulation</text>
<polyline fill="none" stroke="black" points="0,-49.5 104,-49.5 "/>
<text text-anchor="middle" x="52" y="-37.5" font-family="Helvetica,sans-Serif" font-size="10.00"> </text>
<polyline fill="none" stroke="black" points="0,-30.5 104,-30.5 "/>
<text text-anchor="start" x="8" y="-18.5" font-family="Helvetica,sans-Serif" font-size="10.00">+ FinishSimulation()</text>
<text text-anchor="start" x="8" y="-7.5" font-family="Helvetica,sans-Serif" font-size="10.00">+ str()</text>
</g>
<!-- Node2 -->
<g id="node2" class="node"><title>Node2</title>
<g id="a_node2"><a xlink:href="class_event.html" target="_top" xlink:title="{Event\n|+ totalEvents\l# _id\l# _time\l# _type\l|+ Event()\l+ getId()\l+ getTime()\l+ getType()\l+ str()\l}">
<polygon fill="white" stroke="black" points="14.5,-105.5 14.5,-239.5 89.5,-239.5 89.5,-105.5 14.5,-105.5"/>
<text text-anchor="middle" x="52" y="-227.5" font-family="Helvetica,sans-Serif" font-size="10.00">Event</text>
<polyline fill="none" stroke="black" points="14.5,-220.5 89.5,-220.5 "/>
<text text-anchor="start" x="22.5" y="-208.5" font-family="Helvetica,sans-Serif" font-size="10.00">+ totalEvents</text>
<text text-anchor="start" x="22.5" y="-197.5" font-family="Helvetica,sans-Serif" font-size="10.00"># _id</text>
<text text-anchor="start" x="22.5" y="-186.5" font-family="Helvetica,sans-Serif" font-size="10.00"># _time</text>
<text text-anchor="start" x="22.5" y="-175.5" font-family="Helvetica,sans-Serif" font-size="10.00"># _type</text>
<polyline fill="none" stroke="black" points="14.5,-168.5 89.5,-168.5 "/>
<text text-anchor="start" x="22.5" y="-156.5" font-family="Helvetica,sans-Serif" font-size="10.00">+ Event()</text>
<text text-anchor="start" x="22.5" y="-145.5" font-family="Helvetica,sans-Serif" font-size="10.00">+ getId()</text>
<text text-anchor="start" x="22.5" y="-134.5" font-family="Helvetica,sans-Serif" font-size="10.00">+ getTime()</text>
<text text-anchor="start" x="22.5" y="-123.5" font-family="Helvetica,sans-Serif" font-size="10.00">+ getType()</text>
<text text-anchor="start" x="22.5" y="-112.5" font-family="Helvetica,sans-Serif" font-size="10.00">+ str()</text>
</a>
</g>
</g>
<!-- Node2&#45;&gt;Node1 -->
<g id="edge1" class="edge"><title>Node2&#45;&gt;Node1</title>
<path fill="none" stroke="midnightblue" d="M52,-95.3667C52,-86.0791 52,-76.9969 52,-68.8265"/>
<polygon fill="none" stroke="midnightblue" points="48.5001,-95.4919 52,-105.492 55.5001,-95.492 48.5001,-95.4919"/>
</g>
</g>
</svg>
