<?xml version="1.0" encoding="UTF-8" standalone="no"?>
<!DOCTYPE svg PUBLIC "-//W3C//DTD SVG 1.1//EN"
 "http://www.w3.org/Graphics/SVG/1.1/DTD/svg11.dtd">
<!-- Generated by graphviz version 2.38.0 (20140413.2041)
 -->
<!-- Title: Scheduler Pages: 1 -->
<svg width="248pt" height="298pt"
 viewBox="0.00 0.00 248.00 298.00" xmlns="http://www.w3.org/2000/svg" xmlns:xlink="http://www.w3.org/1999/xlink">
<g id="graph0" class="graph" transform="scale(1 1) rotate(0) translate(4 294)">
<title>Scheduler</title>
<polygon fill="white" stroke="none" points="-4,4 -4,-294 244,-294 244,4 -4,4"/>
<!-- Node1 -->
<g id="node1" class="node"><title>Node1</title>
<polygon fill="#bfbfbf" stroke="black" points="43,-105.5 43,-184.5 191,-184.5 191,-105.5 43,-105.5"/>
<text text-anchor="middle" x="117" y="-172.5" font-family="Ubuntu Mono" font-size="10.00">Scheduler</text>
<polyline fill="none" stroke="black" points="43,-165.5 191,-165.5 "/>
<text text-anchor="middle" x="117" y="-153.5" font-family="Ubuntu Mono" font-size="10.00"> </text>
<polyline fill="none" stroke="black" points="43,-146.5 191,-146.5 "/>
<text text-anchor="start" x="51" y="-134.5" font-family="Ubuntu Mono" font-size="10.00">+ Scheduler()</text>
<text text-anchor="start" x="51" y="-123.5" font-family="Ubuntu Mono" font-size="10.00">+ schedule()</text>
<text text-anchor="start" x="51" y="-112.5" font-family="Ubuntu Mono" font-size="10.00"># getAvailableElevators()</text>
</g>
<!-- Node3 -->
<g id="node3" class="node"><title>Node3</title>
<g id="a_node3"><a xlink:href="class_planning_scheduler.html" target="_top" xlink:title="{PlanningScheduler\n||+ schedule()\l}">
<polygon fill="white" stroke="black" points="0,-6 0,-63 106,-63 106,-6 0,-6"/>
<text text-anchor="middle" x="53" y="-51" font-family="Ubuntu Mono" font-size="10.00">PlanningScheduler</text>
<polyline fill="none" stroke="black" points="0,-44 106,-44 "/>
<text text-anchor="middle" x="53" y="-32" font-family="Ubuntu Mono" font-size="10.00"> </text>
<polyline fill="none" stroke="black" points="0,-25 106,-25 "/>
<text text-anchor="start" x="8" y="-13" font-family="Ubuntu Mono" font-size="10.00">+ schedule()</text>
</a>
</g>
</g>
<!-- Node1&#45;&gt;Node3 -->
<g id="edge2" class="edge"><title>Node1&#45;&gt;Node3</title>
<path fill="none" stroke="midnightblue" d="M89.1294,-96.7506C82.3341,-85.2305 75.2862,-73.2821 69.2391,-63.0304"/>
<polygon fill="none" stroke="midnightblue" points="86.1605,-98.6065 94.2558,-105.441 92.1898,-95.05 86.1605,-98.6065"/>
</g>
<!-- Node4 -->
<g id="node4" class="node"><title>Node4</title>
<g id="a_node4"><a xlink:href="class_simple_scheduler.html" target="_top" xlink:title="{SimpleScheduler\n||+ SimpleScheduler()\l+ schedule()\l}">
<polygon fill="white" stroke="black" points="124,-0.5 124,-68.5 240,-68.5 240,-0.5 124,-0.5"/>
<text text-anchor="middle" x="182" y="-56.5" font-family="Ubuntu Mono" font-size="10.00">SimpleScheduler</text>
<polyline fill="none" stroke="black" points="124,-49.5 240,-49.5 "/>
<text text-anchor="middle" x="182" y="-37.5" font-family="Ubuntu Mono" font-size="10.00"> </text>
<polyline fill="none" stroke="black" points="124,-30.5 240,-30.5 "/>
<text text-anchor="start" x="132" y="-18.5" font-family="Ubuntu Mono" font-size="10.00">+ SimpleScheduler()</text>
<text text-anchor="start" x="132" y="-7.5" font-family="Ubuntu Mono" font-size="10.00">+ schedule()</text>
</a>
</g>
</g>
<!-- Node1&#45;&gt;Node4 -->
<g id="edge3" class="edge"><title>Node1&#45;&gt;Node4</title>
<path fill="none" stroke="midnightblue" d="M145.271,-96.8096C150.978,-87.2824 156.863,-77.4597 162.204,-68.5439"/>
<polygon fill="none" stroke="midnightblue" points="142.236,-95.0643 140.1,-105.441 148.241,-98.6617 142.236,-95.0643"/>
</g>
<!-- Node2 -->
<g id="node2" class="node"><title>Node2</title>
<polygon fill="white" stroke="#bfbfbf" points="48.5,-221.5 48.5,-289.5 185.5,-289.5 185.5,-221.5 48.5,-221.5"/>
<text text-anchor="start" x="56.5" y="-277.5" font-family="Ubuntu Mono" font-size="10.00">std::enable_shared</text>
<text text-anchor="middle" x="117" y="-266.5" font-family="Ubuntu Mono" font-size="10.00">_from_this&lt; Scheduler &gt;</text>
<polyline fill="none" stroke="#bfbfbf" points="48.5,-259.5 185.5,-259.5 "/>
<text text-anchor="middle" x="117" y="-247.5" font-family="Ubuntu Mono" font-size="10.00"> </text>
<polyline fill="none" stroke="#bfbfbf" points="48.5,-240.5 185.5,-240.5 "/>
<text text-anchor="middle" x="117" y="-228.5" font-family="Ubuntu Mono" font-size="10.00"> </text>
</g>
<!-- Node2&#45;&gt;Node1 -->
<g id="edge1" class="edge"><title>Node2&#45;&gt;Node1</title>
<path fill="none" stroke="midnightblue" d="M117,-211.274C117,-202.476 117,-193.275 117,-184.649"/>
<polygon fill="none" stroke="midnightblue" points="113.5,-211.357 117,-221.357 120.5,-211.357 113.5,-211.357"/>
</g>
</g>
</svg>
