<?xml version="1.0" encoding="UTF-8" standalone="no"?>
<!DOCTYPE svg PUBLIC "-//W3C//DTD SVG 1.1//EN"
 "http://www.w3.org/Graphics/SVG/1.1/DTD/svg11.dtd">
<!-- Generated by graphviz version 2.38.0 (20140413.2041)
 -->
<!-- Title: SimpleScheduler Pages: 1 -->
<svg width="133pt" height="298pt"
 viewBox="0.00 0.00 133.00 298.00" xmlns="http://www.w3.org/2000/svg" xmlns:xlink="http://www.w3.org/1999/xlink">
<g id="graph0" class="graph" transform="scale(1 1) rotate(0) translate(4 294)">
<title>SimpleScheduler</title>
<polygon fill="white" stroke="none" points="-4,4 -4,-294 129,-294 129,4 -4,4"/>
<!-- Node1 -->
<g id="node1" class="node"><title>Node1</title>
<polygon fill="#bfbfbf" stroke="black" points="10,-0.5 10,-68.5 115,-68.5 115,-0.5 10,-0.5"/>
<text text-anchor="middle" x="62.5" y="-56.5" font-family="Helvetica,sans-Serif" font-size="10.00">SimpleScheduler</text>
<polyline fill="none" stroke="black" points="10,-49.5 115,-49.5 "/>
<text text-anchor="middle" x="62.5" y="-37.5" font-family="Helvetica,sans-Serif" font-size="10.00"> </text>
<polyline fill="none" stroke="black" points="10,-30.5 115,-30.5 "/>
<text text-anchor="start" x="18" y="-18.5" font-family="Helvetica,sans-Serif" font-size="10.00">+ SimpleScheduler()</text>
<text text-anchor="start" x="18" y="-7.5" font-family="Helvetica,sans-Serif" font-size="10.00">+ schedule()</text>
</g>
<!-- Node2 -->
<g id="node2" class="node"><title>Node2</title>
<g id="a_node2"><a xlink:href="class_scheduler.html" target="_top" xlink:title="{Scheduler\n||+ Scheduler()\l+ schedule()\l# getAvailableElevators()\l}">
<polygon fill="white" stroke="black" points="-7.10543e-15,-105.5 -7.10543e-15,-184.5 125,-184.5 125,-105.5 -7.10543e-15,-105.5"/>
<text text-anchor="middle" x="62.5" y="-172.5" font-family="Helvetica,sans-Serif" font-size="10.00">Scheduler</text>
<polyline fill="none" stroke="black" points="-7.10543e-15,-165.5 125,-165.5 "/>
<text text-anchor="middle" x="62.5" y="-153.5" font-family="Helvetica,sans-Serif" font-size="10.00"> </text>
<polyline fill="none" stroke="black" points="-7.10543e-15,-146.5 125,-146.5 "/>
<text text-anchor="start" x="8" y="-134.5" font-family="Helvetica,sans-Serif" font-size="10.00">+ Scheduler()</text>
<text text-anchor="start" x="8" y="-123.5" font-family="Helvetica,sans-Serif" font-size="10.00">+ schedule()</text>
<text text-anchor="start" x="8" y="-112.5" font-family="Helvetica,sans-Serif" font-size="10.00"># getAvailableElevators()</text>
</a>
</g>
</g>
<!-- Node2&#45;&gt;Node1 -->
<g id="edge1" class="edge"><title>Node2&#45;&gt;Node1</title>
<path fill="none" stroke="midnightblue" d="M62.5,-95.3492C62.5,-86.2824 62.5,-77.0048 62.5,-68.5439"/>
<polygon fill="none" stroke="midnightblue" points="59.0001,-95.4414 62.5,-105.441 66.0001,-95.4415 59.0001,-95.4414"/>
</g>
<!-- Node3 -->
<g id="node3" class="node"><title>Node3</title>
<polygon fill="white" stroke="#bfbfbf" points="0.5,-221.5 0.5,-289.5 124.5,-289.5 124.5,-221.5 0.5,-221.5"/>
<text text-anchor="start" x="8.5" y="-277.5" font-family="Helvetica,sans-Serif" font-size="10.00">std::enable_shared</text>
<text text-anchor="middle" x="62.5" y="-266.5" font-family="Helvetica,sans-Serif" font-size="10.00">_from_this&lt; Scheduler &gt;</text>
<polyline fill="none" stroke="#bfbfbf" points="0.5,-259.5 124.5,-259.5 "/>
<text text-anchor="middle" x="62.5" y="-247.5" font-family="Helvetica,sans-Serif" font-size="10.00"> </text>
<polyline fill="none" stroke="#bfbfbf" points="0.5,-240.5 124.5,-240.5 "/>
<text text-anchor="middle" x="62.5" y="-228.5" font-family="Helvetica,sans-Serif" font-size="10.00"> </text>
</g>
<!-- Node3&#45;&gt;Node2 -->
<g id="edge2" class="edge"><title>Node3&#45;&gt;Node2</title>
<path fill="none" stroke="midnightblue" d="M62.5,-211.274C62.5,-202.476 62.5,-193.275 62.5,-184.649"/>
<polygon fill="none" stroke="midnightblue" points="59.0001,-211.357 62.5,-221.357 66.0001,-211.357 59.0001,-211.357"/>
</g>
</g>
</svg>
