<?xml version="1.0" encoding="UTF-8" standalone="no"?>
<!DOCTYPE svg PUBLIC "-//W3C//DTD SVG 1.1//EN"
 "http://www.w3.org/Graphics/SVG/1.1/DTD/svg11.dtd">
<!-- Generated by graphviz version 2.38.0 (20140413.2041)
 -->
<!-- Title: Floor Pages: 1 -->
<svg width="145pt" height="220pt"
 viewBox="0.00 0.00 145.00 220.00" xmlns="http://www.w3.org/2000/svg" xmlns:xlink="http://www.w3.org/1999/xlink">
<g id="graph0" class="graph" transform="scale(1 1) rotate(0) translate(4 216)">
<title>Floor</title>
<polygon fill="white" stroke="none" points="-4,4 -4,-216 141,-216 141,4 -4,4"/>
<!-- Node1 -->
<g id="node1" class="node"><title>Node1</title>
<polygon fill="#bfbfbf" stroke="black" points="0,-0.5 0,-211.5 137,-211.5 137,-0.5 0,-0.5"/>
<text text-anchor="middle" x="68.5" y="-199.5" font-family="Ubuntu Mono" font-size="10.00">Floor</text>
<polyline fill="none" stroke="black" points="0,-192.5 137,-192.5 "/>
<text text-anchor="middle" x="68.5" y="-180.5" font-family="Ubuntu Mono" font-size="10.00"> </text>
<polyline fill="none" stroke="black" points="0,-173.5 137,-173.5 "/>
<text text-anchor="start" x="8" y="-161.5" font-family="Ubuntu Mono" font-size="10.00">+ Floor()</text>
<text text-anchor="start" x="8" y="-150.5" font-family="Ubuntu Mono" font-size="10.00">+ ~Floor()</text>
<text text-anchor="start" x="8" y="-139.5" font-family="Ubuntu Mono" font-size="10.00">+ getNumber()</text>
<text text-anchor="start" x="8" y="-128.5" font-family="Ubuntu Mono" font-size="10.00">+ getLambda()</text>
<text text-anchor="start" x="8" y="-117.5" font-family="Ubuntu Mono" font-size="10.00">+ getUpLine()</text>
<text text-anchor="start" x="8" y="-106.5" font-family="Ubuntu Mono" font-size="10.00">+ getDownLine()</text>
<text text-anchor="start" x="8" y="-95.5" font-family="Ubuntu Mono" font-size="10.00">+ clientsOnUpLine()</text>
<text text-anchor="start" x="8" y="-84.5" font-family="Ubuntu Mono" font-size="10.00">+ clientsOnDownLine()</text>
<text text-anchor="start" x="8" y="-73.5" font-family="Ubuntu Mono" font-size="10.00">+ compareTo()</text>
<text text-anchor="start" x="8" y="-62.5" font-family="Ubuntu Mono" font-size="10.00">+ setEventFactory()</text>
<text text-anchor="start" x="8" y="-51.5" font-family="Ubuntu Mono" font-size="10.00">+ addClient()</text>
<text text-anchor="start" x="8" y="-40.5" font-family="Ubuntu Mono" font-size="10.00">+ boardElevator()</text>
<text text-anchor="start" x="8" y="-29.5" font-family="Ubuntu Mono" font-size="10.00">+ createFutureArrival()</text>
<text text-anchor="start" x="8" y="-18.5" font-family="Ubuntu Mono" font-size="10.00">+ str()</text>
<text text-anchor="start" x="8" y="-7.5" font-family="Ubuntu Mono" font-size="10.00">+ create()</text>
</g>
</g>
</svg>
