<?xml version="1.0" encoding="UTF-8" standalone="no"?>
<!DOCTYPE svg PUBLIC "-//W3C//DTD SVG 1.1//EN"
 "http://www.w3.org/Graphics/SVG/1.1/DTD/svg11.dtd">
<!-- Generated by graphviz version 2.38.0 (20140413.2041)
 -->
<!-- Title: ClientArrival Pages: 1 -->
<svg width="93pt" height="259pt"
 viewBox="0.00 0.00 93.00 259.00" xmlns="http://www.w3.org/2000/svg" xmlns:xlink="http://www.w3.org/1999/xlink">
<g id="graph0" class="graph" transform="scale(1 1) rotate(0) translate(4 255)">
<title>ClientArrival</title>
<polygon fill="white" stroke="none" points="-4,4 -4,-255 89,-255 89,4 -4,4"/>
<!-- Node1 -->
<g id="node1" class="node"><title>Node1</title>
<polygon fill="#bfbfbf" stroke="black" points="0,-0.5 0,-79.5 85,-79.5 85,-0.5 0,-0.5"/>
<text text-anchor="middle" x="42.5" y="-67.5" font-family="Helvetica,sans-Serif" font-size="10.00">ClientArrival</text>
<polyline fill="none" stroke="black" points="0,-60.5 85,-60.5 "/>
<text text-anchor="middle" x="42.5" y="-48.5" font-family="Helvetica,sans-Serif" font-size="10.00"> </text>
<polyline fill="none" stroke="black" points="0,-41.5 85,-41.5 "/>
<text text-anchor="start" x="8" y="-29.5" font-family="Helvetica,sans-Serif" font-size="10.00">+ ClientArrival()</text>
<text text-anchor="start" x="8" y="-18.5" font-family="Helvetica,sans-Serif" font-size="10.00">+ getClient()</text>
<text text-anchor="start" x="8" y="-7.5" font-family="Helvetica,sans-Serif" font-size="10.00">+ str()</text>
</g>
<!-- Node2 -->
<g id="node2" class="node"><title>Node2</title>
<g id="a_node2"><a xlink:href="class_event.html" target="_top" xlink:title="{Event\n|+ totalEvents\l# _id\l# _time\l# _type\l|+ Event()\l+ getId()\l+ getTime()\l+ getType()\l+ str()\l}">
<polygon fill="white" stroke="black" points="5,-116.5 5,-250.5 80,-250.5 80,-116.5 5,-116.5"/>
<text text-anchor="middle" x="42.5" y="-238.5" font-family="Helvetica,sans-Serif" font-size="10.00">Event</text>
<polyline fill="none" stroke="black" points="5,-231.5 80,-231.5 "/>
<text text-anchor="start" x="13" y="-219.5" font-family="Helvetica,sans-Serif" font-size="10.00">+ totalEvents</text>
<text text-anchor="start" x="13" y="-208.5" font-family="Helvetica,sans-Serif" font-size="10.00"># _id</text>
<text text-anchor="start" x="13" y="-197.5" font-family="Helvetica,sans-Serif" font-size="10.00"># _time</text>
<text text-anchor="start" x="13" y="-186.5" font-family="Helvetica,sans-Serif" font-size="10.00"># _type</text>
<polyline fill="none" stroke="black" points="5,-179.5 80,-179.5 "/>
<text text-anchor="start" x="13" y="-167.5" font-family="Helvetica,sans-Serif" font-size="10.00">+ Event()</text>
<text text-anchor="start" x="13" y="-156.5" font-family="Helvetica,sans-Serif" font-size="10.00">+ getId()</text>
<text text-anchor="start" x="13" y="-145.5" font-family="Helvetica,sans-Serif" font-size="10.00">+ getTime()</text>
<text text-anchor="start" x="13" y="-134.5" font-family="Helvetica,sans-Serif" font-size="10.00">+ getType()</text>
<text text-anchor="start" x="13" y="-123.5" font-family="Helvetica,sans-Serif" font-size="10.00">+ str()</text>
</a>
</g>
</g>
<!-- Node2&#45;&gt;Node1 -->
<g id="edge1" class="edge"><title>Node2&#45;&gt;Node1</title>
<path fill="none" stroke="midnightblue" d="M42.5,-106.03C42.5,-96.9466 42.5,-87.9896 42.5,-79.7634"/>
<polygon fill="none" stroke="midnightblue" points="39.0001,-106.307 42.5,-116.307 46.0001,-106.307 39.0001,-106.307"/>
</g>
</g>
</svg>
