<?xml version="1.0" encoding="UTF-8" standalone="no"?>
<!DOCTYPE svg PUBLIC "-//W3C//DTD SVG 1.1//EN"
 "http://www.w3.org/Graphics/SVG/1.1/DTD/svg11.dtd">
<!-- Generated by graphviz version 2.38.0 (20140413.2041)
 -->
<!-- Title: Scheduler Pages: 1 -->
<svg width="156pt" height="193pt"
 viewBox="0.00 0.00 156.00 193.00" xmlns="http://www.w3.org/2000/svg" xmlns:xlink="http://www.w3.org/1999/xlink">
<g id="graph0" class="graph" transform="scale(1 1) rotate(0) translate(4 189)">
<title>Scheduler</title>
<polygon fill="white" stroke="none" points="-4,4 -4,-189 152,-189 152,4 -4,4"/>
<!-- Node1 -->
<g id="node1" class="node"><title>Node1</title>
<polygon fill="#bfbfbf" stroke="black" points="0,-0.5 0,-79.5 148,-79.5 148,-0.5 0,-0.5"/>
<text text-anchor="middle" x="74" y="-67.5" font-family="Ubuntu Mono" font-size="10.00">Scheduler</text>
<polyline fill="none" stroke="black" points="0,-60.5 148,-60.5 "/>
<text text-anchor="middle" x="74" y="-48.5" font-family="Ubuntu Mono" font-size="10.00"> </text>
<polyline fill="none" stroke="black" points="0,-41.5 148,-41.5 "/>
<text text-anchor="start" x="8" y="-29.5" font-family="Ubuntu Mono" font-size="10.00">+ Scheduler()</text>
<text text-anchor="start" x="8" y="-18.5" font-family="Ubuntu Mono" font-size="10.00">+ schedule()</text>
<text text-anchor="start" x="8" y="-7.5" font-family="Ubuntu Mono" font-size="10.00"># getAvailableElevators()</text>
</g>
<!-- Node2 -->
<g id="node2" class="node"><title>Node2</title>
<polygon fill="white" stroke="#bfbfbf" points="5.5,-116.5 5.5,-184.5 142.5,-184.5 142.5,-116.5 5.5,-116.5"/>
<text text-anchor="start" x="13.5" y="-172.5" font-family="Ubuntu Mono" font-size="10.00">std::enable_shared</text>
<text text-anchor="middle" x="74" y="-161.5" font-family="Ubuntu Mono" font-size="10.00">_from_this&lt; Scheduler &gt;</text>
<polyline fill="none" stroke="#bfbfbf" points="5.5,-154.5 142.5,-154.5 "/>
<text text-anchor="middle" x="74" y="-142.5" font-family="Ubuntu Mono" font-size="10.00"> </text>
<polyline fill="none" stroke="#bfbfbf" points="5.5,-135.5 142.5,-135.5 "/>
<text text-anchor="middle" x="74" y="-123.5" font-family="Ubuntu Mono" font-size="10.00"> </text>
</g>
<!-- Node2&#45;&gt;Node1 -->
<g id="edge1" class="edge"><title>Node2&#45;&gt;Node1</title>
<path fill="none" stroke="midnightblue" d="M74,-106.274C74,-97.4764 74,-88.2753 74,-79.6493"/>
<polygon fill="none" stroke="midnightblue" points="70.5001,-106.357 74,-116.357 77.5001,-106.357 70.5001,-106.357"/>
</g>
</g>
</svg>
