<?xml version="1.0" encoding="UTF-8" standalone="no"?>
<!DOCTYPE svg PUBLIC "-//W3C//DTD SVG 1.1//EN"
 "http://www.w3.org/Graphics/SVG/1.1/DTD/svg11.dtd">
<!-- Generated by graphviz version 2.38.0 (20140413.2041)
 -->
<!-- Title: Simulator::createBuilding Pages: 1 -->
<svg width="308pt" height="230pt"
 viewBox="0.00 0.00 308.00 230.00" xmlns="http://www.w3.org/2000/svg" xmlns:xlink="http://www.w3.org/1999/xlink">
<g id="graph0" class="graph" transform="scale(1 1) rotate(0) translate(4 226)">
<title>Simulator::createBuilding</title>
<polygon fill="white" stroke="none" points="-4,4 -4,-226 304,-226 304,4 -4,4"/>
<!-- Node1 -->
<g id="node1" class="node"><title>Node1</title>
<polygon fill="#bfbfbf" stroke="black" points="0,-104.5 0,-123.5 125,-123.5 125,-104.5 0,-104.5"/>
<text text-anchor="middle" x="62.5" y="-111.5" font-family="Helvetica,sans-Serif" font-size="10.00">Simulator::createBuilding</text>
</g>
<!-- Node2 -->
<g id="node2" class="node"><title>Node2</title>
<g id="a_node2"><a xlink:href="class_floor.html#a294df3a0179a79c3a9a2765418368d03" target="_top" xlink:title="Floor::create">
<polygon fill="white" stroke="black" points="195,-202.5 195,-221.5 266,-221.5 266,-202.5 195,-202.5"/>
<text text-anchor="middle" x="230.5" y="-209.5" font-family="Helvetica,sans-Serif" font-size="10.00">Floor::create</text>
</a>
</g>
</g>
<!-- Node1&#45;&gt;Node2 -->
<g id="edge1" class="edge"><title>Node1&#45;&gt;Node2</title>
<path fill="none" stroke="midnightblue" d="M72.518,-123.526C88.6974,-140.069 124.397,-174.141 161,-193 168.41,-196.818 176.677,-199.943 184.835,-202.477"/>
<polygon fill="midnightblue" stroke="midnightblue" points="184.089,-205.903 194.665,-205.279 186.008,-199.172 184.089,-205.903"/>
</g>
<!-- Node3 -->
<g id="node3" class="node"><title>Node3</title>
<g id="a_node3"><a xlink:href="class_elevator.html#a6a5d8cb3159ee98e343042df0ff7f2ba" target="_top" xlink:title="Elevator::create">
<polygon fill="white" stroke="black" points="187.5,-164.5 187.5,-183.5 273.5,-183.5 273.5,-164.5 187.5,-164.5"/>
<text text-anchor="middle" x="230.5" y="-171.5" font-family="Helvetica,sans-Serif" font-size="10.00">Elevator::create</text>
</a>
</g>
</g>
<!-- Node1&#45;&gt;Node3 -->
<g id="edge2" class="edge"><title>Node1&#45;&gt;Node3</title>
<path fill="none" stroke="midnightblue" d="M84.122,-123.578C103.654,-132.432 133.94,-145.601 161,-155 167.58,-157.285 174.587,-159.487 181.515,-161.53"/>
<polygon fill="midnightblue" stroke="midnightblue" points="180.97,-165.014 191.547,-164.401 182.896,-158.284 180.97,-165.014"/>
</g>
<!-- Node4 -->
<g id="node4" class="node"><title>Node4</title>
<g id="a_node4"><a xlink:href="class_scheduler_creator.html#a091006529e65ae50ce7bb8e97b6494dc" target="_top" xlink:title="SchedulerCreator::create">
<polygon fill="white" stroke="black" points="168,-126.5 168,-145.5 293,-145.5 293,-126.5 168,-126.5"/>
<text text-anchor="middle" x="230.5" y="-133.5" font-family="Helvetica,sans-Serif" font-size="10.00">SchedulerCreator::create</text>
</a>
</g>
</g>
<!-- Node1&#45;&gt;Node4 -->
<g id="edge3" class="edge"><title>Node1&#45;&gt;Node4</title>
<path fill="none" stroke="midnightblue" d="M125.312,-122.192C135.86,-123.59 146.898,-125.053 157.679,-126.482"/>
<polygon fill="midnightblue" stroke="midnightblue" points="157.539,-129.994 167.913,-127.838 158.459,-123.054 157.539,-129.994"/>
</g>
<!-- Node5 -->
<g id="node5" class="node"><title>Node5</title>
<g id="a_node5"><a xlink:href="class_cost_function_creator.html#a2f73ed3b5e34c2cfa891849ab62adda5" target="_top" xlink:title="CostFunctionCreator\l::create">
<polygon fill="white" stroke="black" points="177,-77 177,-107 284,-107 284,-77 177,-77"/>
<text text-anchor="start" x="185" y="-95" font-family="Helvetica,sans-Serif" font-size="10.00">CostFunctionCreator</text>
<text text-anchor="middle" x="230.5" y="-84" font-family="Helvetica,sans-Serif" font-size="10.00">::create</text>
</a>
</g>
</g>
<!-- Node1&#45;&gt;Node5 -->
<g id="edge4" class="edge"><title>Node1&#45;&gt;Node5</title>
<path fill="none" stroke="midnightblue" d="M125.312,-105.808C138.828,-104.017 153.147,-102.119 166.701,-100.323"/>
<polygon fill="midnightblue" stroke="midnightblue" points="167.438,-103.756 176.891,-98.9723 166.518,-96.8165 167.438,-103.756"/>
</g>
<!-- Node6 -->
<g id="node6" class="node"><title>Node6</title>
<g id="a_node6"><a xlink:href="namespace_helpers.html#a6623afaa6548aa85a5a1bfd019e1e55f" target="_top" xlink:title="Helpers::schedulerName">
<polygon fill="white" stroke="black" points="168,-38.5 168,-57.5 293,-57.5 293,-38.5 168,-38.5"/>
<text text-anchor="middle" x="230.5" y="-45.5" font-family="Helvetica,sans-Serif" font-size="10.00">Helpers::schedulerName</text>
</a>
</g>
</g>
<!-- Node1&#45;&gt;Node6 -->
<g id="edge5" class="edge"><title>Node1&#45;&gt;Node6</title>
<path fill="none" stroke="midnightblue" d="M81.4593,-104.481C100.747,-94.5082 132.474,-78.8171 161,-68 168.088,-65.3122 175.701,-62.7667 183.183,-60.449"/>
<polygon fill="midnightblue" stroke="midnightblue" points="184.314,-63.764 192.888,-57.5406 182.305,-57.0586 184.314,-63.764"/>
</g>
<!-- Node7 -->
<g id="node7" class="node"><title>Node7</title>
<g id="a_node7"><a xlink:href="namespace_helpers.html#a51b4991513657bea83b1ad43c778aec7" target="_top" xlink:title="Helpers::costFunctionName">
<polygon fill="white" stroke="black" points="161,-0.5 161,-19.5 300,-19.5 300,-0.5 161,-0.5"/>
<text text-anchor="middle" x="230.5" y="-7.5" font-family="Helvetica,sans-Serif" font-size="10.00">Helpers::costFunctionName</text>
</a>
</g>
</g>
<!-- Node1&#45;&gt;Node7 -->
<g id="edge6" class="edge"><title>Node1&#45;&gt;Node7</title>
<path fill="none" stroke="midnightblue" d="M71.8605,-104.275C87.5469,-86.6393 123.232,-49.3294 161,-29 165.194,-26.7425 169.68,-24.7338 174.275,-22.9503"/>
<polygon fill="midnightblue" stroke="midnightblue" points="175.531,-26.2191 183.802,-19.5979 173.207,-19.616 175.531,-26.2191"/>
</g>
</g>
</svg>
