<?xml version="1.0" encoding="UTF-8" standalone="no"?>
<!DOCTYPE svg PUBLIC "-//W3C//DTD SVG 1.1//EN"
 "http://www.w3.org/Graphics/SVG/1.1/DTD/svg11.dtd">
<!-- Generated by graphviz version 2.38.0 (20140413.2041)
 -->
<!-- Title: Reporter::generate Pages: 1 -->
<svg width="308pt" height="192pt"
 viewBox="0.00 0.00 308.00 191.50" xmlns="http://www.w3.org/2000/svg" xmlns:xlink="http://www.w3.org/1999/xlink">
<g id="graph0" class="graph" transform="scale(1 1) rotate(0) translate(4 187.5)">
<title>Reporter::generate</title>
<polygon fill="white" stroke="none" points="-4,4 -4,-187.5 304,-187.5 304,4 -4,4"/>
<!-- Node1 -->
<g id="node1" class="node"><title>Node1</title>
<polygon fill="#bfbfbf" stroke="black" points="0,-76.5 0,-95.5 111,-95.5 111,-76.5 0,-76.5"/>
<text text-anchor="middle" x="55.5" y="-83.5" font-family="Ubuntu Mono" font-size="10.00">Reporter::generate</text>
</g>
<!-- Node2 -->
<g id="node2" class="node"><title>Node2</title>
<g id="a_node2"><a xlink:href="class_reporter.html#a8e68557b65c53ba700eaa9c3a9933df6" target="_top" xlink:title="Reporter::generateUnified\lReport">
<polygon fill="white" stroke="black" points="149.5,-153 149.5,-183 297.5,-183 297.5,-153 149.5,-153"/>
<text text-anchor="start" x="157.5" y="-171" font-family="Ubuntu Mono" font-size="10.00">Reporter::generateUnified</text>
<text text-anchor="middle" x="223.5" y="-160" font-family="Ubuntu Mono" font-size="10.00">Report</text>
</a>
</g>
</g>
<!-- Node1&#45;&gt;Node2 -->
<g id="edge1" class="edge"><title>Node1&#45;&gt;Node2</title>
<path fill="none" stroke="midnightblue" d="M69.4139,-95.554C86.4727,-107.834 117.781,-129.212 147,-143 151.718,-145.226 156.687,-147.34 161.732,-149.326"/>
<polygon fill="midnightblue" stroke="midnightblue" points="160.886,-152.747 171.478,-152.983 163.345,-146.193 160.886,-152.747"/>
</g>
<!-- Node3 -->
<g id="node3" class="node"><title>Node3</title>
<g id="a_node3"><a xlink:href="class_reporter.html#a69fa8649211b4e4c7441fd1f6c9042e2" target="_top" xlink:title="Reporter::generateReport">
<polygon fill="white" stroke="black" points="152,-114.5 152,-133.5 295,-133.5 295,-114.5 152,-114.5"/>
<text text-anchor="middle" x="223.5" y="-121.5" font-family="Ubuntu Mono" font-size="10.00">Reporter::generateReport</text>
</a>
</g>
</g>
<!-- Node1&#45;&gt;Node3 -->
<g id="edge2" class="edge"><title>Node1&#45;&gt;Node3</title>
<path fill="none" stroke="midnightblue" d="M98.3888,-95.589C120.393,-100.626 147.555,-106.844 170.852,-112.177"/>
<polygon fill="midnightblue" stroke="midnightblue" points="170.384,-115.66 180.912,-114.48 171.946,-108.837 170.384,-115.66"/>
</g>
<!-- Node4 -->
<g id="node4" class="node"><title>Node4</title>
<g id="a_node4"><a xlink:href="class_reporter.html#a0e3c710580b4cae4f70a8cc3b8e7473a" target="_top" xlink:title="Reporter::generateArrivals">
<polygon fill="white" stroke="black" points="147,-76.5 147,-95.5 300,-95.5 300,-76.5 147,-76.5"/>
<text text-anchor="middle" x="223.5" y="-83.5" font-family="Ubuntu Mono" font-size="10.00">Reporter::generateArrivals</text>
</a>
</g>
</g>
<!-- Node1&#45;&gt;Node4 -->
<g id="edge3" class="edge"><title>Node1&#45;&gt;Node4</title>
<path fill="none" stroke="midnightblue" d="M111.315,-86C119.46,-86 128.016,-86 136.614,-86"/>
<polygon fill="midnightblue" stroke="midnightblue" points="136.703,-89.5001 146.703,-86 136.703,-82.5001 136.703,-89.5001"/>
</g>
<!-- Node5 -->
<g id="node5" class="node"><title>Node5</title>
<g id="a_node5"><a xlink:href="class_reporter.html#a75934d0909b242ef77d4ee8e850af0fe" target="_top" xlink:title="Reporter::generateDropOffs">
<polygon fill="white" stroke="black" points="147,-38.5 147,-57.5 300,-57.5 300,-38.5 147,-38.5"/>
<text text-anchor="middle" x="223.5" y="-45.5" font-family="Ubuntu Mono" font-size="10.00">Reporter::generateDropOffs</text>
</a>
</g>
</g>
<!-- Node1&#45;&gt;Node5 -->
<g id="edge4" class="edge"><title>Node1&#45;&gt;Node5</title>
<path fill="none" stroke="midnightblue" d="M98.3888,-76.411C120.393,-71.3739 147.555,-65.1562 170.852,-59.8229"/>
<polygon fill="midnightblue" stroke="midnightblue" points="171.946,-63.1633 180.912,-57.5201 170.384,-56.3398 171.946,-63.1633"/>
</g>
<!-- Node6 -->
<g id="node6" class="node"><title>Node6</title>
<g id="a_node6"><a xlink:href="class_reporter.html#a314e30d2dacb907197f8446422981d37" target="_top" xlink:title="Reporter::generateCharts">
<polygon fill="white" stroke="black" points="152,-0.5 152,-19.5 295,-19.5 295,-0.5 152,-0.5"/>
<text text-anchor="middle" x="223.5" y="-7.5" font-family="Ubuntu Mono" font-size="10.00">Reporter::generateCharts</text>
</a>
</g>
</g>
<!-- Node1&#45;&gt;Node6 -->
<g id="edge5" class="edge"><title>Node1&#45;&gt;Node6</title>
<path fill="none" stroke="midnightblue" d="M68.9746,-76.3309C85.804,-63.7252 117.125,-41.7827 147,-29 152.79,-26.5226 158.973,-24.3176 165.215,-22.3679"/>
<polygon fill="midnightblue" stroke="midnightblue" points="166.401,-25.6681 175.024,-19.5118 164.444,-18.9472 166.401,-25.6681"/>
</g>
</g>
</svg>
