<?xml version="1.0" encoding="UTF-8" standalone="no"?>
<!DOCTYPE svg PUBLIC "-//W3C//DTD SVG 1.1//EN"
 "http://www.w3.org/Graphics/SVG/1.1/DTD/svg11.dtd">
<!-- Generated by graphviz version 2.38.0 (20140413.2041)
 -->
<!-- Title: Clock Pages: 1 -->
<svg width="91pt" height="237pt"
 viewBox="0.00 0.00 91.00 237.00" xmlns="http://www.w3.org/2000/svg" xmlns:xlink="http://www.w3.org/1999/xlink">
<g id="graph0" class="graph" transform="scale(1 1) rotate(0) translate(4 233)">
<title>Clock</title>
<polygon fill="white" stroke="none" points="-4,4 -4,-233 87,-233 87,4 -4,4"/>
<!-- Node1 -->
<g id="node1" class="node"><title>Node1</title>
<polygon fill="#bfbfbf" stroke="black" points="0,-0.5 0,-134.5 83,-134.5 83,-0.5 0,-0.5"/>
<text text-anchor="middle" x="41.5" y="-122.5" font-family="Helvetica,sans-Serif" font-size="10.00">Clock</text>
<polyline fill="none" stroke="black" points="0,-115.5 83,-115.5 "/>
<text text-anchor="middle" x="41.5" y="-103.5" font-family="Helvetica,sans-Serif" font-size="10.00"> </text>
<polyline fill="none" stroke="black" points="0,-96.5 83,-96.5 "/>
<text text-anchor="start" x="8" y="-84.5" font-family="Helvetica,sans-Serif" font-size="10.00">+ Clock()</text>
<text text-anchor="start" x="8" y="-73.5" font-family="Helvetica,sans-Serif" font-size="10.00">+ Clock()</text>
<text text-anchor="start" x="8" y="-62.5" font-family="Helvetica,sans-Serif" font-size="10.00">+ ~Clock()</text>
<text text-anchor="start" x="8" y="-51.5" font-family="Helvetica,sans-Serif" font-size="10.00">+ currentTime()</text>
<text text-anchor="start" x="8" y="-40.5" font-family="Helvetica,sans-Serif" font-size="10.00">+ advanceTo()</text>
<text text-anchor="start" x="8" y="-29.5" font-family="Helvetica,sans-Serif" font-size="10.00">+ advanceBy()</text>
<text text-anchor="start" x="8" y="-18.5" font-family="Helvetica,sans-Serif" font-size="10.00">+ notify()</text>
<text text-anchor="start" x="8" y="-7.5" font-family="Helvetica,sans-Serif" font-size="10.00">+ str()</text>
</g>
<!-- Node2 -->
<g id="node2" class="node"><title>Node2</title>
<g id="a_node2"><a xlink:href="class_event_observer.html" target="_top" xlink:title="{EventObserver\n||+ notify()\l}">
<polygon fill="white" stroke="black" points="0.5,-171.5 0.5,-228.5 82.5,-228.5 82.5,-171.5 0.5,-171.5"/>
<text text-anchor="middle" x="41.5" y="-216.5" font-family="Helvetica,sans-Serif" font-size="10.00">EventObserver</text>
<polyline fill="none" stroke="black" points="0.5,-209.5 82.5,-209.5 "/>
<text text-anchor="middle" x="41.5" y="-197.5" font-family="Helvetica,sans-Serif" font-size="10.00"> </text>
<polyline fill="none" stroke="black" points="0.5,-190.5 82.5,-190.5 "/>
<text text-anchor="start" x="8.5" y="-178.5" font-family="Helvetica,sans-Serif" font-size="10.00">+ notify()</text>
</a>
</g>
</g>
<!-- Node2&#45;&gt;Node1 -->
<g id="edge1" class="edge"><title>Node2&#45;&gt;Node1</title>
<path fill="none" stroke="midnightblue" d="M41.5,-161.16C41.5,-152.782 41.5,-143.668 41.5,-134.533"/>
<polygon fill="none" stroke="midnightblue" points="38.0001,-161.324 41.5,-171.324 45.0001,-161.324 38.0001,-161.324"/>
</g>
</g>
</svg>
