<?xml version="1.0" encoding="UTF-8" standalone="no"?>
<!DOCTYPE svg PUBLIC "-//W3C//DTD SVG 1.1//EN"
 "http://www.w3.org/Graphics/SVG/1.1/DTD/svg11.dtd">
<!-- Generated by graphviz version 2.38.0 (20140413.2041)
 -->
<!-- Title: Statistics::getTotalWT Pages: 1 -->
<svg width="456pt" height="66pt"
 viewBox="0.00 0.00 456.00 66.00" xmlns="http://www.w3.org/2000/svg" xmlns:xlink="http://www.w3.org/1999/xlink">
<g id="graph0" class="graph" transform="scale(1 1) rotate(0) translate(4 62)">
<title>Statistics::getTotalWT</title>
<polygon fill="white" stroke="none" points="-4,4 -4,-62 452,-62 452,4 -4,4"/>
<!-- Node1 -->
<g id="node1" class="node"><title>Node1</title>
<polygon fill="#bfbfbf" stroke="black" points="0,-19.5 0,-38.5 132,-38.5 132,-19.5 0,-19.5"/>
<text text-anchor="middle" x="66" y="-26.5" font-family="Ubuntu Mono" font-size="10.00">Statistics::getTotalWT</text>
</g>
<!-- Node2 -->
<g id="node2" class="node"><title>Node2</title>
<g id="a_node2"><a xlink:href="class_statistics.html#a5ed129f73662604d79465dade30577cc" target="_top" xlink:title="Statistics::getAvgWT">
<polygon fill="white" stroke="black" points="168,-19.5 168,-38.5 290,-38.5 290,-19.5 168,-19.5"/>
<text text-anchor="middle" x="229" y="-26.5" font-family="Ubuntu Mono" font-size="10.00">Statistics::getAvgWT</text>
</a>
</g>
</g>
<!-- Node1&#45;&gt;Node2 -->
<g id="edge1" class="edge"><title>Node1&#45;&gt;Node2</title>
<path fill="none" stroke="midnightblue" d="M142.122,-29C150.78,-29 159.521,-29 167.942,-29"/>
<polygon fill="midnightblue" stroke="midnightblue" points="142.021,-25.5001 132.021,-29 142.021,-32.5001 142.021,-25.5001"/>
</g>
<!-- Node3 -->
<g id="node3" class="node"><title>Node3</title>
<g id="a_node3"><a xlink:href="class_statistics.html#ad855ad97545c2edcc2f344efe8f8d152" target="_top" xlink:title="Statistics::getDevWT">
<polygon fill="white" stroke="black" points="326,-38.5 326,-57.5 448,-57.5 448,-38.5 326,-38.5"/>
<text text-anchor="middle" x="387" y="-45.5" font-family="Ubuntu Mono" font-size="10.00">Statistics::getDevWT</text>
</a>
</g>
</g>
<!-- Node2&#45;&gt;Node3 -->
<g id="edge2" class="edge"><title>Node2&#45;&gt;Node3</title>
<path fill="none" stroke="midnightblue" d="M300.259,-37.5572C308.802,-38.5977 317.469,-39.6533 325.847,-40.6736"/>
<polygon fill="midnightblue" stroke="midnightblue" points="300.664,-34.0807 290.314,-36.3459 299.817,-41.0293 300.664,-34.0807"/>
</g>
<!-- Node4 -->
<g id="node4" class="node"><title>Node4</title>
<g id="a_node4"><a xlink:href="class_statistics.html#a7f560ff5b5c152e06a3e5e831455da91" target="_top" xlink:title="Statistics::getDevJT">
<polygon fill="white" stroke="black" points="326,-0.5 326,-19.5 448,-19.5 448,-0.5 326,-0.5"/>
<text text-anchor="middle" x="387" y="-7.5" font-family="Ubuntu Mono" font-size="10.00">Statistics::getDevJT</text>
</a>
</g>
</g>
<!-- Node2&#45;&gt;Node4 -->
<g id="edge3" class="edge"><title>Node2&#45;&gt;Node4</title>
<path fill="none" stroke="midnightblue" d="M300.259,-20.4428C308.802,-19.4023 317.469,-18.3467 325.847,-17.3264"/>
<polygon fill="midnightblue" stroke="midnightblue" points="299.817,-16.9707 290.314,-21.6541 300.664,-23.9193 299.817,-16.9707"/>
</g>
</g>
</svg>
