<?xml version="1.0" encoding="UTF-8" standalone="no"?>
<!DOCTYPE svg PUBLIC "-//W3C//DTD SVG 1.1//EN"
 "http://www.w3.org/Graphics/SVG/1.1/DTD/svg11.dtd">
<!-- Generated by graphviz version 2.38.0 (20140413.2041)
 -->
<!-- Title: Statistics::getDevJT Pages: 1 -->
<svg width="412pt" height="28pt"
 viewBox="0.00 0.00 412.00 28.00" xmlns="http://www.w3.org/2000/svg" xmlns:xlink="http://www.w3.org/1999/xlink">
<g id="graph0" class="graph" transform="scale(1 1) rotate(0) translate(4 24)">
<title>Statistics::getDevJT</title>
<polygon fill="white" stroke="none" points="-4,4 -4,-24 408,-24 408,4 -4,4"/>
<!-- Node1 -->
<g id="node1" class="node"><title>Node1</title>
<polygon fill="#bfbfbf" stroke="black" points="0,-0.5 0,-19.5 107,-19.5 107,-0.5 0,-0.5"/>
<text text-anchor="middle" x="53.5" y="-7.5" font-family="Helvetica,sans-Serif" font-size="10.00">Statistics::getDevJT</text>
</g>
<!-- Node2 -->
<g id="node2" class="node"><title>Node2</title>
<g id="a_node2"><a xlink:href="class_statistics.html#a5ed129f73662604d79465dade30577cc" target="_top" xlink:title="Statistics::getAvgWT">
<polygon fill="white" stroke="black" points="143,-0.5 143,-19.5 253,-19.5 253,-0.5 143,-0.5"/>
<text text-anchor="middle" x="198" y="-7.5" font-family="Helvetica,sans-Serif" font-size="10.00">Statistics::getAvgWT</text>
</a>
</g>
</g>
<!-- Node1&#45;&gt;Node2 -->
<g id="edge1" class="edge"><title>Node1&#45;&gt;Node2</title>
<path fill="none" stroke="midnightblue" d="M107.157,-10C115.386,-10 123.971,-10 132.43,-10"/>
<polygon fill="midnightblue" stroke="midnightblue" points="132.652,-13.5001 142.652,-10 132.652,-6.5001 132.652,-13.5001"/>
</g>
<!-- Node3 -->
<g id="node3" class="node"><title>Node3</title>
<g id="a_node3"><a xlink:href="class_statistics.html#aa9a9a9daa51c577da9732823b8720ac4" target="_top" xlink:title="Statistics::getTotalWT">
<polygon fill="white" stroke="black" points="289,-0.5 289,-19.5 404,-19.5 404,-0.5 289,-0.5"/>
<text text-anchor="middle" x="346.5" y="-7.5" font-family="Helvetica,sans-Serif" font-size="10.00">Statistics::getTotalWT</text>
</a>
</g>
</g>
<!-- Node2&#45;&gt;Node3 -->
<g id="edge2" class="edge"><title>Node2&#45;&gt;Node3</title>
<path fill="none" stroke="midnightblue" d="M253.135,-10C261.364,-10 269.938,-10 278.402,-10"/>
<polygon fill="midnightblue" stroke="midnightblue" points="278.641,-13.5001 288.641,-10 278.641,-6.5001 278.641,-13.5001"/>
</g>
</g>
</svg>
