<?xml version="1.0" encoding="UTF-8" standalone="no"?>
<!DOCTYPE svg PUBLIC "-//W3C//DTD SVG 1.1//EN"
 "http://www.w3.org/Graphics/SVG/1.1/DTD/svg11.dtd">
<!-- Generated by graphviz version 2.38.0 (20140413.2041)
 -->
<!-- Title: Simulator::run Pages: 1 -->
<svg width="461pt" height="154pt"
 viewBox="0.00 0.00 461.00 153.50" xmlns="http://www.w3.org/2000/svg" xmlns:xlink="http://www.w3.org/1999/xlink">
<g id="graph0" class="graph" transform="scale(1 1) rotate(0) translate(4 149.5)">
<title>Simulator::run</title>
<polygon fill="white" stroke="none" points="-4,4 -4,-149.5 457,-149.5 457,4 -4,4"/>
<!-- Node1 -->
<g id="node1" class="node"><title>Node1</title>
<polygon fill="#bfbfbf" stroke="black" points="0,-69 0,-88 90,-88 90,-69 0,-69"/>
<text text-anchor="middle" x="45" y="-76" font-family="Ubuntu Mono" font-size="10.00">Simulator::run</text>
</g>
<!-- Node2 -->
<g id="node2" class="node"><title>Node2</title>
<g id="a_node2"><a xlink:href="class_simulator.html#a7a8ed7267e6892f0d16c9ffe8b16a353" target="_top" xlink:title="Simulator::createBuilding">
<polygon fill="white" stroke="black" points="126,-69 126,-88 274,-88 274,-69 126,-69"/>
<text text-anchor="middle" x="200" y="-76" font-family="Ubuntu Mono" font-size="10.00">Simulator::createBuilding</text>
</a>
</g>
</g>
<!-- Node1&#45;&gt;Node2 -->
<g id="edge1" class="edge"><title>Node1&#45;&gt;Node2</title>
<path fill="none" stroke="midnightblue" d="M90.2539,-78.5C98.2466,-78.5 106.814,-78.5 115.503,-78.5"/>
<polygon fill="midnightblue" stroke="midnightblue" points="115.731,-82.0001 125.731,-78.5 115.731,-75.0001 115.731,-82.0001"/>
</g>
<!-- Node3 -->
<g id="node3" class="node"><title>Node3</title>
<g id="a_node3"><a xlink:href="class_floor.html#a294df3a0179a79c3a9a2765418368d03" target="_top" xlink:title="Floor::create">
<polygon fill="white" stroke="black" points="339,-126 339,-145 424,-145 424,-126 339,-126"/>
<text text-anchor="middle" x="381.5" y="-133" font-family="Ubuntu Mono" font-size="10.00">Floor::create</text>
</a>
</g>
</g>
<!-- Node2&#45;&gt;Node3 -->
<g id="edge2" class="edge"><title>Node2&#45;&gt;Node3</title>
<path fill="none" stroke="midnightblue" d="M226.814,-88.0902C248.791,-96.1125 281.276,-107.635 310,-116.5 317.495,-118.813 325.485,-121.118 333.293,-123.283"/>
<polygon fill="midnightblue" stroke="midnightblue" points="332.467,-126.686 343.036,-125.942 334.31,-119.933 332.467,-126.686"/>
</g>
<!-- Node4 -->
<g id="node4" class="node"><title>Node4</title>
<g id="a_node4"><a xlink:href="class_elevator.html#a6a5d8cb3159ee98e343042df0ff7f2ba" target="_top" xlink:title="Elevator::create">
<polygon fill="white" stroke="black" points="331,-88 331,-107 432,-107 432,-88 331,-88"/>
<text text-anchor="middle" x="381.5" y="-95" font-family="Ubuntu Mono" font-size="10.00">Elevator::create</text>
</a>
</g>
</g>
<!-- Node2&#45;&gt;Node4 -->
<g id="edge3" class="edge"><title>Node2&#45;&gt;Node4</title>
<path fill="none" stroke="midnightblue" d="M274.01,-86.228C289.545,-87.8725 305.775,-89.5904 320.747,-91.1751"/>
<polygon fill="midnightblue" stroke="midnightblue" points="320.574,-94.6763 330.886,-92.2484 321.31,-87.7152 320.574,-94.6763"/>
</g>
<!-- Node5 -->
<g id="node5" class="node"><title>Node5</title>
<g id="a_node5"><a xlink:href="class_scheduler_creator.html#a091006529e65ae50ce7bb8e97b6494dc" target="_top" xlink:title="SchedulerCreator::create">
<polygon fill="white" stroke="black" points="310,-50 310,-69 453,-69 453,-50 310,-50"/>
<text text-anchor="middle" x="381.5" y="-57" font-family="Ubuntu Mono" font-size="10.00">SchedulerCreator::create</text>
</a>
</g>
</g>
<!-- Node2&#45;&gt;Node5 -->
<g id="edge4" class="edge"><title>Node2&#45;&gt;Node5</title>
<path fill="none" stroke="midnightblue" d="M274.01,-70.772C282.521,-69.8711 291.24,-68.9481 299.847,-68.0371"/>
<polygon fill="midnightblue" stroke="midnightblue" points="300.303,-71.5085 309.879,-66.9752 299.566,-64.5474 300.303,-71.5085"/>
</g>
<!-- Node6 -->
<g id="node6" class="node"><title>Node6</title>
<g id="a_node6"><a xlink:href="class_cost_function_creator.html#a2f73ed3b5e34c2cfa891849ab62adda5" target="_top" xlink:title="CostFunctionCreator\l::create">
<polygon fill="white" stroke="black" points="323.5,-0.5 323.5,-30.5 439.5,-30.5 439.5,-0.5 323.5,-0.5"/>
<text text-anchor="start" x="331.5" y="-18.5" font-family="Ubuntu Mono" font-size="10.00">CostFunctionCreator</text>
<text text-anchor="middle" x="381.5" y="-7.5" font-family="Ubuntu Mono" font-size="10.00">::create</text>
</a>
</g>
</g>
<!-- Node2&#45;&gt;Node6 -->
<g id="edge5" class="edge"><title>Node2&#45;&gt;Node6</title>
<path fill="none" stroke="midnightblue" d="M228.262,-68.9317C254.571,-59.698 295.101,-45.4729 327.729,-34.0213"/>
<polygon fill="midnightblue" stroke="midnightblue" points="329.3,-37.1793 337.577,-30.565 326.982,-30.5743 329.3,-37.1793"/>
</g>
</g>
</svg>
