<?xml version="1.0" encoding="UTF-8" standalone="no"?>
<!DOCTYPE svg PUBLIC "-//W3C//DTD SVG 1.1//EN"
 "http://www.w3.org/Graphics/SVG/1.1/DTD/svg11.dtd">
<!-- Generated by graphviz version 2.38.0 (20140413.2041)
 -->
<!-- Title: Statistics::getTotalWT Pages: 1 -->
<svg width="416pt" height="66pt"
 viewBox="0.00 0.00 416.00 66.00" xmlns="http://www.w3.org/2000/svg" xmlns:xlink="http://www.w3.org/1999/xlink">
<g id="graph0" class="graph" transform="scale(1 1) rotate(0) translate(4 62)">
<title>Statistics::getTotalWT</title>
<polygon fill="white" stroke="none" points="-4,4 -4,-62 412,-62 412,4 -4,4"/>
<!-- Node1 -->
<g id="node1" class="node"><title>Node1</title>
<polygon fill="#bfbfbf" stroke="black" points="0,-19.5 0,-38.5 115,-38.5 115,-19.5 0,-19.5"/>
<text text-anchor="middle" x="57.5" y="-26.5" font-family="Helvetica,sans-Serif" font-size="10.00">Statistics::getTotalWT</text>
</g>
<!-- Node2 -->
<g id="node2" class="node"><title>Node2</title>
<g id="a_node2"><a xlink:href="class_statistics.html#a5ed129f73662604d79465dade30577cc" target="_top" xlink:title="Statistics::getAvgWT">
<polygon fill="white" stroke="black" points="151,-19.5 151,-38.5 261,-38.5 261,-19.5 151,-19.5"/>
<text text-anchor="middle" x="206" y="-26.5" font-family="Helvetica,sans-Serif" font-size="10.00">Statistics::getAvgWT</text>
</a>
</g>
</g>
<!-- Node1&#45;&gt;Node2 -->
<g id="edge1" class="edge"><title>Node1&#45;&gt;Node2</title>
<path fill="none" stroke="midnightblue" d="M125.174,-29C133.793,-29 142.534,-29 150.915,-29"/>
<polygon fill="midnightblue" stroke="midnightblue" points="125.141,-25.5001 115.141,-29 125.141,-32.5001 125.141,-25.5001"/>
</g>
<!-- Node3 -->
<g id="node3" class="node"><title>Node3</title>
<g id="a_node3"><a xlink:href="class_statistics.html#ad855ad97545c2edcc2f344efe8f8d152" target="_top" xlink:title="Statistics::getDevWT">
<polygon fill="white" stroke="black" points="297,-38.5 297,-57.5 408,-57.5 408,-38.5 297,-38.5"/>
<text text-anchor="middle" x="352.5" y="-45.5" font-family="Helvetica,sans-Serif" font-size="10.00">Statistics::getDevWT</text>
</a>
</g>
</g>
<!-- Node2&#45;&gt;Node3 -->
<g id="edge2" class="edge"><title>Node2&#45;&gt;Node3</title>
<path fill="none" stroke="midnightblue" d="M271.213,-37.4432C279.813,-38.574 288.567,-39.725 296.979,-40.8311"/>
<polygon fill="midnightblue" stroke="midnightblue" points="271.589,-33.9626 261.218,-36.129 270.676,-40.9028 271.589,-33.9626"/>
</g>
<!-- Node4 -->
<g id="node4" class="node"><title>Node4</title>
<g id="a_node4"><a xlink:href="class_statistics.html#a7f560ff5b5c152e06a3e5e831455da91" target="_top" xlink:title="Statistics::getDevJT">
<polygon fill="white" stroke="black" points="299,-0.5 299,-19.5 406,-19.5 406,-0.5 299,-0.5"/>
<text text-anchor="middle" x="352.5" y="-7.5" font-family="Helvetica,sans-Serif" font-size="10.00">Statistics::getDevJT</text>
</a>
</g>
</g>
<!-- Node2&#45;&gt;Node4 -->
<g id="edge3" class="edge"><title>Node2&#45;&gt;Node4</title>
<path fill="none" stroke="midnightblue" d="M271.174,-20.5618C280.442,-19.3432 289.89,-18.101 298.896,-16.9168"/>
<polygon fill="midnightblue" stroke="midnightblue" points="270.676,-17.0972 261.218,-21.871 271.589,-24.0374 270.676,-17.0972"/>
</g>
</g>
</svg>
