<?xml version="1.0" encoding="UTF-8" standalone="no"?>
<!DOCTYPE svg PUBLIC "-//W3C//DTD SVG 1.1//EN"
 "http://www.w3.org/Graphics/SVG/1.1/DTD/svg11.dtd">
<!-- Generated by graphviz version 2.38.0 (20140413.2041)
 -->
<!-- Title: Scheduler::getAvailableElevators Pages: 1 -->
<svg width="377pt" height="78pt"
 viewBox="0.00 0.00 377.00 77.50" xmlns="http://www.w3.org/2000/svg" xmlns:xlink="http://www.w3.org/1999/xlink">
<g id="graph0" class="graph" transform="scale(1 1) rotate(0) translate(4 73.5)">
<title>Scheduler::getAvailableElevators</title>
<polygon fill="white" stroke="none" points="-4,4 -4,-73.5 373,-73.5 373,4 -4,4"/>
<!-- Node1 -->
<g id="node1" class="node"><title>Node1</title>
<polygon fill="#bfbfbf" stroke="black" points="0,-22.5 0,-41.5 185,-41.5 185,-22.5 0,-22.5"/>
<text text-anchor="middle" x="92.5" y="-29.5" font-family="Ubuntu Mono" font-size="10.00">Scheduler::getAvailableElevators</text>
</g>
<!-- Node2 -->
<g id="node2" class="node"><title>Node2</title>
<g id="a_node2"><a xlink:href="class_planning_scheduler.html#a30e0bb81405e162e596e428cb2a6c1e3" target="_top" xlink:title="PlanningScheduler::\lschedule">
<polygon fill="white" stroke="black" points="237,-39 237,-69 353,-69 353,-39 237,-39"/>
<text text-anchor="start" x="245" y="-57" font-family="Ubuntu Mono" font-size="10.00">PlanningScheduler::</text>
<text text-anchor="middle" x="295" y="-46" font-family="Ubuntu Mono" font-size="10.00">schedule</text>
</a>
</g>
</g>
<!-- Node1&#45;&gt;Node2 -->
<g id="edge1" class="edge"><title>Node1&#45;&gt;Node2</title>
<path fill="none" stroke="midnightblue" d="M190.651,-42.6599C206.486,-44.3974 222.424,-46.1463 236.883,-47.7328"/>
<polygon fill="midnightblue" stroke="midnightblue" points="190.598,-39.1332 180.276,-41.5216 189.835,-46.0915 190.598,-39.1332"/>
</g>
<!-- Node3 -->
<g id="node3" class="node"><title>Node3</title>
<g id="a_node3"><a xlink:href="class_simple_scheduler.html#a76990bffc6cf70197e96d41535ebf260" target="_top" xlink:title="SimpleScheduler::schedule">
<polygon fill="white" stroke="black" points="221,-0.5 221,-19.5 369,-19.5 369,-0.5 221,-0.5"/>
<text text-anchor="middle" x="295" y="-7.5" font-family="Ubuntu Mono" font-size="10.00">SimpleScheduler::schedule</text>
</a>
</g>
</g>
<!-- Node1&#45;&gt;Node3 -->
<g id="edge2" class="edge"><title>Node1&#45;&gt;Node3</title>
<path fill="none" stroke="midnightblue" d="M190.483,-21.3585C200.721,-20.2351 211.005,-19.1067 220.906,-18.0203"/>
<polygon fill="midnightblue" stroke="midnightblue" points="189.835,-17.9085 180.276,-22.4784 190.598,-24.8668 189.835,-17.9085"/>
</g>
</g>
</svg>
