<?xml version="1.0" encoding="UTF-8" standalone="no"?>
<!DOCTYPE svg PUBLIC "-//W3C//DTD SVG 1.1//EN"
 "http://www.w3.org/Graphics/SVG/1.1/DTD/svg11.dtd">
<!-- Generated by graphviz version 2.38.0 (20140413.2041)
 -->
<!-- Title: SimpleScheduler Pages: 1 -->
<svg width="133pt" height="287pt"
 viewBox="0.00 0.00 133.00 287.00" xmlns="http://www.w3.org/2000/svg" xmlns:xlink="http://www.w3.org/1999/xlink">
<g id="graph0" class="graph" transform="scale(1 1) rotate(0) translate(4 283)">
<title>SimpleScheduler</title>
<polygon fill="white" stroke="none" points="-4,4 -4,-283 129,-283 129,4 -4,4"/>
<!-- Node1 -->
<g id="node1" class="node"><title>Node1</title>
<polygon fill="#bfbfbf" stroke="black" points="17.5,-0.5 17.5,-57.5 107.5,-57.5 107.5,-0.5 17.5,-0.5"/>
<text text-anchor="middle" x="62.5" y="-45.5" font-family="Helvetica,sans-Serif" font-size="10.00">SimpleScheduler</text>
<polyline fill="none" stroke="black" points="17.5,-38.5 107.5,-38.5 "/>
<text text-anchor="middle" x="62.5" y="-26.5" font-family="Helvetica,sans-Serif" font-size="10.00"> </text>
<polyline fill="none" stroke="black" points="17.5,-19.5 107.5,-19.5 "/>
<text text-anchor="start" x="25.5" y="-7.5" font-family="Helvetica,sans-Serif" font-size="10.00">+ schedule()</text>
</g>
<!-- Node2 -->
<g id="node2" class="node"><title>Node2</title>
<g id="a_node2"><a xlink:href="class_scheduler.html" target="_top" xlink:title="{Scheduler\n||+ Scheduler()\l+ schedule()\l# getAvailableElevators()\l}">
<polygon fill="white" stroke="black" points="-7.10543e-15,-94.5 -7.10543e-15,-173.5 125,-173.5 125,-94.5 -7.10543e-15,-94.5"/>
<text text-anchor="middle" x="62.5" y="-161.5" font-family="Helvetica,sans-Serif" font-size="10.00">Scheduler</text>
<polyline fill="none" stroke="black" points="-7.10543e-15,-154.5 125,-154.5 "/>
<text text-anchor="middle" x="62.5" y="-142.5" font-family="Helvetica,sans-Serif" font-size="10.00"> </text>
<polyline fill="none" stroke="black" points="-7.10543e-15,-135.5 125,-135.5 "/>
<text text-anchor="start" x="8" y="-123.5" font-family="Helvetica,sans-Serif" font-size="10.00">+ Scheduler()</text>
<text text-anchor="start" x="8" y="-112.5" font-family="Helvetica,sans-Serif" font-size="10.00">+ schedule()</text>
<text text-anchor="start" x="8" y="-101.5" font-family="Helvetica,sans-Serif" font-size="10.00"># getAvailableElevators()</text>
</a>
</g>
</g>
<!-- Node2&#45;&gt;Node1 -->
<g id="edge1" class="edge"><title>Node2&#45;&gt;Node1</title>
<path fill="none" stroke="midnightblue" d="M62.5,-84.1628C62.5,-75.0404 62.5,-65.8063 62.5,-57.6095"/>
<polygon fill="none" stroke="midnightblue" points="59.0001,-84.3535 62.5,-94.3536 66.0001,-84.3536 59.0001,-84.3535"/>
</g>
<!-- Node3 -->
<g id="node3" class="node"><title>Node3</title>
<polygon fill="white" stroke="#bfbfbf" points="0.5,-210.5 0.5,-278.5 124.5,-278.5 124.5,-210.5 0.5,-210.5"/>
<text text-anchor="start" x="8.5" y="-266.5" font-family="Helvetica,sans-Serif" font-size="10.00">std::enable_shared</text>
<text text-anchor="middle" x="62.5" y="-255.5" font-family="Helvetica,sans-Serif" font-size="10.00">_from_this&lt; Scheduler &gt;</text>
<polyline fill="none" stroke="#bfbfbf" points="0.5,-248.5 124.5,-248.5 "/>
<text text-anchor="middle" x="62.5" y="-236.5" font-family="Helvetica,sans-Serif" font-size="10.00"> </text>
<polyline fill="none" stroke="#bfbfbf" points="0.5,-229.5 124.5,-229.5 "/>
<text text-anchor="middle" x="62.5" y="-217.5" font-family="Helvetica,sans-Serif" font-size="10.00"> </text>
</g>
<!-- Node3&#45;&gt;Node2 -->
<g id="edge2" class="edge"><title>Node3&#45;&gt;Node2</title>
<path fill="none" stroke="midnightblue" d="M62.5,-200.274C62.5,-191.476 62.5,-182.275 62.5,-173.649"/>
<polygon fill="none" stroke="midnightblue" points="59.0001,-200.357 62.5,-210.357 66.0001,-200.357 59.0001,-200.357"/>
</g>
</g>
</svg>
