<?xml version="1.0" encoding="UTF-8" standalone="no"?>
<!DOCTYPE svg PUBLIC "-//W3C//DTD SVG 1.1//EN"
 "http://www.w3.org/Graphics/SVG/1.1/DTD/svg11.dtd">
<!-- Generated by graphviz version 2.38.0 (20140413.2041)
 -->
<!-- Title: Reporter::generate Pages: 1 -->
<svg width="279pt" height="192pt"
 viewBox="0.00 0.00 279.00 191.50" xmlns="http://www.w3.org/2000/svg" xmlns:xlink="http://www.w3.org/1999/xlink">
<g id="graph0" class="graph" transform="scale(1 1) rotate(0) translate(4 187.5)">
<title>Reporter::generate</title>
<polygon fill="white" stroke="none" points="-4,4 -4,-187.5 275,-187.5 275,4 -4,4"/>
<!-- Node1 -->
<g id="node1" class="node"><title>Node1</title>
<polygon fill="#bfbfbf" stroke="black" points="0,-76.5 0,-95.5 98,-95.5 98,-76.5 0,-76.5"/>
<text text-anchor="middle" x="49" y="-83.5" font-family="Helvetica,sans-Serif" font-size="10.00">Reporter::generate</text>
</g>
<!-- Node2 -->
<g id="node2" class="node"><title>Node2</title>
<g id="a_node2"><a xlink:href="class_reporter.html#a8e68557b65c53ba700eaa9c3a9933df6" target="_top" xlink:title="Reporter::generateUnified\lReport">
<polygon fill="white" stroke="black" points="138.5,-153 138.5,-183 266.5,-183 266.5,-153 138.5,-153"/>
<text text-anchor="start" x="146.5" y="-171" font-family="Helvetica,sans-Serif" font-size="10.00">Reporter::generateUnified</text>
<text text-anchor="middle" x="202.5" y="-160" font-family="Helvetica,sans-Serif" font-size="10.00">Report</text>
</a>
</g>
</g>
<!-- Node1&#45;&gt;Node2 -->
<g id="edge1" class="edge"><title>Node1&#45;&gt;Node2</title>
<path fill="none" stroke="midnightblue" d="M62.2156,-95.6888C78.0613,-107.92 106.892,-129.044 134,-143 138.047,-145.083 142.308,-147.08 146.642,-148.972"/>
<polygon fill="midnightblue" stroke="midnightblue" points="145.61,-152.334 156.187,-152.942 148.298,-145.87 145.61,-152.334"/>
</g>
<!-- Node3 -->
<g id="node3" class="node"><title>Node3</title>
<g id="a_node3"><a xlink:href="class_reporter.html#a69fa8649211b4e4c7441fd1f6c9042e2" target="_top" xlink:title="Reporter::generateReport">
<polygon fill="white" stroke="black" points="139,-114.5 139,-133.5 266,-133.5 266,-114.5 139,-114.5"/>
<text text-anchor="middle" x="202.5" y="-121.5" font-family="Helvetica,sans-Serif" font-size="10.00">Reporter::generateReport</text>
</a>
</g>
</g>
<!-- Node1&#45;&gt;Node3 -->
<g id="edge2" class="edge"><title>Node1&#45;&gt;Node3</title>
<path fill="none" stroke="midnightblue" d="M88.2298,-95.589C108.132,-100.581 132.657,-106.732 153.791,-112.033"/>
<polygon fill="midnightblue" stroke="midnightblue" points="152.994,-115.442 163.545,-114.48 154.697,-108.652 152.994,-115.442"/>
</g>
<!-- Node4 -->
<g id="node4" class="node"><title>Node4</title>
<g id="a_node4"><a xlink:href="class_reporter.html#a0e3c710580b4cae4f70a8cc3b8e7473a" target="_top" xlink:title="Reporter::generateArrivals">
<polygon fill="white" stroke="black" points="137,-76.5 137,-95.5 268,-95.5 268,-76.5 137,-76.5"/>
<text text-anchor="middle" x="202.5" y="-83.5" font-family="Helvetica,sans-Serif" font-size="10.00">Reporter::generateArrivals</text>
</a>
</g>
</g>
<!-- Node1&#45;&gt;Node4 -->
<g id="edge3" class="edge"><title>Node1&#45;&gt;Node4</title>
<path fill="none" stroke="midnightblue" d="M98.3521,-86C107.414,-86 117.081,-86 126.727,-86"/>
<polygon fill="midnightblue" stroke="midnightblue" points="126.745,-89.5001 136.745,-86 126.745,-82.5001 126.745,-89.5001"/>
</g>
<!-- Node5 -->
<g id="node5" class="node"><title>Node5</title>
<g id="a_node5"><a xlink:href="class_reporter.html#a75934d0909b242ef77d4ee8e850af0fe" target="_top" xlink:title="Reporter::generateDropOffs">
<polygon fill="white" stroke="black" points="134,-38.5 134,-57.5 271,-57.5 271,-38.5 134,-38.5"/>
<text text-anchor="middle" x="202.5" y="-45.5" font-family="Helvetica,sans-Serif" font-size="10.00">Reporter::generateDropOffs</text>
</a>
</g>
</g>
<!-- Node1&#45;&gt;Node5 -->
<g id="edge4" class="edge"><title>Node1&#45;&gt;Node5</title>
<path fill="none" stroke="midnightblue" d="M88.2298,-76.411C108.132,-71.4191 132.657,-65.2676 153.791,-59.9666"/>
<polygon fill="midnightblue" stroke="midnightblue" points="154.697,-63.3479 163.545,-57.5201 152.994,-56.5582 154.697,-63.3479"/>
</g>
<!-- Node6 -->
<g id="node6" class="node"><title>Node6</title>
<g id="a_node6"><a xlink:href="class_reporter.html#a314e30d2dacb907197f8446422981d37" target="_top" xlink:title="Reporter::generateCharts">
<polygon fill="white" stroke="black" points="139,-0.5 139,-19.5 266,-19.5 266,-0.5 139,-0.5"/>
<text text-anchor="middle" x="202.5" y="-7.5" font-family="Helvetica,sans-Serif" font-size="10.00">Reporter::generateCharts</text>
</a>
</g>
</g>
<!-- Node1&#45;&gt;Node6 -->
<g id="edge5" class="edge"><title>Node1&#45;&gt;Node6</title>
<path fill="none" stroke="midnightblue" d="M61.5076,-76.3978C77.0497,-63.866 106.034,-42.0052 134,-29 139.036,-26.6578 144.422,-24.547 149.872,-22.6595"/>
<polygon fill="midnightblue" stroke="midnightblue" points="151.242,-25.8955 159.689,-19.5013 149.098,-19.2318 151.242,-25.8955"/>
</g>
</g>
</svg>
