<?xml version="1.0" encoding="UTF-8" standalone="no"?>
<!DOCTYPE svg PUBLIC "-//W3C//DTD SVG 1.1//EN"
 "http://www.w3.org/Graphics/SVG/1.1/DTD/svg11.dtd">
<!-- Generated by graphviz version 2.38.0 (20140413.2041)
 -->
<!-- Title: StopManager::StopManager Pages: 1 -->
<svg width="456pt" height="66pt"
 viewBox="0.00 0.00 456.00 66.00" xmlns="http://www.w3.org/2000/svg" xmlns:xlink="http://www.w3.org/1999/xlink">
<g id="graph0" class="graph" transform="scale(1 1) rotate(0) translate(4 62)">
<title>StopManager::StopManager</title>
<polygon fill="white" stroke="none" points="-4,4 -4,-62 452,-62 452,4 -4,4"/>
<!-- Node1 -->
<g id="node1" class="node"><title>Node1</title>
<polygon fill="#bfbfbf" stroke="black" points="0,-19.5 0,-38.5 138,-38.5 138,-19.5 0,-19.5"/>
<text text-anchor="middle" x="69" y="-26.5" font-family="Helvetica,sans-Serif" font-size="10.00">StopManager::StopManager</text>
</g>
<!-- Node2 -->
<g id="node2" class="node"><title>Node2</title>
<g id="a_node2"><a xlink:href="class_stop_manager.html#aa3e13139314a4cb7f64c1e4298d9eed4" target="_top" xlink:title="StopManager::getStops">
<polygon fill="white" stroke="black" points="174,-38.5 174,-57.5 293,-57.5 293,-38.5 174,-38.5"/>
<text text-anchor="middle" x="233.5" y="-45.5" font-family="Helvetica,sans-Serif" font-size="10.00">StopManager::getStops</text>
</a>
</g>
</g>
<!-- Node1&#45;&gt;Node2 -->
<g id="edge1" class="edge"><title>Node1&#45;&gt;Node2</title>
<path fill="none" stroke="midnightblue" d="M138.444,-37.0026C146.83,-37.9832 155.403,-38.9856 163.794,-39.9667"/>
<polygon fill="midnightblue" stroke="midnightblue" points="163.574,-43.4647 173.913,-41.1498 164.387,-36.5121 163.574,-43.4647"/>
</g>
<!-- Node3 -->
<g id="node3" class="node"><title>Node3</title>
<g id="a_node3"><a xlink:href="class_stop_manager.html#a2c22b4194c71d20793efbb69be1ba548" target="_top" xlink:title="StopManager::set">
<polygon fill="white" stroke="black" points="186.5,-0.5 186.5,-19.5 280.5,-19.5 280.5,-0.5 186.5,-0.5"/>
<text text-anchor="middle" x="233.5" y="-7.5" font-family="Helvetica,sans-Serif" font-size="10.00">StopManager::set</text>
</a>
</g>
</g>
<!-- Node1&#45;&gt;Node3 -->
<g id="edge2" class="edge"><title>Node1&#45;&gt;Node3</title>
<path fill="none" stroke="midnightblue" d="M138.444,-20.9974C151.048,-19.5236 164.074,-18.0006 176.267,-16.575"/>
<polygon fill="midnightblue" stroke="midnightblue" points="176.76,-20.0413 186.286,-15.4035 175.947,-13.0886 176.76,-20.0413"/>
</g>
<!-- Node4 -->
<g id="node4" class="node"><title>Node4</title>
<g id="a_node4"><a xlink:href="namespace_helpers.html#a2c85394d10f1877f982ae21bc65ee601" target="_top" xlink:title="Helpers::directionName">
<polygon fill="white" stroke="black" points="329,-0.5 329,-19.5 448,-19.5 448,-0.5 329,-0.5"/>
<text text-anchor="middle" x="388.5" y="-7.5" font-family="Helvetica,sans-Serif" font-size="10.00">Helpers::directionName</text>
</a>
</g>
</g>
<!-- Node3&#45;&gt;Node4 -->
<g id="edge3" class="edge"><title>Node3&#45;&gt;Node4</title>
<path fill="none" stroke="midnightblue" d="M280.82,-10C292.757,-10 305.861,-10 318.676,-10"/>
<polygon fill="midnightblue" stroke="midnightblue" points="318.862,-13.5001 328.862,-10 318.862,-6.5001 318.862,-13.5001"/>
</g>
</g>
</svg>
