<?xml version="1.0" encoding="UTF-8" standalone="no"?>
<!DOCTYPE svg PUBLIC "-//W3C//DTD SVG 1.1//EN"
 "http://www.w3.org/Graphics/SVG/1.1/DTD/svg11.dtd">
<!-- Generated by graphviz version 2.38.0 (20140413.2041)
 -->
<!-- Title: Building Pages: 1 -->
<svg width="244pt" height="248pt"
 viewBox="0.00 0.00 243.50 248.00" xmlns="http://www.w3.org/2000/svg" xmlns:xlink="http://www.w3.org/1999/xlink">
<g id="graph0" class="graph" transform="scale(1 1) rotate(0) translate(4 244)">
<title>Building</title>
<polygon fill="white" stroke="none" points="-4,4 -4,-244 239.5,-244 239.5,4 -4,4"/>
<!-- Node1 -->
<g id="node1" class="node"><title>Node1</title>
<polygon fill="#bfbfbf" stroke="black" points="39.5,-0.5 39.5,-134.5 171.5,-134.5 171.5,-0.5 39.5,-0.5"/>
<text text-anchor="middle" x="105.5" y="-122.5" font-family="Ubuntu Mono" font-size="10.00">Building</text>
<polyline fill="none" stroke="black" points="39.5,-115.5 171.5,-115.5 "/>
<text text-anchor="middle" x="105.5" y="-103.5" font-family="Ubuntu Mono" font-size="10.00"> </text>
<polyline fill="none" stroke="black" points="39.5,-96.5 171.5,-96.5 "/>
<text text-anchor="start" x="47.5" y="-84.5" font-family="Ubuntu Mono" font-size="10.00">+ Building()</text>
<text text-anchor="start" x="47.5" y="-73.5" font-family="Ubuntu Mono" font-size="10.00">+ ~Building()</text>
<text text-anchor="start" x="47.5" y="-62.5" font-family="Ubuntu Mono" font-size="10.00">+ getElevators()</text>
<text text-anchor="start" x="47.5" y="-51.5" font-family="Ubuntu Mono" font-size="10.00">+ getFloors()</text>
<text text-anchor="start" x="47.5" y="-40.5" font-family="Ubuntu Mono" font-size="10.00">+ getFloor()</text>
<text text-anchor="start" x="47.5" y="-29.5" font-family="Ubuntu Mono" font-size="10.00">+ getElevator()</text>
<text text-anchor="start" x="47.5" y="-18.5" font-family="Ubuntu Mono" font-size="10.00">+ notify()</text>
<text text-anchor="start" x="47.5" y="-7.5" font-family="Ubuntu Mono" font-size="10.00">+ initializeArrivals()</text>
</g>
<!-- Node2 -->
<g id="node2" class="node"><title>Node2</title>
<g id="a_node2"><a xlink:href="class_event_observer.html" target="_top" xlink:title="{EventObserver\n||+ notify()\l}">
<polygon fill="white" stroke="black" points="0,-177 0,-234 85,-234 85,-177 0,-177"/>
<text text-anchor="middle" x="42.5" y="-222" font-family="Ubuntu Mono" font-size="10.00">EventObserver</text>
<polyline fill="none" stroke="black" points="0,-215 85,-215 "/>
<text text-anchor="middle" x="42.5" y="-203" font-family="Ubuntu Mono" font-size="10.00"> </text>
<polyline fill="none" stroke="black" points="0,-196 85,-196 "/>
<text text-anchor="start" x="8" y="-184" font-family="Ubuntu Mono" font-size="10.00">+ notify()</text>
</a>
</g>
</g>
<!-- Node2&#45;&gt;Node1 -->
<g id="edge1" class="edge"><title>Node2&#45;&gt;Node1</title>
<path fill="none" stroke="midnightblue" d="M59.5827,-167.623C64.2981,-157.444 69.5632,-146.078 74.7988,-134.776"/>
<polygon fill="none" stroke="midnightblue" points="56.2765,-166.433 55.249,-176.978 62.6281,-169.376 56.2765,-166.433"/>
</g>
<!-- Node3 -->
<g id="node3" class="node"><title>Node3</title>
<polygon fill="white" stroke="#bfbfbf" points="103.5,-171.5 103.5,-239.5 235.5,-239.5 235.5,-171.5 103.5,-171.5"/>
<text text-anchor="start" x="111.5" y="-227.5" font-family="Ubuntu Mono" font-size="10.00">std::enable_shared</text>
<text text-anchor="middle" x="169.5" y="-216.5" font-family="Ubuntu Mono" font-size="10.00">_from_this&lt; Building &gt;</text>
<polyline fill="none" stroke="#bfbfbf" points="103.5,-209.5 235.5,-209.5 "/>
<text text-anchor="middle" x="169.5" y="-197.5" font-family="Ubuntu Mono" font-size="10.00"> </text>
<polyline fill="none" stroke="#bfbfbf" points="103.5,-190.5 235.5,-190.5 "/>
<text text-anchor="middle" x="169.5" y="-178.5" font-family="Ubuntu Mono" font-size="10.00"> </text>
</g>
<!-- Node3&#45;&gt;Node1 -->
<g id="edge2" class="edge"><title>Node3&#45;&gt;Node1</title>
<path fill="none" stroke="midnightblue" d="M149.534,-162.072C145.436,-153.364 141.03,-144.001 136.645,-134.683"/>
<polygon fill="none" stroke="midnightblue" points="146.419,-163.673 153.844,-171.231 152.753,-160.692 146.419,-163.673"/>
</g>
</g>
</svg>
