<?xml version="1.0" encoding="UTF-8" standalone="no"?>
<!DOCTYPE svg PUBLIC "-//W3C//DTD SVG 1.1//EN"
 "http://www.w3.org/Graphics/SVG/1.1/DTD/svg11.dtd">
<!-- Generated by graphviz version 2.38.0 (20140413.2041)
 -->
<!-- Title: Building Pages: 1 -->
<svg width="224pt" height="248pt"
 viewBox="0.00 0.00 223.50 248.00" xmlns="http://www.w3.org/2000/svg" xmlns:xlink="http://www.w3.org/1999/xlink">
<g id="graph0" class="graph" transform="scale(1 1) rotate(0) translate(4 244)">
<title>Building</title>
<polygon fill="white" stroke="none" points="-4,4 -4,-244 219.5,-244 219.5,4 -4,4"/>
<!-- Node1 -->
<g id="node1" class="node"><title>Node1</title>
<polygon fill="#bfbfbf" stroke="black" points="49,-0.5 49,-134.5 149,-134.5 149,-0.5 49,-0.5"/>
<text text-anchor="middle" x="99" y="-122.5" font-family="Helvetica,sans-Serif" font-size="10.00">Building</text>
<polyline fill="none" stroke="black" points="49,-115.5 149,-115.5 "/>
<text text-anchor="middle" x="99" y="-103.5" font-family="Helvetica,sans-Serif" font-size="10.00"> </text>
<polyline fill="none" stroke="black" points="49,-96.5 149,-96.5 "/>
<text text-anchor="start" x="57" y="-84.5" font-family="Helvetica,sans-Serif" font-size="10.00">+ Building()</text>
<text text-anchor="start" x="57" y="-73.5" font-family="Helvetica,sans-Serif" font-size="10.00">+ ~Building()</text>
<text text-anchor="start" x="57" y="-62.5" font-family="Helvetica,sans-Serif" font-size="10.00">+ getElevators()</text>
<text text-anchor="start" x="57" y="-51.5" font-family="Helvetica,sans-Serif" font-size="10.00">+ getFloors()</text>
<text text-anchor="start" x="57" y="-40.5" font-family="Helvetica,sans-Serif" font-size="10.00">+ getFloor()</text>
<text text-anchor="start" x="57" y="-29.5" font-family="Helvetica,sans-Serif" font-size="10.00">+ getElevator()</text>
<text text-anchor="start" x="57" y="-18.5" font-family="Helvetica,sans-Serif" font-size="10.00">+ notify()</text>
<text text-anchor="start" x="57" y="-7.5" font-family="Helvetica,sans-Serif" font-size="10.00">+ initializeArrivals()</text>
</g>
<!-- Node2 -->
<g id="node2" class="node"><title>Node2</title>
<g id="a_node2"><a xlink:href="class_event_observer.html" target="_top" xlink:title="{EventObserver\n||+ notify()\l}">
<polygon fill="white" stroke="black" points="0,-177 0,-234 82,-234 82,-177 0,-177"/>
<text text-anchor="middle" x="41" y="-222" font-family="Helvetica,sans-Serif" font-size="10.00">EventObserver</text>
<polyline fill="none" stroke="black" points="0,-215 82,-215 "/>
<text text-anchor="middle" x="41" y="-203" font-family="Helvetica,sans-Serif" font-size="10.00"> </text>
<polyline fill="none" stroke="black" points="0,-196 82,-196 "/>
<text text-anchor="start" x="8" y="-184" font-family="Helvetica,sans-Serif" font-size="10.00">+ notify()</text>
</a>
</g>
</g>
<!-- Node2&#45;&gt;Node1 -->
<g id="edge1" class="edge"><title>Node2&#45;&gt;Node1</title>
<path fill="none" stroke="midnightblue" d="M56.7269,-167.623C61.0681,-157.444 65.9153,-146.078 70.7354,-134.776"/>
<polygon fill="none" stroke="midnightblue" points="53.4406,-166.407 52.7372,-176.978 59.8795,-169.153 53.4406,-166.407"/>
</g>
<!-- Node3 -->
<g id="node3" class="node"><title>Node3</title>
<polygon fill="white" stroke="#bfbfbf" points="100.5,-171.5 100.5,-239.5 215.5,-239.5 215.5,-171.5 100.5,-171.5"/>
<text text-anchor="start" x="108.5" y="-227.5" font-family="Helvetica,sans-Serif" font-size="10.00">std::enable_shared</text>
<text text-anchor="middle" x="158" y="-216.5" font-family="Helvetica,sans-Serif" font-size="10.00">_from_this&lt; Building &gt;</text>
<polyline fill="none" stroke="#bfbfbf" points="100.5,-209.5 215.5,-209.5 "/>
<text text-anchor="middle" x="158" y="-197.5" font-family="Helvetica,sans-Serif" font-size="10.00"> </text>
<polyline fill="none" stroke="#bfbfbf" points="100.5,-190.5 215.5,-190.5 "/>
<text text-anchor="middle" x="158" y="-178.5" font-family="Helvetica,sans-Serif" font-size="10.00"> </text>
</g>
<!-- Node3&#45;&gt;Node1 -->
<g id="edge2" class="edge"><title>Node3&#45;&gt;Node1</title>
<path fill="none" stroke="midnightblue" d="M139.473,-161.793C135.729,-153.164 131.711,-143.901 127.712,-134.683"/>
<polygon fill="none" stroke="midnightblue" points="136.376,-163.45 143.567,-171.231 142.798,-160.664 136.376,-163.45"/>
</g>
</g>
</svg>
