<?xml version="1.0" encoding="UTF-8" standalone="no"?>
<!DOCTYPE svg PUBLIC "-//W3C//DTD SVG 1.1//EN"
 "http://www.w3.org/Graphics/SVG/1.1/DTD/svg11.dtd">
<!-- Generated by graphviz version 2.38.0 (20140413.2041)
 -->
<!-- Title: Statistics::getDevWT Pages: 1 -->
<svg width="416pt" height="28pt"
 viewBox="0.00 0.00 416.00 28.00" xmlns="http://www.w3.org/2000/svg" xmlns:xlink="http://www.w3.org/1999/xlink">
<g id="graph0" class="graph" transform="scale(1 1) rotate(0) translate(4 24)">
<title>Statistics::getDevWT</title>
<polygon fill="white" stroke="none" points="-4,4 -4,-24 412,-24 412,4 -4,4"/>
<!-- Node1 -->
<g id="node1" class="node"><title>Node1</title>
<polygon fill="#bfbfbf" stroke="black" points="0,-0.5 0,-19.5 111,-19.5 111,-0.5 0,-0.5"/>
<text text-anchor="middle" x="55.5" y="-7.5" font-family="Helvetica,sans-Serif" font-size="10.00">Statistics::getDevWT</text>
</g>
<!-- Node2 -->
<g id="node2" class="node"><title>Node2</title>
<g id="a_node2"><a xlink:href="class_statistics.html#a5ed129f73662604d79465dade30577cc" target="_top" xlink:title="Statistics::getAvgWT">
<polygon fill="white" stroke="black" points="147,-0.5 147,-19.5 257,-19.5 257,-0.5 147,-0.5"/>
<text text-anchor="middle" x="202" y="-7.5" font-family="Helvetica,sans-Serif" font-size="10.00">Statistics::getAvgWT</text>
</a>
</g>
</g>
<!-- Node1&#45;&gt;Node2 -->
<g id="edge1" class="edge"><title>Node1&#45;&gt;Node2</title>
<path fill="none" stroke="midnightblue" d="M111.129,-10C119.425,-10 128.051,-10 136.532,-10"/>
<polygon fill="midnightblue" stroke="midnightblue" points="136.773,-13.5001 146.773,-10 136.773,-6.5001 136.773,-13.5001"/>
</g>
<!-- Node3 -->
<g id="node3" class="node"><title>Node3</title>
<g id="a_node3"><a xlink:href="class_statistics.html#aa9a9a9daa51c577da9732823b8720ac4" target="_top" xlink:title="Statistics::getTotalWT">
<polygon fill="white" stroke="black" points="293,-0.5 293,-19.5 408,-19.5 408,-0.5 293,-0.5"/>
<text text-anchor="middle" x="350.5" y="-7.5" font-family="Helvetica,sans-Serif" font-size="10.00">Statistics::getTotalWT</text>
</a>
</g>
</g>
<!-- Node2&#45;&gt;Node3 -->
<g id="edge2" class="edge"><title>Node2&#45;&gt;Node3</title>
<path fill="none" stroke="midnightblue" d="M257.135,-10C265.364,-10 273.938,-10 282.402,-10"/>
<polygon fill="midnightblue" stroke="midnightblue" points="282.641,-13.5001 292.641,-10 282.641,-6.5001 282.641,-13.5001"/>
</g>
</g>
</svg>
