<?xml version="1.0" encoding="UTF-8" standalone="no"?>
<!DOCTYPE svg PUBLIC "-//W3C//DTD SVG 1.1//EN"
 "http://www.w3.org/Graphics/SVG/1.1/DTD/svg11.dtd">
<!-- Generated by graphviz version 2.38.0 (20140413.2041)
 -->
<!-- Title: Simulator::createBuilding Pages: 1 -->
<svg width="335pt" height="154pt"
 viewBox="0.00 0.00 335.00 153.50" xmlns="http://www.w3.org/2000/svg" xmlns:xlink="http://www.w3.org/1999/xlink">
<g id="graph0" class="graph" transform="scale(1 1) rotate(0) translate(4 149.5)">
<title>Simulator::createBuilding</title>
<polygon fill="white" stroke="none" points="-4,4 -4,-149.5 331,-149.5 331,4 -4,4"/>
<!-- Node1 -->
<g id="node1" class="node"><title>Node1</title>
<polygon fill="#bfbfbf" stroke="black" points="0,-69 0,-88 148,-88 148,-69 0,-69"/>
<text text-anchor="middle" x="74" y="-76" font-family="Ubuntu Mono" font-size="10.00">Simulator::createBuilding</text>
</g>
<!-- Node2 -->
<g id="node2" class="node"><title>Node2</title>
<g id="a_node2"><a xlink:href="class_floor.html#a294df3a0179a79c3a9a2765418368d03" target="_top" xlink:title="Floor::create">
<polygon fill="white" stroke="black" points="213,-126 213,-145 298,-145 298,-126 213,-126"/>
<text text-anchor="middle" x="255.5" y="-133" font-family="Ubuntu Mono" font-size="10.00">Floor::create</text>
</a>
</g>
</g>
<!-- Node1&#45;&gt;Node2 -->
<g id="edge1" class="edge"><title>Node1&#45;&gt;Node2</title>
<path fill="none" stroke="midnightblue" d="M100.814,-88.0902C122.791,-96.1125 155.276,-107.635 184,-116.5 191.495,-118.813 199.485,-121.118 207.293,-123.283"/>
<polygon fill="midnightblue" stroke="midnightblue" points="206.467,-126.686 217.036,-125.942 208.31,-119.933 206.467,-126.686"/>
</g>
<!-- Node3 -->
<g id="node3" class="node"><title>Node3</title>
<g id="a_node3"><a xlink:href="class_elevator.html#a6a5d8cb3159ee98e343042df0ff7f2ba" target="_top" xlink:title="Elevator::create">
<polygon fill="white" stroke="black" points="205,-88 205,-107 306,-107 306,-88 205,-88"/>
<text text-anchor="middle" x="255.5" y="-95" font-family="Ubuntu Mono" font-size="10.00">Elevator::create</text>
</a>
</g>
</g>
<!-- Node1&#45;&gt;Node3 -->
<g id="edge2" class="edge"><title>Node1&#45;&gt;Node3</title>
<path fill="none" stroke="midnightblue" d="M148.01,-86.228C163.545,-87.8725 179.775,-89.5904 194.747,-91.1751"/>
<polygon fill="midnightblue" stroke="midnightblue" points="194.574,-94.6763 204.886,-92.2484 195.31,-87.7152 194.574,-94.6763"/>
</g>
<!-- Node4 -->
<g id="node4" class="node"><title>Node4</title>
<g id="a_node4"><a xlink:href="class_scheduler_creator.html#a091006529e65ae50ce7bb8e97b6494dc" target="_top" xlink:title="SchedulerCreator::create">
<polygon fill="white" stroke="black" points="184,-50 184,-69 327,-69 327,-50 184,-50"/>
<text text-anchor="middle" x="255.5" y="-57" font-family="Ubuntu Mono" font-size="10.00">SchedulerCreator::create</text>
</a>
</g>
</g>
<!-- Node1&#45;&gt;Node4 -->
<g id="edge3" class="edge"><title>Node1&#45;&gt;Node4</title>
<path fill="none" stroke="midnightblue" d="M148.01,-70.772C156.521,-69.8711 165.24,-68.9481 173.847,-68.0371"/>
<polygon fill="midnightblue" stroke="midnightblue" points="174.303,-71.5085 183.879,-66.9752 173.566,-64.5474 174.303,-71.5085"/>
</g>
<!-- Node5 -->
<g id="node5" class="node"><title>Node5</title>
<g id="a_node5"><a xlink:href="class_cost_function_creator.html#a2f73ed3b5e34c2cfa891849ab62adda5" target="_top" xlink:title="CostFunctionCreator\l::create">
<polygon fill="white" stroke="black" points="197.5,-0.5 197.5,-30.5 313.5,-30.5 313.5,-0.5 197.5,-0.5"/>
<text text-anchor="start" x="205.5" y="-18.5" font-family="Ubuntu Mono" font-size="10.00">CostFunctionCreator</text>
<text text-anchor="middle" x="255.5" y="-7.5" font-family="Ubuntu Mono" font-size="10.00">::create</text>
</a>
</g>
</g>
<!-- Node1&#45;&gt;Node5 -->
<g id="edge4" class="edge"><title>Node1&#45;&gt;Node5</title>
<path fill="none" stroke="midnightblue" d="M102.262,-68.9317C128.571,-59.698 169.101,-45.4729 201.729,-34.0213"/>
<polygon fill="midnightblue" stroke="midnightblue" points="203.3,-37.1793 211.577,-30.565 200.982,-30.5743 203.3,-37.1793"/>
</g>
</g>
</svg>
