<?xml version="1.0" encoding="UTF-8" standalone="no"?>
<!DOCTYPE svg PUBLIC "-//W3C//DTD SVG 1.1//EN"
 "http://www.w3.org/Graphics/SVG/1.1/DTD/svg11.dtd">
<!-- Generated by graphviz version 2.38.0 (20140413.2041)
 -->
<!-- Title: EventDispatcher Pages: 1 -->
<svg width="130pt" height="226pt"
 viewBox="0.00 0.00 130.00 226.00" xmlns="http://www.w3.org/2000/svg" xmlns:xlink="http://www.w3.org/1999/xlink">
<g id="graph0" class="graph" transform="scale(1 1) rotate(0) translate(4 222)">
<title>EventDispatcher</title>
<polygon fill="white" stroke="none" points="-4,4 -4,-222 126,-222 126,4 -4,4"/>
<!-- Node1 -->
<g id="node1" class="node"><title>Node1</title>
<polygon fill="#bfbfbf" stroke="black" points="0,-0.5 0,-101.5 122,-101.5 122,-0.5 0,-0.5"/>
<text text-anchor="middle" x="61" y="-89.5" font-family="Ubuntu Mono" font-size="10.00">EventDispatcher</text>
<polyline fill="none" stroke="black" points="0,-82.5 122,-82.5 "/>
<text text-anchor="middle" x="61" y="-70.5" font-family="Ubuntu Mono" font-size="10.00"> </text>
<polyline fill="none" stroke="black" points="0,-63.5 122,-63.5 "/>
<text text-anchor="start" x="8" y="-51.5" font-family="Ubuntu Mono" font-size="10.00">+ EventDispatcher()</text>
<text text-anchor="start" x="8" y="-40.5" font-family="Ubuntu Mono" font-size="10.00">+ ~EventDispatcher()</text>
<text text-anchor="start" x="8" y="-29.5" font-family="Ubuntu Mono" font-size="10.00">+ broadcast()</text>
<text text-anchor="start" x="8" y="-18.5" font-family="Ubuntu Mono" font-size="10.00">+ subscribe()</text>
<text text-anchor="start" x="8" y="-7.5" font-family="Ubuntu Mono" font-size="10.00">+ unsubscribe()</text>
</g>
<!-- Node2 -->
<g id="node2" class="node"><title>Node2</title>
<g id="a_node2"><a xlink:href="class_event_notifier.html" target="_top" xlink:title="{EventNotifier\n||# subscribe()\l# unsubscribe()\l# broadcast()\l}">
<polygon fill="white" stroke="black" points="13.5,-138.5 13.5,-217.5 108.5,-217.5 108.5,-138.5 13.5,-138.5"/>
<text text-anchor="middle" x="61" y="-205.5" font-family="Ubuntu Mono" font-size="10.00">EventNotifier</text>
<polyline fill="none" stroke="black" points="13.5,-198.5 108.5,-198.5 "/>
<text text-anchor="middle" x="61" y="-186.5" font-family="Ubuntu Mono" font-size="10.00"> </text>
<polyline fill="none" stroke="black" points="13.5,-179.5 108.5,-179.5 "/>
<text text-anchor="start" x="21.5" y="-167.5" font-family="Ubuntu Mono" font-size="10.00"># subscribe()</text>
<text text-anchor="start" x="21.5" y="-156.5" font-family="Ubuntu Mono" font-size="10.00"># unsubscribe()</text>
<text text-anchor="start" x="21.5" y="-145.5" font-family="Ubuntu Mono" font-size="10.00"># broadcast()</text>
</a>
</g>
</g>
<!-- Node2&#45;&gt;Node1 -->
<g id="edge1" class="edge"><title>Node2&#45;&gt;Node1</title>
<path fill="none" stroke="midnightblue" d="M61,-128.406C61,-119.639 61,-110.488 61,-101.691"/>
<polygon fill="none" stroke="midnightblue" points="57.5001,-128.476 61,-138.476 64.5001,-128.476 57.5001,-128.476"/>
</g>
</g>
</svg>
