<?xml version="1.0" encoding="UTF-8" standalone="no"?>
<!DOCTYPE svg PUBLIC "-//W3C//DTD SVG 1.1//EN"
 "http://www.w3.org/Graphics/SVG/1.1/DTD/svg11.dtd">
<!-- Generated by graphviz version 2.38.0 (20140413.2041)
 -->
<!-- Title: CostFunction Pages: 1 -->
<svg width="604pt" height="171pt"
 viewBox="0.00 0.00 603.50 171.00" xmlns="http://www.w3.org/2000/svg" xmlns:xlink="http://www.w3.org/1999/xlink">
<g id="graph0" class="graph" transform="scale(1 1) rotate(0) translate(4 167)">
<title>CostFunction</title>
<polygon fill="white" stroke="none" points="-4,4 -4,-167 599.5,-167 599.5,4 -4,4"/>
<!-- Node1 -->
<g id="node1" class="node"><title>Node1</title>
<polygon fill="#bfbfbf" stroke="black" points="280,-105.5 280,-162.5 355,-162.5 355,-105.5 280,-105.5"/>
<text text-anchor="middle" x="317.5" y="-150.5" font-family="Helvetica,sans-Serif" font-size="10.00">CostFunction</text>
<polyline fill="none" stroke="black" points="280,-143.5 355,-143.5 "/>
<text text-anchor="middle" x="317.5" y="-131.5" font-family="Helvetica,sans-Serif" font-size="10.00"> </text>
<polyline fill="none" stroke="black" points="280,-124.5 355,-124.5 "/>
<text text-anchor="start" x="288" y="-112.5" font-family="Helvetica,sans-Serif" font-size="10.00">+ calculate()</text>
</g>
<!-- Node2 -->
<g id="node2" class="node"><title>Node2</title>
<g id="a_node2"><a xlink:href="class_better_nearest_neighbour_cost_function.html" target="_top" xlink:title="{BetterNearestNeighbourCost\lFunction\n||+ calculate()\l}">
<polygon fill="white" stroke="black" points="0,-0.5 0,-68.5 143,-68.5 143,-0.5 0,-0.5"/>
<text text-anchor="start" x="8" y="-56.5" font-family="Helvetica,sans-Serif" font-size="10.00">BetterNearestNeighbourCost</text>
<text text-anchor="middle" x="71.5" y="-45.5" font-family="Helvetica,sans-Serif" font-size="10.00">Function</text>
<polyline fill="none" stroke="black" points="0,-38.5 143,-38.5 "/>
<text text-anchor="middle" x="71.5" y="-26.5" font-family="Helvetica,sans-Serif" font-size="10.00"> </text>
<polyline fill="none" stroke="black" points="0,-19.5 143,-19.5 "/>
<text text-anchor="start" x="8" y="-7.5" font-family="Helvetica,sans-Serif" font-size="10.00">+ calculate()</text>
</a>
</g>
</g>
<!-- Node1&#45;&gt;Node2 -->
<g id="edge1" class="edge"><title>Node1&#45;&gt;Node2</title>
<path fill="none" stroke="midnightblue" d="M270.307,-115.013C237.251,-102.337 192.087,-84.8614 152.5,-69 149.392,-67.7548 146.22,-66.4762 143.019,-65.1792"/>
<polygon fill="none" stroke="midnightblue" points="269.135,-118.312 279.726,-118.621 271.639,-111.776 269.135,-118.312"/>
</g>
<!-- Node3 -->
<g id="node3" class="node"><title>Node3</title>
<g id="a_node3"><a xlink:href="class_nearest_neighbour_cost_function.html" target="_top" xlink:title="{NearestNeighbourCostFunction\n||+ calculate()\l}">
<polygon fill="white" stroke="black" points="161.5,-6 161.5,-63 315.5,-63 315.5,-6 161.5,-6"/>
<text text-anchor="middle" x="238.5" y="-51" font-family="Helvetica,sans-Serif" font-size="10.00">NearestNeighbourCostFunction</text>
<polyline fill="none" stroke="black" points="161.5,-44 315.5,-44 "/>
<text text-anchor="middle" x="238.5" y="-32" font-family="Helvetica,sans-Serif" font-size="10.00"> </text>
<polyline fill="none" stroke="black" points="161.5,-25 315.5,-25 "/>
<text text-anchor="start" x="169.5" y="-13" font-family="Helvetica,sans-Serif" font-size="10.00">+ calculate()</text>
</a>
</g>
</g>
<!-- Node1&#45;&gt;Node3 -->
<g id="edge2" class="edge"><title>Node1&#45;&gt;Node3</title>
<path fill="none" stroke="midnightblue" d="M288.613,-97.3489C279.503,-86.1046 269.578,-73.8561 260.983,-63.248"/>
<polygon fill="none" stroke="midnightblue" points="286.058,-99.7549 295.073,-105.321 291.497,-95.3481 286.058,-99.7549"/>
</g>
<!-- Node4 -->
<g id="node4" class="node"><title>Node4</title>
<g id="a_node4"><a xlink:href="class_random_cost_function.html" target="_top" xlink:title="{RandomCostFunction\n||+ RandomCostFunction()\l+ calculate()\l}">
<polygon fill="white" stroke="black" points="334,-0.5 334,-68.5 461,-68.5 461,-0.5 334,-0.5"/>
<text text-anchor="middle" x="397.5" y="-56.5" font-family="Helvetica,sans-Serif" font-size="10.00">RandomCostFunction</text>
<polyline fill="none" stroke="black" points="334,-49.5 461,-49.5 "/>
<text text-anchor="middle" x="397.5" y="-37.5" font-family="Helvetica,sans-Serif" font-size="10.00"> </text>
<polyline fill="none" stroke="black" points="334,-30.5 461,-30.5 "/>
<text text-anchor="start" x="342" y="-18.5" font-family="Helvetica,sans-Serif" font-size="10.00">+ RandomCostFunction()</text>
<text text-anchor="start" x="342" y="-7.5" font-family="Helvetica,sans-Serif" font-size="10.00">+ calculate()</text>
</a>
</g>
</g>
<!-- Node1&#45;&gt;Node4 -->
<g id="edge3" class="edge"><title>Node1&#45;&gt;Node4</title>
<path fill="none" stroke="midnightblue" d="M346.761,-97.3377C354.417,-88.0075 362.639,-77.9866 370.189,-68.7855"/>
<polygon fill="none" stroke="midnightblue" points="343.848,-95.3703 340.211,-105.321 349.26,-99.8106 343.848,-95.3703"/>
</g>
<!-- Node5 -->
<g id="node5" class="node"><title>Node5</title>
<g id="a_node5"><a xlink:href="class_weighted_cost_function.html" target="_top" xlink:title="{WeightedCostFunction\n||+ calculate()\l}">
<polygon fill="white" stroke="black" points="479.5,-6 479.5,-63 595.5,-63 595.5,-6 479.5,-6"/>
<text text-anchor="middle" x="537.5" y="-51" font-family="Helvetica,sans-Serif" font-size="10.00">WeightedCostFunction</text>
<polyline fill="none" stroke="black" points="479.5,-44 595.5,-44 "/>
<text text-anchor="middle" x="537.5" y="-32" font-family="Helvetica,sans-Serif" font-size="10.00"> </text>
<polyline fill="none" stroke="black" points="479.5,-25 595.5,-25 "/>
<text text-anchor="start" x="487.5" y="-13" font-family="Helvetica,sans-Serif" font-size="10.00">+ calculate()</text>
</a>
</g>
</g>
<!-- Node1&#45;&gt;Node5 -->
<g id="edge4" class="edge"><title>Node1&#45;&gt;Node5</title>
<path fill="none" stroke="midnightblue" d="M364.731,-114.204C395.154,-101.862 435.429,-85.0806 470.5,-69 474.638,-67.1029 478.896,-65.0983 483.165,-63.0511"/>
<polygon fill="none" stroke="midnightblue" points="363.178,-111.057 355.219,-118.049 365.802,-117.547 363.178,-111.057"/>
</g>
</g>
</svg>
