<?xml version="1.0" encoding="UTF-8" standalone="no"?>
<!DOCTYPE svg PUBLIC "-//W3C//DTD SVG 1.1//EN"
 "http://www.w3.org/Graphics/SVG/1.1/DTD/svg11.dtd">
<!-- Generated by graphviz version 2.38.0 (20140413.2041)
 -->
<!-- Title: Event::str Pages: 1 -->
<svg width="203pt" height="66pt"
 viewBox="0.00 0.00 203.00 66.00" xmlns="http://www.w3.org/2000/svg" xmlns:xlink="http://www.w3.org/1999/xlink">
<g id="graph0" class="graph" transform="scale(1 1) rotate(0) translate(4 62)">
<title>Event::str</title>
<polygon fill="white" stroke="none" points="-4,4 -4,-62 199,-62 199,4 -4,4"/>
<!-- Node1 -->
<g id="node1" class="node"><title>Node1</title>
<polygon fill="#bfbfbf" stroke="black" points="0,-19.5 0,-38.5 69,-38.5 69,-19.5 0,-19.5"/>
<text text-anchor="middle" x="34.5" y="-26.5" font-family="Ubuntu Mono" font-size="10.00">Event::str</text>
</g>
<!-- Node2 -->
<g id="node2" class="node"><title>Node2</title>
<g id="a_node2"><a xlink:href="class_event.html#a973b98b35d66d83449ee370f17b8f987" target="_top" xlink:title="Event::getId">
<polygon fill="white" stroke="black" points="110,-38.5 110,-57.5 190,-57.5 190,-38.5 110,-38.5"/>
<text text-anchor="middle" x="150" y="-45.5" font-family="Ubuntu Mono" font-size="10.00">Event::getId</text>
</a>
</g>
</g>
<!-- Node1&#45;&gt;Node2 -->
<g id="edge1" class="edge"><title>Node1&#45;&gt;Node2</title>
<path fill="none" stroke="midnightblue" d="M69.2464,-34.6492C78.8522,-36.2572 89.5163,-38.0424 99.8394,-39.7705"/>
<polygon fill="midnightblue" stroke="midnightblue" points="99.5562,-43.2717 109.997,-41.4708 100.712,-36.3677 99.5562,-43.2717"/>
</g>
<!-- Node3 -->
<g id="node3" class="node"><title>Node3</title>
<g id="a_node3"><a xlink:href="class_event.html#ab0c2e30730d5859851f3126258c0126e" target="_top" xlink:title="Event::getType">
<polygon fill="white" stroke="black" points="105,-0.5 105,-19.5 195,-19.5 195,-0.5 105,-0.5"/>
<text text-anchor="middle" x="150" y="-7.5" font-family="Ubuntu Mono" font-size="10.00">Event::getType</text>
</a>
</g>
</g>
<!-- Node1&#45;&gt;Node3 -->
<g id="edge2" class="edge"><title>Node1&#45;&gt;Node3</title>
<path fill="none" stroke="midnightblue" d="M69.2464,-23.3508C77.2308,-22.0142 85.9464,-20.5552 94.5896,-19.1084"/>
<polygon fill="midnightblue" stroke="midnightblue" points="95.3696,-22.5266 104.654,-17.4235 94.2138,-15.6226 95.3696,-22.5266"/>
</g>
</g>
</svg>
