<?xml version="1.0" encoding="UTF-8" standalone="no"?>
<!DOCTYPE svg PUBLIC "-//W3C//DTD SVG 1.1//EN"
 "http://www.w3.org/Graphics/SVG/1.1/DTD/svg11.dtd">
<!-- Generated by graphviz version 2.38.0 (20140413.2041)
 -->
<!-- Title: Statistics::getAvgWT Pages: 1 -->
<svg width="265pt" height="66pt"
 viewBox="0.00 0.00 265.00 66.00" xmlns="http://www.w3.org/2000/svg" xmlns:xlink="http://www.w3.org/1999/xlink">
<g id="graph0" class="graph" transform="scale(1 1) rotate(0) translate(4 62)">
<title>Statistics::getAvgWT</title>
<polygon fill="white" stroke="none" points="-4,4 -4,-62 261,-62 261,4 -4,4"/>
<!-- Node1 -->
<g id="node1" class="node"><title>Node1</title>
<polygon fill="#bfbfbf" stroke="black" points="0,-19.5 0,-38.5 110,-38.5 110,-19.5 0,-19.5"/>
<text text-anchor="middle" x="55" y="-26.5" font-family="Helvetica,sans-Serif" font-size="10.00">Statistics::getAvgWT</text>
</g>
<!-- Node2 -->
<g id="node2" class="node"><title>Node2</title>
<g id="a_node2"><a xlink:href="class_statistics.html#ad855ad97545c2edcc2f344efe8f8d152" target="_top" xlink:title="Statistics::getDevWT">
<polygon fill="white" stroke="black" points="146,-38.5 146,-57.5 257,-57.5 257,-38.5 146,-38.5"/>
<text text-anchor="middle" x="201.5" y="-45.5" font-family="Helvetica,sans-Serif" font-size="10.00">Statistics::getDevWT</text>
</a>
</g>
</g>
<!-- Node1&#45;&gt;Node2 -->
<g id="edge1" class="edge"><title>Node1&#45;&gt;Node2</title>
<path fill="none" stroke="midnightblue" d="M120.213,-37.4432C128.813,-38.574 137.567,-39.725 145.979,-40.8311"/>
<polygon fill="midnightblue" stroke="midnightblue" points="120.589,-33.9626 110.218,-36.129 119.676,-40.9028 120.589,-33.9626"/>
</g>
<!-- Node3 -->
<g id="node3" class="node"><title>Node3</title>
<g id="a_node3"><a xlink:href="class_statistics.html#a7f560ff5b5c152e06a3e5e831455da91" target="_top" xlink:title="Statistics::getDevJT">
<polygon fill="white" stroke="black" points="148,-0.5 148,-19.5 255,-19.5 255,-0.5 148,-0.5"/>
<text text-anchor="middle" x="201.5" y="-7.5" font-family="Helvetica,sans-Serif" font-size="10.00">Statistics::getDevJT</text>
</a>
</g>
</g>
<!-- Node1&#45;&gt;Node3 -->
<g id="edge2" class="edge"><title>Node1&#45;&gt;Node3</title>
<path fill="none" stroke="midnightblue" d="M120.174,-20.5618C129.442,-19.3432 138.89,-18.101 147.896,-16.9168"/>
<polygon fill="midnightblue" stroke="midnightblue" points="119.676,-17.0972 110.218,-21.871 120.589,-24.0374 119.676,-17.0972"/>
</g>
</g>
</svg>
