<?xml version="1.0" encoding="UTF-8" standalone="no"?>
<!DOCTYPE svg PUBLIC "-//W3C//DTD SVG 1.1//EN"
 "http://www.w3.org/Graphics/SVG/1.1/DTD/svg11.dtd">
<!-- Generated by graphviz version 2.38.0 (20140413.2041)
 -->
<!-- Title: EventObserver Pages: 1 -->
<svg width="335pt" height="270pt"
 viewBox="0.00 0.00 334.50 270.00" xmlns="http://www.w3.org/2000/svg" xmlns:xlink="http://www.w3.org/1999/xlink">
<g id="graph0" class="graph" transform="scale(1 1) rotate(0) translate(4 266)">
<title>EventObserver</title>
<polygon fill="white" stroke="none" points="-4,4 -4,-266 330.5,-266 330.5,4 -4,4"/>
<!-- Node1 -->
<g id="node1" class="node"><title>Node1</title>
<polygon fill="#bfbfbf" stroke="black" points="119,-204.5 119,-261.5 201,-261.5 201,-204.5 119,-204.5"/>
<text text-anchor="middle" x="160" y="-249.5" font-family="Helvetica,sans-Serif" font-size="10.00">EventObserver</text>
<polyline fill="none" stroke="black" points="119,-242.5 201,-242.5 "/>
<text text-anchor="middle" x="160" y="-230.5" font-family="Helvetica,sans-Serif" font-size="10.00"> </text>
<polyline fill="none" stroke="black" points="119,-223.5 201,-223.5 "/>
<text text-anchor="start" x="127" y="-211.5" font-family="Helvetica,sans-Serif" font-size="10.00">+ notify()</text>
</g>
<!-- Node2 -->
<g id="node2" class="node"><title>Node2</title>
<g id="a_node2"><a xlink:href="class_building.html" target="_top" xlink:title="{Building\n||+ Building()\l+ ~Building()\l+ getElevators()\l+ getFloors()\l+ getFloor()\l+ getElevator()\l+ notify()\l+ initializeArrivals()\l}">
<polygon fill="white" stroke="black" points="0,-17 0,-151 100,-151 100,-17 0,-17"/>
<text text-anchor="middle" x="50" y="-139" font-family="Helvetica,sans-Serif" font-size="10.00">Building</text>
<polyline fill="none" stroke="black" points="0,-132 100,-132 "/>
<text text-anchor="middle" x="50" y="-120" font-family="Helvetica,sans-Serif" font-size="10.00"> </text>
<polyline fill="none" stroke="black" points="0,-113 100,-113 "/>
<text text-anchor="start" x="8" y="-101" font-family="Helvetica,sans-Serif" font-size="10.00">+ Building()</text>
<text text-anchor="start" x="8" y="-90" font-family="Helvetica,sans-Serif" font-size="10.00">+ ~Building()</text>
<text text-anchor="start" x="8" y="-79" font-family="Helvetica,sans-Serif" font-size="10.00">+ getElevators()</text>
<text text-anchor="start" x="8" y="-68" font-family="Helvetica,sans-Serif" font-size="10.00">+ getFloors()</text>
<text text-anchor="start" x="8" y="-57" font-family="Helvetica,sans-Serif" font-size="10.00">+ getFloor()</text>
<text text-anchor="start" x="8" y="-46" font-family="Helvetica,sans-Serif" font-size="10.00">+ getElevator()</text>
<text text-anchor="start" x="8" y="-35" font-family="Helvetica,sans-Serif" font-size="10.00">+ notify()</text>
<text text-anchor="start" x="8" y="-24" font-family="Helvetica,sans-Serif" font-size="10.00">+ initializeArrivals()</text>
</a>
</g>
</g>
<!-- Node1&#45;&gt;Node2 -->
<g id="edge1" class="edge"><title>Node1&#45;&gt;Node2</title>
<path fill="none" stroke="midnightblue" d="M131.054,-196.386C123.756,-187.214 116.006,-177.305 109,-168 104.959,-162.633 100.818,-157.031 96.6947,-151.381"/>
<polygon fill="none" stroke="midnightblue" points="128.342,-198.599 137.321,-204.223 133.809,-194.227 128.342,-198.599"/>
</g>
<!-- Node3 -->
<g id="node3" class="node"><title>Node3</title>
<g id="a_node3"><a xlink:href="class_clock.html" target="_top" xlink:title="{Clock\n||+ Clock()\l+ ~Clock()\l+ currentTime()\l+ advanceTo()\l+ advanceBy()\l+ notify()\l+ str()\l}">
<polygon fill="white" stroke="black" points="118.5,-22.5 118.5,-145.5 201.5,-145.5 201.5,-22.5 118.5,-22.5"/>
<text text-anchor="middle" x="160" y="-133.5" font-family="Helvetica,sans-Serif" font-size="10.00">Clock</text>
<polyline fill="none" stroke="black" points="118.5,-126.5 201.5,-126.5 "/>
<text text-anchor="middle" x="160" y="-114.5" font-family="Helvetica,sans-Serif" font-size="10.00"> </text>
<polyline fill="none" stroke="black" points="118.5,-107.5 201.5,-107.5 "/>
<text text-anchor="start" x="126.5" y="-95.5" font-family="Helvetica,sans-Serif" font-size="10.00">+ Clock()</text>
<text text-anchor="start" x="126.5" y="-84.5" font-family="Helvetica,sans-Serif" font-size="10.00">+ ~Clock()</text>
<text text-anchor="start" x="126.5" y="-73.5" font-family="Helvetica,sans-Serif" font-size="10.00">+ currentTime()</text>
<text text-anchor="start" x="126.5" y="-62.5" font-family="Helvetica,sans-Serif" font-size="10.00">+ advanceTo()</text>
<text text-anchor="start" x="126.5" y="-51.5" font-family="Helvetica,sans-Serif" font-size="10.00">+ advanceBy()</text>
<text text-anchor="start" x="126.5" y="-40.5" font-family="Helvetica,sans-Serif" font-size="10.00">+ notify()</text>
<text text-anchor="start" x="126.5" y="-29.5" font-family="Helvetica,sans-Serif" font-size="10.00">+ str()</text>
</a>
</g>
</g>
<!-- Node1&#45;&gt;Node3 -->
<g id="edge2" class="edge"><title>Node1&#45;&gt;Node3</title>
<path fill="none" stroke="midnightblue" d="M160,-194.11C160,-179.369 160,-162.108 160,-145.721"/>
<polygon fill="none" stroke="midnightblue" points="156.5,-194.35 160,-204.35 163.5,-194.35 156.5,-194.35"/>
</g>
<!-- Node4 -->
<g id="node4" class="node"><title>Node4</title>
<g id="a_node4"><a xlink:href="class_statistics.html" target="_top" xlink:title="{Statistics\n||+ Statistics()\l+ ~Statistics()\l+ keepRunning()\l+ getScenario()\l+ getClientsArrived()\l+ getClientsServed()\l+ getTotalWT()\l+ getTotalJT()\l+ getAvgWT()\l+ getAvgJT()\land 8 more...\l}">
<polygon fill="white" stroke="black" points="219.5,-0.5 219.5,-167.5 326.5,-167.5 326.5,-0.5 219.5,-0.5"/>
<text text-anchor="middle" x="273" y="-155.5" font-family="Helvetica,sans-Serif" font-size="10.00">Statistics</text>
<polyline fill="none" stroke="black" points="219.5,-148.5 326.5,-148.5 "/>
<text text-anchor="middle" x="273" y="-136.5" font-family="Helvetica,sans-Serif" font-size="10.00"> </text>
<polyline fill="none" stroke="black" points="219.5,-129.5 326.5,-129.5 "/>
<text text-anchor="start" x="227.5" y="-117.5" font-family="Helvetica,sans-Serif" font-size="10.00">+ Statistics()</text>
<text text-anchor="start" x="227.5" y="-106.5" font-family="Helvetica,sans-Serif" font-size="10.00">+ ~Statistics()</text>
<text text-anchor="start" x="227.5" y="-95.5" font-family="Helvetica,sans-Serif" font-size="10.00">+ keepRunning()</text>
<text text-anchor="start" x="227.5" y="-84.5" font-family="Helvetica,sans-Serif" font-size="10.00">+ getScenario()</text>
<text text-anchor="start" x="227.5" y="-73.5" font-family="Helvetica,sans-Serif" font-size="10.00">+ getClientsArrived()</text>
<text text-anchor="start" x="227.5" y="-62.5" font-family="Helvetica,sans-Serif" font-size="10.00">+ getClientsServed()</text>
<text text-anchor="start" x="227.5" y="-51.5" font-family="Helvetica,sans-Serif" font-size="10.00">+ getTotalWT()</text>
<text text-anchor="start" x="227.5" y="-40.5" font-family="Helvetica,sans-Serif" font-size="10.00">+ getTotalJT()</text>
<text text-anchor="start" x="227.5" y="-29.5" font-family="Helvetica,sans-Serif" font-size="10.00">+ getAvgWT()</text>
<text text-anchor="start" x="227.5" y="-18.5" font-family="Helvetica,sans-Serif" font-size="10.00">+ getAvgJT()</text>
<text text-anchor="start" x="227.5" y="-7.5" font-family="Helvetica,sans-Serif" font-size="10.00">and 8 more...</text>
</a>
</g>
</g>
<!-- Node1&#45;&gt;Node4 -->
<g id="edge3" class="edge"><title>Node1&#45;&gt;Node4</title>
<path fill="none" stroke="midnightblue" d="M188.588,-196.53C195.949,-187.287 203.817,-177.309 211,-168 213.747,-164.44 216.549,-160.784 219.368,-157.084"/>
<polygon fill="none" stroke="midnightblue" points="185.787,-194.429 182.281,-204.427 191.256,-198.798 185.787,-194.429"/>
</g>
</g>
</svg>
