<?xml version="1.0" encoding="UTF-8" standalone="no"?>
<!DOCTYPE svg PUBLIC "-//W3C//DTD SVG 1.1//EN"
 "http://www.w3.org/Graphics/SVG/1.1/DTD/svg11.dtd">
<!-- Generated by graphviz version 2.38.0 (20140413.2041)
 -->
<!-- Title: PlanningScheduler Pages: 1 -->
<svg width="156pt" height="287pt"
 viewBox="0.00 0.00 156.00 287.00" xmlns="http://www.w3.org/2000/svg" xmlns:xlink="http://www.w3.org/1999/xlink">
<g id="graph0" class="graph" transform="scale(1 1) rotate(0) translate(4 283)">
<title>PlanningScheduler</title>
<polygon fill="white" stroke="none" points="-4,4 -4,-283 152,-283 152,4 -4,4"/>
<!-- Node1 -->
<g id="node1" class="node"><title>Node1</title>
<polygon fill="#bfbfbf" stroke="black" points="21,-0.5 21,-57.5 127,-57.5 127,-0.5 21,-0.5"/>
<text text-anchor="middle" x="74" y="-45.5" font-family="Ubuntu Mono" font-size="10.00">PlanningScheduler</text>
<polyline fill="none" stroke="black" points="21,-38.5 127,-38.5 "/>
<text text-anchor="middle" x="74" y="-26.5" font-family="Ubuntu Mono" font-size="10.00"> </text>
<polyline fill="none" stroke="black" points="21,-19.5 127,-19.5 "/>
<text text-anchor="start" x="29" y="-7.5" font-family="Ubuntu Mono" font-size="10.00">+ schedule()</text>
</g>
<!-- Node2 -->
<g id="node2" class="node"><title>Node2</title>
<g id="a_node2"><a xlink:href="class_scheduler.html" target="_top" xlink:title="{Scheduler\n||+ Scheduler()\l+ schedule()\l# getAvailableElevators()\l}">
<polygon fill="white" stroke="black" points="0,-94.5 0,-173.5 148,-173.5 148,-94.5 0,-94.5"/>
<text text-anchor="middle" x="74" y="-161.5" font-family="Ubuntu Mono" font-size="10.00">Scheduler</text>
<polyline fill="none" stroke="black" points="0,-154.5 148,-154.5 "/>
<text text-anchor="middle" x="74" y="-142.5" font-family="Ubuntu Mono" font-size="10.00"> </text>
<polyline fill="none" stroke="black" points="0,-135.5 148,-135.5 "/>
<text text-anchor="start" x="8" y="-123.5" font-family="Ubuntu Mono" font-size="10.00">+ Scheduler()</text>
<text text-anchor="start" x="8" y="-112.5" font-family="Ubuntu Mono" font-size="10.00">+ schedule()</text>
<text text-anchor="start" x="8" y="-101.5" font-family="Ubuntu Mono" font-size="10.00"># getAvailableElevators()</text>
</a>
</g>
</g>
<!-- Node2&#45;&gt;Node1 -->
<g id="edge1" class="edge"><title>Node2&#45;&gt;Node1</title>
<path fill="none" stroke="midnightblue" d="M74,-84.1628C74,-75.0404 74,-65.8063 74,-57.6095"/>
<polygon fill="none" stroke="midnightblue" points="70.5001,-84.3535 74,-94.3536 77.5001,-84.3536 70.5001,-84.3535"/>
</g>
<!-- Node3 -->
<g id="node3" class="node"><title>Node3</title>
<polygon fill="white" stroke="#bfbfbf" points="5.5,-210.5 5.5,-278.5 142.5,-278.5 142.5,-210.5 5.5,-210.5"/>
<text text-anchor="start" x="13.5" y="-266.5" font-family="Ubuntu Mono" font-size="10.00">std::enable_shared</text>
<text text-anchor="middle" x="74" y="-255.5" font-family="Ubuntu Mono" font-size="10.00">_from_this&lt; Scheduler &gt;</text>
<polyline fill="none" stroke="#bfbfbf" points="5.5,-248.5 142.5,-248.5 "/>
<text text-anchor="middle" x="74" y="-236.5" font-family="Ubuntu Mono" font-size="10.00"> </text>
<polyline fill="none" stroke="#bfbfbf" points="5.5,-229.5 142.5,-229.5 "/>
<text text-anchor="middle" x="74" y="-217.5" font-family="Ubuntu Mono" font-size="10.00"> </text>
</g>
<!-- Node3&#45;&gt;Node2 -->
<g id="edge2" class="edge"><title>Node3&#45;&gt;Node2</title>
<path fill="none" stroke="midnightblue" d="M74,-200.274C74,-191.476 74,-182.275 74,-173.649"/>
<polygon fill="none" stroke="midnightblue" points="70.5001,-200.357 74,-210.357 77.5001,-200.357 70.5001,-200.357"/>
</g>
</g>
</svg>
