<?xml version="1.0" encoding="UTF-8" standalone="no"?>
<!DOCTYPE svg PUBLIC "-//W3C//DTD SVG 1.1//EN"
 "http://www.w3.org/Graphics/SVG/1.1/DTD/svg11.dtd">
<!-- Generated by graphviz version 2.38.0 (20140413.2041)
 -->
<!-- Title: Scheduler Pages: 1 -->
<svg width="214pt" height="287pt"
 viewBox="0.00 0.00 214.00 287.00" xmlns="http://www.w3.org/2000/svg" xmlns:xlink="http://www.w3.org/1999/xlink">
<g id="graph0" class="graph" transform="scale(1 1) rotate(0) translate(4 283)">
<title>Scheduler</title>
<polygon fill="white" stroke="none" points="-4,4 -4,-283 210,-283 210,4 -4,4"/>
<!-- Node1 -->
<g id="node1" class="node"><title>Node1</title>
<polygon fill="#bfbfbf" stroke="black" points="42.5,-94.5 42.5,-173.5 167.5,-173.5 167.5,-94.5 42.5,-94.5"/>
<text text-anchor="middle" x="105" y="-161.5" font-family="Helvetica,sans-Serif" font-size="10.00">Scheduler</text>
<polyline fill="none" stroke="black" points="42.5,-154.5 167.5,-154.5 "/>
<text text-anchor="middle" x="105" y="-142.5" font-family="Helvetica,sans-Serif" font-size="10.00"> </text>
<polyline fill="none" stroke="black" points="42.5,-135.5 167.5,-135.5 "/>
<text text-anchor="start" x="50.5" y="-123.5" font-family="Helvetica,sans-Serif" font-size="10.00">+ Scheduler()</text>
<text text-anchor="start" x="50.5" y="-112.5" font-family="Helvetica,sans-Serif" font-size="10.00">+ schedule()</text>
<text text-anchor="start" x="50.5" y="-101.5" font-family="Helvetica,sans-Serif" font-size="10.00"># getAvailableElevators()</text>
</g>
<!-- Node3 -->
<g id="node3" class="node"><title>Node3</title>
<g id="a_node3"><a xlink:href="class_planning_scheduler.html" target="_top" xlink:title="{PlanningScheduler\n||+ schedule()\l}">
<polygon fill="white" stroke="black" points="0,-0.5 0,-57.5 98,-57.5 98,-0.5 0,-0.5"/>
<text text-anchor="middle" x="49" y="-45.5" font-family="Helvetica,sans-Serif" font-size="10.00">PlanningScheduler</text>
<polyline fill="none" stroke="black" points="0,-38.5 98,-38.5 "/>
<text text-anchor="middle" x="49" y="-26.5" font-family="Helvetica,sans-Serif" font-size="10.00"> </text>
<polyline fill="none" stroke="black" points="0,-19.5 98,-19.5 "/>
<text text-anchor="start" x="8" y="-7.5" font-family="Helvetica,sans-Serif" font-size="10.00">+ schedule()</text>
</a>
</g>
</g>
<!-- Node1&#45;&gt;Node3 -->
<g id="edge2" class="edge"><title>Node1&#45;&gt;Node3</title>
<path fill="none" stroke="midnightblue" d="M79.0873,-85.3392C73.9209,-75.8367 68.6592,-66.1589 64.011,-57.6095"/>
<polygon fill="none" stroke="midnightblue" points="76.1368,-87.2399 83.9883,-94.3536 82.2866,-83.8963 76.1368,-87.2399"/>
</g>
<!-- Node4 -->
<g id="node4" class="node"><title>Node4</title>
<g id="a_node4"><a xlink:href="class_simple_scheduler.html" target="_top" xlink:title="{SimpleScheduler\n||+ schedule()\l}">
<polygon fill="white" stroke="black" points="116,-0.5 116,-57.5 206,-57.5 206,-0.5 116,-0.5"/>
<text text-anchor="middle" x="161" y="-45.5" font-family="Helvetica,sans-Serif" font-size="10.00">SimpleScheduler</text>
<polyline fill="none" stroke="black" points="116,-38.5 206,-38.5 "/>
<text text-anchor="middle" x="161" y="-26.5" font-family="Helvetica,sans-Serif" font-size="10.00"> </text>
<polyline fill="none" stroke="black" points="116,-19.5 206,-19.5 "/>
<text text-anchor="start" x="124" y="-7.5" font-family="Helvetica,sans-Serif" font-size="10.00">+ schedule()</text>
</a>
</g>
</g>
<!-- Node1&#45;&gt;Node4 -->
<g id="edge3" class="edge"><title>Node1&#45;&gt;Node4</title>
<path fill="none" stroke="midnightblue" d="M130.913,-85.3392C136.079,-75.8367 141.341,-66.1589 145.989,-57.6095"/>
<polygon fill="none" stroke="midnightblue" points="127.713,-83.8963 126.012,-94.3536 133.863,-87.2399 127.713,-83.8963"/>
</g>
<!-- Node2 -->
<g id="node2" class="node"><title>Node2</title>
<polygon fill="white" stroke="#bfbfbf" points="43,-210.5 43,-278.5 167,-278.5 167,-210.5 43,-210.5"/>
<text text-anchor="start" x="51" y="-266.5" font-family="Helvetica,sans-Serif" font-size="10.00">std::enable_shared</text>
<text text-anchor="middle" x="105" y="-255.5" font-family="Helvetica,sans-Serif" font-size="10.00">_from_this&lt; Scheduler &gt;</text>
<polyline fill="none" stroke="#bfbfbf" points="43,-248.5 167,-248.5 "/>
<text text-anchor="middle" x="105" y="-236.5" font-family="Helvetica,sans-Serif" font-size="10.00"> </text>
<polyline fill="none" stroke="#bfbfbf" points="43,-229.5 167,-229.5 "/>
<text text-anchor="middle" x="105" y="-217.5" font-family="Helvetica,sans-Serif" font-size="10.00"> </text>
</g>
<!-- Node2&#45;&gt;Node1 -->
<g id="edge1" class="edge"><title>Node2&#45;&gt;Node1</title>
<path fill="none" stroke="midnightblue" d="M105,-200.274C105,-191.476 105,-182.275 105,-173.649"/>
<polygon fill="none" stroke="midnightblue" points="101.5,-200.357 105,-210.357 108.5,-200.357 101.5,-200.357"/>
</g>
</g>
</svg>
