<?xml version="1.0" encoding="UTF-8" standalone="no"?>
<!DOCTYPE svg PUBLIC "-//W3C//DTD SVG 1.1//EN"
 "http://www.w3.org/Graphics/SVG/1.1/DTD/svg11.dtd">
<!-- Generated by graphviz version 2.38.0 (20140413.2041)
 -->
<!-- Title: EventObserver Pages: 1 -->
<svg width="337pt" height="303pt"
 viewBox="0.00 0.00 337.00 303.00" xmlns="http://www.w3.org/2000/svg" xmlns:xlink="http://www.w3.org/1999/xlink">
<g id="graph0" class="graph" transform="scale(1 1) rotate(0) translate(4 299)">
<title>EventObserver</title>
<polygon fill="white" stroke="none" points="-4,4 -4,-299 333,-299 333,4 -4,4"/>
<!-- Node1 -->
<g id="node1" class="node"><title>Node1</title>
<polygon fill="#bfbfbf" stroke="black" points="121.5,-237.5 121.5,-294.5 203.5,-294.5 203.5,-237.5 121.5,-237.5"/>
<text text-anchor="middle" x="162.5" y="-282.5" font-family="Helvetica,sans-Serif" font-size="10.00">EventObserver</text>
<polyline fill="none" stroke="black" points="121.5,-275.5 203.5,-275.5 "/>
<text text-anchor="middle" x="162.5" y="-263.5" font-family="Helvetica,sans-Serif" font-size="10.00"> </text>
<polyline fill="none" stroke="black" points="121.5,-256.5 203.5,-256.5 "/>
<text text-anchor="start" x="129.5" y="-244.5" font-family="Helvetica,sans-Serif" font-size="10.00">+ notify()</text>
</g>
<!-- Node2 -->
<g id="node2" class="node"><title>Node2</title>
<g id="a_node2"><a xlink:href="class_building.html" target="_top" xlink:title="{Building\n||+ Building()\l+ Building()\l+ ~Building()\l+ getElevators()\l+ getFloors()\l+ getFloor()\l+ getElevator()\l+ getSimulator()\l+ getStopManager()\l+ step()\l+ notify()\l+ initializeArrivals()\l+ setStop()\l+ mustStop()\l}">
<polygon fill="white" stroke="black" points="0,-0.5 0,-200.5 103,-200.5 103,-0.5 0,-0.5"/>
<text text-anchor="middle" x="51.5" y="-188.5" font-family="Helvetica,sans-Serif" font-size="10.00">Building</text>
<polyline fill="none" stroke="black" points="0,-181.5 103,-181.5 "/>
<text text-anchor="middle" x="51.5" y="-169.5" font-family="Helvetica,sans-Serif" font-size="10.00"> </text>
<polyline fill="none" stroke="black" points="0,-162.5 103,-162.5 "/>
<text text-anchor="start" x="8" y="-150.5" font-family="Helvetica,sans-Serif" font-size="10.00">+ Building()</text>
<text text-anchor="start" x="8" y="-139.5" font-family="Helvetica,sans-Serif" font-size="10.00">+ Building()</text>
<text text-anchor="start" x="8" y="-128.5" font-family="Helvetica,sans-Serif" font-size="10.00">+ ~Building()</text>
<text text-anchor="start" x="8" y="-117.5" font-family="Helvetica,sans-Serif" font-size="10.00">+ getElevators()</text>
<text text-anchor="start" x="8" y="-106.5" font-family="Helvetica,sans-Serif" font-size="10.00">+ getFloors()</text>
<text text-anchor="start" x="8" y="-95.5" font-family="Helvetica,sans-Serif" font-size="10.00">+ getFloor()</text>
<text text-anchor="start" x="8" y="-84.5" font-family="Helvetica,sans-Serif" font-size="10.00">+ getElevator()</text>
<text text-anchor="start" x="8" y="-73.5" font-family="Helvetica,sans-Serif" font-size="10.00">+ getSimulator()</text>
<text text-anchor="start" x="8" y="-62.5" font-family="Helvetica,sans-Serif" font-size="10.00">+ getStopManager()</text>
<text text-anchor="start" x="8" y="-51.5" font-family="Helvetica,sans-Serif" font-size="10.00">+ step()</text>
<text text-anchor="start" x="8" y="-40.5" font-family="Helvetica,sans-Serif" font-size="10.00">+ notify()</text>
<text text-anchor="start" x="8" y="-29.5" font-family="Helvetica,sans-Serif" font-size="10.00">+ initializeArrivals()</text>
<text text-anchor="start" x="8" y="-18.5" font-family="Helvetica,sans-Serif" font-size="10.00">+ setStop()</text>
<text text-anchor="start" x="8" y="-7.5" font-family="Helvetica,sans-Serif" font-size="10.00">+ mustStop()</text>
</a>
</g>
</g>
<!-- Node1&#45;&gt;Node2 -->
<g id="edge1" class="edge"><title>Node1&#45;&gt;Node2</title>
<path fill="none" stroke="midnightblue" d="M132.636,-229.206C125.477,-220.175 118.022,-210.376 111.5,-201 108.678,-196.943 105.847,-192.751 103.033,-188.487"/>
<polygon fill="none" stroke="midnightblue" points="130.103,-231.642 139.092,-237.25 135.562,-227.261 130.103,-231.642"/>
</g>
<!-- Node3 -->
<g id="node3" class="node"><title>Node3</title>
<g id="a_node3"><a xlink:href="class_clock.html" target="_top" xlink:title="{Clock\n||+ Clock()\l+ Clock()\l+ ~Clock()\l+ currentTime()\l+ advanceTo()\l+ advanceBy()\l+ notify()\l+ str()\l}">
<polygon fill="white" stroke="black" points="121,-33.5 121,-167.5 204,-167.5 204,-33.5 121,-33.5"/>
<text text-anchor="middle" x="162.5" y="-155.5" font-family="Helvetica,sans-Serif" font-size="10.00">Clock</text>
<polyline fill="none" stroke="black" points="121,-148.5 204,-148.5 "/>
<text text-anchor="middle" x="162.5" y="-136.5" font-family="Helvetica,sans-Serif" font-size="10.00"> </text>
<polyline fill="none" stroke="black" points="121,-129.5 204,-129.5 "/>
<text text-anchor="start" x="129" y="-117.5" font-family="Helvetica,sans-Serif" font-size="10.00">+ Clock()</text>
<text text-anchor="start" x="129" y="-106.5" font-family="Helvetica,sans-Serif" font-size="10.00">+ Clock()</text>
<text text-anchor="start" x="129" y="-95.5" font-family="Helvetica,sans-Serif" font-size="10.00">+ ~Clock()</text>
<text text-anchor="start" x="129" y="-84.5" font-family="Helvetica,sans-Serif" font-size="10.00">+ currentTime()</text>
<text text-anchor="start" x="129" y="-73.5" font-family="Helvetica,sans-Serif" font-size="10.00">+ advanceTo()</text>
<text text-anchor="start" x="129" y="-62.5" font-family="Helvetica,sans-Serif" font-size="10.00">+ advanceBy()</text>
<text text-anchor="start" x="129" y="-51.5" font-family="Helvetica,sans-Serif" font-size="10.00">+ notify()</text>
<text text-anchor="start" x="129" y="-40.5" font-family="Helvetica,sans-Serif" font-size="10.00">+ str()</text>
</a>
</g>
</g>
<!-- Node1&#45;&gt;Node3 -->
<g id="edge2" class="edge"><title>Node1&#45;&gt;Node3</title>
<path fill="none" stroke="midnightblue" d="M162.5,-226.812C162.5,-209.156 162.5,-187.671 162.5,-167.512"/>
<polygon fill="none" stroke="midnightblue" points="159,-227.264 162.5,-237.264 166,-227.264 159,-227.264"/>
</g>
<!-- Node4 -->
<g id="node4" class="node"><title>Node4</title>
<g id="a_node4"><a xlink:href="class_statistics.html" target="_top" xlink:title="{Statistics\n||+ Statistics()\l+ ~Statistics()\l+ keepRunning()\l+ getScenario()\l+ getClientsArrived()\l+ getClientsServed()\l+ getTotalWT()\l+ getTotalJT()\l+ getAvgWT()\l+ getAvgJT()\land 8 more...\l}">
<polygon fill="white" stroke="black" points="222,-17 222,-184 329,-184 329,-17 222,-17"/>
<text text-anchor="middle" x="275.5" y="-172" font-family="Helvetica,sans-Serif" font-size="10.00">Statistics</text>
<polyline fill="none" stroke="black" points="222,-165 329,-165 "/>
<text text-anchor="middle" x="275.5" y="-153" font-family="Helvetica,sans-Serif" font-size="10.00"> </text>
<polyline fill="none" stroke="black" points="222,-146 329,-146 "/>
<text text-anchor="start" x="230" y="-134" font-family="Helvetica,sans-Serif" font-size="10.00">+ Statistics()</text>
<text text-anchor="start" x="230" y="-123" font-family="Helvetica,sans-Serif" font-size="10.00">+ ~Statistics()</text>
<text text-anchor="start" x="230" y="-112" font-family="Helvetica,sans-Serif" font-size="10.00">+ keepRunning()</text>
<text text-anchor="start" x="230" y="-101" font-family="Helvetica,sans-Serif" font-size="10.00">+ getScenario()</text>
<text text-anchor="start" x="230" y="-90" font-family="Helvetica,sans-Serif" font-size="10.00">+ getClientsArrived()</text>
<text text-anchor="start" x="230" y="-79" font-family="Helvetica,sans-Serif" font-size="10.00">+ getClientsServed()</text>
<text text-anchor="start" x="230" y="-68" font-family="Helvetica,sans-Serif" font-size="10.00">+ getTotalWT()</text>
<text text-anchor="start" x="230" y="-57" font-family="Helvetica,sans-Serif" font-size="10.00">+ getTotalJT()</text>
<text text-anchor="start" x="230" y="-46" font-family="Helvetica,sans-Serif" font-size="10.00">+ getAvgWT()</text>
<text text-anchor="start" x="230" y="-35" font-family="Helvetica,sans-Serif" font-size="10.00">+ getAvgJT()</text>
<text text-anchor="start" x="230" y="-24" font-family="Helvetica,sans-Serif" font-size="10.00">and 8 more...</text>
</a>
</g>
</g>
<!-- Node1&#45;&gt;Node4 -->
<g id="edge3" class="edge"><title>Node1&#45;&gt;Node4</title>
<path fill="none" stroke="midnightblue" d="M192.268,-229.139C199.43,-220.109 206.91,-210.329 213.5,-201 217.317,-195.597 221.164,-189.963 224.971,-184.242"/>
<polygon fill="none" stroke="midnightblue" points="189.341,-227.194 185.815,-237.185 194.802,-231.573 189.341,-227.194"/>
</g>
</g>
</svg>
