<?xml version="1.0" encoding="UTF-8" standalone="no"?>
<!DOCTYPE svg PUBLIC "-//W3C//DTD SVG 1.1//EN"
 "http://www.w3.org/Graphics/SVG/1.1/DTD/svg11.dtd">
<!-- Generated by graphviz version 2.38.0 (20140413.2041)
 -->
<!-- Title: Scheduler::getAvailableElevators Pages: 1 -->
<svg width="340pt" height="78pt"
 viewBox="0.00 0.00 340.00 77.50" xmlns="http://www.w3.org/2000/svg" xmlns:xlink="http://www.w3.org/1999/xlink">
<g id="graph0" class="graph" transform="scale(1 1) rotate(0) translate(4 73.5)">
<title>Scheduler::getAvailableElevators</title>
<polygon fill="white" stroke="none" points="-4,4 -4,-73.5 336,-73.5 336,4 -4,4"/>
<!-- Node1 -->
<g id="node1" class="node"><title>Node1</title>
<polygon fill="#bfbfbf" stroke="black" points="0,-22.5 0,-41.5 161,-41.5 161,-22.5 0,-22.5"/>
<text text-anchor="middle" x="80.5" y="-29.5" font-family="Helvetica,sans-Serif" font-size="10.00">Scheduler::getAvailableElevators</text>
</g>
<!-- Node2 -->
<g id="node2" class="node"><title>Node2</title>
<g id="a_node2"><a xlink:href="class_planning_scheduler.html#a30e0bb81405e162e596e428cb2a6c1e3" target="_top" xlink:title="PlanningScheduler::\lschedule">
<polygon fill="white" stroke="black" points="212.5,-39 212.5,-69 316.5,-69 316.5,-39 212.5,-39"/>
<text text-anchor="start" x="220.5" y="-57" font-family="Helvetica,sans-Serif" font-size="10.00">PlanningScheduler::</text>
<text text-anchor="middle" x="264.5" y="-46" font-family="Helvetica,sans-Serif" font-size="10.00">schedule</text>
</a>
</g>
</g>
<!-- Node1&#45;&gt;Node2 -->
<g id="edge1" class="edge"><title>Node1&#45;&gt;Node2</title>
<path fill="none" stroke="midnightblue" d="M170.261,-42.7293C184.736,-44.4791 199.287,-46.238 212.447,-47.8288"/>
<polygon fill="midnightblue" stroke="midnightblue" points="170.617,-39.247 160.269,-41.5216 169.777,-46.1964 170.617,-39.247"/>
</g>
<!-- Node3 -->
<g id="node3" class="node"><title>Node3</title>
<g id="a_node3"><a xlink:href="class_simple_scheduler.html#a76990bffc6cf70197e96d41535ebf260" target="_top" xlink:title="SimpleScheduler::schedule">
<polygon fill="white" stroke="black" points="197,-0.5 197,-19.5 332,-19.5 332,-0.5 197,-0.5"/>
<text text-anchor="middle" x="264.5" y="-7.5" font-family="Helvetica,sans-Serif" font-size="10.00">SimpleScheduler::schedule</text>
</a>
</g>
</g>
<!-- Node1&#45;&gt;Node3 -->
<g id="edge2" class="edge"><title>Node1&#45;&gt;Node3</title>
<path fill="none" stroke="midnightblue" d="M170.326,-21.2627C179.261,-20.1827 188.223,-19.0994 196.869,-18.0543"/>
<polygon fill="midnightblue" stroke="midnightblue" points="169.777,-17.8036 160.269,-22.4784 170.617,-24.753 169.777,-17.8036"/>
</g>
</g>
</svg>
