<?xml version="1.0" encoding="UTF-8" standalone="no"?>
<!DOCTYPE svg PUBLIC "-//W3C//DTD SVG 1.1//EN"
 "http://www.w3.org/Graphics/SVG/1.1/DTD/svg11.dtd">
<!-- Generated by graphviz version 2.38.0 (20140413.2041)
 -->
<!-- Title: Reporter::generateReport Pages: 1 -->
<svg width="310pt" height="66pt"
 viewBox="0.00 0.00 310.00 66.00" xmlns="http://www.w3.org/2000/svg" xmlns:xlink="http://www.w3.org/1999/xlink">
<g id="graph0" class="graph" transform="scale(1 1) rotate(0) translate(4 62)">
<title>Reporter::generateReport</title>
<polygon fill="white" stroke="none" points="-4,4 -4,-62 306,-62 306,4 -4,4"/>
<!-- Node1 -->
<g id="node1" class="node"><title>Node1</title>
<polygon fill="#bfbfbf" stroke="black" points="0,-19.5 0,-38.5 127,-38.5 127,-19.5 0,-19.5"/>
<text text-anchor="middle" x="63.5" y="-26.5" font-family="Helvetica,sans-Serif" font-size="10.00">Reporter::generateReport</text>
</g>
<!-- Node2 -->
<g id="node2" class="node"><title>Node2</title>
<g id="a_node2"><a xlink:href="namespace_helpers.html#a6623afaa6548aa85a5a1bfd019e1e55f" target="_top" xlink:title="Helpers::schedulerName">
<polygon fill="white" stroke="black" points="170,-38.5 170,-57.5 295,-57.5 295,-38.5 170,-38.5"/>
<text text-anchor="middle" x="232.5" y="-45.5" font-family="Helvetica,sans-Serif" font-size="10.00">Helpers::schedulerName</text>
</a>
</g>
</g>
<!-- Node1&#45;&gt;Node2 -->
<g id="edge1" class="edge"><title>Node1&#45;&gt;Node2</title>
<path fill="none" stroke="midnightblue" d="M127.16,-36.129C137.751,-37.3339 148.819,-38.5932 159.623,-39.8224"/>
<polygon fill="midnightblue" stroke="midnightblue" points="159.544,-43.3359 169.876,-40.9889 160.336,-36.3808 159.544,-43.3359"/>
</g>
<!-- Node3 -->
<g id="node3" class="node"><title>Node3</title>
<g id="a_node3"><a xlink:href="namespace_helpers.html#a51b4991513657bea83b1ad43c778aec7" target="_top" xlink:title="Helpers::costFunctionName">
<polygon fill="white" stroke="black" points="163,-0.5 163,-19.5 302,-19.5 302,-0.5 163,-0.5"/>
<text text-anchor="middle" x="232.5" y="-7.5" font-family="Helvetica,sans-Serif" font-size="10.00">Helpers::costFunctionName</text>
</a>
</g>
</g>
<!-- Node1&#45;&gt;Node3 -->
<g id="edge2" class="edge"><title>Node1&#45;&gt;Node3</title>
<path fill="none" stroke="midnightblue" d="M127.16,-21.871C135.542,-20.9174 144.223,-19.9298 152.835,-18.9499"/>
<polygon fill="midnightblue" stroke="midnightblue" points="153.351,-22.4139 162.891,-17.8058 152.56,-15.4587 153.351,-22.4139"/>
</g>
</g>
</svg>
