<?xml version="1.0" encoding="UTF-8" standalone="no"?>
<!DOCTYPE svg PUBLIC "-//W3C//DTD SVG 1.1//EN"
 "http://www.w3.org/Graphics/SVG/1.1/DTD/svg11.dtd">
<!-- Generated by graphviz version 2.38.0 (20140413.2041)
 -->
<!-- Title: Reporter::generate Pages: 1 -->
<svg width="454pt" height="192pt"
 viewBox="0.00 0.00 454.00 192.00" xmlns="http://www.w3.org/2000/svg" xmlns:xlink="http://www.w3.org/1999/xlink">
<g id="graph0" class="graph" transform="scale(1 1) rotate(0) translate(4 188)">
<title>Reporter::generate</title>
<polygon fill="white" stroke="none" points="-4,4 -4,-188 450,-188 450,4 -4,4"/>
<!-- Node1 -->
<g id="node1" class="node"><title>Node1</title>
<polygon fill="#bfbfbf" stroke="black" points="0,-76.5 0,-95.5 98,-95.5 98,-76.5 0,-76.5"/>
<text text-anchor="middle" x="49" y="-83.5" font-family="Helvetica,sans-Serif" font-size="10.00">Reporter::generate</text>
</g>
<!-- Node2 -->
<g id="node2" class="node"><title>Node2</title>
<g id="a_node2"><a xlink:href="class_reporter.html#aee1c3bbf665f10a2fb27da4f9154b7ee" target="_top" xlink:title="Reporter::generateUnified\lReport">
<polygon fill="white" stroke="black" points="138.5,-115 138.5,-145 266.5,-145 266.5,-115 138.5,-115"/>
<text text-anchor="start" x="146.5" y="-133" font-family="Helvetica,sans-Serif" font-size="10.00">Reporter::generateUnified</text>
<text text-anchor="middle" x="202.5" y="-122" font-family="Helvetica,sans-Serif" font-size="10.00">Report</text>
</a>
</g>
</g>
<!-- Node1&#45;&gt;Node2 -->
<g id="edge1" class="edge"><title>Node1&#45;&gt;Node2</title>
<path fill="none" stroke="midnightblue" d="M82.8732,-95.5473C99.5496,-100.391 120.36,-106.435 139.874,-112.102"/>
<polygon fill="midnightblue" stroke="midnightblue" points="139.048,-115.507 149.627,-114.935 141,-108.784 139.048,-115.507"/>
</g>
<!-- Node5 -->
<g id="node5" class="node"><title>Node5</title>
<g id="a_node5"><a xlink:href="class_reporter.html#a088522cbaeeeb5352f117c336d6a1bdb" target="_top" xlink:title="Reporter::generateReport">
<polygon fill="white" stroke="black" points="139,-164.5 139,-183.5 266,-183.5 266,-164.5 139,-164.5"/>
<text text-anchor="middle" x="202.5" y="-171.5" font-family="Helvetica,sans-Serif" font-size="10.00">Reporter::generateReport</text>
</a>
</g>
</g>
<!-- Node1&#45;&gt;Node5 -->
<g id="edge4" class="edge"><title>Node1&#45;&gt;Node5</title>
<path fill="none" stroke="midnightblue" d="M59.3656,-95.9794C73.9396,-110.937 103.55,-139.108 134,-155 138.293,-157.241 142.882,-159.244 147.572,-161.029"/>
<polygon fill="midnightblue" stroke="midnightblue" points="146.68,-164.424 157.275,-164.394 148.973,-157.811 146.68,-164.424"/>
</g>
<!-- Node6 -->
<g id="node6" class="node"><title>Node6</title>
<g id="a_node6"><a xlink:href="class_reporter.html#aeca148325b58ed19ea74e6626696d610" target="_top" xlink:title="Reporter::generateArrivals">
<polygon fill="white" stroke="black" points="137,-76.5 137,-95.5 268,-95.5 268,-76.5 137,-76.5"/>
<text text-anchor="middle" x="202.5" y="-83.5" font-family="Helvetica,sans-Serif" font-size="10.00">Reporter::generateArrivals</text>
</a>
</g>
</g>
<!-- Node1&#45;&gt;Node6 -->
<g id="edge7" class="edge"><title>Node1&#45;&gt;Node6</title>
<path fill="none" stroke="midnightblue" d="M98.3521,-86C107.414,-86 117.081,-86 126.727,-86"/>
<polygon fill="midnightblue" stroke="midnightblue" points="126.745,-89.5001 136.745,-86 126.745,-82.5001 126.745,-89.5001"/>
</g>
<!-- Node7 -->
<g id="node7" class="node"><title>Node7</title>
<g id="a_node7"><a xlink:href="class_reporter.html#a6de9a2fcddd263bafe7588d0221b58cd" target="_top" xlink:title="Reporter::generateDropOffs">
<polygon fill="white" stroke="black" points="134,-38.5 134,-57.5 271,-57.5 271,-38.5 134,-38.5"/>
<text text-anchor="middle" x="202.5" y="-45.5" font-family="Helvetica,sans-Serif" font-size="10.00">Reporter::generateDropOffs</text>
</a>
</g>
</g>
<!-- Node1&#45;&gt;Node7 -->
<g id="edge8" class="edge"><title>Node1&#45;&gt;Node7</title>
<path fill="none" stroke="midnightblue" d="M88.2298,-76.411C108.132,-71.4191 132.657,-65.2676 153.791,-59.9666"/>
<polygon fill="midnightblue" stroke="midnightblue" points="154.697,-63.3479 163.545,-57.5201 152.994,-56.5582 154.697,-63.3479"/>
</g>
<!-- Node8 -->
<g id="node8" class="node"><title>Node8</title>
<g id="a_node8"><a xlink:href="class_reporter.html#a2e47f9dccf4c0dda8ea5e51ff6296a29" target="_top" xlink:title="Reporter::generateCharts">
<polygon fill="white" stroke="black" points="139,-0.5 139,-19.5 266,-19.5 266,-0.5 139,-0.5"/>
<text text-anchor="middle" x="202.5" y="-7.5" font-family="Helvetica,sans-Serif" font-size="10.00">Reporter::generateCharts</text>
</a>
</g>
</g>
<!-- Node1&#45;&gt;Node8 -->
<g id="edge9" class="edge"><title>Node1&#45;&gt;Node8</title>
<path fill="none" stroke="midnightblue" d="M61.5076,-76.3978C77.0497,-63.866 106.034,-42.0052 134,-29 139.036,-26.6578 144.422,-24.547 149.872,-22.6595"/>
<polygon fill="midnightblue" stroke="midnightblue" points="151.242,-25.8955 159.689,-19.5013 149.098,-19.2318 151.242,-25.8955"/>
</g>
<!-- Node3 -->
<g id="node3" class="node"><title>Node3</title>
<g id="a_node3"><a xlink:href="namespace_helpers.html#a6623afaa6548aa85a5a1bfd019e1e55f" target="_top" xlink:title="Helpers::schedulerName">
<polygon fill="white" stroke="black" points="314,-162.5 314,-181.5 439,-181.5 439,-162.5 314,-162.5"/>
<text text-anchor="middle" x="376.5" y="-169.5" font-family="Helvetica,sans-Serif" font-size="10.00">Helpers::schedulerName</text>
</a>
</g>
</g>
<!-- Node2&#45;&gt;Node3 -->
<g id="edge2" class="edge"><title>Node2&#45;&gt;Node3</title>
<path fill="none" stroke="midnightblue" d="M265.11,-145.044C285.385,-149.995 307.632,-155.428 326.809,-160.11"/>
<polygon fill="midnightblue" stroke="midnightblue" points="325.985,-163.512 336.53,-162.484 327.646,-156.712 325.985,-163.512"/>
</g>
<!-- Node4 -->
<g id="node4" class="node"><title>Node4</title>
<g id="a_node4"><a xlink:href="namespace_helpers.html#a51b4991513657bea83b1ad43c778aec7" target="_top" xlink:title="Helpers::costFunctionName">
<polygon fill="white" stroke="black" points="307,-121.5 307,-140.5 446,-140.5 446,-121.5 307,-121.5"/>
<text text-anchor="middle" x="376.5" y="-128.5" font-family="Helvetica,sans-Serif" font-size="10.00">Helpers::costFunctionName</text>
</a>
</g>
</g>
<!-- Node2&#45;&gt;Node4 -->
<g id="edge3" class="edge"><title>Node2&#45;&gt;Node4</title>
<path fill="none" stroke="midnightblue" d="M266.57,-130.367C276.421,-130.424 286.705,-130.484 296.852,-130.543"/>
<polygon fill="midnightblue" stroke="midnightblue" points="296.912,-134.043 306.932,-130.601 296.953,-127.043 296.912,-134.043"/>
</g>
<!-- Node5&#45;&gt;Node3 -->
<g id="edge5" class="edge"><title>Node5&#45;&gt;Node3</title>
<path fill="none" stroke="midnightblue" d="M266.083,-173.272C278.239,-173.131 291.072,-172.982 303.503,-172.837"/>
<polygon fill="midnightblue" stroke="midnightblue" points="303.869,-176.333 313.827,-172.717 303.787,-169.334 303.869,-176.333"/>
</g>
<!-- Node5&#45;&gt;Node4 -->
<g id="edge6" class="edge"><title>Node5&#45;&gt;Node4</title>
<path fill="none" stroke="midnightblue" d="M241.672,-164.457C266.947,-158.138 300.302,-149.799 327.39,-143.028"/>
<polygon fill="midnightblue" stroke="midnightblue" points="328.582,-146.337 337.434,-140.516 326.884,-139.546 328.582,-146.337"/>
</g>
</g>
</svg>
