<?xml version="1.0" encoding="UTF-8" standalone="no"?>
<!DOCTYPE svg PUBLIC "-//W3C//DTD SVG 1.1//EN"
 "http://www.w3.org/Graphics/SVG/1.1/DTD/svg11.dtd">
<!-- Generated by graphviz version 2.38.0 (20140413.2041)
 -->
<!-- Title: CostFunctionCreator::create Pages: 1 -->
<svg width="434pt" height="39pt"
 viewBox="0.00 0.00 434.00 39.00" xmlns="http://www.w3.org/2000/svg" xmlns:xlink="http://www.w3.org/1999/xlink">
<g id="graph0" class="graph" transform="scale(1 1) rotate(0) translate(4 35)">
<title>CostFunctionCreator::create</title>
<polygon fill="white" stroke="none" points="-4,4 -4,-35 430,-35 430,4 -4,4"/>
<!-- Node1 -->
<g id="node1" class="node"><title>Node1</title>
<polygon fill="#bfbfbf" stroke="black" points="0,-0.5 0,-30.5 116,-30.5 116,-0.5 0,-0.5"/>
<text text-anchor="start" x="8" y="-18.5" font-family="Ubuntu Mono" font-size="10.00">CostFunctionCreator</text>
<text text-anchor="middle" x="58" y="-7.5" font-family="Ubuntu Mono" font-size="10.00">::create</text>
</g>
<!-- Node2 -->
<g id="node2" class="node"><title>Node2</title>
<g id="a_node2"><a xlink:href="class_simulator.html#a7a8ed7267e6892f0d16c9ffe8b16a353" target="_top" xlink:title="Simulator::createBuilding">
<polygon fill="white" stroke="black" points="152,-6 152,-25 300,-25 300,-6 152,-6"/>
<text text-anchor="middle" x="226" y="-13" font-family="Ubuntu Mono" font-size="10.00">Simulator::createBuilding</text>
</a>
</g>
</g>
<!-- Node1&#45;&gt;Node2 -->
<g id="edge1" class="edge"><title>Node1&#45;&gt;Node2</title>
<path fill="none" stroke="midnightblue" d="M126.292,-15.5C134.737,-15.5 143.407,-15.5 151.935,-15.5"/>
<polygon fill="midnightblue" stroke="midnightblue" points="126.128,-12.0001 116.128,-15.5 126.128,-19.0001 126.128,-12.0001"/>
</g>
<!-- Node3 -->
<g id="node3" class="node"><title>Node3</title>
<g id="a_node3"><a xlink:href="class_simulator.html#aa2de7e32b04cc3e8fc60aec23997621b" target="_top" xlink:title="Simulator::run">
<polygon fill="white" stroke="black" points="336,-6 336,-25 426,-25 426,-6 336,-6"/>
<text text-anchor="middle" x="381" y="-13" font-family="Ubuntu Mono" font-size="10.00">Simulator::run</text>
</a>
</g>
</g>
<!-- Node2&#45;&gt;Node3 -->
<g id="edge2" class="edge"><title>Node2&#45;&gt;Node3</title>
<path fill="none" stroke="midnightblue" d="M310.585,-15.5C319.268,-15.5 327.827,-15.5 335.812,-15.5"/>
<polygon fill="midnightblue" stroke="midnightblue" points="310.363,-12.0001 300.363,-15.5 310.363,-19.0001 310.363,-12.0001"/>
</g>
</g>
</svg>
