<?xml version="1.0" encoding="UTF-8" standalone="no"?>
<!DOCTYPE svg PUBLIC "-//W3C//DTD SVG 1.1//EN"
 "http://www.w3.org/Graphics/SVG/1.1/DTD/svg11.dtd">
<!-- Generated by graphviz version 2.38.0 (20140413.2041)
 -->
<!-- Title: Event::str Pages: 1 -->
<svg width="186pt" height="66pt"
 viewBox="0.00 0.00 186.00 66.00" xmlns="http://www.w3.org/2000/svg" xmlns:xlink="http://www.w3.org/1999/xlink">
<g id="graph0" class="graph" transform="scale(1 1) rotate(0) translate(4 62)">
<title>Event::str</title>
<polygon fill="white" stroke="none" points="-4,4 -4,-62 182,-62 182,4 -4,4"/>
<!-- Node1 -->
<g id="node1" class="node"><title>Node1</title>
<polygon fill="#bfbfbf" stroke="black" points="0,-19.5 0,-38.5 59,-38.5 59,-19.5 0,-19.5"/>
<text text-anchor="middle" x="29.5" y="-26.5" font-family="Helvetica,sans-Serif" font-size="10.00">Event::str</text>
</g>
<!-- Node2 -->
<g id="node2" class="node"><title>Node2</title>
<g id="a_node2"><a xlink:href="class_event.html#a973b98b35d66d83449ee370f17b8f987" target="_top" xlink:title="Event::getId">
<polygon fill="white" stroke="black" points="101.5,-38.5 101.5,-57.5 171.5,-57.5 171.5,-38.5 101.5,-38.5"/>
<text text-anchor="middle" x="136.5" y="-45.5" font-family="Helvetica,sans-Serif" font-size="10.00">Event::getId</text>
</a>
</g>
</g>
<!-- Node1&#45;&gt;Node2 -->
<g id="edge1" class="edge"><title>Node1&#45;&gt;Node2</title>
<path fill="none" stroke="midnightblue" d="M59.1917,-34.1918C69.0388,-35.9737 80.3035,-38.0121 91.1,-39.9657"/>
<polygon fill="midnightblue" stroke="midnightblue" points="90.7828,-43.4651 101.246,-41.8017 92.0293,-36.5769 90.7828,-43.4651"/>
</g>
<!-- Node3 -->
<g id="node3" class="node"><title>Node3</title>
<g id="a_node3"><a xlink:href="class_event.html#ab0c2e30730d5859851f3126258c0126e" target="_top" xlink:title="Event::getType">
<polygon fill="white" stroke="black" points="95,-0.5 95,-19.5 178,-19.5 178,-0.5 95,-0.5"/>
<text text-anchor="middle" x="136.5" y="-7.5" font-family="Helvetica,sans-Serif" font-size="10.00">Event::getType</text>
</a>
</g>
</g>
<!-- Node1&#45;&gt;Node3 -->
<g id="edge2" class="edge"><title>Node1&#45;&gt;Node3</title>
<path fill="none" stroke="midnightblue" d="M59.1917,-23.8082C67.1327,-22.3712 75.9957,-20.7674 84.7916,-19.1758"/>
<polygon fill="midnightblue" stroke="midnightblue" points="85.4242,-22.6183 94.6412,-17.3935 84.1778,-15.7301 85.4242,-22.6183"/>
</g>
</g>
</svg>
