<?xml version="1.0" encoding="UTF-8" standalone="no"?>
<!DOCTYPE svg PUBLIC "-//W3C//DTD SVG 1.1//EN"
 "http://www.w3.org/Graphics/SVG/1.1/DTD/svg11.dtd">
<!-- Generated by graphviz version 2.38.0 (20140413.2041)
 -->
<!-- Title: Statistics::getAvgWT Pages: 1 -->
<svg width="288pt" height="66pt"
 viewBox="0.00 0.00 288.00 66.00" xmlns="http://www.w3.org/2000/svg" xmlns:xlink="http://www.w3.org/1999/xlink">
<g id="graph0" class="graph" transform="scale(1 1) rotate(0) translate(4 62)">
<title>Statistics::getAvgWT</title>
<polygon fill="white" stroke="none" points="-4,4 -4,-62 284,-62 284,4 -4,4"/>
<!-- Node1 -->
<g id="node1" class="node"><title>Node1</title>
<polygon fill="#bfbfbf" stroke="black" points="0,-19.5 0,-38.5 122,-38.5 122,-19.5 0,-19.5"/>
<text text-anchor="middle" x="61" y="-26.5" font-family="Ubuntu Mono" font-size="10.00">Statistics::getAvgWT</text>
</g>
<!-- Node2 -->
<g id="node2" class="node"><title>Node2</title>
<g id="a_node2"><a xlink:href="class_statistics.html#ad855ad97545c2edcc2f344efe8f8d152" target="_top" xlink:title="Statistics::getDevWT">
<polygon fill="white" stroke="black" points="158,-38.5 158,-57.5 280,-57.5 280,-38.5 158,-38.5"/>
<text text-anchor="middle" x="219" y="-45.5" font-family="Ubuntu Mono" font-size="10.00">Statistics::getDevWT</text>
</a>
</g>
</g>
<!-- Node1&#45;&gt;Node2 -->
<g id="edge1" class="edge"><title>Node1&#45;&gt;Node2</title>
<path fill="none" stroke="midnightblue" d="M132.259,-37.5572C140.802,-38.5977 149.469,-39.6533 157.847,-40.6736"/>
<polygon fill="midnightblue" stroke="midnightblue" points="132.664,-34.0807 122.314,-36.3459 131.817,-41.0293 132.664,-34.0807"/>
</g>
<!-- Node3 -->
<g id="node3" class="node"><title>Node3</title>
<g id="a_node3"><a xlink:href="class_statistics.html#a7f560ff5b5c152e06a3e5e831455da91" target="_top" xlink:title="Statistics::getDevJT">
<polygon fill="white" stroke="black" points="158,-0.5 158,-19.5 280,-19.5 280,-0.5 158,-0.5"/>
<text text-anchor="middle" x="219" y="-7.5" font-family="Ubuntu Mono" font-size="10.00">Statistics::getDevJT</text>
</a>
</g>
</g>
<!-- Node1&#45;&gt;Node3 -->
<g id="edge2" class="edge"><title>Node1&#45;&gt;Node3</title>
<path fill="none" stroke="midnightblue" d="M132.259,-20.4428C140.802,-19.4023 149.469,-18.3467 157.847,-17.3264"/>
<polygon fill="midnightblue" stroke="midnightblue" points="131.817,-16.9707 122.314,-21.6541 132.664,-23.9193 131.817,-16.9707"/>
</g>
</g>
</svg>
