<?xml version="1.0" encoding="UTF-8" standalone="no"?>
<!DOCTYPE svg PUBLIC "-//W3C//DTD SVG 1.1//EN"
 "http://www.w3.org/Graphics/SVG/1.1/DTD/svg11.dtd">
<!-- Generated by graphviz version 2.38.0 (20140413.2041)
 -->
<!-- Title: Statistics Pages: 1 -->
<svg width="135pt" height="270pt"
 viewBox="0.00 0.00 135.00 270.00" xmlns="http://www.w3.org/2000/svg" xmlns:xlink="http://www.w3.org/1999/xlink">
<g id="graph0" class="graph" transform="scale(1 1) rotate(0) translate(4 266)">
<title>Statistics</title>
<polygon fill="white" stroke="none" points="-4,4 -4,-266 131,-266 131,4 -4,4"/>
<!-- Node1 -->
<g id="node1" class="node"><title>Node1</title>
<polygon fill="#bfbfbf" stroke="black" points="0,-0.5 0,-167.5 127,-167.5 127,-0.5 0,-0.5"/>
<text text-anchor="middle" x="63.5" y="-155.5" font-family="Ubuntu Mono" font-size="10.00">Statistics</text>
<polyline fill="none" stroke="black" points="0,-148.5 127,-148.5 "/>
<text text-anchor="middle" x="63.5" y="-136.5" font-family="Ubuntu Mono" font-size="10.00"> </text>
<polyline fill="none" stroke="black" points="0,-129.5 127,-129.5 "/>
<text text-anchor="start" x="8" y="-117.5" font-family="Ubuntu Mono" font-size="10.00">+ Statistics()</text>
<text text-anchor="start" x="8" y="-106.5" font-family="Ubuntu Mono" font-size="10.00">+ ~Statistics()</text>
<text text-anchor="start" x="8" y="-95.5" font-family="Ubuntu Mono" font-size="10.00">+ keepRunning()</text>
<text text-anchor="start" x="8" y="-84.5" font-family="Ubuntu Mono" font-size="10.00">+ getScenario()</text>
<text text-anchor="start" x="8" y="-73.5" font-family="Ubuntu Mono" font-size="10.00">+ getClientsArrived()</text>
<text text-anchor="start" x="8" y="-62.5" font-family="Ubuntu Mono" font-size="10.00">+ getClientsServed()</text>
<text text-anchor="start" x="8" y="-51.5" font-family="Ubuntu Mono" font-size="10.00">+ getTotalWT()</text>
<text text-anchor="start" x="8" y="-40.5" font-family="Ubuntu Mono" font-size="10.00">+ getTotalJT()</text>
<text text-anchor="start" x="8" y="-29.5" font-family="Ubuntu Mono" font-size="10.00">+ getAvgWT()</text>
<text text-anchor="start" x="8" y="-18.5" font-family="Ubuntu Mono" font-size="10.00">+ getAvgJT()</text>
<text text-anchor="start" x="8" y="-7.5" font-family="Ubuntu Mono" font-size="10.00">and 8 more...</text>
</g>
<!-- Node2 -->
<g id="node2" class="node"><title>Node2</title>
<g id="a_node2"><a xlink:href="class_event_observer.html" target="_top" xlink:title="{EventObserver\n||+ notify()\l}">
<polygon fill="white" stroke="black" points="21,-204.5 21,-261.5 106,-261.5 106,-204.5 21,-204.5"/>
<text text-anchor="middle" x="63.5" y="-249.5" font-family="Ubuntu Mono" font-size="10.00">EventObserver</text>
<polyline fill="none" stroke="black" points="21,-242.5 106,-242.5 "/>
<text text-anchor="middle" x="63.5" y="-230.5" font-family="Ubuntu Mono" font-size="10.00"> </text>
<polyline fill="none" stroke="black" points="21,-223.5 106,-223.5 "/>
<text text-anchor="start" x="29" y="-211.5" font-family="Ubuntu Mono" font-size="10.00">+ notify()</text>
</a>
</g>
</g>
<!-- Node2&#45;&gt;Node1 -->
<g id="edge1" class="edge"><title>Node2&#45;&gt;Node1</title>
<path fill="none" stroke="midnightblue" d="M63.5,-194.35C63.5,-186.08 63.5,-177.008 63.5,-167.738"/>
<polygon fill="none" stroke="midnightblue" points="60.0001,-194.35 63.5,-204.35 67.0001,-194.35 60.0001,-194.35"/>
</g>
</g>
</svg>
