<?xml version="1.0" encoding="UTF-8" standalone="no"?>
<!DOCTYPE svg PUBLIC "-//W3C//DTD SVG 1.1//EN"
 "http://www.w3.org/Graphics/SVG/1.1/DTD/svg11.dtd">
<!-- Generated by graphviz version 2.38.0 (20140413.2041)
 -->
<!-- Title: CostFunction Pages: 1 -->
<svg width="732pt" height="171pt"
 viewBox="0.00 0.00 731.50 171.00" xmlns="http://www.w3.org/2000/svg" xmlns:xlink="http://www.w3.org/1999/xlink">
<g id="graph0" class="graph" transform="scale(1 1) rotate(0) translate(4 167)">
<title>CostFunction</title>
<polygon fill="white" stroke="none" points="-4,4 -4,-167 727.5,-167 727.5,4 -4,4"/>
<!-- Node1 -->
<g id="node1" class="node"><title>Node1</title>
<polygon fill="#bfbfbf" stroke="black" points="329,-105.5 329,-162.5 404,-162.5 404,-105.5 329,-105.5"/>
<text text-anchor="middle" x="366.5" y="-150.5" font-family="Helvetica,sans-Serif" font-size="10.00">CostFunction</text>
<polyline fill="none" stroke="black" points="329,-143.5 404,-143.5 "/>
<text text-anchor="middle" x="366.5" y="-131.5" font-family="Helvetica,sans-Serif" font-size="10.00"> </text>
<polyline fill="none" stroke="black" points="329,-124.5 404,-124.5 "/>
<text text-anchor="start" x="337" y="-112.5" font-family="Helvetica,sans-Serif" font-size="10.00">+ calculate()</text>
</g>
<!-- Node2 -->
<g id="node2" class="node"><title>Node2</title>
<g id="a_node2"><a xlink:href="class_better_nearest_neighbour_cost_function.html" target="_top" xlink:title="{BetterNearestNeighbourCost\lFunction\n||+ calculate()\l}">
<polygon fill="white" stroke="black" points="0,-0.5 0,-68.5 143,-68.5 143,-0.5 0,-0.5"/>
<text text-anchor="start" x="8" y="-56.5" font-family="Helvetica,sans-Serif" font-size="10.00">BetterNearestNeighbourCost</text>
<text text-anchor="middle" x="71.5" y="-45.5" font-family="Helvetica,sans-Serif" font-size="10.00">Function</text>
<polyline fill="none" stroke="black" points="0,-38.5 143,-38.5 "/>
<text text-anchor="middle" x="71.5" y="-26.5" font-family="Helvetica,sans-Serif" font-size="10.00"> </text>
<polyline fill="none" stroke="black" points="0,-19.5 143,-19.5 "/>
<text text-anchor="start" x="8" y="-7.5" font-family="Helvetica,sans-Serif" font-size="10.00">+ calculate()</text>
</a>
</g>
</g>
<!-- Node1&#45;&gt;Node2 -->
<g id="edge1" class="edge"><title>Node1&#45;&gt;Node2</title>
<path fill="none" stroke="midnightblue" d="M318.851,-120.247C275.185,-108.208 208.944,-89.0539 152.5,-69 149.489,-67.9301 146.426,-66.8103 143.342,-65.656"/>
<polygon fill="none" stroke="midnightblue" points="318.059,-123.659 328.629,-122.928 319.91,-116.909 318.059,-123.659"/>
</g>
<!-- Node3 -->
<g id="node3" class="node"><title>Node3</title>
<g id="a_node3"><a xlink:href="class_dummy_cost_function.html" target="_top" xlink:title="{DummyCostFunction\n||+ calculate()\l}">
<polygon fill="white" stroke="black" points="161.5,-6 161.5,-63 271.5,-63 271.5,-6 161.5,-6"/>
<text text-anchor="middle" x="216.5" y="-51" font-family="Helvetica,sans-Serif" font-size="10.00">DummyCostFunction</text>
<polyline fill="none" stroke="black" points="161.5,-44 271.5,-44 "/>
<text text-anchor="middle" x="216.5" y="-32" font-family="Helvetica,sans-Serif" font-size="10.00"> </text>
<polyline fill="none" stroke="black" points="161.5,-25 271.5,-25 "/>
<text text-anchor="start" x="169.5" y="-13" font-family="Helvetica,sans-Serif" font-size="10.00">+ calculate()</text>
</a>
</g>
</g>
<!-- Node1&#45;&gt;Node3 -->
<g id="edge2" class="edge"><title>Node1&#45;&gt;Node3</title>
<path fill="none" stroke="midnightblue" d="M320.181,-102.893C300.606,-90.1691 277.962,-75.4504 258.839,-63.0202"/>
<polygon fill="none" stroke="midnightblue" points="318.357,-105.881 328.649,-108.397 322.172,-100.012 318.357,-105.881"/>
</g>
<!-- Node4 -->
<g id="node4" class="node"><title>Node4</title>
<g id="a_node4"><a xlink:href="class_nearest_neighbour_cost_function.html" target="_top" xlink:title="{NearestNeighbourCostFunction\n||+ calculate()\l}">
<polygon fill="white" stroke="black" points="289.5,-6 289.5,-63 443.5,-63 443.5,-6 289.5,-6"/>
<text text-anchor="middle" x="366.5" y="-51" font-family="Helvetica,sans-Serif" font-size="10.00">NearestNeighbourCostFunction</text>
<polyline fill="none" stroke="black" points="289.5,-44 443.5,-44 "/>
<text text-anchor="middle" x="366.5" y="-32" font-family="Helvetica,sans-Serif" font-size="10.00"> </text>
<polyline fill="none" stroke="black" points="289.5,-25 443.5,-25 "/>
<text text-anchor="start" x="297.5" y="-13" font-family="Helvetica,sans-Serif" font-size="10.00">+ calculate()</text>
</a>
</g>
</g>
<!-- Node1&#45;&gt;Node4 -->
<g id="edge3" class="edge"><title>Node1&#45;&gt;Node4</title>
<path fill="none" stroke="midnightblue" d="M366.5,-95.0433C366.5,-84.4474 366.5,-73.1352 366.5,-63.248"/>
<polygon fill="none" stroke="midnightblue" points="363,-95.3212 366.5,-105.321 370,-95.3212 363,-95.3212"/>
</g>
<!-- Node5 -->
<g id="node5" class="node"><title>Node5</title>
<g id="a_node5"><a xlink:href="class_random_cost_function.html" target="_top" xlink:title="{RandomCostFunction\n||+ RandomCostFunction()\l+ calculate()\l}">
<polygon fill="white" stroke="black" points="462,-0.5 462,-68.5 589,-68.5 589,-0.5 462,-0.5"/>
<text text-anchor="middle" x="525.5" y="-56.5" font-family="Helvetica,sans-Serif" font-size="10.00">RandomCostFunction</text>
<polyline fill="none" stroke="black" points="462,-49.5 589,-49.5 "/>
<text text-anchor="middle" x="525.5" y="-37.5" font-family="Helvetica,sans-Serif" font-size="10.00"> </text>
<polyline fill="none" stroke="black" points="462,-30.5 589,-30.5 "/>
<text text-anchor="start" x="470" y="-18.5" font-family="Helvetica,sans-Serif" font-size="10.00">+ RandomCostFunction()</text>
<text text-anchor="start" x="470" y="-7.5" font-family="Helvetica,sans-Serif" font-size="10.00">+ calculate()</text>
</a>
</g>
</g>
<!-- Node1&#45;&gt;Node5 -->
<g id="edge4" class="edge"><title>Node1&#45;&gt;Node5</title>
<path fill="none" stroke="midnightblue" d="M412.939,-104.523C431.294,-93.2679 452.509,-80.2585 471.54,-68.5888"/>
<polygon fill="none" stroke="midnightblue" points="410.876,-101.683 404.181,-109.894 414.535,-107.65 410.876,-101.683"/>
</g>
<!-- Node6 -->
<g id="node6" class="node"><title>Node6</title>
<g id="a_node6"><a xlink:href="class_weighted_cost_function.html" target="_top" xlink:title="{WeightedCostFunction\n||+ calculate()\l}">
<polygon fill="white" stroke="black" points="607.5,-6 607.5,-63 723.5,-63 723.5,-6 607.5,-6"/>
<text text-anchor="middle" x="665.5" y="-51" font-family="Helvetica,sans-Serif" font-size="10.00">WeightedCostFunction</text>
<polyline fill="none" stroke="black" points="607.5,-44 723.5,-44 "/>
<text text-anchor="middle" x="665.5" y="-32" font-family="Helvetica,sans-Serif" font-size="10.00"> </text>
<polyline fill="none" stroke="black" points="607.5,-25 723.5,-25 "/>
<text text-anchor="start" x="615.5" y="-13" font-family="Helvetica,sans-Serif" font-size="10.00">+ calculate()</text>
</a>
</g>
</g>
<!-- Node1&#45;&gt;Node6 -->
<g id="edge5" class="edge"><title>Node1&#45;&gt;Node6</title>
<path fill="none" stroke="midnightblue" d="M414.191,-122.713C461.711,-111.799 536.355,-92.8473 598.5,-69 603.114,-67.2295 607.834,-65.2465 612.528,-63.1531"/>
<polygon fill="none" stroke="midnightblue" points="413.161,-119.357 404.184,-124.984 414.711,-126.184 413.161,-119.357"/>
</g>
</g>
</svg>
