<?xml version="1.0" encoding="UTF-8" standalone="no"?>
<!DOCTYPE svg PUBLIC "-//W3C//DTD SVG 1.1//EN"
 "http://www.w3.org/Graphics/SVG/1.1/DTD/svg11.dtd">
<!-- Generated by graphviz version 2.38.0 (20140413.2041)
 -->
<!-- Title: Statistics::getDevJT Pages: 1 -->
<svg width="456pt" height="28pt"
 viewBox="0.00 0.00 456.00 28.00" xmlns="http://www.w3.org/2000/svg" xmlns:xlink="http://www.w3.org/1999/xlink">
<g id="graph0" class="graph" transform="scale(1 1) rotate(0) translate(4 24)">
<title>Statistics::getDevJT</title>
<polygon fill="white" stroke="none" points="-4,4 -4,-24 452,-24 452,4 -4,4"/>
<!-- Node1 -->
<g id="node1" class="node"><title>Node1</title>
<polygon fill="#bfbfbf" stroke="black" points="0,-0.5 0,-19.5 122,-19.5 122,-0.5 0,-0.5"/>
<text text-anchor="middle" x="61" y="-7.5" font-family="Ubuntu Mono" font-size="10.00">Statistics::getDevJT</text>
</g>
<!-- Node2 -->
<g id="node2" class="node"><title>Node2</title>
<g id="a_node2"><a xlink:href="class_statistics.html#a5ed129f73662604d79465dade30577cc" target="_top" xlink:title="Statistics::getAvgWT">
<polygon fill="white" stroke="black" points="158,-0.5 158,-19.5 280,-19.5 280,-0.5 158,-0.5"/>
<text text-anchor="middle" x="219" y="-7.5" font-family="Ubuntu Mono" font-size="10.00">Statistics::getAvgWT</text>
</a>
</g>
</g>
<!-- Node1&#45;&gt;Node2 -->
<g id="edge1" class="edge"><title>Node1&#45;&gt;Node2</title>
<path fill="none" stroke="midnightblue" d="M122.314,-10C130.604,-10 139.175,-10 147.626,-10"/>
<polygon fill="midnightblue" stroke="midnightblue" points="147.847,-13.5001 157.847,-10 147.847,-6.5001 147.847,-13.5001"/>
</g>
<!-- Node3 -->
<g id="node3" class="node"><title>Node3</title>
<g id="a_node3"><a xlink:href="class_statistics.html#aa9a9a9daa51c577da9732823b8720ac4" target="_top" xlink:title="Statistics::getTotalWT">
<polygon fill="white" stroke="black" points="316,-0.5 316,-19.5 448,-19.5 448,-0.5 316,-0.5"/>
<text text-anchor="middle" x="382" y="-7.5" font-family="Ubuntu Mono" font-size="10.00">Statistics::getTotalWT</text>
</a>
</g>
</g>
<!-- Node2&#45;&gt;Node3 -->
<g id="edge2" class="edge"><title>Node2&#45;&gt;Node3</title>
<path fill="none" stroke="midnightblue" d="M280.409,-10C288.655,-10 297.202,-10 305.673,-10"/>
<polygon fill="midnightblue" stroke="midnightblue" points="305.941,-13.5001 315.941,-10 305.941,-6.5001 305.941,-13.5001"/>
</g>
</g>
</svg>
