<?xml version="1.0" encoding="UTF-8" standalone="no"?>
<!DOCTYPE svg PUBLIC "-//W3C//DTD SVG 1.1//EN"
 "http://www.w3.org/Graphics/SVG/1.1/DTD/svg11.dtd">
<!-- Generated by graphviz version 2.38.0 (20140413.2041)
 -->
<!-- Title: RandomCostFunction Pages: 1 -->
<svg width="140pt" height="171pt"
 viewBox="0.00 0.00 140.00 171.00" xmlns="http://www.w3.org/2000/svg" xmlns:xlink="http://www.w3.org/1999/xlink">
<g id="graph0" class="graph" transform="scale(1 1) rotate(0) translate(4 167)">
<title>RandomCostFunction</title>
<polygon fill="white" stroke="none" points="-4,4 -4,-167 136,-167 136,4 -4,4"/>
<!-- Node1 -->
<g id="node1" class="node"><title>Node1</title>
<polygon fill="#bfbfbf" stroke="black" points="0,-0.5 0,-68.5 132,-68.5 132,-0.5 0,-0.5"/>
<text text-anchor="middle" x="66" y="-56.5" font-family="Ubuntu Mono" font-size="10.00">RandomCostFunction</text>
<polyline fill="none" stroke="black" points="0,-49.5 132,-49.5 "/>
<text text-anchor="middle" x="66" y="-37.5" font-family="Ubuntu Mono" font-size="10.00"> </text>
<polyline fill="none" stroke="black" points="0,-30.5 132,-30.5 "/>
<text text-anchor="start" x="8" y="-18.5" font-family="Ubuntu Mono" font-size="10.00">+ RandomCostFunction()</text>
<text text-anchor="start" x="8" y="-7.5" font-family="Ubuntu Mono" font-size="10.00">+ calculate()</text>
</g>
<!-- Node2 -->
<g id="node2" class="node"><title>Node2</title>
<g id="a_node2"><a xlink:href="class_cost_function.html" target="_top" xlink:title="{CostFunction\n||+ calculate()\l}">
<polygon fill="white" stroke="black" points="23.5,-105.5 23.5,-162.5 108.5,-162.5 108.5,-105.5 23.5,-105.5"/>
<text text-anchor="middle" x="66" y="-150.5" font-family="Ubuntu Mono" font-size="10.00">CostFunction</text>
<polyline fill="none" stroke="black" points="23.5,-143.5 108.5,-143.5 "/>
<text text-anchor="middle" x="66" y="-131.5" font-family="Ubuntu Mono" font-size="10.00"> </text>
<polyline fill="none" stroke="black" points="23.5,-124.5 108.5,-124.5 "/>
<text text-anchor="start" x="31.5" y="-112.5" font-family="Ubuntu Mono" font-size="10.00">+ calculate()</text>
</a>
</g>
</g>
<!-- Node2&#45;&gt;Node1 -->
<g id="edge1" class="edge"><title>Node2&#45;&gt;Node1</title>
<path fill="none" stroke="midnightblue" d="M66,-95.0631C66,-86.3933 66,-77.2431 66,-68.7855"/>
<polygon fill="none" stroke="midnightblue" points="62.5001,-95.3212 66,-105.321 69.5001,-95.3212 62.5001,-95.3212"/>
</g>
</g>
</svg>
