<?xml version="1.0" encoding="UTF-8" standalone="no"?>
<!DOCTYPE svg PUBLIC "-//W3C//DTD SVG 1.1//EN"
 "http://www.w3.org/Graphics/SVG/1.1/DTD/svg11.dtd">
<!-- Generated by graphviz version 2.38.0 (20140413.2041)
 -->
<!-- Title: Simulator::createBuilding Pages: 1 -->
<svg width="294pt" height="154pt"
 viewBox="0.00 0.00 294.00 153.50" xmlns="http://www.w3.org/2000/svg" xmlns:xlink="http://www.w3.org/1999/xlink">
<g id="graph0" class="graph" transform="scale(1 1) rotate(0) translate(4 149.5)">
<title>Simulator::createBuilding</title>
<polygon fill="white" stroke="none" points="-4,4 -4,-149.5 290,-149.5 290,4 -4,4"/>
<!-- Node1 -->
<g id="node1" class="node"><title>Node1</title>
<polygon fill="#bfbfbf" stroke="black" points="0,-69 0,-88 125,-88 125,-69 0,-69"/>
<text text-anchor="middle" x="62.5" y="-76" font-family="Helvetica,sans-Serif" font-size="10.00">Simulator::createBuilding</text>
</g>
<!-- Node2 -->
<g id="node2" class="node"><title>Node2</title>
<g id="a_node2"><a xlink:href="class_floor.html#a294df3a0179a79c3a9a2765418368d03" target="_top" xlink:title="Floor::create">
<polygon fill="white" stroke="black" points="188,-126 188,-145 259,-145 259,-126 188,-126"/>
<text text-anchor="middle" x="223.5" y="-133" font-family="Helvetica,sans-Serif" font-size="10.00">Floor::create</text>
</a>
</g>
</g>
<!-- Node1&#45;&gt;Node2 -->
<g id="edge1" class="edge"><title>Node1&#45;&gt;Node2</title>
<path fill="none" stroke="midnightblue" d="M86.5712,-88.0332C106.218,-96.0208 135.27,-107.524 161,-116.5 167.163,-118.65 173.715,-120.808 180.157,-122.858"/>
<polygon fill="midnightblue" stroke="midnightblue" points="179.531,-126.329 190.12,-125.975 181.621,-119.649 179.531,-126.329"/>
</g>
<!-- Node3 -->
<g id="node3" class="node"><title>Node3</title>
<g id="a_node3"><a xlink:href="class_elevator.html#a6a5d8cb3159ee98e343042df0ff7f2ba" target="_top" xlink:title="Elevator::create">
<polygon fill="white" stroke="black" points="180.5,-88 180.5,-107 266.5,-107 266.5,-88 180.5,-88"/>
<text text-anchor="middle" x="223.5" y="-95" font-family="Helvetica,sans-Serif" font-size="10.00">Elevator::create</text>
</a>
</g>
</g>
<!-- Node1&#45;&gt;Node3 -->
<g id="edge2" class="edge"><title>Node1&#45;&gt;Node3</title>
<path fill="none" stroke="midnightblue" d="M125.429,-85.9003C140.164,-87.6611 155.746,-89.5231 170.012,-91.2278"/>
<polygon fill="midnightblue" stroke="midnightblue" points="169.791,-94.7263 180.136,-92.4376 170.622,-87.7757 169.791,-94.7263"/>
</g>
<!-- Node4 -->
<g id="node4" class="node"><title>Node4</title>
<g id="a_node4"><a xlink:href="class_scheduler_creator.html#a091006529e65ae50ce7bb8e97b6494dc" target="_top" xlink:title="SchedulerCreator::create">
<polygon fill="white" stroke="black" points="161,-50 161,-69 286,-69 286,-50 161,-50"/>
<text text-anchor="middle" x="223.5" y="-57" font-family="Helvetica,sans-Serif" font-size="10.00">SchedulerCreator::create</text>
</a>
</g>
</g>
<!-- Node1&#45;&gt;Node4 -->
<g id="edge3" class="edge"><title>Node1&#45;&gt;Node4</title>
<path fill="none" stroke="midnightblue" d="M125.429,-71.0997C133.674,-70.1145 142.184,-69.0975 150.58,-68.0942"/>
<polygon fill="midnightblue" stroke="midnightblue" points="151.226,-71.542 160.74,-66.8801 150.396,-64.5914 151.226,-71.542"/>
</g>
<!-- Node5 -->
<g id="node5" class="node"><title>Node5</title>
<g id="a_node5"><a xlink:href="class_cost_function_creator.html#a2f73ed3b5e34c2cfa891849ab62adda5" target="_top" xlink:title="CostFunctionCreator\l::create">
<polygon fill="white" stroke="black" points="170,-0.5 170,-30.5 277,-30.5 277,-0.5 170,-0.5"/>
<text text-anchor="start" x="178" y="-18.5" font-family="Helvetica,sans-Serif" font-size="10.00">CostFunctionCreator</text>
<text text-anchor="middle" x="223.5" y="-7.5" font-family="Helvetica,sans-Serif" font-size="10.00">::create</text>
</a>
</g>
</g>
<!-- Node1&#45;&gt;Node5 -->
<g id="edge4" class="edge"><title>Node1&#45;&gt;Node5</title>
<path fill="none" stroke="midnightblue" d="M87.6487,-68.9317C110.752,-59.7776 146.236,-45.7178 175.007,-34.3181"/>
<polygon fill="midnightblue" stroke="midnightblue" points="176.471,-37.5026 184.479,-30.565 173.893,-30.9949 176.471,-37.5026"/>
</g>
</g>
</svg>
