<?xml version="1.0" encoding="UTF-8" standalone="no"?>
<!DOCTYPE svg PUBLIC "-//W3C//DTD SVG 1.1//EN"
 "http://www.w3.org/Graphics/SVG/1.1/DTD/svg11.dtd">
<!-- Generated by graphviz version 2.38.0 (20140413.2041)
 -->
<!-- Title: Scheduler Pages: 1 -->
<svg width="230pt" height="298pt"
 viewBox="0.00 0.00 229.50 298.00" xmlns="http://www.w3.org/2000/svg" xmlns:xlink="http://www.w3.org/1999/xlink">
<g id="graph0" class="graph" transform="scale(1 1) rotate(0) translate(4 294)">
<title>Scheduler</title>
<polygon fill="white" stroke="none" points="-4,4 -4,-294 225.5,-294 225.5,4 -4,4"/>
<!-- Node1 -->
<g id="node1" class="node"><title>Node1</title>
<polygon fill="#bfbfbf" stroke="black" points="46.5,-105.5 46.5,-184.5 171.5,-184.5 171.5,-105.5 46.5,-105.5"/>
<text text-anchor="middle" x="109" y="-172.5" font-family="Helvetica,sans-Serif" font-size="10.00">Scheduler</text>
<polyline fill="none" stroke="black" points="46.5,-165.5 171.5,-165.5 "/>
<text text-anchor="middle" x="109" y="-153.5" font-family="Helvetica,sans-Serif" font-size="10.00"> </text>
<polyline fill="none" stroke="black" points="46.5,-146.5 171.5,-146.5 "/>
<text text-anchor="start" x="54.5" y="-134.5" font-family="Helvetica,sans-Serif" font-size="10.00">+ Scheduler()</text>
<text text-anchor="start" x="54.5" y="-123.5" font-family="Helvetica,sans-Serif" font-size="10.00">+ schedule()</text>
<text text-anchor="start" x="54.5" y="-112.5" font-family="Helvetica,sans-Serif" font-size="10.00"># getAvailableElevators()</text>
</g>
<!-- Node3 -->
<g id="node3" class="node"><title>Node3</title>
<g id="a_node3"><a xlink:href="class_planning_scheduler.html" target="_top" xlink:title="{PlanningScheduler\n||+ schedule()\l}">
<polygon fill="white" stroke="black" points="0,-6 0,-63 98,-63 98,-6 0,-6"/>
<text text-anchor="middle" x="49" y="-51" font-family="Helvetica,sans-Serif" font-size="10.00">PlanningScheduler</text>
<polyline fill="none" stroke="black" points="0,-44 98,-44 "/>
<text text-anchor="middle" x="49" y="-32" font-family="Helvetica,sans-Serif" font-size="10.00"> </text>
<polyline fill="none" stroke="black" points="0,-25 98,-25 "/>
<text text-anchor="start" x="8" y="-13" font-family="Helvetica,sans-Serif" font-size="10.00">+ schedule()</text>
</a>
</g>
</g>
<!-- Node1&#45;&gt;Node3 -->
<g id="edge2" class="edge"><title>Node1&#45;&gt;Node3</title>
<path fill="none" stroke="midnightblue" d="M82.6839,-96.4117C76.3713,-84.9964 69.8377,-73.1816 64.2242,-63.0304"/>
<polygon fill="none" stroke="midnightblue" points="79.7751,-98.3842 87.6773,-105.441 85.9008,-94.9966 79.7751,-98.3842"/>
</g>
<!-- Node4 -->
<g id="node4" class="node"><title>Node4</title>
<g id="a_node4"><a xlink:href="class_simple_scheduler.html" target="_top" xlink:title="{SimpleScheduler\n||+ SimpleScheduler()\l+ schedule()\l}">
<polygon fill="white" stroke="black" points="116.5,-0.5 116.5,-68.5 221.5,-68.5 221.5,-0.5 116.5,-0.5"/>
<text text-anchor="middle" x="169" y="-56.5" font-family="Helvetica,sans-Serif" font-size="10.00">SimpleScheduler</text>
<polyline fill="none" stroke="black" points="116.5,-49.5 221.5,-49.5 "/>
<text text-anchor="middle" x="169" y="-37.5" font-family="Helvetica,sans-Serif" font-size="10.00"> </text>
<polyline fill="none" stroke="black" points="116.5,-30.5 221.5,-30.5 "/>
<text text-anchor="start" x="124.5" y="-18.5" font-family="Helvetica,sans-Serif" font-size="10.00">+ SimpleScheduler()</text>
<text text-anchor="start" x="124.5" y="-7.5" font-family="Helvetica,sans-Serif" font-size="10.00">+ schedule()</text>
</a>
</g>
</g>
<!-- Node1&#45;&gt;Node4 -->
<g id="edge3" class="edge"><title>Node1&#45;&gt;Node4</title>
<path fill="none" stroke="midnightblue" d="M135.257,-96.5178C140.475,-87.082 145.847,-77.3687 150.727,-68.5439"/>
<polygon fill="none" stroke="midnightblue" points="132.099,-94.9966 130.323,-105.441 138.225,-98.3842 132.099,-94.9966"/>
</g>
<!-- Node2 -->
<g id="node2" class="node"><title>Node2</title>
<polygon fill="white" stroke="#bfbfbf" points="47,-221.5 47,-289.5 171,-289.5 171,-221.5 47,-221.5"/>
<text text-anchor="start" x="55" y="-277.5" font-family="Helvetica,sans-Serif" font-size="10.00">std::enable_shared</text>
<text text-anchor="middle" x="109" y="-266.5" font-family="Helvetica,sans-Serif" font-size="10.00">_from_this&lt; Scheduler &gt;</text>
<polyline fill="none" stroke="#bfbfbf" points="47,-259.5 171,-259.5 "/>
<text text-anchor="middle" x="109" y="-247.5" font-family="Helvetica,sans-Serif" font-size="10.00"> </text>
<polyline fill="none" stroke="#bfbfbf" points="47,-240.5 171,-240.5 "/>
<text text-anchor="middle" x="109" y="-228.5" font-family="Helvetica,sans-Serif" font-size="10.00"> </text>
</g>
<!-- Node2&#45;&gt;Node1 -->
<g id="edge1" class="edge"><title>Node2&#45;&gt;Node1</title>
<path fill="none" stroke="midnightblue" d="M109,-211.274C109,-202.476 109,-193.275 109,-184.649"/>
<polygon fill="none" stroke="midnightblue" points="105.5,-211.357 109,-221.357 112.5,-211.357 105.5,-211.357"/>
</g>
</g>
</svg>
