<?xml version="1.0" encoding="UTF-8" standalone="no"?>
<!DOCTYPE svg PUBLIC "-//W3C//DTD SVG 1.1//EN"
 "http://www.w3.org/Graphics/SVG/1.1/DTD/svg11.dtd">
<!-- Generated by graphviz version 2.38.0 (20140413.2041)
 -->
<!-- Title: Reporter::generateUnifiedReport Pages: 1 -->
<svg width="311pt" height="66pt"
 viewBox="0.00 0.00 311.00 66.00" xmlns="http://www.w3.org/2000/svg" xmlns:xlink="http://www.w3.org/1999/xlink">
<g id="graph0" class="graph" transform="scale(1 1) rotate(0) translate(4 62)">
<title>Reporter::generateUnifiedReport</title>
<polygon fill="white" stroke="none" points="-4,4 -4,-62 307,-62 307,4 -4,4"/>
<!-- Node1 -->
<g id="node1" class="node"><title>Node1</title>
<polygon fill="#bfbfbf" stroke="black" points="0,-14 0,-44 128,-44 128,-14 0,-14"/>
<text text-anchor="start" x="8" y="-32" font-family="Helvetica,sans-Serif" font-size="10.00">Reporter::generateUnified</text>
<text text-anchor="middle" x="64" y="-21" font-family="Helvetica,sans-Serif" font-size="10.00">Report</text>
</g>
<!-- Node2 -->
<g id="node2" class="node"><title>Node2</title>
<g id="a_node2"><a xlink:href="namespace_helpers.html#a6623afaa6548aa85a5a1bfd019e1e55f" target="_top" xlink:title="Helpers::schedulerName">
<polygon fill="white" stroke="black" points="171,-38.5 171,-57.5 296,-57.5 296,-38.5 171,-38.5"/>
<text text-anchor="middle" x="233.5" y="-45.5" font-family="Helvetica,sans-Serif" font-size="10.00">Helpers::schedulerName</text>
</a>
</g>
</g>
<!-- Node1&#45;&gt;Node2 -->
<g id="edge1" class="edge"><title>Node1&#45;&gt;Node2</title>
<path fill="none" stroke="midnightblue" d="M128.325,-36.1831C138.855,-37.3776 149.845,-38.6242 160.571,-39.8409"/>
<polygon fill="midnightblue" stroke="midnightblue" points="160.419,-43.346 170.75,-40.9955 161.208,-36.3906 160.419,-43.346"/>
</g>
<!-- Node3 -->
<g id="node3" class="node"><title>Node3</title>
<g id="a_node3"><a xlink:href="namespace_helpers.html#a51b4991513657bea83b1ad43c778aec7" target="_top" xlink:title="Helpers::costFunctionName">
<polygon fill="white" stroke="black" points="164,-0.5 164,-19.5 303,-19.5 303,-0.5 164,-0.5"/>
<text text-anchor="middle" x="233.5" y="-7.5" font-family="Helvetica,sans-Serif" font-size="10.00">Helpers::costFunctionName</text>
</a>
</g>
</g>
<!-- Node1&#45;&gt;Node3 -->
<g id="edge2" class="edge"><title>Node1&#45;&gt;Node3</title>
<path fill="none" stroke="midnightblue" d="M128.325,-21.8169C136.648,-20.8728 145.258,-19.8961 153.798,-18.9274"/>
<polygon fill="midnightblue" stroke="midnightblue" points="154.227,-22.4012 163.769,-17.7963 153.438,-15.4458 154.227,-22.4012"/>
</g>
</g>
</svg>
