<?xml version="1.0" encoding="UTF-8" standalone="no"?>
<!DOCTYPE svg PUBLIC "-//W3C//DTD SVG 1.1//EN"
 "http://www.w3.org/Graphics/SVG/1.1/DTD/svg11.dtd">
<!-- Generated by graphviz version 2.38.0 (20140413.2041)
 -->
<!-- Title: Event Pages: 1 -->
<svg width="254pt" height="259pt"
 viewBox="0.00 0.00 254.00 259.00" xmlns="http://www.w3.org/2000/svg" xmlns:xlink="http://www.w3.org/1999/xlink">
<g id="graph0" class="graph" transform="scale(1 1) rotate(0) translate(4 255)">
<title>Event</title>
<polygon fill="white" stroke="none" points="-4,4 -4,-255 250,-255 250,4 -4,4"/>
<!-- Node1 -->
<g id="node1" class="node"><title>Node1</title>
<polygon fill="#bfbfbf" stroke="black" points="76.5,-116.5 76.5,-250.5 161.5,-250.5 161.5,-116.5 76.5,-116.5"/>
<text text-anchor="middle" x="119" y="-238.5" font-family="Ubuntu Mono" font-size="10.00">Event</text>
<polyline fill="none" stroke="black" points="76.5,-231.5 161.5,-231.5 "/>
<text text-anchor="start" x="84.5" y="-219.5" font-family="Ubuntu Mono" font-size="10.00">+ totalEvents</text>
<text text-anchor="start" x="84.5" y="-208.5" font-family="Ubuntu Mono" font-size="10.00"># _id</text>
<text text-anchor="start" x="84.5" y="-197.5" font-family="Ubuntu Mono" font-size="10.00"># _time</text>
<text text-anchor="start" x="84.5" y="-186.5" font-family="Ubuntu Mono" font-size="10.00"># _type</text>
<polyline fill="none" stroke="black" points="76.5,-179.5 161.5,-179.5 "/>
<text text-anchor="start" x="84.5" y="-167.5" font-family="Ubuntu Mono" font-size="10.00">+ Event()</text>
<text text-anchor="start" x="84.5" y="-156.5" font-family="Ubuntu Mono" font-size="10.00">+ getId()</text>
<text text-anchor="start" x="84.5" y="-145.5" font-family="Ubuntu Mono" font-size="10.00">+ getTime()</text>
<text text-anchor="start" x="84.5" y="-134.5" font-family="Ubuntu Mono" font-size="10.00">+ getType()</text>
<text text-anchor="start" x="84.5" y="-123.5" font-family="Ubuntu Mono" font-size="10.00">+ str()</text>
</g>
<!-- Node2 -->
<g id="node2" class="node"><title>Node2</title>
<g id="a_node2"><a xlink:href="class_client_arrival.html" target="_top" xlink:title="{ClientArrival\n||+ ClientArrival()\l+ getClient()\l+ str()\l}">
<polygon fill="white" stroke="black" points="0,-0.5 0,-79.5 106,-79.5 106,-0.5 0,-0.5"/>
<text text-anchor="middle" x="53" y="-67.5" font-family="Ubuntu Mono" font-size="10.00">ClientArrival</text>
<polyline fill="none" stroke="black" points="0,-60.5 106,-60.5 "/>
<text text-anchor="middle" x="53" y="-48.5" font-family="Ubuntu Mono" font-size="10.00"> </text>
<polyline fill="none" stroke="black" points="0,-41.5 106,-41.5 "/>
<text text-anchor="start" x="8" y="-29.5" font-family="Ubuntu Mono" font-size="10.00">+ ClientArrival()</text>
<text text-anchor="start" x="8" y="-18.5" font-family="Ubuntu Mono" font-size="10.00">+ getClient()</text>
<text text-anchor="start" x="8" y="-7.5" font-family="Ubuntu Mono" font-size="10.00">+ str()</text>
</a>
</g>
</g>
<!-- Node1&#45;&gt;Node2 -->
<g id="edge1" class="edge"><title>Node1&#45;&gt;Node2</title>
<path fill="none" stroke="midnightblue" d="M83.8791,-107.203C79.4552,-97.7184 75.0825,-88.3434 71.0805,-79.7634"/>
<polygon fill="none" stroke="midnightblue" points="80.7266,-108.724 88.1256,-116.307 87.0704,-105.765 80.7266,-108.724"/>
</g>
<!-- Node3 -->
<g id="node3" class="node"><title>Node3</title>
<g id="a_node3"><a xlink:href="class_finish_simulation.html" target="_top" xlink:title="{FinishSimulation\n||+ FinishSimulation()\l+ str()\l}">
<polygon fill="white" stroke="black" points="124,-6 124,-74 246,-74 246,-6 124,-6"/>
<text text-anchor="middle" x="185" y="-62" font-family="Ubuntu Mono" font-size="10.00">FinishSimulation</text>
<polyline fill="none" stroke="black" points="124,-55 246,-55 "/>
<text text-anchor="middle" x="185" y="-43" font-family="Ubuntu Mono" font-size="10.00"> </text>
<polyline fill="none" stroke="black" points="124,-36 246,-36 "/>
<text text-anchor="start" x="132" y="-24" font-family="Ubuntu Mono" font-size="10.00">+ FinishSimulation()</text>
<text text-anchor="start" x="132" y="-13" font-family="Ubuntu Mono" font-size="10.00">+ str()</text>
</a>
</g>
</g>
<!-- Node1&#45;&gt;Node3 -->
<g id="edge2" class="edge"><title>Node1&#45;&gt;Node3</title>
<path fill="none" stroke="midnightblue" d="M154.211,-107.011C159.61,-95.4343 164.93,-84.0279 169.59,-74.0387"/>
<polygon fill="none" stroke="midnightblue" points="150.93,-105.765 149.874,-116.307 157.273,-108.724 150.93,-105.765"/>
</g>
</g>
</svg>
