<?xml version="1.0" encoding="UTF-8" standalone="no"?>
<!DOCTYPE svg PUBLIC "-//W3C//DTD SVG 1.1//EN"
 "http://www.w3.org/Graphics/SVG/1.1/DTD/svg11.dtd">
<!-- Generated by graphviz version 2.38.0 (20140413.2041)
 -->
<!-- Title: CostFunctionCreator::create Pages: 1 -->
<svg width="389pt" height="39pt"
 viewBox="0.00 0.00 389.00 39.00" xmlns="http://www.w3.org/2000/svg" xmlns:xlink="http://www.w3.org/1999/xlink">
<g id="graph0" class="graph" transform="scale(1 1) rotate(0) translate(4 35)">
<title>CostFunctionCreator::create</title>
<polygon fill="white" stroke="none" points="-4,4 -4,-35 385,-35 385,4 -4,4"/>
<!-- Node1 -->
<g id="node1" class="node"><title>Node1</title>
<polygon fill="#bfbfbf" stroke="black" points="0,-0.5 0,-30.5 107,-30.5 107,-0.5 0,-0.5"/>
<text text-anchor="start" x="8" y="-18.5" font-family="Helvetica,sans-Serif" font-size="10.00">CostFunctionCreator</text>
<text text-anchor="middle" x="53.5" y="-7.5" font-family="Helvetica,sans-Serif" font-size="10.00">::create</text>
</g>
<!-- Node2 -->
<g id="node2" class="node"><title>Node2</title>
<g id="a_node2"><a xlink:href="class_simulator.html#a7a8ed7267e6892f0d16c9ffe8b16a353" target="_top" xlink:title="Simulator::createBuilding">
<polygon fill="white" stroke="black" points="143,-6 143,-25 268,-25 268,-6 143,-6"/>
<text text-anchor="middle" x="205.5" y="-13" font-family="Helvetica,sans-Serif" font-size="10.00">Simulator::createBuilding</text>
</a>
</g>
</g>
<!-- Node1&#45;&gt;Node2 -->
<g id="edge1" class="edge"><title>Node1&#45;&gt;Node2</title>
<path fill="none" stroke="midnightblue" d="M117.493,-15.5C125.888,-15.5 134.489,-15.5 142.86,-15.5"/>
<polygon fill="midnightblue" stroke="midnightblue" points="117.384,-12.0001 107.384,-15.5 117.384,-19.0001 117.384,-12.0001"/>
</g>
<!-- Node3 -->
<g id="node3" class="node"><title>Node3</title>
<g id="a_node3"><a xlink:href="class_simulator.html#aa2de7e32b04cc3e8fc60aec23997621b" target="_top" xlink:title="Simulator::run">
<polygon fill="white" stroke="black" points="304,-6 304,-25 381,-25 381,-6 304,-6"/>
<text text-anchor="middle" x="342.5" y="-13" font-family="Helvetica,sans-Serif" font-size="10.00">Simulator::run</text>
</a>
</g>
</g>
<!-- Node2&#45;&gt;Node3 -->
<g id="edge2" class="edge"><title>Node2&#45;&gt;Node3</title>
<path fill="none" stroke="midnightblue" d="M278.14,-15.5C287.048,-15.5 295.86,-15.5 303.951,-15.5"/>
<polygon fill="midnightblue" stroke="midnightblue" points="278.074,-12.0001 268.074,-15.5 278.074,-19.0001 278.074,-12.0001"/>
</g>
</g>
</svg>
