<?xml version="1.0" encoding="UTF-8" standalone="no"?>
<!DOCTYPE svg PUBLIC "-//W3C//DTD SVG 1.1//EN"
 "http://www.w3.org/Graphics/SVG/1.1/DTD/svg11.dtd">
<!-- Generated by graphviz version 2.38.0 (20140413.2041)
 -->
<!-- Title: Simulator::run Pages: 1 -->
<svg width="407pt" height="154pt"
 viewBox="0.00 0.00 407.00 153.50" xmlns="http://www.w3.org/2000/svg" xmlns:xlink="http://www.w3.org/1999/xlink">
<g id="graph0" class="graph" transform="scale(1 1) rotate(0) translate(4 149.5)">
<title>Simulator::run</title>
<polygon fill="white" stroke="none" points="-4,4 -4,-149.5 403,-149.5 403,4 -4,4"/>
<!-- Node1 -->
<g id="node1" class="node"><title>Node1</title>
<polygon fill="#bfbfbf" stroke="black" points="0,-69 0,-88 77,-88 77,-69 0,-69"/>
<text text-anchor="middle" x="38.5" y="-76" font-family="Helvetica,sans-Serif" font-size="10.00">Simulator::run</text>
</g>
<!-- Node2 -->
<g id="node2" class="node"><title>Node2</title>
<g id="a_node2"><a xlink:href="class_simulator.html#a7a8ed7267e6892f0d16c9ffe8b16a353" target="_top" xlink:title="Simulator::createBuilding">
<polygon fill="white" stroke="black" points="113,-69 113,-88 238,-88 238,-69 113,-69"/>
<text text-anchor="middle" x="175.5" y="-76" font-family="Helvetica,sans-Serif" font-size="10.00">Simulator::createBuilding</text>
</a>
</g>
</g>
<!-- Node1&#45;&gt;Node2 -->
<g id="edge1" class="edge"><title>Node1&#45;&gt;Node2</title>
<path fill="none" stroke="midnightblue" d="M77.105,-78.5C85.1543,-78.5 93.9144,-78.5 102.772,-78.5"/>
<polygon fill="midnightblue" stroke="midnightblue" points="102.781,-82.0001 112.781,-78.5 102.781,-75.0001 102.781,-82.0001"/>
</g>
<!-- Node3 -->
<g id="node3" class="node"><title>Node3</title>
<g id="a_node3"><a xlink:href="class_floor.html#a294df3a0179a79c3a9a2765418368d03" target="_top" xlink:title="Floor::create">
<polygon fill="white" stroke="black" points="301,-126 301,-145 372,-145 372,-126 301,-126"/>
<text text-anchor="middle" x="336.5" y="-133" font-family="Helvetica,sans-Serif" font-size="10.00">Floor::create</text>
</a>
</g>
</g>
<!-- Node2&#45;&gt;Node3 -->
<g id="edge2" class="edge"><title>Node2&#45;&gt;Node3</title>
<path fill="none" stroke="midnightblue" d="M199.571,-88.0332C219.218,-96.0208 248.27,-107.524 274,-116.5 280.163,-118.65 286.715,-120.808 293.157,-122.858"/>
<polygon fill="midnightblue" stroke="midnightblue" points="292.531,-126.329 303.12,-125.975 294.621,-119.649 292.531,-126.329"/>
</g>
<!-- Node4 -->
<g id="node4" class="node"><title>Node4</title>
<g id="a_node4"><a xlink:href="class_elevator.html#a6a5d8cb3159ee98e343042df0ff7f2ba" target="_top" xlink:title="Elevator::create">
<polygon fill="white" stroke="black" points="293.5,-88 293.5,-107 379.5,-107 379.5,-88 293.5,-88"/>
<text text-anchor="middle" x="336.5" y="-95" font-family="Helvetica,sans-Serif" font-size="10.00">Elevator::create</text>
</a>
</g>
</g>
<!-- Node2&#45;&gt;Node4 -->
<g id="edge3" class="edge"><title>Node2&#45;&gt;Node4</title>
<path fill="none" stroke="midnightblue" d="M238.429,-85.9003C253.164,-87.6611 268.746,-89.5231 283.012,-91.2278"/>
<polygon fill="midnightblue" stroke="midnightblue" points="282.791,-94.7263 293.136,-92.4376 283.622,-87.7757 282.791,-94.7263"/>
</g>
<!-- Node5 -->
<g id="node5" class="node"><title>Node5</title>
<g id="a_node5"><a xlink:href="class_scheduler_creator.html#a091006529e65ae50ce7bb8e97b6494dc" target="_top" xlink:title="SchedulerCreator::create">
<polygon fill="white" stroke="black" points="274,-50 274,-69 399,-69 399,-50 274,-50"/>
<text text-anchor="middle" x="336.5" y="-57" font-family="Helvetica,sans-Serif" font-size="10.00">SchedulerCreator::create</text>
</a>
</g>
</g>
<!-- Node2&#45;&gt;Node5 -->
<g id="edge4" class="edge"><title>Node2&#45;&gt;Node5</title>
<path fill="none" stroke="midnightblue" d="M238.429,-71.0997C246.674,-70.1145 255.184,-69.0975 263.58,-68.0942"/>
<polygon fill="midnightblue" stroke="midnightblue" points="264.226,-71.542 273.74,-66.8801 263.396,-64.5914 264.226,-71.542"/>
</g>
<!-- Node6 -->
<g id="node6" class="node"><title>Node6</title>
<g id="a_node6"><a xlink:href="class_cost_function_creator.html#a2f73ed3b5e34c2cfa891849ab62adda5" target="_top" xlink:title="CostFunctionCreator\l::create">
<polygon fill="white" stroke="black" points="283,-0.5 283,-30.5 390,-30.5 390,-0.5 283,-0.5"/>
<text text-anchor="start" x="291" y="-18.5" font-family="Helvetica,sans-Serif" font-size="10.00">CostFunctionCreator</text>
<text text-anchor="middle" x="336.5" y="-7.5" font-family="Helvetica,sans-Serif" font-size="10.00">::create</text>
</a>
</g>
</g>
<!-- Node2&#45;&gt;Node6 -->
<g id="edge5" class="edge"><title>Node2&#45;&gt;Node6</title>
<path fill="none" stroke="midnightblue" d="M200.649,-68.9317C223.752,-59.7776 259.236,-45.7178 288.007,-34.3181"/>
<polygon fill="midnightblue" stroke="midnightblue" points="289.471,-37.5026 297.479,-30.565 286.893,-30.9949 289.471,-37.5026"/>
</g>
</g>
</svg>
