<?xml version="1.0" encoding="UTF-8" standalone="no"?>
<!DOCTYPE svg PUBLIC "-//W3C//DTD SVG 1.1//EN"
 "http://www.w3.org/Graphics/SVG/1.1/DTD/svg11.dtd">
<!-- Generated by graphviz version 2.38.0 (20140413.2041)
 -->
<!-- Title: SchedulerCreator::create Pages: 1 -->
<svg width="461pt" height="28pt"
 viewBox="0.00 0.00 461.00 28.00" xmlns="http://www.w3.org/2000/svg" xmlns:xlink="http://www.w3.org/1999/xlink">
<g id="graph0" class="graph" transform="scale(1 1) rotate(0) translate(4 24)">
<title>SchedulerCreator::create</title>
<polygon fill="white" stroke="none" points="-4,4 -4,-24 457,-24 457,4 -4,4"/>
<!-- Node1 -->
<g id="node1" class="node"><title>Node1</title>
<polygon fill="#bfbfbf" stroke="black" points="0,-0.5 0,-19.5 143,-19.5 143,-0.5 0,-0.5"/>
<text text-anchor="middle" x="71.5" y="-7.5" font-family="Ubuntu Mono" font-size="10.00">SchedulerCreator::create</text>
</g>
<!-- Node2 -->
<g id="node2" class="node"><title>Node2</title>
<g id="a_node2"><a xlink:href="class_simulator.html#a7a8ed7267e6892f0d16c9ffe8b16a353" target="_top" xlink:title="Simulator::createBuilding">
<polygon fill="white" stroke="black" points="179,-0.5 179,-19.5 327,-19.5 327,-0.5 179,-0.5"/>
<text text-anchor="middle" x="253" y="-7.5" font-family="Ubuntu Mono" font-size="10.00">Simulator::createBuilding</text>
</a>
</g>
</g>
<!-- Node1&#45;&gt;Node2 -->
<g id="edge1" class="edge"><title>Node1&#45;&gt;Node2</title>
<path fill="none" stroke="midnightblue" d="M153.402,-10C161.838,-10 170.379,-10 178.723,-10"/>
<polygon fill="midnightblue" stroke="midnightblue" points="153.186,-6.5001 143.185,-10 153.185,-13.5001 153.186,-6.5001"/>
</g>
<!-- Node3 -->
<g id="node3" class="node"><title>Node3</title>
<g id="a_node3"><a xlink:href="class_simulator.html#aa2de7e32b04cc3e8fc60aec23997621b" target="_top" xlink:title="Simulator::run">
<polygon fill="white" stroke="black" points="363,-0.5 363,-19.5 453,-19.5 453,-0.5 363,-0.5"/>
<text text-anchor="middle" x="408" y="-7.5" font-family="Ubuntu Mono" font-size="10.00">Simulator::run</text>
</a>
</g>
</g>
<!-- Node2&#45;&gt;Node3 -->
<g id="edge2" class="edge"><title>Node2&#45;&gt;Node3</title>
<path fill="none" stroke="midnightblue" d="M337.585,-10C346.268,-10 354.827,-10 362.812,-10"/>
<polygon fill="midnightblue" stroke="midnightblue" points="337.363,-6.5001 327.363,-10 337.363,-13.5001 337.363,-6.5001"/>
</g>
</g>
</svg>
