<?xml version="1.0" encoding="UTF-8" standalone="no"?>
<!DOCTYPE svg PUBLIC "-//W3C//DTD SVG 1.1//EN"
 "http://www.w3.org/Graphics/SVG/1.1/DTD/svg11.dtd">
<!-- Generated by graphviz version 2.38.0 (20140413.2041)
 -->
<!-- Title: Building::Building Pages: 1 -->
<svg width="248pt" height="66pt"
 viewBox="0.00 0.00 248.00 66.00" xmlns="http://www.w3.org/2000/svg" xmlns:xlink="http://www.w3.org/1999/xlink">
<g id="graph0" class="graph" transform="scale(1 1) rotate(0) translate(4 62)">
<title>Building::Building</title>
<polygon fill="white" stroke="none" points="-4,4 -4,-62 244,-62 244,4 -4,4"/>
<!-- Node1 -->
<g id="node1" class="node"><title>Node1</title>
<polygon fill="#bfbfbf" stroke="black" points="0,-19.5 0,-38.5 92,-38.5 92,-19.5 0,-19.5"/>
<text text-anchor="middle" x="46" y="-26.5" font-family="Helvetica,sans-Serif" font-size="10.00">Building::Building</text>
</g>
<!-- Node2 -->
<g id="node2" class="node"><title>Node2</title>
<g id="a_node2"><a xlink:href="class_building.html#a1271cef8df030a441d37eec8f8245928" target="_top" xlink:title="Building::getFloors">
<polygon fill="white" stroke="black" points="135,-38.5 135,-57.5 233,-57.5 233,-38.5 135,-38.5"/>
<text text-anchor="middle" x="184" y="-45.5" font-family="Helvetica,sans-Serif" font-size="10.00">Building::getFloors</text>
</a>
</g>
</g>
<!-- Node1&#45;&gt;Node2 -->
<g id="edge1" class="edge"><title>Node1&#45;&gt;Node2</title>
<path fill="none" stroke="midnightblue" d="M92.286,-35.3267C102.592,-36.7665 113.684,-38.3162 124.454,-39.8208"/>
<polygon fill="midnightblue" stroke="midnightblue" points="124.256,-43.3271 134.645,-41.2445 125.225,-36.3944 124.256,-43.3271"/>
</g>
<!-- Node3 -->
<g id="node3" class="node"><title>Node3</title>
<g id="a_node3"><a xlink:href="class_building.html#a6cf389ad55a55b0d3681808025625c4a" target="_top" xlink:title="Building::getElevators">
<polygon fill="white" stroke="black" points="128,-0.5 128,-19.5 240,-19.5 240,-0.5 128,-0.5"/>
<text text-anchor="middle" x="184" y="-7.5" font-family="Helvetica,sans-Serif" font-size="10.00">Building::getElevators</text>
</a>
</g>
</g>
<!-- Node1&#45;&gt;Node3 -->
<g id="edge2" class="edge"><title>Node1&#45;&gt;Node3</title>
<path fill="none" stroke="midnightblue" d="M92.286,-22.6733C100.506,-21.5249 109.226,-20.3067 117.883,-19.0972"/>
<polygon fill="midnightblue" stroke="midnightblue" points="118.564,-22.5361 127.984,-17.6861 117.596,-15.6035 118.564,-22.5361"/>
</g>
</g>
</svg>
