<?xml version="1.0" encoding="UTF-8" standalone="no"?>
<!DOCTYPE svg PUBLIC "-//W3C//DTD SVG 1.1//EN"
 "http://www.w3.org/Graphics/SVG/1.1/DTD/svg11.dtd">
<!-- Generated by graphviz version 2.38.0 (20140413.2041)
 -->
<!-- Title: Graph Legend Pages: 1 -->
<svg width="525pt" height="159pt"
 viewBox="0.00 0.00 524.50 159.00" xmlns="http://www.w3.org/2000/svg" xmlns:xlink="http://www.w3.org/1999/xlink">
<g id="graph0" class="graph" transform="scale(1 1) rotate(0) translate(4 155)">
<title>Graph Legend</title>
<polygon fill="white" stroke="none" points="-4,4 -4,-155 520.5,-155 520.5,4 -4,4"/>
<!-- Node9 -->
<g id="node1" class="node"><title>Node9</title>
<polygon fill="#bfbfbf" stroke="black" points="306.5,-19 242.5,-19 242.5,-0 306.5,-0 306.5,-19"/>
<text text-anchor="middle" x="274.5" y="-7" font-family="Ubuntu Mono" font-size="10.00">Inherited</text>
</g>
<!-- Node10 -->
<g id="node2" class="node"><title>Node10</title>
<g id="a_node2"><a xlink:href="$classPublicBase.html" xlink:title="PublicBase">
<polygon fill="none" stroke="black" points="69,-85 0,-85 0,-66 69,-66 69,-85"/>
<text text-anchor="middle" x="34.5" y="-73" font-family="Ubuntu Mono" font-size="10.00">PublicBase</text>
</a>
</g>
</g>
<!-- Node10&#45;&gt;Node9 -->
<g id="edge1" class="edge"><title>Node10&#45;&gt;Node9</title>
<path fill="none" stroke="midnightblue" d="M76.7914,-63.2223C124.054,-50.6188 199.536,-30.4904 242.263,-19.0965"/>
<polygon fill="midnightblue" stroke="midnightblue" points="75.628,-59.9102 66.8675,-65.8687 77.4317,-66.6738 75.628,-59.9102"/>
</g>
<!-- Node11 -->
<g id="node3" class="node"><title>Node11</title>
<g id="a_node3"><a xlink:href="$classTruncated.html" xlink:title="Truncated">
<polygon fill="none" stroke="red" points="66.5,-151 2.5,-151 2.5,-132 66.5,-132 66.5,-151"/>
<text text-anchor="middle" x="34.5" y="-139" font-family="Ubuntu Mono" font-size="10.00">Truncated</text>
</a>
</g>
</g>
<!-- Node11&#45;&gt;Node10 -->
<g id="edge2" class="edge"><title>Node11&#45;&gt;Node10</title>
<path fill="none" stroke="midnightblue" d="M34.5,-121.584C34.5,-109.625 34.5,-94.7211 34.5,-85.4052"/>
<polygon fill="midnightblue" stroke="midnightblue" points="31.0001,-121.869 34.5,-131.869 38.0001,-121.869 31.0001,-121.869"/>
</g>
<!-- Node13 -->
<g id="node4" class="node"><title>Node13</title>
<g id="a_node4"><a xlink:href="$classProtectedBase.html" xlink:title="ProtectedBase">
<polygon fill="none" stroke="black" points="172,-85 87,-85 87,-66 172,-66 172,-85"/>
<text text-anchor="middle" x="129.5" y="-73" font-family="Ubuntu Mono" font-size="10.00">ProtectedBase</text>
</a>
</g>
</g>
<!-- Node13&#45;&gt;Node9 -->
<g id="edge3" class="edge"><title>Node13&#45;&gt;Node9</title>
<path fill="none" stroke="darkgreen" d="M158.514,-61.6939C187.09,-49.081 229.961,-30.1584 254.791,-19.199"/>
<polygon fill="darkgreen" stroke="darkgreen" points="156.791,-58.6287 149.055,-65.8687 159.617,-65.0326 156.791,-58.6287"/>
</g>
<!-- Node14 -->
<g id="node5" class="node"><title>Node14</title>
<g id="a_node5"><a xlink:href="$classPrivateBase.html" xlink:title="PrivateBase">
<polygon fill="none" stroke="black" points="264.5,-85 190.5,-85 190.5,-66 264.5,-66 264.5,-85"/>
<text text-anchor="middle" x="227.5" y="-73" font-family="Ubuntu Mono" font-size="10.00">PrivateBase</text>
</a>
</g>
</g>
<!-- Node14&#45;&gt;Node9 -->
<g id="edge4" class="edge"><title>Node14&#45;&gt;Node9</title>
<path fill="none" stroke="#8b1a1a" d="M239.788,-57.7673C248.804,-45.4902 260.696,-29.2973 267.96,-19.4052"/>
<polygon fill="#8b1a1a" stroke="#8b1a1a" points="236.937,-55.7369 233.839,-65.8687 242.579,-59.8803 236.937,-55.7369"/>
</g>
<!-- Node15 -->
<g id="node6" class="node"><title>Node15</title>
<polygon fill="none" stroke="#bfbfbf" points="362.5,-85 282.5,-85 282.5,-66 362.5,-66 362.5,-85"/>
<text text-anchor="middle" x="322.5" y="-73" font-family="Ubuntu Mono" font-size="10.00">Undocumented</text>
</g>
<!-- Node15&#45;&gt;Node9 -->
<g id="edge5" class="edge"><title>Node15&#45;&gt;Node9</title>
<path fill="none" stroke="midnightblue" d="M309.95,-57.7673C300.743,-45.4902 288.598,-29.2973 281.179,-19.4052"/>
<polygon fill="midnightblue" stroke="midnightblue" points="307.226,-59.9687 316.027,-65.8687 312.826,-55.7686 307.226,-59.9687"/>
</g>
<!-- Node16 -->
<g id="node7" class="node"><title>Node16</title>
<g id="a_node7"><a xlink:href="$classTempl.html" xlink:title="Templ&lt; int &gt;">
<polygon fill="none" stroke="black" points="460.5,-85 380.5,-85 380.5,-66 460.5,-66 460.5,-85"/>
<text text-anchor="middle" x="420.5" y="-73" font-family="Ubuntu Mono" font-size="10.00">Templ&lt; int &gt;</text>
</a>
</g>
</g>
<!-- Node16&#45;&gt;Node9 -->
<g id="edge6" class="edge"><title>Node16&#45;&gt;Node9</title>
<path fill="none" stroke="midnightblue" d="M391.286,-61.6939C362.513,-49.081 319.346,-30.1584 294.345,-19.199"/>
<polygon fill="midnightblue" stroke="midnightblue" points="390.246,-65.0594 400.81,-65.8687 393.056,-58.6483 390.246,-65.0594"/>
</g>
<!-- Node17 -->
<g id="node8" class="node"><title>Node17</title>
<g id="a_node8"><a xlink:href="$classTempl.html" xlink:title="Templ&lt; T &gt;">
<polygon fill="none" stroke="black" points="455,-151 386,-151 386,-132 455,-132 455,-151"/>
<text text-anchor="middle" x="420.5" y="-139" font-family="Ubuntu Mono" font-size="10.00">Templ&lt; T &gt;</text>
</a>
</g>
</g>
<!-- Node17&#45;&gt;Node16 -->
<g id="edge7" class="edge"><title>Node17&#45;&gt;Node16</title>
<path fill="none" stroke="orange" stroke-dasharray="5,2" d="M420.5,-121.584C420.5,-109.625 420.5,-94.7211 420.5,-85.4052"/>
<polygon fill="orange" stroke="orange" points="417,-121.869 420.5,-131.869 424,-121.869 417,-121.869"/>
<text text-anchor="middle" x="439" y="-106" font-family="Ubuntu Mono" font-size="10.00">&lt; int &gt;</text>
</g>
<!-- Node18 -->
<g id="node9" class="node"><title>Node18</title>
<g id="a_node9"><a xlink:href="$classUsed.html" xlink:title="Used">
<polygon fill="none" stroke="black" points="516.5,-85 478.5,-85 478.5,-66 516.5,-66 516.5,-85"/>
<text text-anchor="middle" x="497.5" y="-73" font-family="Ubuntu Mono" font-size="10.00">Used</text>
</a>
</g>
</g>
<!-- Node18&#45;&gt;Node9 -->
<g id="edge8" class="edge"><title>Node18&#45;&gt;Node9</title>
<path fill="none" stroke="#9a32cd" stroke-dasharray="5,2" d="M468.466,-65.7316C405.032,-47.1221 341.874,-29.3233 305.282,-19.0821"/>
<polygon fill="#9a32cd" stroke="#9a32cd" points="467.652,-69.1405 478.234,-68.603 469.627,-62.4247 467.652,-69.1405"/>
<text text-anchor="middle" x="434.5" y="-40" font-family="Ubuntu Mono" font-size="10.00">m_usedClass</text>
</g>
</g>
</svg>
