<?xml version="1.0" encoding="UTF-8" standalone="no"?>
<!DOCTYPE svg PUBLIC "-//W3C//DTD SVG 1.1//EN"
 "http://www.w3.org/Graphics/SVG/1.1/DTD/svg11.dtd">
<!-- Generated by graphviz version 2.38.0 (20140413.2041)
 -->
<!-- Title: Graphical Class Hierarchy Pages: 1 -->
<svg width="392pt" height="218pt"
 viewBox="0.00 0.00 392.00 218.00" xmlns="http://www.w3.org/2000/svg" xmlns:xlink="http://www.w3.org/1999/xlink">
<g id="graph0" class="graph" transform="scale(1 1) rotate(0) translate(4 214)">
<title>Graphical Class Hierarchy</title>
<polygon fill="white" stroke="none" points="-4,4 -4,-214 388,-214 388,4 -4,4"/>
<!-- Node1 -->
<g id="node1" class="node"><title>Node1</title>
<polygon fill="white" stroke="#bfbfbf" points="0,-133.5 0,-152.5 137,-152.5 137,-133.5 0,-133.5"/>
<text text-anchor="middle" x="68.5" y="-140.5" font-family="Ubuntu Mono" font-size="10.00">enable_shared_from_this</text>
</g>
<!-- Node2 -->
<g id="node2" class="node"><title>Node2</title>
<g id="a_node2"><a xlink:href="class_building.html" target="_top" xlink:title="Building">
<polygon fill="white" stroke="black" points="178,-76.5 178,-95.5 237,-95.5 237,-76.5 178,-76.5"/>
<text text-anchor="middle" x="207.5" y="-83.5" font-family="Ubuntu Mono" font-size="10.00">Building</text>
</a>
</g>
</g>
<!-- Node1&#45;&gt;Node2 -->
<g id="edge1" class="edge"><title>Node1&#45;&gt;Node2</title>
<path fill="none" stroke="midnightblue" d="M101.898,-129.521C126.994,-119.079 161.142,-104.871 183.494,-95.5716"/>
<polygon fill="midnightblue" stroke="midnightblue" points="100.319,-126.387 92.4307,-133.459 103.008,-132.85 100.319,-126.387"/>
</g>
<!-- Node3 -->
<g id="node3" class="node"><title>Node3</title>
<g id="a_node3"><a xlink:href="class_elevator.html" target="_top" xlink:title="Elevator">
<polygon fill="white" stroke="black" points="178,-190.5 178,-209.5 237,-209.5 237,-190.5 178,-190.5"/>
<text text-anchor="middle" x="207.5" y="-197.5" font-family="Ubuntu Mono" font-size="10.00">Elevator</text>
</a>
</g>
</g>
<!-- Node1&#45;&gt;Node3 -->
<g id="edge2" class="edge"><title>Node1&#45;&gt;Node3</title>
<path fill="none" stroke="midnightblue" d="M101.898,-156.479C126.994,-166.921 161.142,-181.129 183.494,-190.428"/>
<polygon fill="midnightblue" stroke="midnightblue" points="103.008,-153.15 92.4307,-152.541 100.319,-159.613 103.008,-153.15"/>
</g>
<!-- Node4 -->
<g id="node4" class="node"><title>Node4</title>
<g id="a_node4"><a xlink:href="class_scheduler.html" target="_top" xlink:title="Scheduler">
<polygon fill="white" stroke="black" points="175.5,-152.5 175.5,-171.5 239.5,-171.5 239.5,-152.5 175.5,-152.5"/>
<text text-anchor="middle" x="207.5" y="-159.5" font-family="Ubuntu Mono" font-size="10.00">Scheduler</text>
</a>
</g>
</g>
<!-- Node1&#45;&gt;Node4 -->
<g id="edge3" class="edge"><title>Node1&#45;&gt;Node4</title>
<path fill="none" stroke="midnightblue" d="M147.184,-153.774C157.115,-155.151 166.784,-156.492 175.335,-157.678"/>
<polygon fill="midnightblue" stroke="midnightblue" points="147.583,-150.296 137.197,-152.389 146.622,-157.229 147.583,-150.296"/>
</g>
<!-- Node7 -->
<g id="node7" class="node"><title>Node7</title>
<g id="a_node7"><a xlink:href="class_simulator.html" target="_top" xlink:title="Simulator">
<polygon fill="white" stroke="black" points="175.5,-114.5 175.5,-133.5 239.5,-133.5 239.5,-114.5 175.5,-114.5"/>
<text text-anchor="middle" x="207.5" y="-121.5" font-family="Ubuntu Mono" font-size="10.00">Simulator</text>
</a>
</g>
</g>
<!-- Node1&#45;&gt;Node7 -->
<g id="edge6" class="edge"><title>Node1&#45;&gt;Node7</title>
<path fill="none" stroke="midnightblue" d="M147.184,-132.226C157.115,-130.849 166.784,-129.508 175.335,-128.322"/>
<polygon fill="midnightblue" stroke="midnightblue" points="146.622,-128.771 137.197,-133.611 147.583,-135.704 146.622,-128.771"/>
</g>
<!-- Node5 -->
<g id="node5" class="node"><title>Node5</title>
<g id="a_node5"><a xlink:href="class_planning_scheduler.html" target="_top" xlink:title="PlanningScheduler">
<polygon fill="white" stroke="black" points="278,-171.5 278,-190.5 384,-190.5 384,-171.5 278,-171.5"/>
<text text-anchor="middle" x="331" y="-178.5" font-family="Ubuntu Mono" font-size="10.00">PlanningScheduler</text>
</a>
</g>
</g>
<!-- Node4&#45;&gt;Node5 -->
<g id="edge4" class="edge"><title>Node4&#45;&gt;Node5</title>
<path fill="none" stroke="midnightblue" d="M249.909,-168.475C258.817,-169.869 268.345,-171.358 277.608,-172.807"/>
<polygon fill="midnightblue" stroke="midnightblue" points="250.21,-164.98 239.789,-166.893 249.128,-171.896 250.21,-164.98"/>
</g>
<!-- Node6 -->
<g id="node6" class="node"><title>Node6</title>
<g id="a_node6"><a xlink:href="class_simple_scheduler.html" target="_top" xlink:title="SimpleScheduler">
<polygon fill="white" stroke="black" points="283.5,-133.5 283.5,-152.5 378.5,-152.5 378.5,-133.5 283.5,-133.5"/>
<text text-anchor="middle" x="331" y="-140.5" font-family="Ubuntu Mono" font-size="10.00">SimpleScheduler</text>
</a>
</g>
</g>
<!-- Node4&#45;&gt;Node6 -->
<g id="edge5" class="edge"><title>Node4&#45;&gt;Node6</title>
<path fill="none" stroke="midnightblue" d="M249.775,-155.546C260.534,-153.863 272.204,-152.038 283.226,-150.314"/>
<polygon fill="midnightblue" stroke="midnightblue" points="249.128,-152.104 239.789,-157.107 250.21,-159.02 249.128,-152.104"/>
</g>
<!-- Node8 -->
<g id="node8" class="node"><title>Node8</title>
<g id="a_node8"><a xlink:href="class_event_observer.html" target="_top" xlink:title="EventObserver">
<polygon fill="white" stroke="black" points="26,-38.5 26,-57.5 111,-57.5 111,-38.5 26,-38.5"/>
<text text-anchor="middle" x="68.5" y="-45.5" font-family="Ubuntu Mono" font-size="10.00">EventObserver</text>
</a>
</g>
</g>
<!-- Node8&#45;&gt;Node2 -->
<g id="edge7" class="edge"><title>Node8&#45;&gt;Node2</title>
<path fill="none" stroke="midnightblue" d="M113.774,-60.2803C134.831,-66.121 159.394,-72.9341 177.947,-78.0802"/>
<polygon fill="midnightblue" stroke="midnightblue" points="114.643,-56.8892 104.071,-57.589 112.772,-63.6346 114.643,-56.8892"/>
</g>
<!-- Node9 -->
<g id="node9" class="node"><title>Node9</title>
<g id="a_node9"><a xlink:href="class_clock.html" target="_top" xlink:title="Clock">
<polygon fill="white" stroke="black" points="186,-38.5 186,-57.5 229,-57.5 229,-38.5 186,-38.5"/>
<text text-anchor="middle" x="207.5" y="-45.5" font-family="Ubuntu Mono" font-size="10.00">Clock</text>
</a>
</g>
</g>
<!-- Node8&#45;&gt;Node9 -->
<g id="edge8" class="edge"><title>Node8&#45;&gt;Node9</title>
<path fill="none" stroke="midnightblue" d="M121.446,-48C143.891,-48 168.858,-48 185.902,-48"/>
<polygon fill="midnightblue" stroke="midnightblue" points="121.349,-44.5001 111.349,-48 121.349,-51.5001 121.349,-44.5001"/>
</g>
<!-- Node10 -->
<g id="node10" class="node"><title>Node10</title>
<g id="a_node10"><a xlink:href="class_statistics.html" target="_top" xlink:title="Statistics">
<polygon fill="white" stroke="black" points="173,-0.5 173,-19.5 242,-19.5 242,-0.5 173,-0.5"/>
<text text-anchor="middle" x="207.5" y="-7.5" font-family="Ubuntu Mono" font-size="10.00">Statistics</text>
</a>
</g>
</g>
<!-- Node8&#45;&gt;Node10 -->
<g id="edge9" class="edge"><title>Node8&#45;&gt;Node10</title>
<path fill="none" stroke="midnightblue" d="M113.802,-35.712C132.989,-30.3899 155.083,-24.2617 172.887,-19.3232"/>
<polygon fill="midnightblue" stroke="midnightblue" points="112.772,-32.3654 104.071,-38.411 114.643,-39.1108 112.772,-32.3654"/>
</g>
</g>
</svg>
