<?xml version="1.0" encoding="UTF-8" standalone="no"?>
<!DOCTYPE svg PUBLIC "-//W3C//DTD SVG 1.1//EN"
 "http://www.w3.org/Graphics/SVG/1.1/DTD/svg11.dtd">
<!-- Generated by graphviz version 2.38.0 (20140413.2041)
 -->
<!-- Title: Graphical Class Hierarchy Pages: 1 -->
<svg width="288pt" height="192pt"
 viewBox="0.00 0.00 288.00 191.50" xmlns="http://www.w3.org/2000/svg" xmlns:xlink="http://www.w3.org/1999/xlink">
<g id="graph0" class="graph" transform="scale(1 1) rotate(0) translate(4 187.5)">
<title>Graphical Class Hierarchy</title>
<polygon fill="white" stroke="none" points="-4,4 -4,-187.5 284,-187.5 284,4 -4,4"/>
<!-- Node1 -->
<g id="node1" class="node"><title>Node1</title>
<g id="a_node1"><a xlink:href="class_cost_function.html" target="_top" xlink:title="CostFunction">
<polygon fill="white" stroke="black" points="0,-76.5 0,-95.5 80,-95.5 80,-76.5 0,-76.5"/>
<text text-anchor="middle" x="40" y="-83.5" font-family="Ubuntu Mono" font-size="10.00">CostFunction</text>
</a>
</g>
</g>
<!-- Node2 -->
<g id="node2" class="node"><title>Node2</title>
<g id="a_node2"><a xlink:href="class_better_nearest_neighbour_cost_function.html" target="_top" xlink:title="BetterNearestNeighbourCost\lFunction">
<polygon fill="white" stroke="black" points="121.5,-153 121.5,-183 274.5,-183 274.5,-153 121.5,-153"/>
<text text-anchor="start" x="129.5" y="-171" font-family="Ubuntu Mono" font-size="10.00">BetterNearestNeighbourCost</text>
<text text-anchor="middle" x="198" y="-160" font-family="Ubuntu Mono" font-size="10.00">Function</text>
</a>
</g>
</g>
<!-- Node1&#45;&gt;Node2 -->
<g id="edge1" class="edge"><title>Node1&#45;&gt;Node2</title>
<path fill="none" stroke="midnightblue" d="M59.0412,-102.626C73.5145,-115.21 94.8412,-132.129 116,-143 123.331,-146.766 131.33,-150.081 139.355,-152.962"/>
<polygon fill="midnightblue" stroke="midnightblue" points="61.162,-99.8277 51.3645,-95.7952 56.5089,-105.057 61.162,-99.8277"/>
</g>
<!-- Node3 -->
<g id="node3" class="node"><title>Node3</title>
<g id="a_node3"><a xlink:href="class_dummy_cost_function.html" target="_top" xlink:title="DummyCostFunction">
<polygon fill="white" stroke="black" points="145,-114.5 145,-133.5 251,-133.5 251,-114.5 145,-114.5"/>
<text text-anchor="middle" x="198" y="-121.5" font-family="Ubuntu Mono" font-size="10.00">DummyCostFunction</text>
</a>
</g>
</g>
<!-- Node1&#45;&gt;Node3 -->
<g id="edge2" class="edge"><title>Node1&#45;&gt;Node3</title>
<path fill="none" stroke="midnightblue" d="M87.8713,-98.01C97.1838,-100.358 106.896,-102.779 116,-105 128.91,-108.149 143.002,-111.489 155.76,-114.475"/>
<polygon fill="midnightblue" stroke="midnightblue" points="88.5238,-94.5648 77.9707,-95.5042 86.8063,-101.351 88.5238,-94.5648"/>
</g>
<!-- Node4 -->
<g id="node4" class="node"><title>Node4</title>
<g id="a_node4"><a xlink:href="class_nearest_neighbour_cost_function.html" target="_top" xlink:title="NearestNeighbourCostFunction">
<polygon fill="white" stroke="black" points="116,-76.5 116,-95.5 280,-95.5 280,-76.5 116,-76.5"/>
<text text-anchor="middle" x="198" y="-83.5" font-family="Ubuntu Mono" font-size="10.00">NearestNeighbourCostFunction</text>
</a>
</g>
</g>
<!-- Node1&#45;&gt;Node4 -->
<g id="edge3" class="edge"><title>Node1&#45;&gt;Node4</title>
<path fill="none" stroke="midnightblue" d="M90.4172,-86C98.5835,-86 107.235,-86 115.937,-86"/>
<polygon fill="midnightblue" stroke="midnightblue" points="90.3654,-82.5001 80.3654,-86 90.3654,-89.5001 90.3654,-82.5001"/>
</g>
<!-- Node5 -->
<g id="node5" class="node"><title>Node5</title>
<g id="a_node5"><a xlink:href="class_random_cost_function.html" target="_top" xlink:title="RandomCostFunction">
<polygon fill="white" stroke="black" points="142.5,-38.5 142.5,-57.5 253.5,-57.5 253.5,-38.5 142.5,-38.5"/>
<text text-anchor="middle" x="198" y="-45.5" font-family="Ubuntu Mono" font-size="10.00">RandomCostFunction</text>
</a>
</g>
</g>
<!-- Node1&#45;&gt;Node5 -->
<g id="edge4" class="edge"><title>Node1&#45;&gt;Node5</title>
<path fill="none" stroke="midnightblue" d="M87.8713,-73.99C97.1838,-71.6422 106.896,-69.2208 116,-67 128.91,-63.8508 143.002,-60.5113 155.76,-57.5249"/>
<polygon fill="midnightblue" stroke="midnightblue" points="86.8063,-70.6491 77.9707,-76.4958 88.5238,-77.4352 86.8063,-70.6491"/>
</g>
<!-- Node6 -->
<g id="node6" class="node"><title>Node6</title>
<g id="a_node6"><a xlink:href="class_weighted_cost_function.html" target="_top" xlink:title="WeightedCostFunction">
<polygon fill="white" stroke="black" points="137,-0.5 137,-19.5 259,-19.5 259,-0.5 137,-0.5"/>
<text text-anchor="middle" x="198" y="-7.5" font-family="Ubuntu Mono" font-size="10.00">WeightedCostFunction</text>
</a>
</g>
</g>
<!-- Node1&#45;&gt;Node6 -->
<g id="edge5" class="edge"><title>Node1&#45;&gt;Node6</title>
<path fill="none" stroke="midnightblue" d="M58.346,-69.4027C72.7125,-56.5464 94.2317,-39.2517 116,-29 124.233,-25.1229 133.319,-22.0034 142.34,-19.5034"/>
<polygon fill="midnightblue" stroke="midnightblue" points="55.7581,-67.0277 50.7659,-76.3727 60.4961,-72.1805 55.7581,-67.0277"/>
</g>
</g>
</svg>
