<?xml version="1.0" encoding="UTF-8" standalone="no"?>
<!DOCTYPE svg PUBLIC "-//W3C//DTD SVG 1.1//EN"
 "http://www.w3.org/Graphics/SVG/1.1/DTD/svg11.dtd">
<!-- Generated by graphviz version 2.38.0 (20140413.2041)
 -->
<!-- Title: Graphical Class Hierarchy Pages: 1 -->
<svg width="248pt" height="66pt"
 viewBox="0.00 0.00 248.00 66.00" xmlns="http://www.w3.org/2000/svg" xmlns:xlink="http://www.w3.org/1999/xlink">
<g id="graph0" class="graph" transform="scale(1 1) rotate(0) translate(4 62)">
<title>Graphical Class Hierarchy</title>
<polygon fill="white" stroke="none" points="-4,4 -4,-62 244,-62 244,4 -4,4"/>
<!-- Node1 -->
<g id="node1" class="node"><title>Node1</title>
<polygon fill="white" stroke="#bfbfbf" points="0,-19.5 0,-38.5 74,-38.5 74,-19.5 0,-19.5"/>
<text text-anchor="middle" x="37" y="-26.5" font-family="Helvetica,sans-Serif" font-size="10.00">runtime_error</text>
</g>
<!-- Node2 -->
<g id="node2" class="node"><title>Node2</title>
<g id="a_node2"><a xlink:href="class_missing_cost_function_error.html" target="_top" xlink:title="MissingCostFunctionError">
<polygon fill="white" stroke="black" points="110,-38.5 110,-57.5 240,-57.5 240,-38.5 110,-38.5"/>
<text text-anchor="middle" x="175" y="-45.5" font-family="Helvetica,sans-Serif" font-size="10.00">MissingCostFunctionError</text>
</a>
</g>
</g>
<!-- Node1&#45;&gt;Node2 -->
<g id="edge1" class="edge"><title>Node1&#45;&gt;Node2</title>
<path fill="none" stroke="midnightblue" d="M84.2404,-35.46C92.49,-36.6126 101.217,-37.8318 109.861,-39.0394"/>
<polygon fill="midnightblue" stroke="midnightblue" points="84.4766,-31.9591 74.0884,-34.0418 83.508,-38.8918 84.4766,-31.9591"/>
</g>
<!-- Node3 -->
<g id="node3" class="node"><title>Node3</title>
<g id="a_node3"><a xlink:href="class_missing_scheduler_error.html" target="_top" xlink:title="MissingSchedulerError">
<polygon fill="white" stroke="black" points="117.5,-0.5 117.5,-19.5 232.5,-19.5 232.5,-0.5 117.5,-0.5"/>
<text text-anchor="middle" x="175" y="-7.5" font-family="Helvetica,sans-Serif" font-size="10.00">MissingSchedulerError</text>
</a>
</g>
</g>
<!-- Node1&#45;&gt;Node3 -->
<g id="edge2" class="edge"><title>Node1&#45;&gt;Node3</title>
<path fill="none" stroke="midnightblue" d="M84.0813,-22.5622C94.8064,-21.0638 106.346,-19.4517 117.465,-17.8983"/>
<polygon fill="midnightblue" stroke="midnightblue" points="83.508,-19.1082 74.0884,-23.9582 84.4766,-26.0409 83.508,-19.1082"/>
</g>
</g>
</svg>
