<?xml version="1.0" encoding="UTF-8" standalone="no"?>
<!DOCTYPE svg PUBLIC "-//W3C//DTD SVG 1.1//EN"
 "http://www.w3.org/Graphics/SVG/1.1/DTD/svg11.dtd">
<!-- Generated by graphviz version 2.38.0 (20140413.2041)
 -->
<!-- Title: Graphical Class Hierarchy Pages: 1 -->
<svg width="175pt" height="66pt"
 viewBox="0.00 0.00 175.00 66.00" xmlns="http://www.w3.org/2000/svg" xmlns:xlink="http://www.w3.org/1999/xlink">
<g id="graph0" class="graph" transform="scale(1 1) rotate(0) translate(4 62)">
<title>Graphical Class Hierarchy</title>
<polygon fill="white" stroke="none" points="-4,4 -4,-62 171,-62 171,4 -4,4"/>
<!-- Node1 -->
<g id="node1" class="node"><title>Node1</title>
<g id="a_node1"><a xlink:href="class_event.html" target="_top" xlink:title="Event">
<polygon fill="white" stroke="black" points="0,-19.5 0,-38.5 42,-38.5 42,-19.5 0,-19.5"/>
<text text-anchor="middle" x="21" y="-26.5" font-family="Helvetica,sans-Serif" font-size="10.00">Event</text>
</a>
</g>
</g>
<!-- Node2 -->
<g id="node2" class="node"><title>Node2</title>
<g id="a_node2"><a xlink:href="class_client_arrival.html" target="_top" xlink:title="ClientArrival">
<polygon fill="white" stroke="black" points="87.5,-38.5 87.5,-57.5 157.5,-57.5 157.5,-38.5 87.5,-38.5"/>
<text text-anchor="middle" x="122.5" y="-45.5" font-family="Helvetica,sans-Serif" font-size="10.00">ClientArrival</text>
</a>
</g>
</g>
<!-- Node1&#45;&gt;Node2 -->
<g id="edge1" class="edge"><title>Node1&#45;&gt;Node2</title>
<path fill="none" stroke="midnightblue" d="M52.1928,-34.7655C63.268,-36.8803 75.881,-39.2888 87.2839,-41.4663"/>
<polygon fill="midnightblue" stroke="midnightblue" points="52.6143,-31.2828 42.1353,-32.8449 51.3013,-38.1586 52.6143,-31.2828"/>
</g>
<!-- Node3 -->
<g id="node3" class="node"><title>Node3</title>
<g id="a_node3"><a xlink:href="class_finish_simulation.html" target="_top" xlink:title="FinishSimulation">
<polygon fill="white" stroke="black" points="78,-0.5 78,-19.5 167,-19.5 167,-0.5 78,-0.5"/>
<text text-anchor="middle" x="122.5" y="-7.5" font-family="Helvetica,sans-Serif" font-size="10.00">FinishSimulation</text>
</a>
</g>
</g>
<!-- Node1&#45;&gt;Node3 -->
<g id="edge2" class="edge"><title>Node1&#45;&gt;Node3</title>
<path fill="none" stroke="midnightblue" d="M51.9647,-23.2781C60.1516,-21.7148 69.1925,-19.9884 77.9709,-18.3121"/>
<polygon fill="midnightblue" stroke="midnightblue" points="51.3013,-19.8414 42.1353,-25.1551 52.6143,-26.7172 51.3013,-19.8414"/>
</g>
</g>
</svg>
