<?xml version="1.0" encoding="UTF-8" standalone="no"?>
<!DOCTYPE svg PUBLIC "-//W3C//DTD SVG 1.1//EN"
 "http://www.w3.org/Graphics/SVG/1.1/DTD/svg11.dtd">
<!-- Generated by graphviz version 2.38.0 (20140413.2041)
 -->
<!-- Title: Graphical Class Hierarchy Pages: 1 -->
<svg width="188pt" height="66pt"
 viewBox="0.00 0.00 188.00 66.00" xmlns="http://www.w3.org/2000/svg" xmlns:xlink="http://www.w3.org/1999/xlink">
<g id="graph0" class="graph" transform="scale(1 1) rotate(0) translate(4 62)">
<title>Graphical Class Hierarchy</title>
<polygon fill="white" stroke="none" points="-4,4 -4,-62 184,-62 184,4 -4,4"/>
<!-- Node1 -->
<g id="node1" class="node"><title>Node1</title>
<g id="a_node1"><a xlink:href="class_event.html" target="_top" xlink:title="Event">
<polygon fill="white" stroke="black" points="0,-19.5 0,-38.5 43,-38.5 43,-19.5 0,-19.5"/>
<text text-anchor="middle" x="21.5" y="-26.5" font-family="Ubuntu Mono" font-size="10.00">Event</text>
</a>
</g>
</g>
<!-- Node2 -->
<g id="node2" class="node"><title>Node2</title>
<g id="a_node2"><a xlink:href="class_client_arrival.html" target="_top" xlink:title="ClientArrival">
<polygon fill="white" stroke="black" points="87,-38.5 87,-57.5 172,-57.5 172,-38.5 87,-38.5"/>
<text text-anchor="middle" x="129.5" y="-45.5" font-family="Ubuntu Mono" font-size="10.00">ClientArrival</text>
</a>
</g>
</g>
<!-- Node1&#45;&gt;Node2 -->
<g id="edge1" class="edge"><title>Node1&#45;&gt;Node2</title>
<path fill="none" stroke="midnightblue" d="M53.1354,-34.4913C63.6392,-36.374 75.5781,-38.514 86.8069,-40.5267"/>
<polygon fill="midnightblue" stroke="midnightblue" points="53.6502,-31.0278 43.1895,-32.7085 52.4151,-37.918 53.6502,-31.0278"/>
</g>
<!-- Node3 -->
<g id="node3" class="node"><title>Node3</title>
<g id="a_node3"><a xlink:href="class_finish_simulation.html" target="_top" xlink:title="FinishSimulation">
<polygon fill="white" stroke="black" points="79,-0.5 79,-19.5 180,-19.5 180,-0.5 79,-0.5"/>
<text text-anchor="middle" x="129.5" y="-7.5" font-family="Ubuntu Mono" font-size="10.00">FinishSimulation</text>
</a>
</g>
</g>
<!-- Node1&#45;&gt;Node3 -->
<g id="edge2" class="edge"><title>Node1&#45;&gt;Node3</title>
<path fill="none" stroke="midnightblue" d="M53.196,-23.4979C61.2363,-22.0567 70.1142,-20.4654 78.8691,-18.8961"/>
<polygon fill="midnightblue" stroke="midnightblue" points="52.4151,-20.082 43.1895,-25.2915 53.6502,-26.9722 52.4151,-20.082"/>
</g>
</g>
</svg>
