<?xml version="1.0" encoding="UTF-8" standalone="no"?>
<!DOCTYPE svg PUBLIC "-//W3C//DTD SVG 1.1//EN"
 "http://www.w3.org/Graphics/SVG/1.1/DTD/svg11.dtd">
<!-- Generated by graphviz version 2.38.0 (20140413.2041)
 -->
<!-- Title: Graphical Class Hierarchy Pages: 1 -->
<svg width="273pt" height="154pt"
 viewBox="0.00 0.00 273.00 153.50" xmlns="http://www.w3.org/2000/svg" xmlns:xlink="http://www.w3.org/1999/xlink">
<g id="graph0" class="graph" transform="scale(1 1) rotate(0) translate(4 149.5)">
<title>Graphical Class Hierarchy</title>
<polygon fill="white" stroke="none" points="-4,4 -4,-149.5 269,-149.5 269,4 -4,4"/>
<!-- Node1 -->
<g id="node1" class="node"><title>Node1</title>
<g id="a_node1"><a xlink:href="class_cost_function.html" target="_top" xlink:title="CostFunction">
<polygon fill="white" stroke="black" points="0,-57.5 0,-76.5 75,-76.5 75,-57.5 0,-57.5"/>
<text text-anchor="middle" x="37.5" y="-64.5" font-family="Helvetica,sans-Serif" font-size="10.00">CostFunction</text>
</a>
</g>
</g>
<!-- Node2 -->
<g id="node2" class="node"><title>Node2</title>
<g id="a_node2"><a xlink:href="class_better_nearest_neighbour_cost_function.html" target="_top" xlink:title="BetterNearestNeighbourCost\lFunction">
<polygon fill="white" stroke="black" points="116.5,-115 116.5,-145 259.5,-145 259.5,-115 116.5,-115"/>
<text text-anchor="start" x="124.5" y="-133" font-family="Helvetica,sans-Serif" font-size="10.00">BetterNearestNeighbourCost</text>
<text text-anchor="middle" x="188" y="-122" font-family="Helvetica,sans-Serif" font-size="10.00">Function</text>
</a>
</g>
</g>
<!-- Node1&#45;&gt;Node2 -->
<g id="edge1" class="edge"><title>Node1&#45;&gt;Node2</title>
<path fill="none" stroke="midnightblue" d="M63.6711,-81.5052C77.3956,-89.0767 94.8368,-98.1609 111,-105 119.315,-108.518 128.307,-111.862 137.096,-114.892"/>
<polygon fill="midnightblue" stroke="midnightblue" points="65.26,-78.3836 54.8247,-76.5513 61.8397,-84.4911 65.26,-78.3836"/>
</g>
<!-- Node3 -->
<g id="node3" class="node"><title>Node3</title>
<g id="a_node3"><a xlink:href="class_nearest_neighbour_cost_function.html" target="_top" xlink:title="NearestNeighbourCostFunction">
<polygon fill="white" stroke="black" points="111,-76.5 111,-95.5 265,-95.5 265,-76.5 111,-76.5"/>
<text text-anchor="middle" x="188" y="-83.5" font-family="Helvetica,sans-Serif" font-size="10.00">NearestNeighbourCostFunction</text>
</a>
</g>
</g>
<!-- Node1&#45;&gt;Node3 -->
<g id="edge2" class="edge"><title>Node1&#45;&gt;Node3</title>
<path fill="none" stroke="midnightblue" d="M85.1923,-72.9741C93.9618,-74.0961 103.329,-75.2946 112.697,-76.4933"/>
<polygon fill="midnightblue" stroke="midnightblue" points="85.5712,-69.4941 75.2079,-71.6966 84.6828,-76.4375 85.5712,-69.4941"/>
</g>
<!-- Node4 -->
<g id="node4" class="node"><title>Node4</title>
<g id="a_node4"><a xlink:href="class_random_cost_function.html" target="_top" xlink:title="RandomCostFunction">
<polygon fill="white" stroke="black" points="132,-38.5 132,-57.5 244,-57.5 244,-38.5 132,-38.5"/>
<text text-anchor="middle" x="188" y="-45.5" font-family="Helvetica,sans-Serif" font-size="10.00">RandomCostFunction</text>
</a>
</g>
</g>
<!-- Node1&#45;&gt;Node4 -->
<g id="edge3" class="edge"><title>Node1&#45;&gt;Node4</title>
<path fill="none" stroke="midnightblue" d="M85.1665,-61.0292C99.9973,-59.1317 116.54,-57.0151 131.907,-55.049"/>
<polygon fill="midnightblue" stroke="midnightblue" points="84.6828,-57.5625 75.2079,-62.3034 85.5712,-64.5059 84.6828,-57.5625"/>
</g>
<!-- Node5 -->
<g id="node5" class="node"><title>Node5</title>
<g id="a_node5"><a xlink:href="class_weighted_cost_function.html" target="_top" xlink:title="WeightedCostFunction">
<polygon fill="white" stroke="black" points="130,-0.5 130,-19.5 246,-19.5 246,-0.5 130,-0.5"/>
<text text-anchor="middle" x="188" y="-7.5" font-family="Helvetica,sans-Serif" font-size="10.00">WeightedCostFunction</text>
</a>
</g>
</g>
<!-- Node1&#45;&gt;Node5 -->
<g id="edge4" class="edge"><title>Node1&#45;&gt;Node5</title>
<path fill="none" stroke="midnightblue" d="M62.9421,-52.3219C76.6896,-44.5486 94.3828,-35.3284 111,-29 120.66,-25.3213 131.282,-22.1523 141.444,-19.5145"/>
<polygon fill="midnightblue" stroke="midnightblue" points="61.0257,-49.3868 54.1166,-57.4189 64.5266,-55.4485 61.0257,-49.3868"/>
</g>
</g>
</svg>
