<?xml version="1.0" encoding="UTF-8" standalone="no"?>
<!DOCTYPE svg PUBLIC "-//W3C//DTD SVG 1.1//EN"
 "http://www.w3.org/Graphics/SVG/1.1/DTD/svg11.dtd">
<!-- Generated by graphviz version 2.38.0 (20140413.2041)
 -->
<!-- Title: Graphical Class Hierarchy Pages: 1 -->
<svg width="273pt" height="192pt"
 viewBox="0.00 0.00 273.00 191.50" xmlns="http://www.w3.org/2000/svg" xmlns:xlink="http://www.w3.org/1999/xlink">
<g id="graph0" class="graph" transform="scale(1 1) rotate(0) translate(4 187.5)">
<title>Graphical Class Hierarchy</title>
<polygon fill="white" stroke="none" points="-4,4 -4,-187.5 269,-187.5 269,4 -4,4"/>
<!-- Node1 -->
<g id="node1" class="node"><title>Node1</title>
<g id="a_node1"><a xlink:href="class_cost_function.html" target="_top" xlink:title="CostFunction">
<polygon fill="white" stroke="black" points="0,-76.5 0,-95.5 75,-95.5 75,-76.5 0,-76.5"/>
<text text-anchor="middle" x="37.5" y="-83.5" font-family="Helvetica,sans-Serif" font-size="10.00">CostFunction</text>
</a>
</g>
</g>
<!-- Node2 -->
<g id="node2" class="node"><title>Node2</title>
<g id="a_node2"><a xlink:href="class_better_nearest_neighbour_cost_function.html" target="_top" xlink:title="BetterNearestNeighbourCost\lFunction">
<polygon fill="white" stroke="black" points="116.5,-153 116.5,-183 259.5,-183 259.5,-153 116.5,-153"/>
<text text-anchor="start" x="124.5" y="-171" font-family="Helvetica,sans-Serif" font-size="10.00">BetterNearestNeighbourCost</text>
<text text-anchor="middle" x="188" y="-160" font-family="Helvetica,sans-Serif" font-size="10.00">Function</text>
</a>
</g>
</g>
<!-- Node1&#45;&gt;Node2 -->
<g id="edge1" class="edge"><title>Node1&#45;&gt;Node2</title>
<path fill="none" stroke="midnightblue" d="M55.8992,-102.552C69.868,-115.097 90.474,-131.998 111,-143 117.978,-146.74 125.616,-150.054 133.275,-152.947"/>
<polygon fill="midnightblue" stroke="midnightblue" points="58.2242,-99.9355 48.4924,-95.747 53.4882,-105.09 58.2242,-99.9355"/>
</g>
<!-- Node3 -->
<g id="node3" class="node"><title>Node3</title>
<g id="a_node3"><a xlink:href="class_dummy_cost_function.html" target="_top" xlink:title="DummyCostFunction">
<polygon fill="white" stroke="black" points="133,-114.5 133,-133.5 243,-133.5 243,-114.5 133,-114.5"/>
<text text-anchor="middle" x="188" y="-121.5" font-family="Helvetica,sans-Serif" font-size="10.00">DummyCostFunction</text>
</a>
</g>
</g>
<!-- Node1&#45;&gt;Node3 -->
<g id="edge2" class="edge"><title>Node1&#45;&gt;Node3</title>
<path fill="none" stroke="midnightblue" d="M84.3882,-98.1098C93.2154,-100.415 102.391,-102.796 111,-105 123.122,-108.103 136.346,-111.43 148.315,-114.419"/>
<polygon fill="midnightblue" stroke="midnightblue" points="85.1793,-94.699 74.6189,-95.5517 83.4061,-101.471 85.1793,-94.699"/>
</g>
<!-- Node4 -->
<g id="node4" class="node"><title>Node4</title>
<g id="a_node4"><a xlink:href="class_nearest_neighbour_cost_function.html" target="_top" xlink:title="NearestNeighbourCostFunction">
<polygon fill="white" stroke="black" points="111,-76.5 111,-95.5 265,-95.5 265,-76.5 111,-76.5"/>
<text text-anchor="middle" x="188" y="-83.5" font-family="Helvetica,sans-Serif" font-size="10.00">NearestNeighbourCostFunction</text>
</a>
</g>
</g>
<!-- Node1&#45;&gt;Node4 -->
<g id="edge3" class="edge"><title>Node1&#45;&gt;Node4</title>
<path fill="none" stroke="midnightblue" d="M85.274,-86C93.4693,-86 102.185,-86 110.933,-86"/>
<polygon fill="midnightblue" stroke="midnightblue" points="85.2079,-82.5001 75.2079,-86 85.2078,-89.5001 85.2079,-82.5001"/>
</g>
<!-- Node5 -->
<g id="node5" class="node"><title>Node5</title>
<g id="a_node5"><a xlink:href="class_random_cost_function.html" target="_top" xlink:title="RandomCostFunction">
<polygon fill="white" stroke="black" points="132,-38.5 132,-57.5 244,-57.5 244,-38.5 132,-38.5"/>
<text text-anchor="middle" x="188" y="-45.5" font-family="Helvetica,sans-Serif" font-size="10.00">RandomCostFunction</text>
</a>
</g>
</g>
<!-- Node1&#45;&gt;Node5 -->
<g id="edge4" class="edge"><title>Node1&#45;&gt;Node5</title>
<path fill="none" stroke="midnightblue" d="M84.3882,-73.8902C93.2154,-71.5845 102.391,-69.2041 111,-67 123.122,-63.8966 136.346,-60.5699 148.315,-57.5812"/>
<polygon fill="midnightblue" stroke="midnightblue" points="83.4061,-70.5293 74.6189,-76.4483 85.1793,-77.301 83.4061,-70.5293"/>
</g>
<!-- Node6 -->
<g id="node6" class="node"><title>Node6</title>
<g id="a_node6"><a xlink:href="class_weighted_cost_function.html" target="_top" xlink:title="WeightedCostFunction">
<polygon fill="white" stroke="black" points="130,-0.5 130,-19.5 246,-19.5 246,-0.5 130,-0.5"/>
<text text-anchor="middle" x="188" y="-7.5" font-family="Helvetica,sans-Serif" font-size="10.00">WeightedCostFunction</text>
</a>
</g>
</g>
<!-- Node1&#45;&gt;Node6 -->
<g id="edge5" class="edge"><title>Node1&#45;&gt;Node6</title>
<path fill="none" stroke="midnightblue" d="M55.2078,-69.4644C69.0615,-56.6431 89.8468,-39.3654 111,-29 118.816,-25.1699 127.475,-22.0673 136.065,-19.5679"/>
<polygon fill="midnightblue" stroke="midnightblue" points="52.7361,-66.985 47.9017,-76.4125 57.5601,-72.0575 52.7361,-66.985"/>
</g>
</g>
</svg>
