<?xml version="1.0" encoding="UTF-8" standalone="no"?>
<!DOCTYPE svg PUBLIC "-//W3C//DTD SVG 1.1//EN"
 "http://www.w3.org/Graphics/SVG/1.1/DTD/svg11.dtd">
<!-- Generated by graphviz version 2.38.0 (20140413.2041)
 -->
<!-- Title: Graphical Class Hierarchy Pages: 1 -->
<svg width="272pt" height="66pt"
 viewBox="0.00 0.00 272.00 66.00" xmlns="http://www.w3.org/2000/svg" xmlns:xlink="http://www.w3.org/1999/xlink">
<g id="graph0" class="graph" transform="scale(1 1) rotate(0) translate(4 62)">
<title>Graphical Class Hierarchy</title>
<polygon fill="white" stroke="none" points="-4,4 -4,-62 268,-62 268,4 -4,4"/>
<!-- Node1 -->
<g id="node1" class="node"><title>Node1</title>
<polygon fill="white" stroke="#bfbfbf" points="0,-19.5 0,-38.5 85,-38.5 85,-19.5 0,-19.5"/>
<text text-anchor="middle" x="42.5" y="-26.5" font-family="Ubuntu Mono" font-size="10.00">runtime_error</text>
</g>
<!-- Node2 -->
<g id="node2" class="node"><title>Node2</title>
<g id="a_node2"><a xlink:href="class_missing_cost_function_error.html" target="_top" xlink:title="MissingCostFunctionError">
<polygon fill="white" stroke="black" points="121,-38.5 121,-57.5 264,-57.5 264,-38.5 121,-38.5"/>
<text text-anchor="middle" x="192.5" y="-45.5" font-family="Ubuntu Mono" font-size="10.00">MissingCostFunctionError</text>
</a>
</g>
</g>
<!-- Node1&#45;&gt;Node2 -->
<g id="edge1" class="edge"><title>Node1&#45;&gt;Node2</title>
<path fill="none" stroke="midnightblue" d="M95.3052,-35.6507C103.544,-36.7084 112.188,-37.8181 120.773,-38.9202"/>
<polygon fill="midnightblue" stroke="midnightblue" points="95.4844,-32.145 85.1201,-34.3431 94.593,-39.0881 95.4844,-32.145"/>
</g>
<!-- Node3 -->
<g id="node3" class="node"><title>Node3</title>
<g id="a_node3"><a xlink:href="class_missing_scheduler_error.html" target="_top" xlink:title="MissingSchedulerError">
<polygon fill="white" stroke="black" points="129,-0.5 129,-19.5 256,-19.5 256,-0.5 129,-0.5"/>
<text text-anchor="middle" x="192.5" y="-7.5" font-family="Ubuntu Mono" font-size="10.00">MissingSchedulerError</text>
</a>
</g>
</g>
<!-- Node1&#45;&gt;Node3 -->
<g id="edge2" class="edge"><title>Node1&#45;&gt;Node3</title>
<path fill="none" stroke="midnightblue" d="M95.282,-22.3523C106.142,-20.9581 117.706,-19.4736 128.911,-18.035"/>
<polygon fill="midnightblue" stroke="midnightblue" points="94.593,-18.9119 85.1201,-23.6569 95.4844,-25.855 94.593,-18.9119"/>
</g>
</g>
</svg>
