<?xml version="1.0" encoding="UTF-8" standalone="no"?>
<!DOCTYPE svg PUBLIC "-//W3C//DTD SVG 1.1//EN"
 "http://www.w3.org/Graphics/SVG/1.1/DTD/svg11.dtd">
<!-- Generated by graphviz version 2.38.0 (20140413.2041)
 -->
<!-- Title: Graphical Class Hierarchy Pages: 1 -->
<svg width="363pt" height="218pt"
 viewBox="0.00 0.00 363.00 218.00" xmlns="http://www.w3.org/2000/svg" xmlns:xlink="http://www.w3.org/1999/xlink">
<g id="graph0" class="graph" transform="scale(1 1) rotate(0) translate(4 214)">
<title>Graphical Class Hierarchy</title>
<polygon fill="white" stroke="none" points="-4,4 -4,-214 359,-214 359,4 -4,4"/>
<!-- Node1 -->
<g id="node1" class="node"><title>Node1</title>
<polygon fill="white" stroke="#bfbfbf" points="0,-133.5 0,-152.5 125,-152.5 125,-133.5 0,-133.5"/>
<text text-anchor="middle" x="62.5" y="-140.5" font-family="Helvetica,sans-Serif" font-size="10.00">enable_shared_from_this</text>
</g>
<!-- Node2 -->
<g id="node2" class="node"><title>Node2</title>
<g id="a_node2"><a xlink:href="class_building.html" target="_top" xlink:title="Building">
<polygon fill="white" stroke="black" points="165.5,-76.5 165.5,-95.5 216.5,-95.5 216.5,-76.5 165.5,-76.5"/>
<text text-anchor="middle" x="191" y="-83.5" font-family="Helvetica,sans-Serif" font-size="10.00">Building</text>
</a>
</g>
</g>
<!-- Node1&#45;&gt;Node2 -->
<g id="edge1" class="edge"><title>Node1&#45;&gt;Node2</title>
<path fill="none" stroke="midnightblue" d="M94.0317,-129.243C117.145,-118.828 148.301,-104.789 168.758,-95.5716"/>
<polygon fill="midnightblue" stroke="midnightblue" points="92.3526,-126.16 84.6733,-133.459 95.2283,-132.542 92.3526,-126.16"/>
</g>
<!-- Node3 -->
<g id="node3" class="node"><title>Node3</title>
<g id="a_node3"><a xlink:href="class_elevator.html" target="_top" xlink:title="Elevator">
<polygon fill="white" stroke="black" points="164.5,-190.5 164.5,-209.5 217.5,-209.5 217.5,-190.5 164.5,-190.5"/>
<text text-anchor="middle" x="191" y="-197.5" font-family="Helvetica,sans-Serif" font-size="10.00">Elevator</text>
</a>
</g>
</g>
<!-- Node1&#45;&gt;Node3 -->
<g id="edge2" class="edge"><title>Node1&#45;&gt;Node3</title>
<path fill="none" stroke="midnightblue" d="M94.0317,-156.757C117.145,-167.172 148.301,-181.211 168.758,-190.428"/>
<polygon fill="midnightblue" stroke="midnightblue" points="95.2283,-153.458 84.6733,-152.541 92.3526,-159.84 95.2283,-153.458"/>
</g>
<!-- Node4 -->
<g id="node4" class="node"><title>Node4</title>
<g id="a_node4"><a xlink:href="class_scheduler.html" target="_top" xlink:title="Scheduler">
<polygon fill="white" stroke="black" points="161,-152.5 161,-171.5 221,-171.5 221,-152.5 161,-152.5"/>
<text text-anchor="middle" x="191" y="-159.5" font-family="Helvetica,sans-Serif" font-size="10.00">Scheduler</text>
</a>
</g>
</g>
<!-- Node1&#45;&gt;Node4 -->
<g id="edge3" class="edge"><title>Node1&#45;&gt;Node4</title>
<path fill="none" stroke="midnightblue" d="M135.432,-153.804C144.381,-155.148 153.093,-156.457 160.834,-157.619"/>
<polygon fill="midnightblue" stroke="midnightblue" points="135.677,-150.302 125.268,-152.277 134.637,-157.224 135.677,-150.302"/>
</g>
<!-- Node7 -->
<g id="node7" class="node"><title>Node7</title>
<g id="a_node7"><a xlink:href="class_simulator.html" target="_top" xlink:title="Simulator">
<polygon fill="white" stroke="black" points="162,-114.5 162,-133.5 220,-133.5 220,-114.5 162,-114.5"/>
<text text-anchor="middle" x="191" y="-121.5" font-family="Helvetica,sans-Serif" font-size="10.00">Simulator</text>
</a>
</g>
</g>
<!-- Node1&#45;&gt;Node7 -->
<g id="edge6" class="edge"><title>Node1&#45;&gt;Node7</title>
<path fill="none" stroke="midnightblue" d="M135.441,-132.195C144.76,-130.795 153.822,-129.434 161.798,-128.236"/>
<polygon fill="midnightblue" stroke="midnightblue" points="134.637,-128.776 125.268,-133.723 135.677,-135.698 134.637,-128.776"/>
</g>
<!-- Node5 -->
<g id="node5" class="node"><title>Node5</title>
<g id="a_node5"><a xlink:href="class_planning_scheduler.html" target="_top" xlink:title="PlanningScheduler">
<polygon fill="white" stroke="black" points="257,-171.5 257,-190.5 355,-190.5 355,-171.5 257,-171.5"/>
<text text-anchor="middle" x="306" y="-178.5" font-family="Helvetica,sans-Serif" font-size="10.00">PlanningScheduler</text>
</a>
</g>
</g>
<!-- Node4&#45;&gt;Node5 -->
<g id="edge4" class="edge"><title>Node4&#45;&gt;Node5</title>
<path fill="none" stroke="midnightblue" d="M231.179,-168.588C239.413,-169.972 248.189,-171.448 256.712,-172.881"/>
<polygon fill="midnightblue" stroke="midnightblue" points="231.542,-165.1 221.1,-166.893 230.382,-172.003 231.542,-165.1"/>
</g>
<!-- Node6 -->
<g id="node6" class="node"><title>Node6</title>
<g id="a_node6"><a xlink:href="class_simple_scheduler.html" target="_top" xlink:title="SimpleScheduler">
<polygon fill="white" stroke="black" points="261,-133.5 261,-152.5 351,-152.5 351,-133.5 261,-133.5"/>
<text text-anchor="middle" x="306" y="-140.5" font-family="Helvetica,sans-Serif" font-size="10.00">SimpleScheduler</text>
</a>
</g>
</g>
<!-- Node4&#45;&gt;Node6 -->
<g id="edge5" class="edge"><title>Node4&#45;&gt;Node6</title>
<path fill="none" stroke="midnightblue" d="M231.093,-155.427C240.621,-153.825 250.88,-152.1 260.633,-150.46"/>
<polygon fill="midnightblue" stroke="midnightblue" points="230.382,-151.997 221.1,-157.107 231.542,-158.9 230.382,-151.997"/>
</g>
<!-- Node8 -->
<g id="node8" class="node"><title>Node8</title>
<g id="a_node8"><a xlink:href="class_event_observer.html" target="_top" xlink:title="EventObserver">
<polygon fill="white" stroke="black" points="21.5,-38.5 21.5,-57.5 103.5,-57.5 103.5,-38.5 21.5,-38.5"/>
<text text-anchor="middle" x="62.5" y="-45.5" font-family="Helvetica,sans-Serif" font-size="10.00">EventObserver</text>
</a>
</g>
</g>
<!-- Node8&#45;&gt;Node2 -->
<g id="edge7" class="edge"><title>Node8&#45;&gt;Node2</title>
<path fill="none" stroke="midnightblue" d="M105.181,-60.5209C125.073,-66.4961 148.197,-73.4425 165.272,-78.5717"/>
<polygon fill="midnightblue" stroke="midnightblue" points="106.005,-57.114 95.4213,-57.589 103.992,-63.8181 106.005,-57.114"/>
</g>
<!-- Node9 -->
<g id="node9" class="node"><title>Node9</title>
<g id="a_node9"><a xlink:href="class_clock.html" target="_top" xlink:title="Clock">
<polygon fill="white" stroke="black" points="170,-38.5 170,-57.5 212,-57.5 212,-38.5 170,-38.5"/>
<text text-anchor="middle" x="191" y="-45.5" font-family="Helvetica,sans-Serif" font-size="10.00">Clock</text>
</a>
</g>
</g>
<!-- Node8&#45;&gt;Node9 -->
<g id="edge8" class="edge"><title>Node8&#45;&gt;Node9</title>
<path fill="none" stroke="midnightblue" d="M113.57,-48C133.167,-48 154.53,-48 169.676,-48"/>
<polygon fill="midnightblue" stroke="midnightblue" points="113.525,-44.5001 103.525,-48 113.525,-51.5001 113.525,-44.5001"/>
</g>
<!-- Node10 -->
<g id="node10" class="node"><title>Node10</title>
<g id="a_node10"><a xlink:href="class_statistics.html" target="_top" xlink:title="Statistics">
<polygon fill="white" stroke="black" points="162,-0.5 162,-19.5 220,-19.5 220,-0.5 162,-0.5"/>
<text text-anchor="middle" x="191" y="-7.5" font-family="Helvetica,sans-Serif" font-size="10.00">Statistics</text>
</a>
</g>
</g>
<!-- Node8&#45;&gt;Node10 -->
<g id="edge9" class="edge"><title>Node8&#45;&gt;Node10</title>
<path fill="none" stroke="midnightblue" d="M105.152,-35.4879C123.793,-29.8882 145.279,-23.4341 161.965,-18.4216"/>
<polygon fill="midnightblue" stroke="midnightblue" points="103.992,-32.1819 95.4213,-38.411 106.005,-38.886 103.992,-32.1819"/>
</g>
</g>
</svg>
