<?xml version="1.0" encoding="UTF-8" standalone="no"?>
<!DOCTYPE svg PUBLIC "-//W3C//DTD SVG 1.1//EN"
 "http://www.w3.org/Graphics/SVG/1.1/DTD/svg11.dtd">
<!-- Generated by graphviz version 2.38.0 (20140413.2041)
 -->
<!-- Title: src/main.cpp Pages: 1 -->
<svg width="418pt" height="140pt"
 viewBox="0.00 0.00 418.00 140.00" xmlns="http://www.w3.org/2000/svg" xmlns:xlink="http://www.w3.org/1999/xlink">
<g id="graph0" class="graph" transform="scale(1 1) rotate(0) translate(4 136)">
<title>src/main.cpp</title>
<polygon fill="white" stroke="none" points="-4,4 -4,-136 414,-136 414,4 -4,4"/>
<!-- Node1 -->
<g id="node1" class="node"><title>Node1</title>
<polygon fill="#bfbfbf" stroke="black" points="166,-112.5 166,-131.5 239,-131.5 239,-112.5 166,-112.5"/>
<text text-anchor="middle" x="202.5" y="-119.5" font-family="Helvetica,sans-Serif" font-size="10.00">src/main.cpp</text>
</g>
<!-- Node2 -->
<g id="node2" class="node"><title>Node2</title>
<g id="a_node2"><a xlink:href="_scenario_8h.html" target="_top" xlink:title="Scenario.h">
<polygon fill="white" stroke="black" points="171,-56.5 171,-75.5 234,-75.5 234,-56.5 171,-56.5"/>
<text text-anchor="middle" x="202.5" y="-63.5" font-family="Helvetica,sans-Serif" font-size="10.00">Scenario.h</text>
</a>
</g>
</g>
<!-- Node1&#45;&gt;Node2 -->
<g id="edge1" class="edge"><title>Node1&#45;&gt;Node2</title>
<path fill="none" stroke="midnightblue" d="M202.5,-112.083C202.5,-105.006 202.5,-94.8611 202.5,-85.9865"/>
<polygon fill="midnightblue" stroke="midnightblue" points="206,-85.751 202.5,-75.7511 199,-85.7511 206,-85.751"/>
</g>
<!-- Node4 -->
<g id="node4" class="node"><title>Node4</title>
<polygon fill="white" stroke="#bfbfbf" points="126.5,-0.5 126.5,-19.5 178.5,-19.5 178.5,-0.5 126.5,-0.5"/>
<text text-anchor="middle" x="152.5" y="-7.5" font-family="Helvetica,sans-Serif" font-size="10.00">memory</text>
</g>
<!-- Node1&#45;&gt;Node4 -->
<g id="edge16" class="edge"><title>Node1&#45;&gt;Node4</title>
<path fill="none" stroke="midnightblue" d="M191.45,-112.28C181.841,-104.029 168.407,-90.7379 161.5,-76 154.77,-61.6386 152.698,-43.6739 152.208,-30.2724"/>
<polygon fill="midnightblue" stroke="midnightblue" points="155.704,-29.841 152.108,-19.8753 148.705,-29.9086 155.704,-29.841"/>
</g>
<!-- Node7 -->
<g id="node7" class="node"><title>Node7</title>
<g id="a_node7"><a xlink:href="_simulator_8h.html" target="_top" xlink:title="Simulator.h">
<polygon fill="white" stroke="black" points="48.5,-56.5 48.5,-75.5 114.5,-75.5 114.5,-56.5 48.5,-56.5"/>
<text text-anchor="middle" x="81.5" y="-63.5" font-family="Helvetica,sans-Serif" font-size="10.00">Simulator.h</text>
</a>
</g>
</g>
<!-- Node1&#45;&gt;Node7 -->
<g id="edge6" class="edge"><title>Node1&#45;&gt;Node7</title>
<path fill="none" stroke="midnightblue" d="M183.327,-112.444C163.591,-103.636 132.615,-89.8116 110.007,-79.722"/>
<polygon fill="midnightblue" stroke="midnightblue" points="111.141,-76.3957 100.583,-75.5164 108.289,-82.788 111.141,-76.3957"/>
</g>
<!-- Node9 -->
<g id="node9" class="node"><title>Node9</title>
<g id="a_node9"><a xlink:href="_reporter_8h.html" target="_top" xlink:title="Reporter.h">
<polygon fill="white" stroke="black" points="252.5,-56.5 252.5,-75.5 314.5,-75.5 314.5,-56.5 252.5,-56.5"/>
<text text-anchor="middle" x="283.5" y="-63.5" font-family="Helvetica,sans-Serif" font-size="10.00">Reporter.h</text>
</a>
</g>
</g>
<!-- Node1&#45;&gt;Node9 -->
<g id="edge10" class="edge"><title>Node1&#45;&gt;Node9</title>
<path fill="none" stroke="midnightblue" d="M215.514,-112.324C228.032,-103.979 247.182,-91.2122 261.971,-81.3524"/>
<polygon fill="midnightblue" stroke="midnightblue" points="264.139,-84.1137 270.518,-75.6545 260.256,-78.2894 264.139,-84.1137"/>
</g>
<!-- Node11 -->
<g id="node11" class="node"><title>Node11</title>
<polygon fill="white" stroke="#bfbfbf" points="333,-56.5 333,-75.5 410,-75.5 410,-56.5 333,-56.5"/>
<text text-anchor="middle" x="371.5" y="-63.5" font-family="Helvetica,sans-Serif" font-size="10.00">glog/logging.h</text>
</g>
<!-- Node1&#45;&gt;Node11 -->
<g id="edge15" class="edge"><title>Node1&#45;&gt;Node11</title>
<path fill="none" stroke="midnightblue" d="M229.279,-112.444C257.833,-103.32 303.233,-88.8133 335.037,-78.6509"/>
<polygon fill="midnightblue" stroke="midnightblue" points="336.386,-81.8941 344.847,-75.5164 334.256,-75.2262 336.386,-81.8941"/>
</g>
<!-- Node3 -->
<g id="node3" class="node"><title>Node3</title>
<polygon fill="white" stroke="#bfbfbf" points="67,-0.5 67,-19.5 108,-19.5 108,-0.5 67,-0.5"/>
<text text-anchor="middle" x="87.5" y="-7.5" font-family="Helvetica,sans-Serif" font-size="10.00">ctime</text>
</g>
<!-- Node2&#45;&gt;Node3 -->
<g id="edge2" class="edge"><title>Node2&#45;&gt;Node3</title>
<path fill="none" stroke="midnightblue" d="M184.278,-56.4435C165.604,-47.6751 136.344,-33.9355 114.883,-23.8579"/>
<polygon fill="midnightblue" stroke="midnightblue" points="116.176,-20.5988 105.637,-19.5164 113.201,-26.935 116.176,-20.5988"/>
</g>
<!-- Node2&#45;&gt;Node4 -->
<g id="edge3" class="edge"><title>Node2&#45;&gt;Node4</title>
<path fill="none" stroke="midnightblue" d="M194.244,-56.083C187.035,-48.2982 176.39,-36.8015 167.654,-27.3665"/>
<polygon fill="midnightblue" stroke="midnightblue" points="169.965,-24.7108 160.603,-19.7511 164.829,-29.4666 169.965,-24.7108"/>
</g>
<!-- Node5 -->
<g id="node5" class="node"><title>Node5</title>
<polygon fill="white" stroke="#bfbfbf" points="197,-0.5 197,-19.5 238,-19.5 238,-0.5 197,-0.5"/>
<text text-anchor="middle" x="217.5" y="-7.5" font-family="Helvetica,sans-Serif" font-size="10.00">string</text>
</g>
<!-- Node2&#45;&gt;Node5 -->
<g id="edge4" class="edge"><title>Node2&#45;&gt;Node5</title>
<path fill="none" stroke="midnightblue" d="M204.977,-56.083C206.986,-48.8486 209.886,-38.4087 212.39,-29.3968"/>
<polygon fill="midnightblue" stroke="midnightblue" points="215.765,-30.323 215.069,-19.7511 209.02,-28.4495 215.765,-30.323"/>
</g>
<!-- Node6 -->
<g id="node6" class="node"><title>Node6</title>
<polygon fill="white" stroke="#bfbfbf" points="256.5,-0.5 256.5,-19.5 300.5,-19.5 300.5,-0.5 256.5,-0.5"/>
<text text-anchor="middle" x="278.5" y="-7.5" font-family="Helvetica,sans-Serif" font-size="10.00">vector</text>
</g>
<!-- Node2&#45;&gt;Node6 -->
<g id="edge5" class="edge"><title>Node2&#45;&gt;Node6</title>
<path fill="none" stroke="midnightblue" d="M214.711,-56.324C226.276,-48.1066 243.875,-35.6017 257.661,-25.8069"/>
<polygon fill="midnightblue" stroke="midnightblue" points="259.943,-28.4791 266.067,-19.8339 255.888,-22.7729 259.943,-28.4791"/>
</g>
<!-- Node7&#45;&gt;Node3 -->
<g id="edge7" class="edge"><title>Node7&#45;&gt;Node3</title>
<path fill="none" stroke="midnightblue" d="M82.4908,-56.083C83.2859,-48.9272 84.4294,-38.6353 85.4232,-29.6911"/>
<polygon fill="midnightblue" stroke="midnightblue" points="88.9018,-30.0765 86.5277,-19.7511 81.9447,-29.3034 88.9018,-30.0765"/>
</g>
<!-- Node7&#45;&gt;Node4 -->
<g id="edge8" class="edge"><title>Node7&#45;&gt;Node4</title>
<path fill="none" stroke="midnightblue" d="M92.9074,-56.324C103.609,-48.1849 119.841,-35.8395 132.663,-26.0874"/>
<polygon fill="midnightblue" stroke="midnightblue" points="135.044,-28.6734 140.885,-19.8339 130.807,-23.1018 135.044,-28.6734"/>
</g>
<!-- Node8 -->
<g id="node8" class="node"><title>Node8</title>
<polygon fill="white" stroke="#bfbfbf" points="0,-0.5 0,-19.5 49,-19.5 49,-0.5 0,-0.5"/>
<text text-anchor="middle" x="24.5" y="-7.5" font-family="Helvetica,sans-Serif" font-size="10.00">random</text>
</g>
<!-- Node7&#45;&gt;Node8 -->
<g id="edge9" class="edge"><title>Node7&#45;&gt;Node8</title>
<path fill="none" stroke="midnightblue" d="M72.342,-56.324C63.9985,-48.4196 51.4676,-36.5482 41.3231,-26.9377"/>
<polygon fill="midnightblue" stroke="midnightblue" points="43.4913,-24.1705 33.8247,-19.8339 38.6771,-29.2522 43.4913,-24.1705"/>
</g>
<!-- Node9&#45;&gt;Node4 -->
<g id="edge12" class="edge"><title>Node9&#45;&gt;Node4</title>
<path fill="none" stroke="midnightblue" d="M262.743,-56.4435C241.184,-47.5566 207.237,-33.5632 182.706,-23.4514"/>
<polygon fill="midnightblue" stroke="midnightblue" points="183.739,-20.0917 173.16,-19.5164 181.072,-26.5634 183.739,-20.0917"/>
</g>
<!-- Node9&#45;&gt;Node5 -->
<g id="edge13" class="edge"><title>Node9&#45;&gt;Node5</title>
<path fill="none" stroke="midnightblue" d="M272.896,-56.324C263.044,-48.2631 248.149,-36.0765 236.285,-26.3695"/>
<polygon fill="midnightblue" stroke="midnightblue" points="238.253,-23.4575 228.297,-19.8339 233.82,-28.8752 238.253,-23.4575"/>
</g>
<!-- Node9&#45;&gt;Node6 -->
<g id="edge14" class="edge"><title>Node9&#45;&gt;Node6</title>
<path fill="none" stroke="midnightblue" d="M282.674,-56.083C282.019,-49.0059 281.08,-38.8611 280.258,-29.9865"/>
<polygon fill="midnightblue" stroke="midnightblue" points="283.717,-29.3858 279.31,-19.7511 276.747,-30.0312 283.717,-29.3858"/>
</g>
<!-- Node10 -->
<g id="node10" class="node"><title>Node10</title>
<polygon fill="white" stroke="#bfbfbf" points="319,-0.5 319,-19.5 354,-19.5 354,-0.5 319,-0.5"/>
<text text-anchor="middle" x="336.5" y="-7.5" font-family="Helvetica,sans-Serif" font-size="10.00">map</text>
</g>
<!-- Node9&#45;&gt;Node10 -->
<g id="edge11" class="edge"><title>Node9&#45;&gt;Node10</title>
<path fill="none" stroke="midnightblue" d="M292.252,-56.083C299.97,-48.2195 311.405,-36.5688 320.717,-27.0813"/>
<polygon fill="midnightblue" stroke="midnightblue" points="323.404,-29.3396 327.911,-19.7511 318.408,-24.4363 323.404,-29.3396"/>
</g>
</g>
</svg>
