<?xml version="1.0" encoding="UTF-8" standalone="no"?>
<!DOCTYPE svg PUBLIC "-//W3C//DTD SVG 1.1//EN"
 "http://www.w3.org/Graphics/SVG/1.1/DTD/svg11.dtd">
<!-- Generated by graphviz version 2.38.0 (20140413.2041)
 -->
<!-- Title: src/main.cpp Pages: 1 -->
<svg width="444pt" height="140pt"
 viewBox="0.00 0.00 444.00 140.00" xmlns="http://www.w3.org/2000/svg" xmlns:xlink="http://www.w3.org/1999/xlink">
<g id="graph0" class="graph" transform="scale(1 1) rotate(0) translate(4 136)">
<title>src/main.cpp</title>
<polygon fill="white" stroke="none" points="-4,4 -4,-136 440,-136 440,4 -4,4"/>
<!-- Node1 -->
<g id="node1" class="node"><title>Node1</title>
<polygon fill="#bfbfbf" stroke="black" points="166,-112.5 166,-131.5 246,-131.5 246,-112.5 166,-112.5"/>
<text text-anchor="middle" x="206" y="-119.5" font-family="Ubuntu Mono" font-size="10.00">src/main.cpp</text>
</g>
<!-- Node2 -->
<g id="node2" class="node"><title>Node2</title>
<g id="a_node2"><a xlink:href="_scenario_8h.html" target="_top" xlink:title="Scenario.h">
<polygon fill="white" stroke="black" points="171.5,-56.5 171.5,-75.5 240.5,-75.5 240.5,-56.5 171.5,-56.5"/>
<text text-anchor="middle" x="206" y="-63.5" font-family="Ubuntu Mono" font-size="10.00">Scenario.h</text>
</a>
</g>
</g>
<!-- Node1&#45;&gt;Node2 -->
<g id="edge1" class="edge"><title>Node1&#45;&gt;Node2</title>
<path fill="none" stroke="midnightblue" d="M206,-112.083C206,-105.006 206,-94.8611 206,-85.9865"/>
<polygon fill="midnightblue" stroke="midnightblue" points="209.5,-85.751 206,-75.7511 202.5,-85.7511 209.5,-85.751"/>
</g>
<!-- Node4 -->
<g id="node4" class="node"><title>Node4</title>
<polygon fill="white" stroke="#bfbfbf" points="128,-0.5 128,-19.5 176,-19.5 176,-0.5 128,-0.5"/>
<text text-anchor="middle" x="152" y="-7.5" font-family="Ubuntu Mono" font-size="10.00">memory</text>
</g>
<!-- Node1&#45;&gt;Node4 -->
<g id="edge16" class="edge"><title>Node1&#45;&gt;Node4</title>
<path fill="none" stroke="midnightblue" d="M194.193,-112.43C183.916,-104.279 169.522,-91.0521 162,-76 154.823,-61.6375 152.513,-43.4404 151.889,-29.9555"/>
<polygon fill="midnightblue" stroke="midnightblue" points="155.388,-29.8531 151.692,-19.924 148.39,-29.991 155.388,-29.8531"/>
</g>
<!-- Node7 -->
<g id="node7" class="node"><title>Node7</title>
<g id="a_node7"><a xlink:href="_simulator_8h.html" target="_top" xlink:title="Simulator.h">
<polygon fill="white" stroke="black" points="41,-56.5 41,-75.5 115,-75.5 115,-56.5 41,-56.5"/>
<text text-anchor="middle" x="78" y="-63.5" font-family="Ubuntu Mono" font-size="10.00">Simulator.h</text>
</a>
</g>
</g>
<!-- Node1&#45;&gt;Node7 -->
<g id="edge6" class="edge"><title>Node1&#45;&gt;Node7</title>
<path fill="none" stroke="midnightblue" d="M185.718,-112.444C164.653,-103.557 131.483,-89.5632 107.514,-79.4514"/>
<polygon fill="midnightblue" stroke="midnightblue" points="108.761,-76.1787 98.1871,-75.5164 106.04,-82.6283 108.761,-76.1787"/>
</g>
<!-- Node9 -->
<g id="node9" class="node"><title>Node9</title>
<g id="a_node9"><a xlink:href="_reporter_8h.html" target="_top" xlink:title="Reporter.h">
<polygon fill="white" stroke="black" points="258.5,-56.5 258.5,-75.5 327.5,-75.5 327.5,-56.5 258.5,-56.5"/>
<text text-anchor="middle" x="293" y="-63.5" font-family="Ubuntu Mono" font-size="10.00">Reporter.h</text>
</a>
</g>
</g>
<!-- Node1&#45;&gt;Node9 -->
<g id="edge10" class="edge"><title>Node1&#45;&gt;Node9</title>
<path fill="none" stroke="midnightblue" d="M219.978,-112.324C233.55,-103.9 254.38,-90.9709 270.325,-81.0741"/>
<polygon fill="midnightblue" stroke="midnightblue" points="272.406,-83.9019 279.057,-75.6545 268.714,-77.9544 272.406,-83.9019"/>
</g>
<!-- Node11 -->
<g id="node11" class="node"><title>Node11</title>
<polygon fill="white" stroke="#bfbfbf" points="346,-56.5 346,-75.5 436,-75.5 436,-56.5 346,-56.5"/>
<text text-anchor="middle" x="391" y="-63.5" font-family="Ubuntu Mono" font-size="10.00">glog/logging.h</text>
</g>
<!-- Node1&#45;&gt;Node11 -->
<g id="edge15" class="edge"><title>Node1&#45;&gt;Node11</title>
<path fill="none" stroke="midnightblue" d="M235.314,-112.444C266.842,-103.241 317.131,-88.5617 351.986,-78.3879"/>
<polygon fill="midnightblue" stroke="midnightblue" points="353.205,-81.6783 361.823,-75.5164 351.243,-74.9587 353.205,-81.6783"/>
</g>
<!-- Node3 -->
<g id="node3" class="node"><title>Node3</title>
<polygon fill="white" stroke="#bfbfbf" points="66.5,-0.5 66.5,-19.5 109.5,-19.5 109.5,-0.5 66.5,-0.5"/>
<text text-anchor="middle" x="88" y="-7.5" font-family="Ubuntu Mono" font-size="10.00">ctime</text>
</g>
<!-- Node2&#45;&gt;Node3 -->
<g id="edge2" class="edge"><title>Node2&#45;&gt;Node3</title>
<path fill="none" stroke="midnightblue" d="M187.303,-56.4435C168.056,-47.6356 137.848,-33.8116 115.8,-23.722"/>
<polygon fill="midnightblue" stroke="midnightblue" points="117.16,-20.4951 106.61,-19.5164 114.247,-26.8603 117.16,-20.4951"/>
</g>
<!-- Node2&#45;&gt;Node4 -->
<g id="edge3" class="edge"><title>Node2&#45;&gt;Node4</title>
<path fill="none" stroke="midnightblue" d="M197.083,-56.083C189.22,-48.2195 177.569,-36.5688 168.081,-27.0813"/>
<polygon fill="midnightblue" stroke="midnightblue" points="170.297,-24.3473 160.751,-19.7511 165.347,-29.2971 170.297,-24.3473"/>
</g>
<!-- Node5 -->
<g id="node5" class="node"><title>Node5</title>
<polygon fill="white" stroke="#bfbfbf" points="194,-0.5 194,-19.5 242,-19.5 242,-0.5 194,-0.5"/>
<text text-anchor="middle" x="218" y="-7.5" font-family="Ubuntu Mono" font-size="10.00">string</text>
</g>
<!-- Node2&#45;&gt;Node5 -->
<g id="edge4" class="edge"><title>Node2&#45;&gt;Node5</title>
<path fill="none" stroke="midnightblue" d="M207.982,-56.083C209.572,-48.9272 211.859,-38.6353 213.846,-29.6911"/>
<polygon fill="midnightblue" stroke="midnightblue" points="217.303,-30.2722 216.055,-19.7511 210.469,-28.7537 217.303,-30.2722"/>
</g>
<!-- Node6 -->
<g id="node6" class="node"><title>Node6</title>
<polygon fill="white" stroke="#bfbfbf" points="260,-0.5 260,-19.5 308,-19.5 308,-0.5 260,-0.5"/>
<text text-anchor="middle" x="284" y="-7.5" font-family="Ubuntu Mono" font-size="10.00">vector</text>
</g>
<!-- Node2&#45;&gt;Node6 -->
<g id="edge5" class="edge"><title>Node2&#45;&gt;Node6</title>
<path fill="none" stroke="midnightblue" d="M218.532,-56.324C230.586,-47.979 249.027,-35.2122 263.269,-25.3524"/>
<polygon fill="midnightblue" stroke="midnightblue" points="265.269,-28.2243 271.499,-19.6545 261.285,-22.469 265.269,-28.2243"/>
</g>
<!-- Node7&#45;&gt;Node3 -->
<g id="edge7" class="edge"><title>Node7&#45;&gt;Node3</title>
<path fill="none" stroke="midnightblue" d="M79.6513,-56.083C80.9764,-48.9272 82.8824,-38.6353 84.5387,-29.6911"/>
<polygon fill="midnightblue" stroke="midnightblue" points="87.9999,-30.2212 86.3794,-19.7511 81.117,-28.9466 87.9999,-30.2212"/>
</g>
<!-- Node7&#45;&gt;Node4 -->
<g id="edge8" class="edge"><title>Node7&#45;&gt;Node4</title>
<path fill="none" stroke="midnightblue" d="M89.8894,-56.324C101.15,-48.1066 118.287,-35.6017 131.709,-25.8069"/>
<polygon fill="midnightblue" stroke="midnightblue" points="133.88,-28.5559 139.894,-19.8339 129.753,-22.9014 133.88,-28.5559"/>
</g>
<!-- Node8 -->
<g id="node8" class="node"><title>Node8</title>
<polygon fill="white" stroke="#bfbfbf" points="0,-0.5 0,-19.5 48,-19.5 48,-0.5 0,-0.5"/>
<text text-anchor="middle" x="24" y="-7.5" font-family="Ubuntu Mono" font-size="10.00">random</text>
</g>
<!-- Node7&#45;&gt;Node8 -->
<g id="edge9" class="edge"><title>Node7&#45;&gt;Node8</title>
<path fill="none" stroke="midnightblue" d="M69.083,-56.083C61.2195,-48.2195 49.5688,-36.5688 40.0813,-27.0813"/>
<polygon fill="midnightblue" stroke="midnightblue" points="42.2971,-24.3473 32.7511,-19.7511 37.3473,-29.2971 42.2971,-24.3473"/>
</g>
<!-- Node9&#45;&gt;Node4 -->
<g id="edge12" class="edge"><title>Node9&#45;&gt;Node4</title>
<path fill="none" stroke="midnightblue" d="M270.658,-56.4435C247.247,-47.4776 210.264,-33.314 183.81,-23.1827"/>
<polygon fill="midnightblue" stroke="midnightblue" points="184.828,-19.8245 174.237,-19.5164 182.324,-26.3615 184.828,-19.8245"/>
</g>
<!-- Node9&#45;&gt;Node5 -->
<g id="edge13" class="edge"><title>Node9&#45;&gt;Node5</title>
<path fill="none" stroke="midnightblue" d="M280.95,-56.324C269.537,-48.1066 252.169,-35.6017 238.565,-25.8069"/>
<polygon fill="midnightblue" stroke="midnightblue" points="240.43,-22.8366 230.269,-19.8339 236.34,-28.5174 240.43,-22.8366"/>
</g>
<!-- Node9&#45;&gt;Node6 -->
<g id="edge14" class="edge"><title>Node9&#45;&gt;Node6</title>
<path fill="none" stroke="midnightblue" d="M291.514,-56.083C290.321,-48.9272 288.606,-38.6353 287.115,-29.6911"/>
<polygon fill="midnightblue" stroke="midnightblue" points="290.555,-29.0396 285.459,-19.7511 283.65,-30.1904 290.555,-29.0396"/>
</g>
<!-- Node10 -->
<g id="node10" class="node"><title>Node10</title>
<polygon fill="white" stroke="#bfbfbf" points="326,-0.5 326,-19.5 358,-19.5 358,-0.5 326,-0.5"/>
<text text-anchor="middle" x="342" y="-7.5" font-family="Ubuntu Mono" font-size="10.00">map</text>
</g>
<!-- Node9&#45;&gt;Node10 -->
<g id="edge11" class="edge"><title>Node9&#45;&gt;Node10</title>
<path fill="none" stroke="midnightblue" d="M301.091,-56.083C308.155,-48.2982 318.588,-36.8015 327.149,-27.3665"/>
<polygon fill="midnightblue" stroke="midnightblue" points="329.931,-29.5087 334.059,-19.7511 324.747,-24.8047 329.931,-29.5087"/>
</g>
</g>
</svg>
