<?xml version="1.0" encoding="UTF-8" standalone="no"?>
<!DOCTYPE svg PUBLIC "-//W3C//DTD SVG 1.1//EN"
 "http://www.w3.org/Graphics/SVG/1.1/DTD/svg11.dtd">
<!-- Generated by graphviz version 2.38.0 (20140413.2041)
 -->
<!-- Title: Helpers::directionName Pages: 1 -->
<svg width="438pt" height="66pt"
 viewBox="0.00 0.00 438.00 66.00" xmlns="http://www.w3.org/2000/svg" xmlns:xlink="http://www.w3.org/1999/xlink">
<g id="graph0" class="graph" transform="scale(1 1) rotate(0) translate(4 62)">
<title>Helpers::directionName</title>
<polygon fill="white" stroke="none" points="-4,4 -4,-62 434,-62 434,4 -4,4"/>
<!-- Node1 -->
<g id="node1" class="node"><title>Node1</title>
<polygon fill="#bfbfbf" stroke="black" points="0,-19.5 0,-38.5 119,-38.5 119,-19.5 0,-19.5"/>
<text text-anchor="middle" x="59.5" y="-26.5" font-family="Helvetica,sans-Serif" font-size="10.00">Helpers::directionName</text>
</g>
<!-- Node2 -->
<g id="node2" class="node"><title>Node2</title>
<g id="a_node2"><a xlink:href="class_stop_manager.html#a2c22b4194c71d20793efbb69be1ba548" target="_top" xlink:title="StopManager::set">
<polygon fill="white" stroke="black" points="158.5,-38.5 158.5,-57.5 252.5,-57.5 252.5,-38.5 158.5,-38.5"/>
<text text-anchor="middle" x="205.5" y="-45.5" font-family="Helvetica,sans-Serif" font-size="10.00">StopManager::set</text>
</a>
</g>
</g>
<!-- Node1&#45;&gt;Node2 -->
<g id="edge1" class="edge"><title>Node1&#45;&gt;Node2</title>
<path fill="none" stroke="midnightblue" d="M129.279,-38.075C139.133,-39.3752 149.068,-40.6861 158.343,-41.9099"/>
<polygon fill="midnightblue" stroke="midnightblue" points="129.442,-34.5663 119.07,-36.728 128.527,-41.5061 129.442,-34.5663"/>
</g>
<!-- Node4 -->
<g id="node4" class="node"><title>Node4</title>
<g id="a_node4"><a xlink:href="class_stop_manager.html#ab1e2c0bc01d991dd1c3618be4c1c1884" target="_top" xlink:title="StopManager::clear">
<polygon fill="white" stroke="black" points="155,-0.5 155,-19.5 256,-19.5 256,-0.5 155,-0.5"/>
<text text-anchor="middle" x="205.5" y="-7.5" font-family="Helvetica,sans-Serif" font-size="10.00">StopManager::clear</text>
</a>
</g>
</g>
<!-- Node1&#45;&gt;Node4 -->
<g id="edge3" class="edge"><title>Node1&#45;&gt;Node4</title>
<path fill="none" stroke="midnightblue" d="M129.146,-19.9426C137.779,-18.8034 146.477,-17.6558 154.742,-16.5653"/>
<polygon fill="midnightblue" stroke="midnightblue" points="128.527,-16.4939 119.07,-21.272 129.442,-23.4337 128.527,-16.4939"/>
</g>
<!-- Node3 -->
<g id="node3" class="node"><title>Node3</title>
<g id="a_node3"><a xlink:href="class_stop_manager.html#ae6f0f0e5443cd2e22ff91c8562b68484" target="_top" xlink:title="StopManager::StopManager">
<polygon fill="white" stroke="black" points="292,-38.5 292,-57.5 430,-57.5 430,-38.5 292,-38.5"/>
<text text-anchor="middle" x="361" y="-45.5" font-family="Helvetica,sans-Serif" font-size="10.00">StopManager::StopManager</text>
</a>
</g>
</g>
<!-- Node2&#45;&gt;Node3 -->
<g id="edge2" class="edge"><title>Node2&#45;&gt;Node3</title>
<path fill="none" stroke="midnightblue" d="M262.646,-48C272.138,-48 282.083,-48 291.842,-48"/>
<polygon fill="midnightblue" stroke="midnightblue" points="262.555,-44.5001 252.555,-48 262.555,-51.5001 262.555,-44.5001"/>
</g>
</g>
</svg>
