<?xml version="1.0" encoding="UTF-8" standalone="no"?>
<!DOCTYPE svg PUBLIC "-//W3C//DTD SVG 1.1//EN"
 "http://www.w3.org/Graphics/SVG/1.1/DTD/svg11.dtd">
<!-- Generated by graphviz version 2.38.0 (20140413.2041)
 -->
<!-- Title: Helpers::schedulerName Pages: 1 -->
<svg width="431pt" height="174pt"
 viewBox="0.00 0.00 431.00 173.50" xmlns="http://www.w3.org/2000/svg" xmlns:xlink="http://www.w3.org/1999/xlink">
<g id="graph0" class="graph" transform="scale(1 1) rotate(0) translate(4 169.503)">
<title>Helpers::schedulerName</title>
<polygon fill="white" stroke="none" points="-4,4 -4,-169.503 427,-169.503 427,4 -4,4"/>
<!-- Node1 -->
<g id="node1" class="node"><title>Node1</title>
<polygon fill="#bfbfbf" stroke="black" points="0,-58.5026 0,-77.5026 125,-77.5026 125,-58.5026 0,-58.5026"/>
<text text-anchor="middle" x="62.5" y="-65.5026" font-family="Helvetica,sans-Serif" font-size="10.00">Helpers::schedulerName</text>
</g>
<!-- Node2 -->
<g id="node2" class="node"><title>Node2</title>
<g id="a_node2"><a xlink:href="class_reporter.html#aee1c3bbf665f10a2fb27da4f9154b7ee" target="_top" xlink:title="Reporter::generateUnified\lReport">
<polygon fill="white" stroke="black" points="161,-135.003 161,-165.003 289,-165.003 289,-135.003 161,-135.003"/>
<text text-anchor="start" x="169" y="-153.003" font-family="Helvetica,sans-Serif" font-size="10.00">Reporter::generateUnified</text>
<text text-anchor="middle" x="225" y="-142.003" font-family="Helvetica,sans-Serif" font-size="10.00">Report</text>
</a>
</g>
</g>
<!-- Node1&#45;&gt;Node2 -->
<g id="edge1" class="edge"><title>Node1&#45;&gt;Node2</title>
<path fill="none" stroke="midnightblue" d="M86.7981,-82.9714C106.215,-95.1149 134.828,-112.25 161,-125.003 168.087,-128.456 175.78,-131.814 183.276,-134.89"/>
<polygon fill="midnightblue" stroke="midnightblue" points="88.6355,-79.9923 78.3109,-77.6147 84.8993,-85.9119 88.6355,-79.9923"/>
</g>
<!-- Node4 -->
<g id="node4" class="node"><title>Node4</title>
<g id="a_node4"><a xlink:href="class_reporter.html#a088522cbaeeeb5352f117c336d6a1bdb" target="_top" xlink:title="Reporter::generateReport">
<polygon fill="white" stroke="black" points="161.5,-96.5026 161.5,-115.503 288.5,-115.503 288.5,-96.5026 161.5,-96.5026"/>
<text text-anchor="middle" x="225" y="-103.503" font-family="Helvetica,sans-Serif" font-size="10.00">Reporter::generateReport</text>
</a>
</g>
</g>
<!-- Node1&#45;&gt;Node4 -->
<g id="edge3" class="edge"><title>Node1&#45;&gt;Node4</title>
<path fill="none" stroke="midnightblue" d="M113.745,-79.8987C136.305,-85.24 162.561,-91.4563 183.79,-96.4826"/>
<polygon fill="midnightblue" stroke="midnightblue" points="114.538,-76.4897 104.001,-77.5916 112.926,-83.3014 114.538,-76.4897"/>
</g>
<!-- Node5 -->
<g id="node5" class="node"><title>Node5</title>
<g id="a_node5"><a xlink:href="class_scenario.html#a4d82ef21d5fab6baa8848a79041c0074" target="_top" xlink:title="Scenario::getPath">
<polygon fill="white" stroke="black" points="177.5,-58.5026 177.5,-77.5026 272.5,-77.5026 272.5,-58.5026 177.5,-58.5026"/>
<text text-anchor="middle" x="225" y="-65.5026" font-family="Helvetica,sans-Serif" font-size="10.00">Scenario::getPath</text>
</a>
</g>
</g>
<!-- Node1&#45;&gt;Node5 -->
<g id="edge5" class="edge"><title>Node1&#45;&gt;Node5</title>
<path fill="none" stroke="midnightblue" d="M135.362,-68.0026C149.583,-68.0026 164.161,-68.0026 177.28,-68.0026"/>
<polygon fill="midnightblue" stroke="midnightblue" points="135.095,-64.5027 125.094,-68.0026 135.094,-71.5027 135.095,-64.5027"/>
</g>
<!-- Node6 -->
<g id="node6" class="node"><title>Node6</title>
<g id="a_node6"><a xlink:href="class_simulator.html#a7a8ed7267e6892f0d16c9ffe8b16a353" target="_top" xlink:title="Simulator::createBuilding">
<polygon fill="white" stroke="black" points="162.5,-20.5026 162.5,-39.5026 287.5,-39.5026 287.5,-20.5026 162.5,-20.5026"/>
<text text-anchor="middle" x="225" y="-27.5026" font-family="Helvetica,sans-Serif" font-size="10.00">Simulator::createBuilding</text>
</a>
</g>
</g>
<!-- Node1&#45;&gt;Node6 -->
<g id="edge6" class="edge"><title>Node1&#45;&gt;Node6</title>
<path fill="none" stroke="midnightblue" d="M113.745,-56.1065C136.305,-50.7652 162.561,-44.5489 183.79,-39.5227"/>
<polygon fill="midnightblue" stroke="midnightblue" points="112.926,-52.7038 104.001,-58.4136 114.538,-59.5155 112.926,-52.7038"/>
</g>
<!-- Node7 -->
<g id="node7" class="node"><title>Node7</title>
<g id="a_node7"><a xlink:href="class_simulator.html#aa2de7e32b04cc3e8fc60aec23997621b" target="_top" xlink:title="Simulator::run">
<polygon fill="white" stroke="black" points="335.5,-1.5026 335.5,-20.5026 412.5,-20.5026 412.5,-1.5026 335.5,-1.5026"/>
<text text-anchor="middle" x="374" y="-8.5026" font-family="Helvetica,sans-Serif" font-size="10.00">Simulator::run</text>
</a>
</g>
</g>
<!-- Node1&#45;&gt;Node7 -->
<g id="edge8" class="edge"><title>Node1&#45;&gt;Node7</title>
<path fill="none" stroke="midnightblue" d="M83.2142,-52.202C101.961,-38.2649 131.592,-18.9683 161,-11.0026 220.327,5.06696 292.468,0.170768 335.458,-5.17586"/>
<polygon fill="midnightblue" stroke="midnightblue" points="80.9871,-49.4989 75.1701,-58.3541 85.2396,-55.0592 80.9871,-49.4989"/>
</g>
<!-- Node3 -->
<g id="node3" class="node"><title>Node3</title>
<g id="a_node3"><a xlink:href="class_reporter.html#a120ba995597e26d317aca9651a6260e6" target="_top" xlink:title="Reporter::generate">
<polygon fill="white" stroke="black" points="325,-118.503 325,-137.503 423,-137.503 423,-118.503 325,-118.503"/>
<text text-anchor="middle" x="374" y="-125.503" font-family="Helvetica,sans-Serif" font-size="10.00">Reporter::generate</text>
</a>
</g>
</g>
<!-- Node2&#45;&gt;Node3 -->
<g id="edge2" class="edge"><title>Node2&#45;&gt;Node3</title>
<path fill="none" stroke="midnightblue" d="M299.365,-139.023C308.055,-137.722 316.747,-136.421 324.956,-135.193"/>
<polygon fill="midnightblue" stroke="midnightblue" points="298.566,-135.603 289.194,-140.545 299.602,-142.526 298.566,-135.603"/>
</g>
<!-- Node4&#45;&gt;Node3 -->
<g id="edge4" class="edge"><title>Node4&#45;&gt;Node3</title>
<path fill="none" stroke="midnightblue" d="M298.686,-116.881C307.501,-118.2 316.332,-119.522 324.671,-120.77"/>
<polygon fill="midnightblue" stroke="midnightblue" points="299.176,-113.415 288.768,-115.396 298.139,-120.338 299.176,-113.415"/>
</g>
<!-- Node6&#45;&gt;Node7 -->
<g id="edge7" class="edge"><title>Node6&#45;&gt;Node7</title>
<path fill="none" stroke="midnightblue" d="M297.833,-20.7181C310.855,-19.0349 323.947,-17.3427 335.473,-15.853"/>
<polygon fill="midnightblue" stroke="midnightblue" points="297.384,-17.2469 287.915,-22 298.281,-24.1891 297.384,-17.2469"/>
</g>
</g>
</svg>
