<?xml version="1.0" encoding="UTF-8" standalone="no"?>
<!DOCTYPE svg PUBLIC "-//W3C//DTD SVG 1.1//EN"
 "http://www.w3.org/Graphics/SVG/1.1/DTD/svg11.dtd">
<!-- Generated by graphviz version 2.38.0 (20140413.2041)
 -->
<!-- Title: Helpers::costFunctionName Pages: 1 -->
<svg width="445pt" height="173pt"
 viewBox="0.00 0.00 445.00 172.97" xmlns="http://www.w3.org/2000/svg" xmlns:xlink="http://www.w3.org/1999/xlink">
<g id="graph0" class="graph" transform="scale(1 1) rotate(0) translate(4 168.967)">
<title>Helpers::costFunctionName</title>
<polygon fill="white" stroke="none" points="-4,4 -4,-168.967 441,-168.967 441,4 -4,4"/>
<!-- Node1 -->
<g id="node1" class="node"><title>Node1</title>
<polygon fill="#bfbfbf" stroke="black" points="0,-57.9672 0,-76.9672 139,-76.9672 139,-57.9672 0,-57.9672"/>
<text text-anchor="middle" x="69.5" y="-64.9672" font-family="Helvetica,sans-Serif" font-size="10.00">Helpers::costFunctionName</text>
</g>
<!-- Node2 -->
<g id="node2" class="node"><title>Node2</title>
<g id="a_node2"><a xlink:href="class_reporter.html#aee1c3bbf665f10a2fb27da4f9154b7ee" target="_top" xlink:title="Reporter::generateUnified\lReport">
<polygon fill="white" stroke="black" points="175,-134.467 175,-164.467 303,-164.467 303,-134.467 175,-134.467"/>
<text text-anchor="start" x="183" y="-152.467" font-family="Helvetica,sans-Serif" font-size="10.00">Reporter::generateUnified</text>
<text text-anchor="middle" x="239" y="-141.467" font-family="Helvetica,sans-Serif" font-size="10.00">Report</text>
</a>
</g>
</g>
<!-- Node1&#45;&gt;Node2 -->
<g id="edge1" class="edge"><title>Node1&#45;&gt;Node2</title>
<path fill="none" stroke="midnightblue" d="M95.3306,-82.1259C116.231,-94.1918 147.093,-111.378 175,-124.467 182.351,-127.915 190.316,-131.32 198.03,-134.456"/>
<polygon fill="midnightblue" stroke="midnightblue" points="96.8792,-78.9777 86.4753,-76.9755 93.3599,-85.0287 96.8792,-78.9777"/>
</g>
<!-- Node4 -->
<g id="node4" class="node"><title>Node4</title>
<g id="a_node4"><a xlink:href="class_reporter.html#a088522cbaeeeb5352f117c336d6a1bdb" target="_top" xlink:title="Reporter::generateReport">
<polygon fill="white" stroke="black" points="175.5,-95.9672 175.5,-114.967 302.5,-114.967 302.5,-95.9672 175.5,-95.9672"/>
<text text-anchor="middle" x="239" y="-102.967" font-family="Helvetica,sans-Serif" font-size="10.00">Reporter::generateReport</text>
</a>
</g>
</g>
<!-- Node1&#45;&gt;Node4 -->
<g id="edge3" class="edge"><title>Node1&#45;&gt;Node4</title>
<path fill="none" stroke="midnightblue" d="M122.62,-79.2915C146.235,-84.6488 173.782,-90.8984 196.037,-95.9472"/>
<polygon fill="midnightblue" stroke="midnightblue" points="123.294,-75.8555 112.767,-77.0562 121.745,-82.682 123.294,-75.8555"/>
</g>
<!-- Node5 -->
<g id="node5" class="node"><title>Node5</title>
<g id="a_node5"><a xlink:href="class_scenario.html#a4d82ef21d5fab6baa8848a79041c0074" target="_top" xlink:title="Scenario::getPath">
<polygon fill="white" stroke="black" points="191.5,-57.9672 191.5,-76.9672 286.5,-76.9672 286.5,-57.9672 191.5,-57.9672"/>
<text text-anchor="middle" x="239" y="-64.9672" font-family="Helvetica,sans-Serif" font-size="10.00">Scenario::getPath</text>
</a>
</g>
</g>
<!-- Node1&#45;&gt;Node5 -->
<g id="edge5" class="edge"><title>Node1&#45;&gt;Node5</title>
<path fill="none" stroke="midnightblue" d="M149.463,-67.4672C163.756,-67.4672 178.235,-67.4672 191.229,-67.4672"/>
<polygon fill="midnightblue" stroke="midnightblue" points="149.112,-63.9673 139.112,-67.4672 149.112,-70.9673 149.112,-63.9673"/>
</g>
<!-- Node6 -->
<g id="node6" class="node"><title>Node6</title>
<g id="a_node6"><a xlink:href="class_simulator.html#a7a8ed7267e6892f0d16c9ffe8b16a353" target="_top" xlink:title="Simulator::createBuilding">
<polygon fill="white" stroke="black" points="176.5,-19.9672 176.5,-38.9672 301.5,-38.9672 301.5,-19.9672 176.5,-19.9672"/>
<text text-anchor="middle" x="239" y="-26.9672" font-family="Helvetica,sans-Serif" font-size="10.00">Simulator::createBuilding</text>
</a>
</g>
</g>
<!-- Node1&#45;&gt;Node6 -->
<g id="edge6" class="edge"><title>Node1&#45;&gt;Node6</title>
<path fill="none" stroke="midnightblue" d="M122.62,-55.643C146.235,-50.2856 173.782,-44.0361 196.037,-38.9873"/>
<polygon fill="midnightblue" stroke="midnightblue" points="121.745,-52.2525 112.767,-57.8782 123.294,-59.079 121.745,-52.2525"/>
</g>
<!-- Node7 -->
<g id="node7" class="node"><title>Node7</title>
<g id="a_node7"><a xlink:href="class_simulator.html#aa2de7e32b04cc3e8fc60aec23997621b" target="_top" xlink:title="Simulator::run">
<polygon fill="white" stroke="black" points="349.5,-0.967234 349.5,-19.9672 426.5,-19.9672 426.5,-0.967234 349.5,-0.967234"/>
<text text-anchor="middle" x="388" y="-7.96723" font-family="Helvetica,sans-Serif" font-size="10.00">Simulator::run</text>
</a>
</g>
</g>
<!-- Node1&#45;&gt;Node7 -->
<g id="edge8" class="edge"><title>Node1&#45;&gt;Node7</title>
<path fill="none" stroke="midnightblue" d="M91.5425,-51.8412C111.751,-37.8801 143.742,-18.4378 175,-10.4672 234.381,4.67459 306.198,0.120216 349.156,-4.91503"/>
<polygon fill="midnightblue" stroke="midnightblue" points="89.2616,-49.168 83.1313,-57.8092 93.3123,-54.8769 89.2616,-49.168"/>
</g>
<!-- Node3 -->
<g id="node3" class="node"><title>Node3</title>
<g id="a_node3"><a xlink:href="class_reporter.html#a120ba995597e26d317aca9651a6260e6" target="_top" xlink:title="Reporter::generate">
<polygon fill="white" stroke="black" points="339,-117.967 339,-136.967 437,-136.967 437,-117.967 339,-117.967"/>
<text text-anchor="middle" x="388" y="-124.967" font-family="Helvetica,sans-Serif" font-size="10.00">Reporter::generate</text>
</a>
</g>
</g>
<!-- Node2&#45;&gt;Node3 -->
<g id="edge2" class="edge"><title>Node2&#45;&gt;Node3</title>
<path fill="none" stroke="midnightblue" d="M313.365,-138.487C322.055,-137.187 330.747,-135.886 338.956,-134.658"/>
<polygon fill="midnightblue" stroke="midnightblue" points="312.566,-135.068 303.194,-140.01 313.602,-141.991 312.566,-135.068"/>
</g>
<!-- Node4&#45;&gt;Node3 -->
<g id="edge4" class="edge"><title>Node4&#45;&gt;Node3</title>
<path fill="none" stroke="midnightblue" d="M312.686,-116.345C321.501,-117.665 330.332,-118.986 338.671,-120.234"/>
<polygon fill="midnightblue" stroke="midnightblue" points="313.176,-112.88 302.768,-114.861 312.139,-119.803 313.176,-112.88"/>
</g>
<!-- Node6&#45;&gt;Node7 -->
<g id="edge7" class="edge"><title>Node6&#45;&gt;Node7</title>
<path fill="none" stroke="midnightblue" d="M311.833,-20.1827C324.855,-18.4996 337.947,-16.8074 349.473,-15.3176"/>
<polygon fill="midnightblue" stroke="midnightblue" points="311.384,-16.7115 301.915,-21.4646 312.281,-23.6538 311.384,-16.7115"/>
</g>
</g>
</svg>
